<svg width="90" height="90" viewBox="0 0 90 90" fill="none" xmlns="http://www.w3.org/2000/svg">
<g clip-path="url(#clip0)">
<path d="M51.5842 22.603C54.8331 24.4314 58.9902 23.2554 60.8695 19.9763C62.7488 16.6971 61.6385 12.5566 58.3896 10.7282C55.1408 8.89973 50.9836 10.0758 49.1044 13.3549C47.2251 16.634 48.3354 20.7746 51.5842 22.603Z" fill="#B9CEF9"/>
<path d="M49.3094 33.3845L54.9636 41.1693C55.4571 41.7026 56.1488 42.0086 56.8754 42.0149L65.6089 42.0901C67.0784 42.1225 68.2905 40.9468 68.303 39.4769C68.3154 38.0071 67.1233 36.8111 65.6535 36.8186L58.0598 36.7536C54.7105 32.2139 53.0728 29.2422 50.4508 24.9465C49.6251 23.5131 47.6292 22.9932 47.6292 22.9932C47.0836 22.8478 46.4718 22.7411 45.8328 22.7244C44.4272 22.6877 42.8901 23.0897 41.6355 24.4901C37.0154 29.6473 30.8212 38.6015 29.832 40.1572C27.9978 43.9094 29.5742 45.6153 32.8165 47.5472C32.8165 47.5472 46.6078 54.4738 46.8442 54.5867C47.0298 54.6754 46.8624 54.8403 46.8648 54.838L41.1309 62.1521L35.2854 69.6432C34.0834 71.1477 34.3418 73.3445 35.8601 74.5292C37.3783 75.7138 39.5716 75.43 40.7387 73.8982L54.9877 55.6374C56.2715 53.9919 55.8166 51.5928 54.0195 50.5316C53.9658 50.4997 53.9112 50.4693 53.8559 50.4403L41.4171 43.9449L49.3094 33.3845Z" fill="#B9CEF9"/>
<path d="M72.4381 47.9668C69.2643 47.9668 66.1621 48.9095 63.523 50.676C60.8841 52.4426 58.8271 54.9533 57.612 57.8912C56.3971 60.829 56.0785 64.0616 56.6971 67.1809C57.3154 70.2999 58.8429 73.1654 61.0865 75.4148C63.3299 77.664 66.1882 79.1961 69.3008 79.8179C72.4132 80.4395 75.6399 80.1226 78.5726 78.907C81.5052 77.6916 84.0125 75.632 85.7772 72.9888C87.5418 70.3457 88.4847 67.2374 88.4867 64.0573C88.4893 61.9444 88.0761 59.8517 87.2707 57.8988C86.4652 55.9461 85.2834 54.1717 83.7928 52.6772C82.302 51.1825 80.532 49.9974 78.5836 49.189C76.6353 48.3807 74.5469 47.9654 72.4381 47.9668ZM72.4381 53.2385C73.8575 53.2385 75.2631 53.5181 76.5745 54.0613C77.8859 54.6045 79.0774 55.4006 80.0811 56.4043C81.0848 57.408 81.881 58.5996 82.4242 59.911C82.9674 61.2224 83.2469 62.6279 83.2469 64.0473C83.2469 65.4668 82.9674 66.8723 82.4242 68.1837C81.881 69.4951 81.0848 70.6867 80.0811 71.6904C79.0774 72.6941 77.8859 73.4902 76.5745 74.0334C75.2631 74.5766 73.8575 74.8562 72.4381 74.8562C71.0187 74.8562 69.6131 74.5766 68.3017 74.0334C66.9903 73.4902 65.7988 72.6941 64.7951 71.6904C63.7914 70.6867 62.9952 69.4951 62.452 68.1837C61.9088 66.8723 61.6292 65.4668 61.6293 64.0473C61.6292 62.6279 61.9088 61.2224 62.452 59.911C62.9952 58.5996 63.7914 57.408 64.7951 56.4043C65.7988 55.4006 66.9903 54.6045 68.3017 54.0613C69.6131 53.5181 71.0187 53.2385 72.4381 53.2385V53.2385Z" fill="#B9CEF9"/>
<path d="M17.5619 47.9707C14.3881 47.9707 11.2855 48.9137 8.64646 50.6802C6.00757 52.4468 3.95089 54.9576 2.73581 57.8955C1.52091 60.8332 1.20233 64.0659 1.82086 67.1851C2.43921 70.3042 3.96667 73.1693 6.21024 75.4187C8.45364 77.6679 11.312 79.2004 14.4246 79.8221C17.537 80.4437 20.7637 80.1265 23.6964 78.9109C26.629 77.6955 29.1362 75.6362 30.901 72.9931C32.6656 70.35 33.6084 67.2416 33.6105 64.0616C33.613 61.9487 33.1999 59.8559 32.3944 57.903C31.589 55.9503 30.4072 54.176 28.9166 52.6814C27.4258 51.1867 25.6558 50.0013 23.7073 49.1929C21.7591 48.3846 19.6707 47.9693 17.5619 47.9707V47.9707ZM17.5619 53.2428C18.9813 53.2428 20.3868 53.5223 21.6982 54.0655C23.0096 54.6087 24.2012 55.4049 25.2049 56.4086C26.2086 57.4123 27.0047 58.6038 27.5479 59.9152C28.0911 61.2266 28.3707 62.6322 28.3707 64.0516C28.3707 65.471 28.0911 66.8766 27.5479 68.188C27.0047 69.4994 26.2086 70.6909 25.2049 71.6946C24.2012 72.6983 23.0096 73.4945 21.6982 74.0377C20.3868 74.5809 18.9813 74.8604 17.5619 74.8604C16.1424 74.8604 14.7369 74.5809 13.4255 74.0377C12.1141 73.4945 10.9225 72.6983 9.91884 71.6946C8.91515 70.6909 8.11898 69.4994 7.57579 68.188C7.03259 66.8766 6.75302 65.471 6.75303 64.0516C6.75302 62.6322 7.03259 61.2266 7.57578 59.9152C8.11898 58.6038 8.91515 57.4123 9.91884 56.4086C10.9225 55.4049 12.1141 54.6087 13.4255 54.0655C14.7369 53.5223 16.1424 53.2428 17.5619 53.2428V53.2428Z" fill="#B9CEF9"/>
</g>
<defs>
<clipPath id="clip0">
<rect width="90" height="90" fill="white"/>
</clipPath>
</defs>
</svg>
