<svg width="50" height="50" viewBox="0 0 50 50" fill="none" xmlns="http://www.w3.org/2000/svg">
<path d="M25.0168 0.862722C24.6314 0.871782 24.2645 1.02992 23.9933 1.30389L15.8259 9.55584C15.685 9.69413 15.5731 9.85904 15.4965 10.041C15.4199 10.2229 15.3803 10.4183 15.3799 10.6156C15.3795 10.813 15.4184 11.0085 15.4942 11.1908C15.57 11.373 15.6813 11.5384 15.8216 11.6772C15.9619 11.8161 16.1284 11.9257 16.3114 11.9996C16.4944 12.0735 16.6903 12.1104 16.8877 12.1079C17.0851 12.1055 17.28 12.0638 17.4611 11.9854C17.6423 11.907 17.806 11.7933 17.9428 11.6511L23.5884 5.94695V14.7412H22.8848C19.164 14.7412 16.1221 17.7831 16.1221 21.5039V23.3267H5.9147L11.6175 17.5225C11.8308 17.3114 11.9754 17.0408 12.0323 16.7461C12.0892 16.4514 12.0558 16.1464 11.9364 15.871C11.8169 15.5957 11.6171 15.3629 11.3631 15.203C11.109 15.0432 10.8127 14.9639 10.5127 14.9754C10.126 14.9902 9.76023 15.155 9.49289 15.4349L1.27565 23.798C0.999484 24.0791 0.845951 24.4581 0.848668 24.8522C0.851385 25.2462 1.01013 25.6231 1.29014 25.9003L9.5421 34.0678C9.68022 34.2093 9.84515 34.3219 10.0272 34.399C10.2094 34.4761 10.405 34.5161 10.6027 34.5168C10.8005 34.5175 10.9964 34.4788 11.179 34.403C11.3617 34.3272 11.5274 34.2157 11.6665 34.0752C11.8056 33.9346 11.9153 33.7678 11.9893 33.5844C12.0632 33.401 12.0999 33.2047 12.0972 33.007C12.0945 32.8092 12.0524 32.614 11.9735 32.4327C11.8945 32.2514 11.7802 32.0877 11.6373 31.951L5.93339 26.3052H16.1221V28.4966C16.1221 32.2174 19.164 35.2593 22.8848 35.2593H23.5949V44.0726L17.7906 38.3694C17.6517 38.2295 17.4864 38.1185 17.3043 38.043C17.1222 37.9674 16.9269 37.9288 16.7298 37.9293C16.5326 37.9298 16.3375 37.9694 16.1558 38.0459C15.9741 38.1224 15.8094 38.2342 15.6712 38.3748C15.533 38.5154 15.4241 38.6821 15.3509 38.8651C15.2776 39.0482 15.2414 39.2439 15.2443 39.441C15.2473 39.6382 15.2894 39.8328 15.3681 40.0135C15.4468 40.1943 15.5607 40.3576 15.703 40.494L24.0662 48.7114C24.3473 48.9876 24.7264 49.1412 25.1204 49.1384C25.5145 49.1356 25.8914 48.9768 26.1686 48.6967L34.3359 40.4448C34.4768 40.3065 34.5887 40.1416 34.6653 39.9596C34.7419 39.7777 34.7815 39.5824 34.7819 39.385C34.7823 39.1876 34.7434 38.9921 34.6676 38.8098C34.5918 38.6276 34.4805 38.4622 34.3402 38.3234C34.1999 38.1845 34.0334 38.0749 33.8504 38.001C33.6674 37.9271 33.4715 37.8902 33.2741 37.8927C33.0767 37.8951 32.8818 37.9368 32.7007 38.0152C32.5195 38.0936 32.3558 38.2073 32.2189 38.3496L26.5734 44.0537V35.2593H27.1153C30.836 35.2593 33.878 32.2174 33.878 28.4966V26.3144H44.0857L38.3825 32.1186C38.2419 32.2574 38.1302 32.4227 38.0541 32.605C37.9779 32.7873 37.9388 32.9829 37.9389 33.1804C37.9391 33.378 37.9786 33.5735 38.0551 33.7557C38.1316 33.9379 38.2435 34.103 38.3844 34.2414C38.5253 34.3799 38.6924 34.489 38.8759 34.5623C39.0593 34.6355 39.2555 34.6716 39.4531 34.6683C39.6506 34.665 39.8455 34.6225 40.0264 34.5432C40.2074 34.4638 40.3707 34.3493 40.5069 34.2062L48.7244 25.8431C49.0005 25.562 49.1539 25.183 49.1512 24.789C49.1484 24.395 48.9897 24.0182 48.7097 23.741L40.4577 15.5733C40.3181 15.4312 40.1514 15.3185 39.9674 15.2419C39.7835 15.1653 39.586 15.1265 39.3868 15.1276C39.0904 15.1293 38.8014 15.2193 38.5565 15.3861C38.3116 15.553 38.1221 15.7891 38.0121 16.0642C37.9021 16.3394 37.8767 16.6411 37.9391 16.9307C38.0016 17.2204 38.149 17.4849 38.3625 17.6903L44.0663 23.3359H33.878V21.5039C33.878 17.7831 30.836 14.7412 27.1153 14.7412H26.5669V5.92807L32.3713 11.6312C32.5101 11.7719 32.6754 11.8835 32.8577 11.9596C33.04 12.0358 33.2356 12.0749 33.4332 12.0747C33.6307 12.0745 33.8263 12.035 34.0084 11.9585C34.1905 11.882 34.3557 11.77 34.4941 11.6291C34.6326 11.4882 34.7416 11.3211 34.8149 11.1377C34.8881 10.9542 34.9242 10.758 34.9209 10.5605C34.9176 10.3629 34.875 10.168 34.7957 9.98712C34.7164 9.8062 34.6018 9.64286 34.4587 9.50664L26.0958 1.2892C25.9536 1.14955 25.7849 1.03984 25.5995 0.966581C25.4142 0.893324 25.216 0.858007 25.0168 0.862722ZM22.8848 17.7197H27.1153C29.2375 17.7197 30.8994 19.3817 30.8994 21.5039V28.4966C30.8994 30.6188 29.2375 32.2808 27.1153 32.2808H22.8848C20.7626 32.2808 19.1006 30.6188 19.1006 28.4966V21.5039C19.1006 19.3817 20.7626 17.7197 22.8848 17.7197Z" fill="#1E88E5"/>
<path d="M25.0002 21.5367C25.8303 21.5367 26.5031 22.2095 26.5031 23.0396C26.5031 23.8696 25.8303 24.5425 25.0002 24.5425C24.1702 24.5425 23.4973 23.8696 23.4973 23.0396C23.4973 22.2095 24.1702 21.5367 25.0002 21.5367Z" fill="#1E88E5"/>
</svg>
