<svg width="80" height="80" viewBox="0 0 80 80" fill="none" xmlns="http://www.w3.org/2000/svg">
<path d="M70.6406 20.5156C70.5469 20.2344 70.4062 19.9844 70.2187 19.7813C70.0312 19.5781 69.8281 19.4063 69.5937 19.2969C69.3594 19.1875 69.1094 19.125 68.8438 19.125H29.7813C28.7188 14.8906 24.875 11.7188 20.3281 11.7188C15.7813 11.7188 11.9375 14.8906 10.8906 19.125C10.6406 19.1406 10.3906 19.1875 10.1406 19.2969C9.85938 19.4063 9.625 19.5781 9.40625 19.7813C9.20313 19.9844 9.03125 20.2344 8.92187 20.5156C8.8125 20.7969 8.75 21.0781 8.75 21.375C8.75 21.6719 8.8125 21.9688 8.92187 22.2344C9.03125 22.5156 9.20313 22.75 9.40625 22.9688C9.60938 23.1719 9.85938 23.3438 10.1406 23.4531C10.375 23.5469 10.6094 23.5938 10.8594 23.625C11.8594 27.9219 15.7344 31.1563 20.3281 31.1563C24.9063 31.1563 28.7812 27.9375 29.7969 23.6406H68.8438C69.0938 23.6406 69.3437 23.5781 69.5937 23.4688C69.8281 23.3594 70.0469 23.1875 70.2187 22.9844C70.4062 22.7813 70.5469 22.5313 70.6406 22.25C70.7344 21.9688 70.7812 21.6875 70.7812 21.375C70.7812 21.0938 70.7344 20.7969 70.6406 20.5156ZM20.3281 26.6563C17.4219 26.6563 15.125 24.3438 15.125 21.4531C15.125 18.5625 17.4375 16.25 20.3281 16.25C23.2344 16.25 25.5312 18.5469 25.5312 21.4531C25.5312 24.3594 23.2344 26.6563 20.3281 26.6563Z" fill="#1E88E5"/>
<path d="M70.5938 39.25C70.5 38.9688 70.3594 38.7344 70.1875 38.5156C70.0156 38.3125 69.8125 38.1406 69.5781 38.0313C69.3594 37.9219 69.1094 37.8594 68.8594 37.8594H49.2031C48.1719 33.5938 44.3125 30.3906 39.75 30.3906C35.1719 30.3906 31.3125 33.6094 30.2969 37.875H10.625C10.375 37.875 10.1406 37.9375 9.90625 38.0469C9.67188 38.1563 9.46875 38.3281 9.29688 38.5313C9.125 38.7344 8.98438 38.9844 8.89063 39.2656C8.79688 39.5469 8.75 39.8281 8.75 40.125C8.75 40.4219 8.79688 40.7188 8.89063 41C8.98438 41.2813 9.125 41.5313 9.29688 41.7344C9.46875 41.9375 9.67188 42.1094 9.90625 42.2188C10.1406 42.3281 10.375 42.3906 10.625 42.3906H30.3125C31.3594 46.6406 35.2031 49.8125 39.75 49.8125C44.3125 49.8125 48.1719 46.6094 49.2031 42.3438H68.875C69.125 42.3438 69.3594 42.2813 69.5938 42.1719C69.8281 42.0625 70.0313 41.8906 70.2031 41.6875C70.375 41.4844 70.5156 41.2344 70.6094 40.9531C70.7031 40.6719 70.75 40.3906 70.75 40.0938C70.7344 39.8125 70.6875 39.5156 70.5938 39.25ZM39.75 45.3125C36.8438 45.3125 34.5469 43 34.5469 40.1094C34.5469 37.2031 36.8438 34.9062 39.75 34.9062C42.6406 34.9062 44.9531 37.2031 44.9531 40.0938C44.9531 40.1094 44.9531 40.1094 44.9531 40.125C44.9531 40.1406 44.9531 40.1406 44.9531 40.1563C44.9531 43.0313 42.6406 45.3125 39.75 45.3125Z" fill="#1E88E5"/>
<path d="M70.6563 58.0156C70.5469 57.7344 70.375 57.5 70.1719 57.2813C69.9688 57.0781 69.7187 56.9063 69.4375 56.7969C69.2344 56.7188 69.0312 56.6563 68.8125 56.6406C67.8281 52.3125 63.9375 49.0469 59.3281 49.0469C54.7813 49.0469 50.9375 52.2188 49.8906 56.4688H10.6875C10.4375 56.4688 10.1875 56.5313 9.9375 56.6406C9.70312 56.75 9.48437 56.9219 9.3125 57.125C9.125 57.3281 8.98438 57.5781 8.89063 57.8594C8.79688 58.1406 8.75 58.4219 8.75 58.7187C8.75 59.0156 8.79688 59.3125 8.89063 59.5938C8.98438 59.875 9.125 60.125 9.3125 60.3281C9.5 60.5313 9.70312 60.7031 9.9375 60.8125C10.1719 60.9219 10.4219 60.9844 10.6875 60.9844H49.8594C50.875 65.2656 54.7344 68.4844 59.3281 68.4844C63.8594 68.4844 67.7031 65.3281 68.7656 61.1094C69 61.0938 69.2187 61.0313 69.4375 60.9531C69.7187 60.8438 69.9531 60.6719 70.1719 60.4688C70.375 60.2656 70.5469 60.0156 70.6563 59.7344C70.7656 59.4531 70.8281 59.1719 70.8281 58.875C70.8281 58.5937 70.7656 58.2969 70.6563 58.0156ZM59.3281 63.9844C56.4219 63.9844 54.125 61.6875 54.125 58.7813C54.125 55.875 56.4219 53.5781 59.3281 53.5781C62.2344 53.5781 64.5312 55.8906 64.5312 58.7813C64.5312 61.6875 62.2344 63.9844 59.3281 63.9844Z" fill="#1E88E5"/>
</svg>
