<svg width="60" height="60" viewBox="0 0 60 60" fill="none" xmlns="http://www.w3.org/2000/svg">
<g clip-path="url(#clip0)">
<path d="M34.3894 15.0685C36.5553 16.2875 39.3267 15.5034 40.5796 13.3174C41.8324 11.1313 41.0922 8.37091 38.9263 7.15195C36.7604 5.93299 33.989 6.71701 32.7362 8.9031C31.4833 11.0892 32.2235 13.8495 34.3894 15.0685Z" fill="#B9CEF9"/>
<path d="M32.8729 22.2562L36.6423 27.4461C36.9713 27.8016 37.4325 28.0056 37.9168 28.0098L43.7392 28.0599C44.7189 28.0815 45.5269 27.2977 45.5352 26.3178C45.5435 25.3379 44.7488 24.5406 43.7689 24.5456L38.7065 24.5023C36.4736 21.4758 35.3818 19.4947 33.6338 16.6309C33.0833 15.6752 31.7527 15.3286 31.7527 15.3286C31.389 15.2317 30.9811 15.1606 30.5551 15.1495C29.6181 15.125 28.5933 15.393 27.7569 16.3266C24.6768 19.7647 20.5474 25.7342 19.8879 26.7713C18.6651 29.2728 19.716 30.4101 21.8776 31.6979C21.8776 31.6979 31.0718 36.3157 31.2294 36.391C31.3531 36.4501 31.2415 36.5601 31.2431 36.5585L27.4205 41.4346L23.5235 46.4286C22.7222 47.4317 22.8945 48.8962 23.9066 49.686C24.9188 50.4757 26.381 50.2865 27.1591 49.2653L36.6584 37.0914C37.5143 35.9944 37.211 34.395 36.0129 33.6876C35.9771 33.6663 35.9407 33.646 35.9038 33.6267L27.6113 29.2965L32.8729 22.2562Z" fill="#B9CEF9"/>
<path d="M48.2921 31.9775C46.1763 31.9775 44.1081 32.606 42.3488 33.7836C40.5895 34.9614 39.2182 36.6352 38.4081 38.5938C37.5982 40.5523 37.3858 42.7074 37.7981 44.7869C38.2104 46.8663 39.2287 48.7766 40.7244 50.2762C42.22 51.7756 44.1256 52.7971 46.2006 53.2116C48.2756 53.626 50.4267 53.4148 52.3818 52.6044C54.3369 51.7941 56.0084 50.421 57.1849 48.6589C58.3613 46.8968 58.9899 44.8246 58.9912 42.7045C58.993 41.296 58.7175 39.9008 58.1805 38.5989C57.6436 37.2971 56.8557 36.1141 55.862 35.1178C54.8681 34.1213 53.6881 33.3313 52.3891 32.7924C51.0903 32.2535 49.698 31.9766 48.2921 31.9775ZM48.2921 35.492C49.2384 35.492 50.1755 35.6784 51.0497 36.0405C51.924 36.4027 52.7184 36.9334 53.3875 37.6026C54.0566 38.2717 54.5874 39.0661 54.9495 39.9403C55.3117 40.8146 55.498 41.7516 55.498 42.6979C55.498 43.6442 55.3117 44.5812 54.9495 45.4555C54.5874 46.3297 54.0566 47.1241 53.3875 47.7932C52.7184 48.4624 51.924 48.9932 51.0497 49.3553C50.1755 49.7174 49.2384 49.9038 48.2921 49.9038C47.3459 49.9038 46.4088 49.7174 45.5346 49.3553C44.6603 48.9932 43.8659 48.4624 43.1968 47.7932C42.5277 47.1241 41.9969 46.3297 41.6348 45.4555C41.2726 44.5812 41.0862 43.6442 41.0863 42.6979C41.0862 41.7516 41.2726 40.8146 41.6348 39.9403C41.9969 39.0661 42.5277 38.2717 43.1968 37.6026C43.8659 36.9334 44.6603 36.4027 45.5346 36.0405C46.4088 35.6784 47.3459 35.492 48.2921 35.492V35.492Z" fill="#B9CEF9"/>
<path d="M11.7079 31.9805C9.59207 31.9805 7.52367 32.6092 5.7643 33.7868C4.00505 34.9646 2.63393 36.6384 1.82387 38.597C1.01394 40.5555 0.801552 42.7106 1.2139 44.7901C1.62614 46.8694 2.64444 48.7795 4.14016 50.2791C5.63576 51.7786 7.54133 52.8002 9.61639 53.2148C11.6913 53.6291 13.8425 53.4177 15.7976 52.6073C17.7527 51.797 19.4241 50.4242 20.6007 48.6621C21.7771 46.9 22.4056 44.8277 22.407 42.7077C22.4087 41.2991 22.1333 39.9039 21.5963 38.602C21.0593 37.3002 20.2715 36.1173 19.2777 35.121C18.2839 34.1245 17.1039 33.3342 15.8049 32.7953C14.506 32.2564 13.1138 31.9796 11.7079 31.9805V31.9805ZM11.7079 35.4952C12.6542 35.4952 13.5912 35.6816 14.4655 36.0437C15.3398 36.4058 16.1341 36.9366 16.8033 37.6057C17.4724 38.2749 18.0032 39.0692 18.3653 39.9435C18.7274 40.8177 18.9138 41.7548 18.9138 42.7011C18.9138 43.6474 18.7274 44.5844 18.3653 45.4586C18.0032 46.3329 17.4724 47.1273 16.8033 47.7964C16.1341 48.4655 15.3398 48.9963 14.4655 49.3585C13.5912 49.7206 12.6542 49.907 11.7079 49.907C10.7616 49.907 9.82459 49.7206 8.95033 49.3584C8.07607 48.9963 7.28169 48.4655 6.61256 47.7964C5.94343 47.1273 5.41265 46.3329 5.05052 45.4586C4.6884 44.5844 4.50201 43.6474 4.50202 42.7011C4.50201 41.7548 4.6884 40.8177 5.05052 39.9435C5.41265 39.0692 5.94343 38.2749 6.61256 37.6057C7.28169 36.9366 8.07607 36.4058 8.95033 36.0437C9.82459 35.6816 10.7616 35.4952 11.7079 35.4952V35.4952Z" fill="#B9CEF9"/>
</g>
<defs>
<clipPath id="clip0">
<rect width="60" height="60" fill="white"/>
</clipPath>
</defs>
</svg>
