<svg width="80" height="80" viewBox="0 0 80 80" fill="none" xmlns="http://www.w3.org/2000/svg">
<path d="M40.027 1.38006C39.4103 1.39456 38.8233 1.64758 38.3894 2.08593L25.3215 15.2891C25.0961 15.5103 24.917 15.7742 24.7945 16.0653C24.672 16.3564 24.6086 16.6689 24.608 16.9847C24.6073 17.3006 24.6695 17.6134 24.7908 17.9049C24.9121 18.1965 25.0902 18.4611 25.3147 18.6833C25.5391 18.9054 25.8055 19.0808 26.0983 19.1991C26.3912 19.3174 26.7046 19.3763 27.0204 19.3724C27.3362 19.3685 27.6481 19.3019 27.9379 19.1764C28.2277 19.0509 28.4897 18.869 28.7086 18.6414L37.7415 9.51483V23.5856H36.6157C30.6625 23.5856 25.7954 28.4526 25.7954 34.4059V37.3224H9.46362L18.5881 28.0356C18.9294 27.6979 19.1608 27.2649 19.2518 26.7934C19.3429 26.3219 19.2893 25.8339 19.0983 25.3934C18.9072 24.9528 18.5875 24.5803 18.181 24.3246C17.7746 24.0688 17.3003 23.9419 16.8205 23.9603C16.2017 23.9841 15.6165 24.2477 15.1887 24.6955L2.04113 38.0765C1.59927 38.5262 1.35362 39.1327 1.35797 39.7631C1.36231 40.3936 1.61631 40.9966 2.06433 41.4402L15.2674 54.5081C15.4885 54.7345 15.7523 54.9147 16.0437 55.038C16.3351 55.1614 16.6481 55.2255 16.9645 55.2266C17.2809 55.2277 17.5943 55.1658 17.8865 55.0445C18.1788 54.9232 18.4439 54.7449 18.6665 54.52C18.8891 54.2951 19.0646 54.0282 19.1829 53.7347C19.3013 53.4413 19.36 53.1272 19.3556 52.8109C19.3513 52.4945 19.284 52.1821 19.1576 51.8921C19.0313 51.602 18.8485 51.3399 18.6198 51.1213L9.49352 42.0881H25.7954V45.5942C25.7954 51.5475 30.6625 56.4145 36.6157 56.4145H37.7519V70.5158L28.4651 61.3907C28.2428 61.1669 27.9784 60.9893 27.687 60.8685C27.3956 60.7476 27.0832 60.6858 26.7677 60.6866C26.4523 60.6874 26.1401 60.7508 25.8494 60.8732C25.5587 60.9955 25.2951 61.1744 25.074 61.3994C24.8529 61.6244 24.6787 61.8911 24.5615 62.1839C24.4442 62.4768 24.3863 62.79 24.391 63.1054C24.3958 63.4208 24.4631 63.7321 24.5891 64.0213C24.715 64.3105 24.8972 64.5718 25.1249 64.7901L38.506 77.938C38.9557 78.3799 39.5623 78.6256 40.1928 78.6211C40.8233 78.6167 41.4264 78.3626 41.8699 77.9145L54.9376 64.7114C55.1629 64.4901 55.3421 64.2263 55.4646 63.9351C55.5871 63.644 55.6505 63.3315 55.6511 63.0157C55.6517 62.6998 55.5896 62.387 55.4683 62.0954C55.347 61.8038 55.1689 61.5393 54.9444 61.3171C54.7199 61.0949 54.4535 60.9196 54.1607 60.8013C53.8679 60.683 53.5544 60.6241 53.2386 60.628C52.9228 60.6319 52.611 60.6985 52.3211 60.824C52.0313 60.9495 51.7693 61.1314 51.5504 61.359L42.5175 70.4856V56.4145H43.3845C49.3377 56.4145 54.2048 51.5475 54.2048 45.5942V42.1027H70.5372L61.4122 51.3895C61.1871 51.6115 61.0084 51.876 60.8866 52.1676C60.7647 52.4593 60.7021 52.7723 60.7024 53.0884C60.7027 53.4045 60.7658 53.7174 60.8882 54.0088C61.0106 54.3003 61.1897 54.5645 61.4152 54.786C61.6406 55.0076 61.9079 55.1821 62.2015 55.2993C62.495 55.4166 62.8089 55.4743 63.125 55.469C63.441 55.4638 63.7529 55.3957 64.0424 55.2688C64.3319 55.1418 64.5932 54.9586 64.8112 54.7297L77.9591 41.3486C78.4008 40.8989 78.6464 40.2925 78.642 39.6621C78.6375 39.0317 78.3836 38.4288 77.9356 37.9853L64.7325 24.917C64.5091 24.6896 64.2423 24.5093 63.948 24.3868C63.6536 24.2643 63.3377 24.2021 63.0189 24.2039C62.5448 24.2065 62.0823 24.3505 61.6905 24.6175C61.2987 24.8844 60.9954 25.2622 60.8194 25.7024C60.6435 26.1427 60.6029 26.6254 60.7027 27.0889C60.8026 27.5524 61.0385 27.9755 61.3801 28.3042L70.5061 37.3371H54.2048V34.4059C54.2048 28.4526 49.3377 23.5856 43.3845 23.5856H42.5071V9.48461L51.7942 18.6097C52.0162 18.8347 52.2807 19.0133 52.5724 19.1351C52.8641 19.2569 53.1771 19.3195 53.4932 19.3192C53.8092 19.3189 54.1221 19.2557 54.4135 19.1333C54.705 19.0109 54.9691 18.8317 55.1907 18.6063C55.4122 18.3808 55.5866 18.1135 55.7039 17.82C55.8211 17.5264 55.8788 17.2125 55.8735 16.8965C55.8682 16.5804 55.8001 16.2686 55.6732 15.9791C55.5463 15.6896 55.363 15.4283 55.1341 15.2103L41.7533 2.06243C41.5259 1.83898 41.2559 1.66345 40.9593 1.54624C40.6628 1.42902 40.3457 1.37252 40.027 1.38006ZM36.6157 28.3512H43.3845C46.78 28.3512 49.4392 31.0104 49.4392 34.4059V45.5942C49.4392 48.9897 46.78 51.6489 43.3845 51.6489H36.6157C33.2202 51.6489 30.561 48.9897 30.561 45.5942V34.4059C30.561 31.0104 33.2202 28.3512 36.6157 28.3512Z" fill="#B9CEF9"/>
<path d="M40.0001 34.4583C41.3282 34.4583 42.4048 35.5349 42.4048 36.8629C42.4048 38.191 41.3282 39.2676 40.0001 39.2676C38.6721 39.2676 37.5955 38.191 37.5955 36.8629C37.5955 35.5349 38.6721 34.4583 40.0001 34.4583Z" fill="#B9CEF9"/>
</svg>
