<svg width="90" height="90" viewBox="0 0 90 90" fill="none" xmlns="http://www.w3.org/2000/svg">
<g clip-path="url(#clip0)">
<path d="M15.2949 27.2557C18.9233 26.2815 21.0873 22.5036 20.1283 18.8175C19.1693 15.1315 15.4504 12.9331 11.822 13.9074C8.19361 14.8816 6.02963 18.6595 6.98865 22.3456C7.94766 26.0316 11.6665 28.23 15.2949 27.2557Z" fill="#B9CEF9"/>
<path d="M21.5735 38.7844C25.7246 40.898 21.8716 38.9199 26.0263 41.0339C26.4124 41.2303 26.8385 41.3319 27.2703 41.3305L35.0753 41.3033C36.6156 41.3225 37.8729 40.0566 37.8678 38.4918C37.8627 36.927 36.5971 35.6696 35.057 35.6993L27.9092 35.7241L21.0014 32.1473C21.0014 32.1473 17.8711 30.2305 16.1311 29.7429C14.5259 29.293 12.7227 30.3261 12.7227 30.3261C11.1375 31.2223 9.33985 32.8761 9.46222 35.6295C9.772 42.6003 11.6256 53.4151 12.0103 55.2328C13.3353 59.2277 15.6734 59.344 19.37 58.4488C20.3879 58.2023 22.0092 57.6295 23.9432 56.8942L38.5651 50.6536C38.8177 50.5536 39.0011 50.6576 38.9769 50.6482C39.3376 50.7869 44.0409 52.7986 48.1948 54.6018C52.3487 56.405 56.2971 58.1292 56.2971 58.1292C58.1 58.9448 60.2113 58.1057 60.9908 56.2637C61.7702 54.4217 60.9169 52.2879 59.0938 51.52C59.0938 51.52 55.1407 49.7934 50.9778 47.9863C46.815 46.1792 42.786 44.4208 41.4841 43.9201C40.7545 43.6395 40.0516 43.4989 39.4079 43.4458V43.4458C37.4771 43.2864 36.0778 43.9147 36.0778 43.9147C36.0336 43.9317 35.9898 43.9495 35.9463 43.9683L23.0646 49.4151L21.5735 38.7844Z" fill="#B9CEF9"/>
<path d="M64.0842 32.5741C63.8127 32.5809 63.5402 32.63 63.2754 32.7198C62.9224 32.8393 62.5898 33.0295 62.2974 33.279C62.0051 33.5285 61.7587 33.8321 61.5718 34.1731L56.5994 43.2489C56.4094 43.5903 56.283 43.9631 56.2278 44.3454C56.1727 44.7276 56.1896 45.1116 56.2778 45.4757C56.3662 45.8396 56.5241 46.1758 56.7422 46.4655C56.9603 46.7549 57.2346 46.9925 57.5487 47.1631C57.8602 47.3337 58.2051 47.4352 58.5643 47.4626C58.9232 47.49 59.2889 47.4422 59.6409 47.322C59.9929 47.2021 60.3245 47.0125 60.6159 46.7635C60.9073 46.5143 61.1528 46.2104 61.3393 45.8701L62.5616 43.6396L64.5743 44.8693C64.1669 46.1012 63.9466 47.4159 63.9466 48.7798C63.9466 54.9391 68.4462 60.0987 74.3256 61.117L3.48507 61.1016C2.73051 61.1426 2.02161 61.4423 1.50331 61.9405C0.985013 62.4385 0.696777 63.0975 0.696777 63.7817C0.696777 64.4661 0.985013 65.1242 1.50331 65.6222C2.02161 66.1203 2.73051 66.4203 3.48507 66.4611H8.40597L6.16812 70.9051H3.65653C3.26757 70.9051 2.88175 70.9756 2.52252 71.1119C2.16329 71.2484 1.83748 71.4485 1.56292 71.7006C1.28836 71.9526 1.07058 72.2515 0.922696 72.5807C0.774807 72.9098 0.699799 73.2625 0.701193 73.6184C0.701193 74.3354 1.01239 75.0231 1.5666 75.5302C2.12081 76.0371 2.87276 76.322 3.65653 76.322H14.026C14.8097 76.322 15.561 76.0371 16.1152 75.5302C16.6694 75.0231 16.9813 74.3354 16.9813 73.6184C16.9828 73.2609 16.9061 72.9068 16.7568 72.5763C16.6076 72.2459 16.3883 71.9456 16.1115 71.6933C15.8347 71.441 15.5062 71.2413 15.1445 71.106C14.7828 70.9707 14.3954 70.9025 14.0046 70.9051H12.343L14.5801 66.4611H75.4456L77.7173 70.9051H75.999C75.6082 70.9025 75.2215 70.9707 74.8598 71.106C74.4982 71.2413 74.1688 71.441 73.8921 71.6933C73.6152 71.9456 73.396 72.2459 73.2467 72.5763C73.0977 72.9068 73.0216 73.2609 73.023 73.6184C73.023 74.3354 73.3343 75.0231 73.8884 75.5302C74.4428 76.0371 75.1946 76.322 75.9784 76.322H86.3478C87.1316 76.322 87.8836 76.0371 88.4377 75.5302C88.9919 75.0231 89.3031 74.3354 89.3031 73.6184C89.3046 73.2625 89.2289 72.9098 89.0809 72.5807C88.933 72.2515 88.7159 71.9526 88.4414 71.7006C88.1668 71.4485 87.8403 71.2484 87.4811 71.1119C87.1219 70.9756 86.7368 70.9051 86.3478 70.9051H83.8936L81.6219 66.4611H86.3265C86.7155 66.4611 87.1004 66.3915 87.4597 66.2565C87.8189 66.1214 88.1447 65.9238 88.4193 65.6744C88.6938 65.4249 88.9117 65.1288 89.0596 64.8031C89.2076 64.4774 89.2826 64.1286 89.2811 63.7766C89.2811 63.067 88.9698 62.3862 88.4157 61.8846C87.8615 61.3829 87.1102 61.1016 86.3265 61.1016H78.6445C84.5189 60.0677 89.0264 54.9391 89.0264 48.7798C89.0264 41.8822 83.3853 36.2388 76.4876 36.2388C72.8927 36.2388 69.6385 37.7718 67.3464 40.2163L65.16 38.8976L66.322 36.776C66.6986 36.0887 66.8102 35.2928 66.6318 34.5632C66.4535 33.8335 65.9999 33.2298 65.3712 32.8853C65.0599 32.7131 64.7148 32.6098 64.355 32.5814C64.2651 32.5743 64.1747 32.5718 64.0842 32.5741V32.5741ZM76.4876 40.7469C80.8073 40.7469 84.2571 44.1967 84.2571 48.5164C84.2571 52.8359 80.8073 56.2874 76.4876 56.2874C72.1681 56.2874 68.7166 52.8359 68.7166 48.5164C68.7166 44.1967 72.1681 40.7469 76.4876 40.7469Z" fill="#B9CEF9"/>
</g>
<defs>
<clipPath id="clip0">
<rect width="90" height="90" fill="white"/>
</clipPath>
</defs>
</svg>
