<svg width="100" height="100" viewBox="0 0 100 100" fill="none" xmlns="http://www.w3.org/2000/svg">
<path d="M45.0913 28.2569L34.5553 34.0178C33.8424 34.4054 32.7831 35.0168 32.5385 35.7905L28.3884 49.0464C27.8397 50.7061 28.7538 52.494 30.4205 53.0211C32.0872 53.5483 33.8631 52.6111 34.3686 50.9377L38.1364 38.8878L42.3949 36.6158L45.0913 28.2569ZM41.1546 60.1296L32.0369 87.5938C31.3143 89.6641 32.5361 91.6597 34.6191 92.345C36.7021 93.0303 38.9421 91.8739 39.5898 89.7789L47.6458 65.5942L41.1546 60.1296ZM42.3949 36.6158C41.7149 40.8478 40.061 51.7046 39.9434 53.2061C39.7673 57.9369 42.3758 59.3818 44.8251 61.3917L54.7717 69.6672L56.1085 88.8461C56.2277 91.0311 58.1125 92.6955 60.2955 92.5435C62.4784 92.3914 64.1143 90.4819 63.9295 88.3015L62.4761 67.4522C62.4017 66.3856 61.8949 65.3956 61.0731 64.7116C61.0731 64.7116 54.5218 59.1339 53.7636 58.5115C52.7807 57.4733 53.0975 56.3433 53.0975 56.3433L55.4707 38.9411C55.83 34.3803 57.1523 29.0748 52.9985 26.5846C50.2624 25.4675 48.0615 26.6315 45.0913 28.2569L42.3949 36.6158ZM60.612 15.9247C60.1718 20.186 56.4048 23.3151 52.1982 22.9136C47.9916 22.5122 44.9383 18.7323 45.3785 14.4709C45.8187 10.2096 49.5857 7.08051 53.7923 7.48196C57.9989 7.8834 61.0521 11.6633 60.612 15.9247V15.9247Z" fill="#1E88E5"/>
<path d="M56.0493 44.6914L59.1332 47.4534C59.2631 47.5716 59.4026 47.6788 59.5504 47.7737L66.9162 52.5033C68.3746 53.4579 70.3316 53.0403 71.2733 51.5735C72.2149 50.1067 71.78 48.1535 70.3049 47.2249L63.1609 42.6386L56.9764 37.1162L56.0493 44.6914Z" fill="#1E88E5"/>
</svg>
