<svg width="79" height="79" viewBox="0 0 79 79" fill="none" xmlns="http://www.w3.org/2000/svg">
<g clip-path="url(#clip0)">
<g clip-path="url(#clip1)">
<path d="M30.1269 50.0369L22.6405 73.8504C22.039 75.6297 23.9253 78.2314 25.7132 78.8067C27.501 79.3821 30.5408 78.1749 31.0899 76.3788L37.6866 56.6363C35.2509 54.5857 32.3177 52.308 30.1269 50.0369Z" fill="#B9CEF9"/>
<path d="M39.8013 17.9408C38.7037 17.969 35.5772 18.6126 34.4016 19.5748C34.2234 19.7207 28.7489 22.4711 27.1264 23.3938C27.0277 23.4499 25.15 24.2167 24.3935 24.9525C23.4582 25.8622 22.8894 26.9171 22.6189 27.5079C22.4905 27.7886 18.6097 40.2892 18.6087 40.295C17.9875 42.9062 19.176 44.175 20.627 44.8676C22.8185 45.9136 24.829 44.5883 25.5386 42.9324C25.6844 42.5922 28.9891 30.8189 29.4071 30.4627C30.1189 29.8561 30.8926 29.5384 31.223 29.4315C31.7416 29.2637 32.1029 28.8705 32.1564 29.7094L30.0863 43.25C30.4074 46.5965 31.1619 48.3625 32.8154 49.7446C35.9236 52.3426 38.1858 54.2501 43.0485 58.3305L44.2329 75.6254C44.3433 77.1364 47.3476 79.59 49.5701 78.9011C51.0171 78.4526 53.1607 77.0279 53.0139 75.5201C52.9217 69.9637 52.5857 66.3982 52.3026 61.5918C52.0464 57.2424 52.4551 55.6132 49.9713 52.8876C44.6878 47.6628 42.1165 47.1975 42.2056 44.7955L44.9793 24.5713C45.5374 20.2072 41.5527 17.8958 39.8013 17.9408Z" fill="#B9CEF9"/>
<path d="M45.4922 36.9773L54.2642 43.6666C56.089 44.6031 58.1738 43.5924 59.0539 42.4116C59.9631 41.1919 59.6596 38.5602 58.7363 37.899L46.5806 28.4929C46.2055 32.1764 45.873 34.3704 45.4922 36.9773Z" fill="#B9CEF9"/>
<path d="M42.3083 15.8087C46.3585 15.8087 49.6419 12.5253 49.6419 8.47501C49.6419 4.42474 46.3585 1.14136 42.3083 1.14136C38.258 1.14136 34.9746 4.42474 34.9746 8.47501C34.9746 12.5253 38.258 15.8087 42.3083 15.8087Z" fill="#B9CEF9"/>
</g>
</g>
<defs>
<clipPath id="clip0">
<rect width="78.0319" height="78.0319" fill="white" transform="translate(0.0473633 0.911865)"/>
</clipPath>
<clipPath id="clip1">
<rect width="78" height="78" fill="white" transform="translate(0 1)"/>
</clipPath>
</defs>
</svg>
