<svg width="79" height="79" viewBox="0 0 79 79" fill="none" xmlns="http://www.w3.org/2000/svg">
<g clip-path="url(#clip0)">
<path d="M12.3487 18.7077C12.0225 18.4939 11.6487 18.364 11.2602 18.3294C10.8718 18.2948 10.4808 18.3567 10.122 18.5096C7.92327 19.438 5.98536 20.8908 4.47765 22.7411C2.96994 24.5913 1.93831 26.7826 1.47292 29.1236C1.00752 31.4645 1.12253 33.8838 1.80788 36.17C2.49324 38.4562 3.72809 40.5398 5.40451 42.2386L3.91378 43.2293C3.71714 43.3485 3.56756 43.5318 3.49023 43.7483C3.4129 43.9648 3.41254 44.2014 3.48921 44.4181C3.55044 44.6229 3.67447 44.8032 3.84379 44.9336C4.01311 45.0639 4.21913 45.1378 4.43271 45.1446H12.3487C12.5199 45.1445 12.6883 45.1012 12.8384 45.0187C12.9885 44.9363 13.1153 44.8173 13.2073 44.6729C13.2915 44.5318 13.3414 44.3729 13.3529 44.209C13.3644 44.0451 13.3371 43.8808 13.2733 43.7294L10.0371 36.5399C9.93767 36.3586 9.78544 36.2119 9.60064 36.1192C9.41584 36.0265 9.20721 35.9922 9.00245 36.0209C8.7977 36.0495 8.6065 36.1398 8.45426 36.2797C8.30203 36.4196 8.19595 36.6025 8.15011 36.8041L7.95197 38.1155C6.5929 36.3625 5.86787 34.2008 5.89514 31.9828C5.89931 30.0259 6.48074 28.1138 7.56661 26.4858C8.65247 24.8579 10.1945 23.5865 11.9996 22.8308C12.4253 22.6543 12.7894 22.3559 13.0463 21.9732C13.3031 21.5905 13.4411 21.1405 13.4432 20.6796C13.4382 20.286 13.3356 19.8998 13.1446 19.5557C12.9536 19.2115 12.6801 18.9201 12.3487 18.7077H12.3487Z" fill="#1E88E5"/>
<path d="M69.1041 45.4561C71.3028 44.5276 73.2408 43.0748 74.7485 41.2246C76.2562 39.3744 77.2878 37.183 77.7532 34.8421C78.2186 32.5012 78.1036 30.0819 77.4182 27.7957C76.7329 25.5094 75.498 23.4259 73.8216 21.727L75.3123 20.7363C75.4944 20.6155 75.6323 20.439 75.7055 20.2331C75.7786 20.0273 75.783 19.8032 75.718 19.5947C75.6568 19.3899 75.5328 19.2096 75.3634 19.0793C75.1941 18.9489 74.9881 18.875 74.7745 18.8682H66.8586C66.6867 18.8635 66.5164 18.9027 66.364 18.9822C66.2115 19.0617 66.0819 19.1788 65.9874 19.3225C65.8929 19.4661 65.8367 19.6315 65.824 19.803C65.8113 19.9745 65.8427 20.1463 65.915 20.3023L69.1513 27.4918C69.2413 27.6912 69.3932 27.8563 69.5844 27.9627C69.7756 28.0691 69.996 28.1111 70.2129 28.0825C70.4299 28.0539 70.6318 27.9563 70.789 27.804C70.9461 27.6518 71.0501 27.453 71.0854 27.237L71.2836 25.9256C72.6251 27.6584 73.3461 29.7915 73.331 31.9829C73.3268 33.9397 72.7454 35.8519 71.6595 37.4798C70.5736 39.1078 69.0316 40.3792 67.2265 41.1348C66.6541 41.3855 66.2046 41.8531 65.9767 42.435C65.7489 43.0169 65.7614 43.6654 66.0115 44.2381C66.2616 44.8107 66.7287 45.2607 67.3104 45.4891C67.8921 45.7175 68.5406 45.7056 69.1135 45.4561H69.1041Z" fill="#1E88E5"/>
<path d="M40.618 25.5122C41.0868 25.5122 41.545 25.6512 41.9347 25.9116C42.3245 26.172 42.6283 26.5422 42.8076 26.9753C42.987 27.4083 43.034 27.8848 42.9425 28.3446C42.8511 28.8043 42.6253 29.2266 42.2939 29.5581C41.9624 29.8895 41.5401 30.1152 41.0804 30.2067C40.6207 30.2981 40.1441 30.2512 39.7111 30.0718C39.278 29.8924 38.9079 29.5886 38.6474 29.1989C38.387 28.8091 38.248 28.3509 38.248 27.8822C38.2481 27.2536 38.4978 26.6508 38.9422 26.2064C39.3867 25.7619 39.9895 25.5122 40.618 25.5122V25.5122Z" fill="#1E88E5"/>
<path d="M25.7896 12.6508C22.5614 12.6508 19.8887 15.3235 19.8887 18.5517V60.7024C19.8887 63.9305 22.5614 66.6033 25.7896 66.6033H53.585C56.8131 66.6033 59.4859 63.9305 59.4859 60.7024V18.5517C59.4859 15.3235 56.8131 12.6508 53.585 12.6508H25.7896ZM25.7896 17.3906H53.585C54.2691 17.3906 54.7461 17.8675 54.7461 18.5517V60.7024C54.7461 61.3865 54.2691 61.8635 53.585 61.8635H25.7896C25.1054 61.8635 24.6285 61.3865 24.6285 60.7024V18.5517C24.6285 17.8675 25.1054 17.3906 25.7896 17.3906V17.3906Z" fill="#1E88E5"/>
</g>
<defs>
<clipPath id="clip0">
<rect width="79" height="79" fill="white"/>
</clipPath>
</defs>
</svg>
