<svg width="50" height="50" viewBox="0 0 50 50" fill="none" xmlns="http://www.w3.org/2000/svg">
<path d="M25.0168 0.862233C24.6314 0.871293 24.2645 1.02943 23.9933 1.3034L15.8259 9.55536C15.685 9.69365 15.5731 9.85855 15.4965 10.0405C15.4199 10.2224 15.3803 10.4178 15.3799 10.6152C15.3795 10.8125 15.4184 11.008 15.4942 11.1903C15.57 11.3725 15.6813 11.5379 15.8216 11.6767C15.9619 11.8156 16.1284 11.9252 16.3114 11.9991C16.4944 12.073 16.6903 12.1099 16.8877 12.1074C17.0851 12.105 17.28 12.0634 17.4611 11.9849C17.6423 11.9065 17.806 11.7928 17.9428 11.6506L23.5884 5.94646V14.7407H22.8848C19.164 14.7407 16.1221 17.7826 16.1221 21.5034V23.3262H5.9147L11.6175 17.522C11.8308 17.3109 11.9754 17.0403 12.0323 16.7456C12.0892 16.4509 12.0558 16.1459 11.9364 15.8706C11.8169 15.5952 11.6171 15.3624 11.3631 15.2025C11.109 15.0427 10.8127 14.9634 10.5127 14.9749C10.126 14.9897 9.76023 15.1545 9.49289 15.4344L1.27565 23.7975C0.999484 24.0786 0.845951 24.4576 0.848668 24.8517C0.851385 25.2457 1.01013 25.6226 1.29014 25.8998L9.5421 34.0673C9.68022 34.2088 9.84515 34.3214 10.0272 34.3985C10.2094 34.4756 10.405 34.5156 10.6027 34.5163C10.8005 34.517 10.9964 34.4783 11.179 34.4025C11.3617 34.3267 11.5274 34.2152 11.6665 34.0747C11.8056 33.9341 11.9153 33.7673 11.9893 33.5839C12.0632 33.4005 12.0999 33.2042 12.0972 33.0065C12.0945 32.8087 12.0524 32.6135 11.9735 32.4322C11.8945 32.2509 11.7802 32.0872 11.6373 31.9505L5.93339 26.3047H16.1221V28.4961C16.1221 32.2169 19.164 35.2588 22.8848 35.2588H23.5949V44.0721L17.7906 38.3689C17.6517 38.229 17.4864 38.118 17.3043 38.0425C17.1222 37.9669 16.9269 37.9283 16.7298 37.9288C16.5326 37.9293 16.3375 37.9689 16.1558 38.0454C15.9741 38.1219 15.8094 38.2337 15.6712 38.3743C15.533 38.5149 15.4241 38.6816 15.3509 38.8646C15.2776 39.0477 15.2414 39.2434 15.2443 39.4406C15.2473 39.6377 15.2894 39.8323 15.3681 40.013C15.4468 40.1938 15.5607 40.3571 15.703 40.4935L24.0662 48.7109C24.3473 48.9871 24.7264 49.1407 25.1204 49.1379C25.5145 49.1352 25.8914 48.9763 26.1686 48.6962L34.3359 40.4443C34.4768 40.306 34.5887 40.1411 34.6653 39.9592C34.7419 39.7772 34.7815 39.5819 34.7819 39.3845C34.7823 39.1871 34.7434 38.9916 34.6676 38.8093C34.5918 38.6271 34.4805 38.4617 34.3402 38.3229C34.1999 38.184 34.0334 38.0744 33.8504 38.0005C33.6674 37.9266 33.4715 37.8897 33.2741 37.8922C33.0767 37.8946 32.8818 37.9363 32.7007 38.0147C32.5195 38.0931 32.3558 38.2068 32.2189 38.3491L26.5734 44.0532V35.2588H27.1153C30.836 35.2588 33.878 32.2169 33.878 28.4961V26.3139H44.0857L38.3825 32.1181C38.2419 32.2569 38.1302 32.4222 38.0541 32.6045C37.9779 32.7868 37.9388 32.9824 37.9389 33.1799C37.9391 33.3775 37.9786 33.5731 38.0551 33.7552C38.1316 33.9374 38.2435 34.1025 38.3844 34.241C38.5253 34.3794 38.6924 34.4885 38.8759 34.5618C39.0593 34.6351 39.2555 34.6711 39.4531 34.6678C39.6506 34.6645 39.8455 34.622 40.0264 34.5427C40.2074 34.4633 40.3707 34.3488 40.5069 34.2057L48.7244 25.8426C49.0005 25.5615 49.1539 25.1825 49.1512 24.7885C49.1484 24.3945 48.9897 24.0177 48.7097 23.7405L40.4577 15.5729C40.3181 15.4307 40.1514 15.318 39.9674 15.2414C39.7835 15.1649 39.586 15.126 39.3868 15.1271C39.0904 15.1288 38.8014 15.2188 38.5565 15.3856C38.3116 15.5525 38.1221 15.7886 38.0121 16.0637C37.9021 16.3389 37.8767 16.6406 37.9391 16.9302C38.0016 17.2199 38.149 17.4844 38.3625 17.6898L44.0663 23.3354H33.878V21.5034C33.878 17.7826 30.836 14.7407 27.1153 14.7407H26.5669V5.92758L32.3713 11.6307C32.5101 11.7714 32.6754 11.883 32.8577 11.9592C33.04 12.0353 33.2356 12.0744 33.4332 12.0742C33.6307 12.074 33.8263 12.0345 34.0084 11.958C34.1905 11.8815 34.3557 11.7695 34.4941 11.6286C34.6326 11.4877 34.7416 11.3206 34.8149 11.1372C34.8881 10.9537 34.9242 10.7575 34.9209 10.56C34.9176 10.3625 34.875 10.1676 34.7957 9.98663C34.7164 9.80571 34.6018 9.64238 34.4587 9.50615L26.0958 1.28872C25.9536 1.14906 25.7849 1.03935 25.5995 0.966093C25.4142 0.892835 25.216 0.857518 25.0168 0.862233ZM22.8848 17.7192H27.1153C29.2375 17.7192 30.8994 19.3812 30.8994 21.5034V28.4961C30.8994 30.6183 29.2375 32.2803 27.1153 32.2803H22.8848C20.7626 32.2803 19.1006 30.6183 19.1006 28.4961V21.5034C19.1006 19.3812 20.7626 17.7192 22.8848 17.7192Z" fill="#B9CEF9"/>
<path d="M25 21.5362C25.83 21.5362 26.5029 22.209 26.5029 23.0391C26.5029 23.8691 25.83 24.542 25 24.542C24.1699 24.542 23.4971 23.8691 23.4971 23.0391C23.4971 22.209 24.1699 21.5362 25 21.5362Z" fill="#B9CEF9"/>
</svg>
