<svg width="50" height="50" viewBox="0 0 50 50" fill="none" xmlns="http://www.w3.org/2000/svg">
<path d="M44.1504 12.8223C44.0918 12.6465 44.0039 12.4902 43.8867 12.3633C43.7695 12.2363 43.6426 12.1289 43.4961 12.0605C43.3496 11.9922 43.1934 11.9531 43.0273 11.9531H18.6133C17.9492 9.30664 15.5469 7.32422 12.7051 7.32422C9.86328 7.32422 7.46094 9.30664 6.80664 11.9531C6.65039 11.9629 6.49414 11.9922 6.33789 12.0605C6.16211 12.1289 6.01563 12.2363 5.87891 12.3633C5.75195 12.4902 5.64453 12.6465 5.57617 12.8223C5.50781 12.998 5.46875 13.1738 5.46875 13.3594C5.46875 13.5449 5.50781 13.7305 5.57617 13.8965C5.64453 14.0723 5.75195 14.2188 5.87891 14.3555C6.00586 14.4824 6.16211 14.5898 6.33789 14.6582C6.48438 14.7168 6.63086 14.7461 6.78711 14.7656C7.41211 17.4512 9.83399 19.4727 12.7051 19.4727C15.5664 19.4727 17.9883 17.4609 18.623 14.7754H43.0273C43.1836 14.7754 43.3398 14.7363 43.4961 14.668C43.6426 14.5996 43.7793 14.4922 43.8867 14.3652C44.0039 14.2383 44.0918 14.082 44.1504 13.9062C44.209 13.7305 44.2383 13.5547 44.2383 13.3594C44.2383 13.1836 44.209 12.998 44.1504 12.8223ZM12.7051 16.6602C10.8887 16.6602 9.45313 15.2148 9.45313 13.4082C9.45313 11.6016 10.8984 10.1563 12.7051 10.1563C14.5215 10.1563 15.957 11.5918 15.957 13.4082C15.957 15.2246 14.5215 16.6602 12.7051 16.6602Z" fill="#1E88E5"/>
<path d="M44.1211 24.5312C44.0625 24.3555 43.9746 24.209 43.8672 24.0723C43.7598 23.9453 43.6328 23.8379 43.4863 23.7695C43.3496 23.7012 43.1934 23.6621 43.0371 23.6621H30.752C30.1074 20.9961 27.6953 18.9941 24.8438 18.9941C21.9824 18.9941 19.5703 21.0059 18.9355 23.6719H6.64063C6.48438 23.6719 6.33789 23.7109 6.19141 23.7793C6.04492 23.8477 5.91797 23.9551 5.81055 24.082C5.70313 24.209 5.61523 24.3652 5.55664 24.541C5.49805 24.7168 5.46875 24.8926 5.46875 25.0781C5.46875 25.2637 5.49805 25.4492 5.55664 25.625C5.61523 25.8008 5.70313 25.957 5.81055 26.084C5.91797 26.2109 6.04492 26.3184 6.19141 26.3867C6.33789 26.4551 6.48438 26.4941 6.64063 26.4941H18.9453C19.5996 29.1504 22.002 31.1328 24.8438 31.1328C27.6953 31.1328 30.1074 29.1309 30.752 26.4648H43.0469C43.2031 26.4648 43.3496 26.4258 43.4961 26.3574C43.6426 26.2891 43.7695 26.1816 43.877 26.0547C43.9844 25.9277 44.0723 25.7715 44.1309 25.5957C44.1895 25.4199 44.2188 25.2441 44.2188 25.0586C44.209 24.8828 44.1797 24.6973 44.1211 24.5312ZM24.8438 28.3203C23.0273 28.3203 21.5918 26.875 21.5918 25.0684C21.5918 23.252 23.0273 21.8164 24.8438 21.8164C26.6504 21.8164 28.0957 23.252 28.0957 25.0586C28.0957 25.0684 28.0957 25.0684 28.0957 25.0781C28.0957 25.0879 28.0957 25.0879 28.0957 25.0977C28.0957 26.8945 26.6504 28.3203 24.8438 28.3203Z" fill="#1E88E5"/>
<path d="M44.1602 36.2598C44.0918 36.084 43.9844 35.9375 43.8574 35.8008C43.7305 35.6738 43.5742 35.5664 43.3984 35.498C43.2715 35.4492 43.1445 35.4102 43.0078 35.4004C42.3926 32.6953 39.9609 30.6543 37.0801 30.6543C34.2383 30.6543 31.8359 32.6367 31.1816 35.293H6.67969C6.52344 35.293 6.36719 35.332 6.21094 35.4004C6.06445 35.4688 5.92773 35.5762 5.82031 35.7031C5.70312 35.8301 5.61523 35.9863 5.55664 36.1621C5.49805 36.3379 5.46875 36.5137 5.46875 36.6992C5.46875 36.8848 5.49805 37.0703 5.55664 37.2461C5.61523 37.4219 5.70312 37.5781 5.82031 37.7051C5.9375 37.832 6.06445 37.9395 6.21094 38.0078C6.35742 38.0762 6.51367 38.1152 6.67969 38.1152H31.1621C31.7969 40.791 34.209 42.8027 37.0801 42.8027C39.9121 42.8027 42.3145 40.8301 42.9785 38.1934C43.125 38.1836 43.2617 38.1445 43.3984 38.0957C43.5742 38.0273 43.7207 37.9199 43.8574 37.793C43.9844 37.666 44.0918 37.5098 44.1602 37.334C44.2285 37.1582 44.2676 36.9824 44.2676 36.7969C44.2676 36.6211 44.2285 36.4355 44.1602 36.2598ZM37.0801 39.9902C35.2637 39.9902 33.8281 38.5547 33.8281 36.7383C33.8281 34.9219 35.2637 33.4863 37.0801 33.4863C38.8965 33.4863 40.332 34.9316 40.332 36.7383C40.332 38.5547 38.8965 39.9902 37.0801 39.9902Z" fill="#1E88E5"/>
</svg>
