<svg width="60" height="60" viewBox="0 0 60 60" fill="none" xmlns="http://www.w3.org/2000/svg">
<g clip-path="url(#clip0)">
<path d="M10.1966 18.1707C12.6155 17.5212 14.0582 15.0025 13.4189 12.5452C12.7795 10.0878 10.3003 8.62223 7.88134 9.27173C5.4624 9.92123 4.01975 12.4398 4.6591 14.8972C5.29844 17.3546 7.77767 18.8202 10.1966 18.1707Z" fill="#1E88E5"/>
<path d="M14.3823 25.8562C17.1498 27.2654 14.5811 25.9466 17.3509 27.3559C17.6083 27.4869 17.8924 27.5546 18.1802 27.5536L23.3835 27.5355C24.4104 27.5484 25.2486 26.7044 25.2452 25.6612C25.2418 24.618 24.398 23.7797 23.3713 23.7995L18.6061 23.8161L14.0009 21.4316C14.0009 21.4316 11.9141 20.1536 10.7541 19.8286C9.6839 19.5287 8.48179 20.2174 8.48179 20.2174C7.42499 20.8148 6.22657 21.9174 6.30815 23.753C6.51466 28.4002 7.75041 35.6101 8.00688 36.8218C8.89022 39.4851 10.449 39.5627 12.9134 38.9659C13.5919 38.8016 14.6728 38.4197 15.9621 37.9295L25.7101 33.7691C25.8785 33.7024 26.0007 33.7717 25.9846 33.7655C26.2251 33.8579 29.3606 35.1991 32.1299 36.4012C34.8992 37.6034 37.5314 38.7528 37.5314 38.7528C38.7333 39.2966 40.1409 38.7371 40.6605 37.5091C41.1802 36.2812 40.6113 34.8586 39.3959 34.3466C39.3959 34.3466 36.7605 33.1956 33.9852 31.9909C31.21 30.7861 28.524 29.6139 27.6561 29.2801C27.1697 29.093 26.701 28.9993 26.272 28.9639V28.9639C24.9847 28.8576 24.0519 29.2765 24.0519 29.2765C24.0224 29.2878 23.9932 29.2997 23.9642 29.3122L15.3764 32.9434L14.3823 25.8562Z" fill="#1E88E5"/>
<path d="M42.7229 21.7159C42.5419 21.7204 42.3602 21.7531 42.1837 21.813C41.9483 21.8927 41.7266 22.0195 41.5317 22.1859C41.3368 22.3522 41.1726 22.5546 41.048 22.7819L37.733 28.8324C37.6064 29.06 37.5221 29.3086 37.4853 29.5634C37.4486 29.8182 37.4598 30.0742 37.5186 30.317C37.5775 30.5596 37.6828 30.7837 37.8282 30.9768C37.9736 31.1698 38.1565 31.3282 38.3659 31.4419C38.5735 31.5556 38.8035 31.6233 39.0429 31.6416C39.2822 31.6598 39.526 31.628 39.7607 31.5479C39.9954 31.4679 40.2164 31.3415 40.4107 31.1755C40.6049 31.0094 40.7686 30.8067 40.8929 30.5799L41.7078 29.0929L43.0496 29.9127C42.778 30.734 42.6311 31.6105 42.6311 32.5197C42.6311 36.6259 45.6309 40.0656 49.5505 40.7445L2.32346 40.7342C1.82042 40.7615 1.34782 40.9614 1.00229 41.2935C0.656757 41.6255 0.4646 42.0648 0.4646 42.521C0.4646 42.9772 0.656757 43.4159 1.00229 43.7479C1.34782 44.0801 1.82042 44.28 2.32346 44.3072H5.60406L4.11216 47.2699H2.43777C2.17846 47.2699 1.92125 47.3169 1.68176 47.4078C1.44228 47.4988 1.22507 47.6322 1.04203 47.8002C0.858991 47.9682 0.713804 48.1675 0.615212 48.387C0.51662 48.6064 0.466614 48.8415 0.467543 49.0787C0.467543 49.5567 0.67501 50.0153 1.04448 50.3533C1.41396 50.6912 1.91526 50.8812 2.43777 50.8812H9.35072C9.87323 50.8812 10.3741 50.6912 10.7435 50.3533C11.113 50.0153 11.3209 49.5567 11.3209 49.0787C11.322 48.8404 11.2708 48.6043 11.1713 48.3841C11.0718 48.1638 10.9256 47.9635 10.7411 47.7953C10.5565 47.6271 10.3376 47.4941 10.0964 47.4038C9.8553 47.3136 9.597 47.2682 9.3365 47.2699H8.22873L9.72014 44.3072H50.2971L51.8116 47.2699H50.6661C50.4056 47.2682 50.1477 47.3136 49.9066 47.4038C49.6655 47.4941 49.446 47.6271 49.2615 47.7953C49.0769 47.9635 48.9307 48.1638 48.8312 48.3841C48.7319 48.6043 48.6812 48.8404 48.6821 49.0787C48.6821 49.5567 48.8896 50.0153 49.259 50.3533C49.6286 50.6912 50.1298 50.8812 50.6523 50.8812H57.5653C58.0878 50.8812 58.5891 50.6912 58.9586 50.3533C59.328 50.0153 59.5355 49.5567 59.5355 49.0787C59.5365 48.8415 59.486 48.6064 59.3873 48.387C59.2888 48.1675 59.144 47.9682 58.961 47.8002C58.7779 47.6322 58.5603 47.4988 58.3208 47.4078C58.0813 47.3169 57.8246 47.2699 57.5653 47.2699H55.9292L54.4147 44.3072H57.5511C57.8104 44.3072 58.067 44.2608 58.3066 44.1708C58.546 44.0807 58.7632 43.949 58.9463 43.7828C59.1293 43.6164 59.2745 43.4191 59.3731 43.2019C59.4718 42.9848 59.5218 42.7522 59.5208 42.5175C59.5208 42.0445 59.3133 41.5907 58.9439 41.2562C58.5744 40.9218 58.0736 40.7342 57.5511 40.7342H52.4297C56.346 40.045 59.351 36.6259 59.351 32.5197C59.351 27.9213 55.5903 24.159 50.9918 24.159C48.5952 24.159 46.4258 25.1811 44.8977 26.8107L43.4401 25.9315L44.2148 24.5172C44.4658 24.059 44.5402 23.5284 44.4213 23.0419C44.3024 22.5555 44 22.153 43.5809 21.9234C43.3733 21.8086 43.1433 21.7397 42.9034 21.7208C42.8435 21.716 42.7832 21.7143 42.7229 21.7159V21.7159ZM50.9918 27.1644C53.8716 27.1644 56.1715 29.4643 56.1715 32.3441C56.1715 35.2238 53.8716 37.5248 50.9918 37.5248C48.1121 37.5248 45.8112 35.2238 45.8112 32.3441C45.8112 29.4643 48.1121 27.1644 50.9918 27.1644Z" fill="#1E88E5"/>
</g>
<defs>
<clipPath id="clip0">
<rect width="60" height="60" fill="white"/>
</clipPath>
</defs>
</svg>
