<svg width="70" height="70" viewBox="0 0 70 70" fill="none" xmlns="http://www.w3.org/2000/svg">
<g clip-path="url(#clip0)">
<path d="M22.4302 15.2289C22.1544 15.2288 21.8811 15.283 21.6262 15.3885C21.3713 15.4941 21.1397 15.6488 20.9446 15.8438C20.7494 16.0388 20.5947 16.2704 20.4891 16.5253C20.3835 16.7802 20.3291 17.0534 20.3291 17.3293C20.3291 17.6052 20.3835 17.8783 20.4891 18.1332C20.5947 18.3881 20.7494 18.6197 20.9446 18.8147C21.1397 19.0098 21.3713 19.1645 21.6262 19.27C21.8811 19.3755 22.1544 19.4297 22.4302 19.4296H66.8947C67.1706 19.4297 67.4438 19.3755 67.6987 19.27C67.9537 19.1645 68.1853 19.0098 68.3804 18.8147C68.5755 18.6197 68.7303 18.3881 68.8359 18.1332C68.9415 17.8783 68.9959 17.6052 68.9959 17.3293C68.9959 17.0534 68.9415 16.7802 68.8359 16.5253C68.7303 16.2704 68.5755 16.0388 68.3804 15.8438C68.1853 15.6488 67.9537 15.4941 67.6987 15.3885C67.4438 15.283 67.1706 15.2288 66.8947 15.2289H22.4302Z" fill="#B9CEF9"/>
<path d="M3.40193 15.2289C3.12604 15.2288 2.85283 15.283 2.59791 15.3885C2.34299 15.4941 2.11136 15.6488 1.91624 15.8438C1.72112 16.0388 1.56634 16.2704 1.46074 16.5253C1.35513 16.7802 1.30078 17.0534 1.30078 17.3293C1.30078 17.6052 1.35513 17.8783 1.46074 18.1332C1.56634 18.3881 1.72112 18.6197 1.91624 18.8147C2.11136 19.0098 2.34299 19.1645 2.59791 19.27C2.85283 19.3755 3.12604 19.4297 3.40193 19.4296H8.53987C8.81576 19.4297 9.08896 19.3755 9.34388 19.27C9.5988 19.1645 9.83043 19.0098 10.0256 18.8147C10.2207 18.6197 10.3755 18.3881 10.4811 18.1332C10.5867 17.8783 10.641 17.6052 10.641 17.3293C10.641 17.0534 10.5867 16.7802 10.4811 16.5253C10.3755 16.2704 10.2207 16.0388 10.0256 15.8438C9.83043 15.6488 9.5988 15.4941 9.34388 15.3885C9.08896 15.283 8.81576 15.2288 8.53987 15.2289H3.40193Z" fill="#B9CEF9"/>
<path d="M15.4848 8.28528C10.5144 8.28528 6.43945 12.3588 6.43945 17.3292C6.43945 22.2996 10.5144 26.3745 15.4848 26.3745C20.4552 26.3745 24.5301 22.2996 24.5301 17.3292C24.5301 12.3588 20.4552 8.28528 15.4848 8.28528ZM15.4848 12.4853C18.1853 12.4853 20.3301 14.6287 20.3301 17.3292C20.3301 20.0298 18.1853 22.1745 15.4848 22.1745C12.7842 22.1745 10.6395 20.0298 10.6395 17.3292C10.6395 14.6287 12.7842 12.4853 15.4848 12.4853Z" fill="#B9CEF9"/>
<path d="M42.0928 34.0463C41.817 34.0462 41.5437 34.1004 41.2888 34.2059C41.0339 34.3114 40.8023 34.4661 40.6072 34.6612C40.412 34.8562 40.2573 35.0878 40.1517 35.3427C40.0461 35.5976 39.9917 35.8708 39.9917 36.1466C39.9917 36.4225 40.0461 36.6957 40.1517 36.9506C40.2573 37.2055 40.412 37.4371 40.6072 37.6321C40.8023 37.8271 41.0339 37.9818 41.2888 38.0874C41.5437 38.1929 41.817 38.2471 42.0928 38.247H66.895C67.1708 38.2471 67.4441 38.1929 67.699 38.0874C67.9539 37.9818 68.1855 37.8271 68.3806 37.6321C68.5758 37.4371 68.7305 37.2055 68.8361 36.9506C68.9418 36.6957 68.9961 36.4225 68.9961 36.1466C68.9961 35.8708 68.9418 35.5976 68.8361 35.3427C68.7305 35.0878 68.5758 34.8562 68.3806 34.6612C68.1855 34.4661 67.9539 34.3114 67.699 34.2059C67.4441 34.1004 67.1708 34.0462 66.895 34.0463H42.0928Z" fill="#B9CEF9"/>
<path d="M3.40193 34.0463C3.12604 34.0462 2.85283 34.1004 2.59791 34.2059C2.34299 34.3114 2.11136 34.4661 1.91624 34.6612C1.72112 34.8562 1.56634 35.0878 1.46074 35.3427C1.35513 35.5976 1.30078 35.8708 1.30078 36.1466C1.30078 36.4225 1.35513 36.6957 1.46074 36.9506C1.56634 37.2055 1.72112 37.4371 1.91624 37.6321C2.11136 37.8271 2.34299 37.9818 2.59791 38.0874C2.85283 38.1929 3.12604 38.2471 3.40193 38.247H28.2041C28.4799 38.2471 28.7531 38.1929 29.0081 38.0874C29.263 37.9818 29.4946 37.8271 29.6897 37.6321C29.8849 37.4371 30.0396 37.2055 30.1452 36.9506C30.2508 36.6957 30.3052 36.4225 30.3052 36.1466C30.3052 35.8708 30.2508 35.5976 30.1452 35.3427C30.0396 35.0878 29.8849 34.8562 29.6897 34.6612C29.4946 34.4661 29.263 34.3114 29.0081 34.2059C28.7531 34.1004 28.4799 34.0462 28.2041 34.0463H3.40193Z" fill="#B9CEF9"/>
<path d="M35.1475 27.1019C30.1771 27.1019 26.1035 31.1755 26.1035 36.1459C26.1035 41.1163 30.1771 45.1912 35.1475 45.1912C40.1179 45.1912 44.1928 41.1163 44.1928 36.1459C44.1928 31.1755 40.1179 27.1019 35.1475 27.1019ZM35.1475 31.3019C37.848 31.3019 39.9928 33.4453 39.9928 36.1459C39.9928 38.8464 37.848 40.9912 35.1475 40.9912C32.4469 40.9912 30.3035 38.8464 30.3035 36.1459C30.3035 33.4453 32.4469 31.3019 35.1475 31.3019Z" fill="#B9CEF9"/>
<path d="M61.7569 52.863C61.481 52.8629 61.2078 52.9172 60.9529 53.0227C60.698 53.1282 60.4663 53.2829 60.2712 53.478C60.0761 53.673 59.9213 53.9046 59.8157 54.1595C59.7101 54.4143 59.6558 54.6875 59.6558 54.9634C59.6558 55.2393 59.7101 55.5125 59.8157 55.7674C59.9213 56.0223 60.0761 56.2538 60.2712 56.4489C60.4663 56.6439 60.698 56.7986 60.9529 56.9041C61.2078 57.0096 61.481 57.0639 61.7569 57.0638H66.8948C67.1707 57.0639 67.4439 57.0096 67.6989 56.9041C67.9538 56.7986 68.1854 56.6439 68.3805 56.4489C68.5757 56.2538 68.7304 56.0223 68.836 55.7674C68.9416 55.5125 68.996 55.2393 68.996 54.9634C68.996 54.6875 68.9416 54.4143 68.836 54.1595C68.7304 53.9046 68.5757 53.673 68.3805 53.478C68.1854 53.2829 67.9538 53.1282 67.6989 53.0227C67.4439 52.9172 67.1707 52.8629 66.8948 52.863H61.7569Z" fill="#B9CEF9"/>
<path d="M3.40193 52.863C3.12604 52.8629 2.85283 52.9172 2.59791 53.0227C2.34299 53.1282 2.11136 53.2829 1.91624 53.478C1.72112 53.673 1.56634 53.9046 1.46074 54.1595C1.35513 54.4143 1.30078 54.6875 1.30078 54.9634C1.30078 55.2393 1.35513 55.5125 1.46074 55.7674C1.56634 56.0223 1.72112 56.2538 1.91624 56.4489C2.11136 56.6439 2.34299 56.7986 2.59791 56.9041C2.85283 57.0096 3.12604 57.0639 3.40193 57.0638H47.8682C48.1441 57.0639 48.4173 57.0096 48.6722 56.9041C48.9272 56.7986 49.1588 56.6439 49.3539 56.4489C49.549 56.2538 49.7038 56.0223 49.8094 55.7674C49.915 55.5125 49.9694 55.2393 49.9694 54.9634C49.9694 54.6875 49.915 54.4143 49.8094 54.1595C49.7038 53.9046 49.549 53.673 49.3539 53.478C49.1588 53.2829 48.9272 53.1282 48.6722 53.0227C48.4173 52.9172 48.1441 52.8629 47.8682 52.863H3.40193Z" fill="#B9CEF9"/>
<path d="M54.8115 45.9185C49.8411 45.9185 45.7676 49.9934 45.7676 54.9638C45.7676 59.9342 49.8411 64.0077 54.8115 64.0077C59.7819 64.0077 63.8568 59.9342 63.8568 54.9638C63.8568 49.9934 59.7819 45.9185 54.8115 45.9185ZM54.8115 50.1185C57.5121 50.1185 59.6568 52.2632 59.6568 54.9638C59.6568 57.6643 57.5121 59.8077 54.8115 59.8077C52.111 59.8077 49.9676 57.6643 49.9676 54.9638C49.9676 52.2632 52.111 50.1185 54.8115 50.1185Z" fill="#B9CEF9"/>
</g>
<defs>
<clipPath id="clip0">
<rect width="70" height="70" fill="white"/>
</clipPath>
</defs>
</svg>
