<svg width="70" height="70" viewBox="0 0 70 70" fill="none" xmlns="http://www.w3.org/2000/svg">
<path d="M31.5638 19.7796L24.1887 23.8123C23.6896 24.0836 22.9481 24.5116 22.7769 25.0532L19.8718 34.3323C19.4878 35.4941 20.1276 36.7456 21.2943 37.1146C22.461 37.4836 23.7042 36.8276 24.058 35.6562L26.6954 27.2213L29.6764 25.6308L31.5638 19.7796ZM28.8082 42.0905L22.4258 61.3155C21.9199 62.7647 22.7752 64.1616 24.2333 64.6413C25.6914 65.121 27.2594 64.3116 27.7128 62.8451L33.352 45.9157L28.8082 42.0905ZM29.6764 25.6308C29.2004 28.5933 28.0426 36.193 27.9604 37.2441C27.8371 40.5556 29.663 41.5671 31.3775 42.974L38.3402 48.7668L39.2759 62.1921C39.3594 63.7216 40.6787 64.8866 42.2068 64.7802C43.7348 64.6738 44.88 63.3371 44.7506 61.8108L43.7332 47.2163C43.6811 46.4697 43.3264 45.7767 42.7511 45.298C42.7511 45.298 38.1652 41.3935 37.6345 40.9578C36.9465 40.2311 37.1682 39.4401 37.1682 39.4401L38.8294 27.2586C39.0809 24.066 40.0065 20.3522 37.0989 18.609C35.1836 17.8271 33.643 18.6418 31.5638 19.7796L29.6764 25.6308ZM42.4283 11.1471C42.1202 14.13 39.4833 16.3204 36.5387 16.0394C33.5941 15.7583 31.4568 13.1124 31.7649 10.1294C32.073 7.14651 34.7099 4.95616 37.6545 5.23717C40.5992 5.51819 42.7365 8.16414 42.4283 11.1471V11.1471Z" fill="#1E88E5"/>
<path d="M39.2346 31.2836L41.3934 33.217C41.4843 33.2998 41.5819 33.3748 41.6854 33.4412L46.8415 36.7519C47.8623 37.4202 49.2322 37.1278 49.8914 36.1011C50.5506 35.0743 50.2461 33.7071 49.2135 33.0571L44.2127 29.8466L39.8835 25.981L39.2346 31.2836Z" fill="#1E88E5"/>
</svg>
