<svg width="232" height="269" viewBox="0 0 232 269" fill="none" xmlns="http://www.w3.org/2000/svg">
<g filter="url(#filter0_d)">
<rect x="31.4683" y="8" width="169.958" height="28.6245" rx="14.3122" fill="white"/>
<path d="M35.0464 22.7596C35.0464 16.5842 40.0525 11.5781 46.2278 11.5781H60.0928V33.941H46.2278C40.0525 33.941 35.0464 28.9349 35.0464 22.7596V22.7596Z" fill="#636262"/>
<path d="M49.8691 28.156H48.5977V19.7273L46.0479 20.6638V19.5154L49.6709 18.155H49.8691V28.156Z" fill="white"/>
<path d="M86.9282 22.7595C86.9282 28.9348 81.9221 33.9409 75.7468 33.9409L61.8818 33.9409L61.8818 11.578L75.7468 11.578C81.9221 11.578 86.9282 16.5842 86.9282 22.7595V22.7595Z" fill="#1E88E5"/>
<path d="M77.2812 28.156H70.7598V27.2468L74.2051 23.4187C74.7155 22.8399 75.0664 22.3705 75.2578 22.0105C75.4538 21.6459 75.5518 21.2699 75.5518 20.8826C75.5518 20.363 75.3945 19.9369 75.0801 19.6042C74.7656 19.2716 74.3464 19.1052 73.8223 19.1052C73.1934 19.1052 72.7035 19.2852 72.3525 19.6453C72.0062 20.0007 71.833 20.4975 71.833 21.1355H70.5684C70.5684 20.2195 70.8623 19.4789 71.4502 18.9138C72.0426 18.3487 72.8333 18.0662 73.8223 18.0662C74.7474 18.0662 75.4788 18.31 76.0166 18.7976C76.5544 19.2807 76.8232 19.9255 76.8232 20.7322C76.8232 21.712 76.1989 22.8787 74.9502 24.2322L72.2842 27.1238H77.2812V28.156Z" fill="white"/>
<path d="M90.5063 22.7596C90.5063 16.5842 95.5124 11.5781 101.688 11.5781H115.553V33.941H101.688C95.5125 33.941 90.5063 28.9349 90.5063 22.7596V22.7596Z" fill="#ECEFF1"/>
<path d="M103.012 22.5642H103.962C104.559 22.5551 105.028 22.3979 105.37 22.0925C105.712 21.7872 105.883 21.3748 105.883 20.8552C105.883 19.6886 105.302 19.1052 104.14 19.1052C103.593 19.1052 103.155 19.2625 102.827 19.5769C102.504 19.8868 102.342 20.2992 102.342 20.8142H101.077C101.077 20.0258 101.364 19.3718 101.938 18.8523C102.517 18.3282 103.251 18.0662 104.14 18.0662C105.078 18.0662 105.814 18.3145 106.348 18.8113C106.881 19.308 107.147 19.9985 107.147 20.8826C107.147 21.3155 107.006 21.7348 106.724 22.1404C106.446 22.546 106.065 22.849 105.582 23.0496C106.129 23.2227 106.55 23.5098 106.847 23.9109C107.147 24.3119 107.298 24.8018 107.298 25.3806C107.298 26.2738 107.006 26.9825 106.423 27.5066C105.84 28.0307 105.081 28.2927 104.146 28.2927C103.212 28.2927 102.451 28.0398 101.863 27.5339C101.28 27.0281 100.988 26.3604 100.988 25.531H102.26C102.26 26.0551 102.431 26.4744 102.772 26.7888C103.114 27.1033 103.572 27.2605 104.146 27.2605C104.757 27.2605 105.224 27.101 105.548 26.782C105.871 26.463 106.033 26.005 106.033 25.408C106.033 24.8292 105.855 24.3848 105.5 24.075C105.145 23.7651 104.632 23.6056 103.962 23.5964H103.012V22.5642Z" fill="#636262"/>
<path d="M142.388 22.7595C142.388 28.9348 137.382 33.9409 131.207 33.9409L117.342 33.9409L117.342 11.578L131.207 11.578C137.382 11.578 142.388 16.5842 142.388 22.7595V22.7595Z" fill="#ECEFF1"/>
<path d="M131.558 24.8132H132.939V25.8455H131.558V28.156H130.287V25.8455H125.754V25.1003L130.211 18.2029H131.558V24.8132ZM127.19 24.8132H130.287V19.9324L130.136 20.2058L127.19 24.8132Z" fill="#1E88E5"/>
<path d="M145.966 22.7596C145.966 16.5842 150.972 11.5781 157.148 11.5781H171.013V33.941H157.148C150.972 33.941 145.966 28.9349 145.966 22.7596V22.7596Z" fill="#ECEFF1"/>
<path d="M157.214 23.1658L157.72 18.2029H162.819V19.3718H158.793L158.492 22.0857C158.98 21.7986 159.534 21.655 160.153 21.655C161.06 21.655 161.78 21.9558 162.313 22.5574C162.847 23.1544 163.113 23.9633 163.113 24.9841C163.113 26.0095 162.835 26.8184 162.279 27.4109C161.728 27.9988 160.955 28.2927 159.962 28.2927C159.082 28.2927 158.365 28.0489 157.809 27.5613C157.253 27.0736 156.936 26.3992 156.858 25.5378H158.055C158.132 26.1075 158.335 26.5382 158.663 26.8298C158.991 27.1169 159.424 27.2605 159.962 27.2605C160.55 27.2605 161.01 27.06 161.343 26.6589C161.68 26.2579 161.849 25.7042 161.849 24.9978C161.849 24.3324 161.666 23.7992 161.302 23.3982C160.942 22.9926 160.461 22.7898 159.859 22.7898C159.308 22.7898 158.875 22.9106 158.561 23.1521L158.226 23.4255L157.214 23.1658Z" fill="#636262"/>
<path d="M197.848 22.7595C197.848 28.9348 192.842 33.9409 186.667 33.9409L172.802 33.9409L172.802 11.578L186.667 11.578C192.842 11.578 197.848 16.5842 197.848 22.7595V22.7595Z" fill="#ECEFF1"/>
<path d="M186.642 18.196V19.2693H186.41C185.425 19.2875 184.641 19.5792 184.058 20.1443C183.475 20.7094 183.138 21.5046 183.046 22.53C183.57 21.9285 184.286 21.6277 185.193 21.6277C186.059 21.6277 186.749 21.933 187.264 22.5437C187.784 23.1544 188.043 23.9428 188.043 24.9089C188.043 25.9343 187.763 26.7546 187.203 27.3699C186.647 27.9851 185.899 28.2927 184.96 28.2927C184.008 28.2927 183.236 27.9281 182.643 27.199C182.051 26.4653 181.754 25.5219 181.754 24.3689V23.8835C181.754 22.0515 182.144 20.6524 182.923 19.6863C183.707 18.7156 184.872 18.2188 186.417 18.196H186.642ZM184.981 22.6804C184.548 22.6804 184.149 22.8103 183.785 23.0701C183.42 23.3298 183.167 23.6557 183.026 24.0476V24.5125C183.026 25.3328 183.21 25.9936 183.58 26.4949C183.949 26.9962 184.409 27.2468 184.96 27.2468C185.53 27.2468 185.977 27.0372 186.3 26.6179C186.628 26.1986 186.792 25.6495 186.792 24.9705C186.792 24.2869 186.626 23.7354 186.293 23.3162C185.965 22.8923 185.528 22.6804 184.981 22.6804Z" fill="#1E88E5"/>
</g>
<g filter="url(#filter1_d)">
<rect x="38.6245" y="46.4641" width="169.958" height="28.6245" rx="14.3122" transform="rotate(90 38.6245 46.4641)" fill="white"/>
<path d="M23.865 50.0422C30.0403 50.0422 35.0464 55.0483 35.0464 61.2237L35.0464 75.0886L12.6835 75.0886L12.6835 61.2237C12.6835 55.0483 17.6896 50.0422 23.865 50.0422V50.0422Z" fill="#ECEFF1"/>
<path d="M25.2705 69.751H23.999L23.999 61.3223L21.4492 62.2588L21.4492 61.1104L25.0723 59.75H25.2705L25.2705 69.751Z" fill="#636262"/>
<path d="M23.865 101.924C17.6897 101.924 12.6836 96.918 12.6836 90.7426L12.6836 76.8777L35.0465 76.8777L35.0465 90.7426C35.0465 96.918 30.0404 101.924 23.865 101.924V101.924Z" fill="#ECEFF1"/>
<path d="M27.6357 94.7974L21.1143 94.7974L21.1143 93.8882L24.5596 90.0601C25.07 89.4813 25.4209 89.0119 25.6123 88.6519C25.8083 88.2873 25.9063 87.9113 25.9063 87.5239C25.9063 87.0044 25.749 86.5783 25.4346 86.2456C25.1201 85.9129 24.7008 85.7466 24.1768 85.7466C23.5479 85.7466 23.0579 85.9266 22.707 86.2866C22.3607 86.6421 22.1875 87.1388 22.1875 87.7769L20.9229 87.7769C20.9229 86.8608 21.2168 86.1203 21.8047 85.5552C22.3971 84.9901 23.1878 84.7075 24.1768 84.7075C25.1019 84.7075 25.8333 84.9513 26.3711 85.439C26.9089 85.922 27.1777 86.5669 27.1777 87.3735C27.1777 88.3534 26.5534 89.52 25.3047 90.8735L22.6387 93.7651L27.6357 93.7651L27.6357 94.7974Z" fill="#1E88E5"/>
<path d="M23.865 105.502C30.0403 105.502 35.0464 110.508 35.0464 116.684L35.0464 130.549L12.6835 130.549L12.6835 116.684C12.6835 110.508 17.6896 105.502 23.865 105.502V105.502Z" fill="#ECEFF1"/>
<path d="M22.9531 119.619L23.9033 119.619C24.5003 119.61 24.9697 119.453 25.3115 119.147C25.6533 118.842 25.8242 118.43 25.8242 117.91C25.8242 116.743 25.2432 116.16 24.0811 116.16C23.5342 116.16 23.0967 116.317 22.7686 116.632C22.445 116.942 22.2832 117.354 22.2832 117.869L21.0186 117.869C21.0186 117.081 21.3057 116.427 21.8799 115.907C22.4587 115.383 23.1924 115.121 24.0811 115.121C25.0199 115.121 25.7559 115.369 26.2891 115.866C26.8223 116.363 27.0889 117.053 27.0889 117.938C27.0889 118.37 26.9476 118.79 26.665 119.195C26.387 119.601 26.0065 119.904 25.5234 120.104C26.0703 120.278 26.4919 120.565 26.7881 120.966C27.0889 121.367 27.2393 121.857 27.2393 122.436C27.2393 123.329 26.9476 124.037 26.3643 124.562C25.7809 125.086 25.0221 125.348 24.0879 125.348C23.1536 125.348 22.3926 125.095 21.8047 124.589C21.2214 124.083 20.9297 123.415 20.9297 122.586L22.2012 122.586C22.2012 123.11 22.3721 123.529 22.7139 123.844C23.0557 124.158 23.5137 124.315 24.0879 124.315C24.6986 124.315 25.1657 124.156 25.4893 123.837C25.8128 123.518 25.9746 123.06 25.9746 122.463C25.9746 121.884 25.7969 121.44 25.4414 121.13C25.0859 120.82 24.5732 120.66 23.9033 120.651L22.9531 120.651L22.9531 119.619Z" fill="#636262"/>
<path d="M23.865 157.384C17.6897 157.384 12.6836 152.378 12.6836 146.203L12.6836 132.338L35.0465 132.338L35.0465 146.203C35.0465 152.378 30.0404 157.384 23.865 157.384V157.384Z" fill="#ECEFF1"/>
<path d="M26.4531 146.915L27.834 146.915L27.834 147.947L26.4531 147.947L26.4531 150.257L25.1816 150.257L25.1816 147.947L20.6494 147.947L20.6494 147.202L25.1064 140.304L26.4531 140.304L26.4531 146.915ZM22.085 146.915L25.1816 146.915L25.1816 142.034L25.0313 142.307L22.085 146.915Z" fill="#1E88E5"/>
<path d="M23.865 160.962C30.0403 160.962 35.0464 165.968 35.0464 172.143L35.0464 186.008L12.6835 186.008L12.6835 172.143C12.6835 165.968 17.6896 160.962 23.865 160.962V160.962Z" fill="#ECEFF1"/>
<path d="M21.6953 175.681L22.2012 170.718L27.3008 170.718L27.3008 171.887L23.2744 171.887L22.9736 174.601C23.4613 174.313 24.015 174.17 24.6348 174.17C25.5417 174.17 26.2617 174.471 26.7949 175.072C27.3281 175.669 27.5947 176.478 27.5947 177.499C27.5947 178.524 27.3167 179.333 26.7607 179.926C26.2093 180.514 25.4368 180.808 24.4434 180.808C23.5638 180.808 22.846 180.564 22.29 180.076C21.734 179.589 21.4173 178.914 21.3398 178.053L22.5361 178.053C22.6136 178.622 22.8164 179.053 23.1445 179.345C23.4727 179.632 23.9056 179.775 24.4434 179.775C25.0312 179.775 25.4915 179.575 25.8242 179.174C26.1615 178.773 26.3301 178.219 26.3301 177.513C26.3301 176.847 26.1478 176.314 25.7832 175.913C25.4232 175.507 24.9424 175.305 24.3408 175.305C23.7894 175.305 23.3564 175.425 23.042 175.667L22.707 175.94L21.6953 175.681Z" fill="#636262"/>
<path d="M23.865 212.844C17.6897 212.844 12.6836 207.838 12.6836 201.662L12.6836 187.797L35.0465 187.797L35.0465 201.662C35.0465 207.838 30.0404 212.844 23.865 212.844V212.844Z" fill="#ECEFF1"/>
<path d="M26.0771 195.757L26.0771 196.831H25.8447C24.8604 196.849 24.0765 197.14 23.4932 197.706C22.9098 198.271 22.5726 199.066 22.4814 200.091C23.0055 199.49 23.721 199.189 24.6279 199.189C25.4938 199.189 26.1842 199.494 26.6992 200.105C27.2188 200.716 27.4785 201.504 27.4785 202.47C27.4785 203.496 27.1982 204.316 26.6377 204.931C26.0817 205.546 25.3343 205.854 24.3955 205.854C23.443 205.854 22.6706 205.489 22.0781 204.76C21.4857 204.027 21.1895 203.083 21.1895 201.93L21.1895 201.445C21.1895 199.613 21.5791 198.214 22.3584 197.248C23.1423 196.277 24.3066 195.78 25.8516 195.757H26.0771ZM24.416 200.242C23.9831 200.242 23.5843 200.372 23.2197 200.631C22.8551 200.891 22.6022 201.217 22.4609 201.609L22.4609 202.074C22.4609 202.894 22.6455 203.555 23.0146 204.056C23.3838 204.557 23.8441 204.808 24.3955 204.808C24.9652 204.808 25.4118 204.598 25.7354 204.179C26.0635 203.76 26.2275 203.211 26.2275 202.532C26.2275 201.848 26.0612 201.297 25.7285 200.877C25.4004 200.454 24.9629 200.242 24.416 200.242Z" fill="#1E88E5"/>
</g>
<g filter="url(#filter2_d)">
<rect x="222" y="46.4641" width="169.958" height="28.6245" rx="14.3122" transform="rotate(90 222 46.4641)" fill="white"/>
<path d="M207.24 50.0422C213.416 50.0422 218.422 55.0483 218.422 61.2237L218.422 75.0886L196.059 75.0886L196.059 61.2237C196.059 55.0483 201.065 50.0422 207.24 50.0422V50.0422Z" fill="#ECEFF1"/>
<path d="M208.646 69.751H207.375L207.375 61.3223L204.825 62.2588V61.1104L208.448 59.75H208.646L208.646 69.751Z" fill="#636262"/>
<path d="M207.241 101.924C201.065 101.924 196.059 96.918 196.059 90.7426L196.059 76.8777L218.422 76.8777L218.422 90.7426C218.422 96.918 213.416 101.924 207.241 101.924V101.924Z" fill="#ECEFF1"/>
<path d="M211.011 94.7974L204.49 94.7974V93.8882L207.935 90.0601C208.445 89.4813 208.796 89.0119 208.988 88.6519C209.184 88.2873 209.282 87.9113 209.282 87.5239C209.282 87.0044 209.125 86.5783 208.81 86.2456C208.496 85.9129 208.076 85.7466 207.552 85.7466C206.923 85.7466 206.433 85.9266 206.083 86.2866C205.736 86.6421 205.563 87.1388 205.563 87.7769L204.298 87.7769C204.298 86.8608 204.592 86.1203 205.18 85.5552C205.773 84.9901 206.563 84.7075 207.552 84.7075C208.477 84.7075 209.209 84.9513 209.747 85.439C210.284 85.922 210.553 86.5669 210.553 87.3735C210.553 88.3534 209.929 89.52 208.68 90.8735L206.014 93.7651L211.011 93.7651V94.7974Z" fill="#1E88E5"/>
<path d="M207.24 105.502C213.416 105.502 218.422 110.508 218.422 116.684L218.422 130.549L196.059 130.549L196.059 116.684C196.059 110.508 201.065 105.502 207.24 105.502V105.502Z" fill="#ECEFF1"/>
<path d="M206.329 119.619L207.279 119.619C207.876 119.61 208.345 119.453 208.687 119.147C209.029 118.842 209.2 118.43 209.2 117.91C209.2 116.743 208.619 116.16 207.457 116.16C206.91 116.16 206.472 116.317 206.144 116.632C205.82 116.942 205.659 117.354 205.659 117.869L204.394 117.869C204.394 117.081 204.681 116.427 205.255 115.907C205.834 115.383 206.568 115.121 207.457 115.121C208.395 115.121 209.131 115.369 209.665 115.866C210.198 116.363 210.464 117.053 210.464 117.938C210.464 118.37 210.323 118.79 210.041 119.195C209.763 119.601 209.382 119.904 208.899 120.104C209.446 120.278 209.867 120.565 210.164 120.966C210.464 121.367 210.615 121.857 210.615 122.436C210.615 123.329 210.323 124.037 209.74 124.562C209.156 125.086 208.398 125.348 207.463 125.348C206.529 125.348 205.768 125.095 205.18 124.589C204.597 124.083 204.305 123.415 204.305 122.586L205.577 122.586C205.577 123.11 205.748 123.529 206.089 123.844C206.431 124.158 206.889 124.315 207.463 124.315C208.074 124.315 208.541 124.156 208.865 123.837C209.188 123.518 209.35 123.06 209.35 122.463C209.35 121.884 209.172 121.44 208.817 121.13C208.461 120.82 207.949 120.66 207.279 120.651L206.329 120.651V119.619Z" fill="#636262"/>
<path d="M207.241 157.384C201.065 157.384 196.059 152.378 196.059 146.203L196.059 132.338L218.422 132.338L218.422 146.203C218.422 152.378 213.416 157.384 207.241 157.384V157.384Z" fill="#ECEFF1"/>
<path d="M209.829 146.915L211.209 146.915V147.947L209.829 147.947L209.829 150.257L208.557 150.257L208.557 147.947L204.025 147.947V147.202L208.482 140.304L209.829 140.304L209.829 146.915ZM205.46 146.915L208.557 146.915L208.557 142.034L208.407 142.307L205.46 146.915Z" fill="#1E88E5"/>
<path d="M207.24 160.962C213.416 160.962 218.422 165.968 218.422 172.143L218.422 186.008L196.059 186.008L196.059 172.143C196.059 165.968 201.065 160.962 207.24 160.962V160.962Z" fill="#ECEFF1"/>
<path d="M205.071 175.681L205.577 170.718L210.676 170.718V171.887L206.65 171.887L206.349 174.601C206.837 174.313 207.39 174.17 208.01 174.17C208.917 174.17 209.637 174.471 210.17 175.072C210.704 175.669 210.97 176.478 210.97 177.499C210.97 178.524 210.692 179.333 210.136 179.926C209.585 180.514 208.812 180.808 207.819 180.808C206.939 180.808 206.222 180.564 205.666 180.076C205.11 179.589 204.793 178.914 204.715 178.053L205.912 178.053C205.989 178.622 206.192 179.053 206.52 179.345C206.848 179.632 207.281 179.775 207.819 179.775C208.407 179.775 208.867 179.575 209.2 179.174C209.537 178.773 209.706 178.219 209.706 177.513C209.706 176.847 209.523 176.314 209.159 175.913C208.799 175.507 208.318 175.305 207.716 175.305C207.165 175.305 206.732 175.425 206.417 175.667L206.083 175.94L205.071 175.681Z" fill="#636262"/>
<path d="M207.241 212.844C201.065 212.844 196.059 207.838 196.059 201.662L196.059 187.797L218.422 187.797L218.422 201.662C218.422 207.838 213.416 212.844 207.241 212.844V212.844Z" fill="#ECEFF1"/>
<path d="M209.453 195.757L209.453 196.831H209.22C208.236 196.849 207.452 197.14 206.869 197.706C206.285 198.271 205.948 199.066 205.857 200.091C206.381 199.49 207.097 199.189 208.003 199.189C208.869 199.189 209.56 199.494 210.075 200.105C210.594 200.716 210.854 201.504 210.854 202.47C210.854 203.496 210.574 204.316 210.013 204.931C209.457 205.546 208.71 205.854 207.771 205.854C206.819 205.854 206.046 205.489 205.454 204.76C204.861 204.027 204.565 203.083 204.565 201.93L204.565 201.445C204.565 199.613 204.955 198.214 205.734 197.248C206.518 196.277 207.682 195.78 209.227 195.757H209.453ZM207.792 200.242C207.359 200.242 206.96 200.372 206.595 200.631C206.231 200.891 205.978 201.217 205.836 201.609L205.836 202.074C205.836 202.894 206.021 203.555 206.39 204.056C206.759 204.557 207.22 204.808 207.771 204.808C208.341 204.808 208.787 204.598 209.111 204.179C209.439 203.76 209.603 203.211 209.603 202.532C209.603 201.848 209.437 201.297 209.104 200.877C208.776 200.454 208.338 200.242 207.792 200.242Z" fill="#1E88E5"/>
</g>
<g filter="url(#filter3_d)">
<rect x="35.0464" y="228.051" width="169.958" height="28.6245" rx="14.3122" fill="white"/>
<path d="M38.6245 242.81C38.6245 236.635 43.6306 231.629 49.8059 231.629H63.6709V253.992H49.8059C43.6306 253.992 38.6245 248.985 38.6245 242.81V242.81Z" fill="#ECEFF1"/>
<path d="M53.4473 248.207H52.1758V239.778L49.626 240.714V239.566L53.249 238.206H53.4473V248.207Z" fill="#636262"/>
<path d="M90.5063 242.81C90.5063 248.985 85.5003 253.991 79.3249 253.991L65.4599 253.991L65.4599 231.629L79.3249 231.629C85.5002 231.629 90.5063 236.635 90.5063 242.81V242.81Z" fill="#ECEFF1"/>
<path d="M80.8594 248.207H74.3379V247.297L77.7832 243.469C78.2936 242.89 78.6445 242.421 78.8359 242.061C79.0319 241.696 79.1299 241.32 79.1299 240.933C79.1299 240.414 78.9727 239.987 78.6582 239.655C78.3438 239.322 77.9245 239.156 77.4004 239.156C76.7715 239.156 76.2816 239.336 75.9307 239.696C75.5843 240.051 75.4111 240.548 75.4111 241.186H74.1465C74.1465 240.27 74.4404 239.529 75.0283 238.964C75.6208 238.399 76.4115 238.117 77.4004 238.117C78.3255 238.117 79.057 238.361 79.5947 238.848C80.1325 239.331 80.4014 239.976 80.4014 240.783C80.4014 241.763 79.777 242.929 78.5283 244.283L75.8623 247.174H80.8594V248.207Z" fill="#1E88E5"/>
<path d="M94.0845 242.81C94.0845 236.635 99.0906 231.629 105.266 231.629H119.131V253.992H105.266C99.0906 253.992 94.0845 248.985 94.0845 242.81V242.81Z" fill="#ECEFF1"/>
<path d="M106.59 242.615H107.54C108.137 242.606 108.606 242.448 108.948 242.143C109.29 241.838 109.461 241.425 109.461 240.906C109.461 239.739 108.88 239.156 107.718 239.156C107.171 239.156 106.733 239.313 106.405 239.627C106.082 239.937 105.92 240.35 105.92 240.865H104.655C104.655 240.076 104.942 239.422 105.517 238.903C106.095 238.379 106.829 238.117 107.718 238.117C108.657 238.117 109.393 238.365 109.926 238.862C110.459 239.359 110.726 240.049 110.726 240.933C110.726 241.366 110.584 241.785 110.302 242.191C110.024 242.597 109.643 242.9 109.16 243.1C109.707 243.273 110.129 243.56 110.425 243.961C110.726 244.362 110.876 244.852 110.876 245.431C110.876 246.324 110.584 247.033 110.001 247.557C109.418 248.081 108.659 248.343 107.725 248.343C106.79 248.343 106.029 248.09 105.441 247.584C104.858 247.079 104.566 246.411 104.566 245.582H105.838C105.838 246.106 106.009 246.525 106.351 246.839C106.692 247.154 107.15 247.311 107.725 247.311C108.335 247.311 108.802 247.152 109.126 246.833C109.45 246.514 109.611 246.056 109.611 245.458C109.611 244.88 109.434 244.435 109.078 244.125C108.723 243.816 108.21 243.656 107.54 243.647H106.59V242.615Z" fill="#636262"/>
<path d="M145.966 242.81C145.966 248.985 140.96 253.991 134.785 253.991L120.92 253.991L120.92 231.629L134.785 231.629C140.96 231.629 145.966 236.635 145.966 242.81V242.81Z" fill="#ECEFF1"/>
<path d="M135.136 244.864H136.517V245.896H135.136V248.207H133.865V245.896H129.333V245.151L133.79 238.253H135.136V244.864ZM130.768 244.864H133.865V239.983L133.714 240.256L130.768 244.864Z" fill="#1E88E5"/>
<path d="M149.544 242.81C149.544 236.635 154.551 231.629 160.726 231.629H174.591V253.992H160.726C154.551 253.992 149.544 248.985 149.544 242.81V242.81Z" fill="#ECEFF1"/>
<path d="M160.792 243.216L161.298 238.253H166.397V239.422H162.371L162.07 242.136C162.558 241.849 163.112 241.706 163.731 241.706C164.638 241.706 165.358 242.006 165.892 242.608C166.425 243.205 166.691 244.014 166.691 245.035C166.691 246.06 166.413 246.869 165.857 247.461C165.306 248.049 164.534 248.343 163.54 248.343C162.66 248.343 161.943 248.099 161.387 247.612C160.831 247.124 160.514 246.45 160.437 245.588H161.633C161.71 246.158 161.913 246.589 162.241 246.88C162.569 247.167 163.002 247.311 163.54 247.311C164.128 247.311 164.588 247.111 164.921 246.709C165.258 246.308 165.427 245.755 165.427 245.048C165.427 244.383 165.244 243.85 164.88 243.449C164.52 243.043 164.039 242.84 163.438 242.84C162.886 242.84 162.453 242.961 162.139 243.203L161.804 243.476L160.792 243.216Z" fill="#636262"/>
<path d="M201.426 242.81C201.426 248.985 196.42 253.991 190.245 253.991L176.38 253.991L176.38 231.629L190.245 231.629C196.42 231.629 201.426 236.635 201.426 242.81V242.81Z" fill="#ECEFF1"/>
<path d="M190.22 238.247V239.32H189.988C189.003 239.338 188.22 239.63 187.636 240.195C187.053 240.76 186.716 241.555 186.625 242.581C187.149 241.979 187.864 241.678 188.771 241.678C189.637 241.678 190.327 241.984 190.842 242.594C191.362 243.205 191.622 243.993 191.622 244.959C191.622 245.985 191.341 246.805 190.781 247.42C190.225 248.036 189.477 248.343 188.539 248.343C187.586 248.343 186.814 247.979 186.221 247.25C185.629 246.516 185.333 245.572 185.333 244.419V243.934C185.333 242.102 185.722 240.703 186.501 239.737C187.285 238.766 188.45 238.269 189.995 238.247H190.22ZM188.559 242.731C188.126 242.731 187.727 242.861 187.363 243.121C186.998 243.38 186.745 243.706 186.604 244.098V244.563C186.604 245.383 186.789 246.044 187.158 246.545C187.527 247.047 187.987 247.297 188.539 247.297C189.108 247.297 189.555 247.088 189.878 246.668C190.207 246.249 190.371 245.7 190.371 245.021C190.371 244.337 190.204 243.786 189.872 243.367C189.543 242.943 189.106 242.731 188.559 242.731Z" fill="#1E88E5"/>
</g>
<g filter="url(#filter4_d)">
<rect x="50.2529" y="48.2532" width="131.494" height="168.169" rx="20" fill="white"/>
</g>
<g filter="url(#filter5_d)">
<circle cx="116" cy="118.473" r="4.91983" fill="#34F4F4"/>
</g>
<defs>
<filter id="filter0_d" x="21.4683" y="0" width="189.958" height="48.6245" filterUnits="userSpaceOnUse" color-interpolation-filters="sRGB">
<feFlood flood-opacity="0" result="BackgroundImageFix"/>
<feColorMatrix in="SourceAlpha" type="matrix" values="0 0 0 0 0 0 0 0 0 0 0 0 0 0 0 0 0 0 127 0"/>
<feOffset dy="2"/>
<feGaussianBlur stdDeviation="5"/>
<feColorMatrix type="matrix" values="0 0 0 0 0 0 0 0 0 0 0 0 0 0 0 0 0 0 0.15 0"/>
<feBlend mode="normal" in2="BackgroundImageFix" result="effect1_dropShadow"/>
<feBlend mode="normal" in="SourceGraphic" in2="effect1_dropShadow" result="shape"/>
</filter>
<filter id="filter1_d" x="0" y="38.4641" width="48.6245" height="189.958" filterUnits="userSpaceOnUse" color-interpolation-filters="sRGB">
<feFlood flood-opacity="0" result="BackgroundImageFix"/>
<feColorMatrix in="SourceAlpha" type="matrix" values="0 0 0 0 0 0 0 0 0 0 0 0 0 0 0 0 0 0 127 0"/>
<feOffset dy="2"/>
<feGaussianBlur stdDeviation="5"/>
<feColorMatrix type="matrix" values="0 0 0 0 0 0 0 0 0 0 0 0 0 0 0 0 0 0 0.15 0"/>
<feBlend mode="normal" in2="BackgroundImageFix" result="effect1_dropShadow"/>
<feBlend mode="normal" in="SourceGraphic" in2="effect1_dropShadow" result="shape"/>
</filter>
<filter id="filter2_d" x="183.375" y="38.4641" width="48.6245" height="189.958" filterUnits="userSpaceOnUse" color-interpolation-filters="sRGB">
<feFlood flood-opacity="0" result="BackgroundImageFix"/>
<feColorMatrix in="SourceAlpha" type="matrix" values="0 0 0 0 0 0 0 0 0 0 0 0 0 0 0 0 0 0 127 0"/>
<feOffset dy="2"/>
<feGaussianBlur stdDeviation="5"/>
<feColorMatrix type="matrix" values="0 0 0 0 0 0 0 0 0 0 0 0 0 0 0 0 0 0 0.15 0"/>
<feBlend mode="normal" in2="BackgroundImageFix" result="effect1_dropShadow"/>
<feBlend mode="normal" in="SourceGraphic" in2="effect1_dropShadow" result="shape"/>
</filter>
<filter id="filter3_d" x="25.0464" y="220.051" width="189.958" height="48.6245" filterUnits="userSpaceOnUse" color-interpolation-filters="sRGB">
<feFlood flood-opacity="0" result="BackgroundImageFix"/>
<feColorMatrix in="SourceAlpha" type="matrix" values="0 0 0 0 0 0 0 0 0 0 0 0 0 0 0 0 0 0 127 0"/>
<feOffset dy="2"/>
<feGaussianBlur stdDeviation="5"/>
<feColorMatrix type="matrix" values="0 0 0 0 0 0 0 0 0 0 0 0 0 0 0 0 0 0 0.15 0"/>
<feBlend mode="normal" in2="BackgroundImageFix" result="effect1_dropShadow"/>
<feBlend mode="normal" in="SourceGraphic" in2="effect1_dropShadow" result="shape"/>
</filter>
<filter id="filter4_d" x="40.2529" y="38.2532" width="151.494" height="188.169" filterUnits="userSpaceOnUse" color-interpolation-filters="sRGB">
<feFlood flood-opacity="0" result="BackgroundImageFix"/>
<feColorMatrix in="SourceAlpha" type="matrix" values="0 0 0 0 0 0 0 0 0 0 0 0 0 0 0 0 0 0 127 0"/>
<feOffset/>
<feGaussianBlur stdDeviation="5"/>
<feColorMatrix type="matrix" values="0 0 0 0 0 0 0 0 0 0 0 0 0 0 0 0 0 0 0.25 0"/>
<feBlend mode="normal" in2="BackgroundImageFix" result="effect1_dropShadow"/>
<feBlend mode="normal" in="SourceGraphic" in2="effect1_dropShadow" result="shape"/>
</filter>
<filter id="filter5_d" x="101.08" y="103.553" width="29.8397" height="29.8397" filterUnits="userSpaceOnUse" color-interpolation-filters="sRGB">
<feFlood flood-opacity="0" result="BackgroundImageFix"/>
<feColorMatrix in="SourceAlpha" type="matrix" values="0 0 0 0 0 0 0 0 0 0 0 0 0 0 0 0 0 0 127 0"/>
<feOffset/>
<feGaussianBlur stdDeviation="5"/>
<feColorMatrix type="matrix" values="0 0 0 0 0.203922 0 0 0 0 0.956863 0 0 0 0 0.956863 0 0 0 1 0"/>
<feBlend mode="normal" in2="BackgroundImageFix" result="effect1_dropShadow"/>
<feBlend mode="normal" in="SourceGraphic" in2="effect1_dropShadow" result="shape"/>
</filter>
</defs>
</svg>
