<svg width="209" height="275" viewBox="0 0 209 275" fill="none" xmlns="http://www.w3.org/2000/svg">
<g clip-path="url(#clip0)">
<g filter="url(#filter0_d)">
<path d="M189 6H20C14.4772 6 10 10.4772 10 16V75C10 80.5229 14.4772 85 20 85H189C194.523 85 199 80.5229 199 75V16C199 10.4772 194.523 6 189 6Z" fill="white"/>
</g>
<path d="M111.236 24.9863C110.986 25.3418 110.594 25.6191 110.059 25.8184C109.527 26.0176 108.932 26.1172 108.271 26.1172C107.604 26.1172 107.01 25.957 106.49 25.6367C105.971 25.3164 105.568 24.8633 105.283 24.2773C104.998 23.6914 104.854 23.0195 104.85 22.2617V21.1836C104.85 20 105.148 19.0664 105.746 18.3828C106.344 17.6953 107.146 17.3516 108.154 17.3516C109.033 17.3516 109.74 17.5762 110.275 18.0254C110.811 18.4707 111.129 19.0859 111.23 19.8711H110.51C110.404 19.2461 110.148 18.7734 109.742 18.4531C109.34 18.1289 108.812 17.9668 108.16 17.9668C107.363 17.9668 106.732 18.25 106.268 18.8164C105.803 19.3828 105.57 20.1816 105.57 21.2129V22.2207C105.57 22.8691 105.68 23.4434 105.898 23.9434C106.121 24.4395 106.438 24.8242 106.848 25.0977C107.262 25.3711 107.736 25.5078 108.271 25.5078C108.893 25.5078 109.426 25.4102 109.871 25.2148C110.16 25.0859 110.375 24.9355 110.516 24.7637V22.5605H108.225V21.9512H111.236V24.9863ZM113.902 26H113.199V17H113.902V26ZM119.891 25.1973C119.469 25.8105 118.795 26.1172 117.869 26.1172C117.193 26.1172 116.68 25.9219 116.328 25.5312C115.977 25.1367 115.797 24.5547 115.789 23.7852V19.6602H116.486V23.6973C116.486 24.9043 116.975 25.5078 117.951 25.5078C118.967 25.5078 119.609 25.0879 119.879 24.248V19.6602H120.582V26H119.902L119.891 25.1973ZM118.959 17H119.809L118.455 18.6406H117.84L118.959 17ZM123.5 18.0371V19.6602H124.812V20.2344H123.5V24.459C123.5 24.8105 123.562 25.0723 123.688 25.2441C123.816 25.416 124.029 25.502 124.326 25.502C124.443 25.502 124.633 25.4824 124.895 25.4434L124.924 26.0176C124.74 26.084 124.49 26.1172 124.174 26.1172C123.693 26.1172 123.344 25.9785 123.125 25.7012C122.906 25.4199 122.797 25.0078 122.797 24.4648V20.2344H121.631V19.6602H122.797V18.0371H123.5ZM128.721 26.1172C128.182 26.1172 127.693 25.9844 127.256 25.7188C126.822 25.4531 126.484 25.084 126.242 24.6113C126 24.1348 125.879 23.6016 125.879 23.0117V22.7598C125.879 22.1504 125.996 21.6016 126.23 21.1133C126.469 20.625 126.799 20.2422 127.221 19.9648C127.643 19.6836 128.1 19.543 128.592 19.543C129.361 19.543 129.971 19.8066 130.42 20.334C130.873 20.8574 131.1 21.5742 131.1 22.4844V22.877H126.576V23.0117C126.576 23.7305 126.781 24.3301 127.191 24.8105C127.605 25.2871 128.125 25.5254 128.75 25.5254C129.125 25.5254 129.455 25.457 129.74 25.3203C130.029 25.1836 130.291 24.9648 130.525 24.6641L130.965 24.998C130.449 25.7441 129.701 26.1172 128.721 26.1172ZM128.592 20.1406C128.064 20.1406 127.619 20.334 127.256 20.7207C126.896 21.1074 126.678 21.627 126.6 22.2793H130.402V22.2031C130.383 21.5938 130.209 21.0977 129.881 20.7148C129.553 20.332 129.123 20.1406 128.592 20.1406ZM132.078 22.7363C132.078 22.127 132.195 21.5781 132.43 21.0898C132.668 20.6016 133.002 20.2227 133.432 19.9531C133.865 19.6797 134.355 19.543 134.902 19.543C135.746 19.543 136.43 19.8398 136.953 20.4336C137.477 21.0234 137.738 21.8066 137.738 22.7832V22.9297C137.738 23.543 137.619 24.0957 137.381 24.5879C137.146 25.0762 136.814 25.4531 136.385 25.7188C135.955 25.9844 135.465 26.1172 134.914 26.1172C134.074 26.1172 133.391 25.8223 132.863 25.2324C132.34 24.6387 132.078 23.8535 132.078 22.877V22.7363ZM132.781 22.9297C132.781 23.6875 132.977 24.3105 133.367 24.7988C133.762 25.2832 134.277 25.5254 134.914 25.5254C135.547 25.5254 136.059 25.2832 136.449 24.7988C136.844 24.3105 137.041 23.668 137.041 22.8711V22.7363C137.041 22.252 136.951 21.8086 136.771 21.4062C136.592 21.0039 136.34 20.6934 136.016 20.4746C135.691 20.252 135.32 20.1406 134.902 20.1406C134.277 20.1406 133.768 20.3867 133.373 20.8789C132.979 21.3672 132.781 22.0078 132.781 22.8008V22.9297ZM142.988 24.3887C142.988 24.041 142.848 23.7617 142.566 23.5508C142.289 23.3398 141.869 23.1758 141.307 23.0586C140.744 22.9375 140.307 22.8008 139.994 22.6484C139.686 22.4922 139.455 22.3027 139.303 22.0801C139.154 21.8574 139.08 21.5879 139.08 21.2715C139.08 20.7715 139.289 20.3594 139.707 20.0352C140.125 19.707 140.66 19.543 141.312 19.543C142.02 19.543 142.586 19.7188 143.012 20.0703C143.441 20.418 143.656 20.873 143.656 21.4355H142.953C142.953 21.0645 142.797 20.7559 142.484 20.5098C142.176 20.2637 141.785 20.1406 141.312 20.1406C140.852 20.1406 140.48 20.2441 140.199 20.4512C139.922 20.6543 139.783 20.9199 139.783 21.248C139.783 21.5645 139.898 21.8105 140.129 21.9863C140.363 22.1582 140.787 22.3164 141.4 22.4609C142.018 22.6055 142.479 22.7598 142.783 22.9238C143.092 23.0879 143.32 23.2852 143.469 23.5156C143.617 23.7461 143.691 24.0254 143.691 24.3535C143.691 24.8887 143.475 25.3164 143.041 25.6367C142.611 25.957 142.049 26.1172 141.354 26.1172C140.615 26.1172 140.016 25.9395 139.555 25.584C139.098 25.2246 138.869 24.7715 138.869 24.2246H139.572C139.6 24.6348 139.771 24.9551 140.088 25.1855C140.408 25.4121 140.83 25.5254 141.354 25.5254C141.842 25.5254 142.236 25.418 142.537 25.2031C142.838 24.9883 142.988 24.7168 142.988 24.3887Z" fill="#1E88E5"/>
<path d="M43.0498 22.7598C42.9495 23.8216 42.5576 24.651 41.874 25.248C41.1904 25.8405 40.2812 26.1367 39.1465 26.1367C38.3535 26.1367 37.654 25.9499 37.0479 25.5762C36.4463 25.1979 35.9814 24.6624 35.6533 23.9697C35.3252 23.277 35.1543 22.4727 35.1406 21.5566V20.627C35.1406 19.6882 35.307 18.861 35.6396 18.1455C35.9723 17.43 36.4486 16.8786 37.0684 16.4912C37.6927 16.1038 38.4128 15.9102 39.2285 15.9102C40.3268 15.9102 41.2109 16.2087 41.8809 16.8057C42.5508 17.4027 42.9404 18.2458 43.0498 19.335H41.3271C41.2451 18.6195 41.0355 18.1045 40.6982 17.79C40.3656 17.471 39.8757 17.3115 39.2285 17.3115C38.4766 17.3115 37.8978 17.5872 37.4922 18.1387C37.0911 18.6855 36.8861 19.4899 36.877 20.5518V21.4336C36.877 22.5091 37.0684 23.3294 37.4512 23.8945C37.8385 24.4596 38.4036 24.7422 39.1465 24.7422C39.8255 24.7422 40.3359 24.5895 40.6777 24.2842C41.0195 23.9788 41.236 23.4707 41.3271 22.7598H43.0498ZM48.8604 26C48.7874 25.8587 48.7236 25.6286 48.6689 25.3096C48.1403 25.861 47.4932 26.1367 46.7275 26.1367C45.9847 26.1367 45.3786 25.9248 44.9092 25.501C44.4398 25.0771 44.2051 24.5531 44.2051 23.9287C44.2051 23.1403 44.4967 22.5365 45.0801 22.1172C45.668 21.6934 46.5065 21.4814 47.5957 21.4814H48.6143V20.9961C48.6143 20.6133 48.5072 20.3079 48.293 20.0801C48.0788 19.8477 47.7529 19.7314 47.3154 19.7314C46.9372 19.7314 46.6273 19.8271 46.3857 20.0186C46.1442 20.2054 46.0234 20.4447 46.0234 20.7363H44.3623C44.3623 20.3307 44.4967 19.9525 44.7656 19.6016C45.0345 19.2461 45.3991 18.9681 45.8594 18.7676C46.3242 18.5671 46.8415 18.4668 47.4111 18.4668C48.277 18.4668 48.9674 18.6855 49.4824 19.123C49.9974 19.556 50.2617 20.1667 50.2754 20.9551V24.291C50.2754 24.9564 50.3688 25.4873 50.5557 25.8838V26H48.8604ZM47.0352 24.8037C47.3633 24.8037 47.6709 24.724 47.958 24.5645C48.2497 24.4049 48.4684 24.1908 48.6143 23.9219V22.5273H47.7188C47.1035 22.5273 46.641 22.6344 46.3311 22.8486C46.0212 23.0628 45.8662 23.3659 45.8662 23.7578C45.8662 24.0768 45.971 24.332 46.1807 24.5234C46.3949 24.7103 46.6797 24.8037 47.0352 24.8037ZM53.5566 18.6035L53.6045 19.458C54.1514 18.7972 54.8691 18.4668 55.7578 18.4668C57.2982 18.4668 58.082 19.3486 58.1094 21.1123V26H56.4482V21.208C56.4482 20.7386 56.3457 20.3923 56.1406 20.1689C55.9401 19.9411 55.6097 19.8271 55.1494 19.8271C54.4795 19.8271 53.9805 20.1302 53.6523 20.7363V26H51.9912V18.6035H53.5566ZM64.2275 26C64.1546 25.8587 64.0908 25.6286 64.0361 25.3096C63.5075 25.861 62.8604 26.1367 62.0947 26.1367C61.3519 26.1367 60.7458 25.9248 60.2764 25.501C59.807 25.0771 59.5723 24.5531 59.5723 23.9287C59.5723 23.1403 59.8639 22.5365 60.4473 22.1172C61.0352 21.6934 61.8737 21.4814 62.9629 21.4814H63.9814V20.9961C63.9814 20.6133 63.8743 20.3079 63.6602 20.0801C63.446 19.8477 63.1201 19.7314 62.6826 19.7314C62.3044 19.7314 61.9945 19.8271 61.7529 20.0186C61.5114 20.2054 61.3906 20.4447 61.3906 20.7363H59.7295C59.7295 20.3307 59.8639 19.9525 60.1328 19.6016C60.4017 19.2461 60.7663 18.9681 61.2266 18.7676C61.6914 18.5671 62.2087 18.4668 62.7783 18.4668C63.6442 18.4668 64.3346 18.6855 64.8496 19.123C65.3646 19.556 65.6289 20.1667 65.6426 20.9551V24.291C65.6426 24.9564 65.736 25.4873 65.9229 25.8838V26H64.2275ZM62.4023 24.8037C62.7305 24.8037 63.0381 24.724 63.3252 24.5645C63.6169 24.4049 63.8356 24.1908 63.9814 23.9219V22.5273H63.0859C62.4707 22.5273 62.0081 22.6344 61.6982 22.8486C61.3883 23.0628 61.2334 23.3659 61.2334 23.7578C61.2334 24.0768 61.3382 24.332 61.5479 24.5234C61.762 24.7103 62.0469 24.8037 62.4023 24.8037ZM69.1494 26H67.4883V15.5H69.1494V26ZM78.8428 26H77.1885V18.0088L74.748 18.8428V17.4414L78.6309 16.0127H78.8428V26Z" fill="#636262"/>
<g filter="url(#filter1_d)">
<path fill-rule="evenodd" clip-rule="evenodd" d="M49 69C57.2843 69 64 62.2843 64 54C64 45.7157 57.2843 39 49 39C40.7157 39 34 45.7157 34 54C34 62.2843 40.7157 69 49 69Z" fill="white"/>
</g>
<path d="M49.0003 48.5188C46.1473 48.5188 43.8262 50.8399 43.8262 53.6929C43.8262 54.8605 44.209 55.9637 44.9328 56.8828C45.0757 57.0647 45.2258 57.2388 45.3847 57.4232L45.3935 57.4333C45.8797 57.9974 46.3825 58.581 46.5702 59.2681C46.6127 59.4255 46.6187 59.7274 46.6163 59.96V60.3552C46.6163 60.717 46.9095 61.0102 47.2712 61.0102H50.7008C51.0625 61.0102 51.3558 60.717 51.3558 60.3552V59.9554C51.3536 59.6516 51.3693 59.43 51.401 59.315C51.5898 58.6324 52.147 57.977 52.643 57.3936L52.6644 57.3685C52.8076 57.2003 52.9428 57.0414 53.066 56.8849C53.7908 55.9653 54.1739 54.8615 54.1739 53.6929C54.1738 50.8399 51.853 48.5188 49.0003 48.5188ZM52.0366 56.0746C51.9288 56.2118 51.8016 56.3612 51.667 56.5194L51.6406 56.5504C51.0611 57.2319 50.4044 58.0043 50.1383 58.9665C50.1006 59.1031 50.0588 59.3075 50.0481 59.7003H47.925C47.9159 59.2831 47.8734 59.0691 47.8345 58.9251C47.5681 57.9501 46.9126 57.1894 46.3857 56.578L46.3769 56.5677C46.228 56.395 46.0874 56.2319 45.9624 56.073C45.4219 55.3866 45.1361 54.5635 45.1361 53.6929C45.1361 51.5622 46.8696 49.8287 49.0003 49.8287C51.1307 49.8287 52.8639 51.5622 52.8639 53.6929C52.8639 54.5644 52.578 55.3878 52.0366 56.0746Z" fill="#1E88E5"/>
<path d="M50.7007 61.6648H47.2712C46.9095 61.6648 46.6162 61.958 46.6162 62.3198C46.6162 62.6815 46.9095 62.9747 47.2712 62.9747H50.7008C51.0625 62.9747 51.3558 62.6815 51.3558 62.3198C51.3558 61.958 51.0624 61.6648 50.7007 61.6648Z" fill="#1E88E5"/>
<path d="M58.0375 53.0378H55.778C55.4163 53.0378 55.123 53.3311 55.123 53.6928C55.123 54.0545 55.4163 54.3478 55.778 54.3478H58.0375C58.3992 54.3478 58.6925 54.0545 58.6925 53.6928C58.6925 53.3311 58.3992 53.0378 58.0375 53.0378Z" fill="#1E88E5"/>
<path d="M42.8768 53.6928C42.8768 53.3311 42.5836 53.0378 42.2218 53.0378H39.9621C39.6004 53.0378 39.3071 53.3311 39.3071 53.6928C39.3071 54.0545 39.6004 54.3478 39.9621 54.3478H42.2218C42.5836 54.3478 42.8768 54.0545 42.8768 53.6928Z" fill="#1E88E5"/>
<path d="M49.0002 47.5701C49.3619 47.5701 49.6552 47.2769 49.6552 46.9151V44.655C49.6552 44.2933 49.3619 44 49.0002 44C48.6385 44 48.3452 44.2933 48.3452 44.655V46.9151C48.3452 47.2769 48.6385 47.5701 49.0002 47.5701Z" fill="#1E88E5"/>
<path d="M43.7435 49.3627C43.8714 49.4907 44.039 49.5547 44.2067 49.5547C44.3743 49.5547 44.5419 49.4907 44.6697 49.3629C44.9256 49.1071 44.9256 48.6925 44.6699 48.4367L43.0727 46.8389C42.8169 46.583 42.4023 46.583 42.1465 46.8387C41.8906 47.0945 41.8906 47.5092 42.1463 47.7649L43.7435 49.3627Z" fill="#1E88E5"/>
<path d="M53.7931 49.5546C53.9607 49.5546 54.1283 49.4906 54.2563 49.3627L55.8537 47.765C56.1095 47.5092 56.1094 47.0945 55.8536 46.8388C55.5978 46.583 55.1831 46.583 54.9274 46.8389L53.33 48.4366C53.0742 48.6924 53.0743 49.1071 53.3301 49.3628C53.4578 49.4907 53.6254 49.5546 53.7931 49.5546Z" fill="#1E88E5"/>
<g filter="url(#filter2_d)">
<path fill-rule="evenodd" clip-rule="evenodd" d="M86 69C94.2843 69 101 62.2843 101 54C101 45.7157 94.2843 39 86 39C77.7157 39 71 45.7157 71 54C71 62.2843 77.7157 69 86 69Z" fill="white"/>
</g>
<path d="M82.9371 49.3733C82.7662 49.3733 82.6023 49.4421 82.4814 49.5645C82.3606 49.6869 82.2927 49.8529 82.2926 50.026V56.5026L75.8927 56.5217C75.8081 56.522 75.7243 56.5391 75.6462 56.5722C75.5681 56.6052 75.4971 56.6536 75.4375 56.7144C75.3778 56.7752 75.3305 56.8473 75.2983 56.9266C75.2662 57.0059 75.2497 57.0909 75.25 57.1766C75.2503 57.2624 75.2672 57.3472 75.2998 57.4263C75.3325 57.5054 75.3802 57.5773 75.4402 57.6377C75.5002 57.6982 75.5715 57.746 75.6498 57.7786C75.7281 57.8112 75.812 57.8278 75.8966 57.8276L82.939 57.806C83.1096 57.8056 83.2732 57.7366 83.3937 57.6143C83.5142 57.4919 83.5819 57.3262 83.582 57.1533V50.6786H89.3301V57.1533C89.3302 57.2391 89.3469 57.324 89.3793 57.4032C89.4117 57.4824 89.4592 57.5544 89.5191 57.615C89.579 57.6756 89.6501 57.7236 89.7283 57.7564C89.8066 57.7892 89.8904 57.806 89.9751 57.806H97.0126C97.0984 57.8079 97.1838 57.7925 97.2637 57.7606C97.3435 57.7286 97.4163 57.6809 97.4777 57.6201C97.5391 57.5593 97.5879 57.4867 97.6212 57.4065C97.6545 57.3264 97.6716 57.2403 97.6716 57.1533C97.6716 57.0664 97.6545 56.9803 97.6212 56.9001C97.5879 56.82 97.5391 56.7474 97.4777 56.6866C97.4163 56.6258 97.3435 56.578 97.2637 56.5461C97.1838 56.5142 97.0984 56.4987 97.0126 56.5007H90.6195V50.026C90.6195 49.8529 90.5516 49.6869 90.4307 49.5645C90.3099 49.4421 90.146 49.3733 89.9751 49.3733H82.9371Z" fill="#C4C4C4"/>
<g filter="url(#filter3_d)">
<path fill-rule="evenodd" clip-rule="evenodd" d="M123 69C131.284 69 138 62.2843 138 54C138 45.7157 131.284 39 123 39C114.716 39 108 45.7157 108 54C108 62.2843 114.716 69 123 69Z" fill="white"/>
</g>
<path d="M119.937 49.3733C119.791 49.3734 119.65 49.4233 119.536 49.515C119.422 49.6067 119.342 49.7348 119.309 49.8784L117.791 56.5026L112.892 56.5217C112.807 56.5221 112.723 56.5393 112.645 56.5725C112.567 56.6056 112.496 56.654 112.436 56.7149C112.377 56.7757 112.33 56.8479 112.298 56.9273C112.265 57.0066 112.249 57.0916 112.25 57.1774C112.25 57.2631 112.267 57.3479 112.3 57.427C112.332 57.5061 112.38 57.5779 112.44 57.6383C112.5 57.6986 112.572 57.7464 112.65 57.7789C112.728 57.8114 112.812 57.8279 112.897 57.8276L118.306 57.806C118.451 57.8054 118.591 57.7551 118.705 57.6635C118.818 57.5718 118.898 57.4441 118.931 57.3009L120.449 50.6786H126.466L128.019 57.3044C128.052 57.4472 128.133 57.5744 128.246 57.6654C128.36 57.7565 128.501 57.806 128.646 57.806H134.012C134.098 57.8079 134.184 57.7925 134.263 57.7606C134.343 57.7286 134.416 57.6809 134.478 57.6201C134.539 57.5593 134.588 57.4867 134.621 57.4065C134.654 57.3264 134.671 57.2403 134.671 57.1533C134.671 57.0664 134.654 56.9803 134.621 56.9001C134.588 56.82 134.539 56.7474 134.478 56.6866C134.416 56.6258 134.343 56.578 134.263 56.5461C134.184 56.5142 134.098 56.4987 134.012 56.5007H129.155L127.602 49.8749C127.568 49.7321 127.488 49.6049 127.374 49.5138C127.261 49.4228 127.12 49.3733 126.975 49.3733H119.937Z" fill="#C4C4C4"/>
<g filter="url(#filter4_d)">
<path fill-rule="evenodd" clip-rule="evenodd" d="M160 69C168.284 69 175 62.2843 175 54C175 45.7157 168.284 39 160 39C151.716 39 145 45.7157 145 54C145 62.2843 151.716 69 160 69Z" fill="white"/>
</g>
<path d="M156.937 49.3733C156.826 49.3733 156.717 49.4021 156.621 49.4571C156.524 49.5121 156.443 49.5913 156.386 49.6871L152.288 56.5267L149.895 56.5217C149.811 56.5216 149.727 56.5383 149.649 56.571C149.57 56.6036 149.499 56.6516 149.439 56.7121C149.379 56.7726 149.332 56.8445 149.299 56.9237C149.267 57.0028 149.25 57.0877 149.25 57.1734C149.249 57.2592 149.266 57.3441 149.298 57.4234C149.33 57.5027 149.378 57.5748 149.438 57.6355C149.497 57.6962 149.568 57.7445 149.646 57.7774C149.725 57.8104 149.808 57.8274 149.893 57.8276L152.649 57.8325C152.76 57.8328 152.87 57.804 152.966 57.749C153.063 57.694 153.144 57.6147 153.202 57.5186L157.3 50.6786H163.61L167.64 57.4887C167.697 57.5855 167.778 57.6656 167.875 57.7212C167.972 57.7768 168.082 57.806 168.193 57.806H171.012C171.098 57.8079 171.184 57.7925 171.263 57.7606C171.343 57.7286 171.416 57.6809 171.478 57.6201C171.539 57.5593 171.588 57.4867 171.621 57.4065C171.654 57.3264 171.671 57.2403 171.671 57.1533C171.671 57.0664 171.654 56.9803 171.621 56.9001C171.588 56.82 171.539 56.7474 171.478 56.6866C171.416 56.6258 171.343 56.578 171.263 56.5461C171.184 56.5142 171.098 56.4987 171.012 56.5007H168.558L164.527 49.6901C164.47 49.5935 164.389 49.5135 164.292 49.458C164.195 49.4025 164.086 49.3733 163.975 49.3733H156.937Z" fill="#C4C4C4"/>
<g filter="url(#filter5_d)">
<path d="M189 94H20C14.4772 94 10 98.4772 10 104V163C10 168.523 14.4772 173 20 173H189C194.523 173 199 168.523 199 163V104C199 98.4772 194.523 94 189 94Z" fill="white"/>
</g>
<path d="M110.867 106.084H107.943V114H107.223V106.084H104.305V105.469H110.867V106.084ZM112.871 114H112.168V107.66H112.871V114ZM112.045 105.826C112.045 105.693 112.088 105.582 112.174 105.492C112.26 105.398 112.377 105.352 112.525 105.352C112.674 105.352 112.791 105.398 112.877 105.492C112.967 105.582 113.012 105.693 113.012 105.826C113.012 105.959 112.967 106.07 112.877 106.16C112.791 106.25 112.674 106.295 112.525 106.295C112.377 106.295 112.26 106.25 112.174 106.16C112.088 106.07 112.045 105.959 112.045 105.826ZM119.885 110.895C119.885 111.883 119.666 112.668 119.229 113.25C118.791 113.828 118.203 114.117 117.465 114.117C116.582 114.117 115.914 113.789 115.461 113.133L115.432 114H114.775V105H115.473V108.58C115.918 107.889 116.578 107.543 117.453 107.543C118.203 107.543 118.795 107.83 119.229 108.404C119.666 108.975 119.885 109.77 119.885 110.789V110.895ZM119.182 110.771C119.182 109.936 119.02 109.291 118.695 108.838C118.371 108.381 117.914 108.152 117.324 108.152C116.875 108.152 116.494 108.264 116.182 108.486C115.869 108.705 115.633 109.027 115.473 109.453V112.312C115.824 113.109 116.445 113.508 117.336 113.508C117.914 113.508 118.365 113.279 118.689 112.822C119.018 112.365 119.182 111.682 119.182 110.771ZM122.223 114H121.52V107.66H122.223V114ZM121.396 105.826C121.396 105.693 121.439 105.582 121.525 105.492C121.611 105.398 121.729 105.352 121.877 105.352C122.025 105.352 122.143 105.398 122.229 105.492C122.318 105.582 122.363 105.693 122.363 105.826C122.363 105.959 122.318 106.07 122.229 106.16C122.143 106.25 122.025 106.295 121.877 106.295C121.729 106.295 121.611 106.25 121.525 106.16C121.439 106.07 121.396 105.959 121.396 105.826ZM128.135 114C128.064 113.801 128.02 113.506 128 113.115C127.754 113.436 127.439 113.684 127.057 113.859C126.678 114.031 126.275 114.117 125.85 114.117C125.24 114.117 124.746 113.947 124.367 113.607C123.992 113.268 123.805 112.838 123.805 112.318C123.805 111.701 124.061 111.213 124.572 110.854C125.088 110.494 125.805 110.314 126.723 110.314H127.994V109.594C127.994 109.141 127.854 108.785 127.572 108.527C127.295 108.266 126.889 108.135 126.354 108.135C125.865 108.135 125.461 108.26 125.141 108.51C124.82 108.76 124.66 109.061 124.66 109.412L123.957 109.406C123.957 108.902 124.191 108.467 124.66 108.1C125.129 107.729 125.705 107.543 126.389 107.543C127.096 107.543 127.652 107.721 128.059 108.076C128.469 108.428 128.68 108.92 128.691 109.553V112.553C128.691 113.166 128.756 113.625 128.885 113.93V114H128.135ZM125.932 113.496C126.4 113.496 126.818 113.383 127.186 113.156C127.557 112.93 127.826 112.627 127.994 112.248V110.854H126.74C126.041 110.861 125.494 110.99 125.1 111.24C124.705 111.486 124.508 111.826 124.508 112.26C124.508 112.615 124.639 112.91 124.9 113.145C125.166 113.379 125.51 113.496 125.932 113.496ZM131.352 114H130.648V105H131.352V114ZM140.949 111.609H137.076L136.197 114H135.441L138.67 105.469H139.355L142.584 114H141.834L140.949 111.609ZM137.299 110.994H140.721L139.01 106.348L137.299 110.994ZM144.348 107.66L144.371 108.744C144.609 108.354 144.906 108.057 145.262 107.854C145.617 107.646 146.01 107.543 146.439 107.543C147.119 107.543 147.625 107.734 147.957 108.117C148.289 108.5 148.457 109.074 148.461 109.84V114H147.764V109.834C147.76 109.268 147.639 108.846 147.4 108.568C147.166 108.291 146.789 108.152 146.27 108.152C145.836 108.152 145.451 108.289 145.115 108.562C144.783 108.832 144.537 109.197 144.377 109.658V114H143.68V107.66H144.348ZM151.367 106.037V107.66H152.68V108.234H151.367V112.459C151.367 112.811 151.43 113.072 151.555 113.244C151.684 113.416 151.896 113.502 152.193 113.502C152.311 113.502 152.5 113.482 152.762 113.443L152.791 114.018C152.607 114.084 152.357 114.117 152.041 114.117C151.561 114.117 151.211 113.979 150.992 113.701C150.773 113.42 150.664 113.008 150.664 112.465V108.234H149.498V107.66H150.664V106.037H151.367ZM156.588 114.117C156.049 114.117 155.561 113.984 155.123 113.719C154.689 113.453 154.352 113.084 154.109 112.611C153.867 112.135 153.746 111.602 153.746 111.012V110.76C153.746 110.15 153.863 109.602 154.098 109.113C154.336 108.625 154.666 108.242 155.088 107.965C155.51 107.684 155.967 107.543 156.459 107.543C157.229 107.543 157.838 107.807 158.287 108.334C158.74 108.857 158.967 109.574 158.967 110.484V110.877H154.443V111.012C154.443 111.73 154.648 112.33 155.059 112.811C155.473 113.287 155.992 113.525 156.617 113.525C156.992 113.525 157.322 113.457 157.607 113.32C157.896 113.184 158.158 112.965 158.393 112.664L158.832 112.998C158.316 113.744 157.568 114.117 156.588 114.117ZM156.459 108.141C155.932 108.141 155.486 108.334 155.123 108.721C154.764 109.107 154.545 109.627 154.467 110.279H158.27V110.203C158.25 109.594 158.076 109.098 157.748 108.715C157.42 108.332 156.99 108.141 156.459 108.141ZM163.262 108.258C163.113 108.23 162.955 108.217 162.787 108.217C162.35 108.217 161.979 108.34 161.674 108.586C161.373 108.828 161.158 109.182 161.029 109.646V114H160.332V107.66H161.018L161.029 108.668C161.4 107.918 161.996 107.543 162.816 107.543C163.012 107.543 163.166 107.568 163.279 107.619L163.262 108.258ZM165.16 114H164.457V107.66H165.16V114ZM164.334 105.826C164.334 105.693 164.377 105.582 164.463 105.492C164.549 105.398 164.666 105.352 164.814 105.352C164.963 105.352 165.08 105.398 165.166 105.492C165.256 105.582 165.301 105.693 165.301 105.826C165.301 105.959 165.256 106.07 165.166 106.16C165.08 106.25 164.963 106.295 164.814 106.295C164.666 106.295 164.549 106.25 164.463 106.16C164.377 106.07 164.334 105.959 164.334 105.826ZM166.684 110.736C166.684 110.127 166.801 109.578 167.035 109.09C167.273 108.602 167.607 108.223 168.037 107.953C168.471 107.68 168.961 107.543 169.508 107.543C170.352 107.543 171.035 107.84 171.559 108.434C172.082 109.023 172.344 109.807 172.344 110.783V110.93C172.344 111.543 172.225 112.096 171.986 112.588C171.752 113.076 171.42 113.453 170.99 113.719C170.561 113.984 170.07 114.117 169.52 114.117C168.68 114.117 167.996 113.822 167.469 113.232C166.945 112.639 166.684 111.854 166.684 110.877V110.736ZM167.387 110.93C167.387 111.688 167.582 112.311 167.973 112.799C168.367 113.283 168.883 113.525 169.52 113.525C170.152 113.525 170.664 113.283 171.055 112.799C171.449 112.311 171.646 111.668 171.646 110.871V110.736C171.646 110.252 171.557 109.809 171.377 109.406C171.197 109.004 170.945 108.693 170.621 108.475C170.297 108.252 169.926 108.141 169.508 108.141C168.883 108.141 168.373 108.387 167.979 108.879C167.584 109.367 167.387 110.008 167.387 110.801V110.93ZM176.727 108.258C176.578 108.23 176.42 108.217 176.252 108.217C175.814 108.217 175.443 108.34 175.139 108.586C174.838 108.828 174.623 109.182 174.494 109.646V114H173.797V107.66H174.482L174.494 108.668C174.865 107.918 175.461 107.543 176.281 107.543C176.477 107.543 176.631 107.568 176.744 107.619L176.727 108.258Z" fill="#1E88E5"/>
<path d="M43.0498 110.76C42.9495 111.822 42.5576 112.651 41.874 113.248C41.1904 113.84 40.2812 114.137 39.1465 114.137C38.3535 114.137 37.654 113.95 37.0479 113.576C36.4463 113.198 35.9814 112.662 35.6533 111.97C35.3252 111.277 35.1543 110.473 35.1406 109.557V108.627C35.1406 107.688 35.307 106.861 35.6396 106.146C35.9723 105.43 36.4486 104.879 37.0684 104.491C37.6927 104.104 38.4128 103.91 39.2285 103.91C40.3268 103.91 41.2109 104.209 41.8809 104.806C42.5508 105.403 42.9404 106.246 43.0498 107.335H41.3271C41.2451 106.619 41.0355 106.104 40.6982 105.79C40.3656 105.471 39.8757 105.312 39.2285 105.312C38.4766 105.312 37.8978 105.587 37.4922 106.139C37.0911 106.686 36.8861 107.49 36.877 108.552V109.434C36.877 110.509 37.0684 111.329 37.4512 111.895C37.8385 112.46 38.4036 112.742 39.1465 112.742C39.8255 112.742 40.3359 112.59 40.6777 112.284C41.0195 111.979 41.236 111.471 41.3271 110.76H43.0498ZM48.8604 114C48.7874 113.859 48.7236 113.629 48.6689 113.31C48.1403 113.861 47.4932 114.137 46.7275 114.137C45.9847 114.137 45.3786 113.925 44.9092 113.501C44.4398 113.077 44.2051 112.553 44.2051 111.929C44.2051 111.14 44.4967 110.536 45.0801 110.117C45.668 109.693 46.5065 109.481 47.5957 109.481H48.6143V108.996C48.6143 108.613 48.5072 108.308 48.293 108.08C48.0788 107.848 47.7529 107.731 47.3154 107.731C46.9372 107.731 46.6273 107.827 46.3857 108.019C46.1442 108.205 46.0234 108.445 46.0234 108.736H44.3623C44.3623 108.331 44.4967 107.952 44.7656 107.602C45.0345 107.246 45.3991 106.968 45.8594 106.768C46.3242 106.567 46.8415 106.467 47.4111 106.467C48.277 106.467 48.9674 106.686 49.4824 107.123C49.9974 107.556 50.2617 108.167 50.2754 108.955V112.291C50.2754 112.956 50.3688 113.487 50.5557 113.884V114H48.8604ZM47.0352 112.804C47.3633 112.804 47.6709 112.724 47.958 112.564C48.2497 112.405 48.4684 112.191 48.6143 111.922V110.527H47.7188C47.1035 110.527 46.641 110.634 46.3311 110.849C46.0212 111.063 45.8662 111.366 45.8662 111.758C45.8662 112.077 45.971 112.332 46.1807 112.523C46.3949 112.71 46.6797 112.804 47.0352 112.804ZM53.5566 106.604L53.6045 107.458C54.1514 106.797 54.8691 106.467 55.7578 106.467C57.2982 106.467 58.082 107.349 58.1094 109.112V114H56.4482V109.208C56.4482 108.739 56.3457 108.392 56.1406 108.169C55.9401 107.941 55.6097 107.827 55.1494 107.827C54.4795 107.827 53.9805 108.13 53.6523 108.736V114H51.9912V106.604H53.5566ZM64.2275 114C64.1546 113.859 64.0908 113.629 64.0361 113.31C63.5075 113.861 62.8604 114.137 62.0947 114.137C61.3519 114.137 60.7458 113.925 60.2764 113.501C59.807 113.077 59.5723 112.553 59.5723 111.929C59.5723 111.14 59.8639 110.536 60.4473 110.117C61.0352 109.693 61.8737 109.481 62.9629 109.481H63.9814V108.996C63.9814 108.613 63.8743 108.308 63.6602 108.08C63.446 107.848 63.1201 107.731 62.6826 107.731C62.3044 107.731 61.9945 107.827 61.7529 108.019C61.5114 108.205 61.3906 108.445 61.3906 108.736H59.7295C59.7295 108.331 59.8639 107.952 60.1328 107.602C60.4017 107.246 60.7663 106.968 61.2266 106.768C61.6914 106.567 62.2087 106.467 62.7783 106.467C63.6442 106.467 64.3346 106.686 64.8496 107.123C65.3646 107.556 65.6289 108.167 65.6426 108.955V112.291C65.6426 112.956 65.736 113.487 65.9229 113.884V114H64.2275ZM62.4023 112.804C62.7305 112.804 63.0381 112.724 63.3252 112.564C63.6169 112.405 63.8356 112.191 63.9814 111.922V110.527H63.0859C62.4707 110.527 62.0081 110.634 61.6982 110.849C61.3883 111.063 61.2334 111.366 61.2334 111.758C61.2334 112.077 61.3382 112.332 61.5479 112.523C61.762 112.71 62.0469 112.804 62.4023 112.804ZM69.1494 114H67.4883V103.5H69.1494V114ZM81.0371 114H74.3447V112.858L77.6602 109.242C78.1387 108.709 78.4782 108.265 78.6787 107.909C78.8838 107.549 78.9863 107.189 78.9863 106.829C78.9863 106.355 78.8519 105.972 78.583 105.681C78.3187 105.389 77.9609 105.243 77.5098 105.243C76.972 105.243 76.555 105.407 76.2588 105.735C75.9626 106.063 75.8145 106.512 75.8145 107.082H74.1533C74.1533 106.476 74.29 105.931 74.5635 105.448C74.8415 104.961 75.2357 104.582 75.7461 104.313C76.2611 104.045 76.8535 103.91 77.5234 103.91C78.4896 103.91 79.2507 104.154 79.8066 104.642C80.3672 105.125 80.6475 105.795 80.6475 106.651C80.6475 107.148 80.5062 107.67 80.2236 108.217C79.9456 108.759 79.4876 109.377 78.8496 110.069L76.416 112.674H81.0371V114Z" fill="#1E88E5"/>
<g filter="url(#filter6_d)">
<path fill-rule="evenodd" clip-rule="evenodd" d="M68 157C76.2843 157 83 150.284 83 142C83 133.716 76.2843 127 68 127C59.7157 127 53 133.716 53 142C53 150.284 59.7157 157 68 157Z" fill="white"/>
</g>
<path d="M64.9371 137.373C64.7662 137.373 64.6023 137.442 64.4814 137.565C64.3606 137.687 64.2927 137.853 64.2926 138.026V144.503L57.8927 144.522C57.8081 144.522 57.7243 144.539 57.6462 144.572C57.5681 144.605 57.4971 144.654 57.4375 144.714C57.3778 144.775 57.3305 144.847 57.2983 144.927C57.2662 145.006 57.2497 145.091 57.25 145.177C57.2503 145.262 57.2672 145.347 57.2998 145.426C57.3325 145.505 57.3802 145.577 57.4402 145.638C57.5002 145.698 57.5715 145.746 57.6498 145.779C57.7281 145.811 57.812 145.828 57.8966 145.828L64.939 145.806C65.1096 145.806 65.2732 145.737 65.3937 145.614C65.5142 145.492 65.5819 145.326 65.582 145.153V138.679H71.3301V145.153C71.3302 145.239 71.3469 145.324 71.3793 145.403C71.4117 145.482 71.4592 145.554 71.5191 145.615C71.579 145.676 71.6501 145.724 71.7283 145.756C71.8066 145.789 71.8904 145.806 71.9751 145.806H79.0126C79.0984 145.808 79.1838 145.792 79.2637 145.761C79.3435 145.729 79.4163 145.681 79.4777 145.62C79.5391 145.559 79.5879 145.487 79.6212 145.407C79.6545 145.326 79.6716 145.24 79.6716 145.153C79.6716 145.066 79.6545 144.98 79.6212 144.9C79.5879 144.82 79.5391 144.747 79.4777 144.687C79.4163 144.626 79.3435 144.578 79.2637 144.546C79.1838 144.514 79.0984 144.499 79.0126 144.501H72.6195V138.026C72.6195 137.853 72.5516 137.687 72.4307 137.565C72.3099 137.442 72.146 137.373 71.9751 137.373H64.9371Z" fill="#1E88E5"/>
<g filter="url(#filter7_d)">
<path fill-rule="evenodd" clip-rule="evenodd" d="M105 157C113.284 157 120 150.284 120 142C120 133.716 113.284 127 105 127C96.7157 127 90 133.716 90 142C90 150.284 96.7157 157 105 157Z" fill="white"/>
</g>
<path d="M101.937 137.373C101.791 137.373 101.65 137.423 101.536 137.515C101.422 137.607 101.342 137.735 101.309 137.878L99.7905 144.503L94.8916 144.522C94.8069 144.522 94.7232 144.539 94.6451 144.572C94.567 144.606 94.4961 144.654 94.4365 144.715C94.3769 144.776 94.3297 144.848 94.2976 144.927C94.2655 145.007 94.2492 145.092 94.2495 145.177C94.2499 145.263 94.2669 145.348 94.2996 145.427C94.3323 145.506 94.3801 145.578 94.4402 145.638C94.5004 145.699 94.5716 145.746 94.65 145.779C94.7284 145.811 94.8123 145.828 94.8969 145.828L100.306 145.806C100.451 145.805 100.591 145.755 100.705 145.663C100.818 145.572 100.898 145.444 100.931 145.301L102.449 138.679H108.466L110.019 145.304C110.052 145.447 110.133 145.574 110.246 145.665C110.36 145.756 110.501 145.806 110.646 145.806H116.012C116.098 145.808 116.184 145.792 116.263 145.761C116.343 145.729 116.416 145.681 116.478 145.62C116.539 145.559 116.588 145.487 116.621 145.407C116.654 145.326 116.671 145.24 116.671 145.153C116.671 145.066 116.654 144.98 116.621 144.9C116.588 144.82 116.539 144.747 116.478 144.687C116.416 144.626 116.343 144.578 116.263 144.546C116.184 144.514 116.098 144.499 116.012 144.501H111.155L109.602 137.875C109.568 137.732 109.488 137.605 109.374 137.514C109.261 137.423 109.12 137.373 108.975 137.373H101.937Z" fill="#C4C4C4"/>
<g filter="url(#filter8_d)">
<path fill-rule="evenodd" clip-rule="evenodd" d="M142 157C150.284 157 157 150.284 157 142C157 133.716 150.284 127 142 127C133.716 127 127 133.716 127 142C127 150.284 133.716 157 142 157Z" fill="white"/>
</g>
<path d="M138.937 137.373C138.826 137.373 138.717 137.402 138.621 137.457C138.524 137.512 138.443 137.591 138.386 137.687L134.288 144.527L131.895 144.522C131.811 144.522 131.727 144.538 131.649 144.571C131.57 144.604 131.499 144.652 131.439 144.712C131.379 144.773 131.332 144.844 131.299 144.924C131.267 145.003 131.25 145.088 131.25 145.173C131.249 145.259 131.266 145.344 131.298 145.423C131.33 145.503 131.378 145.575 131.438 145.635C131.497 145.696 131.568 145.744 131.646 145.777C131.725 145.81 131.808 145.827 131.893 145.828L134.649 145.832C134.76 145.833 134.87 145.804 134.966 145.749C135.063 145.694 135.144 145.615 135.202 145.519L139.3 138.679H145.61L149.64 145.489C149.697 145.585 149.778 145.666 149.875 145.721C149.972 145.777 150.082 145.806 150.193 145.806H153.012C153.098 145.808 153.184 145.792 153.263 145.761C153.343 145.729 153.416 145.681 153.478 145.62C153.539 145.559 153.588 145.487 153.621 145.407C153.654 145.326 153.671 145.24 153.671 145.153C153.671 145.066 153.654 144.98 153.621 144.9C153.588 144.82 153.539 144.747 153.478 144.687C153.416 144.626 153.343 144.578 153.263 144.546C153.184 144.514 153.098 144.499 153.012 144.501H150.558L146.527 137.69C146.47 137.593 146.389 137.514 146.292 137.458C146.195 137.403 146.086 137.373 145.975 137.373H138.937Z" fill="#C4C4C4"/>
<g filter="url(#filter9_d)">
<path d="M189 182H20C14.4772 182 10 186.477 10 192V251C10 256.523 14.4772 261 20 261H189C194.523 261 199 256.523 199 251V192C199 186.477 194.523 182 189 182Z" fill="white"/>
</g>
<path d="M111.119 199.34C111.021 200.238 110.699 200.926 110.152 201.402C109.609 201.879 108.885 202.117 107.979 202.117C107.346 202.117 106.785 201.959 106.297 201.643C105.812 201.326 105.438 200.879 105.172 200.301C104.906 199.719 104.771 199.055 104.768 198.309V197.201C104.768 196.443 104.9 195.771 105.166 195.186C105.432 194.6 105.812 194.148 106.309 193.832C106.809 193.512 107.383 193.352 108.031 193.352C108.945 193.352 109.666 193.6 110.193 194.096C110.725 194.588 111.033 195.27 111.119 196.141H110.393C110.213 194.691 109.426 193.967 108.031 193.967C107.258 193.967 106.641 194.256 106.18 194.834C105.723 195.412 105.494 196.211 105.494 197.23V198.273C105.494 199.258 105.717 200.043 106.162 200.629C106.611 201.215 107.217 201.508 107.979 201.508C108.732 201.508 109.301 201.328 109.684 200.969C110.066 200.605 110.303 200.062 110.393 199.34H111.119ZM116.785 201.197C116.363 201.811 115.689 202.117 114.764 202.117C114.088 202.117 113.574 201.922 113.223 201.531C112.871 201.137 112.691 200.555 112.684 199.785V195.66H113.381V199.697C113.381 200.904 113.869 201.508 114.846 201.508C115.861 201.508 116.504 201.088 116.773 200.248V195.66H117.477V202H116.797L116.785 201.197ZM123.307 202C123.236 201.801 123.191 201.506 123.172 201.115C122.926 201.436 122.611 201.684 122.229 201.859C121.85 202.031 121.447 202.117 121.021 202.117C120.412 202.117 119.918 201.947 119.539 201.607C119.164 201.268 118.977 200.838 118.977 200.318C118.977 199.701 119.232 199.213 119.744 198.854C120.26 198.494 120.977 198.314 121.895 198.314H123.166V197.594C123.166 197.141 123.025 196.785 122.744 196.527C122.467 196.266 122.061 196.135 121.525 196.135C121.037 196.135 120.633 196.26 120.312 196.51C119.992 196.76 119.832 197.061 119.832 197.412L119.129 197.406C119.129 196.902 119.363 196.467 119.832 196.1C120.301 195.729 120.877 195.543 121.561 195.543C122.268 195.543 122.824 195.721 123.23 196.076C123.641 196.428 123.852 196.92 123.863 197.553V200.553C123.863 201.166 123.928 201.625 124.057 201.93V202H123.307ZM121.104 201.496C121.572 201.496 121.99 201.383 122.357 201.156C122.729 200.93 122.998 200.627 123.166 200.248V198.854H121.912C121.213 198.861 120.666 198.99 120.271 199.24C119.877 199.486 119.68 199.826 119.68 200.26C119.68 200.615 119.811 200.91 120.072 201.145C120.338 201.379 120.682 201.496 121.104 201.496ZM122.486 193H123.336L121.982 194.641H121.367L122.486 193ZM125.457 198.771C125.457 197.787 125.676 197.004 126.113 196.422C126.555 195.836 127.152 195.543 127.906 195.543C128.762 195.543 129.414 195.881 129.863 196.557V193H130.561V202H129.904L129.875 201.156C129.426 201.797 128.766 202.117 127.895 202.117C127.164 202.117 126.574 201.824 126.125 201.238C125.68 200.648 125.457 199.854 125.457 198.854V198.771ZM126.166 198.895C126.166 199.703 126.328 200.342 126.652 200.811C126.977 201.275 127.434 201.508 128.023 201.508C128.887 201.508 129.5 201.127 129.863 200.365V197.389C129.5 196.564 128.891 196.152 128.035 196.152C127.445 196.152 126.986 196.385 126.658 196.85C126.33 197.311 126.166 197.992 126.166 198.895ZM135.336 196.258C135.188 196.23 135.029 196.217 134.861 196.217C134.424 196.217 134.053 196.34 133.748 196.586C133.447 196.828 133.232 197.182 133.104 197.646V202H132.406V195.66H133.092L133.104 196.668C133.475 195.918 134.07 195.543 134.891 195.543C135.086 195.543 135.24 195.568 135.354 195.619L135.336 196.258ZM137.234 202H136.531V195.66H137.234V202ZM136.408 193.826C136.408 193.693 136.451 193.582 136.537 193.492C136.623 193.398 136.74 193.352 136.889 193.352C137.037 193.352 137.154 193.398 137.24 193.492C137.33 193.582 137.375 193.693 137.375 193.826C137.375 193.959 137.33 194.07 137.24 194.16C137.154 194.25 137.037 194.295 136.889 194.295C136.74 194.295 136.623 194.25 136.537 194.16C136.451 194.07 136.408 193.959 136.408 193.826ZM141.488 201.525C141.977 201.525 142.385 201.389 142.713 201.115C143.045 200.838 143.225 200.48 143.252 200.043H143.926C143.906 200.43 143.785 200.783 143.562 201.104C143.34 201.42 143.043 201.668 142.672 201.848C142.305 202.027 141.91 202.117 141.488 202.117C140.656 202.117 139.996 201.828 139.508 201.25C139.023 200.672 138.781 199.895 138.781 198.918V198.707C138.781 198.082 138.891 197.529 139.109 197.049C139.328 196.568 139.641 196.197 140.047 195.936C140.457 195.674 140.936 195.543 141.482 195.543C142.178 195.543 142.75 195.75 143.199 196.164C143.652 196.578 143.895 197.123 143.926 197.799H143.252C143.221 197.303 143.041 196.902 142.713 196.598C142.389 196.293 141.979 196.141 141.482 196.141C140.85 196.141 140.357 196.369 140.006 196.826C139.658 197.283 139.484 197.924 139.484 198.748V198.953C139.484 199.762 139.658 200.393 140.006 200.846C140.357 201.299 140.852 201.525 141.488 201.525ZM147.787 202.117C147.248 202.117 146.76 201.984 146.322 201.719C145.889 201.453 145.551 201.084 145.309 200.611C145.066 200.135 144.945 199.602 144.945 199.012V198.76C144.945 198.15 145.062 197.602 145.297 197.113C145.535 196.625 145.865 196.242 146.287 195.965C146.709 195.684 147.166 195.543 147.658 195.543C148.428 195.543 149.037 195.807 149.486 196.334C149.939 196.857 150.166 197.574 150.166 198.484V198.877H145.643V199.012C145.643 199.73 145.848 200.33 146.258 200.811C146.672 201.287 147.191 201.525 147.816 201.525C148.191 201.525 148.521 201.457 148.807 201.32C149.096 201.184 149.357 200.965 149.592 200.664L150.031 200.998C149.516 201.744 148.768 202.117 147.787 202.117ZM147.658 196.141C147.131 196.141 146.686 196.334 146.322 196.721C145.963 197.107 145.744 197.627 145.666 198.279H149.469V198.203C149.449 197.594 149.275 197.098 148.947 196.715C148.619 196.332 148.189 196.141 147.658 196.141ZM156.629 198.895C156.629 199.883 156.41 200.668 155.973 201.25C155.535 201.828 154.949 202.117 154.215 202.117C153.348 202.117 152.684 201.812 152.223 201.203V204.438H151.525V195.66H152.176L152.211 196.557C152.668 195.881 153.33 195.543 154.197 195.543C154.955 195.543 155.549 195.83 155.979 196.404C156.412 196.979 156.629 197.775 156.629 198.795V198.895ZM155.926 198.771C155.926 197.963 155.76 197.324 155.428 196.855C155.096 196.387 154.633 196.152 154.039 196.152C153.609 196.152 153.24 196.256 152.932 196.463C152.623 196.67 152.387 196.971 152.223 197.365V200.406C152.391 200.77 152.631 201.047 152.943 201.238C153.256 201.43 153.625 201.525 154.051 201.525C154.641 201.525 155.1 201.291 155.428 200.822C155.76 200.35 155.926 199.666 155.926 198.771ZM161.984 200.389C161.984 200.041 161.844 199.762 161.562 199.551C161.285 199.34 160.865 199.176 160.303 199.059C159.74 198.938 159.303 198.801 158.99 198.648C158.682 198.492 158.451 198.303 158.299 198.08C158.15 197.857 158.076 197.588 158.076 197.271C158.076 196.771 158.285 196.359 158.703 196.035C159.121 195.707 159.656 195.543 160.309 195.543C161.016 195.543 161.582 195.719 162.008 196.07C162.438 196.418 162.652 196.873 162.652 197.436H161.949C161.949 197.064 161.793 196.756 161.48 196.51C161.172 196.264 160.781 196.141 160.309 196.141C159.848 196.141 159.477 196.244 159.195 196.451C158.918 196.654 158.779 196.92 158.779 197.248C158.779 197.564 158.895 197.811 159.125 197.986C159.359 198.158 159.783 198.316 160.396 198.461C161.014 198.605 161.475 198.76 161.779 198.924C162.088 199.088 162.316 199.285 162.465 199.516C162.613 199.746 162.688 200.025 162.688 200.354C162.688 200.889 162.471 201.316 162.037 201.637C161.607 201.957 161.045 202.117 160.35 202.117C159.611 202.117 159.012 201.939 158.551 201.584C158.094 201.225 157.865 200.771 157.865 200.225H158.568C158.596 200.635 158.768 200.955 159.084 201.186C159.404 201.412 159.826 201.525 160.35 201.525C160.838 201.525 161.232 201.418 161.533 201.203C161.834 200.988 161.984 200.717 161.984 200.389Z" fill="#1E88E5"/>
<path d="M43.0498 198.76C42.9495 199.822 42.5576 200.651 41.874 201.248C41.1904 201.84 40.2812 202.137 39.1465 202.137C38.3535 202.137 37.654 201.95 37.0479 201.576C36.4463 201.198 35.9814 200.662 35.6533 199.97C35.3252 199.277 35.1543 198.473 35.1406 197.557V196.627C35.1406 195.688 35.307 194.861 35.6396 194.146C35.9723 193.43 36.4486 192.879 37.0684 192.491C37.6927 192.104 38.4128 191.91 39.2285 191.91C40.3268 191.91 41.2109 192.209 41.8809 192.806C42.5508 193.403 42.9404 194.246 43.0498 195.335H41.3271C41.2451 194.619 41.0355 194.104 40.6982 193.79C40.3656 193.471 39.8757 193.312 39.2285 193.312C38.4766 193.312 37.8978 193.587 37.4922 194.139C37.0911 194.686 36.8861 195.49 36.877 196.552V197.434C36.877 198.509 37.0684 199.329 37.4512 199.895C37.8385 200.46 38.4036 200.742 39.1465 200.742C39.8255 200.742 40.3359 200.59 40.6777 200.284C41.0195 199.979 41.236 199.471 41.3271 198.76H43.0498ZM48.8604 202C48.7874 201.859 48.7236 201.629 48.6689 201.31C48.1403 201.861 47.4932 202.137 46.7275 202.137C45.9847 202.137 45.3786 201.925 44.9092 201.501C44.4398 201.077 44.2051 200.553 44.2051 199.929C44.2051 199.14 44.4967 198.536 45.0801 198.117C45.668 197.693 46.5065 197.481 47.5957 197.481H48.6143V196.996C48.6143 196.613 48.5072 196.308 48.293 196.08C48.0788 195.848 47.7529 195.731 47.3154 195.731C46.9372 195.731 46.6273 195.827 46.3857 196.019C46.1442 196.205 46.0234 196.445 46.0234 196.736H44.3623C44.3623 196.331 44.4967 195.952 44.7656 195.602C45.0345 195.246 45.3991 194.968 45.8594 194.768C46.3242 194.567 46.8415 194.467 47.4111 194.467C48.277 194.467 48.9674 194.686 49.4824 195.123C49.9974 195.556 50.2617 196.167 50.2754 196.955V200.291C50.2754 200.956 50.3688 201.487 50.5557 201.884V202H48.8604ZM47.0352 200.804C47.3633 200.804 47.6709 200.724 47.958 200.564C48.2497 200.405 48.4684 200.191 48.6143 199.922V198.527H47.7188C47.1035 198.527 46.641 198.634 46.3311 198.849C46.0212 199.063 45.8662 199.366 45.8662 199.758C45.8662 200.077 45.971 200.332 46.1807 200.523C46.3949 200.71 46.6797 200.804 47.0352 200.804ZM53.5566 194.604L53.6045 195.458C54.1514 194.797 54.8691 194.467 55.7578 194.467C57.2982 194.467 58.082 195.349 58.1094 197.112V202H56.4482V197.208C56.4482 196.739 56.3457 196.392 56.1406 196.169C55.9401 195.941 55.6097 195.827 55.1494 195.827C54.4795 195.827 53.9805 196.13 53.6523 196.736V202H51.9912V194.604H53.5566ZM64.2275 202C64.1546 201.859 64.0908 201.629 64.0361 201.31C63.5075 201.861 62.8604 202.137 62.0947 202.137C61.3519 202.137 60.7458 201.925 60.2764 201.501C59.807 201.077 59.5723 200.553 59.5723 199.929C59.5723 199.14 59.8639 198.536 60.4473 198.117C61.0352 197.693 61.8737 197.481 62.9629 197.481H63.9814V196.996C63.9814 196.613 63.8743 196.308 63.6602 196.08C63.446 195.848 63.1201 195.731 62.6826 195.731C62.3044 195.731 61.9945 195.827 61.7529 196.019C61.5114 196.205 61.3906 196.445 61.3906 196.736H59.7295C59.7295 196.331 59.8639 195.952 60.1328 195.602C60.4017 195.246 60.7663 194.968 61.2266 194.768C61.6914 194.567 62.2087 194.467 62.7783 194.467C63.6442 194.467 64.3346 194.686 64.8496 195.123C65.3646 195.556 65.6289 196.167 65.6426 196.955V200.291C65.6426 200.956 65.736 201.487 65.9229 201.884V202H64.2275ZM62.4023 200.804C62.7305 200.804 63.0381 200.724 63.3252 200.564C63.6169 200.405 63.8356 200.191 63.9814 199.922V198.527H63.0859C62.4707 198.527 62.0081 198.634 61.6982 198.849C61.3883 199.063 61.2334 199.366 61.2334 199.758C61.2334 200.077 61.3382 200.332 61.5479 200.523C61.762 200.71 62.0469 200.804 62.4023 200.804ZM69.1494 202H67.4883V191.5H69.1494V202ZM76.2656 196.265H77.2773C77.7878 196.26 78.1911 196.128 78.4873 195.868C78.7881 195.608 78.9385 195.232 78.9385 194.74C78.9385 194.266 78.8132 193.899 78.5625 193.64C78.3164 193.375 77.9382 193.243 77.4277 193.243C76.9811 193.243 76.6143 193.373 76.3271 193.633C76.04 193.888 75.8965 194.223 75.8965 194.638H74.2354C74.2354 194.127 74.3698 193.662 74.6387 193.243C74.9121 192.824 75.2904 192.498 75.7734 192.266C76.2611 192.029 76.8057 191.91 77.4072 191.91C78.4007 191.91 79.18 192.161 79.7451 192.662C80.3148 193.159 80.5996 193.852 80.5996 194.74C80.5996 195.187 80.4561 195.608 80.1689 196.005C79.8864 196.397 79.5195 196.693 79.0684 196.894C79.6152 197.08 80.0299 197.374 80.3125 197.775C80.5996 198.176 80.7432 198.655 80.7432 199.211C80.7432 200.104 80.4355 200.815 79.8203 201.344C79.2096 201.872 78.4053 202.137 77.4072 202.137C76.4502 202.137 75.6663 201.882 75.0557 201.371C74.445 200.861 74.1396 200.182 74.1396 199.334H75.8008C75.8008 199.771 75.9466 200.127 76.2383 200.4C76.5345 200.674 76.931 200.811 77.4277 200.811C77.9427 200.811 78.3483 200.674 78.6445 200.4C78.9408 200.127 79.0889 199.73 79.0889 199.211C79.0889 198.687 78.9339 198.284 78.624 198.001C78.3141 197.718 77.8538 197.577 77.2432 197.577H76.2656V196.265Z" fill="#636262"/>
<g filter="url(#filter10_d)">
<path fill-rule="evenodd" clip-rule="evenodd" d="M49 245C57.2843 245 64 238.284 64 230C64 221.716 57.2843 215 49 215C40.7157 215 34 221.716 34 230C34 238.284 40.7157 245 49 245Z" fill="white"/>
</g>
<path d="M49.0003 224.519C46.1473 224.519 43.8262 226.84 43.8262 229.693C43.8262 230.86 44.209 231.964 44.9328 232.883C45.0757 233.065 45.2258 233.239 45.3847 233.423L45.3935 233.433C45.8797 233.997 46.3825 234.581 46.5702 235.268C46.6127 235.426 46.6187 235.727 46.6163 235.96V236.355C46.6163 236.717 46.9095 237.01 47.2712 237.01H50.7008C51.0625 237.01 51.3558 236.717 51.3558 236.355V235.955C51.3536 235.652 51.3693 235.43 51.401 235.315C51.5898 234.632 52.147 233.977 52.643 233.394L52.6644 233.368C52.8076 233.2 52.9428 233.041 53.066 232.885C53.7908 231.965 54.1739 230.862 54.1739 229.693C54.1738 226.84 51.853 224.519 49.0003 224.519ZM52.0366 232.075C51.9288 232.212 51.8016 232.361 51.667 232.519L51.6406 232.55C51.0611 233.232 50.4044 234.004 50.1383 234.967C50.1006 235.103 50.0588 235.307 50.0481 235.7H47.925C47.9159 235.283 47.8734 235.069 47.8345 234.925C47.5681 233.95 46.9126 233.189 46.3857 232.578L46.3769 232.568C46.228 232.395 46.0874 232.232 45.9624 232.073C45.4219 231.387 45.1361 230.563 45.1361 229.693C45.1361 227.562 46.8696 225.829 49.0003 225.829C51.1307 225.829 52.8639 227.562 52.8639 229.693C52.8639 230.564 52.578 231.388 52.0366 232.075Z" fill="#C4C4C4"/>
<path d="M50.7007 237.665H47.2712C46.9095 237.665 46.6162 237.958 46.6162 238.32C46.6162 238.681 46.9095 238.975 47.2712 238.975H50.7008C51.0625 238.975 51.3558 238.681 51.3558 238.32C51.3558 237.958 51.0624 237.665 50.7007 237.665Z" fill="#C4C4C4"/>
<path d="M58.0375 229.038H55.778C55.4163 229.038 55.123 229.331 55.123 229.693C55.123 230.055 55.4163 230.348 55.778 230.348H58.0375C58.3992 230.348 58.6925 230.055 58.6925 229.693C58.6925 229.331 58.3992 229.038 58.0375 229.038Z" fill="#C4C4C4"/>
<path d="M42.8768 229.693C42.8768 229.331 42.5836 229.038 42.2218 229.038H39.9621C39.6004 229.038 39.3071 229.331 39.3071 229.693C39.3071 230.055 39.6004 230.348 39.9621 230.348H42.2218C42.5836 230.348 42.8768 230.055 42.8768 229.693Z" fill="#C4C4C4"/>
<path d="M49.0002 223.57C49.3619 223.57 49.6552 223.277 49.6552 222.915V220.655C49.6552 220.293 49.3619 220 49.0002 220C48.6385 220 48.3452 220.293 48.3452 220.655V222.915C48.3452 223.277 48.6385 223.57 49.0002 223.57Z" fill="#C4C4C4"/>
<path d="M43.7435 225.363C43.8714 225.491 44.039 225.555 44.2067 225.555C44.3743 225.555 44.5419 225.491 44.6697 225.363C44.9256 225.107 44.9256 224.692 44.6699 224.437L43.0727 222.839C42.8169 222.583 42.4023 222.583 42.1465 222.839C41.8906 223.095 41.8906 223.509 42.1463 223.765L43.7435 225.363Z" fill="#C4C4C4"/>
<path d="M53.7931 225.555C53.9607 225.555 54.1283 225.491 54.2563 225.363L55.8537 223.765C56.1095 223.509 56.1094 223.095 55.8536 222.839C55.5978 222.583 55.1831 222.583 54.9274 222.839L53.33 224.437C53.0742 224.692 53.0743 225.107 53.3301 225.363C53.4578 225.491 53.6254 225.555 53.7931 225.555Z" fill="#C4C4C4"/>
<g filter="url(#filter11_d)">
<path fill-rule="evenodd" clip-rule="evenodd" d="M86 245C94.2843 245 101 238.284 101 230C101 221.716 94.2843 215 86 215C77.7157 215 71 221.716 71 230C71 238.284 77.7157 245 86 245Z" fill="white"/>
</g>
<path d="M82.9371 225.373C82.7662 225.373 82.6023 225.442 82.4814 225.565C82.3606 225.687 82.2927 225.853 82.2926 226.026V232.503L75.8927 232.522C75.8081 232.522 75.7243 232.539 75.6462 232.572C75.5681 232.605 75.4971 232.654 75.4375 232.714C75.3778 232.775 75.3305 232.847 75.2983 232.927C75.2662 233.006 75.2497 233.091 75.25 233.177C75.2503 233.262 75.2672 233.347 75.2998 233.426C75.3325 233.505 75.3802 233.577 75.4402 233.638C75.5002 233.698 75.5715 233.746 75.6498 233.779C75.7281 233.811 75.812 233.828 75.8966 233.828L82.939 233.806C83.1096 233.806 83.2732 233.737 83.3937 233.614C83.5142 233.492 83.5819 233.326 83.582 233.153V226.679H89.3301V233.153C89.3302 233.239 89.3469 233.324 89.3793 233.403C89.4117 233.482 89.4592 233.554 89.5191 233.615C89.579 233.676 89.6501 233.724 89.7283 233.756C89.8066 233.789 89.8904 233.806 89.9751 233.806H97.0126C97.0984 233.808 97.1838 233.792 97.2637 233.761C97.3435 233.729 97.4163 233.681 97.4777 233.62C97.5391 233.559 97.5879 233.487 97.6212 233.407C97.6545 233.326 97.6716 233.24 97.6716 233.153C97.6716 233.066 97.6545 232.98 97.6212 232.9C97.5879 232.82 97.5391 232.747 97.4777 232.687C97.4163 232.626 97.3435 232.578 97.2637 232.546C97.1838 232.514 97.0984 232.499 97.0126 232.501H90.6195V226.026C90.6195 225.853 90.5516 225.687 90.4307 225.565C90.3099 225.442 90.146 225.373 89.9751 225.373H82.9371Z" fill="#C4C4C4"/>
<g filter="url(#filter12_d)">
<path fill-rule="evenodd" clip-rule="evenodd" d="M123 245C131.284 245 138 238.284 138 230C138 221.716 131.284 215 123 215C114.716 215 108 221.716 108 230C108 238.284 114.716 245 123 245Z" fill="white"/>
</g>
<path d="M119.937 225.373C119.791 225.373 119.65 225.423 119.536 225.515C119.422 225.607 119.342 225.735 119.309 225.878L117.791 232.503L112.892 232.522C112.807 232.522 112.723 232.539 112.645 232.572C112.567 232.606 112.496 232.654 112.436 232.715C112.377 232.776 112.33 232.848 112.298 232.927C112.265 233.007 112.249 233.092 112.25 233.177C112.25 233.263 112.267 233.348 112.3 233.427C112.332 233.506 112.38 233.578 112.44 233.638C112.5 233.699 112.572 233.746 112.65 233.779C112.728 233.811 112.812 233.828 112.897 233.828L118.306 233.806C118.451 233.805 118.591 233.755 118.705 233.663C118.818 233.572 118.898 233.444 118.931 233.301L120.449 226.679H126.466L128.019 233.304C128.052 233.447 128.133 233.574 128.246 233.665C128.36 233.756 128.501 233.806 128.646 233.806H134.012C134.098 233.808 134.184 233.792 134.263 233.761C134.343 233.729 134.416 233.681 134.478 233.62C134.539 233.559 134.588 233.487 134.621 233.407C134.654 233.326 134.671 233.24 134.671 233.153C134.671 233.066 134.654 232.98 134.621 232.9C134.588 232.82 134.539 232.747 134.478 232.687C134.416 232.626 134.343 232.578 134.263 232.546C134.184 232.514 134.098 232.499 134.012 232.501H129.155L127.602 225.875C127.568 225.732 127.488 225.605 127.374 225.514C127.261 225.423 127.12 225.373 126.975 225.373H119.937Z" fill="#1E88E5"/>
<g filter="url(#filter13_d)">
<path fill-rule="evenodd" clip-rule="evenodd" d="M160 245C168.284 245 175 238.284 175 230C175 221.716 168.284 215 160 215C151.716 215 145 221.716 145 230C145 238.284 151.716 245 160 245Z" fill="white"/>
</g>
<path d="M156.937 225.373C156.826 225.373 156.717 225.402 156.621 225.457C156.524 225.512 156.443 225.591 156.386 225.687L152.288 232.527L149.895 232.522C149.811 232.522 149.727 232.538 149.649 232.571C149.57 232.604 149.499 232.652 149.439 232.712C149.379 232.773 149.332 232.844 149.299 232.924C149.267 233.003 149.25 233.088 149.25 233.173C149.249 233.259 149.266 233.344 149.298 233.423C149.33 233.503 149.378 233.575 149.438 233.635C149.497 233.696 149.568 233.744 149.646 233.777C149.725 233.81 149.808 233.827 149.893 233.828L152.649 233.832C152.76 233.833 152.87 233.804 152.966 233.749C153.063 233.694 153.144 233.615 153.202 233.519L157.3 226.679H163.61L167.64 233.489C167.697 233.585 167.778 233.666 167.875 233.721C167.972 233.777 168.082 233.806 168.193 233.806H171.012C171.098 233.808 171.184 233.792 171.263 233.761C171.343 233.729 171.416 233.681 171.478 233.62C171.539 233.559 171.588 233.487 171.621 233.407C171.654 233.326 171.671 233.24 171.671 233.153C171.671 233.066 171.654 232.98 171.621 232.9C171.588 232.82 171.539 232.747 171.478 232.687C171.416 232.626 171.343 232.578 171.263 232.546C171.184 232.514 171.098 232.499 171.012 232.501H168.558L164.527 225.69C164.47 225.593 164.389 225.514 164.292 225.458C164.195 225.403 164.086 225.373 163.975 225.373H156.937Z" fill="#C4C4C4"/>
<rect x="10" y="220" width="189" height="57" fill="url(#paint0_linear)"/>
</g>
<defs>
<filter id="filter0_d" x="0" y="0" width="209" height="99" filterUnits="userSpaceOnUse" color-interpolation-filters="sRGB">
<feFlood flood-opacity="0" result="BackgroundImageFix"/>
<feColorMatrix in="SourceAlpha" type="matrix" values="0 0 0 0 0 0 0 0 0 0 0 0 0 0 0 0 0 0 127 0"/>
<feOffset dy="4"/>
<feGaussianBlur stdDeviation="5"/>
<feColorMatrix type="matrix" values="0 0 0 0 0 0 0 0 0 0 0 0 0 0 0 0 0 0 0.1 0"/>
<feBlend mode="normal" in2="BackgroundImageFix" result="effect1_dropShadow"/>
<feBlend mode="normal" in="SourceGraphic" in2="effect1_dropShadow" result="shape"/>
</filter>
<filter id="filter1_d" x="29" y="38" width="40" height="40" filterUnits="userSpaceOnUse" color-interpolation-filters="sRGB">
<feFlood flood-opacity="0" result="BackgroundImageFix"/>
<feColorMatrix in="SourceAlpha" type="matrix" values="0 0 0 0 0 0 0 0 0 0 0 0 0 0 0 0 0 0 127 0"/>
<feOffset dy="4"/>
<feGaussianBlur stdDeviation="2.5"/>
<feColorMatrix type="matrix" values="0 0 0 0 0 0 0 0 0 0 0 0 0 0 0 0 0 0 0.15 0"/>
<feBlend mode="normal" in2="BackgroundImageFix" result="effect1_dropShadow"/>
<feBlend mode="normal" in="SourceGraphic" in2="effect1_dropShadow" result="shape"/>
</filter>
<filter id="filter2_d" x="61" y="33" width="50" height="50" filterUnits="userSpaceOnUse" color-interpolation-filters="sRGB">
<feFlood flood-opacity="0" result="BackgroundImageFix"/>
<feColorMatrix in="SourceAlpha" type="matrix" values="0 0 0 0 0 0 0 0 0 0 0 0 0 0 0 0 0 0 127 0"/>
<feOffset dy="4"/>
<feGaussianBlur stdDeviation="5"/>
<feColorMatrix type="matrix" values="0 0 0 0 0 0 0 0 0 0 0 0 0 0 0 0 0 0 0.15 0"/>
<feBlend mode="normal" in2="BackgroundImageFix" result="effect1_dropShadow"/>
<feBlend mode="normal" in="SourceGraphic" in2="effect1_dropShadow" result="shape"/>
</filter>
<filter id="filter3_d" x="98" y="33" width="50" height="50" filterUnits="userSpaceOnUse" color-interpolation-filters="sRGB">
<feFlood flood-opacity="0" result="BackgroundImageFix"/>
<feColorMatrix in="SourceAlpha" type="matrix" values="0 0 0 0 0 0 0 0 0 0 0 0 0 0 0 0 0 0 127 0"/>
<feOffset dy="4"/>
<feGaussianBlur stdDeviation="5"/>
<feColorMatrix type="matrix" values="0 0 0 0 0 0 0 0 0 0 0 0 0 0 0 0 0 0 0.15 0"/>
<feBlend mode="normal" in2="BackgroundImageFix" result="effect1_dropShadow"/>
<feBlend mode="normal" in="SourceGraphic" in2="effect1_dropShadow" result="shape"/>
</filter>
<filter id="filter4_d" x="135" y="33" width="50" height="50" filterUnits="userSpaceOnUse" color-interpolation-filters="sRGB">
<feFlood flood-opacity="0" result="BackgroundImageFix"/>
<feColorMatrix in="SourceAlpha" type="matrix" values="0 0 0 0 0 0 0 0 0 0 0 0 0 0 0 0 0 0 127 0"/>
<feOffset dy="4"/>
<feGaussianBlur stdDeviation="5"/>
<feColorMatrix type="matrix" values="0 0 0 0 0 0 0 0 0 0 0 0 0 0 0 0 0 0 0.15 0"/>
<feBlend mode="normal" in2="BackgroundImageFix" result="effect1_dropShadow"/>
<feBlend mode="normal" in="SourceGraphic" in2="effect1_dropShadow" result="shape"/>
</filter>
<filter id="filter5_d" x="0" y="88" width="209" height="99" filterUnits="userSpaceOnUse" color-interpolation-filters="sRGB">
<feFlood flood-opacity="0" result="BackgroundImageFix"/>
<feColorMatrix in="SourceAlpha" type="matrix" values="0 0 0 0 0 0 0 0 0 0 0 0 0 0 0 0 0 0 127 0"/>
<feOffset dy="4"/>
<feGaussianBlur stdDeviation="5"/>
<feColorMatrix type="matrix" values="0 0 0 0 0 0 0 0 0 0 0 0 0 0 0 0 0 0 0.1 0"/>
<feBlend mode="normal" in2="BackgroundImageFix" result="effect1_dropShadow"/>
<feBlend mode="normal" in="SourceGraphic" in2="effect1_dropShadow" result="shape"/>
</filter>
<filter id="filter6_d" x="43" y="121" width="50" height="50" filterUnits="userSpaceOnUse" color-interpolation-filters="sRGB">
<feFlood flood-opacity="0" result="BackgroundImageFix"/>
<feColorMatrix in="SourceAlpha" type="matrix" values="0 0 0 0 0 0 0 0 0 0 0 0 0 0 0 0 0 0 127 0"/>
<feOffset dy="4"/>
<feGaussianBlur stdDeviation="5"/>
<feColorMatrix type="matrix" values="0 0 0 0 0 0 0 0 0 0 0 0 0 0 0 0 0 0 0.15 0"/>
<feBlend mode="normal" in2="BackgroundImageFix" result="effect1_dropShadow"/>
<feBlend mode="normal" in="SourceGraphic" in2="effect1_dropShadow" result="shape"/>
</filter>
<filter id="filter7_d" x="80" y="121" width="50" height="50" filterUnits="userSpaceOnUse" color-interpolation-filters="sRGB">
<feFlood flood-opacity="0" result="BackgroundImageFix"/>
<feColorMatrix in="SourceAlpha" type="matrix" values="0 0 0 0 0 0 0 0 0 0 0 0 0 0 0 0 0 0 127 0"/>
<feOffset dy="4"/>
<feGaussianBlur stdDeviation="5"/>
<feColorMatrix type="matrix" values="0 0 0 0 0 0 0 0 0 0 0 0 0 0 0 0 0 0 0.15 0"/>
<feBlend mode="normal" in2="BackgroundImageFix" result="effect1_dropShadow"/>
<feBlend mode="normal" in="SourceGraphic" in2="effect1_dropShadow" result="shape"/>
</filter>
<filter id="filter8_d" x="117" y="121" width="50" height="50" filterUnits="userSpaceOnUse" color-interpolation-filters="sRGB">
<feFlood flood-opacity="0" result="BackgroundImageFix"/>
<feColorMatrix in="SourceAlpha" type="matrix" values="0 0 0 0 0 0 0 0 0 0 0 0 0 0 0 0 0 0 127 0"/>
<feOffset dy="4"/>
<feGaussianBlur stdDeviation="5"/>
<feColorMatrix type="matrix" values="0 0 0 0 0 0 0 0 0 0 0 0 0 0 0 0 0 0 0.15 0"/>
<feBlend mode="normal" in2="BackgroundImageFix" result="effect1_dropShadow"/>
<feBlend mode="normal" in="SourceGraphic" in2="effect1_dropShadow" result="shape"/>
</filter>
<filter id="filter9_d" x="0" y="176" width="209" height="99" filterUnits="userSpaceOnUse" color-interpolation-filters="sRGB">
<feFlood flood-opacity="0" result="BackgroundImageFix"/>
<feColorMatrix in="SourceAlpha" type="matrix" values="0 0 0 0 0 0 0 0 0 0 0 0 0 0 0 0 0 0 127 0"/>
<feOffset dy="4"/>
<feGaussianBlur stdDeviation="5"/>
<feColorMatrix type="matrix" values="0 0 0 0 0 0 0 0 0 0 0 0 0 0 0 0 0 0 0.1 0"/>
<feBlend mode="normal" in2="BackgroundImageFix" result="effect1_dropShadow"/>
<feBlend mode="normal" in="SourceGraphic" in2="effect1_dropShadow" result="shape"/>
</filter>
<filter id="filter10_d" x="24" y="209" width="50" height="50" filterUnits="userSpaceOnUse" color-interpolation-filters="sRGB">
<feFlood flood-opacity="0" result="BackgroundImageFix"/>
<feColorMatrix in="SourceAlpha" type="matrix" values="0 0 0 0 0 0 0 0 0 0 0 0 0 0 0 0 0 0 127 0"/>
<feOffset dy="4"/>
<feGaussianBlur stdDeviation="5"/>
<feColorMatrix type="matrix" values="0 0 0 0 0 0 0 0 0 0 0 0 0 0 0 0 0 0 0.15 0"/>
<feBlend mode="normal" in2="BackgroundImageFix" result="effect1_dropShadow"/>
<feBlend mode="normal" in="SourceGraphic" in2="effect1_dropShadow" result="shape"/>
</filter>
<filter id="filter11_d" x="61" y="209" width="50" height="50" filterUnits="userSpaceOnUse" color-interpolation-filters="sRGB">
<feFlood flood-opacity="0" result="BackgroundImageFix"/>
<feColorMatrix in="SourceAlpha" type="matrix" values="0 0 0 0 0 0 0 0 0 0 0 0 0 0 0 0 0 0 127 0"/>
<feOffset dy="4"/>
<feGaussianBlur stdDeviation="5"/>
<feColorMatrix type="matrix" values="0 0 0 0 0 0 0 0 0 0 0 0 0 0 0 0 0 0 0.15 0"/>
<feBlend mode="normal" in2="BackgroundImageFix" result="effect1_dropShadow"/>
<feBlend mode="normal" in="SourceGraphic" in2="effect1_dropShadow" result="shape"/>
</filter>
<filter id="filter12_d" x="98" y="209" width="50" height="50" filterUnits="userSpaceOnUse" color-interpolation-filters="sRGB">
<feFlood flood-opacity="0" result="BackgroundImageFix"/>
<feColorMatrix in="SourceAlpha" type="matrix" values="0 0 0 0 0 0 0 0 0 0 0 0 0 0 0 0 0 0 127 0"/>
<feOffset dy="4"/>
<feGaussianBlur stdDeviation="5"/>
<feColorMatrix type="matrix" values="0 0 0 0 0 0 0 0 0 0 0 0 0 0 0 0 0 0 0.15 0"/>
<feBlend mode="normal" in2="BackgroundImageFix" result="effect1_dropShadow"/>
<feBlend mode="normal" in="SourceGraphic" in2="effect1_dropShadow" result="shape"/>
</filter>
<filter id="filter13_d" x="135" y="209" width="50" height="50" filterUnits="userSpaceOnUse" color-interpolation-filters="sRGB">
<feFlood flood-opacity="0" result="BackgroundImageFix"/>
<feColorMatrix in="SourceAlpha" type="matrix" values="0 0 0 0 0 0 0 0 0 0 0 0 0 0 0 0 0 0 127 0"/>
<feOffset dy="4"/>
<feGaussianBlur stdDeviation="5"/>
<feColorMatrix type="matrix" values="0 0 0 0 0 0 0 0 0 0 0 0 0 0 0 0 0 0 0.15 0"/>
<feBlend mode="normal" in2="BackgroundImageFix" result="effect1_dropShadow"/>
<feBlend mode="normal" in="SourceGraphic" in2="effect1_dropShadow" result="shape"/>
</filter>
<linearGradient id="paint0_linear" x1="104.5" y1="220" x2="104.5" y2="277" gradientUnits="userSpaceOnUse">
<stop stop-color="white" stop-opacity="0"/>
<stop offset="0.369792" stop-color="white"/>
</linearGradient>
<clipPath id="clip0">
<rect width="209" height="275" fill="white"/>
</clipPath>
</defs>
</svg>
