<svg width="322" height="377" viewBox="0 0 322 377" fill="none" xmlns="http://www.w3.org/2000/svg">
<rect width="322" height="377" rx="10" fill="white"/>
<path d="M30.403 27.647C30.403 28.865 29.983 29.88 29.143 30.692C28.317 31.49 27.05 31.889 25.342 31.889H22.528V38H20.617V23.363H25.342C26.994 23.363 28.247 23.762 29.101 24.56C29.969 25.358 30.403 26.387 30.403 27.647ZM25.342 30.314C26.406 30.314 27.19 30.083 27.694 29.621C28.198 29.159 28.45 28.501 28.45 27.647C28.45 25.841 27.414 24.938 25.342 24.938H22.528V30.314H25.342ZM32.9151 32.204C32.9151 31.028 33.1531 29.999 33.6291 29.117C34.1051 28.221 34.7561 27.528 35.5821 27.038C36.4221 26.548 37.3531 26.303 38.3751 26.303C39.3831 26.303 40.2581 26.52 41.0001 26.954C41.7421 27.388 42.2951 27.934 42.6591 28.592V26.492H44.5911V38H42.6591V35.858C42.2811 36.53 41.7141 37.09 40.9581 37.538C40.2161 37.972 39.3481 38.189 38.3541 38.189C37.3321 38.189 36.4081 37.937 35.5821 37.433C34.7561 36.929 34.1051 36.222 33.6291 35.312C33.1531 34.402 32.9151 33.366 32.9151 32.204ZM42.6591 32.225C42.6591 31.357 42.4841 30.601 42.1341 29.957C41.7841 29.313 41.3081 28.823 40.7061 28.487C40.1181 28.137 39.4671 27.962 38.7531 27.962C38.0391 27.962 37.3881 28.13 36.8001 28.466C36.2121 28.802 35.7431 29.292 35.3931 29.936C35.0431 30.58 34.8681 31.336 34.8681 32.204C34.8681 33.086 35.0431 33.856 35.3931 34.514C35.7431 35.158 36.2121 35.655 36.8001 36.005C37.3881 36.341 38.0391 36.509 38.7531 36.509C39.4671 36.509 40.1181 36.341 40.7061 36.005C41.3081 35.655 41.7841 35.158 42.1341 34.514C42.4841 33.856 42.6591 33.093 42.6591 32.225ZM52.7455 38.189C51.8635 38.189 51.0725 38.042 50.3725 37.748C49.6725 37.44 49.1195 37.02 48.7135 36.488C48.3075 35.942 48.0835 35.319 48.0415 34.619H50.0155C50.0715 35.193 50.3375 35.662 50.8135 36.026C51.3035 36.39 51.9405 36.572 52.7245 36.572C53.4525 36.572 54.0265 36.411 54.4465 36.089C54.8665 35.767 55.0765 35.361 55.0765 34.871C55.0765 34.367 54.8525 33.996 54.4045 33.758C53.9565 33.506 53.2635 33.261 52.3255 33.023C51.4715 32.799 50.7715 32.575 50.2255 32.351C49.6935 32.113 49.2315 31.77 48.8395 31.322C48.4615 30.86 48.2725 30.258 48.2725 29.516C48.2725 28.928 48.4475 28.389 48.7975 27.899C49.1475 27.409 49.6445 27.024 50.2885 26.744C50.9325 26.45 51.6675 26.303 52.4935 26.303C53.7675 26.303 54.7965 26.625 55.5805 27.269C56.3645 27.913 56.7845 28.795 56.8405 29.915H54.9295C54.8875 29.313 54.6425 28.83 54.1945 28.466C53.7605 28.102 53.1725 27.92 52.4305 27.92C51.7445 27.92 51.1985 28.067 50.7925 28.361C50.3865 28.655 50.1835 29.04 50.1835 29.516C50.1835 29.894 50.3025 30.209 50.5405 30.461C50.7925 30.699 51.1005 30.895 51.4645 31.049C51.8425 31.189 52.3605 31.35 53.0185 31.532C53.8445 31.756 54.5165 31.98 55.0345 32.204C55.5525 32.414 55.9935 32.736 56.3575 33.17C56.7355 33.604 56.9315 34.171 56.9455 34.871C56.9455 35.501 56.7705 36.068 56.4205 36.572C56.0705 37.076 55.5735 37.475 54.9295 37.769C54.2995 38.049 53.5715 38.189 52.7455 38.189ZM65.5131 38.189C64.4351 38.189 63.4551 37.944 62.5731 37.454C61.7051 36.964 61.0191 36.271 60.5151 35.375C60.0251 34.465 59.7801 33.415 59.7801 32.225C59.7801 31.049 60.0321 30.013 60.5361 29.117C61.0541 28.207 61.7541 27.514 62.6361 27.038C63.5181 26.548 64.5051 26.303 65.5971 26.303C66.6891 26.303 67.6761 26.548 68.5581 27.038C69.4401 27.514 70.1331 28.2 70.6371 29.096C71.1551 29.992 71.4141 31.035 71.4141 32.225C71.4141 33.415 71.1481 34.465 70.6161 35.375C70.0981 36.271 69.3911 36.964 68.4951 37.454C67.5991 37.944 66.6051 38.189 65.5131 38.189ZM65.5131 36.509C66.1991 36.509 66.8431 36.348 67.4451 36.026C68.0471 35.704 68.5301 35.221 68.8941 34.577C69.2721 33.933 69.4611 33.149 69.4611 32.225C69.4611 31.301 69.2791 30.517 68.9151 29.873C68.5511 29.229 68.0751 28.753 67.4871 28.445C66.8991 28.123 66.2621 27.962 65.5761 27.962C64.8761 27.962 64.2321 28.123 63.6441 28.445C63.0701 28.753 62.6081 29.229 62.2581 29.873C61.9081 30.517 61.7331 31.301 61.7331 32.225C61.7331 33.163 61.9011 33.954 62.2371 34.598C62.5871 35.242 63.0491 35.725 63.6231 36.047C64.1971 36.355 64.8271 36.509 65.5131 36.509ZM78.8517 38.189C77.9697 38.189 77.1787 38.042 76.4787 37.748C75.7787 37.44 75.2257 37.02 74.8197 36.488C74.4137 35.942 74.1897 35.319 74.1477 34.619H76.1217C76.1777 35.193 76.4437 35.662 76.9197 36.026C77.4097 36.39 78.0467 36.572 78.8307 36.572C79.5587 36.572 80.1327 36.411 80.5527 36.089C80.9727 35.767 81.1827 35.361 81.1827 34.871C81.1827 34.367 80.9587 33.996 80.5107 33.758C80.0627 33.506 79.3697 33.261 78.4317 33.023C77.5777 32.799 76.8777 32.575 76.3317 32.351C75.7997 32.113 75.3377 31.77 74.9457 31.322C74.5677 30.86 74.3787 30.258 74.3787 29.516C74.3787 28.928 74.5537 28.389 74.9037 27.899C75.2537 27.409 75.7507 27.024 76.3947 26.744C77.0387 26.45 77.7737 26.303 78.5997 26.303C79.8737 26.303 80.9027 26.625 81.6867 27.269C82.4707 27.913 82.8907 28.795 82.9467 29.915H81.0357C80.9937 29.313 80.7487 28.83 80.3007 28.466C79.8667 28.102 79.2787 27.92 78.5367 27.92C77.8507 27.92 77.3047 28.067 76.8987 28.361C76.4927 28.655 76.2897 29.04 76.2897 29.516C76.2897 29.894 76.4087 30.209 76.6467 30.461C76.8987 30.699 77.2067 30.895 77.5707 31.049C77.9487 31.189 78.4667 31.35 79.1247 31.532C79.9507 31.756 80.6227 31.98 81.1407 32.204C81.6587 32.414 82.0997 32.736 82.4637 33.17C82.8417 33.604 83.0377 34.171 83.0517 34.871C83.0517 35.501 82.8767 36.068 82.5267 36.572C82.1767 37.076 81.6797 37.475 81.0357 37.769C80.4057 38.049 79.6777 38.189 78.8517 38.189ZM102.836 27.647C102.836 28.865 102.416 29.88 101.576 30.692C100.75 31.49 99.4829 31.889 97.7749 31.889H94.9609V38H93.0499V23.363H97.7749C99.4269 23.363 100.68 23.762 101.534 24.56C102.402 25.358 102.836 26.387 102.836 27.647ZM97.7749 30.314C98.8389 30.314 99.6229 30.083 100.127 29.621C100.631 29.159 100.883 28.501 100.883 27.647C100.883 25.841 99.8469 24.938 97.7749 24.938H94.9609V30.314H97.7749ZM107.973 28.361C108.309 27.703 108.785 27.192 109.401 26.828C110.031 26.464 110.794 26.282 111.69 26.282V28.256H111.186C109.044 28.256 107.973 29.418 107.973 31.742V38H106.062V26.492H107.973V28.361ZM119.766 38.189C118.688 38.189 117.708 37.944 116.826 37.454C115.958 36.964 115.272 36.271 114.768 35.375C114.278 34.465 114.033 33.415 114.033 32.225C114.033 31.049 114.285 30.013 114.789 29.117C115.307 28.207 116.007 27.514 116.889 27.038C117.771 26.548 118.758 26.303 119.85 26.303C120.942 26.303 121.929 26.548 122.811 27.038C123.693 27.514 124.386 28.2 124.89 29.096C125.408 29.992 125.667 31.035 125.667 32.225C125.667 33.415 125.401 34.465 124.869 35.375C124.351 36.271 123.644 36.964 122.748 37.454C121.852 37.944 120.858 38.189 119.766 38.189ZM119.766 36.509C120.452 36.509 121.096 36.348 121.698 36.026C122.3 35.704 122.783 35.221 123.147 34.577C123.525 33.933 123.714 33.149 123.714 32.225C123.714 31.301 123.532 30.517 123.168 29.873C122.804 29.229 122.328 28.753 121.74 28.445C121.152 28.123 120.515 27.962 119.829 27.962C119.129 27.962 118.485 28.123 117.897 28.445C117.323 28.753 116.861 29.229 116.511 29.873C116.161 30.517 115.986 31.301 115.986 32.225C115.986 33.163 116.154 33.954 116.49 34.598C116.84 35.242 117.302 35.725 117.876 36.047C118.45 36.355 119.08 36.509 119.766 36.509ZM142.87 26.282C143.766 26.282 144.564 26.471 145.264 26.849C145.964 27.213 146.517 27.766 146.923 28.508C147.329 29.25 147.532 30.153 147.532 31.217V38H145.642V31.49C145.642 30.342 145.355 29.467 144.781 28.865C144.221 28.249 143.458 27.941 142.492 27.941C141.498 27.941 140.707 28.263 140.119 28.907C139.531 29.537 139.237 30.454 139.237 31.658V38H137.347V31.49C137.347 30.342 137.06 29.467 136.486 28.865C135.926 28.249 135.163 27.941 134.197 27.941C133.203 27.941 132.412 28.263 131.824 28.907C131.236 29.537 130.942 30.454 130.942 31.658V38H129.031V26.492H130.942V28.151C131.32 27.549 131.824 27.087 132.454 26.765C133.098 26.443 133.805 26.282 134.575 26.282C135.541 26.282 136.395 26.499 137.137 26.933C137.879 27.367 138.432 28.004 138.796 28.844C139.118 28.032 139.65 27.402 140.392 26.954C141.134 26.506 141.96 26.282 142.87 26.282ZM162.017 31.805C162.017 32.169 161.996 32.554 161.954 32.96H152.756C152.826 34.094 153.211 34.983 153.911 35.627C154.625 36.257 155.486 36.572 156.494 36.572C157.32 36.572 158.006 36.383 158.552 36.005C159.112 35.613 159.504 35.095 159.728 34.451H161.786C161.478 35.557 160.862 36.46 159.938 37.16C159.014 37.846 157.866 38.189 156.494 38.189C155.402 38.189 154.422 37.944 153.554 37.454C152.7 36.964 152.028 36.271 151.538 35.375C151.048 34.465 150.803 33.415 150.803 32.225C150.803 31.035 151.041 29.992 151.517 29.096C151.993 28.2 152.658 27.514 153.512 27.038C154.38 26.548 155.374 26.303 156.494 26.303C157.586 26.303 158.552 26.541 159.392 27.017C160.232 27.493 160.876 28.151 161.324 28.991C161.786 29.817 162.017 30.755 162.017 31.805ZM160.043 31.406C160.043 30.678 159.882 30.055 159.56 29.537C159.238 29.005 158.797 28.606 158.237 28.34C157.691 28.06 157.082 27.92 156.41 27.92C155.444 27.92 154.618 28.228 153.932 28.844C153.26 29.46 152.875 30.314 152.777 31.406H160.043ZM164.677 32.204C164.677 31.028 164.915 29.999 165.391 29.117C165.867 28.221 166.518 27.528 167.344 27.038C168.184 26.548 169.122 26.303 170.158 26.303C171.054 26.303 171.887 26.513 172.657 26.933C173.427 27.339 174.015 27.878 174.421 28.55V22.46H176.353V38H174.421V35.837C174.043 36.523 173.483 37.09 172.741 37.538C171.999 37.972 171.131 38.189 170.137 38.189C169.115 38.189 168.184 37.937 167.344 37.433C166.518 36.929 165.867 36.222 165.391 35.312C164.915 34.402 164.677 33.366 164.677 32.204ZM174.421 32.225C174.421 31.357 174.246 30.601 173.896 29.957C173.546 29.313 173.07 28.823 172.468 28.487C171.88 28.137 171.229 27.962 170.515 27.962C169.801 27.962 169.15 28.13 168.562 28.466C167.974 28.802 167.505 29.292 167.155 29.936C166.805 30.58 166.63 31.336 166.63 32.204C166.63 33.086 166.805 33.856 167.155 34.514C167.505 35.158 167.974 35.655 168.562 36.005C169.15 36.341 169.801 36.509 170.515 36.509C171.229 36.509 171.88 36.341 172.468 36.005C173.07 35.655 173.546 35.158 173.896 34.514C174.246 33.856 174.421 33.093 174.421 32.225ZM181.42 24.623C181.056 24.623 180.748 24.497 180.496 24.245C180.244 23.993 180.118 23.685 180.118 23.321C180.118 22.957 180.244 22.649 180.496 22.397C180.748 22.145 181.056 22.019 181.42 22.019C181.77 22.019 182.064 22.145 182.302 22.397C182.554 22.649 182.68 22.957 182.68 23.321C182.68 23.685 182.554 23.993 182.302 24.245C182.064 24.497 181.77 24.623 181.42 24.623ZM182.344 26.492V38H180.433V26.492H182.344ZM191.471 38.189C190.393 38.189 189.413 37.944 188.531 37.454C187.663 36.964 186.977 36.271 186.473 35.375C185.983 34.465 185.738 33.415 185.738 32.225C185.738 31.049 185.99 30.013 186.494 29.117C187.012 28.207 187.712 27.514 188.594 27.038C189.476 26.548 190.463 26.303 191.555 26.303C192.647 26.303 193.634 26.548 194.516 27.038C195.398 27.514 196.091 28.2 196.595 29.096C197.113 29.992 197.372 31.035 197.372 32.225C197.372 33.415 197.106 34.465 196.574 35.375C196.056 36.271 195.349 36.964 194.453 37.454C193.557 37.944 192.563 38.189 191.471 38.189ZM191.471 36.509C192.157 36.509 192.801 36.348 193.403 36.026C194.005 35.704 194.488 35.221 194.852 34.577C195.23 33.933 195.419 33.149 195.419 32.225C195.419 31.301 195.237 30.517 194.873 29.873C194.509 29.229 194.033 28.753 193.445 28.445C192.857 28.123 192.22 27.962 191.534 27.962C190.834 27.962 190.19 28.123 189.602 28.445C189.028 28.753 188.566 29.229 188.216 29.873C187.866 30.517 187.691 31.301 187.691 32.225C187.691 33.163 187.859 33.954 188.195 34.598C188.545 35.242 189.007 35.725 189.581 36.047C190.155 36.355 190.785 36.509 191.471 36.509Z" fill="#8598AD"/>
<path d="M20.532 88.958V84.974H29.556V119.678H25.14V88.958H20.532ZM37.91 101.966C37.91 96.462 38.806 92.174 40.598 89.102C42.39 85.998 45.526 84.446 50.006 84.446C54.454 84.446 57.574 85.998 59.366 89.102C61.158 92.174 62.054 96.462 62.054 101.966C62.054 107.566 61.158 111.918 59.366 115.022C57.574 118.126 54.454 119.678 50.006 119.678C45.526 119.678 42.39 118.126 40.598 115.022C38.806 111.918 37.91 107.566 37.91 101.966ZM57.734 101.966C57.734 99.182 57.542 96.83 57.158 94.91C56.806 92.958 56.054 91.39 54.902 90.206C53.782 89.022 52.15 88.43 50.006 88.43C47.83 88.43 46.166 89.022 45.014 90.206C43.894 91.39 43.142 92.958 42.758 94.91C42.406 96.83 42.23 99.182 42.23 101.966C42.23 104.846 42.406 107.262 42.758 109.214C43.142 111.166 43.894 112.734 45.014 113.918C46.166 115.102 47.83 115.694 50.006 115.694C52.15 115.694 53.782 115.102 54.902 113.918C56.054 112.734 56.806 111.166 57.158 109.214C57.542 107.262 57.734 104.846 57.734 101.966ZM67.8456 111.95V108.638L84.6936 85.31H89.9256V108.158H94.7256V111.95H89.9256V119.678H85.6056V111.95H67.8456ZM85.7976 89.87L72.8856 108.158H85.7976V89.87Z" fill="#3F567A"/>
<path d="M27.816 56.0009V57.3329H24.396V68.5469H22.758V57.3329H19.32V56.0009H27.816ZM34.9853 68.7089C34.0613 68.7089 33.2213 68.4989 32.4653 68.0789C31.7213 67.6589 31.1333 67.0649 30.7013 66.2969C30.2813 65.5169 30.0713 64.6169 30.0713 63.5969C30.0713 62.5889 30.2873 61.7009 30.7193 60.9329C31.1633 60.1529 31.7633 59.5589 32.5193 59.1509C33.2753 58.7309 34.1213 58.5209 35.0573 58.5209C35.9933 58.5209 36.8393 58.7309 37.5953 59.1509C38.3513 59.5589 38.9453 60.1469 39.3773 60.9149C39.8213 61.6829 40.0433 62.5769 40.0433 63.5969C40.0433 64.6169 39.8153 65.5169 39.3593 66.2969C38.9153 67.0649 38.3093 67.6589 37.5413 68.0789C36.7733 68.4989 35.9213 68.7089 34.9853 68.7089ZM34.9853 67.2689C35.5733 67.2689 36.1253 67.1309 36.6413 66.8549C37.1573 66.5789 37.5713 66.1649 37.8833 65.6129C38.2073 65.0609 38.3693 64.3889 38.3693 63.5969C38.3693 62.8049 38.2133 62.1329 37.9013 61.5809C37.5893 61.0289 37.1813 60.6209 36.6773 60.3569C36.1733 60.0809 35.6273 59.9429 35.0393 59.9429C34.4393 59.9429 33.8873 60.0809 33.3833 60.3569C32.8913 60.6209 32.4953 61.0289 32.1953 61.5809C31.8953 62.1329 31.7453 62.8049 31.7453 63.5969C31.7453 64.4009 31.8893 65.0789 32.1773 65.6309C32.4773 66.1829 32.8733 66.5969 33.3653 66.8729C33.8573 67.1369 34.3973 67.2689 34.9853 67.2689ZM45.0459 60.0329V65.8469C45.0459 66.3269 45.1479 66.6689 45.3519 66.8729C45.5559 67.0649 45.9099 67.1609 46.4139 67.1609H47.6199V68.5469H46.1439C45.2319 68.5469 44.5479 68.3369 44.0919 67.9169C43.6359 67.4969 43.4079 66.8069 43.4079 65.8469V60.0329H42.1299V58.6829H43.4079V56.1989H45.0459V58.6829H47.6199V60.0329H45.0459ZM49.8435 63.5789C49.8435 62.5709 50.0475 61.6889 50.4555 60.9329C50.8635 60.1649 51.4215 59.5709 52.1295 59.1509C52.8495 58.7309 53.6475 58.5209 54.5235 58.5209C55.3875 58.5209 56.1375 58.7069 56.7735 59.0789C57.4095 59.4509 57.8835 59.9189 58.1955 60.4829V58.6829H59.8515V68.5469H58.1955V66.7109C57.8715 67.2869 57.3855 67.7669 56.7375 68.1509C56.1015 68.5229 55.3575 68.7089 54.5055 68.7089C53.6295 68.7089 52.8375 68.4929 52.1295 68.0609C51.4215 67.6289 50.8635 67.0229 50.4555 66.2429C50.0475 65.4629 49.8435 64.5749 49.8435 63.5789ZM58.1955 63.5969C58.1955 62.8529 58.0455 62.2049 57.7455 61.6529C57.4455 61.1009 57.0375 60.6809 56.5215 60.3929C56.0175 60.0929 55.4595 59.9429 54.8475 59.9429C54.2355 59.9429 53.6775 60.0869 53.1735 60.3749C52.6695 60.6629 52.2675 61.0829 51.9675 61.6349C51.6675 62.1869 51.5175 62.8349 51.5175 63.5789C51.5175 64.3349 51.6675 64.9949 51.9675 65.5589C52.2675 66.1109 52.6695 66.5369 53.1735 66.8369C53.6775 67.1249 54.2355 67.2689 54.8475 67.2689C55.4595 67.2689 56.0175 67.1249 56.5215 66.8369C57.0375 66.5369 57.4455 66.1109 57.7455 65.5589C58.0455 64.9949 58.1955 64.3409 58.1955 63.5969ZM65.1085 55.2269V68.5469H63.4705V55.2269H65.1085ZM76.039 60.5009C76.3629 59.9369 76.8429 59.4689 77.4789 59.0969C78.127 58.7129 78.877 58.5209 79.729 58.5209C80.605 58.5209 81.3969 58.7309 82.1049 59.1509C82.8249 59.5709 83.3889 60.1649 83.797 60.9329C84.205 61.6889 84.409 62.5709 84.409 63.5789C84.409 64.5749 84.205 65.4629 83.797 66.2429C83.3889 67.0229 82.8249 67.6289 82.1049 68.0609C81.3969 68.4929 80.605 68.7089 79.729 68.7089C78.8889 68.7089 78.1449 68.5229 77.497 68.1509C76.8609 67.7669 76.3749 67.2929 76.039 66.7289V73.2269H74.4009V58.6829H76.039V60.5009ZM82.735 63.5789C82.735 62.8349 82.585 62.1869 82.285 61.6349C81.985 61.0829 81.577 60.6629 81.061 60.3749C80.557 60.0869 79.999 59.9429 79.3869 59.9429C78.787 59.9429 78.229 60.0929 77.7129 60.3929C77.2089 60.6809 76.8009 61.1069 76.4889 61.6709C76.1889 62.2229 76.039 62.8649 76.039 63.5969C76.039 64.3409 76.1889 64.9949 76.4889 65.5589C76.8009 66.1109 77.2089 66.5369 77.7129 66.8369C78.229 67.1249 78.787 67.2689 79.3869 67.2689C79.999 67.2689 80.557 67.1249 81.061 66.8369C81.577 66.5369 81.985 66.1109 82.285 65.5589C82.585 64.9949 82.735 64.3349 82.735 63.5789ZM86.804 63.5789C86.804 62.5709 87.008 61.6889 87.416 60.9329C87.824 60.1649 88.382 59.5709 89.09 59.1509C89.81 58.7309 90.608 58.5209 91.484 58.5209C92.348 58.5209 93.098 58.7069 93.734 59.0789C94.37 59.4509 94.844 59.9189 95.156 60.4829V58.6829H96.812V68.5469H95.156V66.7109C94.832 67.2869 94.346 67.7669 93.698 68.1509C93.062 68.5229 92.318 68.7089 91.466 68.7089C90.59 68.7089 89.798 68.4929 89.09 68.0609C88.382 67.6289 87.824 67.0229 87.416 66.2429C87.008 65.4629 86.804 64.5749 86.804 63.5789ZM95.156 63.5969C95.156 62.8529 95.006 62.2049 94.706 61.6529C94.406 61.1009 93.998 60.6809 93.482 60.3929C92.978 60.0929 92.42 59.9429 91.808 59.9429C91.196 59.9429 90.638 60.0869 90.134 60.3749C89.63 60.6629 89.228 61.0829 88.928 61.6349C88.628 62.1869 88.478 62.8349 88.478 63.5789C88.478 64.3349 88.628 64.9949 88.928 65.5589C89.228 66.1109 89.63 66.5369 90.134 66.8369C90.638 67.1249 91.196 67.2689 91.808 67.2689C92.42 67.2689 92.978 67.1249 93.482 66.8369C93.998 66.5369 94.406 66.1109 94.706 65.5589C95.006 64.9949 95.156 64.3409 95.156 63.5969ZM103.923 68.7089C103.167 68.7089 102.489 68.5829 101.889 68.3309C101.289 68.0669 100.815 67.7069 100.467 67.2509C100.119 66.7829 99.927 66.2489 99.891 65.6489H101.583C101.631 66.1409 101.859 66.5429 102.267 66.8549C102.687 67.1669 103.233 67.3229 103.905 67.3229C104.529 67.3229 105.021 67.1849 105.381 66.9089C105.741 66.6329 105.921 66.2849 105.921 65.8649C105.921 65.4329 105.729 65.1149 105.345 64.9109C104.961 64.6949 104.367 64.4849 103.563 64.2809C102.831 64.0889 102.231 63.8969 101.763 63.7049C101.307 63.5009 100.911 63.2069 100.575 62.8229C100.251 62.4269 100.089 61.9109 100.089 61.2749C100.089 60.7709 100.239 60.3089 100.539 59.8889C100.839 59.4689 101.265 59.1389 101.817 58.8989C102.369 58.6469 102.999 58.5209 103.707 58.5209C104.799 58.5209 105.681 58.7969 106.353 59.3489C107.025 59.9009 107.385 60.6569 107.433 61.6169H105.795C105.759 61.1009 105.549 60.6869 105.165 60.3749C104.793 60.0629 104.289 59.9069 103.653 59.9069C103.065 59.9069 102.597 60.0329 102.249 60.2849C101.901 60.5369 101.727 60.8669 101.727 61.2749C101.727 61.5989 101.829 61.8689 102.033 62.0849C102.249 62.2889 102.513 62.4569 102.825 62.5889C103.149 62.7089 103.593 62.8469 104.157 63.0029C104.865 63.1949 105.441 63.3869 105.885 63.5789C106.329 63.7589 106.707 64.0349 107.019 64.4069C107.343 64.7789 107.511 65.2649 107.523 65.8649C107.523 66.4049 107.373 66.8909 107.073 67.3229C106.773 67.7549 106.347 68.0969 105.795 68.3489C105.255 68.5889 104.631 68.7089 103.923 68.7089ZM114.988 68.7089C114.064 68.7089 113.224 68.4989 112.468 68.0789C111.724 67.6589 111.136 67.0649 110.704 66.2969C110.284 65.5169 110.074 64.6169 110.074 63.5969C110.074 62.5889 110.29 61.7009 110.722 60.9329C111.166 60.1529 111.766 59.5589 112.522 59.1509C113.278 58.7309 114.124 58.5209 115.06 58.5209C115.996 58.5209 116.842 58.7309 117.598 59.1509C118.354 59.5589 118.948 60.1469 119.38 60.9149C119.824 61.6829 120.046 62.5769 120.046 63.5969C120.046 64.6169 119.818 65.5169 119.362 66.2969C118.918 67.0649 118.312 67.6589 117.544 68.0789C116.776 68.4989 115.924 68.7089 114.988 68.7089ZM114.988 67.2689C115.576 67.2689 116.128 67.1309 116.644 66.8549C117.16 66.5789 117.574 66.1649 117.886 65.6129C118.21 65.0609 118.372 64.3889 118.372 63.5969C118.372 62.8049 118.216 62.1329 117.904 61.5809C117.592 61.0289 117.184 60.6209 116.68 60.3569C116.176 60.0809 115.63 59.9429 115.042 59.9429C114.442 59.9429 113.89 60.0809 113.386 60.3569C112.894 60.6209 112.498 61.0289 112.198 61.5809C111.898 62.1329 111.748 62.8049 111.748 63.5969C111.748 64.4009 111.892 65.0789 112.18 65.6309C112.48 66.1829 112.876 66.5969 113.368 66.8729C113.86 67.1369 114.4 67.2689 114.988 67.2689ZM126.543 68.7089C125.787 68.7089 125.109 68.5829 124.509 68.3309C123.909 68.0669 123.435 67.7069 123.087 67.2509C122.739 66.7829 122.547 66.2489 122.511 65.6489H124.203C124.251 66.1409 124.479 66.5429 124.887 66.8549C125.307 67.1669 125.853 67.3229 126.525 67.3229C127.149 67.3229 127.641 67.1849 128.001 66.9089C128.361 66.6329 128.541 66.2849 128.541 65.8649C128.541 65.4329 128.349 65.1149 127.965 64.9109C127.581 64.6949 126.987 64.4849 126.183 64.2809C125.451 64.0889 124.851 63.8969 124.383 63.7049C123.927 63.5009 123.531 63.2069 123.195 62.8229C122.871 62.4269 122.709 61.9109 122.709 61.2749C122.709 60.7709 122.859 60.3089 123.159 59.8889C123.459 59.4689 123.885 59.1389 124.437 58.8989C124.989 58.6469 125.619 58.5209 126.327 58.5209C127.419 58.5209 128.301 58.7969 128.973 59.3489C129.645 59.9009 130.005 60.6569 130.053 61.6169H128.415C128.379 61.1009 128.169 60.6869 127.785 60.3749C127.413 60.0629 126.909 59.9069 126.273 59.9069C125.685 59.9069 125.217 60.0329 124.869 60.2849C124.521 60.5369 124.347 60.8669 124.347 61.2749C124.347 61.5989 124.449 61.8689 124.653 62.0849C124.869 62.2889 125.133 62.4569 125.445 62.5889C125.769 62.7089 126.213 62.8469 126.777 63.0029C127.485 63.1949 128.061 63.3869 128.505 63.5789C128.949 63.7589 129.327 64.0349 129.639 64.4069C129.963 64.7789 130.131 65.2649 130.143 65.8649C130.143 66.4049 129.993 66.8909 129.693 67.3229C129.393 67.7549 128.967 68.0969 128.415 68.3489C127.875 68.5889 127.251 68.7089 126.543 68.7089Z" fill="#1E88E5"/>
<path d="M167.5 322.497C119.533 322.497 80.5034 283.467 80.5034 235.5C80.5034 187.533 119.533 148.503 167.5 148.503C215.467 148.503 254.497 187.533 254.497 235.5C254.497 283.467 215.467 322.497 167.5 322.497ZM167.5 166.245C129.31 166.245 98.245 197.31 98.245 235.5C98.245 273.69 129.31 304.755 167.5 304.755C205.69 304.755 236.755 273.69 236.755 235.5C236.755 197.31 205.69 166.245 167.5 166.245Z" fill="#EFF0F2"/>
<path d="M167.5 323C119.253 323 80 283.747 80 235.5C80 230.321 84.1949 226.126 89.3742 226.126C94.5535 226.126 98.7484 230.321 98.7484 235.5C98.7484 273.411 129.589 304.252 167.5 304.252C205.411 304.252 236.252 273.411 236.252 235.5C236.252 197.589 205.411 166.748 167.5 166.748C162.321 166.748 158.126 162.554 158.126 157.374C158.126 152.195 162.321 148 167.5 148C215.747 148 255 187.253 255 235.5C255 283.747 215.747 323 167.5 323Z" fill="url(#paint0_linear)"/>
<path d="M136.436 235.284C133.94 234.036 132.692 232.068 132.692 229.38C132.692 228.084 133.016 226.896 133.664 225.816C134.312 224.736 135.284 223.884 136.58 223.26C137.876 222.612 139.46 222.288 141.332 222.288C143.18 222.288 144.752 222.612 146.048 223.26C147.368 223.884 148.352 224.736 149 225.816C149.648 226.896 149.972 228.084 149.972 229.38C149.972 230.724 149.624 231.912 148.928 232.944C148.256 233.952 147.356 234.732 146.228 235.284C147.596 235.788 148.676 236.616 149.468 237.768C150.26 238.896 150.656 240.228 150.656 241.764C150.656 243.324 150.26 244.704 149.468 245.904C148.676 247.104 147.572 248.028 146.156 248.676C144.74 249.324 143.132 249.648 141.332 249.648C139.532 249.648 137.924 249.324 136.508 248.676C135.116 248.028 134.024 247.104 133.232 245.904C132.44 244.704 132.044 243.324 132.044 241.764C132.044 240.204 132.44 238.86 133.232 237.732C134.024 236.604 135.092 235.788 136.436 235.284ZM146.048 229.884C146.048 228.54 145.628 227.508 144.788 226.788C143.948 226.068 142.796 225.708 141.332 225.708C139.892 225.708 138.752 226.068 137.912 226.788C137.072 227.508 136.652 228.552 136.652 229.92C136.652 231.12 137.084 232.104 137.948 232.872C138.836 233.616 139.964 233.988 141.332 233.988C142.7 233.988 143.828 233.604 144.716 232.836C145.604 232.068 146.048 231.084 146.048 229.884ZM141.332 237.084C139.748 237.084 138.452 237.48 137.444 238.272C136.46 239.04 135.968 240.156 135.968 241.62C135.968 242.988 136.448 244.104 137.408 244.968C138.368 245.808 139.676 246.228 141.332 246.228C142.964 246.228 144.248 245.796 145.184 244.932C146.144 244.068 146.624 242.964 146.624 241.62C146.624 240.18 146.132 239.064 145.148 238.272C144.188 237.48 142.916 237.084 141.332 237.084ZM155.816 235.536C155.816 231.384 156.512 228.144 157.904 225.816C159.32 223.464 161.744 222.288 165.176 222.288C168.608 222.288 171.02 223.464 172.412 225.816C173.828 228.144 174.536 231.384 174.536 235.536C174.536 239.736 173.828 243.024 172.412 245.4C171.02 247.752 168.608 248.928 165.176 248.928C161.744 248.928 159.32 247.752 157.904 245.4C156.512 243.024 155.816 239.736 155.816 235.536ZM170.504 235.536C170.504 233.592 170.372 231.948 170.108 230.604C169.868 229.26 169.364 228.168 168.596 227.328C167.828 226.464 166.688 226.032 165.176 226.032C163.664 226.032 162.524 226.464 161.756 227.328C160.988 228.168 160.472 229.26 160.208 230.604C159.968 231.948 159.848 233.592 159.848 235.536C159.848 237.552 159.968 239.244 160.208 240.612C160.448 241.98 160.952 243.084 161.72 243.924C162.512 244.764 163.664 245.184 165.176 245.184C166.688 245.184 167.828 244.764 168.596 243.924C169.388 243.084 169.904 241.98 170.144 240.612C170.384 239.244 170.504 237.552 170.504 235.536ZM179.082 229.092C179.082 227.34 179.586 225.972 180.594 224.988C181.626 223.98 182.946 223.476 184.554 223.476C186.162 223.476 187.47 223.98 188.478 224.988C189.51 225.972 190.026 227.34 190.026 229.092C190.026 230.844 189.51 232.224 188.478 233.232C187.47 234.24 186.162 234.744 184.554 234.744C182.946 234.744 181.626 234.24 180.594 233.232C179.586 232.224 179.082 230.844 179.082 229.092ZM201.042 223.944L186.678 249H182.646L197.01 223.944H201.042ZM184.554 225.96C183.042 225.96 182.286 227.004 182.286 229.092C182.286 231.204 183.042 232.26 184.554 232.26C185.274 232.26 185.826 232.008 186.21 231.504C186.618 230.976 186.822 230.172 186.822 229.092C186.822 227.004 186.066 225.96 184.554 225.96ZM193.734 243.816C193.734 242.064 194.238 240.696 195.246 239.712C196.278 238.704 197.598 238.2 199.206 238.2C200.79 238.2 202.086 238.704 203.094 239.712C204.126 240.696 204.642 242.064 204.642 243.816C204.642 245.568 204.126 246.948 203.094 247.956C202.086 248.964 200.79 249.468 199.206 249.468C197.598 249.468 196.278 248.964 195.246 247.956C194.238 246.948 193.734 245.568 193.734 243.816ZM199.17 240.684C197.658 240.684 196.902 241.728 196.902 243.816C196.902 245.904 197.658 246.948 199.17 246.948C200.682 246.948 201.438 245.904 201.438 243.816C201.438 241.728 200.682 240.684 199.17 240.684Z" fill="#8598AD"/>
<defs>
<linearGradient id="paint0_linear" x1="133.167" y1="291.324" x2="217.628" y2="188.281" gradientUnits="userSpaceOnUse">
<stop offset="0.1757" stop-color="#29E1FF"/>
<stop offset="0.8405" stop-color="#2696FF"/>
</linearGradient>
</defs>
</svg>
