<svg width="301" height="280" viewBox="0 0 301 280" fill="none" xmlns="http://www.w3.org/2000/svg">
<g clip-path="url(#clip0)">
<path d="M150.501 279.515C104.178 279.515 66.4873 241.824 66.4873 195.501C66.4873 149.178 104.178 111.487 150.501 111.487C196.824 111.487 234.515 149.178 234.515 195.501C234.515 241.824 196.824 279.515 150.501 279.515ZM150.501 128.62C113.62 128.62 83.6206 158.62 83.6206 195.501C83.6206 232.382 113.62 262.381 150.501 262.381C187.382 262.381 217.382 232.382 217.382 195.501C217.382 158.62 187.382 128.62 150.501 128.62Z" fill="#EFF0F2"/>
<path d="M150.5 280C103.907 280 66 242.093 66 195.5C66 190.498 70.0511 186.447 75.0528 186.447C80.0545 186.447 84.1056 190.498 84.1056 195.5C84.1056 232.111 113.889 261.894 150.5 261.894C187.111 261.894 216.894 232.111 216.894 195.5C216.894 158.889 187.111 129.106 150.5 129.106C145.498 129.106 141.447 125.055 141.447 120.053C141.447 115.051 145.498 111 150.5 111C197.093 111 235 148.907 235 195.5C235 242.093 197.093 280 150.5 280Z" fill="url(#paint0_linear)"/>
<path d="M136.088 209.388L136.17 210.712C137.061 209.673 138.28 209.154 139.827 209.154C141.522 209.154 142.682 209.802 143.307 211.099C144.229 209.802 145.526 209.154 147.198 209.154C148.596 209.154 149.635 209.54 150.315 210.314C151.002 211.087 151.354 212.228 151.37 213.736V222.068H148.522V213.818C148.522 213.013 148.346 212.423 147.995 212.048C147.643 211.673 147.061 211.486 146.248 211.486C145.6 211.486 145.069 211.661 144.655 212.013C144.248 212.357 143.963 212.81 143.799 213.372L143.811 222.068H140.963V213.724C140.924 212.232 140.162 211.486 138.678 211.486C137.537 211.486 136.729 211.95 136.252 212.88V222.068H133.405V209.388H136.088ZM164.35 218.095H157.74L156.357 222.068H153.275L159.721 205.005H162.381L168.838 222.068H165.744L164.35 218.095ZM158.572 215.704H163.517L161.045 208.626L158.572 215.704Z" fill="#6C757D"/>
<path d="M122.033 240.615H120.433V231.373H122.033V240.615ZM125.4 233.747L125.445 234.54C125.952 233.927 126.619 233.62 127.444 233.62C128.874 233.62 129.602 234.439 129.628 236.076V240.615H128.085V236.165C128.085 235.729 127.99 235.408 127.8 235.2C127.613 234.989 127.307 234.883 126.879 234.883C126.257 234.883 125.794 235.164 125.489 235.727V240.615H123.947V233.747H125.4ZM133.249 232.077V233.747H134.461V234.889H133.249V238.723C133.249 238.986 133.3 239.176 133.401 239.295C133.507 239.409 133.693 239.466 133.96 239.466C134.138 239.466 134.317 239.445 134.499 239.403V240.596C134.148 240.693 133.81 240.742 133.484 240.742C132.299 240.742 131.706 240.088 131.706 238.781V234.889H130.577V233.747H131.706V232.077H133.249ZM138.781 240.742C137.803 240.742 137.01 240.435 136.4 239.822C135.795 239.204 135.493 238.383 135.493 237.359V237.168C135.493 236.483 135.624 235.871 135.886 235.334C136.153 234.792 136.525 234.371 137.004 234.071C137.482 233.77 138.015 233.62 138.603 233.62C139.538 233.62 140.26 233.918 140.768 234.515C141.28 235.112 141.536 235.956 141.536 237.048V237.67H137.048C137.095 238.237 137.283 238.685 137.613 239.015C137.947 239.345 138.366 239.51 138.87 239.51C139.576 239.51 140.152 239.225 140.596 238.654L141.428 239.447C141.153 239.858 140.785 240.177 140.323 240.406C139.866 240.63 139.352 240.742 138.781 240.742ZM138.597 234.858C138.174 234.858 137.831 235.006 137.568 235.302C137.31 235.598 137.145 236.011 137.073 236.54H140.012V236.426C139.978 235.909 139.841 235.52 139.6 235.258C139.359 234.991 139.024 234.858 138.597 234.858ZM144.281 233.747L144.325 234.54C144.833 233.927 145.5 233.62 146.325 233.62C147.755 233.62 148.483 234.439 148.509 236.076V240.615H146.966V236.165C146.966 235.729 146.871 235.408 146.68 235.2C146.494 234.989 146.187 234.883 145.76 234.883C145.138 234.883 144.675 235.164 144.37 235.727V240.615H142.827V233.747H144.281ZM154.047 238.749C154.047 238.474 153.933 238.264 153.704 238.12C153.48 237.976 153.105 237.85 152.581 237.74C152.056 237.629 151.618 237.49 151.267 237.321C150.496 236.948 150.111 236.409 150.111 235.702C150.111 235.109 150.361 234.614 150.86 234.217C151.36 233.819 151.994 233.62 152.765 233.62C153.586 233.62 154.248 233.823 154.751 234.229C155.259 234.635 155.513 235.162 155.513 235.81H153.971C153.971 235.514 153.861 235.268 153.641 235.073C153.421 234.875 153.129 234.775 152.765 234.775C152.426 234.775 152.149 234.853 151.933 235.01C151.721 235.167 151.616 235.376 151.616 235.638C151.616 235.875 151.715 236.059 151.914 236.191C152.113 236.322 152.515 236.455 153.12 236.591C153.725 236.722 154.199 236.88 154.542 237.067C154.889 237.249 155.145 237.469 155.31 237.727C155.479 237.985 155.564 238.298 155.564 238.666C155.564 239.284 155.308 239.786 154.796 240.171C154.284 240.552 153.613 240.742 152.784 240.742C152.221 240.742 151.719 240.64 151.279 240.437C150.839 240.234 150.496 239.955 150.251 239.599C150.005 239.244 149.883 238.861 149.883 238.45H151.381C151.402 238.814 151.539 239.096 151.793 239.295C152.047 239.489 152.384 239.587 152.803 239.587C153.209 239.587 153.518 239.51 153.729 239.358C153.941 239.202 154.047 238.998 154.047 238.749ZM158.665 240.615H157.122V233.747H158.665V240.615ZM157.027 231.963C157.027 231.726 157.101 231.529 157.249 231.373C157.401 231.216 157.617 231.138 157.897 231.138C158.176 231.138 158.392 231.216 158.544 231.373C158.696 231.529 158.773 231.726 158.773 231.963C158.773 232.196 158.696 232.391 158.544 232.547C158.392 232.699 158.176 232.776 157.897 232.776C157.617 232.776 157.401 232.699 157.249 232.547C157.101 232.391 157.027 232.196 157.027 231.963ZM160.172 237.13C160.172 236.072 160.418 235.224 160.908 234.585C161.399 233.941 162.057 233.62 162.883 233.62C163.61 233.62 164.199 233.874 164.647 234.382V230.865H166.19V240.615H164.793L164.717 239.904C164.256 240.463 163.64 240.742 162.87 240.742C162.066 240.742 161.414 240.418 160.915 239.771C160.42 239.123 160.172 238.243 160.172 237.13ZM161.715 237.263C161.715 237.962 161.848 238.508 162.115 238.901C162.385 239.29 162.768 239.485 163.263 239.485C163.894 239.485 164.355 239.204 164.647 238.641V235.708C164.364 235.158 163.907 234.883 163.276 234.883C162.777 234.883 162.392 235.082 162.121 235.48C161.85 235.873 161.715 236.468 161.715 237.263ZM172.014 240.615C171.946 240.484 171.887 240.27 171.836 239.974C171.345 240.486 170.744 240.742 170.033 240.742C169.343 240.742 168.781 240.545 168.345 240.152C167.909 239.758 167.691 239.271 167.691 238.692C167.691 237.96 167.962 237.399 168.503 237.01C169.049 236.616 169.828 236.419 170.839 236.419H171.785V235.969C171.785 235.613 171.686 235.33 171.487 235.118C171.288 234.902 170.985 234.794 170.579 234.794C170.228 234.794 169.94 234.883 169.716 235.061C169.491 235.234 169.379 235.456 169.379 235.727H167.837C167.837 235.351 167.962 234.999 168.211 234.674C168.461 234.344 168.8 234.085 169.227 233.899C169.659 233.713 170.139 233.62 170.668 233.62C171.472 233.62 172.113 233.823 172.591 234.229C173.069 234.631 173.315 235.198 173.328 235.93V239.028C173.328 239.646 173.414 240.139 173.588 240.507V240.615H172.014ZM170.319 239.504C170.623 239.504 170.909 239.43 171.176 239.282C171.447 239.134 171.65 238.935 171.785 238.685V237.39H170.954C170.382 237.39 169.953 237.49 169.665 237.689C169.377 237.888 169.233 238.169 169.233 238.533C169.233 238.829 169.331 239.066 169.525 239.244C169.724 239.417 169.989 239.504 170.319 239.504ZM174.765 237.13C174.765 236.072 175.011 235.224 175.502 234.585C175.992 233.941 176.65 233.62 177.476 233.62C178.204 233.62 178.792 233.874 179.24 234.382V230.865H180.783V240.615H179.386L179.31 239.904C178.849 240.463 178.233 240.742 177.463 240.742C176.659 240.742 176.007 240.418 175.508 239.771C175.013 239.123 174.765 238.243 174.765 237.13ZM176.308 237.263C176.308 237.962 176.441 238.508 176.708 238.901C176.978 239.29 177.361 239.485 177.857 239.485C178.487 239.485 178.948 239.204 179.24 238.641V235.708C178.957 235.158 178.5 234.883 177.869 234.883C177.37 234.883 176.985 235.082 176.714 235.48C176.443 235.873 176.308 236.468 176.308 237.263Z" fill="#6C757D"/>
</g>
<path d="M137.864 170.03V166.91H144.104V188.78H140.654V170.03H137.864ZM149.593 172.31C149.713 170.45 150.423 169 151.723 167.96C153.043 166.92 154.723 166.4 156.763 166.4C158.163 166.4 159.373 166.65 160.393 167.15C161.413 167.65 162.183 168.33 162.703 169.19C163.223 170.05 163.483 171.02 163.483 172.1C163.483 173.34 163.153 174.4 162.493 175.28C161.833 176.16 161.043 176.75 160.123 177.05V177.17C161.303 177.53 162.223 178.19 162.883 179.15C163.543 180.09 163.873 181.3 163.873 182.78C163.873 183.96 163.603 185.01 163.063 185.93C162.523 186.85 161.723 187.58 160.663 188.12C159.603 188.64 158.333 188.9 156.853 188.9C154.693 188.9 152.913 188.35 151.513 187.25C150.133 186.13 149.393 184.53 149.293 182.45H152.593C152.673 183.51 153.083 184.38 153.823 185.06C154.563 185.72 155.563 186.05 156.823 186.05C158.043 186.05 158.983 185.72 159.643 185.06C160.303 184.38 160.633 183.51 160.633 182.45C160.633 181.05 160.183 180.06 159.283 179.48C158.403 178.88 157.043 178.58 155.203 178.58H154.423V175.76H155.233C156.853 175.74 158.083 175.47 158.923 174.95C159.783 174.43 160.213 173.61 160.213 172.49C160.213 171.53 159.903 170.77 159.283 170.21C158.663 169.63 157.783 169.34 156.643 169.34C155.523 169.34 154.653 169.63 154.033 170.21C153.413 170.77 153.043 171.47 152.923 172.31H149.593Z" fill="#6C757D"/>
<rect width="301" height="93" rx="10" fill="#ECEFF1"/>
<rect x="13.7959" y="11.3108" width="82.775" height="35.1892" rx="17.5946" fill="white"/>
<path d="M55 12V46" stroke="#97AFF3" stroke-opacity="0.57"/>
<path d="M109.112 28.9054C109.112 19.1882 116.99 11.3108 126.707 11.3108H150.5V46.5H126.707C116.99 46.5 109.112 38.6226 109.112 28.9054V28.9054Z" fill="white"/>
<path d="M191.888 28.9054C191.888 38.6226 184.01 46.5 174.293 46.5L150.5 46.5L150.5 11.3108L174.293 11.3108C184.01 11.3108 191.888 19.1882 191.888 28.9054V28.9054Z" fill="white"/>
<path d="M133.099 27.3728H134.111C134.621 27.3682 135.025 27.2361 135.321 26.9763C135.622 26.7166 135.772 26.3406 135.772 25.8484C135.772 25.3744 135.647 25.0076 135.396 24.7478C135.15 24.4835 134.772 24.3513 134.261 24.3513C133.815 24.3513 133.448 24.4812 133.161 24.741C132.874 24.9962 132.73 25.3311 132.73 25.7458H131.069C131.069 25.2354 131.203 24.7706 131.472 24.3513C131.746 23.932 132.124 23.6062 132.607 23.3738C133.095 23.1368 133.639 23.0183 134.241 23.0183C135.234 23.0183 136.014 23.269 136.579 23.7703C137.148 24.267 137.433 24.9597 137.433 25.8484C137.433 26.295 137.29 26.7166 137.002 27.113C136.72 27.505 136.353 27.8012 135.902 28.0017C136.449 28.1886 136.863 28.4825 137.146 28.8835C137.433 29.2846 137.577 29.7631 137.577 30.3191C137.577 31.2123 137.269 31.9233 136.654 32.4519C136.043 32.9806 135.239 33.2449 134.241 33.2449C133.284 33.2449 132.5 32.9897 131.889 32.4792C131.278 31.9688 130.973 31.2898 130.973 30.4421H132.634C132.634 30.8796 132.78 31.2351 133.072 31.5085C133.368 31.782 133.764 31.9187 134.261 31.9187C134.776 31.9187 135.182 31.782 135.478 31.5085C135.774 31.2351 135.922 30.8386 135.922 30.3191C135.922 29.795 135.767 29.3917 135.458 29.1091C135.148 28.8266 134.687 28.6853 134.077 28.6853H133.099V27.3728Z" fill="#979797"/>
<path d="M14 28.5946C14 18.8774 21.8774 11 31.5946 11H55.3875V46.1892H31.5946C21.8774 46.1892 14 38.3118 14 28.5946V28.5946Z" fill="#636262"/>
<path d="M40.564 32.7974H38.9097V24.8062L36.4692 25.6401V24.2388L40.3521 22.8101H40.564V32.7974Z" fill="white"/>
<path d="M170.206 29.8137H171.354V31.0515H170.206V33.1082H168.663V31.0515H164.67L164.626 30.1121L168.612 23.866H170.206V29.8137ZM166.245 29.8137H168.663V25.9543L168.549 26.1575L166.245 29.8137Z" fill="#1E88E5"/>
<path d="M204 28.5946C204 18.8774 211.877 11 221.595 11H245.387V46.1892H221.595C211.877 46.1892 204 38.3118 204 28.5946V28.5946Z" fill="white"/>
<path d="M286.775 28.5946C286.775 38.3118 278.898 46.1892 269.18 46.1892L245.387 46.1892L245.387 11L269.18 11C278.898 11 286.775 18.8774 286.775 28.5946V28.5946Z" fill="white"/>
<path d="M264.674 23.5107V24.7866H264.484C263.621 24.7993 262.931 25.0363 262.415 25.4976C261.898 25.9588 261.591 26.6126 261.494 27.459C261.989 26.9385 262.622 26.6782 263.392 26.6782C264.209 26.6782 264.852 26.966 265.322 27.5415C265.796 28.117 266.033 28.8597 266.033 29.7695C266.033 30.709 265.756 31.4707 265.201 32.0547C264.651 32.6344 263.927 32.9243 263.03 32.9243C262.108 32.9243 261.359 32.5837 260.783 31.9023C260.212 31.221 259.926 30.3281 259.926 29.2236V28.6968C259.926 27.076 260.32 25.8065 261.107 24.8882C261.898 23.9699 263.035 23.5107 264.516 23.5107H264.674ZM263.018 27.9224C262.679 27.9224 262.368 28.0176 262.084 28.208C261.805 28.3984 261.6 28.6523 261.469 28.9697V29.4395C261.469 30.125 261.613 30.6709 261.9 31.0771C262.188 31.4792 262.561 31.6802 263.018 31.6802C263.475 31.6802 263.836 31.5088 264.103 31.166C264.37 30.8232 264.503 30.3726 264.503 29.814C264.503 29.2554 264.368 28.8005 264.097 28.4492C263.826 28.098 263.466 27.9224 263.018 27.9224Z" fill="#1E88E5"/>
<path d="M96.3877 28.5946C96.3877 38.3118 88.5103 46.1892 78.7931 46.1892L55.0002 46.1892L55.0002 11L78.7931 11C88.5103 11 96.3877 18.8774 96.3877 28.5946V28.5946Z" fill="#1E88E5"/>
<path d="M75.7026 32.7974H69.4883V31.7373L72.5669 28.3794C73.0112 27.8843 73.3265 27.4717 73.5127 27.1416C73.7031 26.8073 73.7983 26.473 73.7983 26.1387C73.7983 25.6986 73.6735 25.3431 73.4238 25.0723C73.1784 24.8014 72.8462 24.666 72.4272 24.666C71.9279 24.666 71.5407 24.8184 71.2656 25.123C70.9906 25.4277 70.853 25.8446 70.853 26.3735H69.3105C69.3105 25.8107 69.4375 25.305 69.6914 24.8564C69.9495 24.4036 70.3156 24.0524 70.7896 23.8027C71.2677 23.5531 71.8179 23.4282 72.4399 23.4282C73.3371 23.4282 74.0438 23.6546 74.5601 24.1074C75.0806 24.556 75.3408 25.1781 75.3408 25.9736C75.3408 26.4349 75.2096 26.9194 74.9473 27.4272C74.6891 27.9308 74.2638 28.5042 73.6714 29.1475L71.4116 31.5659H75.7026V32.7974Z" fill="white"/>
<path d="M39.0283 57.5339C39.0283 58.5561 38.8363 59.3276 38.4521 59.8484C38.0713 60.366 37.4902 60.6248 36.709 60.6248C35.9408 60.6248 35.3613 60.3725 34.9707 59.8679C34.5833 59.3601 34.3848 58.6098 34.375 57.6169V56.3865C34.375 55.3643 34.5654 54.5977 34.9463 54.0867C35.3304 53.5756 35.9147 53.3201 36.6992 53.3201C37.4772 53.3201 38.0566 53.5691 38.4375 54.0671C38.8216 54.5652 39.0186 55.3106 39.0283 56.3035V57.5339ZM37.8418 56.2058C37.8418 55.5385 37.7507 55.0502 37.5684 54.741C37.3861 54.4285 37.0964 54.2722 36.6992 54.2722C36.3118 54.2722 36.027 54.4203 35.8447 54.7166C35.6624 55.0095 35.5664 55.4685 35.5566 56.0935V57.7048C35.5566 58.3689 35.6494 58.8637 35.835 59.1892C36.0205 59.5147 36.3118 59.6775 36.709 59.6775C37.0898 59.6775 37.3714 59.5278 37.5537 59.2283C37.736 58.9255 37.832 58.4535 37.8418 57.8123V56.2058Z" fill="#3893D0"/>
<path d="M39.0283 73.8716C39.0283 74.8937 38.8363 75.6652 38.4521 76.186C38.0713 76.7036 37.4902 76.9624 36.709 76.9624C35.9408 76.9624 35.3613 76.7101 34.9707 76.2056C34.5833 75.6978 34.3848 74.9474 34.375 73.9546V72.7241C34.375 71.702 34.5654 70.9354 34.9463 70.4243C35.3304 69.9132 35.9147 69.6577 36.6992 69.6577C37.4772 69.6577 38.0566 69.9067 38.4375 70.4048C38.8216 70.9028 39.0186 71.6483 39.0283 72.6411V73.8716ZM37.8418 72.5435C37.8418 71.8761 37.7507 71.3879 37.5684 71.0786C37.3861 70.7661 37.0964 70.6099 36.6992 70.6099C36.3118 70.6099 36.027 70.758 35.8447 71.0542C35.6624 71.3472 35.5664 71.8062 35.5566 72.4312V74.0425C35.5566 74.7065 35.6494 75.2013 35.835 75.5269C36.0205 75.8524 36.3118 76.0151 36.709 76.0151C37.0898 76.0151 37.3714 75.8654 37.5537 75.5659C37.736 75.2632 37.832 74.7912 37.8418 74.1499V72.5435Z" fill="#636262"/>
<path d="M72.8911 57.5339C72.8911 58.5561 72.6991 59.3276 72.3149 59.8484C71.9341 60.366 71.353 60.6248 70.5718 60.6248C69.8035 60.6248 69.2241 60.3725 68.8335 59.8679C68.4461 59.3601 68.2476 58.6098 68.2378 57.6169V56.3865C68.2378 55.3643 68.4282 54.5977 68.8091 54.0867C69.1932 53.5756 69.7775 53.3201 70.562 53.3201C71.34 53.3201 71.9194 53.5691 72.3003 54.0671C72.6844 54.5652 72.8813 55.3106 72.8911 56.3035V57.5339ZM71.7046 56.2058C71.7046 55.5385 71.6134 55.0502 71.4312 54.741C71.2489 54.4285 70.9591 54.2722 70.562 54.2722C70.1746 54.2722 69.8898 54.4203 69.7075 54.7166C69.5252 55.0095 69.4292 55.4685 69.4194 56.0935V57.7048C69.4194 58.3689 69.5122 58.8637 69.6978 59.1892C69.8833 59.5147 70.1746 59.6775 70.5718 59.6775C70.9526 59.6775 71.2342 59.5278 71.4165 59.2283C71.5988 58.9255 71.6948 58.4535 71.7046 57.8123V56.2058Z" fill="#1E88E5"/>
<path d="M72.8911 73.8716C72.8911 74.8937 72.6991 75.6652 72.3149 76.186C71.9341 76.7036 71.353 76.9624 70.5718 76.9624C69.8035 76.9624 69.2241 76.7101 68.8335 76.2056C68.4461 75.6978 68.2476 74.9474 68.2378 73.9546V72.7241C68.2378 71.702 68.4282 70.9354 68.8091 70.4243C69.1932 69.9132 69.7775 69.6577 70.562 69.6577C71.34 69.6577 71.9194 69.9067 72.3003 70.4048C72.6844 70.9028 72.8813 71.6483 72.8911 72.6411V73.8716ZM71.7046 72.5435C71.7046 71.8761 71.6134 71.3879 71.4312 71.0786C71.2489 70.7661 70.9591 70.6099 70.562 70.6099C70.1746 70.6099 69.8898 70.758 69.7075 71.0542C69.5252 71.3472 69.4292 71.8062 69.4194 72.4312V74.0425C69.4194 74.7065 69.5122 75.2013 69.6978 75.5269C69.8833 75.8524 70.1746 76.0151 70.5718 76.0151C70.9526 76.0151 71.2342 75.8654 71.4165 75.5659C71.5988 75.2632 71.6948 74.7912 71.7046 74.1499V72.5435Z" fill="#636262"/>
<path d="M139.362 57.5339C139.362 58.5561 139.17 59.3276 138.786 59.8484C138.405 60.366 137.824 60.6248 137.042 60.6248C136.274 60.6248 135.695 60.3725 135.304 59.8679C134.917 59.3601 134.718 58.6098 134.708 57.6169V56.3865C134.708 55.3643 134.899 54.5977 135.28 54.0867C135.664 53.5756 136.248 53.3201 137.033 53.3201C137.811 53.3201 138.39 53.5691 138.771 54.0671C139.155 54.5652 139.352 55.3106 139.362 56.3035V57.5339ZM138.175 56.2058C138.175 55.5385 138.084 55.0502 137.902 54.741C137.72 54.4285 137.43 54.2722 137.033 54.2722C136.645 54.2722 136.361 54.4203 136.178 54.7166C135.996 55.0095 135.9 55.4685 135.89 56.0935V57.7048C135.89 58.3689 135.983 58.8637 136.168 59.1892C136.354 59.5147 136.645 59.6775 137.042 59.6775C137.423 59.6775 137.705 59.5278 137.887 59.2283C138.069 58.9255 138.166 58.4535 138.175 57.8123V56.2058Z" fill="#1E88E5"/>
<path d="M139.362 73.8716C139.362 74.8937 139.17 75.6652 138.786 76.186C138.405 76.7036 137.824 76.9624 137.042 76.9624C136.274 76.9624 135.695 76.7101 135.304 76.2056C134.917 75.6978 134.718 74.9474 134.708 73.9546V72.7241C134.708 71.702 134.899 70.9354 135.28 70.4243C135.664 69.9132 136.248 69.6577 137.033 69.6577C137.811 69.6577 138.39 69.9067 138.771 70.4048C139.155 70.9028 139.352 71.6483 139.362 72.6411V73.8716ZM138.175 72.5435C138.175 71.8761 138.084 71.3879 137.902 71.0786C137.72 70.7661 137.43 70.6099 137.033 70.6099C136.645 70.6099 136.361 70.758 136.178 71.0542C135.996 71.3472 135.9 71.8062 135.89 72.4312V74.0425C135.89 74.7065 135.983 75.2013 136.168 75.5269C136.354 75.8524 136.645 76.0151 137.042 76.0151C137.423 76.0151 137.705 75.8654 137.887 75.5659C138.069 75.2632 138.166 74.7912 138.175 74.1499V72.5435Z" fill="#636262"/>
<path d="M173.224 57.5339C173.224 58.5561 173.032 59.3276 172.648 59.8484C172.267 60.366 171.686 60.6248 170.905 60.6248C170.137 60.6248 169.557 60.3725 169.167 59.8679C168.779 59.3601 168.581 58.6098 168.571 57.6169V56.3865C168.571 55.3643 168.761 54.5977 169.142 54.0867C169.526 53.5756 170.111 53.3201 170.895 53.3201C171.673 53.3201 172.252 53.5691 172.633 54.0671C173.017 54.5652 173.214 55.3106 173.224 56.3035V57.5339ZM172.038 56.2058C172.038 55.5385 171.946 55.0502 171.764 54.741C171.582 54.4285 171.292 54.2722 170.895 54.2722C170.508 54.2722 170.223 54.4203 170.041 54.7166C169.858 55.0095 169.762 55.4685 169.752 56.0935V57.7048C169.752 58.3689 169.845 58.8637 170.031 59.1892C170.216 59.5147 170.508 59.6775 170.905 59.6775C171.286 59.6775 171.567 59.5278 171.75 59.2283C171.932 58.9255 172.028 58.4535 172.038 57.8123V56.2058Z" fill="#1E88E5"/>
<path d="M173.224 73.8716C173.224 74.8937 173.032 75.6652 172.648 76.186C172.267 76.7036 171.686 76.9624 170.905 76.9624C170.137 76.9624 169.557 76.7101 169.167 76.2056C168.779 75.6978 168.581 74.9474 168.571 73.9546V72.7241C168.571 71.702 168.761 70.9354 169.142 70.4243C169.526 69.9132 170.111 69.6577 170.895 69.6577C171.673 69.6577 172.252 69.9067 172.633 70.4048C173.017 70.9028 173.214 71.6483 173.224 72.6411V73.8716ZM172.038 72.5435C172.038 71.8761 171.946 71.3879 171.764 71.0786C171.582 70.7661 171.292 70.6099 170.895 70.6099C170.508 70.6099 170.223 70.758 170.041 71.0542C169.858 71.3472 169.762 71.8062 169.752 72.4312V74.0425C169.752 74.7065 169.845 75.2013 170.031 75.5269C170.216 75.8524 170.508 76.0151 170.905 76.0151C171.286 76.0151 171.567 75.8654 171.75 75.5659C171.932 75.2632 172.028 74.7912 172.038 74.1499V72.5435Z" fill="#636262"/>
<path d="M237.187 57.5339C237.187 58.5561 236.995 59.3276 236.611 59.8484C236.23 60.366 235.649 60.6248 234.868 60.6248C234.099 60.6248 233.52 60.3725 233.129 59.8679C232.742 59.3601 232.543 58.6098 232.534 57.6169V56.3865C232.534 55.3643 232.724 54.5977 233.105 54.0867C233.489 53.5756 234.073 53.3201 234.858 53.3201C235.636 53.3201 236.215 53.5691 236.596 54.0671C236.98 54.5652 237.177 55.3106 237.187 56.3035V57.5339ZM236 56.2058C236 55.5385 235.909 55.0502 235.727 54.741C235.545 54.4285 235.255 54.2722 234.858 54.2722C234.471 54.2722 234.186 54.4203 234.003 54.7166C233.821 55.0095 233.725 55.4685 233.715 56.0935V57.7048C233.715 58.3689 233.808 58.8637 233.994 59.1892C234.179 59.5147 234.471 59.6775 234.868 59.6775C235.249 59.6775 235.53 59.5278 235.712 59.2283C235.895 58.9255 235.991 58.4535 236 57.8123V56.2058Z" fill="#1E88E5"/>
<path d="M237.187 73.8716C237.187 74.8937 236.995 75.6652 236.611 76.186C236.23 76.7036 235.649 76.9624 234.868 76.9624C234.099 76.9624 233.52 76.7101 233.129 76.2056C232.742 75.6978 232.543 74.9474 232.534 73.9546V72.7241C232.534 71.702 232.724 70.9354 233.105 70.4243C233.489 69.9132 234.073 69.6577 234.858 69.6577C235.636 69.6577 236.215 69.9067 236.596 70.4048C236.98 70.9028 237.177 71.6483 237.187 72.6411V73.8716ZM236 72.5435C236 71.8761 235.909 71.3879 235.727 71.0786C235.545 70.7661 235.255 70.6099 234.858 70.6099C234.471 70.6099 234.186 70.758 234.003 71.0542C233.821 71.3472 233.725 71.8062 233.715 72.4312V74.0425C233.715 74.7065 233.808 75.2013 233.994 75.5269C234.179 75.8524 234.471 76.0151 234.868 76.0151C235.249 76.0151 235.53 75.8654 235.712 75.5659C235.895 75.2632 235.991 74.7912 236 74.1499V72.5435Z" fill="#636262"/>
<path d="M271.049 57.5339C271.049 58.5561 270.857 59.3276 270.473 59.8484C270.092 60.366 269.511 60.6248 268.73 60.6248C267.962 60.6248 267.382 60.3725 266.992 59.8679C266.604 59.3601 266.406 58.6098 266.396 57.6169V56.3865C266.396 55.3643 266.586 54.5977 266.967 54.0867C267.351 53.5756 267.936 53.3201 268.72 53.3201C269.498 53.3201 270.078 53.5691 270.458 54.0671C270.843 54.5652 271.04 55.3106 271.049 56.3035V57.5339ZM269.863 56.2058C269.863 55.5385 269.772 55.0502 269.589 54.741C269.407 54.4285 269.117 54.2722 268.72 54.2722C268.333 54.2722 268.048 54.4203 267.866 54.7166C267.683 55.0095 267.587 55.4685 267.578 56.0935V57.7048C267.578 58.3689 267.67 58.8637 267.856 59.1892C268.042 59.5147 268.333 59.6775 268.73 59.6775C269.111 59.6775 269.392 59.5278 269.575 59.2283C269.757 58.9255 269.853 58.4535 269.863 57.8123V56.2058Z" fill="#1E88E5"/>
<path d="M271.049 73.8716C271.049 74.8937 270.857 75.6652 270.473 76.186C270.092 76.7036 269.511 76.9624 268.73 76.9624C267.962 76.9624 267.382 76.7101 266.992 76.2056C266.604 75.6978 266.406 74.9474 266.396 73.9546V72.7241C266.396 71.702 266.586 70.9354 266.967 70.4243C267.351 69.9132 267.936 69.6577 268.72 69.6577C269.498 69.6577 270.078 69.9067 270.458 70.4048C270.843 70.9028 271.04 71.6483 271.049 72.6411V73.8716ZM269.863 72.5435C269.863 71.8761 269.772 71.3879 269.589 71.0786C269.407 70.7661 269.117 70.6099 268.72 70.6099C268.333 70.6099 268.048 70.758 267.866 71.0542C267.683 71.3472 267.587 71.8062 267.578 72.4312V74.0425C267.578 74.7065 267.67 75.2013 267.856 75.5269C268.042 75.8524 268.333 76.0151 268.73 76.0151C269.111 76.0151 269.392 75.8654 269.575 75.5659C269.757 75.2632 269.853 74.7912 269.863 74.1499V72.5435Z" fill="#636262"/>
<path d="M225.189 28.0645L225.729 23.0469H231.075V24.4824H227.11L226.837 26.8613C227.297 26.597 227.817 26.4648 228.396 26.4648C229.343 26.4648 230.079 26.7679 230.604 27.374C231.132 27.9801 231.396 28.7959 231.396 29.8213C231.396 30.833 231.105 31.6396 230.521 32.2412C229.938 32.8382 229.138 33.1367 228.122 33.1367C227.211 33.1367 226.454 32.8792 225.853 32.3643C225.256 31.8447 224.932 31.1611 224.882 30.3135H226.488C226.552 30.7965 226.725 31.168 227.008 31.4277C227.29 31.6829 227.66 31.8105 228.115 31.8105C228.626 31.8105 229.022 31.6283 229.305 31.2637C229.592 30.8991 229.735 30.4023 229.735 29.7734C229.735 29.1673 229.578 28.6888 229.264 28.3379C228.949 27.9824 228.516 27.8047 227.965 27.8047C227.664 27.8047 227.409 27.8457 227.199 27.9277C226.99 28.0052 226.762 28.1602 226.516 28.3926L225.189 28.0645Z" fill="#979797"/>
<path d="M151 12V46" stroke="#97AFF3" stroke-opacity="0.57"/>
<path d="M246 12V46" stroke="#97AFF3" stroke-opacity="0.57"/>
<defs>
<linearGradient id="paint0_linear" x1="117.345" y1="249.41" x2="198.91" y2="149.9" gradientUnits="userSpaceOnUse">
<stop offset="0.1757" stop-color="#2696FF"/>
<stop offset="0.8405" stop-color="#2696FF"/>
</linearGradient>
<clipPath id="clip0">
<rect width="169" height="169" fill="white" transform="translate(66 111)"/>
</clipPath>
</defs>
</svg>
