<svg width="245" height="76" viewBox="0 0 245 76" fill="none" xmlns="http://www.w3.org/2000/svg">
<rect width="245" height="76" rx="10" fill="#ECEFF1"/>
<rect x="11.229" y="9.24316" width="67.375" height="28.7568" rx="14.3784" fill="white"/>
<path d="M44.7676 9.8064V37.5913" stroke="#97AFF3" stroke-opacity="0.57"/>
<path d="M88.8125 23.6215C88.8125 15.6806 95.2499 9.24316 103.191 9.24316H122.5V37.9999H103.191C95.2499 37.9999 88.8125 31.5625 88.8125 23.6215V23.6215Z" fill="#636262"/>
<path d="M156.188 23.6216C156.188 31.5626 149.75 38 141.809 38L122.5 38L122.5 9.24324L141.809 9.24324C149.75 9.24324 156.188 15.6807 156.188 23.6216V23.6216Z" fill="white"/>
<path d="M108.833 23.697H109.844C110.355 23.6925 110.758 23.5603 111.054 23.3005C111.355 23.0408 111.505 22.6648 111.505 22.1726C111.505 21.6986 111.38 21.3318 111.129 21.072C110.883 20.8077 110.505 20.6755 109.995 20.6755C109.548 20.6755 109.181 20.8054 108.894 21.0652C108.607 21.3204 108.463 21.6554 108.463 22.0701H106.802C106.802 21.5597 106.937 21.0948 107.206 20.6755C107.479 20.2563 107.857 19.9304 108.34 19.698C108.828 19.461 109.373 19.3425 109.974 19.3425C110.968 19.3425 111.747 19.5932 112.312 20.0945C112.882 20.5912 113.167 21.2839 113.167 22.1726C113.167 22.6192 113.023 23.0408 112.736 23.4373C112.453 23.8292 112.086 24.1254 111.635 24.3259C112.182 24.5128 112.597 24.8067 112.879 25.2078C113.167 25.6088 113.31 26.0873 113.31 26.6433C113.31 27.5365 113.002 28.2475 112.387 28.7761C111.777 29.3048 110.972 29.5691 109.974 29.5691C109.017 29.5691 108.233 29.3139 107.623 28.8035C107.012 28.2931 106.707 27.614 106.707 26.7664H108.368C108.368 27.2039 108.514 27.5593 108.805 27.8328C109.101 28.1062 109.498 28.2429 109.995 28.2429C110.51 28.2429 110.915 28.1062 111.211 27.8328C111.508 27.5593 111.656 27.1628 111.656 26.6433C111.656 26.1192 111.501 25.7159 111.191 25.4333C110.881 25.1508 110.421 25.0095 109.81 25.0095H108.833V23.697Z" fill="white"/>
<path d="M139.639 25.1379H140.788V26.3757H139.639V28.4324H138.096V26.3757H134.104L134.059 25.4363L138.045 19.1902H139.639V25.1379ZM135.678 25.1379H138.096V21.2786L137.982 21.4817L135.678 25.1379Z" fill="#1E88E5"/>
<path d="M166.046 23.3676C166.046 15.4267 172.484 8.98926 180.425 8.98926H199.734V37.746H180.425C172.484 37.746 166.046 31.3086 166.046 23.3676V23.3676Z" fill="white"/>
<path d="M233.421 23.3677C233.421 31.3087 226.984 37.7461 219.043 37.7461L199.734 37.7461L199.734 8.98934L219.043 8.98934C226.984 8.98934 233.421 15.4268 233.421 23.3677V23.3677Z" fill="#1E88E5"/>
<path d="M216.454 18.8918V20.1677H216.263C215.4 20.1804 214.71 20.4174 214.194 20.8787C213.678 21.3399 213.371 21.9937 213.273 22.8401C213.769 22.3196 214.401 22.0593 215.171 22.0593C215.988 22.0593 216.631 22.3471 217.101 22.9226C217.575 23.4981 217.812 24.2408 217.812 25.1506C217.812 26.0901 217.535 26.8518 216.98 27.4358C216.43 28.0155 215.707 28.3054 214.81 28.3054C213.887 28.3054 213.138 27.9648 212.562 27.2834C211.991 26.6021 211.706 25.7092 211.706 24.6047V24.0779C211.706 22.4571 212.099 21.1876 212.886 20.2693C213.678 19.351 214.814 18.8918 216.295 18.8918H216.454ZM214.797 23.3035C214.458 23.3035 214.147 23.3987 213.864 23.5891C213.584 23.7795 213.379 24.0334 213.248 24.3508V24.8206C213.248 25.5061 213.392 26.052 213.68 26.4583C213.967 26.8603 214.34 27.0613 214.797 27.0613C215.254 27.0613 215.616 26.8899 215.882 26.5471C216.149 26.2043 216.282 25.7537 216.282 25.1951C216.282 24.6365 216.147 24.1816 215.876 23.8303C215.605 23.4791 215.245 23.3035 214.797 23.3035Z" fill="white"/>
<path d="M32.7285 48.115C32.7285 49.1371 32.5365 49.9086 32.1523 50.4294C31.7715 50.947 31.1904 51.2058 30.4092 51.2058C29.641 51.2058 29.0615 50.9535 28.6709 50.449C28.2835 49.9412 28.085 49.1908 28.0752 48.198V46.9675C28.0752 45.9454 28.2656 45.1788 28.6465 44.6677C29.0306 44.1567 29.6149 43.9011 30.3994 43.9011C31.1774 43.9011 31.7568 44.1501 32.1377 44.6482C32.5218 45.1462 32.7188 45.8917 32.7285 46.8845V48.115ZM31.542 46.7869C31.542 46.1195 31.4508 45.6313 31.2686 45.322C31.0863 45.0095 30.7965 44.8533 30.3994 44.8533C30.012 44.8533 29.7272 45.0014 29.5449 45.2976C29.3626 45.5906 29.2666 46.0496 29.2568 46.6746V48.2859C29.2568 48.95 29.3496 49.4447 29.5352 49.7703C29.7207 50.0958 30.012 50.2585 30.4092 50.2585C30.79 50.2585 31.0716 50.1088 31.2539 49.8093C31.4362 49.5066 31.5322 49.0346 31.542 48.3933V46.7869Z" fill="#3893D0"/>
<path d="M32.7285 61.4663C32.7285 62.4884 32.5365 63.2599 32.1523 63.7808C31.7715 64.2983 31.1904 64.5571 30.4092 64.5571C29.641 64.5571 29.0615 64.3049 28.6709 63.8003C28.2835 63.2925 28.085 62.5422 28.0752 61.5493V60.3188C28.0752 59.2967 28.2656 58.5301 28.6465 58.019C29.0306 57.508 29.6149 57.2524 30.3994 57.2524C31.1774 57.2524 31.7568 57.5015 32.1377 57.9995C32.5218 58.4976 32.7188 59.243 32.7285 60.2358V61.4663ZM31.542 60.1382C31.542 59.4709 31.4508 58.9826 31.2686 58.6733C31.0863 58.3608 30.7965 58.2046 30.3994 58.2046C30.012 58.2046 29.7272 58.3527 29.5449 58.6489C29.3626 58.9419 29.2666 59.4009 29.2568 60.0259V61.6372C29.2568 62.3013 29.3496 62.7961 29.5352 63.1216C29.7207 63.4471 30.012 63.6099 30.4092 63.6099C30.79 63.6099 31.0716 63.4601 31.2539 63.1606C31.4362 62.8579 31.5322 62.3859 31.542 61.7446V60.1382Z" fill="#636262"/>
<path d="M60.291 48.115C60.291 49.1371 60.099 49.9086 59.7148 50.4294C59.334 50.947 58.7529 51.2058 57.9717 51.2058C57.2035 51.2058 56.624 50.9535 56.2334 50.449C55.846 49.9412 55.6475 49.1908 55.6377 48.198V46.9675C55.6377 45.9454 55.8281 45.1788 56.209 44.6677C56.5931 44.1567 57.1774 43.9011 57.9619 43.9011C58.7399 43.9011 59.3193 44.1501 59.7002 44.6482C60.0843 45.1462 60.2812 45.8917 60.291 46.8845V48.115ZM59.1045 46.7869C59.1045 46.1195 59.0133 45.6313 58.8311 45.322C58.6488 45.0095 58.359 44.8533 57.9619 44.8533C57.5745 44.8533 57.2897 45.0014 57.1074 45.2976C56.9251 45.5906 56.8291 46.0496 56.8193 46.6746V48.2859C56.8193 48.95 56.9121 49.4447 57.0977 49.7703C57.2832 50.0958 57.5745 50.2585 57.9717 50.2585C58.3525 50.2585 58.6341 50.1088 58.8164 49.8093C58.9987 49.5066 59.0947 49.0346 59.1045 48.3933V46.7869Z" fill="#1E88E5"/>
<path d="M60.291 61.4663C60.291 62.4884 60.099 63.2599 59.7148 63.7808C59.334 64.2983 58.7529 64.5571 57.9717 64.5571C57.2035 64.5571 56.624 64.3049 56.2334 63.8003C55.846 63.2925 55.6475 62.5422 55.6377 61.5493V60.3188C55.6377 59.2967 55.8281 58.5301 56.209 58.019C56.5931 57.508 57.1774 57.2524 57.9619 57.2524C58.7399 57.2524 59.3193 57.5015 59.7002 57.9995C60.0843 58.4976 60.2812 59.243 60.291 60.2358V61.4663ZM59.1045 60.1382C59.1045 59.4709 59.0133 58.9826 58.8311 58.6733C58.6488 58.3608 58.359 58.2046 57.9619 58.2046C57.5745 58.2046 57.2897 58.3527 57.1074 58.6489C56.9251 58.9419 56.8291 59.4009 56.8193 60.0259V61.6372C56.8193 62.3013 56.9121 62.7961 57.0977 63.1216C57.2832 63.4471 57.5745 63.6099 57.9717 63.6099C58.3525 63.6099 58.6341 63.4601 58.8164 63.1606C58.9987 62.8579 59.0947 62.3859 59.1045 61.7446V60.1382Z" fill="#636262"/>
<path d="M114.395 48.115C114.395 49.1371 114.203 49.9086 113.819 50.4294C113.438 50.947 112.857 51.2058 112.076 51.2058C111.307 51.2058 110.728 50.9535 110.337 50.449C109.95 49.9412 109.751 49.1908 109.742 48.198V46.9675C109.742 45.9454 109.932 45.1788 110.313 44.6677C110.697 44.1567 111.281 43.9011 112.066 43.9011C112.844 43.9011 113.423 44.1501 113.804 44.6482C114.188 45.1462 114.385 45.8917 114.395 46.8845V48.115ZM113.208 46.7869C113.208 46.1195 113.117 45.6313 112.935 45.322C112.753 45.0095 112.463 44.8533 112.066 44.8533C111.679 44.8533 111.394 45.0014 111.211 45.2976C111.029 45.5906 110.933 46.0496 110.923 46.6746V48.2859C110.923 48.95 111.016 49.4447 111.202 49.7703C111.387 50.0958 111.679 50.2585 112.076 50.2585C112.457 50.2585 112.738 50.1088 112.92 49.8093C113.103 49.5066 113.199 49.0346 113.208 48.3933V46.7869Z" fill="#1E88E5"/>
<path d="M114.395 61.4663C114.395 62.4884 114.203 63.2599 113.819 63.7808C113.438 64.2983 112.857 64.5571 112.076 64.5571C111.307 64.5571 110.728 64.3049 110.337 63.8003C109.95 63.2925 109.751 62.5422 109.742 61.5493V60.3188C109.742 59.2967 109.932 58.5301 110.313 58.019C110.697 57.508 111.281 57.2524 112.066 57.2524C112.844 57.2524 113.423 57.5015 113.804 57.9995C114.188 58.4976 114.385 59.243 114.395 60.2358V61.4663ZM113.208 60.1382C113.208 59.4709 113.117 58.9826 112.935 58.6733C112.753 58.3608 112.463 58.2046 112.066 58.2046C111.679 58.2046 111.394 58.3527 111.211 58.6489C111.029 58.9419 110.933 59.4009 110.923 60.0259V61.6372C110.923 62.3013 111.016 62.7961 111.202 63.1216C111.387 63.4471 111.679 63.6099 112.076 63.6099C112.457 63.6099 112.738 63.4601 112.92 63.1606C113.103 62.8579 113.199 62.3859 113.208 61.7446V60.1382Z" fill="#636262"/>
<path d="M141.958 48.115C141.958 49.1371 141.765 49.9086 141.381 50.4294C141 50.947 140.419 51.2058 139.638 51.2058C138.87 51.2058 138.291 50.9535 137.9 50.449C137.513 49.9412 137.314 49.1908 137.304 48.198V46.9675C137.304 45.9454 137.495 45.1788 137.875 44.6677C138.26 44.1567 138.844 43.9011 139.628 43.9011C140.406 43.9011 140.986 44.1501 141.367 44.6482C141.751 45.1462 141.948 45.8917 141.958 46.8845V48.115ZM140.771 46.7869C140.771 46.1195 140.68 45.6313 140.498 45.322C140.315 45.0095 140.026 44.8533 139.628 44.8533C139.241 44.8533 138.956 45.0014 138.774 45.2976C138.592 45.5906 138.496 46.0496 138.486 46.6746V48.2859C138.486 48.95 138.579 49.4447 138.764 49.7703C138.95 50.0958 139.241 50.2585 139.638 50.2585C140.019 50.2585 140.301 50.1088 140.483 49.8093C140.665 49.5066 140.761 49.0346 140.771 48.3933V46.7869Z" fill="#1E88E5"/>
<path d="M141.958 61.4663C141.958 62.4884 141.765 63.2599 141.381 63.7808C141 64.2983 140.419 64.5571 139.638 64.5571C138.87 64.5571 138.291 64.3049 137.9 63.8003C137.513 63.2925 137.314 62.5422 137.304 61.5493V60.3188C137.304 59.2967 137.495 58.5301 137.875 58.019C138.26 57.508 138.844 57.2524 139.628 57.2524C140.406 57.2524 140.986 57.5015 141.367 57.9995C141.751 58.4976 141.948 59.243 141.958 60.2358V61.4663ZM140.771 60.1382C140.771 59.4709 140.68 58.9826 140.498 58.6733C140.315 58.3608 140.026 58.2046 139.628 58.2046C139.241 58.2046 138.956 58.3527 138.774 58.6489C138.592 58.9419 138.496 59.4009 138.486 60.0259V61.6372C138.486 62.3013 138.579 62.7961 138.764 63.1216C138.95 63.4471 139.241 63.6099 139.638 63.6099C140.019 63.6099 140.301 63.4601 140.483 63.1606C140.665 62.8579 140.761 62.3859 140.771 61.7446V60.1382Z" fill="#636262"/>
<path d="M194.02 48.115C194.02 49.1371 193.828 49.9086 193.444 50.4294C193.063 50.947 192.482 51.2058 191.701 51.2058C190.932 51.2058 190.353 50.9535 189.962 50.449C189.575 49.9412 189.376 49.1908 189.367 48.198V46.9675C189.367 45.9454 189.557 45.1788 189.938 44.6677C190.322 44.1567 190.906 43.9011 191.691 43.9011C192.469 43.9011 193.048 44.1501 193.429 44.6482C193.813 45.1462 194.01 45.8917 194.02 46.8845V48.115ZM192.833 46.7869C192.833 46.1195 192.742 45.6313 192.56 45.322C192.378 45.0095 192.088 44.8533 191.691 44.8533C191.304 44.8533 191.019 45.0014 190.836 45.2976C190.654 45.5906 190.558 46.0496 190.548 46.6746V48.2859C190.548 48.95 190.641 49.4447 190.827 49.7703C191.012 50.0958 191.304 50.2585 191.701 50.2585C192.082 50.2585 192.363 50.1088 192.545 49.8093C192.728 49.5066 192.824 49.0346 192.833 48.3933V46.7869Z" fill="#1E88E5"/>
<path d="M194.02 61.4663C194.02 62.4884 193.828 63.2599 193.444 63.7808C193.063 64.2983 192.482 64.5571 191.701 64.5571C190.932 64.5571 190.353 64.3049 189.962 63.8003C189.575 63.2925 189.376 62.5422 189.367 61.5493V60.3188C189.367 59.2967 189.557 58.5301 189.938 58.019C190.322 57.508 190.906 57.2524 191.691 57.2524C192.469 57.2524 193.048 57.5015 193.429 57.9995C193.813 58.4976 194.01 59.243 194.02 60.2358V61.4663ZM192.833 60.1382C192.833 59.4709 192.742 58.9826 192.56 58.6733C192.378 58.3608 192.088 58.2046 191.691 58.2046C191.304 58.2046 191.019 58.3527 190.836 58.6489C190.654 58.9419 190.558 59.4009 190.548 60.0259V61.6372C190.548 62.3013 190.641 62.7961 190.827 63.1216C191.012 63.4471 191.304 63.6099 191.701 63.6099C192.082 63.6099 192.363 63.4601 192.545 63.1606C192.728 62.8579 192.824 62.3859 192.833 61.7446V60.1382Z" fill="#636262"/>
<path d="M221.583 48.115C221.583 49.1371 221.39 49.9086 221.006 50.4294C220.625 50.947 220.044 51.2058 219.263 51.2058C218.495 51.2058 217.916 50.9535 217.525 50.449C217.138 49.9412 216.939 49.1908 216.929 48.198V46.9675C216.929 45.9454 217.12 45.1788 217.5 44.6677C217.885 44.1567 218.469 43.9011 219.253 43.9011C220.031 43.9011 220.611 44.1501 220.992 44.6482C221.376 45.1462 221.573 45.8917 221.583 46.8845V48.115ZM220.396 46.7869C220.396 46.1195 220.305 45.6313 220.123 45.322C219.94 45.0095 219.651 44.8533 219.253 44.8533C218.866 44.8533 218.581 45.0014 218.399 45.2976C218.217 45.5906 218.121 46.0496 218.111 46.6746V48.2859C218.111 48.95 218.204 49.4447 218.389 49.7703C218.575 50.0958 218.866 50.2585 219.263 50.2585C219.644 50.2585 219.926 50.1088 220.108 49.8093C220.29 49.5066 220.386 49.0346 220.396 48.3933V46.7869Z" fill="#1E88E5"/>
<path d="M221.583 61.4663C221.583 62.4884 221.39 63.2599 221.006 63.7808C220.625 64.2983 220.044 64.5571 219.263 64.5571C218.495 64.5571 217.916 64.3049 217.525 63.8003C217.138 63.2925 216.939 62.5422 216.929 61.5493V60.3188C216.929 59.2967 217.12 58.5301 217.5 58.019C217.885 57.508 218.469 57.2524 219.253 57.2524C220.031 57.2524 220.611 57.5015 220.992 57.9995C221.376 58.4976 221.573 59.243 221.583 60.2358V61.4663ZM220.396 60.1382C220.396 59.4709 220.305 58.9826 220.123 58.6733C219.94 58.3608 219.651 58.2046 219.253 58.2046C218.866 58.2046 218.581 58.3527 218.399 58.6489C218.217 58.9419 218.121 59.4009 218.111 60.0259V61.6372C218.111 62.3013 218.204 62.7961 218.389 63.1216C218.575 63.4471 218.866 63.6099 219.263 63.6099C219.644 63.6099 219.926 63.4601 220.108 63.1606C220.29 62.8579 220.386 62.3859 220.396 61.7446V60.1382Z" fill="#636262"/>
<path d="M32.9175 29.344H31.2632V21.3528L28.8228 22.1868V20.7854L32.7056 19.3567H32.9175V29.344Z" fill="#979797"/>
<path d="M62.7861 29.344H56.0938V28.2024L59.4092 24.5862C59.8877 24.053 60.2272 23.6086 60.4277 23.2532C60.6328 22.8931 60.7354 22.5331 60.7354 22.1731C60.7354 21.6991 60.6009 21.3163 60.332 21.0247C60.0677 20.733 59.71 20.5872 59.2588 20.5872C58.721 20.5872 58.304 20.7512 58.0078 21.0793C57.7116 21.4075 57.5635 21.8564 57.5635 22.426H55.9023C55.9023 21.8199 56.0391 21.2753 56.3125 20.7922C56.5905 20.3046 56.9847 19.9264 57.4951 19.6575C58.0101 19.3886 58.6025 19.2542 59.2725 19.2542C60.2386 19.2542 60.9997 19.498 61.5557 19.9856C62.1162 20.4687 62.3965 21.1386 62.3965 21.9954C62.3965 22.4921 62.2552 23.0139 61.9727 23.5608C61.6947 24.1031 61.2367 24.7206 60.5986 25.4133L58.165 28.0178H62.7861V29.344Z" fill="#1E88E5"/>
<path d="M183.515 24.4084L184.055 19.3909H189.401V20.8264H185.436L185.163 23.2053C185.623 22.941 186.142 22.8088 186.721 22.8088C187.669 22.8088 188.405 23.1119 188.929 23.718C189.458 24.3241 189.722 25.1399 189.722 26.1653C189.722 27.177 189.431 27.9836 188.847 28.5852C188.264 29.1822 187.464 29.4807 186.448 29.4807C185.536 29.4807 184.78 29.2232 184.178 28.7083C183.581 28.1887 183.258 27.5051 183.208 26.6575H184.814C184.878 27.1405 185.051 27.512 185.333 27.7717C185.616 28.0269 185.985 28.1545 186.441 28.1545C186.951 28.1545 187.348 27.9722 187.63 27.6077C187.917 27.2431 188.061 26.7463 188.061 26.1174C188.061 25.5113 187.904 25.0328 187.589 24.6819C187.275 24.3264 186.842 24.1487 186.291 24.1487C185.99 24.1487 185.735 24.1897 185.525 24.2717C185.315 24.3492 185.087 24.5042 184.841 24.7366L183.515 24.4084Z" fill="#979797"/>
</svg>
