<svg width="301" height="281" viewBox="0 0 301 281" fill="none" xmlns="http://www.w3.org/2000/svg">
<g clip-path="url(#clip0)">
<path d="M150.501 280.515C104.178 280.515 66.4873 242.824 66.4873 196.501C66.4873 150.178 104.178 112.487 150.501 112.487C196.824 112.487 234.515 150.178 234.515 196.501C234.515 242.824 196.824 280.515 150.501 280.515ZM150.501 129.62C113.62 129.62 83.6206 159.62 83.6206 196.501C83.6206 233.382 113.62 263.381 150.501 263.381C187.382 263.381 217.382 233.382 217.382 196.501C217.382 159.62 187.382 129.62 150.501 129.62Z" fill="#EFF0F2"/>
<path d="M150.5 281C103.907 281 66 243.093 66 196.5C66 191.498 70.0511 187.447 75.0528 187.447C80.0545 187.447 84.1056 191.498 84.1056 196.5C84.1056 233.111 113.889 262.894 150.5 262.894C187.111 262.894 216.894 233.111 216.894 196.5C216.894 159.889 187.111 130.106 150.5 130.106C145.498 130.106 141.447 126.055 141.447 121.053C141.447 116.051 145.498 112 150.5 112C197.093 112 235 149.907 235 196.5C235 243.093 197.093 281 150.5 281Z" fill="url(#paint0_linear)"/>
<path d="M136.088 210.388L136.17 211.712C137.061 210.673 138.28 210.154 139.827 210.154C141.522 210.154 142.682 210.802 143.307 212.099C144.229 210.802 145.526 210.154 147.198 210.154C148.596 210.154 149.635 210.54 150.315 211.314C151.002 212.087 151.354 213.228 151.37 214.736V223.068H148.522V214.818C148.522 214.013 148.346 213.423 147.995 213.048C147.643 212.673 147.061 212.486 146.248 212.486C145.6 212.486 145.069 212.661 144.655 213.013C144.248 213.357 143.963 213.81 143.799 214.372L143.811 223.068H140.963V214.724C140.924 213.232 140.162 212.486 138.678 212.486C137.537 212.486 136.729 212.95 136.252 213.88V223.068H133.405V210.388H136.088ZM164.35 219.095H157.74L156.357 223.068H153.275L159.721 206.005H162.381L168.838 223.068H165.744L164.35 219.095ZM158.572 216.704H163.517L161.045 209.626L158.572 216.704Z" fill="#6C757D"/>
<path d="M122.033 241.615H120.433V232.373H122.033V241.615ZM125.4 234.747L125.445 235.54C125.952 234.927 126.619 234.62 127.444 234.62C128.874 234.62 129.602 235.439 129.628 237.076V241.615H128.085V237.165C128.085 236.729 127.99 236.408 127.8 236.2C127.613 235.989 127.307 235.883 126.879 235.883C126.257 235.883 125.794 236.164 125.489 236.727V241.615H123.947V234.747H125.4ZM133.249 233.077V234.747H134.461V235.889H133.249V239.723C133.249 239.986 133.3 240.176 133.401 240.295C133.507 240.409 133.693 240.466 133.96 240.466C134.138 240.466 134.317 240.445 134.499 240.403V241.596C134.148 241.693 133.81 241.742 133.484 241.742C132.299 241.742 131.706 241.088 131.706 239.781V235.889H130.577V234.747H131.706V233.077H133.249ZM138.781 241.742C137.803 241.742 137.01 241.435 136.4 240.822C135.795 240.204 135.493 239.383 135.493 238.359V238.168C135.493 237.483 135.624 236.871 135.886 236.334C136.153 235.792 136.525 235.371 137.004 235.071C137.482 234.77 138.015 234.62 138.603 234.62C139.538 234.62 140.26 234.918 140.768 235.515C141.28 236.112 141.536 236.956 141.536 238.048V238.67H137.048C137.095 239.237 137.283 239.685 137.613 240.015C137.947 240.345 138.366 240.51 138.87 240.51C139.576 240.51 140.152 240.225 140.596 239.654L141.428 240.447C141.153 240.858 140.785 241.177 140.323 241.406C139.866 241.63 139.352 241.742 138.781 241.742ZM138.597 235.858C138.174 235.858 137.831 236.006 137.568 236.302C137.31 236.598 137.145 237.011 137.073 237.54H140.012V237.426C139.978 236.909 139.841 236.52 139.6 236.258C139.359 235.991 139.024 235.858 138.597 235.858ZM144.281 234.747L144.325 235.54C144.833 234.927 145.5 234.62 146.325 234.62C147.755 234.62 148.483 235.439 148.509 237.076V241.615H146.966V237.165C146.966 236.729 146.871 236.408 146.68 236.2C146.494 235.989 146.187 235.883 145.76 235.883C145.138 235.883 144.675 236.164 144.37 236.727V241.615H142.827V234.747H144.281ZM154.047 239.749C154.047 239.474 153.933 239.264 153.704 239.12C153.48 238.976 153.105 238.85 152.581 238.74C152.056 238.629 151.618 238.49 151.267 238.321C150.496 237.948 150.111 237.409 150.111 236.702C150.111 236.109 150.361 235.614 150.86 235.217C151.36 234.819 151.994 234.62 152.765 234.62C153.586 234.62 154.248 234.823 154.751 235.229C155.259 235.635 155.513 236.162 155.513 236.81H153.971C153.971 236.514 153.861 236.268 153.641 236.073C153.421 235.875 153.129 235.775 152.765 235.775C152.426 235.775 152.149 235.853 151.933 236.01C151.721 236.167 151.616 236.376 151.616 236.638C151.616 236.875 151.715 237.059 151.914 237.191C152.113 237.322 152.515 237.455 153.12 237.591C153.725 237.722 154.199 237.88 154.542 238.067C154.889 238.249 155.145 238.469 155.31 238.727C155.479 238.985 155.564 239.298 155.564 239.666C155.564 240.284 155.308 240.786 154.796 241.171C154.284 241.552 153.613 241.742 152.784 241.742C152.221 241.742 151.719 241.64 151.279 241.437C150.839 241.234 150.496 240.955 150.251 240.599C150.005 240.244 149.883 239.861 149.883 239.45H151.381C151.402 239.814 151.539 240.096 151.793 240.295C152.047 240.489 152.384 240.587 152.803 240.587C153.209 240.587 153.518 240.51 153.729 240.358C153.941 240.202 154.047 239.998 154.047 239.749ZM158.665 241.615H157.122V234.747H158.665V241.615ZM157.027 232.963C157.027 232.726 157.101 232.529 157.249 232.373C157.401 232.216 157.617 232.138 157.897 232.138C158.176 232.138 158.392 232.216 158.544 232.373C158.696 232.529 158.773 232.726 158.773 232.963C158.773 233.196 158.696 233.391 158.544 233.547C158.392 233.699 158.176 233.776 157.897 233.776C157.617 233.776 157.401 233.699 157.249 233.547C157.101 233.391 157.027 233.196 157.027 232.963ZM160.172 238.13C160.172 237.072 160.418 236.224 160.908 235.585C161.399 234.941 162.057 234.62 162.883 234.62C163.61 234.62 164.199 234.874 164.647 235.382V231.865H166.19V241.615H164.793L164.717 240.904C164.256 241.463 163.64 241.742 162.87 241.742C162.066 241.742 161.414 241.418 160.915 240.771C160.42 240.123 160.172 239.243 160.172 238.13ZM161.715 238.263C161.715 238.962 161.848 239.508 162.115 239.901C162.385 240.29 162.768 240.485 163.263 240.485C163.894 240.485 164.355 240.204 164.647 239.641V236.708C164.364 236.158 163.907 235.883 163.276 235.883C162.777 235.883 162.392 236.082 162.121 236.48C161.85 236.873 161.715 237.468 161.715 238.263ZM172.014 241.615C171.946 241.484 171.887 241.27 171.836 240.974C171.345 241.486 170.744 241.742 170.033 241.742C169.343 241.742 168.781 241.545 168.345 241.152C167.909 240.758 167.691 240.271 167.691 239.692C167.691 238.96 167.962 238.399 168.503 238.01C169.049 237.616 169.828 237.419 170.839 237.419H171.785V236.969C171.785 236.613 171.686 236.33 171.487 236.118C171.288 235.902 170.985 235.794 170.579 235.794C170.228 235.794 169.94 235.883 169.716 236.061C169.491 236.234 169.379 236.456 169.379 236.727H167.837C167.837 236.351 167.962 235.999 168.211 235.674C168.461 235.344 168.8 235.085 169.227 234.899C169.659 234.713 170.139 234.62 170.668 234.62C171.472 234.62 172.113 234.823 172.591 235.229C173.069 235.631 173.315 236.198 173.328 236.93V240.028C173.328 240.646 173.414 241.139 173.588 241.507V241.615H172.014ZM170.319 240.504C170.623 240.504 170.909 240.43 171.176 240.282C171.447 240.134 171.65 239.935 171.785 239.685V238.39H170.954C170.382 238.39 169.953 238.49 169.665 238.689C169.377 238.888 169.233 239.169 169.233 239.533C169.233 239.829 169.331 240.066 169.525 240.244C169.724 240.417 169.989 240.504 170.319 240.504ZM174.765 238.13C174.765 237.072 175.011 236.224 175.502 235.585C175.992 234.941 176.65 234.62 177.476 234.62C178.204 234.62 178.792 234.874 179.24 235.382V231.865H180.783V241.615H179.386L179.31 240.904C178.849 241.463 178.233 241.742 177.463 241.742C176.659 241.742 176.007 241.418 175.508 240.771C175.013 240.123 174.765 239.243 174.765 238.13ZM176.308 238.263C176.308 238.962 176.441 239.508 176.708 239.901C176.978 240.29 177.361 240.485 177.857 240.485C178.487 240.485 178.948 240.204 179.24 239.641V236.708C178.957 236.158 178.5 235.883 177.869 235.883C177.37 235.883 176.985 236.082 176.714 236.48C176.443 236.873 176.308 237.468 176.308 238.263Z" fill="#6C757D"/>
</g>
<path d="M137.864 171.03V167.91H144.104V189.78H140.654V171.03H137.864ZM149.593 173.31C149.713 171.45 150.423 170 151.723 168.96C153.043 167.92 154.723 167.4 156.763 167.4C158.163 167.4 159.373 167.65 160.393 168.15C161.413 168.65 162.183 169.33 162.703 170.19C163.223 171.05 163.483 172.02 163.483 173.1C163.483 174.34 163.153 175.4 162.493 176.28C161.833 177.16 161.043 177.75 160.123 178.05V178.17C161.303 178.53 162.223 179.19 162.883 180.15C163.543 181.09 163.873 182.3 163.873 183.78C163.873 184.96 163.603 186.01 163.063 186.93C162.523 187.85 161.723 188.58 160.663 189.12C159.603 189.64 158.333 189.9 156.853 189.9C154.693 189.9 152.913 189.35 151.513 188.25C150.133 187.13 149.393 185.53 149.293 183.45H152.593C152.673 184.51 153.083 185.38 153.823 186.06C154.563 186.72 155.563 187.05 156.823 187.05C158.043 187.05 158.983 186.72 159.643 186.06C160.303 185.38 160.633 184.51 160.633 183.45C160.633 182.05 160.183 181.06 159.283 180.48C158.403 179.88 157.043 179.58 155.203 179.58H154.423V176.76H155.233C156.853 176.74 158.083 176.47 158.923 175.95C159.783 175.43 160.213 174.61 160.213 173.49C160.213 172.53 159.903 171.77 159.283 171.21C158.663 170.63 157.783 170.34 156.643 170.34C155.523 170.34 154.653 170.63 154.033 171.21C153.413 171.77 153.043 172.47 152.923 173.31H149.593Z" fill="#6C757D"/>
<rect width="301" height="93" rx="10" fill="#ECEFF1"/>
<rect x="13.7959" y="11.3108" width="82.775" height="35.1892" rx="17.5946" fill="white"/>
<path d="M55 12V46" stroke="#97AFF3" stroke-opacity="0.57"/>
<path d="M109.112 28.9054C109.112 19.1882 116.99 11.3108 126.707 11.3108H150.5V46.5H126.707C116.99 46.5 109.112 38.6226 109.112 28.9054V28.9054Z" fill="#636262"/>
<path d="M191.888 28.9054C191.888 38.6226 184.01 46.5 174.293 46.5L150.5 46.5L150.5 11.3108L174.293 11.3108C184.01 11.3108 191.888 19.1882 191.888 28.9054V28.9054Z" fill="white"/>
<path d="M133.099 27.3728H134.111C134.621 27.3682 135.025 27.2361 135.321 26.9763C135.622 26.7166 135.772 26.3406 135.772 25.8484C135.772 25.3744 135.647 25.0076 135.396 24.7478C135.15 24.4835 134.772 24.3513 134.261 24.3513C133.815 24.3513 133.448 24.4812 133.161 24.741C132.874 24.9962 132.73 25.3311 132.73 25.7458H131.069C131.069 25.2354 131.203 24.7706 131.472 24.3513C131.746 23.932 132.124 23.6062 132.607 23.3738C133.095 23.1368 133.639 23.0183 134.241 23.0183C135.234 23.0183 136.014 23.269 136.579 23.7703C137.148 24.267 137.433 24.9597 137.433 25.8484C137.433 26.295 137.29 26.7166 137.002 27.113C136.72 27.505 136.353 27.8012 135.902 28.0017C136.449 28.1886 136.863 28.4825 137.146 28.8835C137.433 29.2846 137.577 29.7631 137.577 30.3191C137.577 31.2123 137.269 31.9233 136.654 32.4519C136.043 32.9806 135.239 33.2449 134.241 33.2449C133.284 33.2449 132.5 32.9897 131.889 32.4792C131.278 31.9688 130.973 31.2898 130.973 30.4421H132.634C132.634 30.8796 132.78 31.2351 133.072 31.5085C133.368 31.782 133.764 31.9187 134.261 31.9187C134.776 31.9187 135.182 31.782 135.478 31.5085C135.774 31.2351 135.922 30.8386 135.922 30.3191C135.922 29.795 135.767 29.3917 135.458 29.1091C135.148 28.8266 134.687 28.6853 134.077 28.6853H133.099V27.3728Z" fill="white"/>
<path d="M170.206 28.8137H171.354V30.0515H170.206V32.1082H168.663V30.0515H164.67L164.626 29.1121L168.612 22.866H170.206V28.8137ZM166.245 28.8137H168.663V24.9543L168.549 25.1575L166.245 28.8137Z" fill="#1E88E5"/>
<path d="M204 28.5946C204 18.8774 211.877 11 221.595 11H245.387V46.1892H221.595C211.877 46.1892 204 38.3118 204 28.5946V28.5946Z" fill="white"/>
<path d="M286.775 28.5946C286.775 38.3118 278.898 46.1892 269.18 46.1892L245.387 46.1892L245.387 11L269.18 11C278.898 11 286.775 18.8774 286.775 28.5946V28.5946Z" fill="#1E88E5"/>
<path d="M264.674 22.5107V23.7866H264.484C263.621 23.7993 262.931 24.0363 262.415 24.4976C261.898 24.9588 261.591 25.6126 261.494 26.459C261.989 25.9385 262.622 25.6782 263.392 25.6782C264.209 25.6782 264.852 25.966 265.322 26.5415C265.796 27.117 266.033 27.8597 266.033 28.7695C266.033 29.709 265.756 30.4707 265.201 31.0547C264.651 31.6344 263.927 31.9243 263.03 31.9243C262.108 31.9243 261.359 31.5837 260.783 30.9023C260.212 30.221 259.926 29.3281 259.926 28.2236V27.6968C259.926 26.076 260.32 24.8065 261.107 23.8882C261.898 22.9699 263.035 22.5107 264.516 22.5107H264.674ZM263.018 26.9224C262.679 26.9224 262.368 27.0176 262.084 27.208C261.805 27.3984 261.6 27.6523 261.469 27.9697V28.4395C261.469 29.125 261.613 29.6709 261.9 30.0771C262.188 30.4792 262.561 30.6802 263.018 30.6802C263.475 30.6802 263.836 30.5088 264.103 30.166C264.37 29.8232 264.503 29.3726 264.503 28.814C264.503 28.2554 264.368 27.8005 264.097 27.4492C263.826 27.098 263.466 26.9224 263.018 26.9224Z" fill="white"/>
<path d="M39.0283 57.5339C39.0283 58.5561 38.8363 59.3276 38.4521 59.8484C38.0713 60.366 37.4902 60.6248 36.709 60.6248C35.9408 60.6248 35.3613 60.3725 34.9707 59.8679C34.5833 59.3601 34.3848 58.6098 34.375 57.6169V56.3865C34.375 55.3643 34.5654 54.5977 34.9463 54.0867C35.3304 53.5756 35.9147 53.3201 36.6992 53.3201C37.4772 53.3201 38.0566 53.5691 38.4375 54.0671C38.8216 54.5652 39.0186 55.3106 39.0283 56.3035V57.5339ZM37.8418 56.2058C37.8418 55.5385 37.7507 55.0502 37.5684 54.741C37.3861 54.4285 37.0964 54.2722 36.6992 54.2722C36.3118 54.2722 36.027 54.4203 35.8447 54.7166C35.6624 55.0095 35.5664 55.4685 35.5566 56.0935V57.7048C35.5566 58.3689 35.6494 58.8637 35.835 59.1892C36.0205 59.5147 36.3118 59.6775 36.709 59.6775C37.0898 59.6775 37.3714 59.5278 37.5537 59.2283C37.736 58.9255 37.832 58.4535 37.8418 57.8123V56.2058Z" fill="#3893D0"/>
<path d="M39.0283 73.8716C39.0283 74.8937 38.8363 75.6652 38.4521 76.186C38.0713 76.7036 37.4902 76.9624 36.709 76.9624C35.9408 76.9624 35.3613 76.7101 34.9707 76.2056C34.5833 75.6978 34.3848 74.9474 34.375 73.9546V72.7241C34.375 71.702 34.5654 70.9354 34.9463 70.4243C35.3304 69.9132 35.9147 69.6577 36.6992 69.6577C37.4772 69.6577 38.0566 69.9067 38.4375 70.4048C38.8216 70.9028 39.0186 71.6483 39.0283 72.6411V73.8716ZM37.8418 72.5435C37.8418 71.8761 37.7507 71.3879 37.5684 71.0786C37.3861 70.7661 37.0964 70.6099 36.6992 70.6099C36.3118 70.6099 36.027 70.758 35.8447 71.0542C35.6624 71.3472 35.5664 71.8062 35.5566 72.4312V74.0425C35.5566 74.7065 35.6494 75.2013 35.835 75.5269C36.0205 75.8524 36.3118 76.0151 36.709 76.0151C37.0898 76.0151 37.3714 75.8654 37.5537 75.5659C37.736 75.2632 37.832 74.7912 37.8418 74.1499V72.5435Z" fill="#636262"/>
<path d="M72.8911 57.5339C72.8911 58.5561 72.6991 59.3276 72.3149 59.8484C71.9341 60.366 71.353 60.6248 70.5718 60.6248C69.8035 60.6248 69.2241 60.3725 68.8335 59.8679C68.4461 59.3601 68.2476 58.6098 68.2378 57.6169V56.3865C68.2378 55.3643 68.4282 54.5977 68.8091 54.0867C69.1932 53.5756 69.7775 53.3201 70.562 53.3201C71.34 53.3201 71.9194 53.5691 72.3003 54.0671C72.6844 54.5652 72.8813 55.3106 72.8911 56.3035V57.5339ZM71.7046 56.2058C71.7046 55.5385 71.6134 55.0502 71.4312 54.741C71.2489 54.4285 70.9591 54.2722 70.562 54.2722C70.1746 54.2722 69.8898 54.4203 69.7075 54.7166C69.5252 55.0095 69.4292 55.4685 69.4194 56.0935V57.7048C69.4194 58.3689 69.5122 58.8637 69.6978 59.1892C69.8833 59.5147 70.1746 59.6775 70.5718 59.6775C70.9526 59.6775 71.2342 59.5278 71.4165 59.2283C71.5988 58.9255 71.6948 58.4535 71.7046 57.8123V56.2058Z" fill="#1E88E5"/>
<path d="M72.8911 73.8716C72.8911 74.8937 72.6991 75.6652 72.3149 76.186C71.9341 76.7036 71.353 76.9624 70.5718 76.9624C69.8035 76.9624 69.2241 76.7101 68.8335 76.2056C68.4461 75.6978 68.2476 74.9474 68.2378 73.9546V72.7241C68.2378 71.702 68.4282 70.9354 68.8091 70.4243C69.1932 69.9132 69.7775 69.6577 70.562 69.6577C71.34 69.6577 71.9194 69.9067 72.3003 70.4048C72.6844 70.9028 72.8813 71.6483 72.8911 72.6411V73.8716ZM71.7046 72.5435C71.7046 71.8761 71.6134 71.3879 71.4312 71.0786C71.2489 70.7661 70.9591 70.6099 70.562 70.6099C70.1746 70.6099 69.8898 70.758 69.7075 71.0542C69.5252 71.3472 69.4292 71.8062 69.4194 72.4312V74.0425C69.4194 74.7065 69.5122 75.2013 69.6978 75.5269C69.8833 75.8524 70.1746 76.0151 70.5718 76.0151C70.9526 76.0151 71.2342 75.8654 71.4165 75.5659C71.5988 75.2632 71.6948 74.7912 71.7046 74.1499V72.5435Z" fill="#636262"/>
<path d="M139.362 57.5339C139.362 58.5561 139.17 59.3276 138.786 59.8484C138.405 60.366 137.824 60.6248 137.042 60.6248C136.274 60.6248 135.695 60.3725 135.304 59.8679C134.917 59.3601 134.718 58.6098 134.708 57.6169V56.3865C134.708 55.3643 134.899 54.5977 135.28 54.0867C135.664 53.5756 136.248 53.3201 137.033 53.3201C137.811 53.3201 138.39 53.5691 138.771 54.0671C139.155 54.5652 139.352 55.3106 139.362 56.3035V57.5339ZM138.175 56.2058C138.175 55.5385 138.084 55.0502 137.902 54.741C137.72 54.4285 137.43 54.2722 137.033 54.2722C136.645 54.2722 136.361 54.4203 136.178 54.7166C135.996 55.0095 135.9 55.4685 135.89 56.0935V57.7048C135.89 58.3689 135.983 58.8637 136.168 59.1892C136.354 59.5147 136.645 59.6775 137.042 59.6775C137.423 59.6775 137.705 59.5278 137.887 59.2283C138.069 58.9255 138.166 58.4535 138.175 57.8123V56.2058Z" fill="#1E88E5"/>
<path d="M139.362 73.8716C139.362 74.8937 139.17 75.6652 138.786 76.186C138.405 76.7036 137.824 76.9624 137.042 76.9624C136.274 76.9624 135.695 76.7101 135.304 76.2056C134.917 75.6978 134.718 74.9474 134.708 73.9546V72.7241C134.708 71.702 134.899 70.9354 135.28 70.4243C135.664 69.9132 136.248 69.6577 137.033 69.6577C137.811 69.6577 138.39 69.9067 138.771 70.4048C139.155 70.9028 139.352 71.6483 139.362 72.6411V73.8716ZM138.175 72.5435C138.175 71.8761 138.084 71.3879 137.902 71.0786C137.72 70.7661 137.43 70.6099 137.033 70.6099C136.645 70.6099 136.361 70.758 136.178 71.0542C135.996 71.3472 135.9 71.8062 135.89 72.4312V74.0425C135.89 74.7065 135.983 75.2013 136.168 75.5269C136.354 75.8524 136.645 76.0151 137.042 76.0151C137.423 76.0151 137.705 75.8654 137.887 75.5659C138.069 75.2632 138.166 74.7912 138.175 74.1499V72.5435Z" fill="#636262"/>
<path d="M173.224 57.5339C173.224 58.5561 173.032 59.3276 172.648 59.8484C172.267 60.366 171.686 60.6248 170.905 60.6248C170.137 60.6248 169.557 60.3725 169.167 59.8679C168.779 59.3601 168.581 58.6098 168.571 57.6169V56.3865C168.571 55.3643 168.761 54.5977 169.142 54.0867C169.526 53.5756 170.111 53.3201 170.895 53.3201C171.673 53.3201 172.252 53.5691 172.633 54.0671C173.017 54.5652 173.214 55.3106 173.224 56.3035V57.5339ZM172.038 56.2058C172.038 55.5385 171.946 55.0502 171.764 54.741C171.582 54.4285 171.292 54.2722 170.895 54.2722C170.508 54.2722 170.223 54.4203 170.041 54.7166C169.858 55.0095 169.762 55.4685 169.752 56.0935V57.7048C169.752 58.3689 169.845 58.8637 170.031 59.1892C170.216 59.5147 170.508 59.6775 170.905 59.6775C171.286 59.6775 171.567 59.5278 171.75 59.2283C171.932 58.9255 172.028 58.4535 172.038 57.8123V56.2058Z" fill="#1E88E5"/>
<path d="M173.224 73.8716C173.224 74.8937 173.032 75.6652 172.648 76.186C172.267 76.7036 171.686 76.9624 170.905 76.9624C170.137 76.9624 169.557 76.7101 169.167 76.2056C168.779 75.6978 168.581 74.9474 168.571 73.9546V72.7241C168.571 71.702 168.761 70.9354 169.142 70.4243C169.526 69.9132 170.111 69.6577 170.895 69.6577C171.673 69.6577 172.252 69.9067 172.633 70.4048C173.017 70.9028 173.214 71.6483 173.224 72.6411V73.8716ZM172.038 72.5435C172.038 71.8761 171.946 71.3879 171.764 71.0786C171.582 70.7661 171.292 70.6099 170.895 70.6099C170.508 70.6099 170.223 70.758 170.041 71.0542C169.858 71.3472 169.762 71.8062 169.752 72.4312V74.0425C169.752 74.7065 169.845 75.2013 170.031 75.5269C170.216 75.8524 170.508 76.0151 170.905 76.0151C171.286 76.0151 171.567 75.8654 171.75 75.5659C171.932 75.2632 172.028 74.7912 172.038 74.1499V72.5435Z" fill="#636262"/>
<path d="M237.187 57.5339C237.187 58.5561 236.995 59.3276 236.611 59.8484C236.23 60.366 235.649 60.6248 234.868 60.6248C234.099 60.6248 233.52 60.3725 233.129 59.8679C232.742 59.3601 232.543 58.6098 232.534 57.6169V56.3865C232.534 55.3643 232.724 54.5977 233.105 54.0867C233.489 53.5756 234.073 53.3201 234.858 53.3201C235.636 53.3201 236.215 53.5691 236.596 54.0671C236.98 54.5652 237.177 55.3106 237.187 56.3035V57.5339ZM236 56.2058C236 55.5385 235.909 55.0502 235.727 54.741C235.545 54.4285 235.255 54.2722 234.858 54.2722C234.471 54.2722 234.186 54.4203 234.003 54.7166C233.821 55.0095 233.725 55.4685 233.715 56.0935V57.7048C233.715 58.3689 233.808 58.8637 233.994 59.1892C234.179 59.5147 234.471 59.6775 234.868 59.6775C235.249 59.6775 235.53 59.5278 235.712 59.2283C235.895 58.9255 235.991 58.4535 236 57.8123V56.2058Z" fill="#1E88E5"/>
<path d="M237.187 73.8716C237.187 74.8937 236.995 75.6652 236.611 76.186C236.23 76.7036 235.649 76.9624 234.868 76.9624C234.099 76.9624 233.52 76.7101 233.129 76.2056C232.742 75.6978 232.543 74.9474 232.534 73.9546V72.7241C232.534 71.702 232.724 70.9354 233.105 70.4243C233.489 69.9132 234.073 69.6577 234.858 69.6577C235.636 69.6577 236.215 69.9067 236.596 70.4048C236.98 70.9028 237.177 71.6483 237.187 72.6411V73.8716ZM236 72.5435C236 71.8761 235.909 71.3879 235.727 71.0786C235.545 70.7661 235.255 70.6099 234.858 70.6099C234.471 70.6099 234.186 70.758 234.003 71.0542C233.821 71.3472 233.725 71.8062 233.715 72.4312V74.0425C233.715 74.7065 233.808 75.2013 233.994 75.5269C234.179 75.8524 234.471 76.0151 234.868 76.0151C235.249 76.0151 235.53 75.8654 235.712 75.5659C235.895 75.2632 235.991 74.7912 236 74.1499V72.5435Z" fill="#636262"/>
<path d="M271.049 57.5339C271.049 58.5561 270.857 59.3276 270.473 59.8484C270.092 60.366 269.511 60.6248 268.73 60.6248C267.962 60.6248 267.382 60.3725 266.992 59.8679C266.604 59.3601 266.406 58.6098 266.396 57.6169V56.3865C266.396 55.3643 266.586 54.5977 266.967 54.0867C267.351 53.5756 267.936 53.3201 268.72 53.3201C269.498 53.3201 270.078 53.5691 270.458 54.0671C270.843 54.5652 271.04 55.3106 271.049 56.3035V57.5339ZM269.863 56.2058C269.863 55.5385 269.772 55.0502 269.589 54.741C269.407 54.4285 269.117 54.2722 268.72 54.2722C268.333 54.2722 268.048 54.4203 267.866 54.7166C267.683 55.0095 267.587 55.4685 267.578 56.0935V57.7048C267.578 58.3689 267.67 58.8637 267.856 59.1892C268.042 59.5147 268.333 59.6775 268.73 59.6775C269.111 59.6775 269.392 59.5278 269.575 59.2283C269.757 58.9255 269.853 58.4535 269.863 57.8123V56.2058Z" fill="#1E88E5"/>
<path d="M271.049 73.8716C271.049 74.8937 270.857 75.6652 270.473 76.186C270.092 76.7036 269.511 76.9624 268.73 76.9624C267.962 76.9624 267.382 76.7101 266.992 76.2056C266.604 75.6978 266.406 74.9474 266.396 73.9546V72.7241C266.396 71.702 266.586 70.9354 266.967 70.4243C267.351 69.9132 267.936 69.6577 268.72 69.6577C269.498 69.6577 270.078 69.9067 270.458 70.4048C270.843 70.9028 271.04 71.6483 271.049 72.6411V73.8716ZM269.863 72.5435C269.863 71.8761 269.772 71.3879 269.589 71.0786C269.407 70.7661 269.117 70.6099 268.72 70.6099C268.333 70.6099 268.048 70.758 267.866 71.0542C267.683 71.3472 267.587 71.8062 267.578 72.4312V74.0425C267.578 74.7065 267.67 75.2013 267.856 75.5269C268.042 75.8524 268.333 76.0151 268.73 76.0151C269.111 76.0151 269.392 75.8654 269.575 75.5659C269.757 75.2632 269.853 74.7912 269.863 74.1499V72.5435Z" fill="#636262"/>
<path d="M39.2432 33H37.5889V25.0088L35.1484 25.8428V24.4414L39.0312 23.0127H39.2432V33Z" fill="#979797"/>
<path d="M75.4375 33H68.7451V31.8584L72.0605 28.2422C72.5391 27.709 72.8786 27.2646 73.0791 26.9092C73.2842 26.5492 73.3867 26.1891 73.3867 25.8291C73.3867 25.3551 73.2523 24.9723 72.9834 24.6807C72.7191 24.389 72.3613 24.2432 71.9102 24.2432C71.3724 24.2432 70.9554 24.4072 70.6592 24.7354C70.363 25.0635 70.2148 25.5124 70.2148 26.082H68.5537C68.5537 25.4759 68.6904 24.9313 68.9639 24.4482C69.2419 23.9606 69.6361 23.5824 70.1465 23.3135C70.6615 23.0446 71.2539 22.9102 71.9238 22.9102C72.89 22.9102 73.651 23.154 74.207 23.6416C74.7676 24.1247 75.0479 24.7946 75.0479 25.6514C75.0479 26.1481 74.9066 26.6699 74.624 27.2168C74.346 27.7591 73.888 28.3766 73.25 29.0693L70.8164 31.6738H75.4375V33Z" fill="#1E88E5"/>
<path d="M225.189 28.0645L225.729 23.0469H231.075V24.4824H227.11L226.837 26.8613C227.297 26.597 227.817 26.4648 228.396 26.4648C229.343 26.4648 230.079 26.7679 230.604 27.374C231.132 27.9801 231.396 28.7959 231.396 29.8213C231.396 30.833 231.105 31.6396 230.521 32.2412C229.938 32.8382 229.138 33.1367 228.122 33.1367C227.211 33.1367 226.454 32.8792 225.853 32.3643C225.256 31.8447 224.932 31.1611 224.882 30.3135H226.488C226.552 30.7965 226.725 31.168 227.008 31.4277C227.29 31.6829 227.66 31.8105 228.115 31.8105C228.626 31.8105 229.022 31.6283 229.305 31.2637C229.592 30.8991 229.735 30.4023 229.735 29.7734C229.735 29.1673 229.578 28.6888 229.264 28.3379C228.949 27.9824 228.516 27.8047 227.965 27.8047C227.664 27.8047 227.409 27.8457 227.199 27.9277C226.99 28.0052 226.762 28.1602 226.516 28.3926L225.189 28.0645Z" fill="#979797"/>
<defs>
<linearGradient id="paint0_linear" x1="117.345" y1="250.41" x2="198.91" y2="150.9" gradientUnits="userSpaceOnUse">
<stop offset="0.1757" stop-color="#2696FF"/>
<stop offset="0.8405" stop-color="#2696FF"/>
</linearGradient>
<clipPath id="clip0">
<rect width="169" height="169" fill="white" transform="translate(66 112)"/>
</clipPath>
</defs>
</svg>
