<svg width="232" height="269" viewBox="0 0 232 269" fill="none" xmlns="http://www.w3.org/2000/svg">
<g filter="url(#filter0_d)">
<rect x="31.4684" y="8" width="169.958" height="28.6245" rx="14.3122" fill="white"/>
<path d="M35.0464 22.7594C35.0464 16.5841 40.0525 11.578 46.2278 11.578H60.0928V33.9409H46.2279C40.0525 33.9409 35.0464 28.9348 35.0464 22.7594V22.7594Z" fill="#636262"/>
<path d="M49.8695 28.1561H48.598V19.7274L46.0482 20.6639V19.5155L49.6712 18.1552H49.8695V28.1561Z" fill="white"/>
<path d="M86.9283 22.7595C86.9283 28.9348 81.9222 33.9409 75.7468 33.9409L61.8819 33.9409L61.8819 11.578L75.7468 11.578C81.9222 11.578 86.9283 16.5842 86.9283 22.7595V22.7595Z" fill="#1E88E5"/>
<path d="M77.2811 28.1561H70.7596V27.2469L74.205 23.4188C74.7154 22.84 75.0663 22.3706 75.2577 22.0106C75.4537 21.646 75.5516 21.2701 75.5516 20.8827C75.5516 20.3632 75.3944 19.9371 75.08 19.6044C74.7655 19.2717 74.3462 19.1053 73.8221 19.1053C73.1932 19.1053 72.7033 19.2854 72.3524 19.6454C72.0061 20.0009 71.8329 20.4976 71.8329 21.1356H70.5682C70.5682 20.2196 70.8622 19.479 71.4501 18.9139C72.0425 18.3488 72.8332 18.0663 73.8221 18.0663C74.7473 18.0663 75.4787 18.3101 76.0165 18.7977C76.5542 19.2808 76.8231 19.9257 76.8231 20.7323C76.8231 21.7121 76.1988 22.8788 74.9501 24.2323L72.2841 27.1239H77.2811V28.1561Z" fill="white"/>
<path d="M90.5063 22.7594C90.5063 16.5841 95.5124 11.578 101.688 11.578H115.553V33.9409H101.688C95.5124 33.9409 90.5063 28.9348 90.5063 22.7594V22.7594Z" fill="#ECEFF1"/>
<path d="M103.012 22.5643H103.962C104.559 22.5552 105.029 22.398 105.37 22.0927C105.712 21.7873 105.883 21.3749 105.883 20.8553C105.883 19.6887 105.302 19.1053 104.14 19.1053C103.593 19.1053 103.156 19.2626 102.827 19.577C102.504 19.8869 102.342 20.2994 102.342 20.8143H101.077C101.077 20.0259 101.365 19.3719 101.939 18.8524C102.518 18.3283 103.251 18.0663 104.14 18.0663C105.079 18.0663 105.815 18.3147 106.348 18.8114C106.881 19.3081 107.148 19.9986 107.148 20.8827C107.148 21.3156 107.006 21.7349 106.724 22.1405C106.446 22.5461 106.065 22.8492 105.582 23.0497C106.129 23.2229 106.551 23.51 106.847 23.911C107.148 24.3121 107.298 24.802 107.298 25.3807C107.298 26.274 107.006 26.9826 106.423 27.5067C105.84 28.0308 105.081 28.2928 104.147 28.2928C103.213 28.2928 102.451 28.0399 101.864 27.5341C101.28 27.0282 100.989 26.3606 100.989 25.5311H102.26C102.26 26.0552 102.431 26.4745 102.773 26.7889C103.115 27.1034 103.573 27.2606 104.147 27.2606C104.757 27.2606 105.225 27.1011 105.548 26.7821C105.872 26.4631 106.033 26.0051 106.033 25.4081C106.033 24.8293 105.856 24.385 105.5 24.0751C105.145 23.7652 104.632 23.6057 103.962 23.5966H103.012V22.5643Z" fill="#636262"/>
<path d="M142.388 22.7595C142.388 28.9348 137.382 33.9409 131.207 33.9409L117.342 33.9409L117.342 11.578L131.207 11.578C137.382 11.578 142.388 16.5842 142.388 22.7595V22.7595Z" fill="#ECEFF1"/>
<path d="M131.558 24.8134H132.939V25.8456H131.558V28.1561H130.287V25.8456H125.755V25.1005L130.212 18.203H131.558V24.8134ZM127.19 24.8134H130.287V19.9325L130.137 20.2059L127.19 24.8134Z" fill="#1E88E5"/>
<path d="M145.966 22.7594C145.966 16.5841 150.972 11.578 157.148 11.578H171.013V33.9409H157.148C150.972 33.9409 145.966 28.9348 145.966 22.7594V22.7594Z" fill="#ECEFF1"/>
<path d="M157.214 23.1659L157.72 18.203H162.82V19.3719H158.793L158.492 22.0858C158.98 21.7987 159.534 21.6552 160.154 21.6552C161.06 21.6552 161.781 21.9559 162.314 22.5575C162.847 23.1545 163.114 23.9634 163.114 24.9843C163.114 26.0096 162.836 26.8186 162.28 27.411C161.728 27.9989 160.956 28.2928 159.962 28.2928C159.083 28.2928 158.365 28.049 157.809 27.5614C157.253 27.0738 156.936 26.3993 156.859 25.538H158.055C158.132 26.1076 158.335 26.5383 158.663 26.83C158.991 27.1171 159.424 27.2606 159.962 27.2606C160.55 27.2606 161.01 27.0601 161.343 26.6591C161.68 26.258 161.849 25.7043 161.849 24.9979C161.849 24.3326 161.667 23.7994 161.302 23.3983C160.942 22.9927 160.461 22.7899 159.86 22.7899C159.308 22.7899 158.875 22.9107 158.561 23.1522L158.226 23.4257L157.214 23.1659Z" fill="#636262"/>
<path d="M197.848 22.7595C197.848 28.9348 192.842 33.9409 186.667 33.9409L172.802 33.9409L172.802 11.578L186.667 11.578C192.842 11.578 197.848 16.5842 197.848 22.7595V22.7595Z" fill="#ECEFF1"/>
<path d="M186.642 18.1962V19.2694H186.41C185.426 19.2876 184.642 19.5793 184.058 20.1444C183.475 20.7095 183.138 21.5048 183.047 22.5302C183.571 21.9286 184.286 21.6278 185.193 21.6278C186.059 21.6278 186.749 21.9331 187.264 22.5438C187.784 23.1545 188.044 23.9429 188.044 24.9091C188.044 25.9344 187.763 26.7548 187.203 27.37C186.647 27.9852 185.899 28.2928 184.961 28.2928C184.008 28.2928 183.236 27.9283 182.643 27.1991C182.051 26.4654 181.755 25.522 181.755 24.369V23.8837C181.755 22.0516 182.144 20.6525 182.924 19.6864C183.707 18.7157 184.872 18.219 186.417 18.1962H186.642ZM184.981 22.6805C184.548 22.6805 184.149 22.8104 183.785 23.0702C183.42 23.33 183.167 23.6558 183.026 24.0477V24.5126C183.026 25.3329 183.211 25.9937 183.58 26.495C183.949 26.9963 184.409 27.2469 184.961 27.2469C185.53 27.2469 185.977 27.0373 186.301 26.618C186.629 26.1988 186.793 25.6496 186.793 24.9706C186.793 24.287 186.626 23.7356 186.294 23.3163C185.966 22.8925 185.528 22.6805 184.981 22.6805Z" fill="#1E88E5"/>
</g>
<g filter="url(#filter1_d)">
<rect x="38.6245" y="46.4641" width="169.958" height="28.6245" rx="14.3122" transform="rotate(90 38.6245 46.4641)" fill="white"/>
<path d="M23.865 50.0421C30.0403 50.0421 35.0464 55.0482 35.0464 61.2235L35.0464 75.0885L12.6835 75.0885L12.6835 61.2236C12.6835 55.0482 17.6896 50.0421 23.865 50.0421V50.0421Z" fill="#ECEFF1"/>
<path d="M25.2703 69.751H23.9988L23.9988 61.3223L21.449 62.2588L21.449 61.1104L25.0721 59.75H25.2703L25.2703 69.751Z" fill="#636262"/>
<path d="M23.865 101.924C17.6896 101.924 12.6835 96.918 12.6835 90.7426L12.6835 76.8777L35.0464 76.8777L35.0464 90.7426C35.0464 96.918 30.0403 101.924 23.865 101.924V101.924Z" fill="#ECEFF1"/>
<path d="M27.6355 94.7975L21.1141 94.7975L21.1141 93.8883L24.5594 90.0602C25.0698 89.4814 25.4207 89.012 25.6121 88.652C25.8081 88.2874 25.9061 87.9114 25.9061 87.524C25.9061 87.0045 25.7488 86.5784 25.4344 86.2457C25.1199 85.913 24.7006 85.7467 24.1766 85.7467C23.5477 85.7467 23.0577 85.9267 22.7068 86.2867C22.3605 86.6422 22.1873 87.139 22.1873 87.777L20.9227 87.777C20.9227 86.861 21.2166 86.1204 21.8045 85.5553C22.3969 84.9902 23.1876 84.7076 24.1766 84.7076C25.1017 84.7076 25.8331 84.9515 26.3709 85.4391C26.9087 85.9222 27.1775 86.567 27.1775 87.3737C27.1775 88.3535 26.5532 89.5201 25.3045 90.8737L22.6385 93.7653L27.6355 93.7653L27.6355 94.7975Z" fill="#1E88E5"/>
<path d="M23.865 105.502C30.0403 105.502 35.0464 110.508 35.0464 116.684L35.0464 130.548L12.6835 130.548L12.6835 116.684C12.6835 110.508 17.6896 105.502 23.865 105.502V105.502Z" fill="#ECEFF1"/>
<path d="M22.9529 119.619L23.9031 119.619C24.5001 119.61 24.9695 119.453 25.3113 119.147C25.6531 118.842 25.824 118.43 25.824 117.91C25.824 116.743 25.243 116.16 24.0809 116.16C23.534 116.16 23.0965 116.317 22.7684 116.632C22.4448 116.942 22.283 117.354 22.283 117.869L21.0184 117.869C21.0184 117.081 21.3055 116.427 21.8797 115.907C22.4585 115.383 23.1922 115.121 24.0809 115.121C25.0197 115.121 25.7557 115.369 26.2889 115.866C26.8221 116.363 27.0887 117.053 27.0887 117.938C27.0887 118.37 26.9474 118.79 26.6648 119.195C26.3868 119.601 26.0063 119.904 25.5232 120.104C26.0701 120.278 26.4917 120.565 26.7879 120.966C27.0887 121.367 27.2391 121.857 27.2391 122.436C27.2391 123.329 26.9474 124.037 26.3641 124.562C25.7807 125.086 25.0219 125.348 24.0877 125.348C23.1534 125.348 22.3924 125.095 21.8045 124.589C21.2212 124.083 20.9295 123.415 20.9295 122.586L22.201 122.586C22.201 123.11 22.3719 123.529 22.7137 123.844C23.0555 124.158 23.5135 124.315 24.0877 124.315C24.6984 124.315 25.1655 124.156 25.4891 123.837C25.8126 123.518 25.9744 123.06 25.9744 122.463C25.9744 121.884 25.7967 121.44 25.4412 121.13C25.0857 120.82 24.573 120.66 23.9031 120.651L22.9529 120.651L22.9529 119.619Z" fill="#636262"/>
<path d="M23.865 157.384C17.6896 157.384 12.6835 152.378 12.6835 146.202L12.6835 132.338L35.0464 132.338L35.0464 146.202C35.0464 152.378 30.0403 157.384 23.865 157.384V157.384Z" fill="#ECEFF1"/>
<path d="M26.4529 146.915L27.8338 146.915L27.8338 147.947L26.4529 147.947L26.4529 150.257L25.1814 150.257L25.1814 147.947L20.6492 147.947L20.6492 147.202L25.1062 140.304L26.4529 140.304L26.4529 146.915ZM22.0848 146.915L25.1814 146.915L25.1814 142.034L25.0311 142.307L22.0848 146.915Z" fill="#1E88E5"/>
<path d="M23.865 160.962C30.0403 160.962 35.0464 165.968 35.0464 172.143L35.0464 186.008L12.6835 186.008L12.6835 172.143C12.6835 165.968 17.6896 160.962 23.865 160.962V160.962Z" fill="#ECEFF1"/>
<path d="M21.6951 175.681L22.201 170.718L27.3006 170.718L27.3006 171.887L23.2742 171.887L22.9734 174.601C23.4611 174.313 24.0148 174.17 24.6346 174.17C25.5415 174.17 26.2615 174.471 26.7947 175.072C27.3279 175.669 27.5945 176.478 27.5945 177.499C27.5945 178.524 27.3165 179.333 26.7605 179.926C26.2091 180.514 25.4367 180.808 24.4432 180.808C23.5636 180.808 22.8458 180.564 22.2898 180.076C21.7339 179.589 21.4171 178.914 21.3396 178.053L22.5359 178.053C22.6134 178.622 22.8162 179.053 23.1443 179.345C23.4725 179.632 23.9054 179.775 24.4432 179.775C25.0311 179.775 25.4913 179.575 25.824 179.174C26.1613 178.773 26.3299 178.219 26.3299 177.513C26.3299 176.847 26.1476 176.314 25.783 175.913C25.423 175.507 24.9422 175.305 24.3406 175.305C23.7892 175.305 23.3562 175.425 23.0418 175.667L22.7068 175.94L21.6951 175.681Z" fill="#636262"/>
<path d="M23.865 212.844C17.6896 212.844 12.6835 207.838 12.6835 201.662L12.6835 187.797L35.0464 187.797L35.0464 201.662C35.0464 207.838 30.0403 212.844 23.865 212.844V212.844Z" fill="#ECEFF1"/>
<path d="M26.077 195.757L26.077 196.831H25.8445C24.8602 196.849 24.0763 197.14 23.493 197.706C22.9096 198.271 22.5724 199.066 22.4812 200.091C23.0053 199.49 23.7208 199.189 24.6277 199.189C25.4936 199.189 26.184 199.494 26.699 200.105C27.2186 200.716 27.4783 201.504 27.4783 202.47C27.4783 203.496 27.198 204.316 26.6375 204.931C26.0815 205.546 25.3341 205.854 24.3953 205.854C23.4428 205.854 22.6704 205.489 22.0779 204.76C21.4855 204.027 21.1893 203.083 21.1893 201.93L21.1893 201.445C21.1893 199.613 21.5789 198.214 22.3582 197.248C23.1421 196.277 24.3064 195.78 25.8514 195.757H26.077ZM24.4158 200.242C23.9829 200.242 23.5841 200.372 23.2195 200.631C22.8549 200.891 22.602 201.217 22.4607 201.609L22.4607 202.074C22.4607 202.894 22.6453 203.555 23.0145 204.056C23.3836 204.557 23.8439 204.808 24.3953 204.808C24.965 204.808 25.4116 204.598 25.7352 204.179C26.0633 203.76 26.2273 203.211 26.2273 202.532C26.2273 201.848 26.061 201.297 25.7283 200.877C25.4002 200.454 24.9627 200.242 24.4158 200.242Z" fill="#1E88E5"/>
</g>
<g filter="url(#filter2_d)">
<rect x="222" y="46.4641" width="169.958" height="28.6245" rx="14.3122" transform="rotate(90 222 46.4641)" fill="white"/>
<path d="M207.241 50.0421C213.416 50.0421 218.422 55.0482 218.422 61.2235L218.422 75.0885L196.059 75.0885L196.059 61.2236C196.059 55.0482 201.065 50.0421 207.241 50.0421V50.0421Z" fill="#ECEFF1"/>
<path d="M208.646 69.751H207.374L207.374 61.3223L204.825 62.2588V61.1104L208.448 59.75H208.646L208.646 69.751Z" fill="#636262"/>
<path d="M207.241 101.924C201.065 101.924 196.059 96.918 196.059 90.7426L196.059 76.8777L218.422 76.8777L218.422 90.7426C218.422 96.918 213.416 101.924 207.241 101.924V101.924Z" fill="#ECEFF1"/>
<path d="M211.011 94.7975L204.49 94.7975V93.8883L207.935 90.0602C208.445 89.4814 208.796 89.012 208.988 88.652C209.184 88.2874 209.282 87.9114 209.282 87.524C209.282 87.0045 209.124 86.5784 208.81 86.2457C208.495 85.913 208.076 85.7467 207.552 85.7467C206.923 85.7467 206.433 85.9267 206.082 86.2867C205.736 86.6422 205.563 87.139 205.563 87.777L204.298 87.777C204.298 86.861 204.592 86.1204 205.18 85.5553C205.772 84.9902 206.563 84.7076 207.552 84.7076C208.477 84.7076 209.209 84.9515 209.746 85.4391C210.284 85.9222 210.553 86.567 210.553 87.3737C210.553 88.3535 209.929 89.5201 208.68 90.8737L206.014 93.7653L211.011 93.7653V94.7975Z" fill="#1E88E5"/>
<path d="M207.241 105.502C213.416 105.502 218.422 110.508 218.422 116.684L218.422 130.548L196.059 130.548L196.059 116.684C196.059 110.508 201.065 105.502 207.241 105.502V105.502Z" fill="#ECEFF1"/>
<path d="M206.328 119.619L207.279 119.619C207.876 119.61 208.345 119.453 208.687 119.147C209.029 118.842 209.2 118.43 209.2 117.91C209.2 116.743 208.618 116.16 207.456 116.16C206.91 116.16 206.472 116.317 206.144 116.632C205.82 116.942 205.659 117.354 205.659 117.869L204.394 117.869C204.394 117.081 204.681 116.427 205.255 115.907C205.834 115.383 206.568 115.121 207.456 115.121C208.395 115.121 209.131 115.369 209.664 115.866C210.198 116.363 210.464 117.053 210.464 117.938C210.464 118.37 210.323 118.79 210.04 119.195C209.762 119.601 209.382 119.904 208.899 120.104C209.446 120.278 209.867 120.565 210.163 120.966C210.464 121.367 210.615 121.857 210.615 122.436C210.615 123.329 210.323 124.037 209.74 124.562C209.156 125.086 208.397 125.348 207.463 125.348C206.529 125.348 205.768 125.095 205.18 124.589C204.597 124.083 204.305 123.415 204.305 122.586L205.577 122.586C205.577 123.11 205.747 123.529 206.089 123.844C206.431 124.158 206.889 124.315 207.463 124.315C208.074 124.315 208.541 124.156 208.865 123.837C209.188 123.518 209.35 123.06 209.35 122.463C209.35 121.884 209.172 121.44 208.817 121.13C208.461 120.82 207.949 120.66 207.279 120.651L206.328 120.651V119.619Z" fill="#636262"/>
<path d="M207.241 157.384C201.065 157.384 196.059 152.378 196.059 146.202L196.059 132.338L218.422 132.338L218.422 146.202C218.422 152.378 213.416 157.384 207.241 157.384V157.384Z" fill="#ECEFF1"/>
<path d="M209.828 146.915L211.209 146.915V147.947L209.828 147.947L209.828 150.257L208.557 150.257L208.557 147.947L204.025 147.947V147.202L208.482 140.304L209.828 140.304L209.828 146.915ZM205.46 146.915L208.557 146.915L208.557 142.034L208.407 142.307L205.46 146.915Z" fill="#1E88E5"/>
<path d="M207.241 160.962C213.416 160.962 218.422 165.968 218.422 172.143L218.422 186.008L196.059 186.008L196.059 172.143C196.059 165.968 201.065 160.962 207.241 160.962V160.962Z" fill="#ECEFF1"/>
<path d="M205.071 175.681L205.577 170.718L210.676 170.718V171.887L206.65 171.887L206.349 174.601C206.837 174.313 207.39 174.17 208.01 174.17C208.917 174.17 209.637 174.471 210.17 175.072C210.703 175.669 210.97 176.478 210.97 177.499C210.97 178.524 210.692 179.333 210.136 179.926C209.585 180.514 208.812 180.808 207.819 180.808C206.939 180.808 206.221 180.564 205.665 180.076C205.109 179.589 204.793 178.914 204.715 178.053L205.911 178.053C205.989 178.622 206.192 179.053 206.52 179.345C206.848 179.632 207.281 179.775 207.819 179.775C208.407 179.775 208.867 179.575 209.2 179.174C209.537 178.773 209.705 178.219 209.705 177.513C209.705 176.847 209.523 176.314 209.159 175.913C208.799 175.507 208.318 175.305 207.716 175.305C207.165 175.305 206.732 175.425 206.417 175.667L206.082 175.94L205.071 175.681Z" fill="#636262"/>
<path d="M207.24 212.844C201.065 212.844 196.059 207.838 196.059 201.662L196.059 187.797L218.422 187.797L218.422 201.662C218.422 207.838 213.416 212.844 207.24 212.844V212.844Z" fill="#ECEFF1"/>
<path d="M209.452 195.757L209.452 196.831H209.22C208.236 196.849 207.452 197.14 206.868 197.706C206.285 198.271 205.948 199.066 205.857 200.091C206.381 199.49 207.096 199.189 208.003 199.189C208.869 199.189 209.56 199.494 210.075 200.105C210.594 200.716 210.854 201.504 210.854 202.47C210.854 203.496 210.574 204.316 210.013 204.931C209.457 205.546 208.71 205.854 207.771 205.854C206.818 205.854 206.046 205.489 205.453 204.76C204.861 204.027 204.565 203.083 204.565 201.93L204.565 201.445C204.565 199.613 204.954 198.214 205.734 197.248C206.518 196.277 207.682 195.78 209.227 195.757H209.452ZM207.791 200.242C207.358 200.242 206.96 200.372 206.595 200.631C206.23 200.891 205.978 201.217 205.836 201.609L205.836 202.074C205.836 202.894 206.021 203.555 206.39 204.056C206.759 204.557 207.219 204.808 207.771 204.808C208.341 204.808 208.787 204.598 209.111 204.179C209.439 203.76 209.603 203.211 209.603 202.532C209.603 201.848 209.437 201.297 209.104 200.877C208.776 200.454 208.338 200.242 207.791 200.242Z" fill="#1E88E5"/>
</g>
<g filter="url(#filter3_d)">
<rect x="35.0464" y="228.051" width="169.958" height="28.6245" rx="14.3122" fill="white"/>
<path d="M38.6245 242.81C38.6245 236.635 43.6306 231.629 49.8059 231.629H63.6709V253.992H49.8059C43.6306 253.992 38.6245 248.985 38.6245 242.81V242.81Z" fill="#ECEFF1"/>
<path d="M53.4475 248.207H52.1761V239.778L49.6263 240.715V239.566L53.2493 238.206H53.4475V248.207Z" fill="#636262"/>
<path d="M90.5063 242.81C90.5063 248.985 85.5002 253.992 79.3249 253.992L65.4599 253.992L65.4599 231.629L79.3249 231.629C85.5002 231.629 90.5063 236.635 90.5063 242.81V242.81Z" fill="#ECEFF1"/>
<path d="M80.8592 248.207H74.3377V247.298L77.783 243.469C78.2934 242.891 78.6443 242.421 78.8358 242.061C79.0317 241.697 79.1297 241.321 79.1297 240.933C79.1297 240.414 78.9725 239.988 78.658 239.655C78.3436 239.322 77.9243 239.156 77.4002 239.156C76.7713 239.156 76.2814 239.336 75.9305 239.696C75.5841 240.052 75.4109 240.548 75.4109 241.186H74.1463C74.1463 240.27 74.4402 239.53 75.0281 238.965C75.6206 238.399 76.4113 238.117 77.4002 238.117C78.3253 238.117 79.0568 238.361 79.5945 238.848C80.1323 239.331 80.4012 239.976 80.4012 240.783C80.4012 241.763 79.7768 242.929 78.5281 244.283L75.8621 247.175H80.8592V248.207Z" fill="#1E88E5"/>
<path d="M94.0844 242.81C94.0844 236.635 99.0905 231.629 105.266 231.629H119.131V253.992H105.266C99.0905 253.992 94.0844 248.985 94.0844 242.81V242.81Z" fill="#ECEFF1"/>
<path d="M106.59 242.615H107.54C108.137 242.606 108.607 242.449 108.948 242.143C109.29 241.838 109.461 241.426 109.461 240.906C109.461 239.739 108.88 239.156 107.718 239.156C107.171 239.156 106.734 239.313 106.405 239.628C106.082 239.938 105.92 240.35 105.92 240.865H104.655C104.655 240.077 104.943 239.423 105.517 238.903C106.096 238.379 106.829 238.117 107.718 238.117C108.657 238.117 109.393 238.365 109.926 238.862C110.459 239.359 110.726 240.049 110.726 240.933C110.726 241.366 110.585 241.786 110.302 242.191C110.024 242.597 109.643 242.9 109.16 243.1C109.707 243.274 110.129 243.561 110.425 243.962C110.726 244.363 110.876 244.853 110.876 245.431C110.876 246.325 110.585 247.033 110.001 247.557C109.418 248.081 108.659 248.344 107.725 248.344C106.791 248.344 106.03 248.091 105.442 247.585C104.858 247.079 104.567 246.411 104.567 245.582H105.838C105.838 246.106 106.009 246.525 106.351 246.84C106.693 247.154 107.151 247.311 107.725 247.311C108.336 247.311 108.803 247.152 109.126 246.833C109.45 246.514 109.612 246.056 109.612 245.459C109.612 244.88 109.434 244.436 109.078 244.126C108.723 243.816 108.21 243.656 107.54 243.647H106.59V242.615Z" fill="#636262"/>
<path d="M145.966 242.81C145.966 248.985 140.96 253.992 134.785 253.992L120.92 253.992L120.92 231.629L134.785 231.629C140.96 231.629 145.966 236.635 145.966 242.81V242.81Z" fill="#ECEFF1"/>
<path d="M135.136 244.864H136.517V245.896H135.136V248.207H133.865V245.896H129.333V245.151L133.79 238.254H135.136V244.864ZM130.768 244.864H133.865V239.983L133.715 240.257L130.768 244.864Z" fill="#1E88E5"/>
<path d="M149.544 242.81C149.544 236.635 154.55 231.629 160.726 231.629H174.591V253.992H160.726C154.55 253.992 149.544 248.985 149.544 242.81V242.81Z" fill="#ECEFF1"/>
<path d="M160.792 243.217L161.298 238.254H166.398V239.423H162.371L162.07 242.136C162.558 241.849 163.112 241.706 163.732 241.706C164.639 241.706 165.359 242.007 165.892 242.608C166.425 243.205 166.692 244.014 166.692 245.035C166.692 246.06 166.414 246.869 165.858 247.462C165.306 248.05 164.534 248.344 163.54 248.344C162.661 248.344 161.943 248.1 161.387 247.612C160.831 247.124 160.514 246.45 160.437 245.589H161.633C161.71 246.158 161.913 246.589 162.241 246.881C162.57 247.168 163.002 247.311 163.54 247.311C164.128 247.311 164.588 247.111 164.921 246.71C165.258 246.309 165.427 245.755 165.427 245.049C165.427 244.383 165.245 243.85 164.88 243.449C164.52 243.043 164.039 242.841 163.438 242.841C162.886 242.841 162.453 242.961 162.139 243.203L161.804 243.476L160.792 243.217Z" fill="#636262"/>
<path d="M201.426 242.81C201.426 248.985 196.42 253.992 190.245 253.992L176.38 253.992L176.38 231.629L190.245 231.629C196.42 231.629 201.426 236.635 201.426 242.81V242.81Z" fill="#ECEFF1"/>
<path d="M190.22 238.247V239.32H189.988C189.004 239.338 188.22 239.63 187.636 240.195C187.053 240.76 186.716 241.555 186.625 242.581C187.149 241.979 187.864 241.678 188.771 241.678C189.637 241.678 190.327 241.984 190.842 242.594C191.362 243.205 191.622 243.994 191.622 244.96C191.622 245.985 191.341 246.805 190.781 247.421C190.225 248.036 189.478 248.344 188.539 248.344C187.586 248.344 186.814 247.979 186.221 247.25C185.629 246.516 185.333 245.573 185.333 244.42V243.934C185.333 242.102 185.722 240.703 186.502 239.737C187.286 238.766 188.45 238.27 189.995 238.247H190.22ZM188.559 242.731C188.126 242.731 187.728 242.861 187.363 243.121C186.998 243.381 186.745 243.706 186.604 244.098V244.563C186.604 245.384 186.789 246.044 187.158 246.546C187.527 247.047 187.987 247.298 188.539 247.298C189.108 247.298 189.555 247.088 189.879 246.669C190.207 246.249 190.371 245.7 190.371 245.021C190.371 244.338 190.204 243.786 189.872 243.367C189.544 242.943 189.106 242.731 188.559 242.731Z" fill="#1E88E5"/>
</g>
<g filter="url(#filter4_d)">
<rect x="50.2532" y="48.2532" width="131.494" height="168.169" rx="20" fill="white"/>
</g>
<g filter="url(#filter5_d)">
<circle cx="116" cy="118.473" r="4.91983" fill="#34F4F4"/>
</g>
<defs>
<filter id="filter0_d" x="21.4684" y="0" width="189.958" height="48.6245" filterUnits="userSpaceOnUse" color-interpolation-filters="sRGB">
<feFlood flood-opacity="0" result="BackgroundImageFix"/>
<feColorMatrix in="SourceAlpha" type="matrix" values="0 0 0 0 0 0 0 0 0 0 0 0 0 0 0 0 0 0 127 0"/>
<feOffset dy="2"/>
<feGaussianBlur stdDeviation="5"/>
<feColorMatrix type="matrix" values="0 0 0 0 0 0 0 0 0 0 0 0 0 0 0 0 0 0 0.15 0"/>
<feBlend mode="normal" in2="BackgroundImageFix" result="effect1_dropShadow"/>
<feBlend mode="normal" in="SourceGraphic" in2="effect1_dropShadow" result="shape"/>
</filter>
<filter id="filter1_d" x="-1.52588e-05" y="38.4641" width="48.6245" height="189.958" filterUnits="userSpaceOnUse" color-interpolation-filters="sRGB">
<feFlood flood-opacity="0" result="BackgroundImageFix"/>
<feColorMatrix in="SourceAlpha" type="matrix" values="0 0 0 0 0 0 0 0 0 0 0 0 0 0 0 0 0 0 127 0"/>
<feOffset dy="2"/>
<feGaussianBlur stdDeviation="5"/>
<feColorMatrix type="matrix" values="0 0 0 0 0 0 0 0 0 0 0 0 0 0 0 0 0 0 0.15 0"/>
<feBlend mode="normal" in2="BackgroundImageFix" result="effect1_dropShadow"/>
<feBlend mode="normal" in="SourceGraphic" in2="effect1_dropShadow" result="shape"/>
</filter>
<filter id="filter2_d" x="183.376" y="38.4641" width="48.6245" height="189.958" filterUnits="userSpaceOnUse" color-interpolation-filters="sRGB">
<feFlood flood-opacity="0" result="BackgroundImageFix"/>
<feColorMatrix in="SourceAlpha" type="matrix" values="0 0 0 0 0 0 0 0 0 0 0 0 0 0 0 0 0 0 127 0"/>
<feOffset dy="2"/>
<feGaussianBlur stdDeviation="5"/>
<feColorMatrix type="matrix" values="0 0 0 0 0 0 0 0 0 0 0 0 0 0 0 0 0 0 0.15 0"/>
<feBlend mode="normal" in2="BackgroundImageFix" result="effect1_dropShadow"/>
<feBlend mode="normal" in="SourceGraphic" in2="effect1_dropShadow" result="shape"/>
</filter>
<filter id="filter3_d" x="25.0464" y="220.051" width="189.958" height="48.6245" filterUnits="userSpaceOnUse" color-interpolation-filters="sRGB">
<feFlood flood-opacity="0" result="BackgroundImageFix"/>
<feColorMatrix in="SourceAlpha" type="matrix" values="0 0 0 0 0 0 0 0 0 0 0 0 0 0 0 0 0 0 127 0"/>
<feOffset dy="2"/>
<feGaussianBlur stdDeviation="5"/>
<feColorMatrix type="matrix" values="0 0 0 0 0 0 0 0 0 0 0 0 0 0 0 0 0 0 0.15 0"/>
<feBlend mode="normal" in2="BackgroundImageFix" result="effect1_dropShadow"/>
<feBlend mode="normal" in="SourceGraphic" in2="effect1_dropShadow" result="shape"/>
</filter>
<filter id="filter4_d" x="40.2532" y="38.2532" width="151.494" height="188.169" filterUnits="userSpaceOnUse" color-interpolation-filters="sRGB">
<feFlood flood-opacity="0" result="BackgroundImageFix"/>
<feColorMatrix in="SourceAlpha" type="matrix" values="0 0 0 0 0 0 0 0 0 0 0 0 0 0 0 0 0 0 127 0"/>
<feOffset/>
<feGaussianBlur stdDeviation="5"/>
<feColorMatrix type="matrix" values="0 0 0 0 0 0 0 0 0 0 0 0 0 0 0 0 0 0 0.25 0"/>
<feBlend mode="normal" in2="BackgroundImageFix" result="effect1_dropShadow"/>
<feBlend mode="normal" in="SourceGraphic" in2="effect1_dropShadow" result="shape"/>
</filter>
<filter id="filter5_d" x="101.08" y="103.553" width="29.8397" height="29.8397" filterUnits="userSpaceOnUse" color-interpolation-filters="sRGB">
<feFlood flood-opacity="0" result="BackgroundImageFix"/>
<feColorMatrix in="SourceAlpha" type="matrix" values="0 0 0 0 0 0 0 0 0 0 0 0 0 0 0 0 0 0 127 0"/>
<feOffset/>
<feGaussianBlur stdDeviation="5"/>
<feColorMatrix type="matrix" values="0 0 0 0 0.203922 0 0 0 0 0.956863 0 0 0 0 0.956863 0 0 0 1 0"/>
<feBlend mode="normal" in2="BackgroundImageFix" result="effect1_dropShadow"/>
<feBlend mode="normal" in="SourceGraphic" in2="effect1_dropShadow" result="shape"/>
</filter>
</defs>
</svg>
