<svg width="322" height="198" viewBox="0 0 322 198" fill="none" xmlns="http://www.w3.org/2000/svg">
<path d="M309.876 197.216L12.5498 197.867C5.83947 197.88 0.384821 192.43 0.371319 185.692L2.5135e-05 12.8793C-0.0134765 6.14142 5.41417 0.664326 12.1245 0.650769L309.45 2.52384e-05C316.161 -0.0135319 321.615 5.43644 321.629 12.1743L322 184.987C322.013 191.725 316.586 197.202 309.876 197.216Z" fill="white"/>
<g clip-path="url(#clip0)">
<g clip-path="url(#clip1)">
<path d="M232.127 109.037L224.64 132.85C224.039 134.63 225.925 137.231 227.713 137.807C229.501 138.382 232.541 137.175 233.09 135.379L239.686 115.636C237.251 113.586 234.317 111.308 232.127 109.037Z" fill="#B9CEF9"/>
<path d="M241.801 76.9408C240.704 76.969 237.577 77.6126 236.402 78.5748C236.223 78.7207 230.749 81.4711 229.126 82.3938C229.028 82.4499 227.15 83.2167 226.394 83.9525C225.458 84.8622 224.889 85.9171 224.619 86.5079C224.49 86.7886 220.61 99.2892 220.609 99.295C219.988 101.906 221.176 103.175 222.627 103.868C224.819 104.914 226.829 103.588 227.539 101.932C227.684 101.592 230.989 89.8189 231.407 89.4627C232.119 88.8561 232.893 88.5384 233.223 88.4315C233.742 88.2637 234.103 87.8705 234.156 88.7094L232.086 102.25C232.407 105.596 233.162 107.362 234.815 108.745C237.924 111.343 240.186 113.25 245.048 117.33L246.233 134.625C246.343 136.136 249.348 138.59 251.57 137.901C253.017 137.453 255.161 136.028 255.014 134.52C254.922 128.964 254.586 125.398 254.303 120.592C254.046 116.242 254.455 114.613 251.971 111.888C246.688 106.663 244.117 106.198 244.206 103.796L246.979 83.5713C247.537 79.2072 243.553 76.8958 241.801 76.9408Z" fill="#B9CEF9"/>
<path d="M247.492 95.9773L256.264 102.667C258.089 103.603 260.174 102.592 261.054 101.412C261.963 100.192 261.66 97.5602 260.736 96.899L248.581 87.4929C248.205 91.1764 247.873 93.3704 247.492 95.9773Z" fill="#B9CEF9"/>
<path d="M244.308 74.8087C248.359 74.8087 251.642 71.5253 251.642 67.475C251.642 63.4247 248.359 60.1414 244.308 60.1414C240.258 60.1414 236.975 63.4247 236.975 67.475C236.975 71.5253 240.258 74.8087 244.308 74.8087Z" fill="#B9CEF9"/>
</g>
</g>
<path d="M23.5424 24.363V33.624C23.5424 34.926 23.8574 35.892 24.4874 36.522C25.1314 37.152 26.0204 37.467 27.1544 37.467C28.2744 37.467 29.1494 37.152 29.7794 36.522C30.4234 35.892 30.7454 34.926 30.7454 33.624V24.363H32.6564V33.603C32.6564 34.821 32.4114 35.85 31.9214 36.69C31.4314 37.516 30.7664 38.132 29.9264 38.538C29.1004 38.944 28.1694 39.147 27.1334 39.147C26.0974 39.147 25.1594 38.944 24.3194 38.538C23.4934 38.132 22.8354 37.516 22.3454 36.69C21.8694 35.85 21.6314 34.821 21.6314 33.603V24.363H23.5424ZM29.1914 21.192L24.7184 23.586V22.158L29.1914 19.533V21.192ZM38.6063 23.46V39H36.6953V23.46H38.6063ZM45.0452 29.067V35.85C45.0452 36.41 45.1642 36.809 45.4022 37.047C45.6402 37.271 46.0532 37.383 46.6412 37.383H48.0482V39H46.3262C45.2622 39 44.4642 38.755 43.9322 38.265C43.4002 37.775 43.1342 36.97 43.1342 35.85V29.067H41.6432V27.492H43.1342V24.594H45.0452V27.492H48.0482V29.067H45.0452ZM52.2016 25.623C51.8376 25.623 51.5296 25.497 51.2776 25.245C51.0256 24.993 50.8996 24.685 50.8996 24.321C50.8996 23.957 51.0256 23.649 51.2776 23.397C51.5296 23.145 51.8376 23.019 52.2016 23.019C52.5516 23.019 52.8456 23.145 53.0836 23.397C53.3356 23.649 53.4616 23.957 53.4616 24.321C53.4616 24.685 53.3356 24.993 53.0836 25.245C52.8456 25.497 52.5516 25.623 52.2016 25.623ZM53.1256 27.492V39H51.2146V27.492H53.1256ZM71.0725 27.282C71.9685 27.282 72.7665 27.471 73.4665 27.849C74.1665 28.213 74.7195 28.766 75.1255 29.508C75.5315 30.25 75.7345 31.153 75.7345 32.217V39H73.8445V32.49C73.8445 31.342 73.5575 30.467 72.9835 29.865C72.4235 29.249 71.6605 28.941 70.6945 28.941C69.7005 28.941 68.9095 29.263 68.3215 29.907C67.7335 30.537 67.4395 31.454 67.4395 32.658V39H65.5495V32.49C65.5495 31.342 65.2625 30.467 64.6885 29.865C64.1285 29.249 63.3655 28.941 62.3995 28.941C61.4055 28.941 60.6145 29.263 60.0265 29.907C59.4385 30.537 59.1445 31.454 59.1445 32.658V39H57.2335V27.492H59.1445V29.151C59.5225 28.549 60.0265 28.087 60.6565 27.765C61.3005 27.443 62.0075 27.282 62.7775 27.282C63.7435 27.282 64.5975 27.499 65.3395 27.933C66.0815 28.367 66.6345 29.004 66.9985 29.844C67.3205 29.032 67.8525 28.402 68.5945 27.954C69.3365 27.506 70.1625 27.282 71.0725 27.282ZM79.0062 33.204C79.0062 32.028 79.2442 30.999 79.7202 30.117C80.1962 29.221 80.8472 28.528 81.6732 28.038C82.5132 27.548 83.4442 27.303 84.4662 27.303C85.4742 27.303 86.3492 27.52 87.0912 27.954C87.8332 28.388 88.3862 28.934 88.7502 29.592V27.492H90.6822V39H88.7502V36.858C88.3722 37.53 87.8052 38.09 87.0492 38.538C86.3072 38.972 85.4392 39.189 84.4452 39.189C83.4232 39.189 82.4992 38.937 81.6732 38.433C80.8472 37.929 80.1962 37.222 79.7202 36.312C79.2442 35.402 79.0062 34.366 79.0062 33.204ZM88.7502 33.225C88.7502 32.357 88.5752 31.601 88.2252 30.957C87.8752 30.313 87.3992 29.823 86.7972 29.487C86.2092 29.137 85.5582 28.962 84.8442 28.962C84.1302 28.962 83.4792 29.13 82.8912 29.466C82.3032 29.802 81.8342 30.292 81.4842 30.936C81.1342 31.58 80.9592 32.336 80.9592 33.204C80.9592 34.086 81.1342 34.856 81.4842 35.514C81.8342 36.158 82.3032 36.655 82.8912 37.005C83.4792 37.341 84.1302 37.509 84.8442 37.509C85.5582 37.509 86.2092 37.341 86.7972 37.005C87.3992 36.655 87.8752 36.158 88.2252 35.514C88.5752 34.856 88.7502 34.093 88.7502 33.225ZM105.853 39.147C104.887 39.147 104.019 38.979 103.249 38.643C102.493 38.293 101.898 37.817 101.464 37.215C101.03 36.599 100.806 35.892 100.792 35.094H102.829C102.899 35.78 103.179 36.361 103.669 36.837C104.173 37.299 104.901 37.53 105.853 37.53C106.763 37.53 107.477 37.306 107.995 36.858C108.527 36.396 108.793 35.808 108.793 35.094C108.793 34.534 108.639 34.079 108.331 33.729C108.023 33.379 107.638 33.113 107.176 32.931C106.714 32.749 106.091 32.553 105.307 32.343C104.341 32.091 103.564 31.839 102.976 31.587C102.402 31.335 101.905 30.943 101.485 30.411C101.079 29.865 100.876 29.137 100.876 28.227C100.876 27.429 101.079 26.722 101.485 26.106C101.891 25.49 102.458 25.014 103.186 24.678C103.928 24.342 104.775 24.174 105.727 24.174C107.099 24.174 108.219 24.517 109.087 25.203C109.969 25.889 110.466 26.799 110.578 27.933H108.478C108.408 27.373 108.114 26.883 107.596 26.463C107.078 26.029 106.392 25.812 105.538 25.812C104.74 25.812 104.089 26.022 103.585 26.442C103.081 26.848 102.829 27.422 102.829 28.164C102.829 28.696 102.976 29.13 103.27 29.466C103.578 29.802 103.949 30.061 104.383 30.243C104.831 30.411 105.454 30.607 106.252 30.831C107.218 31.097 107.995 31.363 108.583 31.629C109.171 31.881 109.675 32.28 110.095 32.826C110.515 33.358 110.725 34.086 110.725 35.01C110.725 35.724 110.536 36.396 110.158 37.026C109.78 37.656 109.22 38.167 108.478 38.559C107.736 38.951 106.861 39.147 105.853 39.147ZM124.888 32.805C124.888 33.169 124.867 33.554 124.825 33.96H115.627C115.697 35.094 116.082 35.983 116.782 36.627C117.496 37.257 118.357 37.572 119.365 37.572C120.191 37.572 120.877 37.383 121.423 37.005C121.983 36.613 122.375 36.095 122.599 35.451H124.657C124.349 36.557 123.733 37.46 122.809 38.16C121.885 38.846 120.737 39.189 119.365 39.189C118.273 39.189 117.293 38.944 116.425 38.454C115.571 37.964 114.899 37.271 114.409 36.375C113.919 35.465 113.674 34.415 113.674 33.225C113.674 32.035 113.912 30.992 114.388 30.096C114.864 29.2 115.529 28.514 116.383 28.038C117.251 27.548 118.245 27.303 119.365 27.303C120.457 27.303 121.423 27.541 122.263 28.017C123.103 28.493 123.747 29.151 124.195 29.991C124.657 30.817 124.888 31.755 124.888 32.805ZM122.914 32.406C122.914 31.678 122.753 31.055 122.431 30.537C122.109 30.005 121.668 29.606 121.108 29.34C120.562 29.06 119.953 28.92 119.281 28.92C118.315 28.92 117.489 29.228 116.803 29.844C116.131 30.46 115.746 31.314 115.648 32.406H122.914ZM132.336 39.189C131.454 39.189 130.663 39.042 129.963 38.748C129.263 38.44 128.71 38.02 128.304 37.488C127.898 36.942 127.674 36.319 127.632 35.619H129.606C129.662 36.193 129.928 36.662 130.404 37.026C130.894 37.39 131.531 37.572 132.315 37.572C133.043 37.572 133.617 37.411 134.037 37.089C134.457 36.767 134.667 36.361 134.667 35.871C134.667 35.367 134.443 34.996 133.995 34.758C133.547 34.506 132.854 34.261 131.916 34.023C131.062 33.799 130.362 33.575 129.816 33.351C129.284 33.113 128.822 32.77 128.43 32.322C128.052 31.86 127.863 31.258 127.863 30.516C127.863 29.928 128.038 29.389 128.388 28.899C128.738 28.409 129.235 28.024 129.879 27.744C130.523 27.45 131.258 27.303 132.084 27.303C133.358 27.303 134.387 27.625 135.171 28.269C135.955 28.913 136.375 29.795 136.431 30.915H134.52C134.478 30.313 134.233 29.83 133.785 29.466C133.351 29.102 132.763 28.92 132.021 28.92C131.335 28.92 130.789 29.067 130.383 29.361C129.977 29.655 129.774 30.04 129.774 30.516C129.774 30.894 129.893 31.209 130.131 31.461C130.383 31.699 130.691 31.895 131.055 32.049C131.433 32.189 131.951 32.35 132.609 32.532C133.435 32.756 134.107 32.98 134.625 33.204C135.143 33.414 135.584 33.736 135.948 34.17C136.326 34.604 136.522 35.171 136.536 35.871C136.536 36.501 136.361 37.068 136.011 37.572C135.661 38.076 135.164 38.475 134.52 38.769C133.89 39.049 133.162 39.189 132.336 39.189ZM141.071 25.623C140.707 25.623 140.399 25.497 140.147 25.245C139.895 24.993 139.769 24.685 139.769 24.321C139.769 23.957 139.895 23.649 140.147 23.397C140.399 23.145 140.707 23.019 141.071 23.019C141.421 23.019 141.715 23.145 141.953 23.397C142.205 23.649 142.331 23.957 142.331 24.321C142.331 24.685 142.205 24.993 141.953 25.245C141.715 25.497 141.421 25.623 141.071 25.623ZM141.995 27.492V39H140.084V27.492H141.995ZM151.122 39.189C150.044 39.189 149.064 38.944 148.182 38.454C147.314 37.964 146.628 37.271 146.124 36.375C145.634 35.465 145.389 34.415 145.389 33.225C145.389 32.049 145.641 31.013 146.145 30.117C146.663 29.207 147.363 28.514 148.245 28.038C149.127 27.548 150.114 27.303 151.206 27.303C152.298 27.303 153.285 27.548 154.167 28.038C155.049 28.514 155.742 29.2 156.246 30.096C156.764 30.992 157.023 32.035 157.023 33.225C157.023 34.415 156.757 35.465 156.225 36.375C155.707 37.271 155 37.964 154.104 38.454C153.208 38.944 152.214 39.189 151.122 39.189ZM151.122 37.509C151.808 37.509 152.452 37.348 153.054 37.026C153.656 36.704 154.139 36.221 154.503 35.577C154.881 34.933 155.07 34.149 155.07 33.225C155.07 32.301 154.888 31.517 154.524 30.873C154.16 30.229 153.684 29.753 153.096 29.445C152.508 29.123 151.871 28.962 151.185 28.962C150.485 28.962 149.841 29.123 149.253 29.445C148.679 29.753 148.217 30.229 147.867 30.873C147.517 31.517 147.342 32.301 147.342 33.225C147.342 34.163 147.51 34.954 147.846 35.598C148.196 36.242 148.658 36.725 149.232 37.047C149.806 37.355 150.436 37.509 151.122 37.509ZM153.264 24.09L148.791 26.484V25.056L153.264 22.431V24.09ZM165.994 27.282C167.394 27.282 168.528 27.709 169.396 28.563C170.264 29.403 170.698 30.621 170.698 32.217V39H168.808V32.49C168.808 31.342 168.521 30.467 167.947 29.865C167.373 29.249 166.589 28.941 165.595 28.941C164.587 28.941 163.782 29.256 163.18 29.886C162.592 30.516 162.298 31.433 162.298 32.637V39H160.387V27.492H162.298V29.13C162.676 28.542 163.187 28.087 163.831 27.765C164.489 27.443 165.21 27.282 165.994 27.282Z" fill="#8598AD"/>
<path d="M22.588 95.166C22.812 92.222 23.948 89.918 25.996 88.254C28.044 86.59 30.7 85.758 33.964 85.758C36.14 85.758 38.012 86.158 39.58 86.958C41.18 87.726 42.38 88.782 43.18 90.126C44.012 91.47 44.428 92.99 44.428 94.686C44.428 96.67 43.852 98.382 42.7 99.822C41.58 101.262 40.108 102.19 38.284 102.606V102.846C40.364 103.358 42.012 104.366 43.228 105.87C44.444 107.374 45.052 109.342 45.052 111.774C45.052 113.598 44.636 115.246 43.804 116.718C42.972 118.158 41.724 119.294 40.06 120.126C38.396 120.958 36.396 121.374 34.06 121.374C30.668 121.374 27.884 120.494 25.708 118.734C23.532 116.942 22.316 114.414 22.06 111.15H26.284C26.508 113.07 27.292 114.638 28.636 115.854C29.98 117.07 31.772 117.678 34.012 117.678C36.252 117.678 37.948 117.102 39.1 115.95C40.284 114.766 40.876 113.246 40.876 111.39C40.876 108.99 40.076 107.262 38.476 106.206C36.876 105.15 34.46 104.622 31.228 104.622H30.124V100.974H31.276C34.22 100.942 36.444 100.462 37.948 99.534C39.452 98.574 40.204 97.102 40.204 95.118C40.204 93.422 39.644 92.062 38.524 91.038C37.436 90.014 35.868 89.502 33.82 89.502C31.836 89.502 30.236 90.014 29.02 91.038C27.804 92.062 27.084 93.438 26.86 95.166H22.588ZM50.7446 113.406V110.094L67.5926 86.766H72.8246V109.614H77.6246V113.406H72.8246V121.134H68.5046V113.406H50.7446ZM68.6966 91.326L55.7846 109.614H68.6966V91.326ZM82.8391 103.422C82.8391 97.918 83.7351 93.63 85.5271 90.558C87.3191 87.454 90.4551 85.902 94.9351 85.902C99.3831 85.902 102.503 87.454 104.295 90.558C106.087 93.63 106.983 97.918 106.983 103.422C106.983 109.022 106.087 113.374 104.295 116.478C102.503 119.582 99.3831 121.134 94.9351 121.134C90.4551 121.134 87.3191 119.582 85.5271 116.478C83.7351 113.374 82.8391 109.022 82.8391 103.422ZM102.663 103.422C102.663 100.638 102.471 98.286 102.087 96.366C101.735 94.414 100.983 92.846 99.8311 91.662C98.7111 90.478 97.0791 89.886 94.9351 89.886C92.7591 89.886 91.0951 90.478 89.9431 91.662C88.8231 92.846 88.0711 94.414 87.6871 96.366C87.3351 98.286 87.1591 100.638 87.1591 103.422C87.1591 106.302 87.3351 108.718 87.6871 110.67C88.0711 112.622 88.8231 114.19 89.9431 115.374C91.0951 116.558 92.7591 117.15 94.9351 117.15C97.0791 117.15 98.7111 116.558 99.8311 115.374C100.983 114.19 101.735 112.622 102.087 110.67C102.471 108.718 102.663 106.302 102.663 103.422Z" fill="#3F567A"/>
<path d="M28.816 57.4569V58.7889H25.396V70.0029H23.758V58.7889H20.32V57.4569H28.816ZM35.9853 70.1649C35.0613 70.1649 34.2213 69.9549 33.4653 69.5349C32.7213 69.1149 32.1333 68.5209 31.7013 67.7529C31.2813 66.9729 31.0713 66.0729 31.0713 65.0529C31.0713 64.0449 31.2873 63.1569 31.7193 62.3889C32.1633 61.6089 32.7633 61.0149 33.5193 60.6069C34.2753 60.1869 35.1213 59.9769 36.0573 59.9769C36.9933 59.9769 37.8393 60.1869 38.5953 60.6069C39.3513 61.0149 39.9453 61.6029 40.3773 62.3709C40.8213 63.1389 41.0433 64.0329 41.0433 65.0529C41.0433 66.0729 40.8153 66.9729 40.3593 67.7529C39.9153 68.5209 39.3093 69.1149 38.5413 69.5349C37.7733 69.9549 36.9213 70.1649 35.9853 70.1649ZM35.9853 68.7249C36.5733 68.7249 37.1253 68.5869 37.6413 68.3109C38.1573 68.0349 38.5713 67.6209 38.8833 67.0689C39.2073 66.5169 39.3693 65.8449 39.3693 65.0529C39.3693 64.2609 39.2133 63.5889 38.9013 63.0369C38.5893 62.4849 38.1813 62.0769 37.6773 61.8129C37.1733 61.5369 36.6273 61.3989 36.0393 61.3989C35.4393 61.3989 34.8873 61.5369 34.3833 61.8129C33.8913 62.0769 33.4953 62.4849 33.1953 63.0369C32.8953 63.5889 32.7453 64.2609 32.7453 65.0529C32.7453 65.8569 32.8893 66.5349 33.1773 67.0869C33.4773 67.6389 33.8733 68.0529 34.3653 68.3289C34.8573 68.5929 35.3973 68.7249 35.9853 68.7249ZM46.0459 61.4889V67.3029C46.0459 67.7829 46.1479 68.1249 46.3519 68.3289C46.5559 68.5209 46.9099 68.6169 47.4139 68.6169H48.6199V70.0029H47.1439C46.2319 70.0029 45.5479 69.7929 45.0919 69.3729C44.6359 68.9529 44.4079 68.2629 44.4079 67.3029V61.4889H43.1299V60.1389H44.4079V57.6549H46.0459V60.1389H48.6199V61.4889H46.0459ZM50.8435 65.0349C50.8435 64.0269 51.0475 63.1449 51.4555 62.3889C51.8635 61.6209 52.4215 61.0269 53.1295 60.6069C53.8495 60.1869 54.6475 59.9769 55.5235 59.9769C56.3875 59.9769 57.1375 60.1629 57.7735 60.5349C58.4095 60.9069 58.8835 61.3749 59.1955 61.9389V60.1389H60.8515V70.0029H59.1955V68.1669C58.8715 68.7429 58.3855 69.2229 57.7375 69.6069C57.1015 69.9789 56.3575 70.1649 55.5055 70.1649C54.6295 70.1649 53.8375 69.9489 53.1295 69.5169C52.4215 69.0849 51.8635 68.4789 51.4555 67.6989C51.0475 66.9189 50.8435 66.0309 50.8435 65.0349ZM59.1955 65.0529C59.1955 64.3089 59.0455 63.6609 58.7455 63.1089C58.4455 62.5569 58.0375 62.1369 57.5215 61.8489C57.0175 61.5489 56.4595 61.3989 55.8475 61.3989C55.2355 61.3989 54.6775 61.5429 54.1735 61.8309C53.6695 62.1189 53.2675 62.5389 52.9675 63.0909C52.6675 63.6429 52.5175 64.2909 52.5175 65.0349C52.5175 65.7909 52.6675 66.4509 52.9675 67.0149C53.2675 67.5669 53.6695 67.9929 54.1735 68.2929C54.6775 68.5809 55.2355 68.7249 55.8475 68.7249C56.4595 68.7249 57.0175 68.5809 57.5215 68.2929C58.0375 67.9929 58.4455 67.5669 58.7455 67.0149C59.0455 66.4509 59.1955 65.7969 59.1955 65.0529ZM66.1085 56.6829V70.0029H64.4705V56.6829H66.1085ZM77.039 61.9569C77.3629 61.3929 77.8429 60.9249 78.4789 60.5529C79.127 60.1689 79.877 59.9769 80.729 59.9769C81.605 59.9769 82.3969 60.1869 83.1049 60.6069C83.8249 61.0269 84.3889 61.6209 84.797 62.3889C85.205 63.1449 85.409 64.0269 85.409 65.0349C85.409 66.0309 85.205 66.9189 84.797 67.6989C84.3889 68.4789 83.8249 69.0849 83.1049 69.5169C82.3969 69.9489 81.605 70.1649 80.729 70.1649C79.8889 70.1649 79.1449 69.9789 78.497 69.6069C77.8609 69.2229 77.3749 68.7489 77.039 68.1849V74.6829H75.4009V60.1389H77.039V61.9569ZM83.735 65.0349C83.735 64.2909 83.585 63.6429 83.285 63.0909C82.985 62.5389 82.577 62.1189 82.061 61.8309C81.557 61.5429 80.999 61.3989 80.3869 61.3989C79.787 61.3989 79.229 61.5489 78.7129 61.8489C78.2089 62.1369 77.8009 62.5629 77.4889 63.1269C77.1889 63.6789 77.039 64.3209 77.039 65.0529C77.039 65.7969 77.1889 66.4509 77.4889 67.0149C77.8009 67.5669 78.2089 67.9929 78.7129 68.2929C79.229 68.5809 79.787 68.7249 80.3869 68.7249C80.999 68.7249 81.557 68.5809 82.061 68.2929C82.577 67.9929 82.985 67.5669 83.285 67.0149C83.585 66.4509 83.735 65.7909 83.735 65.0349ZM87.804 65.0349C87.804 64.0269 88.008 63.1449 88.416 62.3889C88.824 61.6209 89.382 61.0269 90.09 60.6069C90.81 60.1869 91.608 59.9769 92.484 59.9769C93.348 59.9769 94.098 60.1629 94.734 60.5349C95.37 60.9069 95.844 61.3749 96.156 61.9389V60.1389H97.812V70.0029H96.156V68.1669C95.832 68.7429 95.346 69.2229 94.698 69.6069C94.062 69.9789 93.318 70.1649 92.466 70.1649C91.59 70.1649 90.798 69.9489 90.09 69.5169C89.382 69.0849 88.824 68.4789 88.416 67.6989C88.008 66.9189 87.804 66.0309 87.804 65.0349ZM96.156 65.0529C96.156 64.3089 96.006 63.6609 95.706 63.1089C95.406 62.5569 94.998 62.1369 94.482 61.8489C93.978 61.5489 93.42 61.3989 92.808 61.3989C92.196 61.3989 91.638 61.5429 91.134 61.8309C90.63 62.1189 90.228 62.5389 89.928 63.0909C89.628 63.6429 89.478 64.2909 89.478 65.0349C89.478 65.7909 89.628 66.4509 89.928 67.0149C90.228 67.5669 90.63 67.9929 91.134 68.2929C91.638 68.5809 92.196 68.7249 92.808 68.7249C93.42 68.7249 93.978 68.5809 94.482 68.2929C94.998 67.9929 95.406 67.5669 95.706 67.0149C96.006 66.4509 96.156 65.7969 96.156 65.0529ZM104.923 70.1649C104.167 70.1649 103.489 70.0389 102.889 69.7869C102.289 69.5229 101.815 69.1629 101.467 68.7069C101.119 68.2389 100.927 67.7049 100.891 67.1049H102.583C102.631 67.5969 102.859 67.9989 103.267 68.3109C103.687 68.6229 104.233 68.7789 104.905 68.7789C105.529 68.7789 106.021 68.6409 106.381 68.3649C106.741 68.0889 106.921 67.7409 106.921 67.3209C106.921 66.8889 106.729 66.5709 106.345 66.3669C105.961 66.1509 105.367 65.9409 104.563 65.7369C103.831 65.5449 103.231 65.3529 102.763 65.1609C102.307 64.9569 101.911 64.6629 101.575 64.2789C101.251 63.8829 101.089 63.3669 101.089 62.7309C101.089 62.2269 101.239 61.7649 101.539 61.3449C101.839 60.9249 102.265 60.5949 102.817 60.3549C103.369 60.1029 103.999 59.9769 104.707 59.9769C105.799 59.9769 106.681 60.2529 107.353 60.8049C108.025 61.3569 108.385 62.1129 108.433 63.0729H106.795C106.759 62.5569 106.549 62.1429 106.165 61.8309C105.793 61.5189 105.289 61.3629 104.653 61.3629C104.065 61.3629 103.597 61.4889 103.249 61.7409C102.901 61.9929 102.727 62.3229 102.727 62.7309C102.727 63.0549 102.829 63.3249 103.033 63.5409C103.249 63.7449 103.513 63.9129 103.825 64.0449C104.149 64.1649 104.593 64.3029 105.157 64.4589C105.865 64.6509 106.441 64.8429 106.885 65.0349C107.329 65.2149 107.707 65.4909 108.019 65.8629C108.343 66.2349 108.511 66.7209 108.523 67.3209C108.523 67.8609 108.373 68.3469 108.073 68.7789C107.773 69.2109 107.347 69.5529 106.795 69.8049C106.255 70.0449 105.631 70.1649 104.923 70.1649ZM115.988 70.1649C115.064 70.1649 114.224 69.9549 113.468 69.5349C112.724 69.1149 112.136 68.5209 111.704 67.7529C111.284 66.9729 111.074 66.0729 111.074 65.0529C111.074 64.0449 111.29 63.1569 111.722 62.3889C112.166 61.6089 112.766 61.0149 113.522 60.6069C114.278 60.1869 115.124 59.9769 116.06 59.9769C116.996 59.9769 117.842 60.1869 118.598 60.6069C119.354 61.0149 119.948 61.6029 120.38 62.3709C120.824 63.1389 121.046 64.0329 121.046 65.0529C121.046 66.0729 120.818 66.9729 120.362 67.7529C119.918 68.5209 119.312 69.1149 118.544 69.5349C117.776 69.9549 116.924 70.1649 115.988 70.1649ZM115.988 68.7249C116.576 68.7249 117.128 68.5869 117.644 68.3109C118.16 68.0349 118.574 67.6209 118.886 67.0689C119.21 66.5169 119.372 65.8449 119.372 65.0529C119.372 64.2609 119.216 63.5889 118.904 63.0369C118.592 62.4849 118.184 62.0769 117.68 61.8129C117.176 61.5369 116.63 61.3989 116.042 61.3989C115.442 61.3989 114.89 61.5369 114.386 61.8129C113.894 62.0769 113.498 62.4849 113.198 63.0369C112.898 63.5889 112.748 64.2609 112.748 65.0529C112.748 65.8569 112.892 66.5349 113.18 67.0869C113.48 67.6389 113.876 68.0529 114.368 68.3289C114.86 68.5929 115.4 68.7249 115.988 68.7249ZM127.543 70.1649C126.787 70.1649 126.109 70.0389 125.509 69.7869C124.909 69.5229 124.435 69.1629 124.087 68.7069C123.739 68.2389 123.547 67.7049 123.511 67.1049H125.203C125.251 67.5969 125.479 67.9989 125.887 68.3109C126.307 68.6229 126.853 68.7789 127.525 68.7789C128.149 68.7789 128.641 68.6409 129.001 68.3649C129.361 68.0889 129.541 67.7409 129.541 67.3209C129.541 66.8889 129.349 66.5709 128.965 66.3669C128.581 66.1509 127.987 65.9409 127.183 65.7369C126.451 65.5449 125.851 65.3529 125.383 65.1609C124.927 64.9569 124.531 64.6629 124.195 64.2789C123.871 63.8829 123.709 63.3669 123.709 62.7309C123.709 62.2269 123.859 61.7649 124.159 61.3449C124.459 60.9249 124.885 60.5949 125.437 60.3549C125.989 60.1029 126.619 59.9769 127.327 59.9769C128.419 59.9769 129.301 60.2529 129.973 60.8049C130.645 61.3569 131.005 62.1129 131.053 63.0729H129.415C129.379 62.5569 129.169 62.1429 128.785 61.8309C128.413 61.5189 127.909 61.3629 127.273 61.3629C126.685 61.3629 126.217 61.4889 125.869 61.7409C125.521 61.9929 125.347 62.3229 125.347 62.7309C125.347 63.0549 125.449 63.3249 125.653 63.5409C125.869 63.7449 126.133 63.9129 126.445 64.0449C126.769 64.1649 127.213 64.3029 127.777 64.4589C128.485 64.6509 129.061 64.8429 129.505 65.0349C129.949 65.2149 130.327 65.4909 130.639 65.8629C130.963 66.2349 131.131 66.7209 131.143 67.3209C131.143 67.8609 130.993 68.3469 130.693 68.7789C130.393 69.2109 129.967 69.5529 129.415 69.8049C128.875 70.0449 128.251 70.1649 127.543 70.1649Z" fill="#1E88E5"/>
<path d="M24.58 139.466V140.046H21.5V142.656H24.1V143.236H21.5V146.456H20.8V139.466H24.58ZM31.5226 143.446C31.5226 143.686 31.5159 143.869 31.5026 143.996H26.9726C26.9926 144.409 27.0926 144.763 27.2726 145.056C27.4526 145.349 27.6893 145.573 27.9826 145.726C28.2759 145.873 28.5959 145.946 28.9426 145.946C29.3959 145.946 29.7759 145.836 30.0826 145.616C30.3959 145.396 30.6026 145.099 30.7026 144.726H31.4426C31.3093 145.259 31.0226 145.696 30.5826 146.036C30.1493 146.369 29.6026 146.536 28.9426 146.536C28.4293 146.536 27.9693 146.423 27.5626 146.196C27.1559 145.963 26.8359 145.636 26.6026 145.216C26.3759 144.789 26.2626 144.293 26.2626 143.726C26.2626 143.159 26.3759 142.663 26.6026 142.236C26.8293 141.809 27.1459 141.483 27.5526 141.256C27.9593 141.029 28.4226 140.916 28.9426 140.916C29.4626 140.916 29.9159 141.029 30.3026 141.256C30.6959 141.483 30.9959 141.789 31.2026 142.176C31.4159 142.556 31.5226 142.979 31.5226 143.446ZM30.8126 143.426C30.8193 143.019 30.7359 142.673 30.5626 142.386C30.3959 142.099 30.1659 141.883 29.8726 141.736C29.5793 141.589 29.2593 141.516 28.9126 141.516C28.3926 141.516 27.9493 141.683 27.5826 142.016C27.2159 142.349 27.0126 142.819 26.9726 143.426H30.8126ZM33.3343 143.726C33.3343 143.159 33.4476 142.666 33.6743 142.246C33.9009 141.819 34.2143 141.493 34.6143 141.266C35.0143 141.033 35.4709 140.916 35.9843 140.916C36.6576 140.916 37.2109 141.083 37.6443 141.416C38.0843 141.749 38.3676 142.203 38.4943 142.776H37.7443C37.6509 142.383 37.4476 142.076 37.1343 141.856C36.8276 141.629 36.4443 141.516 35.9843 141.516C35.6176 141.516 35.2876 141.599 34.9943 141.766C34.7009 141.933 34.4676 142.183 34.2943 142.516C34.1276 142.843 34.0443 143.246 34.0443 143.726C34.0443 144.206 34.1276 144.613 34.2943 144.946C34.4676 145.279 34.7009 145.529 34.9943 145.696C35.2876 145.863 35.6176 145.946 35.9843 145.946C36.4443 145.946 36.8276 145.836 37.1343 145.616C37.4476 145.389 37.6509 145.076 37.7443 144.676H38.4943C38.3676 145.236 38.0843 145.686 37.6443 146.026C37.2043 146.366 36.6509 146.536 35.9843 146.536C35.4709 146.536 35.0143 146.423 34.6143 146.196C34.2143 145.963 33.9009 145.636 33.6743 145.216C33.4476 144.789 33.3343 144.293 33.3343 143.726ZM43.238 140.896C43.6514 140.896 44.0214 140.983 44.348 141.156C44.6814 141.329 44.9414 141.596 45.128 141.956C45.3214 142.309 45.418 142.743 45.418 143.256V146.456H44.728V143.336C44.728 142.743 44.578 142.289 44.278 141.976C43.9847 141.663 43.5814 141.506 43.068 141.506C42.5414 141.506 42.1214 141.673 41.808 142.006C41.4947 142.339 41.338 142.829 41.338 143.476V146.456H40.638V139.056H41.338V141.926C41.5114 141.599 41.7647 141.346 42.098 141.166C42.438 140.986 42.818 140.896 43.238 140.896ZM47.4971 143.716C47.4971 143.156 47.6071 142.666 47.8271 142.246C48.0538 141.819 48.3638 141.493 48.7571 141.266C49.1571 141.033 49.6071 140.916 50.1071 140.916C50.6271 140.916 51.0738 141.036 51.4471 141.276C51.8271 141.516 52.1005 141.823 52.2671 142.196V140.996H52.9671V146.456H52.2671V145.246C52.0938 145.619 51.8171 145.929 51.4371 146.176C51.0638 146.416 50.6171 146.536 50.0971 146.536C49.6038 146.536 49.1571 146.419 48.7571 146.186C48.3638 145.953 48.0538 145.623 47.8271 145.196C47.6071 144.769 47.4971 144.276 47.4971 143.716ZM52.2671 143.726C52.2671 143.286 52.1771 142.899 51.9971 142.566C51.8171 142.233 51.5705 141.976 51.2571 141.796C50.9505 141.616 50.6105 141.526 50.2371 141.526C49.8505 141.526 49.5038 141.613 49.1971 141.786C48.8905 141.959 48.6471 142.213 48.4671 142.546C48.2938 142.873 48.2071 143.263 48.2071 143.716C48.2071 144.163 48.2938 144.556 48.4671 144.896C48.6471 145.229 48.8905 145.486 49.1971 145.666C49.5038 145.839 49.8505 145.926 50.2371 145.926C50.6105 145.926 50.9505 145.836 51.2571 145.656C51.5705 145.476 51.8171 145.219 51.9971 144.886C52.1771 144.553 52.2671 144.166 52.2671 143.726Z" fill="#8598AD"/>
<path d="M113.63 139.556V146.456H112.93V140.946L110.47 146.456H109.96L107.5 140.966V146.456H106.8V139.556H107.54L110.21 145.536L112.88 139.556H113.63ZM116.419 139.966C116.279 139.966 116.159 139.916 116.059 139.816C115.959 139.716 115.909 139.593 115.909 139.446C115.909 139.299 115.959 139.179 116.059 139.086C116.159 138.986 116.279 138.936 116.419 138.936C116.559 138.936 116.679 138.986 116.779 139.086C116.879 139.179 116.929 139.299 116.929 139.446C116.929 139.593 116.879 139.716 116.779 139.816C116.679 139.916 116.559 139.966 116.419 139.966ZM116.769 140.996V146.456H116.069V140.996H116.769ZM121.765 140.896C122.418 140.896 122.952 141.099 123.365 141.506C123.778 141.906 123.985 142.489 123.985 143.256V146.456H123.295V143.336C123.295 142.743 123.145 142.289 122.845 141.976C122.552 141.663 122.148 141.506 121.635 141.506C121.108 141.506 120.688 141.673 120.375 142.006C120.062 142.339 119.905 142.829 119.905 143.476V146.456H119.205V140.996H119.905V141.926C120.078 141.593 120.328 141.339 120.655 141.166C120.982 140.986 121.352 140.896 121.765 140.896ZM126.504 146.506C126.357 146.506 126.234 146.456 126.134 146.356C126.041 146.256 125.994 146.133 125.994 145.986C125.994 145.839 126.041 145.719 126.134 145.626C126.234 145.526 126.357 145.476 126.504 145.476C126.644 145.476 126.761 145.526 126.854 145.626C126.954 145.719 127.004 145.839 127.004 145.986C127.004 146.133 126.954 146.256 126.854 146.356C126.761 146.456 126.644 146.506 126.504 146.506ZM136.697 144.796H133.517L132.907 146.456H132.167L134.717 139.556H135.507L138.047 146.456H137.307L136.697 144.796ZM136.487 144.216L135.107 140.436L133.727 144.216H136.487ZM139.701 143.726C139.701 143.159 139.814 142.666 140.041 142.246C140.268 141.819 140.581 141.493 140.981 141.266C141.381 141.033 141.838 140.916 142.351 140.916C143.024 140.916 143.578 141.083 144.011 141.416C144.451 141.749 144.734 142.203 144.861 142.776H144.111C144.018 142.383 143.814 142.076 143.501 141.856C143.194 141.629 142.811 141.516 142.351 141.516C141.984 141.516 141.654 141.599 141.361 141.766C141.068 141.933 140.834 142.183 140.661 142.516C140.494 142.843 140.411 143.246 140.411 143.726C140.411 144.206 140.494 144.613 140.661 144.946C140.834 145.279 141.068 145.529 141.361 145.696C141.654 145.863 141.984 145.946 142.351 145.946C142.811 145.946 143.194 145.836 143.501 145.616C143.814 145.389 144.018 145.076 144.111 144.676H144.861C144.734 145.236 144.451 145.686 144.011 146.026C143.571 146.366 143.018 146.536 142.351 146.536C141.838 146.536 141.381 146.423 140.981 146.196C140.581 145.963 140.268 145.636 140.041 145.216C139.814 144.789 139.701 144.293 139.701 143.726ZM147.915 141.586V144.976C147.915 145.309 147.978 145.539 148.105 145.666C148.231 145.793 148.455 145.856 148.775 145.856H149.415V146.456H148.665C148.171 146.456 147.805 146.343 147.565 146.116C147.325 145.883 147.205 145.503 147.205 144.976V141.586H146.445V140.996H147.205V139.626H147.915V140.996H149.415V141.586H147.915ZM151.77 139.966C151.63 139.966 151.51 139.916 151.41 139.816C151.31 139.716 151.26 139.593 151.26 139.446C151.26 139.299 151.31 139.179 151.41 139.086C151.51 138.986 151.63 138.936 151.77 138.936C151.91 138.936 152.03 138.986 152.13 139.086C152.23 139.179 152.28 139.299 152.28 139.446C152.28 139.593 152.23 139.716 152.13 139.816C152.03 139.916 151.91 139.966 151.77 139.966ZM152.12 140.996V146.456H151.42V140.996H152.12ZM156.496 145.776L158.336 140.996H159.076L156.886 146.456H156.096L153.906 140.996H154.656L156.496 145.776ZM163.266 146.536C162.753 146.536 162.289 146.423 161.876 146.196C161.469 145.963 161.146 145.636 160.906 145.216C160.673 144.789 160.556 144.293 160.556 143.726C160.556 143.159 160.676 142.666 160.916 142.246C161.156 141.819 161.483 141.493 161.896 141.266C162.309 141.033 162.773 140.916 163.286 140.916C163.799 140.916 164.263 141.033 164.676 141.266C165.096 141.493 165.423 141.819 165.656 142.246C165.896 142.666 166.016 143.159 166.016 143.726C166.016 144.286 165.896 144.779 165.656 145.206C165.416 145.633 165.086 145.963 164.666 146.196C164.246 146.423 163.779 146.536 163.266 146.536ZM163.266 145.926C163.626 145.926 163.959 145.846 164.266 145.686C164.573 145.519 164.819 145.273 165.006 144.946C165.199 144.613 165.296 144.206 165.296 143.726C165.296 143.246 165.203 142.843 165.016 142.516C164.829 142.183 164.583 141.936 164.276 141.776C163.969 141.609 163.636 141.526 163.276 141.526C162.916 141.526 162.583 141.609 162.276 141.776C161.969 141.936 161.723 142.183 161.536 142.516C161.356 142.843 161.266 143.246 161.266 143.726C161.266 144.206 161.356 144.613 161.536 144.946C161.723 145.273 161.966 145.519 162.266 145.686C162.573 145.846 162.906 145.926 163.266 145.926Z" fill="#8598AD"/>
<path d="M20 154.456H182" stroke="#979797" stroke-width="0.2"/>
<path d="M80 134.456L80 152.456" stroke="#979797" stroke-width="0.3"/>
<path d="M26.07 168.936L23.29 175.456H22.37L25.19 169.026H21.33V168.246H26.07V168.936ZM31.8799 171.406V172.176H27.8899V171.406H31.8799ZM34.0487 169.056V168.226H35.9287V175.456H35.0087V169.056H34.0487ZM38.3428 171.766C38.3428 170.619 38.5295 169.726 38.9028 169.086C39.2761 168.439 39.9295 168.116 40.8628 168.116C41.7895 168.116 42.4395 168.439 42.8128 169.086C43.1861 169.726 43.3728 170.619 43.3728 171.766C43.3728 172.933 43.1861 173.839 42.8128 174.486C42.4395 175.133 41.7895 175.456 40.8628 175.456C39.9295 175.456 39.2761 175.133 38.9028 174.486C38.5295 173.839 38.3428 172.933 38.3428 171.766ZM42.4728 171.766C42.4728 171.186 42.4328 170.696 42.3528 170.296C42.2795 169.889 42.1228 169.563 41.8828 169.316C41.6495 169.069 41.3095 168.946 40.8628 168.946C40.4095 168.946 40.0628 169.069 39.8228 169.316C39.5895 169.563 39.4328 169.889 39.3528 170.296C39.2795 170.696 39.2428 171.186 39.2428 171.766C39.2428 172.366 39.2795 172.869 39.3528 173.276C39.4328 173.683 39.5895 174.009 39.8228 174.256C40.0628 174.503 40.4095 174.626 40.8628 174.626C41.3095 174.626 41.6495 174.503 41.8828 174.256C42.1228 174.009 42.2795 173.683 42.3528 173.276C42.4328 172.869 42.4728 172.366 42.4728 171.766ZM49.4231 171.406V172.176H45.4331V171.406H49.4231ZM51.7218 174.726C52.5685 174.046 53.2318 173.489 53.7118 173.056C54.1918 172.616 54.5952 172.159 54.9218 171.686C55.2552 171.206 55.4218 170.736 55.4218 170.276C55.4218 169.843 55.3152 169.503 55.1018 169.256C54.8952 169.003 54.5585 168.876 54.0918 168.876C53.6385 168.876 53.2852 169.019 53.0318 169.306C52.7852 169.586 52.6518 169.963 52.6318 170.436H51.7518C51.7785 169.689 52.0052 169.113 52.4318 168.706C52.8585 168.299 53.4085 168.096 54.0818 168.096C54.7685 168.096 55.3118 168.286 55.7118 168.666C56.1185 169.046 56.3218 169.569 56.3218 170.236C56.3218 170.789 56.1552 171.329 55.8218 171.856C55.4952 172.376 55.1218 172.836 54.7018 173.236C54.2818 173.629 53.7452 174.089 53.0918 174.616H56.5318V175.376H51.7218V174.726ZM58.4348 171.766C58.4348 170.619 58.6214 169.726 58.9948 169.086C59.3681 168.439 60.0214 168.116 60.9548 168.116C61.8814 168.116 62.5314 168.439 62.9048 169.086C63.2781 169.726 63.4648 170.619 63.4648 171.766C63.4648 172.933 63.2781 173.839 62.9048 174.486C62.5314 175.133 61.8814 175.456 60.9548 175.456C60.0214 175.456 59.3681 175.133 58.9948 174.486C58.6214 173.839 58.4348 172.933 58.4348 171.766ZM62.5648 171.766C62.5648 171.186 62.5248 170.696 62.4448 170.296C62.3714 169.889 62.2148 169.563 61.9748 169.316C61.7414 169.069 61.4014 168.946 60.9548 168.946C60.5014 168.946 60.1548 169.069 59.9148 169.316C59.6814 169.563 59.5248 169.889 59.4448 170.296C59.3714 170.696 59.3348 171.186 59.3348 171.766C59.3348 172.366 59.3714 172.869 59.4448 173.276C59.5248 173.683 59.6814 174.009 59.9148 174.256C60.1548 174.503 60.5014 174.626 60.9548 174.626C61.4014 174.626 61.7414 174.503 61.9748 174.256C62.2148 174.009 62.3714 173.683 62.4448 173.276C62.5248 172.869 62.5648 172.366 62.5648 171.766ZM65.325 169.056V168.226H67.205V175.456H66.285V169.056H65.325ZM70.7891 173.516C70.8558 173.896 71.0091 174.189 71.2491 174.396C71.4958 174.603 71.8258 174.706 72.2391 174.706C72.7924 174.706 73.1991 174.489 73.4591 174.056C73.7258 173.623 73.8524 172.893 73.8391 171.866C73.6991 172.166 73.4658 172.403 73.1391 172.576C72.8124 172.743 72.4491 172.826 72.0491 172.826C71.6024 172.826 71.2024 172.736 70.8491 172.556C70.5024 172.369 70.2291 172.099 70.0291 171.746C69.8291 171.393 69.7291 170.966 69.7291 170.466C69.7291 169.753 69.9358 169.179 70.3491 168.746C70.7624 168.306 71.3491 168.086 72.1091 168.086C73.0424 168.086 73.6958 168.389 74.0691 168.996C74.4491 169.603 74.6391 170.506 74.6391 171.706C74.6391 172.546 74.5624 173.239 74.4091 173.786C74.2624 174.333 74.0091 174.749 73.6491 175.036C73.2958 175.323 72.8091 175.466 72.1891 175.466C71.5091 175.466 70.9791 175.283 70.5991 174.916C70.2191 174.549 70.0024 174.083 69.9491 173.516H70.7891ZM72.1991 172.056C72.6458 172.056 73.0124 171.919 73.2991 171.646C73.5858 171.366 73.7291 170.989 73.7291 170.516C73.7291 170.016 73.5891 169.613 73.3091 169.306C73.0291 168.999 72.6358 168.846 72.1291 168.846C71.6624 168.846 71.2891 168.993 71.0091 169.286C70.7358 169.579 70.5991 169.966 70.5991 170.446C70.5991 170.933 70.7358 171.323 71.0091 171.616C71.2824 171.909 71.6791 172.056 72.1991 172.056Z" fill="#1E88E5"/>
<path d="M110.65 169.946C110.503 169.206 110.047 168.836 109.28 168.836C108.687 168.836 108.243 169.066 107.95 169.526C107.657 169.979 107.513 170.729 107.52 171.776C107.673 171.429 107.927 171.159 108.28 170.966C108.64 170.766 109.04 170.666 109.48 170.666C110.167 170.666 110.713 170.879 111.12 171.306C111.533 171.733 111.74 172.323 111.74 173.076C111.74 173.529 111.65 173.936 111.47 174.296C111.297 174.656 111.03 174.943 110.67 175.156C110.317 175.369 109.887 175.476 109.38 175.476C108.693 175.476 108.157 175.323 107.77 175.016C107.383 174.709 107.113 174.286 106.96 173.746C106.807 173.206 106.73 172.539 106.73 171.746C106.73 169.299 107.583 168.076 109.29 168.076C109.943 168.076 110.457 168.253 110.83 168.606C111.203 168.959 111.423 169.406 111.49 169.946H110.65ZM109.29 171.436C109.003 171.436 108.733 171.496 108.48 171.616C108.227 171.729 108.02 171.906 107.86 172.146C107.707 172.379 107.63 172.666 107.63 173.006C107.63 173.513 107.777 173.926 108.07 174.246C108.363 174.559 108.783 174.716 109.33 174.716C109.797 174.716 110.167 174.573 110.44 174.286C110.72 173.993 110.86 173.599 110.86 173.106C110.86 172.586 110.727 172.179 110.46 171.886C110.193 171.586 109.803 171.436 109.29 171.436ZM113.819 171.766C113.819 170.619 114.005 169.726 114.379 169.086C114.752 168.439 115.405 168.116 116.339 168.116C117.265 168.116 117.915 168.439 118.289 169.086C118.662 169.726 118.849 170.619 118.849 171.766C118.849 172.933 118.662 173.839 118.289 174.486C117.915 175.133 117.265 175.456 116.339 175.456C115.405 175.456 114.752 175.133 114.379 174.486C114.005 173.839 113.819 172.933 113.819 171.766ZM117.949 171.766C117.949 171.186 117.909 170.696 117.829 170.296C117.755 169.889 117.599 169.563 117.359 169.316C117.125 169.069 116.785 168.946 116.339 168.946C115.885 168.946 115.539 169.069 115.299 169.316C115.065 169.563 114.909 169.889 114.829 170.296C114.755 170.696 114.719 171.186 114.719 171.766C114.719 172.366 114.755 172.869 114.829 173.276C114.909 173.683 115.065 174.009 115.299 174.256C115.539 174.503 115.885 174.626 116.339 174.626C116.785 174.626 117.125 174.503 117.359 174.256C117.599 174.009 117.755 173.683 117.829 173.276C117.909 172.869 117.949 172.366 117.949 171.766ZM131.686 168.536V175.456H130.776V170.296L128.476 175.456H127.836L125.526 170.286V175.456H124.616V168.536H125.596L128.156 174.256L130.716 168.536H131.686ZM134.55 169.086C134.377 169.086 134.23 169.026 134.11 168.906C133.99 168.786 133.93 168.639 133.93 168.466C133.93 168.293 133.99 168.146 134.11 168.026C134.23 167.906 134.377 167.846 134.55 167.846C134.717 167.846 134.857 167.906 134.97 168.026C135.09 168.146 135.15 168.293 135.15 168.466C135.15 168.639 135.09 168.786 134.97 168.906C134.857 169.026 134.717 169.086 134.55 169.086ZM134.99 169.976V175.456H134.08V169.976H134.99ZM140.062 169.876C140.729 169.876 141.269 170.079 141.682 170.486C142.095 170.886 142.302 171.466 142.302 172.226V175.456H141.402V172.356C141.402 171.809 141.265 171.393 140.992 171.106C140.719 170.813 140.345 170.666 139.872 170.666C139.392 170.666 139.009 170.816 138.722 171.116C138.442 171.416 138.302 171.853 138.302 172.426V175.456H137.392V169.976H138.302V170.756C138.482 170.476 138.725 170.259 139.032 170.106C139.345 169.953 139.689 169.876 140.062 169.876ZM144.929 175.516C144.756 175.516 144.609 175.456 144.489 175.336C144.369 175.216 144.309 175.069 144.309 174.896C144.309 174.723 144.369 174.576 144.489 174.456C144.609 174.336 144.756 174.276 144.929 174.276C145.096 174.276 145.236 174.336 145.349 174.456C145.469 174.576 145.529 174.723 145.529 174.896C145.529 175.069 145.469 175.216 145.349 175.336C145.236 175.456 145.096 175.516 144.929 175.516Z" fill="#1E88E5"/>
<defs>
<clipPath id="clip0">
<rect width="78.0319" height="78.0319" fill="white" transform="translate(202.047 59.9119)"/>
</clipPath>
<clipPath id="clip1">
<rect width="78" height="78" fill="white" transform="translate(202 60)"/>
</clipPath>
</defs>
</svg>
