<svg width="322" height="198" viewBox="0 0 322 198" fill="none" xmlns="http://www.w3.org/2000/svg">
<path d="M309.876 197.216L12.5498 197.867C5.83947 197.88 0.384821 192.43 0.371319 185.692L2.5135e-05 12.8793C-0.0134765 6.14142 5.41417 0.664326 12.1245 0.650769L309.45 2.52384e-05C316.161 -0.0135319 321.615 5.43644 321.629 12.1743L322 184.987C322.013 191.725 316.586 197.202 309.876 197.216Z" fill="white"/>
<g clip-path="url(#clip0)">
<g clip-path="url(#clip1)">
<path d="M232.127 109.037L224.64 132.85C224.039 134.63 225.925 137.231 227.713 137.807C229.501 138.382 232.541 137.175 233.09 135.379L239.686 115.636C237.251 113.586 234.317 111.308 232.127 109.037Z" fill="#B9CEF9"/>
<path d="M241.801 76.9408C240.704 76.969 237.577 77.6126 236.402 78.5748C236.223 78.7207 230.749 81.4711 229.126 82.3938C229.028 82.4499 227.15 83.2167 226.394 83.9525C225.458 84.8622 224.889 85.9171 224.619 86.5079C224.49 86.7886 220.61 99.2892 220.609 99.295C219.988 101.906 221.176 103.175 222.627 103.868C224.819 104.914 226.829 103.588 227.539 101.932C227.684 101.592 230.989 89.8189 231.407 89.4627C232.119 88.8561 232.893 88.5384 233.223 88.4315C233.742 88.2637 234.103 87.8705 234.156 88.7094L232.086 102.25C232.407 105.596 233.162 107.362 234.815 108.745C237.924 111.343 240.186 113.25 245.048 117.33L246.233 134.625C246.343 136.136 249.348 138.59 251.57 137.901C253.017 137.453 255.161 136.028 255.014 134.52C254.922 128.964 254.586 125.398 254.303 120.592C254.046 116.242 254.455 114.613 251.971 111.888C246.688 106.663 244.117 106.198 244.206 103.796L246.979 83.5713C247.537 79.2072 243.553 76.8958 241.801 76.9408Z" fill="#B9CEF9"/>
<path d="M247.492 95.9773L256.264 102.667C258.089 103.603 260.174 102.592 261.054 101.412C261.963 100.192 261.66 97.5602 260.736 96.899L248.581 87.4929C248.205 91.1764 247.873 93.3704 247.492 95.9773Z" fill="#B9CEF9"/>
<path d="M244.308 74.8087C248.359 74.8087 251.642 71.5253 251.642 67.475C251.642 63.4247 248.359 60.1414 244.308 60.1414C240.258 60.1414 236.975 63.4247 236.975 67.475C236.975 71.5253 240.258 74.8087 244.308 74.8087Z" fill="#B9CEF9"/>
</g>
</g>
<path d="M30.3254 36.745H23.9414L22.7654 40H20.7494L26.0414 25.447H28.2464L33.5174 40H31.5014L30.3254 36.745ZM29.7794 35.191L27.1334 27.799L24.4874 35.191H29.7794ZM35.9607 34.225C35.9607 33.035 36.1987 31.999 36.6747 31.117C37.1507 30.221 37.8087 29.528 38.6487 29.038C39.5027 28.548 40.4757 28.303 41.5677 28.303C42.9817 28.303 44.1437 28.646 45.0537 29.332C45.9777 30.018 46.5867 30.97 46.8807 32.188H44.8227C44.6267 31.488 44.2417 30.935 43.6677 30.529C43.1077 30.123 42.4077 29.92 41.5677 29.92C40.4757 29.92 39.5937 30.298 38.9217 31.054C38.2497 31.796 37.9137 32.853 37.9137 34.225C37.9137 35.611 38.2497 36.682 38.9217 37.438C39.5937 38.194 40.4757 38.572 41.5677 38.572C42.4077 38.572 43.1077 38.376 43.6677 37.984C44.2277 37.592 44.6127 37.032 44.8227 36.304H46.8807C46.5727 37.48 45.9567 38.425 45.0327 39.139C44.1087 39.839 42.9537 40.189 41.5677 40.189C40.4757 40.189 39.5027 39.944 38.6487 39.454C37.8087 38.964 37.1507 38.271 36.6747 37.375C36.1987 36.479 35.9607 35.429 35.9607 34.225ZM52.6126 30.067V36.85C52.6126 37.41 52.7316 37.809 52.9696 38.047C53.2076 38.271 53.6206 38.383 54.2086 38.383H55.6156V40H53.8936C52.8296 40 52.0316 39.755 51.4996 39.265C50.9676 38.775 50.7016 37.97 50.7016 36.85V30.067H49.2106V28.492H50.7016V25.594H52.6126V28.492H55.6156V30.067H52.6126ZM68.9879 28.492V40H67.0769V38.299C66.7129 38.887 66.2019 39.349 65.5439 39.685C64.8999 40.007 64.1859 40.168 63.4019 40.168C62.5059 40.168 61.7009 39.986 60.9869 39.622C60.2729 39.244 59.7059 38.684 59.2859 37.942C58.8799 37.2 58.6769 36.297 58.6769 35.233V28.492H60.5669V34.981C60.5669 36.115 60.8539 36.99 61.4279 37.606C62.0019 38.208 62.7859 38.509 63.7799 38.509C64.8019 38.509 65.6069 38.194 66.1949 37.564C66.7829 36.934 67.0769 36.017 67.0769 34.813V28.492H68.9879ZM72.3515 34.204C72.3515 33.028 72.5895 31.999 73.0655 31.117C73.5415 30.221 74.1925 29.528 75.0185 29.038C75.8585 28.548 76.7895 28.303 77.8115 28.303C78.8195 28.303 79.6945 28.52 80.4365 28.954C81.1785 29.388 81.7315 29.934 82.0955 30.592V28.492H84.0275V40H82.0955V37.858C81.7175 38.53 81.1505 39.09 80.3945 39.538C79.6525 39.972 78.7845 40.189 77.7905 40.189C76.7685 40.189 75.8445 39.937 75.0185 39.433C74.1925 38.929 73.5415 38.222 73.0655 37.312C72.5895 36.402 72.3515 35.366 72.3515 34.204ZM82.0955 34.225C82.0955 33.357 81.9205 32.601 81.5705 31.957C81.2205 31.313 80.7445 30.823 80.1425 30.487C79.5545 30.137 78.9035 29.962 78.1895 29.962C77.4755 29.962 76.8245 30.13 76.2365 30.466C75.6485 30.802 75.1795 31.292 74.8295 31.936C74.4795 32.58 74.3045 33.336 74.3045 34.204C74.3045 35.086 74.4795 35.856 74.8295 36.514C75.1795 37.158 75.6485 37.655 76.2365 38.005C76.8245 38.341 77.4755 38.509 78.1895 38.509C78.9035 38.509 79.5545 38.341 80.1425 38.005C80.7445 37.655 81.2205 37.158 81.5705 36.514C81.9205 35.856 82.0955 35.093 82.0955 34.225ZM90.0189 24.46V40H88.1079V24.46H90.0189ZM105.217 40.147C104.251 40.147 103.383 39.979 102.613 39.643C101.857 39.293 101.262 38.817 100.828 38.215C100.394 37.599 100.17 36.892 100.156 36.094H102.193C102.263 36.78 102.543 37.361 103.033 37.837C103.537 38.299 104.265 38.53 105.217 38.53C106.127 38.53 106.841 38.306 107.359 37.858C107.891 37.396 108.157 36.808 108.157 36.094C108.157 35.534 108.003 35.079 107.695 34.729C107.387 34.379 107.002 34.113 106.54 33.931C106.078 33.749 105.455 33.553 104.671 33.343C103.705 33.091 102.928 32.839 102.34 32.587C101.766 32.335 101.269 31.943 100.849 31.411C100.443 30.865 100.24 30.137 100.24 29.227C100.24 28.429 100.443 27.722 100.849 27.106C101.255 26.49 101.822 26.014 102.55 25.678C103.292 25.342 104.139 25.174 105.091 25.174C106.463 25.174 107.583 25.517 108.451 26.203C109.333 26.889 109.83 27.799 109.942 28.933H107.842C107.772 28.373 107.478 27.883 106.96 27.463C106.442 27.029 105.756 26.812 104.902 26.812C104.104 26.812 103.453 27.022 102.949 27.442C102.445 27.848 102.193 28.422 102.193 29.164C102.193 29.696 102.34 30.13 102.634 30.466C102.942 30.802 103.313 31.061 103.747 31.243C104.195 31.411 104.818 31.607 105.616 31.831C106.582 32.097 107.359 32.363 107.947 32.629C108.535 32.881 109.039 33.28 109.459 33.826C109.879 34.358 110.089 35.086 110.089 36.01C110.089 36.724 109.9 37.396 109.522 38.026C109.144 38.656 108.584 39.167 107.842 39.559C107.1 39.951 106.225 40.147 105.217 40.147ZM124.253 33.805C124.253 34.169 124.232 34.554 124.19 34.96H114.992C115.062 36.094 115.447 36.983 116.147 37.627C116.861 38.257 117.722 38.572 118.73 38.572C119.556 38.572 120.242 38.383 120.788 38.005C121.348 37.613 121.74 37.095 121.964 36.451H124.022C123.714 37.557 123.098 38.46 122.174 39.16C121.25 39.846 120.102 40.189 118.73 40.189C117.638 40.189 116.658 39.944 115.79 39.454C114.936 38.964 114.264 38.271 113.774 37.375C113.284 36.465 113.039 35.415 113.039 34.225C113.039 33.035 113.277 31.992 113.753 31.096C114.229 30.2 114.894 29.514 115.748 29.038C116.616 28.548 117.61 28.303 118.73 28.303C119.822 28.303 120.788 28.541 121.628 29.017C122.468 29.493 123.112 30.151 123.56 30.991C124.022 31.817 124.253 32.755 124.253 33.805ZM122.279 33.406C122.279 32.678 122.118 32.055 121.796 31.537C121.474 31.005 121.033 30.606 120.473 30.34C119.927 30.06 119.318 29.92 118.646 29.92C117.68 29.92 116.854 30.228 116.168 30.844C115.496 31.46 115.111 32.314 115.013 33.406H122.279ZM131.7 40.189C130.818 40.189 130.027 40.042 129.327 39.748C128.627 39.44 128.074 39.02 127.668 38.488C127.262 37.942 127.038 37.319 126.996 36.619H128.97C129.026 37.193 129.292 37.662 129.768 38.026C130.258 38.39 130.895 38.572 131.679 38.572C132.407 38.572 132.981 38.411 133.401 38.089C133.821 37.767 134.031 37.361 134.031 36.871C134.031 36.367 133.807 35.996 133.359 35.758C132.911 35.506 132.218 35.261 131.28 35.023C130.426 34.799 129.726 34.575 129.18 34.351C128.648 34.113 128.186 33.77 127.794 33.322C127.416 32.86 127.227 32.258 127.227 31.516C127.227 30.928 127.402 30.389 127.752 29.899C128.102 29.409 128.599 29.024 129.243 28.744C129.887 28.45 130.622 28.303 131.448 28.303C132.722 28.303 133.751 28.625 134.535 29.269C135.319 29.913 135.739 30.795 135.795 31.915H133.884C133.842 31.313 133.597 30.83 133.149 30.466C132.715 30.102 132.127 29.92 131.385 29.92C130.699 29.92 130.153 30.067 129.747 30.361C129.341 30.655 129.138 31.04 129.138 31.516C129.138 31.894 129.257 32.209 129.495 32.461C129.747 32.699 130.055 32.895 130.419 33.049C130.797 33.189 131.315 33.35 131.973 33.532C132.799 33.756 133.471 33.98 133.989 34.204C134.507 34.414 134.948 34.736 135.312 35.17C135.69 35.604 135.886 36.171 135.9 36.871C135.9 37.501 135.725 38.068 135.375 38.572C135.025 39.076 134.528 39.475 133.884 39.769C133.254 40.049 132.526 40.189 131.7 40.189ZM140.436 26.623C140.072 26.623 139.764 26.497 139.512 26.245C139.26 25.993 139.134 25.685 139.134 25.321C139.134 24.957 139.26 24.649 139.512 24.397C139.764 24.145 140.072 24.019 140.436 24.019C140.786 24.019 141.08 24.145 141.318 24.397C141.57 24.649 141.696 24.957 141.696 25.321C141.696 25.685 141.57 25.993 141.318 26.245C141.08 26.497 140.786 26.623 140.436 26.623ZM141.36 28.492V40H139.449V28.492H141.36ZM150.487 40.189C149.409 40.189 148.429 39.944 147.547 39.454C146.679 38.964 145.993 38.271 145.489 37.375C144.999 36.465 144.754 35.415 144.754 34.225C144.754 33.049 145.006 32.013 145.51 31.117C146.028 30.207 146.728 29.514 147.61 29.038C148.492 28.548 149.479 28.303 150.571 28.303C151.663 28.303 152.65 28.548 153.532 29.038C154.414 29.514 155.107 30.2 155.611 31.096C156.129 31.992 156.388 33.035 156.388 34.225C156.388 35.415 156.122 36.465 155.59 37.375C155.072 38.271 154.365 38.964 153.469 39.454C152.573 39.944 151.579 40.189 150.487 40.189ZM150.487 38.509C151.173 38.509 151.817 38.348 152.419 38.026C153.021 37.704 153.504 37.221 153.868 36.577C154.246 35.933 154.435 35.149 154.435 34.225C154.435 33.301 154.253 32.517 153.889 31.873C153.525 31.229 153.049 30.753 152.461 30.445C151.873 30.123 151.236 29.962 150.55 29.962C149.85 29.962 149.206 30.123 148.618 30.445C148.044 30.753 147.582 31.229 147.232 31.873C146.882 32.517 146.707 33.301 146.707 34.225C146.707 35.163 146.875 35.954 147.211 36.598C147.561 37.242 148.023 37.725 148.597 38.047C149.171 38.355 149.801 38.509 150.487 38.509ZM152.629 25.09L148.156 27.484V26.056L152.629 23.431V25.09ZM165.358 28.282C166.758 28.282 167.892 28.709 168.76 29.563C169.628 30.403 170.062 31.621 170.062 33.217V40H168.172V33.49C168.172 32.342 167.885 31.467 167.311 30.865C166.737 30.249 165.953 29.941 164.959 29.941C163.951 29.941 163.146 30.256 162.544 30.886C161.956 31.516 161.662 32.433 161.662 33.637V40H159.751V28.492H161.662V30.13C162.04 29.542 162.551 29.087 163.195 28.765C163.853 28.443 164.574 28.282 165.358 28.282Z" fill="#8598AD"/>
<path d="M22.588 96.166C22.812 93.222 23.948 90.918 25.996 89.254C28.044 87.59 30.7 86.758 33.964 86.758C36.14 86.758 38.012 87.158 39.58 87.958C41.18 88.726 42.38 89.782 43.18 91.126C44.012 92.47 44.428 93.99 44.428 95.686C44.428 97.67 43.852 99.382 42.7 100.822C41.58 102.262 40.108 103.19 38.284 103.606V103.846C40.364 104.358 42.012 105.366 43.228 106.87C44.444 108.374 45.052 110.342 45.052 112.774C45.052 114.598 44.636 116.246 43.804 117.718C42.972 119.158 41.724 120.294 40.06 121.126C38.396 121.958 36.396 122.374 34.06 122.374C30.668 122.374 27.884 121.494 25.708 119.734C23.532 117.942 22.316 115.414 22.06 112.15H26.284C26.508 114.07 27.292 115.638 28.636 116.854C29.98 118.07 31.772 118.678 34.012 118.678C36.252 118.678 37.948 118.102 39.1 116.95C40.284 115.766 40.876 114.246 40.876 112.39C40.876 109.99 40.076 108.262 38.476 107.206C36.876 106.15 34.46 105.622 31.228 105.622H30.124V101.974H31.276C34.22 101.942 36.444 101.462 37.948 100.534C39.452 99.574 40.204 98.102 40.204 96.118C40.204 94.422 39.644 93.062 38.524 92.038C37.436 91.014 35.868 90.502 33.82 90.502C31.836 90.502 30.236 91.014 29.02 92.038C27.804 93.062 27.084 94.438 26.86 96.166H22.588ZM50.7446 114.406V111.094L67.5926 87.766H72.8246V110.614H77.6246V114.406H72.8246V122.134H68.5046V114.406H50.7446ZM68.6966 92.326L55.7846 110.614H68.6966V92.326ZM82.8391 104.422C82.8391 98.918 83.7351 94.63 85.5271 91.558C87.3191 88.454 90.4551 86.902 94.9351 86.902C99.3831 86.902 102.503 88.454 104.295 91.558C106.087 94.63 106.983 98.918 106.983 104.422C106.983 110.022 106.087 114.374 104.295 117.478C102.503 120.582 99.3831 122.134 94.9351 122.134C90.4551 122.134 87.3191 120.582 85.5271 117.478C83.7351 114.374 82.8391 110.022 82.8391 104.422ZM102.663 104.422C102.663 101.638 102.471 99.286 102.087 97.366C101.735 95.414 100.983 93.846 99.8311 92.662C98.7111 91.478 97.0791 90.886 94.9351 90.886C92.7591 90.886 91.0951 91.478 89.9431 92.662C88.8231 93.846 88.0711 95.414 87.6871 97.366C87.3351 99.286 87.1591 101.638 87.1591 104.422C87.1591 107.302 87.3351 109.718 87.6871 111.67C88.0711 113.622 88.8231 115.19 89.9431 116.374C91.0951 117.558 92.7591 118.15 94.9351 118.15C97.0791 118.15 98.7111 117.558 99.8311 116.374C100.983 115.19 101.735 113.622 102.087 111.67C102.471 109.718 102.663 107.302 102.663 104.422Z" fill="#3F567A"/>
<path d="M28.816 58.4569V59.7889H25.396V71.0029H23.758V59.7889H20.32V58.4569H28.816ZM35.9853 71.1649C35.0613 71.1649 34.2213 70.9549 33.4653 70.5349C32.7213 70.1149 32.1333 69.5209 31.7013 68.7529C31.2813 67.9729 31.0713 67.0729 31.0713 66.0529C31.0713 65.0449 31.2873 64.1569 31.7193 63.3889C32.1633 62.6089 32.7633 62.0149 33.5193 61.6069C34.2753 61.1869 35.1213 60.9769 36.0573 60.9769C36.9933 60.9769 37.8393 61.1869 38.5953 61.6069C39.3513 62.0149 39.9453 62.6029 40.3773 63.3709C40.8213 64.1389 41.0433 65.0329 41.0433 66.0529C41.0433 67.0729 40.8153 67.9729 40.3593 68.7529C39.9153 69.5209 39.3093 70.1149 38.5413 70.5349C37.7733 70.9549 36.9213 71.1649 35.9853 71.1649ZM35.9853 69.7249C36.5733 69.7249 37.1253 69.5869 37.6413 69.3109C38.1573 69.0349 38.5713 68.6209 38.8833 68.0689C39.2073 67.5169 39.3693 66.8449 39.3693 66.0529C39.3693 65.2609 39.2133 64.5889 38.9013 64.0369C38.5893 63.4849 38.1813 63.0769 37.6773 62.8129C37.1733 62.5369 36.6273 62.3989 36.0393 62.3989C35.4393 62.3989 34.8873 62.5369 34.3833 62.8129C33.8913 63.0769 33.4953 63.4849 33.1953 64.0369C32.8953 64.5889 32.7453 65.2609 32.7453 66.0529C32.7453 66.8569 32.8893 67.5349 33.1773 68.0869C33.4773 68.6389 33.8733 69.0529 34.3653 69.3289C34.8573 69.5929 35.3973 69.7249 35.9853 69.7249ZM46.0459 62.4889V68.3029C46.0459 68.7829 46.1479 69.1249 46.3519 69.3289C46.5559 69.5209 46.9099 69.6169 47.4139 69.6169H48.6199V71.0029H47.1439C46.2319 71.0029 45.5479 70.7929 45.0919 70.3729C44.6359 69.9529 44.4079 69.2629 44.4079 68.3029V62.4889H43.1299V61.1389H44.4079V58.6549H46.0459V61.1389H48.6199V62.4889H46.0459ZM50.8435 66.0349C50.8435 65.0269 51.0475 64.1449 51.4555 63.3889C51.8635 62.6209 52.4215 62.0269 53.1295 61.6069C53.8495 61.1869 54.6475 60.9769 55.5235 60.9769C56.3875 60.9769 57.1375 61.1629 57.7735 61.5349C58.4095 61.9069 58.8835 62.3749 59.1955 62.9389V61.1389H60.8515V71.0029H59.1955V69.1669C58.8715 69.7429 58.3855 70.2229 57.7375 70.6069C57.1015 70.9789 56.3575 71.1649 55.5055 71.1649C54.6295 71.1649 53.8375 70.9489 53.1295 70.5169C52.4215 70.0849 51.8635 69.4789 51.4555 68.6989C51.0475 67.9189 50.8435 67.0309 50.8435 66.0349ZM59.1955 66.0529C59.1955 65.3089 59.0455 64.6609 58.7455 64.1089C58.4455 63.5569 58.0375 63.1369 57.5215 62.8489C57.0175 62.5489 56.4595 62.3989 55.8475 62.3989C55.2355 62.3989 54.6775 62.5429 54.1735 62.8309C53.6695 63.1189 53.2675 63.5389 52.9675 64.0909C52.6675 64.6429 52.5175 65.2909 52.5175 66.0349C52.5175 66.7909 52.6675 67.4509 52.9675 68.0149C53.2675 68.5669 53.6695 68.9929 54.1735 69.2929C54.6775 69.5809 55.2355 69.7249 55.8475 69.7249C56.4595 69.7249 57.0175 69.5809 57.5215 69.2929C58.0375 68.9929 58.4455 68.5669 58.7455 68.0149C59.0455 67.4509 59.1955 66.7969 59.1955 66.0529ZM66.1085 57.6829V71.0029H64.4705V57.6829H66.1085ZM77.039 62.9569C77.3629 62.3929 77.8429 61.9249 78.4789 61.5529C79.127 61.1689 79.877 60.9769 80.729 60.9769C81.605 60.9769 82.3969 61.1869 83.1049 61.6069C83.8249 62.0269 84.3889 62.6209 84.797 63.3889C85.205 64.1449 85.409 65.0269 85.409 66.0349C85.409 67.0309 85.205 67.9189 84.797 68.6989C84.3889 69.4789 83.8249 70.0849 83.1049 70.5169C82.3969 70.9489 81.605 71.1649 80.729 71.1649C79.8889 71.1649 79.1449 70.9789 78.497 70.6069C77.8609 70.2229 77.3749 69.7489 77.039 69.1849V75.6829H75.4009V61.1389H77.039V62.9569ZM83.735 66.0349C83.735 65.2909 83.585 64.6429 83.285 64.0909C82.985 63.5389 82.577 63.1189 82.061 62.8309C81.557 62.5429 80.999 62.3989 80.3869 62.3989C79.787 62.3989 79.229 62.5489 78.7129 62.8489C78.2089 63.1369 77.8009 63.5629 77.4889 64.1269C77.1889 64.6789 77.039 65.3209 77.039 66.0529C77.039 66.7969 77.1889 67.4509 77.4889 68.0149C77.8009 68.5669 78.2089 68.9929 78.7129 69.2929C79.229 69.5809 79.787 69.7249 80.3869 69.7249C80.999 69.7249 81.557 69.5809 82.061 69.2929C82.577 68.9929 82.985 68.5669 83.285 68.0149C83.585 67.4509 83.735 66.7909 83.735 66.0349ZM87.804 66.0349C87.804 65.0269 88.008 64.1449 88.416 63.3889C88.824 62.6209 89.382 62.0269 90.09 61.6069C90.81 61.1869 91.608 60.9769 92.484 60.9769C93.348 60.9769 94.098 61.1629 94.734 61.5349C95.37 61.9069 95.844 62.3749 96.156 62.9389V61.1389H97.812V71.0029H96.156V69.1669C95.832 69.7429 95.346 70.2229 94.698 70.6069C94.062 70.9789 93.318 71.1649 92.466 71.1649C91.59 71.1649 90.798 70.9489 90.09 70.5169C89.382 70.0849 88.824 69.4789 88.416 68.6989C88.008 67.9189 87.804 67.0309 87.804 66.0349ZM96.156 66.0529C96.156 65.3089 96.006 64.6609 95.706 64.1089C95.406 63.5569 94.998 63.1369 94.482 62.8489C93.978 62.5489 93.42 62.3989 92.808 62.3989C92.196 62.3989 91.638 62.5429 91.134 62.8309C90.63 63.1189 90.228 63.5389 89.928 64.0909C89.628 64.6429 89.478 65.2909 89.478 66.0349C89.478 66.7909 89.628 67.4509 89.928 68.0149C90.228 68.5669 90.63 68.9929 91.134 69.2929C91.638 69.5809 92.196 69.7249 92.808 69.7249C93.42 69.7249 93.978 69.5809 94.482 69.2929C94.998 68.9929 95.406 68.5669 95.706 68.0149C96.006 67.4509 96.156 66.7969 96.156 66.0529ZM104.923 71.1649C104.167 71.1649 103.489 71.0389 102.889 70.7869C102.289 70.5229 101.815 70.1629 101.467 69.7069C101.119 69.2389 100.927 68.7049 100.891 68.1049H102.583C102.631 68.5969 102.859 68.9989 103.267 69.3109C103.687 69.6229 104.233 69.7789 104.905 69.7789C105.529 69.7789 106.021 69.6409 106.381 69.3649C106.741 69.0889 106.921 68.7409 106.921 68.3209C106.921 67.8889 106.729 67.5709 106.345 67.3669C105.961 67.1509 105.367 66.9409 104.563 66.7369C103.831 66.5449 103.231 66.3529 102.763 66.1609C102.307 65.9569 101.911 65.6629 101.575 65.2789C101.251 64.8829 101.089 64.3669 101.089 63.7309C101.089 63.2269 101.239 62.7649 101.539 62.3449C101.839 61.9249 102.265 61.5949 102.817 61.3549C103.369 61.1029 103.999 60.9769 104.707 60.9769C105.799 60.9769 106.681 61.2529 107.353 61.8049C108.025 62.3569 108.385 63.1129 108.433 64.0729H106.795C106.759 63.5569 106.549 63.1429 106.165 62.8309C105.793 62.5189 105.289 62.3629 104.653 62.3629C104.065 62.3629 103.597 62.4889 103.249 62.7409C102.901 62.9929 102.727 63.3229 102.727 63.7309C102.727 64.0549 102.829 64.3249 103.033 64.5409C103.249 64.7449 103.513 64.9129 103.825 65.0449C104.149 65.1649 104.593 65.3029 105.157 65.4589C105.865 65.6509 106.441 65.8429 106.885 66.0349C107.329 66.2149 107.707 66.4909 108.019 66.8629C108.343 67.2349 108.511 67.7209 108.523 68.3209C108.523 68.8609 108.373 69.3469 108.073 69.7789C107.773 70.2109 107.347 70.5529 106.795 70.8049C106.255 71.0449 105.631 71.1649 104.923 71.1649ZM115.988 71.1649C115.064 71.1649 114.224 70.9549 113.468 70.5349C112.724 70.1149 112.136 69.5209 111.704 68.7529C111.284 67.9729 111.074 67.0729 111.074 66.0529C111.074 65.0449 111.29 64.1569 111.722 63.3889C112.166 62.6089 112.766 62.0149 113.522 61.6069C114.278 61.1869 115.124 60.9769 116.06 60.9769C116.996 60.9769 117.842 61.1869 118.598 61.6069C119.354 62.0149 119.948 62.6029 120.38 63.3709C120.824 64.1389 121.046 65.0329 121.046 66.0529C121.046 67.0729 120.818 67.9729 120.362 68.7529C119.918 69.5209 119.312 70.1149 118.544 70.5349C117.776 70.9549 116.924 71.1649 115.988 71.1649ZM115.988 69.7249C116.576 69.7249 117.128 69.5869 117.644 69.3109C118.16 69.0349 118.574 68.6209 118.886 68.0689C119.21 67.5169 119.372 66.8449 119.372 66.0529C119.372 65.2609 119.216 64.5889 118.904 64.0369C118.592 63.4849 118.184 63.0769 117.68 62.8129C117.176 62.5369 116.63 62.3989 116.042 62.3989C115.442 62.3989 114.89 62.5369 114.386 62.8129C113.894 63.0769 113.498 63.4849 113.198 64.0369C112.898 64.5889 112.748 65.2609 112.748 66.0529C112.748 66.8569 112.892 67.5349 113.18 68.0869C113.48 68.6389 113.876 69.0529 114.368 69.3289C114.86 69.5929 115.4 69.7249 115.988 69.7249ZM127.543 71.1649C126.787 71.1649 126.109 71.0389 125.509 70.7869C124.909 70.5229 124.435 70.1629 124.087 69.7069C123.739 69.2389 123.547 68.7049 123.511 68.1049H125.203C125.251 68.5969 125.479 68.9989 125.887 69.3109C126.307 69.6229 126.853 69.7789 127.525 69.7789C128.149 69.7789 128.641 69.6409 129.001 69.3649C129.361 69.0889 129.541 68.7409 129.541 68.3209C129.541 67.8889 129.349 67.5709 128.965 67.3669C128.581 67.1509 127.987 66.9409 127.183 66.7369C126.451 66.5449 125.851 66.3529 125.383 66.1609C124.927 65.9569 124.531 65.6629 124.195 65.2789C123.871 64.8829 123.709 64.3669 123.709 63.7309C123.709 63.2269 123.859 62.7649 124.159 62.3449C124.459 61.9249 124.885 61.5949 125.437 61.3549C125.989 61.1029 126.619 60.9769 127.327 60.9769C128.419 60.9769 129.301 61.2529 129.973 61.8049C130.645 62.3569 131.005 63.1129 131.053 64.0729H129.415C129.379 63.5569 129.169 63.1429 128.785 62.8309C128.413 62.5189 127.909 62.3629 127.273 62.3629C126.685 62.3629 126.217 62.4889 125.869 62.7409C125.521 62.9929 125.347 63.3229 125.347 63.7309C125.347 64.0549 125.449 64.3249 125.653 64.5409C125.869 64.7449 126.133 64.9129 126.445 65.0449C126.769 65.1649 127.213 65.3029 127.777 65.4589C128.485 65.6509 129.061 65.8429 129.505 66.0349C129.949 66.2149 130.327 66.4909 130.639 66.8629C130.963 67.2349 131.131 67.7209 131.143 68.3209C131.143 68.8609 130.993 69.3469 130.693 69.7789C130.393 70.2109 129.967 70.5529 129.415 70.8049C128.875 71.0449 128.251 71.1649 127.543 71.1649Z" fill="#1E88E5"/>
<path d="M24.58 140.466V141.046H21.5V143.656H24.1V144.236H21.5V147.456H20.8V140.466H24.58ZM31.5226 144.446C31.5226 144.686 31.5159 144.869 31.5026 144.996H26.9726C26.9926 145.409 27.0926 145.763 27.2726 146.056C27.4526 146.349 27.6893 146.573 27.9826 146.726C28.2759 146.873 28.5959 146.946 28.9426 146.946C29.3959 146.946 29.7759 146.836 30.0826 146.616C30.3959 146.396 30.6026 146.099 30.7026 145.726H31.4426C31.3093 146.259 31.0226 146.696 30.5826 147.036C30.1493 147.369 29.6026 147.536 28.9426 147.536C28.4293 147.536 27.9693 147.423 27.5626 147.196C27.1559 146.963 26.8359 146.636 26.6026 146.216C26.3759 145.789 26.2626 145.293 26.2626 144.726C26.2626 144.159 26.3759 143.663 26.6026 143.236C26.8293 142.809 27.1459 142.483 27.5526 142.256C27.9593 142.029 28.4226 141.916 28.9426 141.916C29.4626 141.916 29.9159 142.029 30.3026 142.256C30.6959 142.483 30.9959 142.789 31.2026 143.176C31.4159 143.556 31.5226 143.979 31.5226 144.446ZM30.8126 144.426C30.8193 144.019 30.7359 143.673 30.5626 143.386C30.3959 143.099 30.1659 142.883 29.8726 142.736C29.5793 142.589 29.2593 142.516 28.9126 142.516C28.3926 142.516 27.9493 142.683 27.5826 143.016C27.2159 143.349 27.0126 143.819 26.9726 144.426H30.8126ZM33.3343 144.726C33.3343 144.159 33.4476 143.666 33.6743 143.246C33.9009 142.819 34.2143 142.493 34.6143 142.266C35.0143 142.033 35.4709 141.916 35.9843 141.916C36.6576 141.916 37.2109 142.083 37.6443 142.416C38.0843 142.749 38.3676 143.203 38.4943 143.776H37.7443C37.6509 143.383 37.4476 143.076 37.1343 142.856C36.8276 142.629 36.4443 142.516 35.9843 142.516C35.6176 142.516 35.2876 142.599 34.9943 142.766C34.7009 142.933 34.4676 143.183 34.2943 143.516C34.1276 143.843 34.0443 144.246 34.0443 144.726C34.0443 145.206 34.1276 145.613 34.2943 145.946C34.4676 146.279 34.7009 146.529 34.9943 146.696C35.2876 146.863 35.6176 146.946 35.9843 146.946C36.4443 146.946 36.8276 146.836 37.1343 146.616C37.4476 146.389 37.6509 146.076 37.7443 145.676H38.4943C38.3676 146.236 38.0843 146.686 37.6443 147.026C37.2043 147.366 36.6509 147.536 35.9843 147.536C35.4709 147.536 35.0143 147.423 34.6143 147.196C34.2143 146.963 33.9009 146.636 33.6743 146.216C33.4476 145.789 33.3343 145.293 33.3343 144.726ZM43.238 141.896C43.6514 141.896 44.0214 141.983 44.348 142.156C44.6814 142.329 44.9414 142.596 45.128 142.956C45.3214 143.309 45.418 143.743 45.418 144.256V147.456H44.728V144.336C44.728 143.743 44.578 143.289 44.278 142.976C43.9847 142.663 43.5814 142.506 43.068 142.506C42.5414 142.506 42.1214 142.673 41.808 143.006C41.4947 143.339 41.338 143.829 41.338 144.476V147.456H40.638V140.056H41.338V142.926C41.5114 142.599 41.7647 142.346 42.098 142.166C42.438 141.986 42.818 141.896 43.238 141.896ZM47.4971 144.716C47.4971 144.156 47.6071 143.666 47.8271 143.246C48.0538 142.819 48.3638 142.493 48.7571 142.266C49.1571 142.033 49.6071 141.916 50.1071 141.916C50.6271 141.916 51.0738 142.036 51.4471 142.276C51.8271 142.516 52.1005 142.823 52.2671 143.196V141.996H52.9671V147.456H52.2671V146.246C52.0938 146.619 51.8171 146.929 51.4371 147.176C51.0638 147.416 50.6171 147.536 50.0971 147.536C49.6038 147.536 49.1571 147.419 48.7571 147.186C48.3638 146.953 48.0538 146.623 47.8271 146.196C47.6071 145.769 47.4971 145.276 47.4971 144.716ZM52.2671 144.726C52.2671 144.286 52.1771 143.899 51.9971 143.566C51.8171 143.233 51.5705 142.976 51.2571 142.796C50.9505 142.616 50.6105 142.526 50.2371 142.526C49.8505 142.526 49.5038 142.613 49.1971 142.786C48.8905 142.959 48.6471 143.213 48.4671 143.546C48.2938 143.873 48.2071 144.263 48.2071 144.716C48.2071 145.163 48.2938 145.556 48.4671 145.896C48.6471 146.229 48.8905 146.486 49.1971 146.666C49.5038 146.839 49.8505 146.926 50.2371 146.926C50.6105 146.926 50.9505 146.836 51.2571 146.656C51.5705 146.476 51.8171 146.219 51.9971 145.886C52.1771 145.553 52.2671 145.166 52.2671 144.726Z" fill="#8598AD"/>
<path d="M113.63 140.556V147.456H112.93V141.946L110.47 147.456H109.96L107.5 141.966V147.456H106.8V140.556H107.54L110.21 146.536L112.88 140.556H113.63ZM116.419 140.966C116.279 140.966 116.159 140.916 116.059 140.816C115.959 140.716 115.909 140.593 115.909 140.446C115.909 140.299 115.959 140.179 116.059 140.086C116.159 139.986 116.279 139.936 116.419 139.936C116.559 139.936 116.679 139.986 116.779 140.086C116.879 140.179 116.929 140.299 116.929 140.446C116.929 140.593 116.879 140.716 116.779 140.816C116.679 140.916 116.559 140.966 116.419 140.966ZM116.769 141.996V147.456H116.069V141.996H116.769ZM121.765 141.896C122.418 141.896 122.952 142.099 123.365 142.506C123.778 142.906 123.985 143.489 123.985 144.256V147.456H123.295V144.336C123.295 143.743 123.145 143.289 122.845 142.976C122.552 142.663 122.148 142.506 121.635 142.506C121.108 142.506 120.688 142.673 120.375 143.006C120.062 143.339 119.905 143.829 119.905 144.476V147.456H119.205V141.996H119.905V142.926C120.078 142.593 120.328 142.339 120.655 142.166C120.982 141.986 121.352 141.896 121.765 141.896ZM126.504 147.506C126.357 147.506 126.234 147.456 126.134 147.356C126.041 147.256 125.994 147.133 125.994 146.986C125.994 146.839 126.041 146.719 126.134 146.626C126.234 146.526 126.357 146.476 126.504 146.476C126.644 146.476 126.761 146.526 126.854 146.626C126.954 146.719 127.004 146.839 127.004 146.986C127.004 147.133 126.954 147.256 126.854 147.356C126.761 147.456 126.644 147.506 126.504 147.506ZM136.697 145.796H133.517L132.907 147.456H132.167L134.717 140.556H135.507L138.047 147.456H137.307L136.697 145.796ZM136.487 145.216L135.107 141.436L133.727 145.216H136.487ZM139.701 144.726C139.701 144.159 139.814 143.666 140.041 143.246C140.268 142.819 140.581 142.493 140.981 142.266C141.381 142.033 141.838 141.916 142.351 141.916C143.024 141.916 143.578 142.083 144.011 142.416C144.451 142.749 144.734 143.203 144.861 143.776H144.111C144.018 143.383 143.814 143.076 143.501 142.856C143.194 142.629 142.811 142.516 142.351 142.516C141.984 142.516 141.654 142.599 141.361 142.766C141.068 142.933 140.834 143.183 140.661 143.516C140.494 143.843 140.411 144.246 140.411 144.726C140.411 145.206 140.494 145.613 140.661 145.946C140.834 146.279 141.068 146.529 141.361 146.696C141.654 146.863 141.984 146.946 142.351 146.946C142.811 146.946 143.194 146.836 143.501 146.616C143.814 146.389 144.018 146.076 144.111 145.676H144.861C144.734 146.236 144.451 146.686 144.011 147.026C143.571 147.366 143.018 147.536 142.351 147.536C141.838 147.536 141.381 147.423 140.981 147.196C140.581 146.963 140.268 146.636 140.041 146.216C139.814 145.789 139.701 145.293 139.701 144.726ZM147.915 142.586V145.976C147.915 146.309 147.978 146.539 148.105 146.666C148.231 146.793 148.455 146.856 148.775 146.856H149.415V147.456H148.665C148.171 147.456 147.805 147.343 147.565 147.116C147.325 146.883 147.205 146.503 147.205 145.976V142.586H146.445V141.996H147.205V140.626H147.915V141.996H149.415V142.586H147.915ZM151.77 140.966C151.63 140.966 151.51 140.916 151.41 140.816C151.31 140.716 151.26 140.593 151.26 140.446C151.26 140.299 151.31 140.179 151.41 140.086C151.51 139.986 151.63 139.936 151.77 139.936C151.91 139.936 152.03 139.986 152.13 140.086C152.23 140.179 152.28 140.299 152.28 140.446C152.28 140.593 152.23 140.716 152.13 140.816C152.03 140.916 151.91 140.966 151.77 140.966ZM152.12 141.996V147.456H151.42V141.996H152.12ZM156.496 146.776L158.336 141.996H159.076L156.886 147.456H156.096L153.906 141.996H154.656L156.496 146.776ZM163.266 147.536C162.753 147.536 162.289 147.423 161.876 147.196C161.469 146.963 161.146 146.636 160.906 146.216C160.673 145.789 160.556 145.293 160.556 144.726C160.556 144.159 160.676 143.666 160.916 143.246C161.156 142.819 161.483 142.493 161.896 142.266C162.309 142.033 162.773 141.916 163.286 141.916C163.799 141.916 164.263 142.033 164.676 142.266C165.096 142.493 165.423 142.819 165.656 143.246C165.896 143.666 166.016 144.159 166.016 144.726C166.016 145.286 165.896 145.779 165.656 146.206C165.416 146.633 165.086 146.963 164.666 147.196C164.246 147.423 163.779 147.536 163.266 147.536ZM163.266 146.926C163.626 146.926 163.959 146.846 164.266 146.686C164.573 146.519 164.819 146.273 165.006 145.946C165.199 145.613 165.296 145.206 165.296 144.726C165.296 144.246 165.203 143.843 165.016 143.516C164.829 143.183 164.583 142.936 164.276 142.776C163.969 142.609 163.636 142.526 163.276 142.526C162.916 142.526 162.583 142.609 162.276 142.776C161.969 142.936 161.723 143.183 161.536 143.516C161.356 143.843 161.266 144.246 161.266 144.726C161.266 145.206 161.356 145.613 161.536 145.946C161.723 146.273 161.966 146.519 162.266 146.686C162.573 146.846 162.906 146.926 163.266 146.926Z" fill="#8598AD"/>
<path d="M20 155.456H182" stroke="#979797" stroke-width="0.2"/>
<path d="M80 135.456L80 153.456" stroke="#979797" stroke-width="0.2"/>
<path d="M26.07 169.936L23.29 176.456H22.37L25.19 170.026H21.33V169.246H26.07V169.936ZM31.8799 172.406V173.176H27.8899V172.406H31.8799ZM34.0487 170.056V169.226H35.9287V176.456H35.0087V170.056H34.0487ZM38.3428 172.766C38.3428 171.619 38.5295 170.726 38.9028 170.086C39.2761 169.439 39.9295 169.116 40.8628 169.116C41.7895 169.116 42.4395 169.439 42.8128 170.086C43.1861 170.726 43.3728 171.619 43.3728 172.766C43.3728 173.933 43.1861 174.839 42.8128 175.486C42.4395 176.133 41.7895 176.456 40.8628 176.456C39.9295 176.456 39.2761 176.133 38.9028 175.486C38.5295 174.839 38.3428 173.933 38.3428 172.766ZM42.4728 172.766C42.4728 172.186 42.4328 171.696 42.3528 171.296C42.2795 170.889 42.1228 170.563 41.8828 170.316C41.6495 170.069 41.3095 169.946 40.8628 169.946C40.4095 169.946 40.0628 170.069 39.8228 170.316C39.5895 170.563 39.4328 170.889 39.3528 171.296C39.2795 171.696 39.2428 172.186 39.2428 172.766C39.2428 173.366 39.2795 173.869 39.3528 174.276C39.4328 174.683 39.5895 175.009 39.8228 175.256C40.0628 175.503 40.4095 175.626 40.8628 175.626C41.3095 175.626 41.6495 175.503 41.8828 175.256C42.1228 175.009 42.2795 174.683 42.3528 174.276C42.4328 173.869 42.4728 173.366 42.4728 172.766ZM49.4231 172.406V173.176H45.4331V172.406H49.4231ZM51.7218 175.726C52.5685 175.046 53.2318 174.489 53.7118 174.056C54.1918 173.616 54.5952 173.159 54.9218 172.686C55.2552 172.206 55.4218 171.736 55.4218 171.276C55.4218 170.843 55.3152 170.503 55.1018 170.256C54.8952 170.003 54.5585 169.876 54.0918 169.876C53.6385 169.876 53.2852 170.019 53.0318 170.306C52.7852 170.586 52.6518 170.963 52.6318 171.436H51.7518C51.7785 170.689 52.0052 170.113 52.4318 169.706C52.8585 169.299 53.4085 169.096 54.0818 169.096C54.7685 169.096 55.3118 169.286 55.7118 169.666C56.1185 170.046 56.3218 170.569 56.3218 171.236C56.3218 171.789 56.1552 172.329 55.8218 172.856C55.4952 173.376 55.1218 173.836 54.7018 174.236C54.2818 174.629 53.7452 175.089 53.0918 175.616H56.5318V176.376H51.7218V175.726ZM58.4348 172.766C58.4348 171.619 58.6214 170.726 58.9948 170.086C59.3681 169.439 60.0214 169.116 60.9548 169.116C61.8814 169.116 62.5314 169.439 62.9048 170.086C63.2781 170.726 63.4648 171.619 63.4648 172.766C63.4648 173.933 63.2781 174.839 62.9048 175.486C62.5314 176.133 61.8814 176.456 60.9548 176.456C60.0214 176.456 59.3681 176.133 58.9948 175.486C58.6214 174.839 58.4348 173.933 58.4348 172.766ZM62.5648 172.766C62.5648 172.186 62.5248 171.696 62.4448 171.296C62.3714 170.889 62.2148 170.563 61.9748 170.316C61.7414 170.069 61.4014 169.946 60.9548 169.946C60.5014 169.946 60.1548 170.069 59.9148 170.316C59.6814 170.563 59.5248 170.889 59.4448 171.296C59.3714 171.696 59.3348 172.186 59.3348 172.766C59.3348 173.366 59.3714 173.869 59.4448 174.276C59.5248 174.683 59.6814 175.009 59.9148 175.256C60.1548 175.503 60.5014 175.626 60.9548 175.626C61.4014 175.626 61.7414 175.503 61.9748 175.256C62.2148 175.009 62.3714 174.683 62.4448 174.276C62.5248 173.869 62.5648 173.366 62.5648 172.766ZM65.325 170.056V169.226H67.205V176.456H66.285V170.056H65.325ZM70.7891 174.516C70.8558 174.896 71.0091 175.189 71.2491 175.396C71.4958 175.603 71.8258 175.706 72.2391 175.706C72.7924 175.706 73.1991 175.489 73.4591 175.056C73.7258 174.623 73.8524 173.893 73.8391 172.866C73.6991 173.166 73.4658 173.403 73.1391 173.576C72.8124 173.743 72.4491 173.826 72.0491 173.826C71.6024 173.826 71.2024 173.736 70.8491 173.556C70.5024 173.369 70.2291 173.099 70.0291 172.746C69.8291 172.393 69.7291 171.966 69.7291 171.466C69.7291 170.753 69.9358 170.179 70.3491 169.746C70.7624 169.306 71.3491 169.086 72.1091 169.086C73.0424 169.086 73.6958 169.389 74.0691 169.996C74.4491 170.603 74.6391 171.506 74.6391 172.706C74.6391 173.546 74.5624 174.239 74.4091 174.786C74.2624 175.333 74.0091 175.749 73.6491 176.036C73.2958 176.323 72.8091 176.466 72.1891 176.466C71.5091 176.466 70.9791 176.283 70.5991 175.916C70.2191 175.549 70.0024 175.083 69.9491 174.516H70.7891ZM72.1991 173.056C72.6458 173.056 73.0124 172.919 73.2991 172.646C73.5858 172.366 73.7291 171.989 73.7291 171.516C73.7291 171.016 73.5891 170.613 73.3091 170.306C73.0291 169.999 72.6358 169.846 72.1291 169.846C71.6624 169.846 71.2891 169.993 71.0091 170.286C70.7358 170.579 70.5991 170.966 70.5991 171.446C70.5991 171.933 70.7358 172.323 71.0091 172.616C71.2824 172.909 71.6791 173.056 72.1991 173.056Z" fill="#1E88E5"/>
<path d="M110.65 170.946C110.503 170.206 110.047 169.836 109.28 169.836C108.687 169.836 108.243 170.066 107.95 170.526C107.657 170.979 107.513 171.729 107.52 172.776C107.673 172.429 107.927 172.159 108.28 171.966C108.64 171.766 109.04 171.666 109.48 171.666C110.167 171.666 110.713 171.879 111.12 172.306C111.533 172.733 111.74 173.323 111.74 174.076C111.74 174.529 111.65 174.936 111.47 175.296C111.297 175.656 111.03 175.943 110.67 176.156C110.317 176.369 109.887 176.476 109.38 176.476C108.693 176.476 108.157 176.323 107.77 176.016C107.383 175.709 107.113 175.286 106.96 174.746C106.807 174.206 106.73 173.539 106.73 172.746C106.73 170.299 107.583 169.076 109.29 169.076C109.943 169.076 110.457 169.253 110.83 169.606C111.203 169.959 111.423 170.406 111.49 170.946H110.65ZM109.29 172.436C109.003 172.436 108.733 172.496 108.48 172.616C108.227 172.729 108.02 172.906 107.86 173.146C107.707 173.379 107.63 173.666 107.63 174.006C107.63 174.513 107.777 174.926 108.07 175.246C108.363 175.559 108.783 175.716 109.33 175.716C109.797 175.716 110.167 175.573 110.44 175.286C110.72 174.993 110.86 174.599 110.86 174.106C110.86 173.586 110.727 173.179 110.46 172.886C110.193 172.586 109.803 172.436 109.29 172.436ZM113.819 172.766C113.819 171.619 114.005 170.726 114.379 170.086C114.752 169.439 115.405 169.116 116.339 169.116C117.265 169.116 117.915 169.439 118.289 170.086C118.662 170.726 118.849 171.619 118.849 172.766C118.849 173.933 118.662 174.839 118.289 175.486C117.915 176.133 117.265 176.456 116.339 176.456C115.405 176.456 114.752 176.133 114.379 175.486C114.005 174.839 113.819 173.933 113.819 172.766ZM117.949 172.766C117.949 172.186 117.909 171.696 117.829 171.296C117.755 170.889 117.599 170.563 117.359 170.316C117.125 170.069 116.785 169.946 116.339 169.946C115.885 169.946 115.539 170.069 115.299 170.316C115.065 170.563 114.909 170.889 114.829 171.296C114.755 171.696 114.719 172.186 114.719 172.766C114.719 173.366 114.755 173.869 114.829 174.276C114.909 174.683 115.065 175.009 115.299 175.256C115.539 175.503 115.885 175.626 116.339 175.626C116.785 175.626 117.125 175.503 117.359 175.256C117.599 175.009 117.755 174.683 117.829 174.276C117.909 173.869 117.949 173.366 117.949 172.766ZM131.686 169.536V176.456H130.776V171.296L128.476 176.456H127.836L125.526 171.286V176.456H124.616V169.536H125.596L128.156 175.256L130.716 169.536H131.686ZM134.55 170.086C134.377 170.086 134.23 170.026 134.11 169.906C133.99 169.786 133.93 169.639 133.93 169.466C133.93 169.293 133.99 169.146 134.11 169.026C134.23 168.906 134.377 168.846 134.55 168.846C134.717 168.846 134.857 168.906 134.97 169.026C135.09 169.146 135.15 169.293 135.15 169.466C135.15 169.639 135.09 169.786 134.97 169.906C134.857 170.026 134.717 170.086 134.55 170.086ZM134.99 170.976V176.456H134.08V170.976H134.99ZM140.062 170.876C140.729 170.876 141.269 171.079 141.682 171.486C142.095 171.886 142.302 172.466 142.302 173.226V176.456H141.402V173.356C141.402 172.809 141.265 172.393 140.992 172.106C140.719 171.813 140.345 171.666 139.872 171.666C139.392 171.666 139.009 171.816 138.722 172.116C138.442 172.416 138.302 172.853 138.302 173.426V176.456H137.392V170.976H138.302V171.756C138.482 171.476 138.725 171.259 139.032 171.106C139.345 170.953 139.689 170.876 140.062 170.876ZM144.929 176.516C144.756 176.516 144.609 176.456 144.489 176.336C144.369 176.216 144.309 176.069 144.309 175.896C144.309 175.723 144.369 175.576 144.489 175.456C144.609 175.336 144.756 175.276 144.929 175.276C145.096 175.276 145.236 175.336 145.349 175.456C145.469 175.576 145.529 175.723 145.529 175.896C145.529 176.069 145.469 176.216 145.349 176.336C145.236 176.456 145.096 176.516 144.929 176.516Z" fill="#1E88E5"/>
<defs>
<clipPath id="clip0">
<rect width="78.0319" height="78.0319" fill="white" transform="translate(202.047 59.9119)"/>
</clipPath>
<clipPath id="clip1">
<rect width="78" height="78" fill="white" transform="translate(202 60)"/>
</clipPath>
</defs>
</svg>
