<svg width="235" height="283" viewBox="0 0 235 283" fill="none" xmlns="http://www.w3.org/2000/svg">
<g clip-path="url(#clip0)">
<path d="M58.6006 84.5943C71.1144 100.938 78.2425 117.837 83.9945 131.719C83.9945 131.719 93.894 144.79 86.4966 150.607" stroke="#1E88E5" stroke-width="0.605" stroke-miterlimit="4.0015" stroke-linecap="round"/>
<path d="M185.737 105.27C178.029 107.308 169.193 108.41 169.472 103.012" stroke="#C4C4C4" stroke-width="0.496029" stroke-miterlimit="4.0015" stroke-linecap="round"/>
<path d="M58.0967 215.045H21.1897C19.4762 215.045 18.0872 216.434 18.0872 218.147V219.608C18.0872 221.321 19.4762 222.711 21.1897 222.711H58.0967C59.8102 222.711 61.1992 221.321 61.1992 219.608V218.147C61.1992 216.434 59.8102 215.045 58.0967 215.045Z" stroke="#1E88E5" stroke-width="0.377536" stroke-miterlimit="4.0015" stroke-linecap="round" stroke-linejoin="round"/>
<path d="M219.732 94.243L227.468 92.0326C233.734 90.2654 235.359 97.5376 231.029 99.5232C230.047 100.014 226.478 100.917 226.478 100.917" stroke="#C4C4C4" stroke-width="0.496029" stroke-miterlimit="4.0015" stroke-linecap="round"/>
<path d="M204.926 108.039L179.411 115.99C171.085 118.332 169.807 117.386 163.318 108.731C161.631 106.458 159.757 107.964 160.135 109.738L179.085 182.043" stroke="#C4C4C4" stroke-width="0.496029" stroke-miterlimit="4.0015" stroke-linecap="round" stroke-linejoin="round"/>
<path d="M156.122 100.506L151.088 101.242C151.088 101.242 150.044 101.365 150.474 102.47C150.842 103.944 156.614 128.626 156.614 128.626L91.2497 198.154L58.4443 193.175L56.0449 178.891" stroke="#C4C4C4" stroke-width="0.496029" stroke-miterlimit="4.0015" stroke-linecap="round" stroke-linejoin="round"/>
<path d="M46.8411 188.022C46.8411 188.022 50.3811 204.21 50.7285 205.252C51.0758 206.294 51.7196 206.62 52.7212 203.893C53.9071 200.612 56.2857 201.258 56.2857 201.258C56.2857 201.258 105.345 208.508 105.779 208.725C106.941 209.051 108.21 207.857 108.21 207.857C125.375 189.081 146.203 166.955 161.817 150.256C162.126 149.925 162.858 149.253 163.103 150.09L171.076 181.808C171.076 181.808 143.966 181.797 129.967 212.005C129.967 212.005 167.415 217.883 179.078 219.346C181.158 219.607 180.805 221.584 180.805 221.584L180.783 245.195C180.491 247.591 178.148 246.915 178.06 245.131C177.937 243.044 177.857 225.022 177.857 225.022C177.857 225.022 178.15 223.148 175.77 222.812C173.13 222.443 57.1479 205.129 57.1479 205.129C57.1479 205.129 54.3236 204.392 53.2184 206.602" stroke="#C4C4C4" stroke-width="0.496029" stroke-miterlimit="4.0015" stroke-linecap="round" stroke-linejoin="round"/>
<path d="M42.826 168.398L34.3359 122.173" stroke="#C4C4C4" stroke-width="0.496029" stroke-miterlimit="4.0015" stroke-linecap="round"/>
<path d="M51.1519 154.076L46.1052 125.414" stroke="#C4C4C4" stroke-width="0.496029" stroke-miterlimit="4.0015" stroke-linecap="round"/>
<path d="M34.3359 122.173L1.06127 122.155C1.06127 122.155 -0.154364 111.648 4.36082 111.648C8.87601 111.648 29.1944 111.822 29.1944 111.822" stroke="#C4C4C4" stroke-width="0.496029" stroke-miterlimit="4.0015" stroke-linecap="round" stroke-linejoin="round"/>
<path d="M179.086 182.043C225.476 186.336 237.025 241.816 206.329 266.902C207.003 270.14 208.773 276.272 209.443 279.259C209.896 281.276 208.513 281.636 208.513 281.636C208.513 281.636 203.184 281.834 200.865 281.713C199.846 281.66 199.692 281.22 199.505 280.606C199.505 280.606 198.474 277.456 197.242 273.387C154.979 288.46 137.192 260.393 133.528 255.353C133.528 255.353 119.284 254.125 91.7769 262.598C64.2704 271.071 58.1305 263.335 58.1305 263.335C58.1305 263.335 44.0938 280.423 42.0441 281.35C39.784 282.371 34.6239 282.036 34.6239 282.036C34.6239 282.036 19.5722 281.877 16.6251 281.999C13.6779 282.122 16.3435 279.382 16.3435 279.382L47.0788 245.897C47.0788 245.897 41.139 238.733 42.1933 230.509" stroke="#C4C4C4" stroke-width="0.496029" stroke-miterlimit="4.0015" stroke-linecap="round" stroke-linejoin="round"/>
<path d="M59.2542 226.601C61.0336 222.641 63.9191 219.281 67.5635 216.923C71.2079 214.566 75.4558 213.311 79.7963 213.311C85.7694 213.311 91.498 215.684 95.7216 219.908C99.9452 224.131 102.318 229.86 102.318 235.833V235.833C102.318 241.806 99.9452 247.535 95.7216 251.758C91.498 255.982 85.7694 258.355 79.7963 258.355C73.8233 258.355 68.0948 255.982 63.8712 251.758C59.6476 247.535 57.2749 241.806 57.2749 235.833C57.2749 235.345 57.2908 234.857 57.3225 234.369" stroke="#1E88E5" stroke-width="1.15231" stroke-miterlimit="4.0015" stroke-linecap="round" stroke-linejoin="round"/>
<path d="M82.9029 221.646L82.2771 231.353C82.2771 231.353 82.2771 231.353 83.4418 232.313C89.2595 229.839 92.2806 228.288 92.2806 228.288C95.3794 226.653 83.8193 218.206 82.9029 221.646Z" stroke="#1E88E5" stroke-width="0.305" stroke-miterlimit="4.0015" stroke-linecap="round" stroke-linejoin="round"/>
<path d="M94.1103 234.2L84.7354 236.794C84.7354 236.794 84.7354 236.794 84.2104 238.21C88.4572 242.893 90.913 245.238 90.913 245.238C93.4748 247.629 97.6601 233.937 94.1103 234.2V234.2Z" stroke="#1E88E5" stroke-width="0.305" stroke-miterlimit="4.0015" stroke-linecap="round" stroke-linejoin="round"/>
<path d="M85.6262 249.658L80.7139 241.262C80.7139 241.262 80.7139 241.262 79.2112 241.117C75.7738 246.423 74.1371 249.398 74.1371 249.398C72.4836 252.488 86.791 253.021 85.6262 249.657V249.658Z" stroke="#1E88E5" stroke-width="0.304883" stroke-miterlimit="4.0015" stroke-linecap="round" stroke-linejoin="round"/>
<path d="M43.4991 222.909L80.0903 232.052C81.7578 232.469 82.7579 234.156 82.3358 235.822L81.977 237.238C81.5549 238.904 79.8737 239.906 78.2075 239.483L36.1552 228.829C34.489 228.407 33.4876 226.726 33.9098 225.06L34.2685 223.643C34.3152 223.461 34.3763 223.286 34.4512 223.12" fill="#34F4F4"/>
<path d="M43.4991 222.909L80.0903 232.052C81.7578 232.469 82.7579 234.156 82.3358 235.822L81.977 237.238C81.5549 238.904 79.8737 239.906 78.2075 239.483L36.1552 228.829C34.489 228.407 33.4876 226.726 33.9098 225.06L34.2685 223.643C34.3152 223.461 34.3763 223.286 34.4512 223.12" stroke="#1E88E5" stroke-width="1.15231" stroke-miterlimit="4.0015" stroke-linecap="round" stroke-linejoin="round"/>
<path d="M50.3845 224.654L41.052 222.505" stroke="#1E88E5" stroke-width="0.264583" stroke-miterlimit="4.0015"/>
<path d="M63.9385 235.991C63.9054 239.499 67.0736 246.714 69.1106 244.977L74.1706 238.572L63.9385 235.991Z" stroke="#1E88E5" stroke-width="0.305" stroke-miterlimit="4.0015" stroke-linecap="round" stroke-linejoin="round"/>
<path d="M115.968 32.2303C118.471 32.6111 123.336 26.5817 123.336 26.5817C119.809 -13.5733 177.038 -2.291 164.792 30.7056C163.888 33.1438 161.848 36.6668 159.699 36.9102C156.79 37.0117 157.615 40.3602 157.779 42.9322C158.402 46.3177 155.126 43.8631 153.343 44.5522C152.682 45.33 152.311 46.4365 152.311 46.4365C152.228 47.9097 152.145 48.137 150.108 47.8764C149.992 51.0692 147.728 48.6212 147.131 49.8025C145.901 52.6736 140.606 54.3303 138.071 49.9132C135.172 44.4531 128.62 46.5344 125.427 48.7448C122.234 50.9551 141.924 78.0301 152.239 83.4331C175.324 83.1725 177.766 95.3313 202.021 97.6452C205.632 98.8114 213.223 93.1378 213.223 93.1378C220.161 89.945 220.346 96.8217 220.346 96.8217L226.977 101.242C226.977 101.242 229.678 104.19 224.029 105.479C224.705 106.83 223.351 108.705 220.714 108.119C220.714 108.119 221.512 111.312 216.907 110.452C214.253 113.4 211.107 111.32 203.522 107.26C203.522 107.26 151.579 102.225 142.247 95.8394C132.914 89.4539 116.459 70.052 116.459 70.052C116.459 70.052 107.967 82.4389 90.1806 75.0866C82.267 79.9316 61.0603 77.1576 58.6733 84.0292C57.7668 86.6387 75.7808 90.4577 104.916 125.802C109.337 132.924 101.723 150.361 99.2675 162.15C96.8116 173.938 95.6134 188.351 95.6134 188.351L90.2226 193.998L82.2619 192.974C83.2255 180.481 76.0165 163.097 80.9957 157.163L86.4966 150.607C76.6987 161.552 52.6226 178.867 44.5146 191.441C41.0629 196.794 39.1689 200.973 43.2381 203.155C43.2381 203.155 50.0256 207.996 57.1065 208.707C61.8415 209.034 62.8842 212.661 59.2554 213.942C46.144 213.725 44.078 215.331 31.7287 211.133C27.2071 209.523 25.3262 210.743 22.9805 209.596C19.6971 207.99 17.8459 201.269 25.2321 198.391C40.9319 180.002 47.0203 151.731 63.8897 140.466C49.0093 127.676 36.0752 116.382 21.7934 104.307C2.06548 87.6264 12.2518 53.7896 40.7748 57.2091C77.1625 54.3674 92.2699 29.0546 115.968 32.2302V32.2303Z" stroke="#1E88E5" stroke-width="0.496029" stroke-miterlimit="4.0015" stroke-linecap="round" stroke-linejoin="round"/>
<path d="M77.1064 219.923L71.9822 218.756C71.4375 218.632 70.8953 218.973 70.7713 219.518L68.8519 227.949C68.7279 228.494 69.069 229.036 69.6138 229.16L74.738 230.326C75.2827 230.45 75.8248 230.109 75.9488 229.565L77.8682 221.134C77.9922 220.589 77.6512 220.047 77.1064 219.923Z" fill="#FF9F2F" stroke="#1E88E5" stroke-width="0.312493" stroke-miterlimit="4.0015" stroke-linecap="round" stroke-linejoin="round"/>
<path d="M73.6776 223.144C74.0421 223.227 74.4048 222.999 74.4878 222.635C74.5708 222.27 74.3426 221.907 73.9781 221.824C73.6136 221.741 73.2508 221.97 73.1679 222.334C73.0849 222.699 73.3131 223.061 73.6776 223.144Z" fill="#34F4F4"/>
<path d="M78.0532 220.437L79.2413 222.694L77.4392 231.015L75.7686 230.356L78.0532 220.437Z" fill="#FF9F2F" stroke="#1E88E5" stroke-width="0.26" stroke-linecap="round" stroke-linejoin="round"/>
</g>
<defs>
<clipPath id="clip0">
<rect width="234.364" height="283" fill="white"/>
</clipPath>
</defs>
</svg>
