<svg width="178" height="300" viewBox="0 0 178 300" fill="none" xmlns="http://www.w3.org/2000/svg">
<g clip-path="url(#clip0)">
<path d="M87.3169 0.0889547C83.4888 0.0381317 79.6519 1.14371 76.8457 3.48264C74.048 5.81457 72.3116 9.39931 72.7021 14.1307L73.6006 14.0929C73.2176 9.59278 74.8196 6.34439 77.4212 4.176C80.0227 2.0076 83.6595 0.943807 87.3051 0.992208C90.9507 1.0406 94.5909 2.20138 97.1984 4.4024C99.806 6.60343 101.408 9.81663 101.028 14.133L101.026 14.159V14.1873C101.026 14.1873 101.218 19.5663 98.8516 27.7243C98.1407 29.8306 96.7845 32.4879 95.2598 34.6296C94.4969 35.7011 93.6908 36.6438 92.9179 37.3252C92.145 38.0066 91.4049 38.41 90.8261 38.476C89.3642 38.6427 87.7738 38.8399 86.3711 38.8534C84.9684 38.8668 83.769 38.6731 83.1071 38.1978C81.5512 37.0796 77.5534 33.5828 75.4755 27.7667C73.8519 21.9325 73.6037 14.1543 73.6029 14.1307C73.6029 14.1306 73.6029 14.1165 73.6029 14.1165L72.702 14.1307C72.7024 14.1357 72.7016 14.1398 72.702 14.1448V14.1519C72.7026 14.1586 72.7015 14.1641 72.702 14.1708H72.7045C72.7058 14.2142 72.9354 22.0215 74.61 28.0262L74.6147 28.0427L74.6194 28.0569C76.78 34.1188 80.8982 37.7217 82.5813 38.9313C83.5397 39.6197 84.8981 39.7709 86.3782 39.7567C87.8583 39.7425 89.4729 39.5381 90.9275 39.3723C91.8069 39.272 92.6661 38.7501 93.5146 38.0021C94.3631 37.254 95.2019 36.2648 95.9933 35.1532C97.576 32.93 98.9623 30.225 99.71 28.0073L99.7125 27.9979L99.7149 27.9885C102.102 19.766 101.93 14.2892 101.927 14.2109V14.2038C102.327 9.62768 100.583 6.07616 97.781 3.71144C94.978 1.34542 91.1451 0.139812 87.317 0.0889892L87.3169 0.0889547Z" fill="#1E88E5"/>
<path d="M77.5982 32.7405C77.4791 32.7425 77.3658 32.7915 77.2827 32.8768C77.1997 32.962 77.1537 33.0767 77.1548 33.1957V41.8933L68.4194 47.5605C68.3694 47.5926 68.3262 47.6342 68.2924 47.683C68.2585 47.7318 68.2346 47.7868 68.2221 47.8449C68.2095 47.903 68.2086 47.9629 68.2193 48.0214C68.23 48.0798 68.2521 48.1355 68.2844 48.1854C68.3167 48.2352 68.3586 48.2782 68.4075 48.3119C68.4565 48.3455 68.5116 48.3691 68.5697 48.3814C68.6279 48.3937 68.6878 48.3944 68.7462 48.3834C68.8046 48.3724 68.8602 48.3501 68.9099 48.3175L77.8505 42.5159C77.9134 42.4751 77.9651 42.4192 78.0009 42.3533C78.0367 42.2874 78.0555 42.2136 78.0557 42.1386V33.1957C78.0562 33.1356 78.0448 33.0759 78.0219 33.0203C77.9991 32.9647 77.9654 32.9142 77.9228 32.8718C77.8801 32.8294 77.8295 32.7959 77.7737 32.7734C77.718 32.7508 77.6583 32.7397 77.5982 32.7405V32.7405Z" fill="#1E88E5"/>
<path d="M96.3755 33.5047C96.3161 33.5054 96.2575 33.5178 96.203 33.5412C96.1485 33.5645 96.0991 33.5984 96.0577 33.641C96.0163 33.6835 95.9836 33.7337 95.9617 33.7888C95.9397 33.844 95.9289 33.9029 95.9297 33.9622V42.1835C95.9301 42.2625 95.9512 42.34 95.9909 42.4083C96.0306 42.4766 96.0876 42.5333 96.1561 42.5726L106.087 48.3294C106.139 48.362 106.196 48.3839 106.256 48.3938C106.316 48.4036 106.378 48.4012 106.437 48.3867C106.496 48.3722 106.551 48.3459 106.6 48.3093C106.649 48.2728 106.689 48.2268 106.72 48.1741C106.75 48.1214 106.77 48.0631 106.777 48.0027C106.784 47.9423 106.779 47.881 106.762 47.8226C106.745 47.7642 106.716 47.7098 106.678 47.6627C106.639 47.6157 106.592 47.5769 106.538 47.5488L96.833 41.9241V33.9622C96.8339 33.9019 96.8226 33.842 96.7999 33.7861C96.7773 33.7302 96.7436 33.6794 96.7009 33.6367C96.6583 33.5941 96.6075 33.5604 96.5516 33.5377C96.4957 33.515 96.4358 33.5038 96.3755 33.5047V33.5047Z" fill="#1E88E5"/>
<path d="M68.8061 47.4756L68.6293 47.4897C58.07 48.3337 51.3444 55.6928 49.7246 61.0857C48.9493 63.6671 48.6659 67.4819 48.5619 70.6795C48.4579 73.8771 48.5431 76.4481 48.5431 76.4481L48.5549 76.8372L48.9417 76.882C48.9417 76.882 50.5681 77.0612 52.6278 76.033C54.6875 75.0048 57.2162 72.7742 59.1958 68.09C61.5511 62.5171 64.4241 58.9318 66.7002 56.7392C68.9762 54.5467 70.6198 53.7653 70.6198 53.7653L70.6882 53.7323L70.7424 53.6805C70.7424 53.6805 71.4315 52.9965 71.5065 51.8739C71.5815 50.7513 71.0339 49.234 68.9453 47.5841L68.8061 47.4756ZM68.5137 48.4331C70.2828 49.892 70.659 51.0487 70.6079 51.8126C70.5551 52.604 70.108 53.0366 70.108 53.0366L70.2306 52.9517C70.2306 52.9517 68.4297 53.8202 66.0728 56.0907C63.7158 58.3612 60.767 62.0534 58.3633 67.741C56.4503 72.2673 54.0845 74.2979 52.2245 75.2265C50.7816 75.9467 49.8749 75.9807 49.4463 75.9717C49.4358 75.6146 49.3703 73.6256 49.4652 70.7078C49.5682 67.5417 49.8667 63.7458 50.5878 61.3451C52.0624 56.4357 58.4609 49.3256 68.5137 48.4331H68.5137Z" fill="#1E88E5"/>
<path d="M70.7306 52.8999L70.6151 52.9494C70.6151 52.9494 68.7238 53.7633 66.1082 56.3384C63.4927 58.9135 60.1058 63.2691 56.9672 70.3966L56.8823 70.5924L56.979 70.7834C60.5439 77.7693 67.6782 79.6504 73.8154 79.7782C79.9526 79.906 85.1968 78.3113 85.1968 78.3113L85.4751 78.2264L85.5128 77.9387C85.5128 77.9387 86.1124 73.2759 85.9373 68.2599C85.8498 65.752 85.5715 63.1522 84.9114 60.975C84.2513 58.7977 83.1986 56.9964 81.4776 56.2464C75.2835 53.5471 70.8532 52.9164 70.8532 52.9164L70.7306 52.8999ZM70.8627 53.8385C71.055 53.8666 75.1625 54.4783 81.1192 57.0742C82.4712 57.6634 83.426 59.1841 84.0483 61.2367C84.6706 63.2894 84.9505 65.8283 85.0365 68.2906C85.2028 73.058 84.6659 77.2383 84.6308 77.5189C84.1896 77.6485 79.5301 78.9959 73.8342 78.8773C67.9257 78.7542 61.3173 76.9873 57.9106 70.5428C60.9737 63.668 64.2415 59.4424 66.7403 56.9822C69.1584 54.6015 70.72 53.9011 70.8627 53.8385Z" fill="#1E88E5"/>
<path d="M74.5817 79.2048L73.8813 79.7732C73.8344 79.7154 73.9767 80.0171 74.0346 80.4665C74.0925 80.916 74.1305 81.5407 74.1478 82.3084C74.1824 83.8438 74.1318 85.9498 73.9921 88.4331C73.7129 93.3998 73.0836 99.8846 72.1055 106.439C71.1232 113.021 70.9369 116.111 71.1928 118.134C71.4486 120.157 72.1408 121.019 72.8248 123.037C73.4812 124.975 73.4205 127.806 72.8012 129.888C72.4915 130.929 72.0399 131.777 71.5465 132.237C71.088 132.665 70.6497 132.77 70.0608 132.544C68.8615 129.189 67.3179 127.108 66.0303 125.919C64.8737 124.851 64.1536 124.63 63.9243 124.544C63.8978 124.229 63.4292 118.568 64.4219 115.193C65.2981 112.215 66.4352 108.985 65.9949 105.852V105.847L65.9925 105.842C65.7529 104.388 64.9476 103.372 64.1719 102.324C63.3978 101.278 62.6331 100.189 62.2757 98.5102L61.3513 89.4918L60.4551 89.5838L61.3866 98.6658L61.3913 98.6894C61.7862 100.556 62.6602 101.798 63.4455 102.859C64.2296 103.918 64.9024 104.787 65.101 105.984C65.4971 108.813 64.4406 111.933 63.5563 114.938C62.4351 118.75 63.0328 124.818 63.0328 124.818L63.0611 125.115L63.3464 125.204C63.3464 125.204 64.2033 125.464 65.4171 126.584C66.6308 127.705 68.1539 129.673 69.3225 133.079L69.3862 133.261L69.5631 133.343C70.5113 133.778 71.4758 133.535 72.1596 132.897C72.8435 132.26 73.3285 131.282 73.6666 130.145C74.3428 127.872 74.4224 124.945 73.6785 122.749C72.9619 120.634 72.3232 119.873 72.0889 118.021C71.8546 116.168 72.0184 113.131 72.9969 106.573C73.9795 99.9887 74.612 93.4809 74.893 88.4824C75.0335 85.9831 75.0865 83.8634 75.051 82.2893C75.0333 81.5023 74.9931 80.8529 74.9284 80.3508C74.8637 79.8486 74.8387 79.5207 74.5817 79.2046L74.5817 79.2048Z" fill="#1E88E5"/>
<path d="M57.3184 69.5688L56.9647 70.4013C56.9647 70.4013 54.6635 75.8322 48.9816 75.9836L48.6373 75.993L48.5547 76.3279C48.5547 76.3279 48.1591 77.9655 47.2388 83.3016C46.0485 90.2028 45.6472 94.1043 45.5478 99.5507L45.5454 99.7087L45.6398 99.8314C46.2296 100.609 47.1163 101.844 48.5688 102.466C50.0214 103.087 52.0026 103.019 54.5591 101.402L54.6015 101.374L54.6393 101.336C56.1363 99.8124 56.5309 98.4949 56.9835 97.2184C57.436 95.9419 57.948 94.6677 59.7805 92.8884L59.7852 92.886L59.7876 92.8812C60.7042 91.9545 61.2205 90.4209 61.5682 88.6338C61.9159 86.8466 62.0721 84.7985 62.1295 82.8534C62.2442 78.9633 61.9573 75.4835 61.9573 75.4835L61.9432 75.3067L61.8111 75.1864C60.3028 73.8152 58.7844 72.1086 57.7712 70.3518L57.3184 69.5688ZM57.4151 71.3093C58.4321 72.9095 59.7106 74.4345 61.0611 75.6817C61.0704 75.797 61.3373 79.0631 61.2262 82.8276C61.1697 84.7427 61.014 86.7523 60.6814 88.4617C60.3489 90.1711 59.8159 91.5722 59.1461 92.2492C57.2225 94.1197 56.5949 95.6112 56.1322 96.9164C55.6741 98.2084 55.3627 99.2834 54.0285 100.659C51.6644 102.139 50.0877 102.135 48.925 101.638C47.8074 101.16 47.0468 100.179 46.4582 99.4045C46.5621 94.0864 46.9543 90.2589 48.1279 83.4549C49.0132 78.3218 49.358 76.9003 49.3849 76.7878C54.753 76.4039 56.9904 72.1964 57.4151 71.3093Z" fill="#1E88E5"/>
<path d="M45.9937 99.1027C45.9284 99.1043 45.8641 99.1201 45.8055 99.149C45.7469 99.1779 45.6952 99.2193 45.6541 99.2701C45.6541 99.2701 45.1808 99.8399 44.5504 101.105C43.92 102.37 43.1091 104.359 42.3571 107.274C40.8531 113.106 39.5889 122.653 40.4987 137.586C40.5025 137.646 40.5178 137.703 40.5439 137.757C40.5699 137.81 40.6062 137.858 40.6507 137.897C40.6952 137.936 40.7469 137.966 40.803 137.985C40.8591 138.004 40.9184 138.012 40.9775 138.009C41.0367 138.005 41.0945 137.99 41.1477 137.963C41.201 137.937 41.2485 137.901 41.2877 137.857C41.3269 137.812 41.357 137.76 41.3762 137.704C41.3954 137.648 41.4034 137.589 41.3996 137.53C40.4943 122.67 41.7547 113.218 43.2297 107.498C43.9673 104.639 44.7591 102.713 45.3593 101.508C45.9595 100.304 46.3451 99.8479 46.3451 99.8479C46.402 99.7818 46.4385 99.7007 46.4503 99.6144C46.462 99.528 46.4485 99.4401 46.4113 99.3612C46.3741 99.2824 46.3149 99.216 46.2408 99.1701C46.1667 99.1242 46.0809 99.1008 45.9937 99.1026V99.1027Z" fill="#1E88E5"/>
<path d="M60.9007 89.0819C60.805 89.0828 60.712 89.1141 60.6353 89.1714C60.5585 89.2286 60.502 89.3088 60.4739 89.4003C60.4739 89.4003 59.8356 91.4005 59.2617 93.926C58.6877 96.4515 58.1624 99.4915 58.4244 101.701L58.422 101.633C57.6298 126.995 47.6066 141.687 47.6066 141.687C47.5731 141.736 47.5496 141.791 47.5375 141.849C47.5253 141.907 47.5247 141.967 47.5356 142.026C47.5466 142.084 47.5689 142.139 47.6013 142.189C47.6337 142.239 47.6756 142.281 47.7245 142.315C47.7734 142.348 47.8285 142.372 47.8865 142.384C47.9445 142.396 48.0043 142.397 48.0626 142.386C48.1208 142.375 48.1763 142.353 48.226 142.32C48.2756 142.288 48.3184 142.246 48.3518 142.197C48.3518 142.197 58.5236 127.25 59.3229 101.661C59.3237 101.639 59.3229 101.617 59.3205 101.595C59.0874 99.6296 59.5764 96.6117 60.1412 94.1263C60.7061 91.641 61.3322 89.6737 61.3322 89.6737C61.3546 89.6058 61.3604 89.5334 61.3493 89.4627C61.3381 89.392 61.3104 89.3249 61.2682 89.2671C61.226 89.2093 61.1707 89.1623 61.1068 89.1301C61.0429 89.0978 60.9722 89.0813 60.9006 89.0818L60.9007 89.0819Z" fill="#1E88E5"/>
<path d="M40.9325 137.101C40.8284 137.104 40.7288 137.144 40.6505 137.213C40.5723 137.281 40.5203 137.375 40.5033 137.478C40.5033 137.478 39.1177 145.178 38.8147 148.371C38.5279 151.395 37.0669 155.026 36.3644 157.036C36.0969 157.801 36.4694 158.619 36.9894 159.505C37.5093 160.391 38.2497 161.346 39.0081 162.238C40.525 164.023 42.1212 165.547 42.1212 165.547L42.1259 165.552L42.1283 165.554C42.8638 166.228 43.5465 166.574 44.1777 166.628C44.8089 166.681 45.3691 166.397 45.6918 165.951C46.3372 165.058 46.1993 163.647 45.239 162.618V162.616H45.2365C44.4249 161.76 43.6152 161.044 43.1612 160.239C42.7071 159.433 42.5436 158.549 43.0551 157.128C43.5913 155.638 44.0658 154.77 44.4441 154.402C44.6333 154.218 44.7773 154.155 44.93 154.135C45.0826 154.116 45.2698 154.146 45.5196 154.256C45.8587 154.404 46.2186 155.078 46.4039 155.774C46.5893 156.47 46.6374 157.111 46.6374 157.111L46.6398 157.121V157.128C46.6398 157.128 46.7058 157.831 47.0738 158.477C47.2578 158.8 47.5303 159.129 47.9416 159.312C48.353 159.495 48.8758 159.497 49.4345 159.272C50.1916 158.967 50.6535 158.383 50.8424 157.749C51.0314 157.115 50.9898 156.442 50.8707 155.824C50.6327 154.589 50.0618 153.527 50.0618 153.527L50.0571 153.522L50.0547 153.515C50.0547 153.515 49.3402 152.267 48.6019 150.867C48.2328 150.166 47.858 149.427 47.5666 148.794C47.2752 148.16 47.0689 147.598 47.0383 147.405C47.0095 147.222 47.0518 146.732 47.1681 146.176C47.2844 145.62 47.4611 144.975 47.6444 144.369C48.0111 143.158 48.4015 142.101 48.4015 142.101C48.426 142.044 48.4388 141.984 48.4391 141.922C48.4394 141.861 48.4272 141.8 48.4032 141.744C48.3792 141.687 48.344 141.636 48.2996 141.594C48.2552 141.552 48.2027 141.519 48.1452 141.497C48.0877 141.476 48.0264 141.467 47.9651 141.47C47.9039 141.473 47.8439 141.488 47.7888 141.516C47.7338 141.543 47.6849 141.581 47.645 141.627C47.6052 141.674 47.5753 141.728 47.5572 141.787C47.5572 141.787 47.1573 142.868 46.7813 144.11C46.5933 144.731 46.4088 145.391 46.2837 145.99C46.1586 146.588 46.0767 147.102 46.1469 147.546C46.2154 147.979 46.4431 148.513 46.7459 149.171C47.0487 149.829 47.4288 150.578 47.8025 151.286C48.5463 152.698 49.2582 153.94 49.2646 153.951C49.2646 153.951 49.7788 154.93 49.9839 155.994C50.0865 156.526 50.105 157.069 49.9792 157.491C49.8535 157.913 49.6249 158.225 49.0996 158.437C48.7083 158.595 48.4824 158.567 48.3072 158.489C48.1319 158.411 47.9799 158.248 47.8567 158.031C47.6104 157.599 47.536 157.031 47.536 157.031C47.5349 157.016 47.4851 156.324 47.2766 155.541C47.0658 154.749 46.732 153.803 45.8828 153.43C45.5384 153.279 45.181 153.193 44.8168 153.239C44.4526 153.285 44.1081 153.47 43.8145 153.756C43.2272 154.327 42.7615 155.284 42.2084 156.822C41.6305 158.428 41.8149 159.685 42.3759 160.68C42.9369 161.675 43.8104 162.422 44.5833 163.236C45.281 163.986 45.2795 164.981 44.9606 165.423C44.801 165.643 44.6038 165.759 44.2531 165.729C43.9025 165.699 43.3803 165.477 42.7391 164.89C42.7321 164.882 41.1698 163.389 39.6944 161.654C38.955 160.784 38.241 159.855 37.7676 159.048C37.2942 158.241 37.1367 157.56 37.2158 157.333C37.8997 155.376 39.4059 151.698 39.7133 148.459C40.0045 145.389 41.3924 137.639 41.3924 137.639C41.4056 137.572 41.4034 137.503 41.3861 137.437C41.3688 137.371 41.3369 137.31 41.2926 137.258C41.2484 137.207 41.193 137.166 41.1307 137.138C41.0683 137.111 41.0006 137.098 40.9326 137.101L40.9325 137.101Z" fill="#1E88E5"/>
<path d="M103.618 137.471C98.6054 142.028 95.3041 145.535 92.8922 147.942C90.4804 150.349 88.9607 151.602 87.6425 151.81C86.9834 151.913 86.3396 151.789 85.5412 151.385C84.7428 150.981 83.8076 150.293 82.6616 149.312C80.3698 147.35 77.2298 144.237 72.4311 139.978L71.832 140.652C76.6137 144.896 79.7367 147.993 82.0768 149.996C83.2468 150.998 84.221 151.73 85.1332 152.192C86.0454 152.653 86.9145 152.837 87.7817 152.701C89.516 152.428 91.0987 151.004 93.529 148.579C95.9593 146.153 99.2383 142.673 104.227 138.138L103.618 137.471Z" fill="#1E88E5"/>
<path d="M63.4456 124.325C63.3677 124.332 63.2927 124.358 63.2281 124.402C63.1634 124.446 63.1113 124.506 63.0768 124.576C63.0424 124.646 63.0267 124.724 63.0314 124.802C63.0361 124.88 63.061 124.956 63.1037 125.021C63.1037 125.021 66.4097 130.124 64.5776 136.707C55.3361 169.911 63.5871 199.791 63.5871 199.791C63.6101 199.874 63.6568 199.95 63.7215 200.008L68.8722 204.602C68.9356 204.658 69.0135 204.695 69.0971 204.709C69.1807 204.723 69.2665 204.714 69.3448 204.681C69.4231 204.649 69.4906 204.595 69.5397 204.526C69.5887 204.457 69.6173 204.375 69.6222 204.29C70.8461 183.838 82.8303 168.108 70.174 132.78C69.1021 129.566 67.4934 127.462 66.1436 126.167C64.7922 124.87 63.6649 124.363 63.6649 124.363C63.5961 124.332 63.5207 124.319 63.4456 124.325V124.325ZM64.5187 126.082C64.9044 126.341 64.951 126.273 65.5186 126.818C66.7773 128.026 68.299 129.999 69.3227 133.075C69.3234 133.078 69.3242 133.081 69.3251 133.085C81.7082 167.65 70.3527 183.036 68.8275 203.352L64.4315 199.432C64.3375 199.089 56.3346 169.691 65.4479 136.948C66.9689 131.483 65.3841 127.784 64.5187 126.083L64.5187 126.082Z" fill="#1E88E5"/>
<path d="M75.1854 156.956C75.1072 156.956 75.0304 156.977 74.9626 157.016C74.8949 157.055 74.8385 157.111 74.799 157.179C74.7595 157.247 74.7383 157.323 74.7374 157.402C74.7365 157.48 74.756 157.557 74.7939 157.625C74.7939 157.625 77.067 161.862 79.322 167.108C81.577 172.355 83.7921 178.644 83.7251 182.53C83.6551 186.59 83.5504 192.86 83.2534 198.458C83.1049 201.257 82.9074 203.887 82.6449 205.981C82.3825 208.076 82.0073 209.674 81.6874 210.207C80.9852 211.379 78.602 212.673 76.1854 213.28C74.977 213.584 73.7607 213.732 72.761 213.677C71.7913 213.623 71.0843 213.352 70.7116 212.967C69.7715 209.721 69.669 207.658 69.622 204.257C69.6241 204.196 69.6137 204.135 69.5915 204.079C69.5693 204.022 69.5358 203.97 69.493 203.926C69.4501 203.883 69.3989 203.848 69.3424 203.825C69.2859 203.802 69.2253 203.79 69.1642 203.791C69.1031 203.792 69.0429 203.806 68.9871 203.831C68.9313 203.856 68.8812 203.892 68.8398 203.936C68.7984 203.981 68.7665 204.034 68.7461 204.092C68.7257 204.149 68.7172 204.21 68.7212 204.271C68.7691 207.742 68.8646 209.942 69.8767 213.372L69.9074 213.469L69.9734 213.545C70.5904 214.237 71.5847 214.515 72.7115 214.578C73.8383 214.64 75.1265 214.477 76.4047 214.155C78.9611 213.513 81.4826 212.305 82.461 210.672C82.9814 209.803 83.2716 208.226 83.5388 206.094C83.8059 203.963 84.0028 201.316 84.1519 198.505C84.4502 192.883 84.556 186.604 84.626 182.544C84.699 178.31 82.422 172.039 80.1498 166.752C77.8775 161.466 75.5887 157.198 75.5887 157.198C75.5504 157.125 75.4924 157.063 75.4213 157.02C75.3501 156.977 75.2685 156.955 75.1854 156.956V156.956Z" fill="#1E88E5"/>
<path d="M86.1256 151.668C86.0061 151.671 85.8926 151.721 85.81 151.807C85.7273 151.893 85.6822 152.009 85.6846 152.128C85.6846 152.128 85.8075 170.085 83.7248 180.917C83.7097 180.976 83.7069 181.038 83.7166 181.099C83.7264 181.159 83.7484 181.218 83.7814 181.269C83.8144 181.321 83.8576 181.366 83.9084 181.4C83.9592 181.435 84.0166 181.459 84.0769 181.47C84.1373 181.482 84.1994 181.481 84.2594 181.468C84.3194 181.454 84.376 181.429 84.4259 181.393C84.4757 181.357 84.5177 181.311 84.5492 181.259C84.5807 181.206 84.6011 181.147 84.6091 181.086C86.7278 170.068 86.5878 152.121 86.5878 152.121C86.5881 152.061 86.5762 152.001 86.553 151.945C86.5297 151.889 86.4955 151.839 86.4524 151.797C86.4093 151.755 86.3582 151.721 86.302 151.699C86.2459 151.677 86.1859 151.667 86.1256 151.668V151.668Z" fill="#1E88E5"/>
<path d="M61.9573 209.481C61.8532 209.485 61.7536 209.524 61.6753 209.593C61.5971 209.662 61.5451 209.756 61.5281 209.858C61.5281 209.858 56.4071 237.749 66.2118 265.207C66.2316 265.263 66.2623 265.314 66.302 265.358C66.3417 265.402 66.3897 265.438 66.4432 265.464C66.4968 265.489 66.5548 265.504 66.6141 265.507C66.6733 265.51 66.7326 265.501 66.7885 265.482C66.8444 265.462 66.8958 265.431 66.9399 265.391C66.984 265.352 67.0198 265.304 67.0453 265.25C67.0708 265.197 67.0855 265.138 67.0886 265.079C67.0917 265.02 67.083 264.961 67.0632 264.905C57.3571 237.724 62.4149 210.019 62.4149 210.019C62.4279 209.952 62.4258 209.883 62.4087 209.818C62.3915 209.752 62.3598 209.691 62.3158 209.639C62.2718 209.588 62.2167 209.547 62.1547 209.519C62.0926 209.492 62.0252 209.479 61.9573 209.481V209.481Z" fill="#1E88E5"/>
<path d="M63.0351 124.714C63.0351 124.714 62.2766 130.307 60.1744 143.638C57.9908 157.485 57.655 161.919 58.25 173V173.009L58.2524 173.021C59.6375 187.205 60.4581 202.471 61.5258 210.003C61.6102 210.598 61.6683 210.962 61.9338 211.272C62.0666 211.426 62.3723 211.552 62.6036 211.479C62.8349 211.406 62.9455 211.261 63.0446 211.118C63.4412 210.549 63.7058 209.553 63.9762 208.239C64.5168 205.61 64.8869 201.916 64.4667 199.591L63.5776 199.751C63.9496 201.81 63.6164 205.517 63.0941 208.057C62.8871 209.064 62.654 209.641 62.4668 210.076C62.4427 209.973 62.4361 210.008 62.4173 209.875C61.365 202.453 60.5373 187.157 59.151 172.953C58.5576 161.903 58.8847 157.61 61.0659 143.778C63.169 130.442 63.929 124.837 63.929 124.837L63.0351 124.714Z" fill="#1E88E5"/>
<path d="M79.7983 252.938C79.6867 252.939 79.5794 252.981 79.497 253.057C79.4147 253.132 79.3632 253.235 79.3526 253.346C79.3526 253.346 78.712 259.09 78.3668 265.051C78.1942 268.031 78.0946 271.065 78.1876 273.48C78.234 274.687 78.3282 275.736 78.4918 276.565C78.6554 277.393 78.831 278.025 79.3384 278.388L79.2535 278.307C81.5335 281.059 80.4351 284.446 80.4351 284.446C80.4312 284.457 79.2378 287.964 80.3455 292.111C80.9478 294.366 80.7598 296.064 80.4351 297.198C80.1438 298.215 79.8246 298.596 79.7488 298.695L62.0092 298.618C62.2592 297.27 62.8223 296.444 63.4077 296.021C64.0739 295.54 64.6694 295.472 64.6694 295.472L64.9666 295.438L65.0515 295.151C65.0515 295.151 66.1867 291.193 70.3153 287.269L70.4969 287.097L70.445 286.849C69.7985 283.779 70.4558 280.294 70.7304 278.156C70.9843 276.179 70.0302 272.955 69.056 270.114C68.0817 267.274 67.0514 264.876 67.0514 264.876C67.0298 264.819 66.997 264.767 66.9548 264.723C66.9126 264.679 66.8619 264.644 66.8058 264.62C66.7497 264.597 66.6893 264.584 66.6284 264.585C66.5674 264.585 66.5071 264.597 66.4511 264.621C66.3951 264.645 66.3445 264.681 66.3025 264.725C66.2605 264.769 66.2279 264.821 66.2066 264.878C66.1853 264.935 66.1759 264.996 66.1788 265.057C66.1817 265.118 66.1969 265.178 66.2236 265.233C66.2236 265.233 67.2408 267.603 68.2022 270.407C69.1637 273.21 70.0334 276.508 69.8366 278.041C69.5769 280.062 68.9395 283.53 69.5512 286.779C65.5586 290.65 64.3603 294.409 64.2708 294.703C64.0513 294.742 63.5808 294.783 62.8794 295.29C62.0303 295.903 61.1478 297.06 60.9691 299.026L60.9243 299.514L80.237 299.601L80.3738 299.431C80.3738 299.431 80.9373 298.723 81.3029 297.445C81.6686 296.168 81.8595 294.288 81.2157 291.877C80.1807 288.002 81.2912 284.732 81.2912 284.732V284.729L81.2936 284.724C81.2936 284.724 82.5519 280.873 79.9493 277.732L79.9116 277.687L79.8644 277.652C79.7825 277.593 79.524 277.138 79.3762 276.39C79.2284 275.641 79.1339 274.624 79.0885 273.444C78.9977 271.084 79.096 268.068 79.2677 265.103C79.6111 259.173 80.2488 253.445 80.2488 253.445C80.2568 253.382 80.2511 253.317 80.232 253.256C80.213 253.194 80.1811 253.138 80.1385 253.09C80.0958 253.042 80.0434 253.003 79.9848 252.977C79.9261 252.951 79.8626 252.938 79.7984 252.938L79.7983 252.938Z" fill="#1E88E5"/>
<path d="M81.0271 211.115C80.9606 211.119 80.8957 211.138 80.8372 211.17C80.7786 211.202 80.7279 211.246 80.6887 211.3C80.6494 211.354 80.6226 211.416 80.6102 211.481C80.5978 211.547 80.6 211.614 80.6168 211.679C85.4202 231.109 79.3645 253.276 79.3645 253.276C79.3487 253.333 79.3443 253.393 79.3516 253.452C79.3588 253.51 79.3776 253.567 79.4068 253.619C79.4361 253.67 79.4752 253.716 79.5219 253.752C79.5687 253.789 79.6222 253.815 79.6793 253.831C79.7364 253.847 79.7961 253.851 79.855 253.844C79.9138 253.837 79.9707 253.818 80.0222 253.789C80.0738 253.76 80.1191 253.721 80.1556 253.674C80.192 253.627 80.2189 253.574 80.2347 253.516C80.2347 253.516 86.378 231.22 81.4941 211.464C81.4701 211.36 81.4101 211.268 81.3246 211.204C81.2391 211.14 81.1337 211.109 81.0271 211.115V211.115Z" fill="#1E88E5"/>
<path d="M95.1938 252.939C95.1308 252.94 95.0688 252.955 95.0119 252.982C94.9549 253.009 94.9043 253.048 94.8631 253.095C94.822 253.143 94.7914 253.199 94.7732 253.259C94.755 253.32 94.7497 253.383 94.7575 253.446C94.7575 253.446 95.3951 259.173 95.7386 265.103C95.9103 268.068 96.0086 271.084 95.9178 273.445C95.8724 274.625 95.7779 275.642 95.6301 276.39C95.4823 277.139 95.2262 277.594 95.1443 277.652L95.0948 277.687L95.0571 277.732C92.4545 280.873 93.7128 284.725 93.7128 284.725L93.7152 284.73V284.732C93.7152 284.732 94.8257 288.003 93.7907 291.878C93.1469 294.288 93.3402 296.169 93.7058 297.446C94.0715 298.723 94.6327 299.432 94.6327 299.432L94.7694 299.601L114.082 299.514L114.037 299.026C113.859 297.06 112.976 295.904 112.127 295.29C111.426 294.784 110.955 294.742 110.736 294.703C110.646 294.409 109.45 290.649 105.455 286.777C106.066 283.529 105.432 280.062 105.172 278.041C104.975 276.508 105.843 273.211 106.804 270.407C107.766 267.604 108.785 265.233 108.785 265.233C108.809 265.178 108.821 265.12 108.822 265.061C108.823 265.001 108.812 264.942 108.79 264.887C108.768 264.832 108.735 264.782 108.694 264.74C108.652 264.697 108.603 264.663 108.548 264.64C108.494 264.616 108.435 264.604 108.376 264.603C108.316 264.603 108.258 264.613 108.203 264.635C108.147 264.658 108.097 264.69 108.055 264.732C108.012 264.773 107.978 264.822 107.955 264.877C107.955 264.877 106.925 267.274 105.95 270.115C104.976 272.955 104.022 276.179 104.276 278.157C104.551 280.295 105.208 283.779 104.561 286.85L104.509 287.097L104.691 287.27C108.82 291.193 109.957 295.151 109.957 295.151L110.04 295.439L110.337 295.472C110.337 295.472 110.933 295.54 111.599 296.022C112.184 296.444 112.75 297.27 113 298.618L95.2576 298.696C95.1818 298.597 94.8627 298.216 94.5714 297.198C94.2467 296.064 94.061 294.367 94.6634 292.111C95.771 287.964 94.5752 284.458 94.5714 284.447C94.5714 284.447 93.4729 281.06 95.7529 278.308L95.668 278.388C96.1754 278.026 96.3535 277.393 96.517 276.565C96.6806 275.737 96.7724 274.687 96.8189 273.48C96.9117 271.066 96.8129 268.032 96.6397 265.052C96.2944 259.091 95.6539 253.347 95.6539 253.347C95.643 253.233 95.5895 253.128 95.5042 253.052C95.4189 252.977 95.308 252.936 95.194 252.939L95.1938 252.939Z" fill="#1E88E5"/>
<path d="M94.5735 211.667C94.4851 211.673 94.4004 211.705 94.3299 211.758C94.2595 211.812 94.2064 211.885 94.1773 211.969C91.7537 218.615 91.9317 228.951 92.6774 237.671C93.4231 246.39 94.7622 253.479 94.7622 253.479C94.7732 253.537 94.7955 253.592 94.8279 253.642C94.8604 253.692 94.9023 253.734 94.9512 253.768C95.0002 253.801 95.0552 253.824 95.1132 253.837C95.1712 253.849 95.231 253.849 95.2893 253.838C95.3475 253.827 95.403 253.805 95.4526 253.773C95.5022 253.74 95.5449 253.698 95.5783 253.649C95.6117 253.6 95.6351 253.545 95.6472 253.487C95.6593 253.429 95.6599 253.369 95.6489 253.311C95.6489 253.311 94.3174 246.262 93.5759 237.593C92.8345 228.924 92.7099 218.624 95.0239 212.278C95.0509 212.207 95.0596 212.131 95.0494 212.056C95.0392 211.982 95.0104 211.91 94.9655 211.85C94.9207 211.789 94.8613 211.74 94.7928 211.708C94.7243 211.677 94.6489 211.662 94.5735 211.667V211.667Z" fill="#1E88E5"/>
<path d="M106.172 47.4756L106.033 47.5841C103.944 49.234 103.394 50.7513 103.469 51.8739C103.544 52.9965 104.236 53.6804 104.236 53.6804L104.29 53.7323L104.356 53.7653C104.356 53.7653 106.002 54.5467 108.278 56.7392C110.554 58.9318 113.427 62.5171 115.782 68.09C117.762 72.7742 120.288 75.0048 122.348 76.033C124.408 77.0612 126.037 76.882 126.037 76.882L126.421 76.8372L126.433 76.4481C126.433 76.4481 126.518 73.8771 126.414 70.6795C126.31 67.4819 126.029 63.6671 125.254 61.0857C123.634 55.6928 116.909 48.3337 106.349 47.4897L106.172 47.4756ZM106.462 48.4331C116.515 49.3256 122.914 56.4357 124.388 61.3451C125.109 63.7458 125.41 67.5417 125.513 70.7078C125.608 73.6256 125.54 75.6146 125.53 75.9717C125.1 75.9805 124.193 75.9462 122.751 75.2265C120.891 74.2979 118.526 72.2674 116.613 67.741C114.209 62.0534 111.26 58.3612 108.903 56.0907C106.546 53.8202 104.748 52.9517 104.748 52.9517L104.868 53.0366C104.868 53.0366 104.423 52.6041 104.37 51.8126C104.319 51.0487 104.693 49.892 106.462 48.4331L106.462 48.4331Z" fill="#1E88E5"/>
<path d="M104.189 53.3433L104.184 53.3457C104.184 53.3457 99.8183 53.9635 93.6704 56.6427C92.1261 57.3157 91.1216 58.9824 90.4795 61.1C89.8375 63.2176 89.5569 65.788 89.4702 68.2741C89.2966 73.2463 89.8923 77.8821 89.8923 77.8821L89.8947 77.8962L89.9068 77.8986C89.9068 77.8986 95.0965 79.4728 101.154 79.3467C107.211 79.2205 114.139 77.3921 117.613 70.5854L117.618 70.5782L117.615 70.5688C114.497 63.4867 111.141 59.1826 108.566 56.6474C105.991 54.1123 104.194 53.3457 104.194 53.3457L104.189 53.3433ZM104.184 53.3834C104.191 53.3863 105.973 54.1465 108.54 56.6733C111.11 59.2035 114.459 63.5045 117.575 70.5758C114.108 77.3598 107.199 79.1829 101.151 79.3088C95.1116 79.4346 89.9481 77.8686 89.93 77.8632C89.9288 77.8496 89.3371 73.2351 89.5103 68.2741C89.597 65.7899 89.8745 63.224 90.5149 61.1117C91.1553 58.9994 92.1584 57.3441 93.6869 56.678C99.8259 54.0027 104.177 53.3843 104.184 53.3834V53.3834Z" fill="#1E88E5"/>
<path d="M100.394 79.2051C100.137 79.5212 100.112 79.8491 100.047 80.3512C99.9827 80.8534 99.9449 81.5028 99.9272 82.2898C99.8917 83.8639 99.9447 85.9836 100.085 88.4829C100.366 93.4814 100.996 99.9892 101.979 106.574C102.957 113.131 103.124 116.169 102.889 118.021C102.655 119.874 102.014 120.635 101.297 122.75C100.553 124.946 100.635 127.873 101.312 130.146C101.65 131.282 102.132 132.26 102.816 132.898C103.5 133.536 104.467 133.778 105.415 133.344L105.59 133.261L105.653 133.079C106.822 129.674 108.345 127.705 109.559 126.585C110.772 125.464 111.629 125.205 111.629 125.205L111.917 125.115L111.943 124.818C111.943 124.818 112.541 118.75 111.419 114.939C110.535 111.933 109.479 108.813 109.875 105.984C110.073 104.787 110.746 103.919 111.53 102.859C112.316 101.798 113.19 100.556 113.584 98.6899L113.592 98.6663L114.523 89.5842L113.625 89.4923L112.7 98.5107C112.343 100.189 111.581 101.278 110.806 102.324C110.031 103.372 109.223 104.388 108.983 105.843V105.848L108.981 105.852C108.541 108.985 109.678 112.216 110.554 115.194C111.547 118.568 111.078 124.23 111.052 124.545C110.821 124.631 110.104 124.853 108.948 125.92C107.66 127.109 106.115 129.189 104.915 132.544C104.326 132.77 103.89 132.665 103.432 132.238C102.938 131.778 102.484 130.93 102.175 129.889C101.555 127.807 101.497 124.975 102.154 123.038C102.837 121.019 103.527 120.158 103.783 118.135C104.039 116.112 103.855 113.022 102.873 106.44C101.895 99.8851 101.265 93.4003 100.986 88.4336C100.847 85.9502 100.794 83.8443 100.828 82.3089C100.845 81.5412 100.886 80.9164 100.944 80.467C101.002 80.0176 101.142 79.7159 101.095 79.7737L100.394 79.2051Z" fill="#1E88E5"/>
<path d="M117.657 69.5688L117.204 70.3518C116.191 72.1087 114.673 73.8153 113.165 75.1865L113.032 75.3067L113.018 75.4836C113.018 75.4836 112.734 78.9634 112.849 82.8535C112.906 84.7986 113.062 86.8467 113.41 88.6339C113.758 90.421 114.271 91.9546 115.188 92.8813L115.193 92.8861L115.195 92.8885C117.028 94.6678 117.542 95.942 117.995 97.2185C118.447 98.4949 118.839 99.8125 120.337 101.336L120.374 101.374L120.419 101.402C122.975 103.019 124.954 103.087 126.407 102.466C127.859 101.845 128.746 100.609 129.336 99.8314L129.433 99.7088L129.428 99.5508C129.328 94.1044 128.93 90.2028 127.739 83.3017C126.819 77.9656 126.421 76.328 126.421 76.328L126.341 75.9931L125.994 75.9837C120.312 75.8323 118.011 70.4014 118.011 70.4014L117.657 69.5688ZM117.563 71.3117C117.99 72.2023 120.226 76.4054 125.593 76.7878C125.62 76.9003 125.965 78.3218 126.85 83.4549C128.024 90.26 128.414 94.0874 128.517 99.4069C127.929 100.181 127.17 101.16 126.053 101.638C124.89 102.135 123.311 102.139 120.947 100.659C119.613 99.2834 119.302 98.2084 118.843 96.9164C118.381 95.6109 117.754 94.1203 115.83 92.2492V92.2468C115.16 91.5693 114.627 90.1702 114.294 88.4616C113.962 86.7522 113.806 84.7427 113.749 82.8275C113.638 79.0631 113.905 75.797 113.915 75.6817C115.265 74.4348 116.546 72.9113 117.563 71.3116V71.3117Z" fill="#1E88E5"/>
<path d="M134.031 137.1C133.964 137.1 133.898 137.114 133.837 137.142C133.776 137.17 133.722 137.211 133.679 137.263C133.636 137.314 133.606 137.375 133.589 137.44C133.572 137.505 133.57 137.572 133.583 137.638C133.583 137.638 134.971 145.388 135.262 148.458C135.57 151.698 137.078 155.376 137.762 157.333C137.841 157.559 137.681 158.24 137.208 159.047C136.735 159.854 136.021 160.784 135.281 161.653C133.806 163.389 132.246 164.882 132.239 164.889C131.598 165.477 131.073 165.699 130.723 165.729C130.372 165.759 130.175 165.643 130.015 165.422C129.696 164.981 129.697 163.986 130.395 163.236L130.397 163.233C131.169 162.42 132.042 161.674 132.602 160.679C133.163 159.684 133.348 158.427 132.77 156.821C132.217 155.284 131.748 154.327 131.161 153.755C130.868 153.469 130.523 153.285 130.159 153.239C129.795 153.193 129.437 153.278 129.093 153.43C128.244 153.803 127.91 154.749 127.699 155.54C127.491 156.323 127.441 157.016 127.44 157.031C127.44 157.031 127.365 157.598 127.119 158.031C126.996 158.247 126.844 158.41 126.669 158.488C126.493 158.566 126.27 158.594 125.879 158.436C125.353 158.225 125.125 157.913 124.999 157.491C124.873 157.069 124.889 156.525 124.992 155.993C125.197 154.929 125.711 153.951 125.711 153.951C125.717 153.94 126.429 152.697 127.173 151.286C127.547 150.577 127.927 149.829 128.23 149.17C128.532 148.512 128.76 147.979 128.829 147.546C128.899 147.102 128.817 146.587 128.692 145.989C128.567 145.391 128.385 144.73 128.197 144.109C127.821 142.867 127.421 141.786 127.421 141.786C127.4 141.731 127.369 141.68 127.328 141.636C127.288 141.593 127.24 141.558 127.186 141.533C127.132 141.508 127.074 141.494 127.014 141.492C126.955 141.49 126.896 141.499 126.841 141.52C126.785 141.54 126.734 141.572 126.69 141.612C126.647 141.652 126.612 141.701 126.587 141.755C126.562 141.809 126.548 141.867 126.546 141.926C126.544 141.985 126.553 142.044 126.574 142.1C126.574 142.1 126.967 143.158 127.333 144.369C127.517 144.974 127.694 145.619 127.81 146.175C127.926 146.732 127.966 147.222 127.937 147.404C127.907 147.597 127.703 148.16 127.411 148.793C127.12 149.427 126.745 150.166 126.376 150.866C125.638 152.267 124.923 153.515 124.923 153.515L124.918 153.522L124.916 153.527C124.916 153.527 124.345 154.588 124.107 155.824C123.988 156.441 123.944 157.114 124.133 157.748C124.322 158.382 124.784 158.967 125.541 159.272C126.1 159.497 126.622 159.495 127.034 159.312C127.445 159.129 127.72 158.8 127.904 158.477C128.272 157.831 128.336 157.128 128.336 157.128L128.338 157.121V157.111C128.338 157.111 128.386 156.47 128.571 155.774C128.757 155.078 129.117 154.404 129.456 154.255C129.706 154.145 129.893 154.115 130.045 154.135C130.198 154.154 130.342 154.217 130.531 154.401C130.91 154.769 131.384 155.637 131.92 157.127C132.432 158.549 132.268 159.433 131.814 160.238C131.36 161.044 130.55 161.76 129.739 162.615L129.736 162.618C128.776 163.647 128.638 165.057 129.284 165.95C129.606 166.397 130.167 166.681 130.798 166.627C131.429 166.573 132.112 166.228 132.847 165.554L132.85 165.552L132.854 165.547C132.854 165.547 134.451 164.022 135.967 162.238C136.726 161.346 137.466 160.391 137.986 159.505C138.506 158.618 138.881 157.801 138.613 157.035C137.911 155.025 136.448 151.395 136.161 148.371C135.858 145.177 134.472 137.477 134.472 137.477C134.455 137.373 134.401 137.277 134.32 137.208C134.24 137.139 134.137 137.101 134.031 137.1L134.031 137.1Z" fill="#1E88E5"/>
<path d="M111.667 123.92C111.612 123.923 111.559 123.937 111.509 123.96C111.509 123.96 110.384 124.468 109.033 125.768C107.681 127.069 106.069 129.179 104.998 132.407C92.3477 167.817 104.328 183.584 105.552 204.087C105.556 204.172 105.585 204.254 105.634 204.324C105.683 204.394 105.751 204.448 105.83 204.48C105.909 204.513 105.995 204.523 106.079 204.508C106.163 204.494 106.241 204.456 106.304 204.399L111.452 199.793C111.517 199.735 111.564 199.66 111.587 199.576C111.587 199.576 119.837 169.619 110.596 136.332C108.764 129.732 112.073 124.615 112.073 124.615C112.118 124.545 112.143 124.464 112.145 124.381C112.147 124.297 112.126 124.215 112.084 124.143C112.042 124.07 111.981 124.011 111.907 123.972C111.833 123.933 111.75 123.914 111.667 123.92V123.92ZM110.66 125.679C109.796 127.381 108.206 131.092 109.729 136.575C118.842 169.403 110.836 198.874 110.743 199.217L106.347 203.146C104.821 182.779 93.466 167.354 105.849 132.7C105.851 132.697 105.852 132.693 105.854 132.69C106.878 129.607 108.399 127.628 109.658 126.417C110.226 125.87 110.274 125.938 110.66 125.679L110.66 125.679Z" fill="#1E88E5"/>
<path d="M89.0359 151.333C88.9165 151.334 88.8023 151.382 88.7183 151.467C88.6343 151.552 88.5874 151.667 88.5878 151.786C88.5878 151.786 88.4481 169.779 90.5665 180.825C90.5745 180.886 90.595 180.944 90.6265 180.997C90.658 181.05 90.7 181.095 90.7498 181.131C90.7996 181.167 90.8563 181.193 90.9163 181.206C90.9763 181.219 91.0384 181.22 91.0987 181.209C91.1591 181.197 91.2164 181.173 91.2672 181.139C91.318 181.104 91.3613 181.06 91.3942 181.008C91.4272 180.956 91.4493 180.898 91.459 180.837C91.4687 180.776 91.466 180.714 91.4509 180.655C89.3682 169.795 89.4911 151.793 89.4911 151.793C89.4923 151.733 89.4813 151.673 89.4589 151.617C89.4366 151.561 89.4031 151.51 89.3607 151.467C89.3183 151.424 89.2677 151.39 89.2119 151.367C89.1561 151.344 89.0963 151.333 89.0359 151.333V151.333Z" fill="#1E88E5"/>
<path d="M72.6739 19.26C72.218 19.191 71.6196 19.1895 71.0561 19.451C70.4926 19.7125 70.011 20.2978 69.8769 21.1962C69.7428 22.0945 69.8997 23.3072 70.4783 25.0309V25.0356L70.4807 25.0403C70.4807 25.0403 70.7245 25.694 71.4311 26.6935C72.1378 27.6931 73.3199 29.0754 75.2352 30.6367C75.328 30.7124 75.4472 30.7481 75.5664 30.7359C75.6856 30.7237 75.7951 30.6647 75.8707 30.5718C75.9464 30.479 75.9821 30.3598 75.9699 30.2406C75.9578 30.1214 75.8988 30.0119 75.8059 29.9363C73.9514 28.4246 72.8257 27.1065 72.1669 26.1747C71.5089 25.244 71.3302 24.7373 71.3297 24.7361C71.3297 24.7361 71.3297 24.7337 71.3297 24.7337C70.781 23.0948 70.6685 21.9974 70.7684 21.3282C70.8686 20.657 71.1212 20.4129 71.4358 20.2669C72.0651 19.9749 73.1268 20.3094 73.1268 20.3094C73.1822 20.3303 73.2412 20.3401 73.3005 20.3382C73.3597 20.3363 73.418 20.3227 73.472 20.2983C73.5259 20.2739 73.5746 20.2391 73.6151 20.1959C73.6557 20.1527 73.6873 20.1019 73.7082 20.0464C73.7291 19.991 73.7389 19.932 73.737 19.8728C73.7351 19.8135 73.7215 19.7553 73.6971 19.7013C73.6727 19.6473 73.6379 19.5986 73.5946 19.5581C73.5514 19.5176 73.5006 19.486 73.4452 19.4651C73.4452 19.4651 73.1299 19.3289 72.674 19.2599L72.6739 19.26Z" fill="#1E88E5"/>
<path d="M101.625 19.26C101.169 19.3289 100.854 19.4651 100.854 19.4651C100.796 19.4843 100.743 19.5149 100.698 19.555C100.653 19.5952 100.616 19.644 100.59 19.6987C100.564 19.7534 100.549 19.8128 100.546 19.8733C100.543 19.9339 100.553 19.9943 100.574 20.0511C100.596 20.1078 100.628 20.1597 100.67 20.2036C100.711 20.2475 100.762 20.2826 100.817 20.3067C100.873 20.3308 100.933 20.3435 100.993 20.344C101.054 20.3444 101.114 20.3327 101.17 20.3094C101.17 20.3094 102.232 19.975 102.861 20.267C103.175 20.413 103.43 20.6571 103.531 21.3282C103.631 21.9979 103.518 23.0954 102.969 24.7361C102.969 24.7373 102.79 25.244 102.132 26.1747C101.473 27.1065 100.348 28.4246 98.4931 29.9363C98.4471 29.9737 98.4089 30.0199 98.3808 30.0721C98.3526 30.1244 98.335 30.1816 98.329 30.2406C98.323 30.2997 98.3286 30.3593 98.3457 30.4161C98.3627 30.473 98.3907 30.5259 98.4282 30.5719C98.4657 30.6179 98.5119 30.656 98.5641 30.6842C98.6163 30.7123 98.6736 30.7299 98.7326 30.7359C98.7916 30.742 98.8512 30.7363 98.9081 30.7193C98.9649 30.7022 99.0178 30.6742 99.0638 30.6367C100.979 29.0755 102.161 27.6931 102.868 26.6935C103.574 25.694 103.818 25.0403 103.818 25.0403V25.0356L103.821 25.0309C104.399 23.3072 104.556 22.0945 104.422 21.1962C104.288 20.2978 103.804 19.7125 103.241 19.451C102.677 19.1895 102.081 19.191 101.625 19.26L101.625 19.26Z" fill="#1E88E5"/>
<path d="M85.8097 81.2851C85.0188 81.2093 84.058 81.3979 83.0221 81.6907C80.9503 82.2763 78.6073 83.3197 77.3856 83.8699L77.1404 84.1505C77.1404 84.1505 76.7768 85.3532 76.5531 86.8768C76.3295 88.4003 76.216 90.2534 76.8314 91.669L77.5389 91.8293C77.8641 91.5475 78.5552 91.1896 79.3879 90.8671C80.2206 90.5446 81.2007 90.2415 82.1519 89.9851C83.1031 89.7287 84.0272 89.5188 84.7461 89.3814C85.1056 89.3126 85.4138 89.2621 85.6446 89.2328C85.8755 89.2035 86.0713 89.2115 86.0149 89.2021C86.2912 89.2482 86.5498 89.0742 86.6729 88.912C86.7959 88.7499 86.8659 88.5737 86.9299 88.3696C87.0581 87.9615 87.1428 87.435 87.2059 86.8249C87.3312 85.6132 87.3589 84.0863 87.3049 82.7614V82.759C87.3121 82.3351 87.1556 81.9364 86.8662 81.6836C86.5763 81.4304 86.2051 81.3229 85.8097 81.285L85.8097 81.2851ZM85.7248 82.1836C86.0068 82.2106 86.1849 82.2868 86.272 82.3629C86.359 82.4389 86.406 82.5144 86.4017 82.7426L86.4041 82.7709C86.4578 84.0604 86.4292 85.578 86.3098 86.7329C86.25 87.3104 86.1629 87.8002 86.0692 88.0984C86.0306 88.2215 85.9967 88.2824 85.9749 88.3201C85.8379 88.3179 85.7135 88.3159 85.5316 88.339C85.2723 88.3719 84.9489 88.4258 84.5764 88.497C83.8314 88.6394 82.892 88.8525 81.9185 89.1149C80.9451 89.3772 79.9395 89.688 79.0626 90.0276C78.4429 90.2675 78.0149 90.5449 77.5697 90.82C77.2583 89.7293 77.2574 88.2852 77.4447 87.0088C77.6413 85.67 77.9142 84.7751 77.9612 84.6151C79.2089 84.0549 81.3678 83.0955 83.2675 82.5586C84.2536 82.2799 85.161 82.1296 85.7249 82.1836L85.7248 82.1836Z" fill="#1E88E5"/>
<path d="M85.7581 90.7162C84.9667 90.3784 84.0108 90.5293 82.9823 90.8719C80.9252 91.557 78.4991 93.1193 76.7232 94.4495L76.9944 95.2608L76.5581 94.6924C76.5581 94.6924 76.1901 96.0586 75.9638 97.7725C75.7375 99.4863 75.625 101.549 76.2492 103.076L76.86 103.315C78.9246 102.332 81.0564 101.893 82.7512 101.718C84.446 101.543 85.7625 101.644 85.9798 101.683C86.1643 101.715 86.3733 101.633 86.4821 101.532C86.5909 101.431 86.6445 101.327 86.6896 101.223C86.78 101.014 86.8295 100.781 86.8736 100.496C86.9617 99.9276 87.0057 99.17 87.0269 98.3196C87.069 96.6296 87.012 94.592 86.9561 93.1595C86.9784 92.545 86.8974 92.0335 86.6944 91.6148C86.4912 91.1961 86.1538 90.8851 85.7581 90.7162V90.7162ZM85.4043 91.5464C85.6189 91.6379 85.7663 91.7679 85.8831 92.0086C85.9998 92.2493 86.0738 92.6147 86.0552 93.1288V93.1618C86.111 94.5853 86.1674 96.6335 86.126 98.296C86.1052 99.1272 86.0584 99.8656 85.9821 100.357C85.9491 100.571 85.9097 100.71 85.8784 100.798C85.3492 100.726 84.2978 100.653 82.6593 100.822C81.0353 100.989 79.0206 101.437 77.011 102.305C76.6547 101.085 76.6607 99.3821 76.8577 97.8903C77.0631 96.3342 77.3614 95.2328 77.3977 95.0956C79.1175 93.8195 81.4454 92.3348 83.2677 91.7279C84.1993 91.4176 84.9753 91.3632 85.4044 91.5463L85.4043 91.5464Z" fill="#1E88E5"/>
<path d="M82.3502 103.458C80.1298 103.657 77.7392 104.453 76.5486 105.102L76.7656 105.048L76.3198 105.428C76.3198 105.428 76.0728 106.966 75.9685 108.852C75.8641 110.738 75.8734 112.96 76.4944 114.479L77.0675 114.731C78.8718 114.07 80.7597 114.425 82.3054 114.986C83.0782 115.267 83.7609 115.595 84.2958 115.866C84.5633 116.001 84.7934 116.12 84.9868 116.215C85.1802 116.309 85.3088 116.384 85.5128 116.42C85.7505 116.462 85.9654 116.316 86.0599 116.203C86.1543 116.09 86.2017 115.981 86.2486 115.859C86.3424 115.614 86.4113 115.313 86.4773 114.944C86.6093 114.206 86.7145 113.213 86.7957 112.125C86.958 109.95 87.0229 107.419 86.9655 105.956V105.951C86.909 104.879 86.2552 104.12 85.3901 103.763C84.525 103.405 83.4604 103.359 82.3502 103.458V103.458ZM82.4304 104.357C83.459 104.265 84.4077 104.331 85.0458 104.595C85.6839 104.859 86.0241 105.23 86.0646 105.998C86.1189 107.394 86.0562 109.919 85.8972 112.057C85.8173 113.127 85.7122 114.106 85.5906 114.786C85.5385 115.076 85.482 115.276 85.4326 115.427C85.4047 115.415 85.4134 115.421 85.3831 115.406C85.2079 115.32 84.9771 115.2 84.7038 115.062C84.1573 114.785 83.4403 114.437 82.6143 114.137C81.1079 113.59 79.208 113.3 77.3009 113.816C76.8824 112.566 76.7741 110.624 76.8694 108.902C76.9627 107.215 77.1474 106.053 77.1807 105.838C78.2443 105.293 80.4489 104.534 82.4304 104.357L82.4304 104.357Z" fill="#1E88E5"/>
<path d="M79.1898 116.161C78.1869 116.26 77.2967 116.493 76.6711 116.847C76.6102 116.881 76.5581 116.929 76.5188 116.986C76.4795 117.044 76.4541 117.11 76.4447 117.179C76.044 120.133 74.5295 134.678 80.7888 143.805C80.803 143.825 80.8187 143.844 80.836 143.862C81.8036 144.876 82.6089 145.437 83.3241 145.69C84.0392 145.943 84.6775 145.857 85.1353 145.595C85.9353 145.138 86.1669 144.38 86.2248 144.171C86.2546 144.133 86.2943 144.093 86.3097 144.062C86.36 143.964 86.3777 143.885 86.3993 143.791C86.4426 143.604 86.4752 143.37 86.5055 143.072C86.5661 142.476 86.6143 141.637 86.654 140.619C86.7336 138.584 86.7777 135.842 86.7979 133.004C86.8384 127.329 86.7849 121.307 86.7296 119.842C86.7296 119.84 86.7296 119.839 86.7296 119.837C86.6756 118.773 86.0962 117.93 85.291 117.361C84.4857 116.792 83.4582 116.456 82.3831 116.276C81.308 116.096 80.1928 116.061 79.1899 116.161L79.1898 116.161ZM79.2606 117.092C80.1866 116.995 81.2504 117.001 82.2345 117.165C83.2185 117.33 84.1277 117.643 84.7697 118.097C85.4118 118.551 85.7893 119.106 85.8286 119.882C85.8812 121.277 85.9374 127.334 85.897 132.997C85.8768 135.829 85.8319 138.57 85.7531 140.586C85.7138 141.594 85.6661 142.422 85.6093 142.98C85.5809 143.259 85.5482 143.475 85.522 143.588C85.5196 143.598 85.522 143.592 85.5196 143.6C85.4679 143.655 85.4306 143.721 85.4111 143.794C85.4111 143.794 85.1778 144.532 84.6871 144.813C84.4418 144.953 84.1412 145.021 83.6258 144.839C83.1173 144.659 82.4056 144.186 81.5151 143.261C75.6807 134.713 76.904 120.769 77.3148 117.583C77.7645 117.37 78.4209 117.18 79.2605 117.092L79.2606 117.092Z" fill="#1E88E5"/>
<path d="M88.8569 81.285C88.4614 81.3229 88.0902 81.4304 87.8003 81.6836C87.5109 81.9363 87.3542 82.3351 87.3617 82.759C87.3617 82.7598 87.3617 82.7606 87.3617 82.7614C87.3077 84.0863 87.3353 85.6132 87.4607 86.8249C87.5238 87.435 87.6084 87.9615 87.7366 88.3696C87.8007 88.5737 87.8706 88.7499 87.9937 88.912C88.1167 89.0742 88.3754 89.2482 88.6516 89.2021C88.5953 89.2115 88.7911 89.2034 89.0219 89.2328C89.2527 89.2621 89.561 89.3126 89.9204 89.3814C90.6394 89.5188 91.5635 89.7287 92.5146 89.9851C93.4658 90.2415 94.4459 90.5446 95.2786 90.8671C96.1114 91.1896 96.8025 91.5475 97.1276 91.8293L97.8351 91.669C98.4506 90.2534 98.337 88.4003 98.1134 86.8768C97.8897 85.3532 97.5262 84.1505 97.5262 84.1505L97.2809 83.8699C96.0593 83.3197 93.7162 82.2763 91.6444 81.6907C90.6085 81.3979 89.6477 81.2093 88.8568 81.2851L88.8569 81.285ZM88.9417 82.1836C89.5057 82.1296 90.413 82.2798 91.3992 82.5586C93.2979 83.0952 95.4574 84.0524 96.7055 84.6127C96.7521 84.7711 97.0252 85.6687 97.222 87.0088C97.4093 88.2851 97.4084 89.7293 97.097 90.8199C96.6518 90.5448 96.2238 90.2674 95.6041 90.0275C94.7272 89.6879 93.7216 89.3772 92.7481 89.1148C91.7747 88.8524 90.8353 88.6393 90.0903 88.4969C89.7178 88.4257 89.3944 88.3718 89.1351 88.3389C88.9532 88.3158 88.8288 88.3179 88.6918 88.32C88.6699 88.2823 88.6361 88.2215 88.5974 88.0983C88.5037 87.8001 88.4166 87.3103 88.3569 86.7328C88.2375 85.5779 88.2088 84.0603 88.2626 82.7708L88.265 82.7425C88.2602 82.5143 88.3076 82.4388 88.3947 82.3628C88.4818 82.2868 88.6599 82.2106 88.9419 82.1836L88.9417 82.1836Z" fill="#1E88E5"/>
<path d="M88.9089 90.7162C88.5132 90.8851 88.1757 91.1961 87.9726 91.6148C87.7695 92.0335 87.6886 92.545 87.7108 93.1595C87.6549 94.592 87.5979 96.6296 87.6401 98.3196C87.6613 99.17 87.7052 99.9276 87.7934 100.496C87.8374 100.781 87.887 101.014 87.9773 101.223C88.0225 101.327 88.076 101.431 88.1849 101.532C88.2937 101.633 88.5026 101.715 88.6872 101.683C88.9045 101.644 90.221 101.543 91.9158 101.718C93.6106 101.893 95.7424 102.332 97.807 103.315L98.4178 103.076C99.042 101.549 98.9294 99.4863 98.7032 97.7725C98.4769 96.0586 98.1088 94.6924 98.1088 94.6924L97.6726 95.2608L97.9438 94.4495C96.1679 93.1193 93.7418 91.557 91.6847 90.8719C90.6561 90.5293 89.7003 90.3784 88.9089 90.7162H88.9089ZM89.2626 91.5464C89.6917 91.3632 90.4677 91.4177 91.3993 91.728C93.2216 92.3349 95.5495 93.8196 97.2693 95.0957C97.3056 95.2329 97.6039 96.3343 97.8093 97.8904C98.0063 99.3822 98.0123 101.086 97.6561 102.305C95.6471 101.438 93.6312 100.989 92.0078 100.822C90.3693 100.653 89.3178 100.726 88.7886 100.798C88.7572 100.71 88.718 100.571 88.6849 100.357C88.6087 99.8657 88.5618 99.1273 88.541 98.2961C88.4996 96.6336 88.556 94.5854 88.6118 93.1619V93.1289C88.5932 92.6148 88.6672 92.2494 88.784 92.0087C88.9007 91.768 89.0482 91.638 89.2627 91.5465L89.2626 91.5464Z" fill="#1E88E5"/>
<path d="M92.3165 103.458C91.2064 103.359 90.1417 103.405 89.2766 103.763C88.4115 104.12 87.7577 104.879 87.7012 105.951V105.956C87.6439 107.419 87.7085 109.95 87.871 112.125C87.9522 113.213 88.0574 114.206 88.1894 114.944C88.2554 115.312 88.3244 115.614 88.4182 115.859C88.465 115.981 88.5123 116.09 88.6068 116.203C88.7013 116.316 88.9163 116.462 89.154 116.42C89.3579 116.384 89.4865 116.309 89.6799 116.215C89.8733 116.12 90.1034 116.001 90.3709 115.866C90.9058 115.595 91.5885 115.267 92.3613 114.986C93.907 114.425 95.7949 114.07 97.5993 114.731L98.1724 114.479C98.7933 112.96 98.8026 110.738 98.6983 108.852C98.5939 106.966 98.3469 105.428 98.3469 105.428L97.9011 105.048L98.1181 105.102C96.9275 104.453 94.5369 103.657 92.3165 103.458V103.458ZM92.2364 104.357C94.2179 104.534 96.4225 105.293 97.4861 105.838C97.5193 106.053 97.7041 107.215 97.7974 108.901C97.8927 110.624 97.7844 112.566 97.3658 113.816C95.4587 113.3 93.5588 113.59 92.0524 114.137C91.2265 114.437 90.5118 114.785 89.9653 115.061C89.692 115.2 89.4589 115.32 89.2837 115.406C89.2534 115.421 89.2621 115.414 89.2342 115.427C89.1847 115.276 89.1282 115.076 89.0762 114.786C88.9545 114.106 88.8494 113.127 88.7696 112.057C88.6101 109.919 88.5478 107.394 88.6021 105.998C88.6426 105.23 88.9829 104.859 89.621 104.595C90.2591 104.331 91.2078 104.265 92.2364 104.357L92.2364 104.357Z" fill="#1E88E5"/>
<path d="M95.4767 116.161C94.4737 116.061 93.3586 116.096 92.2835 116.276C91.2084 116.456 90.1809 116.792 89.3756 117.361C88.5704 117.93 87.991 118.773 87.937 119.837C87.937 119.839 87.937 119.84 87.937 119.842C87.8817 121.307 87.8282 127.329 87.8687 133.004C87.8888 135.842 87.933 138.584 88.0125 140.619C88.0522 141.637 88.1004 142.476 88.1611 143.072C88.1914 143.37 88.224 143.604 88.2672 143.791C88.2888 143.885 88.3066 143.964 88.3568 144.062C88.3723 144.093 88.4119 144.133 88.4417 144.171C88.4997 144.38 88.7313 145.138 89.5313 145.595C89.989 145.857 90.6274 145.943 91.3425 145.69C92.0576 145.437 92.8654 144.876 93.833 143.862C93.8494 143.844 93.8644 143.825 93.8778 143.805C100.137 134.678 98.6225 120.133 98.2219 117.179C98.2124 117.11 98.1871 117.044 98.1478 116.986C98.1085 116.929 98.0563 116.881 97.9955 116.847C97.3699 116.493 96.4797 116.26 95.4767 116.161L95.4767 116.161ZM95.4059 117.092C96.2456 117.18 96.902 117.369 97.3516 117.583C97.7623 120.768 98.9871 134.707 93.1561 143.256C92.2624 144.186 91.5504 144.658 91.0406 144.838C90.5253 145.021 90.2247 144.952 89.9793 144.812C89.4887 144.532 89.2553 143.793 89.2553 143.793C89.2362 143.72 89.1989 143.653 89.1469 143.598C89.1445 143.59 89.1464 143.597 89.1445 143.588C89.1183 143.475 89.0857 143.259 89.0572 142.98C89.0003 142.421 88.9527 141.594 88.9133 140.586C88.8346 138.569 88.792 135.829 88.7718 132.997C88.7315 127.334 88.7853 121.277 88.8379 119.882C88.8772 119.105 89.2547 118.55 89.8968 118.096C90.5388 117.643 91.448 117.329 92.432 117.165C93.4161 117 94.4799 116.995 95.4059 117.092L95.4059 117.092Z" fill="#1E88E5"/>
<path d="M113.235 209.481C113.169 209.48 113.102 209.494 113.042 209.522C112.981 209.55 112.927 209.591 112.884 209.642C112.842 209.694 112.811 209.754 112.794 209.818C112.777 209.883 112.775 209.951 112.787 210.016C112.787 210.016 117.429 236.574 107.943 264.912C107.921 264.969 107.91 265.03 107.912 265.091C107.914 265.152 107.928 265.212 107.954 265.268C107.979 265.323 108.016 265.373 108.062 265.414C108.107 265.454 108.161 265.485 108.219 265.505C108.277 265.525 108.338 265.532 108.399 265.527C108.46 265.522 108.519 265.505 108.573 265.476C108.627 265.448 108.675 265.409 108.714 265.361C108.752 265.313 108.78 265.259 108.797 265.2C118.365 236.617 113.676 209.861 113.676 209.861C113.659 209.756 113.606 209.66 113.525 209.59C113.445 209.521 113.342 209.482 113.235 209.481V209.481Z" fill="#1E88E5"/>
<path d="M129.02 99.1026C128.934 99.1034 128.85 99.1288 128.778 99.1758C128.706 99.2228 128.649 99.2893 128.613 99.3676C128.578 99.4459 128.566 99.5327 128.578 99.6178C128.59 99.7029 128.626 99.7827 128.682 99.8478C128.682 99.8478 129.07 100.304 129.671 101.508C130.271 102.713 131.06 104.639 131.798 107.498C133.273 113.218 134.536 122.67 133.63 137.53C133.623 137.591 133.627 137.653 133.645 137.712C133.662 137.771 133.691 137.826 133.73 137.874C133.77 137.921 133.818 137.96 133.873 137.988C133.928 138.016 133.988 138.032 134.049 138.036C134.111 138.04 134.173 138.031 134.23 138.011C134.288 137.99 134.342 137.957 134.386 137.915C134.431 137.873 134.467 137.822 134.492 137.765C134.516 137.709 134.529 137.648 134.529 137.586C135.439 122.652 134.177 113.106 132.673 107.274C131.921 104.359 131.108 102.37 130.477 101.105C129.847 99.8398 129.376 99.27 129.376 99.27C129.333 99.217 129.279 99.1744 129.217 99.1454C129.155 99.1164 129.088 99.1018 129.02 99.1026V99.1026Z" fill="#1E88E5"/>
<path d="M114.112 89.0819C114.042 89.0836 113.973 89.1018 113.911 89.1349C113.849 89.1681 113.795 89.2153 113.755 89.2728C113.714 89.3304 113.688 89.3966 113.677 89.4662C113.667 89.5359 113.673 89.607 113.695 89.6738C113.695 89.6738 114.321 91.6411 114.886 94.1264C115.451 96.6117 115.94 99.6297 115.707 101.595C115.704 101.617 115.703 101.639 115.704 101.661C116.504 127.25 126.675 142.197 126.675 142.197C126.709 142.246 126.752 142.288 126.801 142.32C126.851 142.353 126.906 142.375 126.965 142.386C127.023 142.397 127.083 142.396 127.141 142.384C127.199 142.372 127.254 142.348 127.303 142.315C127.352 142.281 127.394 142.239 127.426 142.189C127.458 142.139 127.481 142.084 127.492 142.026C127.503 141.967 127.502 141.908 127.49 141.85C127.478 141.792 127.454 141.736 127.421 141.688C127.421 141.688 117.397 126.995 116.605 101.633L116.603 101.702C116.865 99.4915 116.339 96.4515 115.766 93.926C115.192 91.4005 114.556 89.4003 114.556 89.4003C114.527 89.3061 114.468 89.224 114.388 89.1665C114.308 89.109 114.211 89.0793 114.112 89.082L114.112 89.0819Z" fill="#1E88E5"/>
<path d="M112.247 124.714L111.354 124.837C111.354 124.837 112.114 130.441 114.217 143.777C116.396 157.599 116.723 161.9 116.132 172.931C114.744 187.142 113.916 202.448 112.863 209.875C112.842 210.02 112.838 209.982 112.811 210.089C112.612 209.647 112.358 209.005 112.134 207.946C111.585 205.352 111.225 201.59 111.596 199.536L110.71 199.375C110.289 201.706 110.685 205.45 111.252 208.132C111.536 209.473 111.819 210.5 112.219 211.082C112.319 211.228 112.426 211.369 112.648 211.45C112.871 211.532 113.19 211.428 113.332 211.273C113.616 210.964 113.672 210.599 113.757 210.002C114.824 202.471 115.645 187.204 117.03 173.021V173.009L117.032 172.999C117.627 161.918 117.292 157.485 115.108 143.637C113.006 130.307 112.247 124.714 112.247 124.714L112.247 124.714Z" fill="#1E88E5"/>
<path d="M113.292 209.488C113.223 209.491 113.156 209.509 113.096 209.542C113.035 209.575 112.983 209.621 112.943 209.677L110.365 213.292C110.343 213.324 110.325 213.358 110.311 213.394C110.311 213.394 107.234 221.472 105.311 231.956C105.309 231.968 105.308 231.98 105.306 231.992C104.192 242.777 104.198 256.285 103.259 262.485C103.259 262.489 103.258 262.493 103.257 262.497C102.758 266.564 101.667 269.788 100.701 272.28C99.7342 274.771 98.8536 276.462 98.8846 277.784C98.887 277.899 98.9326 278.008 99.0123 278.089C99.092 278.171 99.1997 278.22 99.3138 278.225L100.337 278.27C100.432 278.274 100.525 278.248 100.603 278.196C100.682 278.144 100.742 278.068 100.776 277.98C101.107 277.121 102.287 273.941 103.455 270.485C104.623 267.029 105.778 263.341 106.061 261.351L106.038 261.441C106.038 261.441 109.089 253.059 110.929 245.463C111.758 242.04 112.763 237.315 113.554 232.982C114.344 228.65 114.926 224.752 114.891 222.825C114.846 219.912 113.759 209.892 113.759 209.892C113.747 209.778 113.692 209.673 113.605 209.598C113.518 209.523 113.406 209.484 113.292 209.488L113.292 209.488ZM112.966 211.196C113.134 212.781 113.952 220.38 113.99 222.839C113.99 222.84 113.99 222.84 113.99 222.841C114.021 224.555 113.454 228.508 112.667 232.822C111.88 237.136 110.875 241.85 110.052 245.25C108.23 252.772 105.191 261.132 105.191 261.132C105.18 261.161 105.172 261.192 105.167 261.224C104.912 263.021 103.765 266.754 102.602 270.195C101.485 273.496 100.418 276.378 100.045 277.355L99.9271 277.35C100.026 276.444 100.642 274.928 101.543 272.607C102.521 270.084 103.639 266.775 104.151 262.608C105.116 256.219 105.096 242.805 106.2 232.105C108.099 221.762 111.112 213.833 111.139 213.761L112.966 211.196Z" fill="#1E88E5"/>
<path d="M61.95 209.488C61.8424 209.493 61.7403 209.537 61.662 209.611C61.5837 209.685 61.5344 209.784 61.5232 209.891C61.5232 209.891 60.4365 219.912 60.3912 222.825C60.3561 224.752 60.9375 228.649 61.7283 232.982C62.5192 237.315 63.5242 242.04 64.3532 245.463C66.1928 253.058 69.2421 261.441 69.2421 261.441L69.2209 261.349C69.5039 263.339 70.6585 267.026 71.8269 270.482C72.9953 273.939 74.1727 277.121 74.5036 277.98C74.5373 278.068 74.5981 278.144 74.6772 278.196C74.7564 278.248 74.85 278.274 74.9446 278.27L75.9658 278.225C76.0803 278.22 76.1886 278.172 76.2688 278.09C76.349 278.008 76.3949 277.899 76.3974 277.784C76.4283 276.462 75.5477 274.771 74.5814 272.28C73.6152 269.788 72.5243 266.563 72.025 262.497C72.0242 262.493 72.0234 262.489 72.0225 262.485C71.084 256.285 71.0903 242.777 69.9755 231.991C69.9747 231.987 69.9739 231.983 69.9731 231.979C68.3695 219.56 64.9427 213.334 64.9427 213.334C64.9341 213.319 64.9246 213.305 64.9144 213.292L62.3414 209.681C62.2979 209.618 62.2391 209.568 62.1706 209.534C62.1021 209.5 62.0262 209.484 61.9499 209.488L61.95 209.488ZM62.3132 211.196L64.1575 213.783C64.166 213.798 67.4937 219.815 69.0794 232.095C70.185 242.802 70.1642 256.232 71.1311 262.62C71.6435 266.78 72.762 270.087 73.7395 272.607C74.6396 274.928 75.2562 276.444 75.355 277.35L75.2371 277.355C74.8643 276.378 73.7967 273.496 72.6806 270.195C71.5173 266.754 70.3681 263.021 70.1123 261.224C70.1085 261.192 70.1014 261.162 70.0911 261.132C70.0911 261.132 67.0498 252.772 65.2281 245.25C64.4046 241.85 63.4025 237.136 62.6151 232.822C61.8277 228.508 61.2609 224.556 61.292 222.841C61.292 222.841 61.292 222.84 61.292 222.839C61.3303 220.38 62.1454 212.781 62.3132 211.196H62.3132Z" fill="#1E88E5"/>
<path opacity="0.9025" d="M104.042 52.6592L103.92 52.6757C103.92 52.6757 99.4896 53.3064 93.2954 56.0057C91.5745 56.7557 90.5217 58.557 89.8616 60.7342C89.2015 62.9115 88.9233 65.5089 88.8357 68.0169C88.6607 73.0328 89.2603 77.6956 89.2603 77.6956L89.2979 77.9857L89.5762 78.0706C89.5762 78.0706 94.8204 79.6653 100.958 79.5375C107.095 79.4096 114.229 77.5262 117.794 70.5403L117.891 70.3493L117.806 70.1535C114.667 63.026 111.28 58.6728 108.665 56.0977C106.049 53.5226 104.158 52.7087 104.158 52.7087L104.042 52.6592ZM103.913 53.5978C104.061 53.663 105.62 54.3655 108.033 56.7415C110.532 59.2017 113.799 63.4249 116.863 70.2998C113.456 76.7443 106.848 78.5135 100.939 78.6366C95.241 78.7552 90.5781 77.4069 90.1399 77.2782C90.1048 76.9976 89.5703 72.8173 89.7366 68.0499C89.8226 65.5876 90.1025 63.0486 90.7248 60.996C91.3471 58.9434 92.3019 57.4227 93.6539 56.8335C99.613 54.2366 103.724 53.6254 103.913 53.5978Z" fill="#1E88E5"/>
<path d="M48.8002 101.775C48.7272 101.778 48.6562 101.8 48.5933 101.837C48.5305 101.875 48.4776 101.927 48.4394 101.989C48.4394 101.989 41.4056 112.969 42.06 122.948C42.377 127.781 41.9903 131.4 41.527 133.806C41.0638 136.211 40.5365 137.374 40.5365 137.374C40.5099 137.428 40.4946 137.488 40.4914 137.548C40.4881 137.608 40.4971 137.669 40.5178 137.726C40.5384 137.783 40.5703 137.835 40.6115 137.879C40.6527 137.924 40.7024 137.959 40.7577 137.984C40.813 138.009 40.8726 138.022 40.9331 138.023C40.9937 138.024 41.0538 138.013 41.11 137.991C41.1661 137.968 41.2172 137.934 41.26 137.892C41.3029 137.849 41.3368 137.798 41.3596 137.742C41.3596 137.742 41.9341 136.457 42.4114 133.978C42.8888 131.499 43.2829 127.797 42.9609 122.887C42.3374 113.378 49.2011 102.473 49.2011 102.473C49.247 102.403 49.2725 102.322 49.275 102.238C49.2775 102.155 49.2569 102.073 49.2153 102C49.1738 101.928 49.113 101.869 49.0397 101.829C48.9664 101.789 48.8835 101.77 48.8002 101.775V101.775Z" fill="#1E88E5"/>
<path d="M54.281 100.565C54.1619 100.574 54.0515 100.631 53.9741 100.722C53.8967 100.813 53.8587 100.931 53.8683 101.05C53.8683 101.05 54.1046 104.631 54.2433 108.864C54.382 113.096 54.4138 118.005 54.0357 120.533C53.8521 121.76 53.8143 122.62 53.8683 123.245C53.9223 123.87 54.0612 124.282 54.3352 124.556C54.6093 124.83 54.9986 124.859 55.2338 124.802C55.4689 124.744 55.6323 124.622 55.6323 124.622C55.7293 124.552 55.7943 124.446 55.8131 124.328C55.8319 124.209 55.8029 124.088 55.7326 123.991C55.6622 123.894 55.5562 123.829 55.4379 123.811C55.3196 123.792 55.1987 123.821 55.1017 123.891C55.1017 123.891 55.0651 123.914 55.0215 123.924C54.978 123.935 55.0117 123.954 54.9744 123.917C54.9369 123.879 54.8112 123.68 54.7668 123.167C54.7225 122.654 54.7524 121.849 54.9296 120.665C55.3334 117.965 55.2834 113.085 55.1442 108.835C55.0049 104.586 54.7668 100.991 54.7668 100.991C54.7638 100.931 54.7487 100.872 54.7225 100.818C54.6962 100.763 54.6594 100.715 54.6141 100.675C54.5688 100.635 54.516 100.605 54.4588 100.586C54.4015 100.567 54.3411 100.56 54.281 100.564V100.565Z" fill="#1E88E5"/>
<path d="M126.095 101.775C126.013 101.773 125.933 101.794 125.862 101.836C125.791 101.877 125.733 101.936 125.693 102.008C125.654 102.08 125.634 102.161 125.638 102.243C125.641 102.325 125.666 102.404 125.711 102.473C125.711 102.473 132.575 113.378 131.951 122.887C131.629 127.798 132.021 131.499 132.498 133.978C132.976 136.457 133.55 137.742 133.55 137.742C133.573 137.798 133.607 137.849 133.65 137.892C133.693 137.934 133.744 137.968 133.8 137.991C133.856 138.013 133.916 138.024 133.977 138.023C134.037 138.022 134.097 138.009 134.152 137.984C134.207 137.959 134.257 137.924 134.298 137.879C134.339 137.835 134.371 137.783 134.392 137.726C134.412 137.669 134.421 137.609 134.418 137.548C134.415 137.488 134.4 137.429 134.373 137.374C134.373 137.374 133.848 136.212 133.385 133.806C132.922 131.4 132.533 127.782 132.85 122.948C133.504 112.969 126.473 101.989 126.473 101.989C126.433 101.925 126.377 101.871 126.312 101.834C126.246 101.796 126.171 101.776 126.095 101.775V101.775Z" fill="#1E88E5"/>
<path d="M120.572 100.565C120.46 100.57 120.355 100.616 120.275 100.695C120.196 100.774 120.149 100.88 120.143 100.991C120.143 100.991 119.907 104.586 119.768 108.835C119.629 113.085 119.579 117.965 119.983 120.665C120.16 121.849 120.19 122.654 120.145 123.167C120.101 123.68 119.975 123.88 119.938 123.917C119.9 123.954 119.934 123.935 119.89 123.924C119.847 123.913 119.808 123.891 119.808 123.891C119.76 123.856 119.705 123.831 119.648 123.818C119.59 123.804 119.53 123.801 119.472 123.811C119.413 123.82 119.357 123.841 119.306 123.872C119.256 123.903 119.212 123.944 119.177 123.992C119.142 124.04 119.117 124.094 119.103 124.152C119.089 124.209 119.087 124.269 119.096 124.328C119.106 124.386 119.126 124.442 119.158 124.493C119.189 124.544 119.229 124.588 119.277 124.622C119.277 124.622 119.441 124.744 119.676 124.802C119.911 124.859 120.3 124.83 120.574 124.556C120.848 124.282 120.99 123.87 121.044 123.245C121.098 122.62 121.057 121.76 120.874 120.533C120.496 118.006 120.53 113.097 120.669 108.864C120.807 104.631 121.044 101.051 121.044 101.051C121.049 100.987 121.04 100.922 121.018 100.862C120.997 100.802 120.962 100.747 120.918 100.701C120.873 100.655 120.819 100.619 120.76 100.596C120.7 100.572 120.636 100.562 120.572 100.565L120.572 100.565Z" fill="#1E88E5"/>
<path d="M99.8749 156.956C99.7942 156.958 99.7156 156.981 99.6471 157.024C99.5787 157.067 99.5229 157.127 99.4857 157.199C99.4857 157.199 97.197 161.466 94.9247 166.752C92.6524 172.039 90.3755 178.31 90.4485 182.544C90.5184 186.604 90.6219 192.883 90.9202 198.505C91.0693 201.316 91.2662 203.963 91.5333 206.095C91.8005 208.226 92.0931 209.804 92.6135 210.672C93.5919 212.305 96.1109 213.513 98.6674 214.155C99.9456 214.477 101.234 214.64 102.361 214.578C103.487 214.515 104.484 214.237 105.101 213.545L105.167 213.469L105.195 213.372C106.207 209.942 106.305 207.742 106.353 204.272C106.354 204.212 106.344 204.153 106.322 204.098C106.3 204.043 106.267 203.993 106.226 203.95C106.185 203.907 106.136 203.873 106.081 203.85C106.027 203.826 105.968 203.813 105.909 203.812C105.849 203.812 105.79 203.822 105.735 203.844C105.68 203.866 105.63 203.899 105.587 203.94C105.545 203.981 105.511 204.031 105.487 204.085C105.463 204.139 105.451 204.198 105.45 204.257C105.403 207.659 105.301 209.722 104.36 212.969C103.987 213.353 103.279 213.623 102.311 213.677C101.311 213.732 100.097 213.584 98.8891 213.281C96.4724 212.673 94.0892 211.38 93.387 210.208C93.0671 209.674 92.692 208.076 92.4295 205.981C92.167 203.887 91.9695 201.257 91.821 198.458C91.524 192.86 91.4193 186.59 91.3494 182.53C91.2823 178.644 93.4974 172.355 95.7524 167.108C98.0074 161.862 100.28 157.625 100.28 157.625C100.319 157.556 100.339 157.478 100.337 157.398C100.336 157.319 100.313 157.241 100.272 157.173C100.231 157.105 100.172 157.049 100.103 157.011C100.033 156.973 99.9543 156.954 99.8748 156.956H99.8749Z" fill="#1E88E5"/>
<path opacity="0.95" d="M69.9904 133.088C82.6019 168.291 70.6457 183.807 69.4122 204.419L64.2626 199.826C64.2626 199.826 56.0488 170.052 65.2529 136.982C67.1389 130.206 63.7223 124.93 63.7223 124.93C63.7223 124.93 67.8947 126.792 69.9904 133.088V133.088Z" fill="#1E88E5" fill-opacity="0.227451"/>
<path opacity="0.95" d="M105.665 132.703C93.0535 167.996 105.009 183.552 106.243 204.216L111.392 199.611C111.392 199.611 119.606 169.762 110.402 136.608C108.516 129.815 111.933 124.526 111.933 124.526C111.933 124.526 107.76 126.392 105.665 132.703Z" fill="#1E88E5" fill-opacity="0.227451"/>
<path opacity="0.95" d="M113.55 210.094L110.973 213.708C110.973 213.708 107.91 221.751 105.995 232.192C104.884 242.939 104.898 256.412 103.945 262.707C102.934 270.941 99.5244 275.776 99.5748 277.929L100.597 277.973C101.248 276.284 105.316 265.229 105.855 261.441C105.855 261.441 108.9 253.071 110.731 245.512C112.383 238.689 114.747 226.628 114.68 222.987C114.637 220.173 113.55 210.094 113.55 210.094V210.094Z" fill="#1E88E5" fill-opacity="0.0705882"/>
<path opacity="0.95" d="M62.2118 210.094L64.7885 213.709C64.7885 213.709 67.852 221.751 69.7671 232.192C70.8779 242.939 70.8642 256.412 71.8171 262.707C72.8281 270.941 76.2373 275.776 76.187 277.929L75.1651 277.973C74.514 276.284 70.4456 265.229 69.9068 261.441C69.9068 261.441 66.8617 253.071 65.031 245.512C63.3786 238.689 61.0152 226.628 61.0814 222.987C61.1252 220.173 62.2118 210.094 62.2118 210.094V210.094Z" fill="#1E88E5" fill-opacity="0.0705882"/>
<path opacity="0.95" d="M49.2335 76.5891C49.2335 76.5891 48.8992 66.3526 50.3957 61.3706C51.9479 56.2028 58.5394 48.9217 68.9046 48.0933C72.9366 51.2785 70.6648 53.5139 70.6648 53.5139C70.6648 53.5139 63.7784 56.8098 59.0194 68.0704C55.1268 77.2809 49.2335 76.5891 49.2335 76.5891V76.5891Z" fill="#1E88E5" fill-opacity="0.227451"/>
<path opacity="0.95" d="M49.2338 76.5891C49.2338 76.5891 48.8421 78.2035 47.9228 83.5335C46.7344 90.4234 46.3383 94.2859 46.2393 99.7142C47.4276 101.28 49.6063 104.307 54.5578 101.176C57.4297 98.2527 55.9443 96.3737 59.7074 92.7199C62.88 89.5125 61.7492 75.6753 61.7492 75.6753C60.2149 74.2806 58.668 72.5477 57.6208 70.7319C57.6208 70.7319 55.1994 76.4301 49.2338 76.5891V76.5891Z" fill="#1E88E5" fill-opacity="0.0705882"/>
<path opacity="0.95" d="M126.223 76.5891C126.223 76.5891 126.558 66.3526 125.061 61.3706C123.509 56.2028 116.917 48.9217 106.552 48.0933C102.52 51.2785 104.792 53.5139 104.792 53.5139C104.792 53.5139 111.678 56.8098 116.437 68.0704C120.33 77.2809 126.223 76.5891 126.223 76.5891V76.5891Z" fill="#1E88E5" fill-opacity="0.227451"/>
<path opacity="0.95" d="M126.223 76.5891C126.223 76.5891 126.615 78.2035 127.534 83.5335C128.723 90.4234 129.119 94.2859 129.218 99.7142C128.03 101.28 125.851 104.307 120.899 101.176C118.028 98.2527 119.513 96.3737 115.75 92.7199C112.577 89.5125 113.708 75.6753 113.708 75.6753C115.242 74.2806 116.789 72.5477 117.836 70.7319C117.836 70.7319 120.258 76.4301 126.223 76.5891Z" fill="#1E88E5" fill-opacity="0.0705882"/>
<path d="M46.239 99.7144C46.239 99.7144 47.2838 101.923 48.736 102.085C50.1883 102.246 42.134 107.91 42.6516 121.89C43.0206 131.858 41.6414 138.308 40.9988 136.694C39.5947 133.168 40.2728 107.106 46.239 99.7144Z" fill="#1E88E5" fill-opacity="0.227451"/>
<path d="M54.5578 101.176C54.5578 101.176 55.883 109.111 54.7171 121.926C54.5989 123.225 53.9568 124.914 55.608 124.411C56.9724 121.024 59.3243 108.297 59.1132 101.802C58.902 95.3074 60.1929 92.7256 60.1929 92.7256C60.1929 92.7256 58.8997 93.0704 57.7885 94.9463C56.6829 96.8129 55.7622 100.208 54.5578 101.176" fill="#1E88E5" fill-opacity="0.227451"/>
<path d="M128.897 99.7144C128.897 99.7144 127.852 101.923 126.4 102.085C124.948 102.246 132.198 107.788 132.485 121.89C132.743 134.609 133.269 136.953 133.911 135.339C135.316 131.813 134.863 107.106 128.897 99.7144V99.7144Z" fill="#1E88E5" fill-opacity="0.227451"/>
<path d="M120.579 101.176C120.579 101.176 119.253 109.111 120.419 121.926C120.537 123.225 121.18 124.914 119.528 124.411C118.164 121.024 115.812 108.297 116.023 101.802C116.234 95.3074 114.943 92.7256 114.943 92.7256C114.943 92.7256 116.237 93.0704 117.348 94.9463C118.453 96.8129 119.374 100.208 120.579 101.176" fill="#1E88E5" fill-opacity="0.227451"/>
<g opacity="0.95">
<g opacity="0.95">
<g opacity="0.95">
<path opacity="0.95" d="M118.812 109.617C118.607 109.617 118.404 109.657 118.214 109.736C118.024 109.814 117.852 109.929 117.707 110.074C117.562 110.219 117.447 110.392 117.368 110.581C117.289 110.771 117.249 110.974 117.249 111.179C117.249 111.385 117.289 111.588 117.368 111.777C117.447 111.967 117.562 112.139 117.707 112.284C117.852 112.429 118.024 112.545 118.214 112.623C118.404 112.702 118.607 112.742 118.812 112.742C119.148 112.742 119.474 112.634 119.744 112.433C120.013 112.233 120.211 111.951 120.308 111.63H156.586V110.729H120.307C120.21 110.408 120.013 110.126 119.743 109.926C119.474 109.725 119.148 109.617 118.812 109.617V109.617Z" fill="#F78A0A"/>
</g>
<g opacity="0.95">
<g opacity="0.95">
<path d="M134.043 120.033C133.629 120.033 133.232 120.197 132.939 120.49C132.646 120.783 132.481 121.181 132.481 121.595C132.481 121.939 132.595 122.273 132.804 122.545C133.014 122.818 133.307 123.014 133.639 123.103V157.627C133.639 157.687 133.651 157.745 133.673 157.8C133.696 157.855 133.73 157.905 133.772 157.947C133.814 157.989 133.864 158.022 133.919 158.044C133.974 158.067 134.033 158.078 134.092 158.078L156.468 157.964L156.464 157.066L134.54 157.174V123.075C134.85 122.971 135.12 122.772 135.311 122.506C135.502 122.241 135.605 121.922 135.606 121.595C135.606 121.181 135.441 120.783 135.148 120.49C134.855 120.197 134.458 120.033 134.043 120.033V120.033Z" fill="#F78A0A"/>
</g>
</g>
<g opacity="0.95">
<g opacity="0.95">
<g opacity="0.95">
<path d="M109.415 183.413C109.21 183.413 109.007 183.453 108.817 183.532C108.627 183.61 108.455 183.725 108.31 183.871C108.165 184.016 108.05 184.188 107.971 184.377C107.893 184.567 107.852 184.77 107.852 184.976C107.852 185.319 107.966 185.654 108.176 185.926C108.385 186.199 108.679 186.395 109.011 186.484V203.504C109.011 203.623 109.058 203.738 109.142 203.822C109.226 203.906 109.34 203.954 109.459 203.955H156.467V203.056H109.91V186.456C110.221 186.352 110.491 186.153 110.682 185.888C110.874 185.622 110.977 185.303 110.978 184.976C110.978 184.561 110.813 184.164 110.52 183.871C110.227 183.578 109.83 183.413 109.415 183.413V183.413Z" fill="#F78A0A"/>
</g>
</g>
</g>
<g opacity="0.95">
<path opacity="0.95" d="M107.895 248.345C107.69 248.345 107.487 248.385 107.297 248.464C107.108 248.542 106.936 248.657 106.79 248.803C106.645 248.948 106.53 249.12 106.452 249.31C106.373 249.499 106.333 249.703 106.333 249.908C106.333 250.322 106.498 250.72 106.791 251.013C107.084 251.306 107.481 251.47 107.895 251.47C108.231 251.47 108.558 251.362 108.828 251.161C109.097 250.961 109.295 250.679 109.391 250.357H156.466V249.459H109.391C109.294 249.137 109.097 248.855 108.827 248.654C108.558 248.454 108.231 248.345 107.895 248.345V248.345Z" fill="#F78A0A"/>
</g>
<g opacity="0.95">
<path opacity="0.95" d="M121.352 64.427C121.293 64.4269 121.234 64.4385 121.18 64.4611C121.125 64.4837 121.075 64.5169 121.033 64.5588C120.992 64.6006 120.958 64.6503 120.936 64.705C120.913 64.7597 120.902 64.8183 120.902 64.8775V83.0585C120.572 83.1492 120.28 83.3458 120.073 83.618C119.865 83.8903 119.753 84.2231 119.753 84.5655C119.753 84.7707 119.793 84.9739 119.872 85.1636C119.95 85.3532 120.065 85.5255 120.21 85.6706C120.355 85.8158 120.528 85.9309 120.717 86.0095C120.907 86.0881 121.11 86.1285 121.315 86.1285C121.521 86.1285 121.724 86.0881 121.913 86.0095C122.103 85.9309 122.275 85.8158 122.42 85.6706C122.565 85.5255 122.681 85.3532 122.759 85.1636C122.838 84.9739 122.878 84.7707 122.878 84.5655C122.878 84.2361 122.773 83.9153 122.58 83.6488C122.386 83.3824 122.113 83.1838 121.8 83.0816V65.328H156.586V64.427H121.352Z" fill="#F78A0A"/>
</g>
<g opacity="0.95">
<path opacity="0.95" d="M121.352 18.4219C121.293 18.4218 121.234 18.4334 121.18 18.456C121.125 18.4786 121.075 18.5118 121.033 18.5536C120.992 18.5955 120.958 18.6452 120.936 18.6999C120.913 18.7546 120.902 18.8132 120.902 18.8724V59.2959C120.572 59.3866 120.28 59.5832 120.073 59.8554C119.865 60.1277 119.753 60.4605 119.753 60.8029C119.753 61.2172 119.918 61.6146 120.211 61.9076C120.504 62.2006 120.901 62.3653 121.315 62.3653C121.73 62.3653 122.127 62.2006 122.42 61.9076C122.713 61.6146 122.878 61.2172 122.878 60.8029C122.878 60.4734 122.773 60.1525 122.58 59.8859C122.386 59.6193 122.113 59.4207 121.8 59.3184V19.3229H156.586V18.4219H121.352Z" fill="#F78A0A"/>
</g>
<g opacity="0.95">
<path opacity="0.95" d="M56.5492 109.618C56.2245 109.618 55.9086 109.726 55.648 109.926C55.3875 110.127 55.1963 110.408 55.1027 110.73H20.002V111.63H55.1021C55.1956 111.952 55.3869 112.233 55.6475 112.434C55.9082 112.634 56.2243 112.742 56.5492 112.743C56.7478 112.743 56.9444 112.702 57.1279 112.624C57.3113 112.545 57.478 112.43 57.6185 112.285C57.7589 112.14 57.8703 111.968 57.9463 111.778C58.0223 111.589 58.0615 111.385 58.0615 111.18C58.0615 110.975 58.0223 110.772 57.9463 110.582C57.8703 110.392 57.7589 110.22 57.6185 110.075C57.478 109.93 57.3113 109.815 57.1279 109.736C56.9444 109.658 56.7478 109.618 56.5492 109.618Z" fill="#F78A0A"/>
</g>
<g opacity="0.95">
<g opacity="0.95">
<path d="M42.5451 120.033C42.1308 120.033 41.7334 120.198 41.4404 120.491C41.1474 120.784 40.9827 121.181 40.9827 121.596C40.9831 121.923 41.0862 122.242 41.2774 122.507C41.4686 122.772 41.7383 122.971 42.0485 123.075V157.175L20.005 157.066L20 157.965L42.4965 158.077C42.5559 158.078 42.6148 158.067 42.6698 158.044C42.7248 158.022 42.7748 157.989 42.8169 157.947C42.859 157.905 42.8924 157.855 42.9152 157.8C42.9379 157.745 42.9496 157.686 42.9495 157.627V123.103C43.2814 123.014 43.5748 122.818 43.7842 122.546C43.9935 122.273 44.1072 121.939 44.1076 121.596C44.1076 121.181 43.9429 120.784 43.6499 120.491C43.3569 120.198 42.9595 120.033 42.5452 120.033H42.5451Z" fill="#F78A0A"/>
</g>
</g>
<g opacity="0.95">
<g opacity="0.95">
<g opacity="0.95">
<path d="M67.1737 183.414C66.7594 183.414 66.362 183.578 66.069 183.871C65.776 184.164 65.6113 184.562 65.6113 184.976C65.6117 185.304 65.715 185.623 65.9066 185.888C66.0982 186.154 66.3683 186.353 66.6789 186.456V203.057H20.0024V203.955H67.1294C67.2485 203.955 67.3626 203.907 67.4466 203.823C67.5306 203.738 67.5776 203.624 67.5775 203.505V186.484C67.9096 186.395 68.2033 186.199 68.4129 185.927C68.6225 185.654 68.7364 185.32 68.7368 184.976C68.7368 184.771 68.6964 184.568 68.6178 184.378C68.5392 184.189 68.4241 184.016 68.2789 183.871C68.1338 183.726 67.9615 183.611 67.7718 183.533C67.5822 183.454 67.379 183.414 67.1737 183.414Z" fill="#F78A0A"/>
</g>
</g>
</g>
<g opacity="0.95">
<path opacity="0.95" d="M68.6936 248.345C68.3577 248.346 68.0308 248.454 67.7614 248.655C67.492 248.855 67.2944 249.138 67.1979 249.459H20.0029V250.358H67.1979C67.2945 250.679 67.4922 250.961 67.7616 251.162C68.031 251.362 68.3578 251.471 68.6936 251.471C68.8989 251.471 69.1021 251.431 69.2917 251.352C69.4813 251.273 69.6535 251.158 69.7986 251.013C69.9437 250.868 70.0588 250.696 70.1373 250.506C70.2158 250.316 70.2562 250.113 70.2561 249.908C70.256 249.494 70.0914 249.096 69.7984 248.803C69.5054 248.51 69.108 248.345 68.6936 248.345V248.345Z" fill="#F78A0A"/>
</g>
<g opacity="0.95">
<path opacity="0.95" d="M20.0024 64.4275V65.3285H54.7883V83.0821C54.4752 83.1843 54.2024 83.3828 54.0089 83.6493C53.8154 83.9158 53.711 84.2366 53.7107 84.5659C53.7107 84.9803 53.8753 85.3777 54.1684 85.6707C54.4614 85.9637 54.8587 86.1284 55.2731 86.1284C55.6875 86.1284 56.0849 85.9637 56.3779 85.6707C56.6709 85.3777 56.8355 84.9803 56.8356 84.5659C56.8356 84.2236 56.7232 83.8908 56.5157 83.6185C56.3081 83.3463 56.0169 83.1497 55.6868 83.059V64.878C55.6869 64.8188 55.6753 64.7602 55.6527 64.7055C55.6301 64.6508 55.5969 64.6011 55.5551 64.5592C55.5132 64.5174 55.4635 64.4842 55.4088 64.4616C55.3541 64.439 55.2955 64.4274 55.2363 64.4275H20.0024Z" fill="#F78A0A"/>
</g>
<g opacity="0.95">
<path opacity="0.95" d="M20.0024 18.4226V19.3236H54.7883V59.3191C54.4752 59.4213 54.2024 59.6199 54.0089 59.8863C53.8154 60.1528 53.711 60.4736 53.7107 60.803C53.7106 61.0082 53.751 61.2114 53.8295 61.4011C53.908 61.5907 54.023 61.763 54.1681 61.9081C54.3132 62.0533 54.4855 62.1684 54.6751 62.247C54.8647 62.3256 55.0679 62.366 55.2731 62.366C55.4784 62.366 55.6816 62.3256 55.8712 62.247C56.0608 62.1684 56.233 62.0533 56.3781 61.9081C56.5232 61.763 56.6383 61.5907 56.7168 61.4011C56.7953 61.2114 56.8356 61.0082 56.8356 60.803C56.8356 60.4606 56.7232 60.1278 56.5157 59.8555C56.3081 59.5833 56.0169 59.3867 55.6868 59.296V18.8731C55.6869 18.8139 55.6753 18.7553 55.6527 18.7006C55.6301 18.6459 55.5969 18.5962 55.5551 18.5544C55.5132 18.5125 55.4635 18.4793 55.4088 18.4567C55.3541 18.4341 55.2955 18.4225 55.2363 18.4226H20.0024Z" fill="#F78A0A"/>
</g>
</g>
</g>
</g>
<circle cx="166.09" cy="65.3347" r="10.0898" fill="#C4C4C4"/>
<circle cx="166.09" cy="111.58" r="10.0898" fill="#C4C4C4"/>
<circle cx="10.0898" cy="19.0898" r="10.0898" fill="#636262"/>
<path d="M11.3545 24.3633H9.70018V16.3721L7.25975 17.2061V15.8047L11.1426 14.376H11.3545V24.3633Z" fill="white"/>
<circle cx="167.09" cy="19.0898" r="10.0898" fill="#1E88E5"/>
<path d="M170.549 24.3633H163.856V23.2217L167.172 19.6055C167.65 19.0723 167.99 18.6279 168.19 18.2725C168.395 17.9124 168.498 17.5524 168.498 17.1924C168.498 16.7184 168.364 16.3356 168.095 16.0439C167.83 15.7523 167.473 15.6064 167.021 15.6064C166.484 15.6064 166.067 15.7705 165.77 16.0986C165.474 16.4268 165.326 16.8757 165.326 17.4453H163.665C163.665 16.8392 163.802 16.2946 164.075 15.8115C164.353 15.3239 164.747 14.9456 165.258 14.6768C165.773 14.4079 166.365 14.2734 167.035 14.2734C168.001 14.2734 168.762 14.5173 169.318 15.0049C169.879 15.488 170.159 16.1579 170.159 17.0146C170.159 17.5114 170.018 18.0332 169.735 18.5801C169.457 19.1224 168.999 19.7399 168.361 20.4326L165.928 23.0371H170.549V24.3633Z" fill="white"/>
<circle cx="166.09" cy="158.09" r="10.0898" fill="#C4C4C4"/>
<circle cx="166.09" cy="204.335" r="10.0898" fill="#C4C4C4"/>
<circle cx="166.09" cy="249.09" r="10.0898" fill="#C4C4C4"/>
<circle cx="10.0898" cy="65.3347" r="10.0898" fill="#C4C4C4"/>
<circle cx="10.0898" cy="111.58" r="10.0898" fill="#C4C4C4"/>
<circle cx="10.0898" cy="158.09" r="10.0898" fill="#C4C4C4"/>
<circle cx="10.0898" cy="204.335" r="10.0898" fill="#C4C4C4"/>
<circle cx="10.0898" cy="249.09" r="10.0898" fill="#C4C4C4"/>
<defs>
<clipPath id="clip0">
<rect width="136.586" height="300" fill="white" transform="translate(20)"/>
</clipPath>
</defs>
</svg>
