<?xml version="1.0" encoding="UTF-8" standalone="no"?>
<svg
   xmlns:dc="http://purl.org/dc/elements/1.1/"
   xmlns:cc="http://creativecommons.org/ns#"
   xmlns:rdf="http://www.w3.org/1999/02/22-rdf-syntax-ns#"
   xmlns:svg="http://www.w3.org/2000/svg"
   xmlns="http://www.w3.org/2000/svg"
   xmlns:sodipodi="http://sodipodi.sourceforge.net/DTD/sodipodi-0.dtd"
   xmlns:inkscape="http://www.inkscape.org/namespaces/inkscape"
   width="178"
   height="300"
   viewBox="0 0 178 300"
   fill="none"
   version="1.1"
   id="svg223"
   sodipodi:docname="icon-electrode-reminder-bicicleta-dorsal.svg"
   inkscape:version="0.92.4 (5da689c313, 2019-01-14)">
  <metadata
     id="metadata227">
    <rdf:RDF>
      <cc:Work
         rdf:about="">
        <dc:format>image/svg+xml</dc:format>
        <dc:type
           rdf:resource="http://purl.org/dc/dcmitype/StillImage" />
        <dc:title></dc:title>
      </cc:Work>
    </rdf:RDF>
  </metadata>
  <sodipodi:namedview
     pagecolor="#ffffff"
     bordercolor="#666666"
     borderopacity="1"
     objecttolerance="10"
     gridtolerance="10"
     guidetolerance="10"
     inkscape:pageopacity="0"
     inkscape:pageshadow="2"
     inkscape:window-width="1920"
     inkscape:window-height="1001"
     id="namedview225"
     showgrid="false"
     inkscape:zoom="1.3509555"
     inkscape:cx="76.591192"
     inkscape:cy="146.28325"
     inkscape:window-x="-9"
     inkscape:window-y="-9"
     inkscape:window-maximized="1"
     inkscape:current-layer="g1108" />
  <defs
     id="defs221">
    <clipPath
       id="clip0">
      <rect
         width="136.586"
         height="300"
         fill="white"
         transform="translate(20)"
         id="rect218" />
    </clipPath>
    <clipPath
       id="clip0-8">
      <rect
         style="fill:#ffffff"
         y="0"
         x="0"
         width="181.233"
         height="400"
         id="rect170" />
    </clipPath>
  </defs>
  <g
     transform="matrix(0.74762363,0,0,0.74762363,21.253163,0.47510024)"
     clip-path="url(#clip0-8)"
     id="g168">
    <path
       style="fill:#1e88e5"
       inkscape:connector-curvature="0"
       d="m 77.1646,275.566 c -0.1491,-10e-4 -0.2934,0.053 -0.4051,0.152 -0.1116,0.098 -0.1825,0.235 -0.1991,0.383 -0.0415,0.335 -0.0863,0.679 -0.1353,1.029 l -0.0158,0.12 0.0283,0.116 c 0,0 2.3734,9.135 4.2136,16.081 l 0.1259,0.478 0.4941,-0.031 c 0.3502,-0.022 0.6463,-0.206 0.8685,-0.431 0.0907,-0.089 0.1511,-0.204 0.1724,-0.33 0.0213,-0.125 0.0025,-0.253 -0.0537,-0.367 -0.0562,-0.114 -0.147,-0.207 -0.2593,-0.266 -0.1123,-0.059 -0.2404,-0.081 -0.3661,-0.063 -1.785,-6.752 -3.9689,-15.144 -3.9996,-15.262 0.0432,-0.314 0.0854,-0.624 0.1227,-0.926 0.0116,-0.084 0.0049,-0.171 -0.0195,-0.252 -0.0244,-0.082 -0.066,-0.158 -0.1219,-0.223 -0.056,-0.064 -0.1251,-0.116 -0.2027,-0.152 -0.0776,-0.036 -0.162,-0.055 -0.2475,-0.055 z"
       id="path2-5" />
    <path
       style="fill:#1e88e5"
       inkscape:connector-curvature="0"
       d="m 69.2251,248.095 c -0.0838,0.006 -0.1655,0.029 -0.2397,0.069 -0.0742,0.039 -0.1394,0.093 -0.1913,0.16 -0.0518,0.066 -0.0893,0.142 -0.1099,0.223 -0.0206,0.082 -0.024,0.167 -0.0098,0.25 1.029,6.632 3.669,9.248 5.6171,12.203 1.9481,2.955 3.3572,6.321 2.2688,15.102 -0.0097,0.078 -0.0038,0.158 0.0172,0.234 0.0211,0.076 0.057,0.148 0.1056,0.21 0.0487,0.062 0.1092,0.115 0.178,0.154 0.0688,0.039 0.1446,0.064 0.2232,0.074 0.0785,0.009 0.1582,0.003 0.2344,-0.018 0.0763,-0.021 0.1476,-0.057 0.21,-0.105 0.0624,-0.049 0.1146,-0.109 0.1536,-0.178 0.0391,-0.069 0.0641,-0.145 0.0738,-0.223 1.1094,-8.951 -0.4163,-12.814 -2.4576,-15.911 -2.0414,-3.096 -4.4452,-5.351 -5.4346,-11.728 -0.0214,-0.151 -0.0992,-0.288 -0.2177,-0.384 -0.1186,-0.096 -0.2691,-0.143 -0.4211,-0.132 z"
       id="path4-2" />
    <path
       style="fill:#1e88e5"
       inkscape:connector-curvature="0"
       d="m 70.1565,167.18 c -0.0063,0.001 -0.0126,0.003 -0.0189,0.004 0,0 -5.8609,0.386 -10.5953,2.615 -2.5515,1.2 -4.1861,4.097 -5.2553,6.649 -1.0691,2.552 -1.5482,4.827 -1.5482,4.827 -0.0084,0.041 -0.0126,0.082 -0.0126,0.123 -0.0475,11.011 -2.9016,18.507 -4.6069,27.746 -1.7053,9.238 -2.2156,20.16 2.4702,37.793 0.0403,0.143 0.1319,0.266 0.2572,0.345 0.1253,0.08 0.2755,0.11 0.4218,0.085 0.1463,-0.024 0.2783,-0.102 0.3708,-0.218 0.0925,-0.116 0.1389,-0.262 0.1303,-0.41 -0.253,-3.417 1.3209,-9.123 3.9461,-14.224 2.6238,-5.098 6.3157,-9.596 9.944,-10.913 0.0021,-0.001 0.0042,-0.003 0.0063,-0.003 7.7544,-1.476 12.38,-3.494 15.8034,-6.797 3.4405,-3.32 5.6414,-7.842 8.7986,-14.262 l -0.041,0.066 c 0.4051,-0.608 0.419,-1.342 0.321,-2.083 -0.0979,-0.741 -0.3327,-1.515 -0.5947,-2.231 -0.5241,-1.432 -1.1801,-2.643 -1.1801,-2.643 -0.0106,-0.019 -0.0222,-0.037 -0.0346,-0.054 l -18.066,-26.153 c -0.0572,-0.084 -0.1344,-0.151 -0.2246,-0.197 -0.0902,-0.046 -0.1904,-0.068 -0.2915,-0.065 z m -0.2643,1.247 17.8331,25.819 c 0.0113,0.02 0.6152,1.138 1.0982,2.458 0.2437,0.666 0.4494,1.377 0.5287,1.976 0.0793,0.6 0.0081,1.059 -0.1258,1.259 -0.0141,0.022 -0.0267,0.045 -0.0377,0.069 -3.1576,6.421 -5.3234,10.812 -8.5531,13.928 -3.2297,3.117 -7.5739,5.051 -15.2873,6.508 -0.0311,0.006 -0.0616,0.014 -0.0913,0.025 -4.189,1.517 -7.9112,6.249 -10.6111,11.495 -2.0158,3.917 -3.1295,7.876 -3.6094,11.36 -3.6781,-15.423 -3.2968,-25.476 -1.7308,-33.96 1.677,-9.085 4.5493,-16.704 4.6164,-27.859 0.0039,-0.018 0.4595,-2.165 1.4759,-4.591 1.0205,-2.436 2.6252,-5.07 4.6573,-6.026 4.2211,-1.987 9.3302,-2.42 9.837,-2.461 z"
       id="path6-8" />
    <path
       style="fill:#1e88e5"
       inkscape:connector-curvature="0"
       d="m 51.7287,241.184 c -0.1388,0.002 -0.2725,0.052 -0.3786,0.142 -0.1061,0.089 -0.178,0.213 -0.2036,0.349 -0.6274,3.101 -0.579,5.123 -0.579,5.123 v 0.069 l 0.0189,0.063 c 0,0 1.8501,7.28 3.8738,14.233 1.0118,3.477 2.0637,6.872 2.9611,9.255 0.4487,1.192 0.8475,2.119 1.2273,2.735 0.1899,0.308 0.3378,0.556 0.6828,0.733 0.1726,0.089 0.457,0.136 0.6924,0.035 0.2353,-0.101 0.363,-0.28 0.4437,-0.438 0.1638,-0.319 0.29,-0.7 0.4027,-1.145 0.0203,-0.077 0.025,-0.157 0.014,-0.236 -0.011,-0.079 -0.0376,-0.155 -0.0781,-0.223 -0.0405,-0.069 -0.0943,-0.129 -0.158,-0.176 -0.0638,-0.048 -0.1364,-0.082 -0.2136,-0.102 -0.0772,-0.019 -0.1575,-0.023 -0.2362,-0.011 -0.0787,0.012 -0.1543,0.039 -0.2223,0.081 -0.0681,0.041 -0.1273,0.095 -0.1742,0.16 -0.0469,0.064 -0.0805,0.137 -0.099,0.214 -0.034,0.134 -0.0713,0.192 -0.107,0.305 -0.2814,-0.488 -0.6409,-1.276 -1.0479,-2.356 -0.874,-2.321 -1.925,-5.701 -2.9329,-9.164 -2.0031,-6.883 -3.8163,-14.018 -3.8391,-14.107 -9e-4,-0.036 -0.0487,-1.846 0.5507,-4.809 0.0193,-0.088 0.0184,-0.18 -0.0028,-0.269 -0.0212,-0.088 -0.0621,-0.17 -0.1196,-0.24 -0.0575,-0.071 -0.1301,-0.127 -0.2125,-0.165 -0.0823,-0.038 -0.1722,-0.057 -0.263,-0.056 z"
       id="path8-1" />
    <path
       style="fill:#1e88e5"
       inkscape:connector-curvature="0"
       d="m 69.4611,219.49 -0.0378,0.003 c 0,0 -6.9624,0.771 -10.4003,5.784 l -0.1196,0.177 0.0158,0.21 c 1.8235,23.308 1.8577,35.291 1.4413,41.403 -0.2082,3.057 -0.5336,4.645 -0.7804,5.422 -0.1196,0.377 -0.2153,0.547 -0.2581,0.611 l -0.2454,0.094 -0.0158,0.394 c 0,0 -0.1126,2.903 0.1227,5.724 0.1177,1.41 0.3138,2.797 0.6923,3.854 0.1893,0.529 0.4198,0.987 0.7867,1.328 0.367,0.342 0.9502,0.508 1.4727,0.343 1.4144,-0.446 2.4105,-1.893 3.2539,-3.908 0.8433,-2.015 1.5257,-4.671 2.0926,-7.769 1.1339,-6.197 1.7989,-14.146 2.1871,-22.006 0.7763,-15.72 0.4374,-31.075 0.4374,-31.075 l -0.0126,-0.589 h -0.5884 z m -0.5507,1.375 c 0.0234,1.143 0.2993,15.185 -0.4437,30.229 -0.3868,7.832 -1.0553,15.749 -2.1713,21.848 -0.558,3.05 -1.231,5.646 -2.0172,7.524 -0.7861,1.879 -1.6943,2.967 -2.5048,3.223 -0.1607,0.051 -0.1607,0.047 -0.2927,-0.076 -0.132,-0.123 -0.3153,-0.423 -0.4689,-0.853 -0.3072,-0.858 -0.5159,-2.189 -0.6293,-3.549 -0.2187,-2.621 -0.1204,-5.174 -0.1133,-5.372 0.0101,-0.013 0.0213,-0.02 0.0314,-0.035 0.1372,-0.197 0.2798,-0.483 0.428,-0.95 0.2964,-0.933 0.6188,-2.594 0.8308,-5.705 0.4218,-6.192 0.3733,-18.198 -1.4255,-41.305 2.7921,-3.91 7.7904,-4.821 8.7765,-4.979 z"
       id="path10-9" />
    <path
       style="fill:#1e88e5"
       inkscape:connector-curvature="0"
       d="m 76.2803,216.793 0.0126,0.227 c -2.8198,1.718 -6.6424,2.437 -6.8696,2.473 -0.0781,0.013 -0.1529,0.041 -0.2203,0.082 -0.0673,0.042 -0.1258,0.096 -0.1721,0.16 -0.0463,0.064 -0.0795,0.137 -0.0978,0.214 -0.0182,0.077 -0.0211,0.157 -0.0085,0.235 0.0126,0.078 0.0404,0.153 0.082,0.22 0.0415,0.068 0.0959,0.126 0.16,0.172 0.0642,0.047 0.1368,0.08 0.2138,0.098 0.077,0.018 0.1568,0.021 0.2349,0.009 0.2903,-0.047 3.7893,-0.749 6.7972,-2.417 0.0437,0.678 0.1815,3.125 0.7395,6.473 0.315,1.89 0.7341,3.844 1.3028,5.479 0.5686,1.634 1.24,2.987 2.3506,3.609 0.3633,0.203 0.7907,0.273 1.1707,0.17 0.38,-0.103 0.6802,-0.342 0.9283,-0.626 0.496,-0.569 0.8481,-1.36 1.1832,-2.272 0.6702,-1.824 1.2282,-4.144 1.8472,-5.69 0.3588,-0.896 0.8194,-1.179 1.1926,-1.309 0.0622,-0.021 0.0492,0 0.104,-0.013 -0.0163,0.642 -0.3952,15.917 -1.3469,32.391 -0.4857,8.408 -1.1142,16.96 -1.9007,23.68 -0.3932,3.359 -0.8258,6.261 -1.2965,8.446 -0.2353,1.092 -0.4834,2.004 -0.73,2.693 -0.2467,0.69 -0.5152,1.155 -0.6766,1.319 -0.1123,0.114 -0.1747,0.268 -0.1735,0.428 0.0012,0.16 0.0659,0.312 0.1798,0.425 0.1139,0.112 0.2678,0.174 0.4277,0.173 0.1599,-10e-4 0.3128,-0.066 0.4251,-0.18 0.4045,-0.41 0.679,-0.991 0.9535,-1.759 0.2745,-0.767 0.5254,-1.719 0.7678,-2.844 0.4848,-2.25 0.9228,-5.181 1.3185,-8.563 0.7916,-6.763 1.4174,-15.328 1.9039,-23.749 0.9729,-16.842 1.3814,-33.105 1.3814,-33.105 l 0.0129,-0.51 -0.5035,-0.094 c 0,0 -0.5797,-0.108 -1.243,0.123 -0.6633,0.231 -1.4436,0.825 -1.9132,1.998 -0.6783,1.694 -1.2306,4.011 -1.8598,5.724 -0.3147,0.856 -0.6638,1.555 -0.9598,1.894 -0.148,0.17 -0.2674,0.24 -0.3367,0.259 -0.0694,0.018 -0.1162,0.024 -0.2675,-0.06 -0.5743,-0.322 -1.2723,-1.43 -1.8031,-2.955 -0.5309,-1.526 -0.944,-3.43 -1.2525,-5.281 -0.5881,-3.528 -0.7619,-6.54 -0.7804,-6.844 l 1.3878,-0.903 z"
       id="path12-2" />
    <path
       style="fill:#1e88e5"
       inkscape:connector-curvature="0"
       d="m 68.7437,282.134 c -0.3789,-0.061 -0.7787,0.068 -1.114,0.318 -0.6707,0.5 -1.2655,1.44 -1.9983,3.15 -2.8446,6.637 -8.8544,18.885 -7.0929,28.923 0.2708,4.257 1.1421,9.281 2.8384,13.585 1.7023,4.318 4.2429,7.966 7.9552,9.207 l 0.0063,0.003 h 0.0095 c 0.4857,0.147 1.0061,-0.066 1.328,-0.38 0.3218,-0.315 0.5514,-0.723 0.7647,-1.202 0.4265,-0.959 0.7551,-2.218 1.0227,-3.493 0.5351,-2.551 0.8024,-5.161 0.8024,-5.161 l 0.0032,-0.035 v -0.038 c 0,0 -0.188,-10.873 -1.1454,-18.934 -0.9464,-7.949 -1.5231,-22.83 -1.5231,-22.83 l -0.044,-1.187 -0.192,0.154 c -0.1442,-0.497 -0.3383,-1.085 -0.7426,-1.554 -0.2075,-0.241 -0.4991,-0.464 -0.878,-0.526 z m -0.192,1.187 c 0.0121,10e-4 0.0669,0.021 0.1574,0.125 0.1809,0.21 0.3928,0.71 0.516,1.14 0.1217,0.424 0.1749,0.759 0.1763,0.767 0,10e-4 0.0032,0.01 0.0032,0.01 0.0035,0.094 0.5657,14.815 1.523,22.856 0.9428,7.937 1.1353,18.733 1.1361,18.777 -0.0038,0.035 -0.2631,2.549 -0.7773,5 -0.2589,1.234 -0.5858,2.445 -0.9441,3.251 -0.1791,0.402 -0.3752,0.699 -0.5098,0.83 -0.1309,0.128 -0.102,0.1 -0.1321,0.089 -3.1801,-1.071 -5.5694,-4.355 -7.2031,-8.5 -1.6362,-4.151 -2.5052,-9.103 -2.7661,-13.264 v -0.035 l -0.0063,-0.034 c -1.6598,-9.406 4.1407,-21.551 7.0143,-28.256 0.6971,-1.626 1.2957,-2.426 1.6081,-2.659 0.1562,-0.116 0.1924,-0.099 0.2045,-0.097 z"
       id="path14-9" />
    <path
       style="fill:#1e88e5"
       inkscape:connector-curvature="0"
       d="m 81.205,292.685 c -0.1594,0.008 -0.3092,0.078 -0.4166,0.196 -0.1074,0.118 -0.1636,0.274 -0.1561,0.434 0,0 0.1477,4.13 2.3035,12.766 1.4041,7.354 1.5007,14.072 0.9346,19.284 -0.2831,2.606 -0.7326,4.837 -1.2619,6.571 -0.527,1.726 -1.1548,2.954 -1.6804,3.54 -0.3619,0.356 -0.6651,0.477 -0.985,0.481 -0.3247,0.005 -0.7061,-0.126 -1.1328,-0.412 -0.8534,-0.572 -1.8111,-1.743 -2.6497,-3.046 -1.6472,-2.56 -2.8357,-5.494 -2.8793,-5.601 -0.004,-0.155 -0.0674,-0.302 -0.1771,-0.411 -0.1097,-0.11 -0.2572,-0.172 -0.412,-0.176 -0.1547,-0.003 -0.3047,0.054 -0.4188,0.158 -0.1142,0.105 -0.1837,0.249 -0.1942,0.403 -0.0034,0.038 -0.0071,0.069 -0.0095,0.095 l -0.0126,0.148 0.0535,0.132 c 0,0 1.2737,3.163 3.0367,5.903 0.8815,1.37 1.8735,2.645 2.9927,3.396 0.5595,0.375 1.1702,0.625 1.8188,0.617 0.6487,-0.008 1.294,-0.3 1.8346,-0.841 l 0.0126,-0.013 0.0095,-0.009 c 0.7537,-0.833 1.3871,-2.189 1.9448,-4.016 0.5576,-1.826 1.0192,-4.119 1.309,-6.787 0.5797,-5.337 0.474,-12.167 -0.9535,-19.643 l -0.0032,-0.016 -0.0032,-0.019 c -2.1472,-8.591 -2.272,-12.546 -2.272,-12.546 -0.0017,-0.081 -0.0195,-0.16 -0.0525,-0.234 -0.0329,-0.073 -0.0803,-0.139 -0.1393,-0.194 -0.059,-0.055 -0.1284,-0.098 -0.2041,-0.125 -0.0757,-0.028 -0.1562,-0.04 -0.2366,-0.036 z"
       id="path16-8" />
    <path
       style="fill:#1e88e5"
       inkscape:connector-curvature="0"
       d="m 75.1128,276.054 c -1.5038,0.617 -3.2119,2.769 -5.6737,8.994 -0.0289,0.074 -0.0431,0.152 -0.0417,0.231 0.0015,0.079 0.0184,0.157 0.05,0.23 0.0316,0.072 0.0771,0.138 0.134,0.192 0.0569,0.055 0.124,0.098 0.1976,0.127 0.0735,0.029 0.152,0.043 0.2311,0.042 0.079,-10e-4 0.157,-0.018 0.2294,-0.05 0.0725,-0.031 0.1381,-0.077 0.1929,-0.134 0.0549,-0.057 0.098,-0.124 0.127,-0.197 2.4221,-6.125 4.2238,-7.998 5.0097,-8.321 0.393,-0.161 0.5257,-0.069 0.6797,0.048 0.1541,0.116 0.2329,0.267 0.2329,0.267 0.0351,0.071 0.0839,0.134 0.1434,0.186 0.0596,0.052 0.1289,0.092 0.2038,0.117 0.075,0.026 0.1542,0.036 0.2331,0.031 0.0789,-0.006 0.156,-0.027 0.2269,-0.062 0.0709,-0.035 0.1341,-0.084 0.1862,-0.143 0.052,-0.06 0.0918,-0.129 0.1171,-0.204 0.0252,-0.075 0.0355,-0.154 0.0302,-0.233 -0.0054,-0.079 -0.0262,-0.156 -0.0613,-0.227 0,0 -0.186,-0.386 -0.5853,-0.689 -0.3994,-0.303 -1.111,-0.513 -1.863,-0.205 z"
       id="path18-7" />
    <path
       style="fill:#1e88e5"
       inkscape:connector-curvature="0"
       d="m 60.6594,282.842 c -0.0941,0.002 -0.1866,0.026 -0.2699,0.07 -0.0832,0.044 -0.155,0.107 -0.2095,0.183 -0.0544,0.077 -0.0901,0.166 -0.1042,0.259 -0.014,0.093 -0.006,0.188 0.0235,0.278 0,0 2.5548,8.288 -0.0692,16.146 -0.0251,0.075 -0.035,0.154 -0.0294,0.233 0.0056,0.079 0.0266,0.156 0.062,0.227 0.0353,0.071 0.0843,0.134 0.144,0.185 0.0597,0.052 0.1291,0.092 0.2041,0.117 0.075,0.025 0.1542,0.035 0.2331,0.029 0.0788,-0.005 0.1558,-0.027 0.2266,-0.062 0.0707,-0.035 0.1337,-0.084 0.1855,-0.144 0.0518,-0.06 0.0914,-0.129 0.1164,-0.204 2.7778,-8.319 0.0755,-16.886 0.0755,-16.886 -0.0374,-0.126 -0.1152,-0.237 -0.2215,-0.315 -0.1063,-0.078 -0.2352,-0.119 -0.367,-0.116 z"
       id="path20-1" />
    <path
       style="fill:#1e88e5"
       inkscape:connector-curvature="0"
       d="m 89.6764,199.665 c -0.0979,0.009 -0.1921,0.042 -0.2744,0.096 -0.0823,0.053 -0.1501,0.126 -0.1977,0.212 -1.0346,1.794 -1.5406,3.148 -1.6961,4.224 -0.1555,1.075 0.0666,1.9 0.5003,2.448 0.3901,0.492 0.8894,0.684 1.3249,0.805 l -2.0675,15.901 c -0.0133,0.08 -0.0104,0.162 0.0085,0.24 0.0188,0.079 0.0533,0.152 0.1014,0.217 0.048,0.065 0.1087,0.12 0.1783,0.161 0.0696,0.041 0.1467,0.067 0.2268,0.078 0.08,0.011 0.1614,0.005 0.2393,-0.017 0.0778,-0.021 0.1505,-0.058 0.2137,-0.108 0.0633,-0.051 0.1157,-0.113 0.1543,-0.184 0.0386,-0.071 0.0625,-0.149 0.0703,-0.229 l 2.0675,-15.895 h -0.2234 -0.0377 v -0.003 c 0.0015,0 0.0377,0.003 0.0377,0.003 0.155,-0.011 0.2997,-0.082 0.4038,-0.197 0.1041,-0.116 0.1595,-0.267 0.1546,-0.422 -0.0049,-0.156 -0.0696,-0.303 -0.1808,-0.412 -0.1111,-0.108 -0.2599,-0.17 -0.4153,-0.171 h -0.0347 c 0,0 -0.864,0.009 -1.2776,-0.513 -0.2068,-0.261 -0.374,-0.684 -0.2517,-1.529 0.1223,-0.846 0.558,-2.084 1.5451,-3.796 0.0572,-0.095 0.087,-0.204 0.086,-0.315 -0.0011,-0.111 -0.0328,-0.22 -0.0918,-0.314 -0.059,-0.094 -0.1429,-0.17 -0.2424,-0.22 -0.0995,-0.049 -0.2107,-0.07 -0.3214,-0.06 z"
       id="path22-8" />
    <path
       style="fill:#1e88e5"
       inkscape:connector-curvature="0"
       d="m 83.4739,330.164 c -0.1386,0.008 -0.27,0.064 -0.3721,0.158 -0.1021,0.094 -0.1685,0.221 -0.1881,0.358 0,0 -0.9837,6.297 -1.4255,14.485 -0.4417,8.188 -0.3561,18.268 1.8378,25.949 0.0217,0.076 0.0581,0.147 0.1073,0.209 0.0491,0.062 0.11,0.114 0.1791,0.152 0.0691,0.038 0.1451,0.063 0.2236,0.072 0.0786,0.009 0.1581,0.002 0.2342,-0.019 0.076,-0.022 0.147,-0.058 0.209,-0.108 0.0619,-0.049 0.1136,-0.11 0.152,-0.179 0.0385,-0.069 0.0629,-0.145 0.0719,-0.223 0.0091,-0.079 0.0026,-0.158 -0.0191,-0.234 -2.1191,-7.419 -2.232,-17.428 -1.7937,-25.553 0.4384,-8.125 1.413,-14.365 1.413,-14.365 0.0152,-0.089 0.01,-0.181 -0.0152,-0.268 -0.0251,-0.087 -0.0696,-0.167 -0.1301,-0.235 -0.0605,-0.067 -0.1355,-0.12 -0.2193,-0.155 -0.0838,-0.034 -0.1744,-0.049 -0.2648,-0.044 z"
       id="path24-5" />
    <path
       style="fill:#1e88e5"
       inkscape:connector-curvature="0"
       d="m 60.842,150.829 c -0.1588,0 -0.3111,0.063 -0.4237,0.175 -0.1126,0.112 -0.1763,0.264 -0.1774,0.423 -0.0085,1.363 -0.1859,3.512 -0.9314,6.728 l 0.0188,-0.063 c -2.4517,7.029 -0.5286,11.062 0.2266,12.235 0.0428,0.066 0.0982,0.124 0.1632,0.169 0.065,0.045 0.1382,0.077 0.2155,0.094 0.0773,0.016 0.1572,0.018 0.235,0.004 0.0778,-0.014 0.1521,-0.043 0.2187,-0.086 0.0665,-0.043 0.1239,-0.098 0.169,-0.163 0.0451,-0.065 0.077,-0.139 0.0938,-0.216 0.0168,-0.077 0.0182,-0.157 0.0042,-0.235 -0.0141,-0.078 -0.0433,-0.152 -0.0861,-0.219 -0.5934,-0.921 -2.4455,-4.473 -0.1038,-11.187 0.0074,-0.02 0.0137,-0.041 0.0188,-0.063 0.6976,-3.008 0.8388,-4.935 0.878,-6.394 l 1.3374,0.003 c 2.4352,2.255 4.8677,4.67 6.3252,7.219 1.4494,2.536 1.906,5.142 0.6545,8.037 l -0.0629,0.016 c -0.0808,0.015 -0.1576,0.047 -0.2257,0.093 -0.0681,0.046 -0.126,0.106 -0.1702,0.175 -0.0443,0.069 -0.0738,0.147 -0.0869,0.228 -0.013,0.081 -0.0093,0.164 0.0109,0.244 0.0203,0.08 0.0566,0.154 0.1068,0.219 0.0502,0.065 0.1132,0.119 0.1852,0.159 0.0719,0.04 0.1512,0.065 0.233,0.073 0.0818,0.008 0.1644,-0.001 0.2427,-0.026 l 0.4153,-0.104 c 0.0865,-0.023 0.1669,-0.064 0.2355,-0.121 0.0686,-0.057 0.1236,-0.129 0.161,-0.21 1.5616,-3.358 0.9602,-6.556 -0.6545,-9.38 -1.6147,-2.825 -4.2052,-5.35 -6.7153,-7.666 -0.1113,-0.103 -0.2574,-0.161 -0.4091,-0.161 z"
       id="path26-8" />
    <path
       style="fill:#1e88e5"
       inkscape:connector-curvature="0"
       d="m 70.4335,364.54 c -0.0994,0 -0.1973,0.025 -0.2848,0.072 -0.0876,0.047 -0.1621,0.115 -0.217,0.198 -0.0548,0.083 -0.0883,0.178 -0.0974,0.277 -0.0091,0.099 0.0065,0.199 0.0454,0.29 0,0 1.1497,2.876 0.8779,5.617 -0.2677,2.701 -1.2019,7.368 -0.3807,11.747 -5.3804,5.214 -6.9932,10.278 -7.115,10.678 -0.293,0.052 -0.9295,0.112 -1.8755,0.796 -1.1425,0.825 -2.3305,2.38 -2.571,5.025 l -0.0598,0.655 26.0055,0.104 0.1825,-0.224 c 0,0 0.757,-0.955 1.2493,-2.674 0.4922,-1.72 0.7503,-4.251 -0.1165,-7.496 -1.3936,-5.221 0.107,-9.63 0.107,-9.63 l 0.0032,-0.003 v -0.006 c 0,0 1.6934,-5.184 -1.8094,-9.412 -0.049,-0.065 -0.1107,-0.12 -0.1813,-0.161 -0.0707,-0.04 -0.1488,-0.066 -0.2297,-0.075 -0.0809,-0.01 -0.1629,-0.003 -0.241,0.02 -0.0781,0.023 -0.1507,0.062 -0.2134,0.114 -0.0627,0.052 -0.1141,0.116 -0.1513,0.189 -0.0371,0.072 -0.0592,0.152 -0.0648,0.233 -0.0055,0.081 0.0054,0.163 0.0323,0.24 0.0268,0.077 0.069,0.147 0.124,0.207 3.0725,3.709 1.5891,8.273 1.5891,8.273 -0.0048,0.015 -1.6197,4.734 -0.129,10.319 0.8115,3.039 0.5603,5.328 0.1228,6.857 -0.3941,1.376 -0.8257,1.896 -0.9252,2.026 l -23.9065,-0.1 c 0.3364,-1.82 1.0979,-2.935 1.8881,-3.506 0.8984,-0.649 1.7024,-0.739 1.7024,-0.739 l 0.3965,-0.048 0.1133,-0.383 c 0,0 1.531,-5.332 7.093,-10.618 l 0.2423,-0.23 -0.0693,-0.33 c -0.8709,-4.13 0.0945,-8.808 0.384,-11.728 0.3118,-3.146 -0.9567,-6.19 -0.9567,-6.19 -0.044,-0.113 -0.1215,-0.211 -0.222,-0.279 -0.1006,-0.069 -0.2196,-0.105 -0.3413,-0.105 z"
       id="path28-1" />
    <path
       style="fill:#1e88e5"
       inkscape:connector-curvature="0"
       d="m 58.9287,315.346 c -0.149,-10e-4 -0.293,0.054 -0.404,0.153 -0.1111,0.1 -0.1813,0.237 -0.1971,0.385 -2.1121,17.208 3.9495,30.887 11.7377,49.6 1.9119,4.594 1.5567,7.727 1.6867,12.009 0.0027,0.105 0.033,0.208 0.0882,0.298 0,0 0.2041,0.334 0.4909,0.668 0.1434,0.166 0.3053,0.339 0.5129,0.484 0.2076,0.146 0.5003,0.307 0.8843,0.217 0.3839,-0.089 0.6329,-0.438 0.7426,-0.777 0.1097,-0.339 0.1478,-0.744 0.1448,-1.3 -0.0062,-1.106 -0.2067,-2.816 -0.7144,-5.475 -9e-4,-0.007 -0.0022,-0.013 -0.0032,-0.019 -2.0104,-12.621 -7.2164,-29.857 -9.3335,-39.477 -0.0169,-0.077 -0.0489,-0.15 -0.0942,-0.215 -0.0452,-0.065 -0.1028,-0.121 -0.1694,-0.163 -0.0666,-0.043 -0.141,-0.072 -0.2189,-0.086 -0.0779,-0.014 -0.1577,-0.012 -0.235,0.005 -0.0773,0.017 -0.1505,0.049 -0.2154,0.094 -0.0649,0.045 -0.1202,0.103 -0.1629,0.169 -0.0427,0.067 -0.0718,0.141 -0.0857,0.219 -0.0139,0.078 -0.0124,0.158 0.0046,0.235 1.859,8.447 5.7451,22.217 8.1094,33.945 -0.1566,-0.457 -0.1198,-0.81 -0.321,-1.293 -7.7933,-18.726 -13.7216,-32.138 -11.6527,-48.993 0.0115,-0.085 0.0048,-0.172 -0.0198,-0.254 -0.0246,-0.082 -0.0664,-0.158 -0.1228,-0.223 -0.0563,-0.064 -0.1257,-0.116 -0.2037,-0.152 -0.078,-0.036 -0.1627,-0.054 -0.2485,-0.054 z m 13.8744,57.127 c 0.3742,2.101 0.6058,3.77 0.6105,4.617 0.0019,0.36 -0.0352,0.521 -0.0661,0.686 -0.0375,-0.038 -0.0666,-0.058 -0.1039,-0.101 -0.1639,-0.191 -0.2428,-0.321 -0.2958,-0.403 -0.0453,-1.673 -0.0574,-3.224 -0.1447,-4.799 z"
       id="path30-9" />
    <path
       style="fill:#1e88e5"
       inkscape:connector-curvature="0"
       d="M 90.3938,0.00150151 C 83.3784,0.246601 78.9694,2.80064 76.3495,5.3165 c -2.5756,2.47329 -3.4294,4.8954 -3.4584,4.9783 -0.0106,0.0208 -0.663,1.3037 -1.0762,3.9367 -0.4166,2.6542 -0.6069,6.7017 0.258,12.3419 0.6463,6.5081 2.2342,11.0169 3.6787,13.9027 1.352,2.7011 2.4488,3.7622 2.6087,3.9241 l 0.1951,11.1083 c -0.2949,0.1858 -6.7379,4.2474 -12.5842,7.8262 -6.1467,0.3707 -10.4628,1.4489 -13.2293,2.4608 -2.7968,1.023 -4.0877,2.0045 -4.0877,2.0045 -0.0786,0.0608 -0.141,0.14 -0.1816,0.2307 -0.0405,0.0907 -0.058,0.19 -0.0509,0.2891 0.0072,0.0991 0.0388,0.1949 0.092,0.2788 0.0532,0.0839 0.1263,0.1534 0.2129,0.2021 0,0 24.0278,13.6443 27.025,35.5463 3.0741,22.465 14.4943,33.86 14.4943,33.86 0.1123,0.112 0.2641,0.175 0.4226,0.176 0.1585,0 0.3108,-0.061 0.4239,-0.172 0,0 11.5806,-11.396 14.6546,-33.864 2.997,-21.902 27.025,-35.5462 27.025,-35.5462 0.087,-0.0491 0.159,-0.1187 0.212,-0.2028 0.053,-0.084 0.085,-0.1799 0.091,-0.279 0.007,-0.099 -0.011,-0.1983 -0.051,-0.2888 -0.041,-0.0906 -0.104,-0.1696 -0.183,-0.2301 0,0 -1.287,-0.9815 -4.084,-2.0045 -2.767,-1.0119 -7.083,-2.0902 -13.229,-2.4609 -5.846,-3.5781 -12.287,-7.6389 -12.585,-7.8261 l 0.192,-11.1021 c 0.157,-0.1587 1.255,-1.2253 2.609,-3.9304 1.447,-2.8901 3.041,-7.4036 3.685,-13.9278 0.86,-5.6249 0.671,-9.6671 0.255,-12.3167 -0.415,-2.6439 -1.081,-3.9423 -1.086,-3.9525 -0.038,-0.1077 -0.887,-2.50241 -3.449,-4.96253 -2.62,-2.51586 -7.0286,-5.069905 -14.044,-5.31500395 -0.0073,-1.3494e-4 -0.0147,-1.3494e-4 -0.022,0 h -0.6672 c -0.0073,-1.3494e-4 -0.0147,-1.3494e-4 -0.0221,0 z M 90.4347,1.20359 h 0.6263 c 6.7433,0.2356 10.824,2.64781 13.254,4.98144 2.431,2.33364 3.179,4.55037 3.179,4.55037 0.009,0.0291 0.021,0.0575 0.034,0.0849 0,0 0.57,1.072 0.966,3.5968 0.397,2.5248 0.59,6.4482 -0.258,11.9769 -0.001,0.0105 -0.002,0.0209 -0.003,0.0315 -0.63,6.389 -2.184,10.753 -3.565,13.5125 -1.381,2.7594 -2.549,3.8737 -2.549,3.8737 -0.114,0.1109 -0.18,0.2625 -0.183,0.4217 l -0.204,11.5961 c -0.002,0.1033 0.023,0.2053 0.072,0.2963 0.049,0.0909 0.121,0.1677 0.208,0.2229 0,0 6.968,4.392 12.993,8.0779 0.085,0.0521 0.181,0.0823 0.28,0.0881 6.147,0.3525 10.376,1.4331 13.056,2.4137 2.081,0.7609 2.526,1.1496 2.924,1.416 -2.574,1.5114 -23.789,14.4922 -26.71,35.8396 -2.85,20.821 -12.6972,31.461 -13.8812,32.683 C 89.5021,135.64 79.7931,125.003 76.9442,104.184 74.0231,82.8366 52.8077,69.8558 50.2339,68.3444 c 0.3984,-0.2669 0.8416,-0.6557 2.9203,-1.416 2.6807,-0.9806 6.9129,-2.0612 13.0593,-2.4137 0.0981,-0.0063 0.1932,-0.0365 0.2769,-0.0881 6.0248,-3.6859 12.9933,-8.0779 12.9933,-8.0779 0.0879,-0.0548 0.1602,-0.1315 0.2098,-0.2224 0.0496,-0.091 0.0749,-0.1932 0.0734,-0.2968 L 79.5624,44.2334 c -0.0017,-0.079 -0.019,-0.157 -0.0509,-0.2293 -0.0318,-0.0724 -0.0776,-0.1377 -0.1348,-0.1924 0,0 -1.1677,-1.1143 -2.5489,-3.8737 -1.3812,-2.7595 -2.9321,-7.1235 -3.5622,-13.5125 -8e-4,-0.0106 -0.0019,-0.021 -0.0032,-0.0315 -0.8479,-5.5287 -0.6543,-9.4521 -0.2581,-11.9769 0.3963,-2.5248 0.9661,-3.5968 0.9661,-3.5968 0.0137,-0.0274 0.0252,-0.0558 0.0346,-0.0849 0,0 0.7481,-2.21673 3.1783,-4.55037 C 79.6135,3.8514 83.6912,1.43919 90.4346,1.2036 Z"
       id="path32-8" />
    <path
       style="fill:#1e88e5"
       inkscape:connector-curvature="0"
       d="m 49.0256,67.6709 c -0.1149,-1e-4 -0.2273,0.0327 -0.3242,0.0944 -7.3101,4.5843 -10.4523,10.1135 -11.788,15.9419 -1.3357,5.8283 -0.9231,11.9409 -1.2745,17.8838 -0.4757,8.045 -0.4509,15.058 -0.3052,31.084 -0.1405,0.26 -7.0121,13.015 -6.9703,28.054 0.0099,6.07 -0.0446,13.628 -0.2454,20.02 -0.1004,3.196 -0.2363,6.104 -0.4185,8.377 -0.1822,2.274 -0.4528,3.977 -0.6609,4.497 -1.0315,2.577 -1.6841,5.864 -2.2091,8.761 -0.2624,1.448 -0.4914,2.801 -0.7111,3.902 -0.2197,1.101 -0.4489,1.971 -0.6294,2.354 -0.4195,0.889 -0.2181,1.907 0.1699,2.92 0.388,1.012 1.0018,2.058 1.649,3.015 1.2943,1.914 2.7346,3.486 2.7346,3.486 l 0.0125,0.016 0.0158,0.013 c 1.1815,1.121 2.2825,1.736 3.2696,1.942 0.9871,0.206 1.8925,-0.027 2.4545,-0.62 0.562,-0.593 0.7349,-1.477 0.5161,-2.36 -0.2188,-0.883 -0.8129,-1.793 -1.8031,-2.596 l 0.0975,0.103 c -0.9842,-1.282 -1.7263,-1.912 -1.9447,-2.47 -0.1093,-0.279 -0.1451,-0.569 -0.0409,-1.07 0.1041,-0.501 0.3635,-1.192 0.8244,-2.146 0.9291,-1.923 1.6862,-3.023 2.2469,-3.465 0.2803,-0.22 0.4834,-0.285 0.6923,-0.289 0.2088,-0.005 0.4571,0.066 0.7772,0.249 0.133,0.075 0.4024,0.449 0.5853,1.038 0.183,0.589 0.3064,1.349 0.384,2.086 0.1551,1.475 0.129,2.858 0.129,2.858 v 0.006 0.01 c 0,0 -0.0114,0.949 0.3902,1.866 0.2009,0.458 0.5205,0.937 1.0448,1.24 0.5242,0.302 1.2217,0.38 2.0013,0.157 l 0.2707,-0.079 0.1132,-0.255 c 1.4311,-3.205 1.9131,-6.233 1.3784,-9.245 -0.5218,-2.938 -2.0288,-5.843 -4.4245,-8.921 -0.0536,-3.626 1.2604,-5.763 1.7433,-6.483 l 0.0126,-0.019 0.0126,-0.022 c 10.0315,-17.788 12.7584,-29.086 13.7768,-38.951 0.9623,-9.322 0.5285,-17.399 3.2255,-28.485 0.1044,0.418 0.1867,0.668 0.3053,1.218 0.4957,2.298 1.0988,5.638 1.6867,9.248 1.1758,7.219 2.2995,15.568 2.4451,18.824 0.0015,0.081 0.0191,0.16 0.0517,0.233 0.0326,0.074 0.0796,0.14 0.1381,0.195 0.0586,0.055 0.1276,0.098 0.2029,0.125 0.0753,0.028 0.1555,0.041 0.2358,0.037 0.0802,-0.003 0.1589,-0.023 0.2315,-0.057 0.0725,-0.035 0.1374,-0.083 0.1909,-0.143 0.0535,-0.06 0.0944,-0.13 0.1203,-0.206 0.026,-0.076 0.0365,-0.157 0.0309,-0.237 -0.1537,-3.437 -1.2811,-11.722 -2.4609,-18.966 -0.5899,-3.622 -1.192,-6.971 -1.6961,-9.308 -0.252,-1.169 -0.476,-2.076 -0.6766,-2.675 -0.1003,-0.3 -0.1572,-0.501 -0.3461,-0.737 -0.0473,-0.058 -0.1045,-0.126 -0.2172,-0.191 -0.1126,-0.066 -0.3119,-0.117 -0.4972,-0.07 -0.3704,0.095 -0.4448,0.344 -0.494,0.479 l -0.0095,0.025 -0.0063,0.025 c -3.3174,12.306 -2.6541,20.802 -3.6598,30.543 -1.0056,9.741 -3.6552,20.803 -13.6258,38.483 l 0.0252,-0.038 c -0.5323,0.793 -2.0714,3.276 -1.9668,7.313 l 0.0063,0.202 0.1227,0.157 c 2.4243,3.065 3.8439,5.857 4.3332,8.613 0.47,2.647 0.0471,5.298 -1.1863,8.197 -0.3191,0.038 -0.6258,0.065 -0.793,-0.031 -0.2256,-0.13 -0.4094,-0.372 -0.5444,-0.68 -0.2701,-0.616 -0.2895,-1.387 -0.2895,-1.387 3e-4,-0.015 0.0319,-1.434 -0.1322,-2.993 -0.0825,-0.784 -0.2122,-1.601 -0.4343,-2.316 -0.222,-0.715 -0.509,-1.373 -1.136,-1.731 -0.4398,-0.251 -0.907,-0.413 -1.4003,-0.403 -0.4933,0.01 -0.9798,0.207 -1.4129,0.548 -0.8663,0.682 -1.6288,1.9 -2.5867,3.883 -0.4826,0.999 -0.7778,1.765 -0.9158,2.429 -0.1379,0.664 -0.0996,1.247 0.0976,1.75 0.3944,1.007 1.2064,1.583 2.1115,2.763 l 0.0441,0.057 0.0534,0.044 c 0.8275,0.671 1.2491,1.378 1.3909,1.951 0.1419,0.572 0.0207,0.988 -0.2202,1.243 -0.2409,0.254 -0.6486,0.413 -1.3343,0.27 -0.6842,-0.142 -1.6133,-0.624 -2.6779,-1.633 -0.0232,-0.025 -1.3792,-1.514 -2.6025,-3.323 -0.6168,-0.912 -1.1897,-1.899 -1.523,-2.769 -0.3334,-0.87 -0.3895,-1.584 -0.2046,-1.976 0.2917,-0.619 0.4954,-1.505 0.7206,-2.634 0.2252,-1.129 0.4534,-2.478 0.7144,-3.918 0.5219,-2.88 1.1785,-6.118 2.143,-8.528 0.3652,-0.912 0.5577,-2.545 0.7426,-4.852 0.1849,-2.307 0.3209,-5.226 0.4217,-8.434 0.2015,-6.415 0.2585,-13.982 0.2486,-20.061 -0.0412,-14.815 6.8947,-27.645 6.8947,-27.645 l 0.0755,-0.138 -0.0032,-0.154 c -0.1472,-16.16 -0.1729,-23.092 0.3021,-31.126 0.3574,-6.0436 -0.0329,-12.0933 1.2493,-17.6882 1.2822,-5.5949 4.1768,-10.7521 11.2531,-15.1897 0.1113,-0.0688 0.1973,-0.1719 0.2447,-0.2938 0.0475,-0.122 0.0539,-0.2561 0.0184,-0.382 -0.0356,-0.1259 -0.1113,-0.2368 -0.2155,-0.3159 -0.1043,-0.0791 -0.2314,-0.122 -0.3623,-0.1223 z"
       id="path34-3" />
    <path
       style="fill:#1e88e5"
       inkscape:connector-curvature="0"
       d="m 71.3744,25.7048 c -0.6635,-0.0479 -1.5216,0.007 -2.2972,0.4249 -0.7757,0.4178 -1.4097,1.2817 -1.4979,2.5552 -0.0882,1.2735 0.2834,2.9577 1.3342,5.315 l 0.0189,0.0378 0.0189,0.0346 c 0,0 1.9318,3.1077 6.4573,6.2496 0.0647,0.0484 0.1386,0.0834 0.2171,0.1027 0.0785,0.0193 0.1601,0.0226 0.2399,0.0096 0.0798,-0.0129 0.1562,-0.0418 0.2246,-0.0849 0.0684,-0.0431 0.1274,-0.0995 0.1735,-0.1659 0.0461,-0.0664 0.0784,-0.1415 0.0949,-0.2206 0.0164,-0.0792 0.0168,-0.1608 0.001,-0.2401 -0.0158,-0.0793 -0.0474,-0.1546 -0.0929,-0.2215 -0.0455,-0.0668 -0.1041,-0.1237 -0.1721,-0.1674 -4.3124,-2.9939 -6.0551,-5.8046 -6.0891,-5.8594 -0.9864,-2.2266 -1.2929,-3.7571 -1.2273,-4.7045 0.0662,-0.955 0.4102,-1.3328 0.8686,-1.5797 0.9167,-0.4939 2.5363,-0.1259 2.5363,-0.1259 0.0763,0.0213 0.1559,0.0273 0.2345,0.0178 0.0786,-0.0095 0.1546,-0.0344 0.2236,-0.0732 0.0689,-0.0389 0.1296,-0.091 0.1784,-0.1533 0.0489,-0.0623 0.085,-0.1336 0.1062,-0.2098 0.0213,-0.0763 0.0274,-0.156 0.0179,-0.2346 -0.0096,-0.0786 -0.0345,-0.1545 -0.0733,-0.2235 -0.0389,-0.0689 -0.091,-0.1296 -0.1533,-0.1784 -0.0623,-0.0489 -0.1336,-0.0849 -0.2099,-0.1062 0,0 -0.4694,-0.1503 -1.1328,-0.1983 z"
       id="path36-8" />
    <path
       style="fill:#1e88e5"
       inkscape:connector-curvature="0"
       d="m 61.1471,76.9763 c -0.1588,0.0043 -0.3094,0.0712 -0.4191,0.1862 -0.1096,0.1149 -0.1693,0.2686 -0.1662,0.4274 0,0 0.0413,5.2283 -2.9486,11.0674 -2.9899,5.8391 -8.9597,12.2557 -21.2065,14.6077 -0.0813,0.011 -0.1595,0.038 -0.2299,0.08 -0.0704,0.042 -0.1314,0.098 -0.1794,0.164 -0.048,0.067 -0.0818,0.143 -0.0995,0.223 -0.0177,0.08 -0.0189,0.163 -0.0034,0.243 0.0154,0.081 0.0472,0.157 0.0933,0.225 0.0461,0.068 0.1055,0.125 0.1747,0.169 0.0692,0.044 0.1466,0.074 0.2276,0.087 0.081,0.013 0.1637,0.009 0.2432,-0.011 12.5765,-2.415 18.9274,-9.1328 22.053,-15.237 3.1256,-6.1042 3.0776,-11.6275 3.0776,-11.6275 4e-4,-0.0806 -0.0155,-0.1603 -0.0465,-0.2346 -0.031,-0.0743 -0.0766,-0.1416 -0.1342,-0.1979 -0.0575,-0.0564 -0.1257,-0.1006 -0.2006,-0.1301 -0.0749,-0.0295 -0.155,-0.0436 -0.2355,-0.0416 z"
       id="path38-0" />
    <path
       style="fill:#1e88e5"
       inkscape:connector-curvature="0"
       d="m 56.7132,103.066 c -0.0892,0.002 -0.1769,0.023 -0.2569,0.062 -0.08,0.04 -0.1502,0.096 -0.2056,0.166 -0.0555,0.07 -0.0947,0.151 -0.1148,0.238 -0.0201,0.087 -0.0207,0.177 -0.0017,0.265 1.7901,8.787 -0.8717,15.4 -0.8717,15.4 -0.0295,0.074 -0.0444,0.152 -0.0436,0.231 8e-4,0.079 0.0171,0.157 0.0481,0.23 0.0309,0.073 0.0759,0.139 0.1324,0.194 0.0565,0.056 0.1233,0.099 0.1966,0.129 0.0734,0.029 0.1519,0.044 0.231,0.043 0.079,0 0.1572,-0.017 0.23,-0.048 0.0727,-0.031 0.1387,-0.076 0.194,-0.132 0.0554,-0.057 0.0991,-0.123 0.1286,-0.197 0,0 2.7953,-6.956 0.9346,-16.09 -0.0261,-0.139 -0.1008,-0.265 -0.2108,-0.355 -0.11,-0.09 -0.2482,-0.138 -0.3902,-0.136 z"
       id="path40-3" />
    <path
       style="fill:#1e88e5"
       inkscape:connector-curvature="0"
       d="m 52.5783,95.854 c -0.0939,0.0051 -0.1854,0.0323 -0.267,0.0792 -0.0816,0.0469 -0.1511,0.1124 -0.2028,0.191 -0.0517,0.0787 -0.0843,0.1684 -0.095,0.2619 -0.0108,0.0935 5e-4,0.1883 0.033,0.2766 0,0 1.6406,4.6733 5.658,8.9243 4.0174,4.252 10.5061,8.107 19.9761,6.429 0.0779,-0.014 0.1523,-0.043 0.219,-0.085 0.0667,-0.043 0.1243,-0.098 0.1696,-0.163 0.0453,-0.065 0.0774,-0.138 0.0944,-0.215 0.017,-0.078 0.0186,-0.158 0.0048,-0.235 -0.0138,-0.078 -0.0429,-0.153 -0.0855,-0.219 -0.0426,-0.067 -0.0979,-0.125 -0.1628,-0.17 -0.0649,-0.045 -0.138,-0.077 -0.2153,-0.094 -0.0772,-0.017 -0.1571,-0.019 -0.235,-0.005 -9.0696,1.607 -15.0628,-2.02 -18.8904,-6.07 -3.8277,-4.051 -5.3969,-8.4969 -5.3969,-8.4969 -0.042,-0.125 -0.1238,-0.2327 -0.233,-0.3066 C 52.8404,95.8826 52.71,95.8466 52.5783,95.854 Z"
       id="path42-5" />
    <path
       style="fill:#1e88e5"
       inkscape:connector-curvature="0"
       d="m 88.8865,135.334 c -0.0977,0.003 -0.1932,0.03 -0.2782,0.078 -0.0849,0.049 -0.1569,0.117 -0.2096,0.199 -7.3906,11.25 -19.5607,21.185 -19.5607,21.185 -0.0624,0.049 -0.1143,0.111 -0.1528,0.18 -0.0384,0.07 -0.0627,0.146 -0.0714,0.226 -0.0087,0.079 -0.0016,0.159 0.0209,0.235 0.0225,0.076 0.0599,0.148 0.11,0.209 0.0502,0.062 0.1121,0.113 0.1822,0.151 0.0701,0.038 0.1469,0.061 0.2261,0.069 0.0792,0.008 0.1592,0 0.2353,-0.023 0.0761,-0.024 0.1468,-0.062 0.2081,-0.113 0,0 12.265,-9.974 19.8093,-21.458 0.0619,-0.092 0.0973,-0.199 0.1021,-0.31 0.0048,-0.111 -0.021,-0.221 -0.0747,-0.318 -0.0538,-0.097 -0.1332,-0.177 -0.2297,-0.232 -0.0964,-0.054 -0.2061,-0.081 -0.3169,-0.078 z"
       id="path44-4" />
    <path
       style="fill:#1e88e5"
       inkscape:connector-curvature="0"
       d="m 55.5742,119.537 c -0.1562,0.014 -0.3008,0.088 -0.4028,0.208 -3.3289,3.731 -4.3473,5.808 -4.8997,7.454 -0.5523,1.646 -0.6119,2.686 -2.1776,4.768 -2.5815,3.432 -4.8748,4.352 -6.8003,4.103 -1.9255,-0.248 -3.6461,-1.755 -4.8555,-3.606 -0.0416,-0.07 -0.0969,-0.13 -0.1624,-0.178 -0.0655,-0.047 -0.14,-0.081 -0.2189,-0.099 -0.079,-0.019 -0.1608,-0.021 -0.2406,-0.007 -0.0798,0.015 -0.1559,0.045 -0.2237,0.089 -0.0679,0.044 -0.1261,0.102 -0.1711,0.169 -0.0451,0.068 -0.0761,0.143 -0.0912,0.223 -0.015,0.08 -0.0139,0.162 0.0035,0.241 0.0173,0.079 0.0504,0.154 0.0974,0.22 1.3289,2.033 3.2753,3.827 5.7083,4.141 2.433,0.314 5.1869,-0.942 7.9175,-4.572 1.6783,-2.232 1.8465,-3.587 2.3569,-5.108 0.5104,-1.521 1.3903,-3.38 4.6542,-7.039 0.0821,-0.089 0.1352,-0.201 0.1526,-0.321 0.0173,-0.12 -0.0019,-0.243 -0.0553,-0.352 -0.0534,-0.108 -0.1385,-0.199 -0.244,-0.258 -0.1055,-0.06 -0.2266,-0.086 -0.3473,-0.076 z"
       id="path46-7" />
    <path
       style="fill:#1e88e5"
       inkscape:connector-curvature="0"
       d="m 132.454,67.6709 c -0.129,0.0036 -0.254,0.0489 -0.356,0.1292 -0.101,0.0803 -0.175,0.1913 -0.208,0.3164 -0.034,0.1252 -0.026,0.2578 0.022,0.3782 0.048,0.1205 0.133,0.2222 0.243,0.2902 7.077,4.4376 9.974,9.5949 11.257,15.1898 1.282,5.5949 0.888,11.6445 1.246,17.6883 0.475,8.034 0.452,14.966 0.305,31.125 l -0.003,0.155 0.075,0.138 c 0,0 6.936,12.829 6.895,27.645 -0.01,6.079 0.047,13.646 0.249,20.061 0.1,3.207 0.236,6.126 0.421,8.433 0.185,2.307 0.375,3.94 0.74,4.853 0.964,2.41 1.621,5.648 2.143,8.528 0.261,1.44 0.492,2.789 0.717,3.918 0.226,1.128 0.429,2.015 0.721,2.634 0.185,0.391 0.129,1.106 -0.205,1.976 -0.333,0.87 -0.906,1.857 -1.523,2.769 -1.223,1.809 -2.579,3.298 -2.602,3.323 -1.065,1.008 -1.997,1.49 -2.681,1.633 -0.686,0.143 -1.09,-0.016 -1.331,-0.27 -0.241,-0.255 -0.366,-0.671 -0.224,-1.243 0.142,-0.573 0.567,-1.28 1.394,-1.951 l 0.054,-0.044 0.044,-0.057 c 0.905,-1.18 1.717,-1.756 2.111,-2.763 0.198,-0.504 0.236,-1.086 0.098,-1.75 -0.138,-0.664 -0.436,-1.43 -0.919,-2.429 -0.958,-1.983 -1.72,-3.201 -2.587,-3.883 -0.433,-0.341 -0.916,-0.538 -1.409,-0.548 -0.494,-0.009 -0.961,0.152 -1.401,0.403 -0.627,0.358 -0.914,1.016 -1.136,1.731 -0.222,0.714 -0.352,1.532 -0.434,2.316 -0.164,1.559 -0.132,2.977 -0.132,2.992 0,0 -0.019,0.772 -0.29,1.388 -0.135,0.308 -0.318,0.55 -0.544,0.68 -0.167,0.096 -0.474,0.069 -0.793,0.031 -1.233,-2.899 -1.656,-5.55 -1.186,-8.197 0.489,-2.756 1.909,-5.548 4.333,-8.613 l 0.123,-0.157 0.006,-0.202 c 0.105,-4.038 -1.434,-6.52 -1.967,-7.313 l 0.025,0.038 c -9.97,-17.68 -12.623,-28.742 -13.629,-38.483 -1.005,-9.741 -0.339,-18.237 -3.656,-30.543 l -0.007,-0.025 -0.009,-0.026 c -0.05,-0.134 -0.124,-0.384 -0.494,-0.478 -0.186,-0.047 -0.385,0.004 -0.498,0.069 -0.112,0.065 -0.169,0.133 -0.217,0.192 -0.189,0.236 -0.245,0.437 -0.346,0.737 -0.2,0.599 -0.424,1.506 -0.676,2.674 -0.504,2.337 -1.11,5.687 -1.7,9.309 -1.179,7.244 -2.304,15.529 -2.457,18.966 -0.006,0.08 0.005,0.16 0.03,0.236 0.026,0.076 0.067,0.146 0.121,0.206 0.053,0.06 0.118,0.109 0.191,0.144 0.072,0.034 0.151,0.054 0.231,0.057 0.081,0.004 0.161,-0.009 0.236,-0.037 0.075,-0.028 0.144,-0.07 0.203,-0.125 0.059,-0.055 0.105,-0.121 0.138,-0.195 0.033,-0.073 0.05,-0.152 0.052,-0.233 0.145,-3.257 1.269,-11.605 2.445,-18.824 0.588,-3.61 1.188,-6.95 1.683,-9.249 0.119,-0.548 0.201,-0.797 0.306,-1.214 2.696,11.085 2.266,19.161 3.228,28.482 1.019,9.865 3.746,21.163 13.777,38.951 l 0.01,0.022 0.016,0.019 c 0.483,0.72 1.795,2.857 1.74,6.486 -2.394,3.076 -3.903,5.981 -4.424,8.918 -0.535,3.012 -0.053,6.04 1.378,9.245 l 0.116,0.255 0.271,0.076 c 0.78,0.222 1.477,0.148 2.001,-0.154 0.525,-0.303 0.844,-0.782 1.045,-1.24 0.402,-0.917 0.39,-1.866 0.39,-1.866 v -0.01 -0.007 c 0,0 -0.029,-1.382 0.126,-2.857 0.078,-0.737 0.204,-1.497 0.387,-2.086 0.183,-0.589 0.453,-0.963 0.586,-1.039 0.32,-0.182 0.568,-0.253 0.777,-0.248 0.209,0.005 0.412,0.069 0.692,0.289 0.561,0.442 1.318,1.542 2.247,3.465 0.461,0.954 0.717,1.645 0.821,2.146 0.104,0.501 0.072,0.791 -0.037,1.07 -0.219,0.558 -0.964,1.187 -1.948,2.47 l 0.1,-0.104 c -0.99,0.804 -1.584,1.713 -1.803,2.597 -0.218,0.883 -0.046,1.767 0.516,2.36 0.562,0.593 1.468,0.826 2.455,0.62 0.987,-0.206 2.085,-0.821 3.266,-1.942 l 0.016,-0.013 0.017,-0.016 c 0,0 1.44,-1.573 2.734,-3.487 0.647,-0.957 1.261,-2.002 1.649,-3.014 0.388,-1.013 0.586,-2.032 0.167,-2.921 -0.181,-0.382 -0.407,-1.252 -0.626,-2.353 -0.22,-1.102 -0.449,-2.454 -0.711,-3.902 -0.525,-2.897 -1.178,-6.184 -2.21,-8.761 -0.208,-0.52 -0.478,-2.224 -0.66,-4.497 -0.183,-2.274 -0.319,-5.181 -0.419,-8.377 -0.201,-6.392 -0.255,-13.95 -0.245,-20.02 0.041,-15.039 -6.83,-27.794 -6.971,-28.054 0.146,-16.026 0.171,-23.039 -0.305,-31.085 -0.351,-5.9421 0.058,-12.0546 -1.277,-17.883 -1.336,-5.8284 -4.475,-11.3576 -11.785,-15.9419 -0.103,-0.0653 -0.222,-0.0982 -0.343,-0.0944 z"
       id="path48-4" />
    <path
       style="fill:#1e88e5"
       inkscape:connector-curvature="0"
       d="m 110.125,25.7048 c -0.664,0.048 -1.133,0.1983 -1.133,0.1983 -0.077,0.0213 -0.148,0.0573 -0.21,0.1062 -0.063,0.0488 -0.115,0.1095 -0.153,0.1784 -0.039,0.069 -0.064,0.1449 -0.074,0.2235 -0.009,0.0786 -0.003,0.1583 0.018,0.2346 0.021,0.0762 0.057,0.1475 0.106,0.2098 0.049,0.0623 0.11,0.1144 0.179,0.1532 0.069,0.0389 0.145,0.0638 0.223,0.0733 0.079,0.0095 0.159,0.0035 0.235,-0.0178 0,0 1.619,-0.368 2.536,0.1258 0.459,0.247 0.799,0.6248 0.865,1.5798 0.066,0.9474 -0.237,2.4779 -1.224,4.7045 -0.034,0.0548 -1.776,2.8655 -6.089,5.8594 -0.068,0.0437 -0.126,0.1006 -0.172,0.1674 -0.045,0.0669 -0.077,0.1422 -0.093,0.2215 -0.016,0.0793 -0.015,0.1609 0.001,0.2401 0.017,0.0791 0.049,0.1542 0.095,0.2206 0.046,0.0664 0.105,0.1228 0.174,0.1659 0.068,0.0431 0.144,0.072 0.224,0.0849 0.08,0.013 0.162,0.0097 0.24,-0.0096 0.079,-0.0193 0.153,-0.0543 0.217,-0.1027 4.526,-3.1419 6.454,-6.2496 6.454,-6.2496 l 0.022,-0.0346 0.017,-0.0378 c 1.05,-2.3573 1.425,-4.0415 1.337,-5.315 -0.088,-1.2735 -0.722,-2.1374 -1.498,-2.5552 -0.776,-0.4179 -1.634,-0.4728 -2.297,-0.4249 z"
       id="path50-3" />
    <path
       style="fill:#1e88e5"
       inkscape:connector-curvature="0"
       d="m 120.333,76.9761 c -0.16,10e-4 -0.312,0.0652 -0.424,0.1785 -0.112,0.1132 -0.175,0.2663 -0.174,0.4257 0,0 -0.048,5.5234 3.078,11.6275 3.125,6.1042 9.476,12.8222 22.053,15.2372 0.079,0.02 0.162,0.024 0.243,0.011 0.081,-0.013 0.158,-0.043 0.227,-0.087 0.07,-0.044 0.129,-0.101 0.175,-0.169 0.046,-0.068 0.078,-0.145 0.093,-0.225 0.016,-0.081 0.015,-0.163 -0.003,-0.244 -0.018,-0.08 -0.052,-0.155 -0.1,-0.222 -0.048,-0.066 -0.109,-0.122 -0.179,-0.164 -0.07,-0.042 -0.149,-0.07 -0.23,-0.08 -12.247,-2.352 -18.22,-8.7688 -21.21,-14.6079 -2.989,-5.839 -2.945,-11.0674 -2.945,-11.0674 0.002,-0.0802 -0.013,-0.1599 -0.043,-0.2345 -0.029,-0.0745 -0.074,-0.1424 -0.13,-0.1995 -0.056,-0.0572 -0.123,-0.1025 -0.197,-0.1334 -0.074,-0.0308 -0.154,-0.0466 -0.234,-0.0462 z"
       id="path52-7" />
    <path
       style="fill:#1e88e5"
       inkscape:connector-curvature="0"
       d="m 124.767,103.066 c -0.139,0.003 -0.273,0.053 -0.379,0.142 -0.106,0.09 -0.178,0.213 -0.204,0.349 -1.86,9.134 0.935,16.09 0.935,16.09 0.03,0.073 0.073,0.14 0.129,0.197 0.055,0.056 0.121,0.101 0.194,0.132 0.073,0.031 0.151,0.048 0.23,0.048 0.079,0.001 0.157,-0.014 0.231,-0.043 0.073,-0.03 0.14,-0.074 0.196,-0.129 0.057,-0.055 0.102,-0.121 0.133,-0.194 0.031,-0.073 0.047,-0.151 0.048,-0.23 0.001,-0.079 -0.014,-0.158 -0.044,-0.231 0,0 -2.665,-6.613 -0.875,-15.4 0.02,-0.089 0.019,-0.181 -0.002,-0.269 -0.021,-0.088 -0.062,-0.17 -0.119,-0.24 -0.057,-0.07 -0.129,-0.126 -0.211,-0.165 -0.082,-0.038 -0.172,-0.058 -0.262,-0.057 z"
       id="path54-3" />
    <path
       style="fill:#1e88e5"
       inkscape:connector-curvature="0"
       d="m 128.898,95.8512 c -0.128,-0.0024 -0.254,0.0364 -0.358,0.1105 -0.105,0.0742 -0.183,0.1799 -0.224,0.3017 0,0 -1.569,4.4456 -5.397,8.4966 -3.827,4.05 -9.82,7.677 -18.89,6.07 -0.078,-0.014 -0.158,-0.012 -0.235,0.005 -0.077,0.017 -0.15,0.049 -0.215,0.094 -0.065,0.046 -0.12,0.103 -0.163,0.17 -0.043,0.067 -0.072,0.141 -0.086,0.219 -0.013,0.078 -0.012,0.158 0.005,0.235 0.017,0.077 0.049,0.15 0.095,0.215 0.045,0.065 0.103,0.12 0.169,0.163 0.067,0.043 0.141,0.072 0.219,0.085 9.47,1.679 15.959,-2.177 19.976,-6.429 4.018,-4.251 5.658,-8.9239 5.658,-8.9239 0.034,-0.0903 0.045,-0.1872 0.034,-0.2828 -0.012,-0.0956 -0.046,-0.187 -0.1,-0.2665 -0.055,-0.0796 -0.127,-0.1449 -0.212,-0.1906 -0.085,-0.0457 -0.179,-0.0704 -0.276,-0.072 z"
       id="path56-3" />
    <path
       style="fill:#1e88e5"
       inkscape:connector-curvature="0"
       d="m 92.5934,135.334 c -0.1092,0 -0.2164,0.03 -0.3101,0.086 -0.0937,0.056 -0.1704,0.137 -0.2218,0.233 -0.0515,0.096 -0.0757,0.205 -0.0701,0.314 0.0056,0.109 0.0407,0.215 0.1017,0.305 7.5479,11.49 19.9819,21.317 19.9819,21.317 0.062,0.049 0.134,0.086 0.21,0.107 0.076,0.022 0.155,0.028 0.234,0.019 0.079,-0.009 0.155,-0.033 0.224,-0.072 0.069,-0.038 0.13,-0.09 0.179,-0.152 0.049,-0.062 0.086,-0.133 0.107,-0.209 0.022,-0.076 0.029,-0.156 0.02,-0.234 -0.01,-0.079 -0.034,-0.155 -0.072,-0.224 -0.039,-0.069 -0.091,-0.13 -0.153,-0.179 0,0 -12.337,-9.789 -19.7239,-21.034 -0.0545,-0.085 -0.1294,-0.154 -0.218,-0.203 -0.0885,-0.048 -0.1878,-0.074 -0.2887,-0.074 z"
       id="path58-7" />
    <path
       style="fill:#1e88e5"
       inkscape:connector-curvature="0"
       d="m 125.846,119.537 c -0.114,0.005 -0.225,0.043 -0.319,0.108 -0.094,0.066 -0.167,0.157 -0.211,0.262 -0.044,0.106 -0.056,0.222 -0.037,0.335 0.02,0.113 0.071,0.218 0.149,0.302 3.264,3.659 4.146,5.519 4.657,7.04 0.51,1.521 0.678,2.876 2.357,5.107 2.73,3.63 5.484,4.886 7.917,4.572 2.433,-0.314 4.38,-2.107 5.709,-4.141 0.047,-0.066 0.08,-0.141 0.097,-0.22 0.017,-0.079 0.019,-0.161 0.003,-0.241 -0.015,-0.079 -0.046,-0.155 -0.091,-0.222 -0.045,-0.068 -0.103,-0.125 -0.171,-0.17 -0.068,-0.044 -0.144,-0.074 -0.223,-0.088 -0.08,-0.014 -0.162,-0.012 -0.241,0.006 -0.079,0.018 -0.153,0.052 -0.219,0.1 -0.066,0.047 -0.121,0.108 -0.162,0.177 -1.21,1.851 -2.93,3.358 -4.856,3.607 -1.925,0.248 -4.222,-0.672 -6.803,-4.104 -1.566,-2.081 -1.622,-3.121 -2.175,-4.767 -0.552,-1.646 -1.571,-3.724 -4.899,-7.455 -0.06,-0.069 -0.134,-0.123 -0.217,-0.159 -0.084,-0.036 -0.174,-0.053 -0.265,-0.049 z"
       id="path60-0" />
    <path
       style="fill:#1e88e3"
       inkscape:connector-curvature="0"
       d="m 90.6172,63.8254 c -0.1058,0.0095 -0.2073,0.0467 -0.2941,0.1081 -0.0868,0.0614 -0.1558,0.1446 -0.1999,0.2412 0,0 -6.3256,13.7707 -22.6793,20.0139 -0.0775,0.0252 -0.1492,0.0659 -0.2105,0.1197 -0.0614,0.0537 -0.1112,0.1193 -0.1464,0.1929 -0.0352,0.0736 -0.0551,0.1535 -0.0584,0.235 -0.0034,0.0815 0.0099,0.1628 0.0389,0.239 0.029,0.0763 0.0733,0.1458 0.13,0.2044 0.0567,0.0586 0.1248,0.105 0.2,0.1365 0.0752,0.0315 0.1561,0.0474 0.2376,0.0467 0.0816,-7e-4 0.1621,-0.018 0.2368,-0.0508 15.1003,-5.7647 21.5955,-17.2976 22.824,-19.6897 1.2285,2.3921 7.7236,13.925 22.8241,19.6897 0.075,0.0328 0.155,0.0501 0.237,0.0508 0.081,7e-4 0.162,-0.0152 0.237,-0.0467 0.076,-0.0314 0.144,-0.0779 0.2,-0.1365 0.057,-0.0586 0.101,-0.1281 0.13,-0.2043 0.029,-0.0763 0.043,-0.1576 0.039,-0.2391 -0.003,-0.0815 -0.023,-0.1614 -0.058,-0.235 -0.035,-0.0736 -0.085,-0.1392 -0.147,-0.193 -0.061,-0.0537 -0.133,-0.0944 -0.21,-0.1196 C 97.5942,77.9454 91.2686,64.1747 91.2686,64.1747 91.2208,64.0712 91.1445,63.9834 91.0487,63.9216 90.9528,63.8597 90.8414,63.8264 90.7274,63.8254 h -0.0503 c -0.0199,-9e-4 -0.0399,-9e-4 -0.0598,0 z"
       id="path62-8" />
    <path
       style="fill:#1e88e3"
       inkscape:connector-curvature="0"
       d="m 90.677,87.7637 c -0.097,-0.0012 -0.1929,0.021 -0.2795,0.0649 -0.0866,0.0438 -0.1612,0.1079 -0.2177,0.1869 0,0 -5.8672,8.1478 -14.8027,10.5167 -0.0805,0.0162 -0.1568,0.0487 -0.2243,0.0955 -0.0675,0.0468 -0.1247,0.107 -0.168,0.1767 -0.0434,0.0697 -0.072,0.1476 -0.0841,0.2288 -0.0122,0.0813 -0.0076,0.1641 0.0135,0.2435 0.0211,0.0793 0.0582,0.1536 0.109,0.218 0.0509,0.0645 0.1144,0.1179 0.1866,0.157 0.0723,0.039 0.1517,0.0629 0.2335,0.07 0.0818,0.0072 0.1643,-0.0025 0.2422,-0.0283 8.9388,-2.3698 14.3861,-9.6216 15.0104,-10.4695 0.6244,0.8479 6.0715,8.1028 15.0101,10.4726 0.155,0.0409 0.319,0.0188 0.457,-0.0615 0.138,-0.0802 0.239,-0.2121 0.28,-0.3665 0.041,-0.1544 0.018,-0.3187 -0.062,-0.4568 -0.08,-0.1381 -0.212,-0.2386 -0.366,-0.2795 C 97.0792,96.1633 91.2088,88.0186 91.2088,88.0186 91.1539,87.9418 91.0818,87.8791 90.9981,87.8353 90.9145,87.7916 90.8217,87.7681 90.7274,87.7669 Z"
       id="path64-7" />
    <path
       style="fill:#1e88e5"
       inkscape:connector-curvature="0"
       d="m 91.8571,199.665 c -0.1043,0.004 -0.2058,0.035 -0.2945,0.09 -0.0887,0.055 -0.1615,0.132 -0.2114,0.224 -0.0498,0.092 -0.0749,0.195 -0.0728,0.299 0.002,0.105 0.0312,0.207 0.0847,0.296 0.9871,1.712 1.4228,2.95 1.5451,3.795 0.1222,0.846 -0.0418,1.269 -0.2486,1.53 -0.4136,0.522 -1.2808,0.513 -1.2808,0.513 h -0.0346 c -0.1553,0.002 -0.3037,0.064 -0.4143,0.173 -0.1106,0.109 -0.1748,0.256 -0.1793,0.411 -0.0045,0.155 0.0512,0.306 0.1553,0.421 0.1042,0.115 0.2488,0.186 0.4036,0.197 0,0 0.0334,-0.003 0.0347,-0.003 v 0.003 h -0.0347 -0.2266 l 2.0675,15.894 c 0.0078,0.081 0.0317,0.159 0.0703,0.23 0.0386,0.071 0.0911,0.133 0.1543,0.183 0.0633,0.051 0.136,0.088 0.2138,0.109 0.0778,0.022 0.1592,0.027 0.2393,0.017 0.0801,-0.011 0.1572,-0.037 0.2268,-0.078 0.0696,-0.041 0.1302,-0.096 0.1783,-0.161 0.048,-0.065 0.0825,-0.139 0.1014,-0.217 0.0189,-0.079 0.0217,-0.16 0.0084,-0.24 l -2.0674,-15.898 c 0.4362,-0.12 0.9338,-0.314 1.3248,-0.808 0.4337,-0.548 0.6559,-1.373 0.5004,-2.449 -0.1555,-1.075 -0.6616,-2.429 -1.6962,-4.223 -0.054,-0.097 -0.1337,-0.177 -0.2303,-0.231 -0.0966,-0.054 -0.2064,-0.081 -0.3172,-0.077 z"
       id="path66-1" />
    <path
       style="fill:#1e88e5"
       inkscape:connector-curvature="0"
       d="m 106.496,276.054 c -0.752,-0.308 -1.46,-0.098 -1.86,0.205 -0.399,0.303 -0.588,0.689 -0.588,0.689 -0.071,0.143 -0.082,0.309 -0.031,0.46 0.051,0.151 0.16,0.276 0.303,0.347 0.143,0.071 0.309,0.082 0.46,0.031 0.151,-0.051 0.276,-0.16 0.347,-0.303 0,0 0.082,-0.151 0.236,-0.267 0.154,-0.117 0.284,-0.209 0.677,-0.048 0.786,0.323 2.587,2.196 5.01,8.321 0.029,0.073 0.072,0.14 0.127,0.197 0.054,0.057 0.12,0.103 0.192,0.134 0.073,0.032 0.151,0.049 0.23,0.05 0.079,0.002 0.157,-0.013 0.231,-0.042 0.074,-0.028 0.141,-0.072 0.198,-0.127 0.057,-0.054 0.102,-0.12 0.134,-0.192 0.031,-0.073 0.048,-0.151 0.05,-0.23 10e-4,-0.079 -0.013,-0.157 -0.042,-0.231 -2.462,-6.225 -4.17,-8.377 -5.674,-8.994 z"
       id="path68-2" />
    <path
       style="fill:#1e88e5"
       inkscape:connector-curvature="0"
       d="m 104.429,275.566 c -0.084,0.003 -0.167,0.024 -0.243,0.06 -0.075,0.037 -0.143,0.09 -0.197,0.154 -0.054,0.064 -0.094,0.139 -0.118,0.22 -0.023,0.081 -0.03,0.166 -0.018,0.249 0.037,0.304 0.079,0.616 0.123,0.932 -0.033,0.125 -2.216,8.509 -4,15.259 -0.1247,-0.017 -0.2514,0.006 -0.3623,0.066 -0.111,0.059 -0.2005,0.152 -0.256,0.265 -0.0556,0.112 -0.0744,0.24 -0.0538,0.364 0.0206,0.124 0.0796,0.239 0.1686,0.327 0.2222,0.226 0.5151,0.41 0.8655,0.432 l 0.494,0.031 0.126,-0.478 c 1.84,-6.946 4.213,-16.081 4.213,-16.081 l 0.029,-0.116 -0.016,-0.12 c -0.049,-0.35 -0.094,-0.694 -0.136,-1.029 -0.016,-0.151 -0.09,-0.29 -0.205,-0.389 -0.115,-0.099 -0.263,-0.151 -0.415,-0.146 z"
       id="path70-4" />
    <path
       style="fill:#1e88e5"
       inkscape:connector-curvature="0"
       d="m 112.305,248.095 c -0.138,0.008 -0.27,0.064 -0.372,0.158 -0.102,0.094 -0.168,0.22 -0.188,0.358 -0.989,6.377 -3.39,8.632 -5.431,11.728 -2.042,3.097 -3.57,6.96 -2.461,15.911 0.01,0.078 0.035,0.154 0.074,0.223 0.039,0.069 0.091,0.129 0.153,0.178 0.063,0.048 0.134,0.084 0.21,0.105 0.077,0.021 0.156,0.027 0.235,0.018 0.078,-0.01 0.154,-0.035 0.223,-0.074 0.069,-0.039 0.129,-0.091 0.178,-0.154 0.049,-0.062 0.084,-0.134 0.106,-0.21 0.021,-0.076 0.026,-0.156 0.017,-0.234 -1.089,-8.781 0.32,-12.147 2.269,-15.102 1.948,-2.955 4.588,-5.571 5.617,-12.203 0.015,-0.09 0.01,-0.181 -0.015,-0.268 -0.026,-0.088 -0.07,-0.168 -0.131,-0.235 -0.06,-0.068 -0.135,-0.121 -0.219,-0.155 -0.084,-0.035 -0.174,-0.05 -0.265,-0.044 z"
       id="path72-5" />
    <path
       style="fill:#1e88e5"
       inkscape:connector-curvature="0"
       d="m 111.411,167.18 c -0.094,0.004 -0.186,0.029 -0.268,0.074 -0.083,0.046 -0.153,0.11 -0.207,0.187 l -18.0657,26.154 c -0.0125,0.017 -0.024,0.035 -0.0346,0.053 0,0 -0.656,1.212 -1.1801,2.644 -0.262,0.716 -0.4936,1.49 -0.5916,2.231 -0.0979,0.74 -0.0873,1.475 0.3178,2.083 l -0.0409,-0.066 c 3.1572,6.42 5.3581,10.941 8.7981,14.261 3.425,3.305 8.051,5.324 15.81,6.801 3.628,1.317 7.32,5.815 9.944,10.913 2.625,5.101 4.199,10.807 3.946,14.224 -0.008,0.148 0.038,0.294 0.131,0.41 0.092,0.116 0.224,0.193 0.37,0.218 0.147,0.025 0.297,-0.006 0.422,-0.085 0.126,-0.08 0.217,-0.202 0.257,-0.345 4.686,-17.634 4.176,-28.555 2.471,-37.794 -1.705,-9.232 -4.556,-16.727 -4.607,-27.726 0.002,-0.048 -0.001,-0.095 -0.01,-0.142 0,0 -0.482,-2.275 -1.551,-4.827 -1.07,-2.552 -2.704,-5.449 -5.256,-6.65 -4.734,-2.228 -10.592,-2.615 -10.592,-2.615 -0.021,-0.002 -0.042,-0.003 -0.063,-0.003 z m 0.306,1.246 c 0.506,0.041 5.619,0.475 9.84,2.461 2.032,0.957 3.634,3.59 4.654,6.026 1.016,2.426 1.472,4.574 1.476,4.592 0.067,11.155 2.942,18.773 4.619,27.859 1.567,8.484 1.945,18.538 -1.733,33.963 -0.48,-3.485 -1.594,-7.445 -3.61,-11.363 -2.7,-5.246 -6.422,-9.978 -10.611,-11.495 -0.03,-0.011 -0.06,-0.019 -0.091,-0.025 -7.714,-1.458 -12.058,-3.391 -15.288,-6.508 -3.2292,-3.117 -5.395,-7.507 -8.5526,-13.928 -0.0111,-0.024 -0.0236,-0.047 -0.0377,-0.069 -0.1336,-0.201 -0.2052,-0.66 -0.1259,-1.259 0.0793,-0.599 0.285,-1.31 0.5287,-1.976 0.4856,-1.327 1.1032,-2.462 1.1077,-2.47 0,0 0.0032,-0.01 0.0032,-0.01 z"
       id="path74-7" />
    <path
       style="fill:#1e88e5"
       inkscape:connector-curvature="0"
       d="m 111.515,219.49 -0.013,0.588 c 0,0 -0.335,15.356 0.441,31.075 0.388,7.86 1.053,15.809 2.187,22.006 0.567,3.098 1.246,5.755 2.09,7.77 0.843,2.015 1.839,3.461 3.253,3.908 0.523,0.165 1.109,-10e-4 1.476,-0.343 0.367,-0.342 0.595,-0.799 0.784,-1.328 0.378,-1.058 0.574,-2.445 0.692,-3.855 0.235,-2.821 0.123,-5.724 0.123,-5.724 l -0.016,-0.393 -0.246,-0.095 c -0.043,-0.064 -0.138,-0.234 -0.258,-0.61 -0.247,-0.777 -0.572,-2.366 -0.78,-5.422 -0.417,-6.113 -0.382,-18.095 1.441,-41.403 l 0.016,-0.211 -0.119,-0.176 c -3.438,-5.014 -10.401,-5.784 -10.401,-5.784 l -0.034,-0.003 z m 1.187,1.375 c 0.988,0.158 5.981,1.07 8.773,4.975 -1.799,23.111 -1.847,35.117 -1.425,41.309 0.211,3.111 0.534,4.772 0.83,5.705 0.149,0.466 0.291,0.752 0.428,0.95 0.012,0.016 0.024,0.023 0.035,0.038 0.006,0.201 0.102,2.749 -0.117,5.368 -0.113,1.36 -0.319,2.692 -0.626,3.55 -0.153,0.429 -0.34,0.73 -0.472,0.853 -0.132,0.123 -0.132,0.126 -0.292,0.075 -0.811,-0.256 -1.719,-1.344 -2.505,-3.222 -0.787,-1.878 -1.459,-4.475 -2.017,-7.524 -1.116,-6.099 -1.782,-14.017 -2.169,-21.849 -0.743,-15.043 -0.467,-29.085 -0.443,-30.228 z"
       id="path76-2" />
    <path
       style="fill:#1e88e5"
       inkscape:connector-curvature="0"
       d="m 102.663,216.793 1.388,0.903 c -0.018,0.304 -0.192,3.316 -0.78,6.844 -0.309,1.851 -0.722,3.755 -1.253,5.281 -0.531,1.525 -1.225,2.633 -1.8,2.955 -0.151,0.084 -0.201,0.078 -0.2704,0.06 -0.0692,-0.019 -0.1886,-0.089 -0.3367,-0.259 -0.296,-0.339 -0.6451,-1.038 -0.9598,-1.894 -0.6292,-1.713 -1.1783,-4.03 -1.8566,-5.724 -0.4697,-1.173 -1.2531,-1.767 -1.9164,-1.998 -0.6633,-0.231 -1.243,-0.123 -1.243,-0.123 l -0.5035,0.094 0.0161,0.51 c 0,0 0.4054,16.263 1.3783,33.105 0.4865,8.421 1.1123,16.986 1.9039,23.749 0.3957,3.382 0.8337,6.313 1.3185,8.563 0.2423,1.125 0.4964,2.077 0.7709,2.844 0.2745,0.768 0.549,1.349 0.9535,1.759 0.0556,0.057 0.1217,0.101 0.1946,0.132 0.0728,0.031 0.151,0.047 0.2301,0.047 0.079,10e-4 0.1575,-0.015 0.2305,-0.044 0.073,-0.03 0.14,-0.074 0.196,-0.13 0.056,-0.055 0.101,-0.122 0.132,-0.194 0.03,-0.073 0.046,-0.151 0.047,-0.231 0,-0.079 -0.015,-0.157 -0.045,-0.23 -0.03,-0.073 -0.074,-0.14 -0.129,-0.196 -0.162,-0.164 -0.4301,-0.629 -0.6768,-1.319 -0.2467,-0.689 -0.4916,-1.601 -0.7269,-2.693 -0.4707,-2.185 -0.9064,-5.087 -1.2997,-8.446 -0.7864,-6.72 -1.4118,-15.272 -1.8975,-23.68 -0.9517,-16.474 -1.3337,-31.749 -1.35,-32.391 0.0548,0.013 0.0417,-0.009 0.1039,0.013 0.3732,0.13 0.837,0.413 1.1958,1.309 0.6191,1.546 1.1739,3.866 1.8441,5.69 0.3351,0.912 0.6871,1.703 1.1832,2.272 0.248,0.284 0.5483,0.523 0.9283,0.626 0.3796,0.103 0.8106,0.033 1.1736,-0.17 1.111,-0.622 1.779,-1.975 2.348,-3.609 0.568,-1.635 0.987,-3.589 1.303,-5.479 0.557,-3.348 0.695,-5.795 0.739,-6.473 3.008,1.668 6.507,2.37 6.797,2.417 0.158,0.025 0.319,-0.013 0.449,-0.107 0.129,-0.093 0.216,-0.234 0.242,-0.392 0.025,-0.158 -0.013,-0.319 -0.106,-0.449 -0.094,-0.129 -0.235,-0.216 -0.393,-0.242 -0.227,-0.037 -4.05,-0.755 -6.869,-2.473 l 0.012,-0.227 z"
       id="path78-4" />
    <path
       style="fill:#1e88e5"
       inkscape:connector-curvature="0"
       d="m 112.865,282.134 c -0.378,0.061 -0.667,0.285 -0.874,0.525 -0.404,0.468 -0.599,1.055 -0.743,1.552 l -0.195,-0.154 -0.044,1.189 c 0,0 -0.574,14.882 -1.52,22.83 -0.958,8.062 -1.149,18.935 -1.149,18.935 v 0.038 l 0.004,0.034 c 0,0 0.267,2.61 0.802,5.161 0.268,1.276 0.596,2.534 1.023,3.493 0.213,0.479 0.443,0.888 0.764,1.202 0.322,0.315 0.843,0.528 1.328,0.381 h 0.01 l 0.006,-0.003 c 3.713,-1.241 6.253,-4.889 7.956,-9.208 1.694,-4.298 2.566,-9.313 2.838,-13.566 1.772,-10.041 -4.247,-22.3 -7.093,-28.941 -0.733,-1.71 -1.324,-2.651 -1.995,-3.15 -0.335,-0.25 -0.738,-0.38 -1.117,-0.318 z m 0.192,1.186 c 0.013,-10e-4 0.049,-0.019 0.205,0.098 0.312,0.233 0.911,1.033 1.608,2.659 2.874,6.705 8.677,18.85 7.017,28.255 l -0.006,0.035 -0.003,0.035 c -0.261,4.16 -1.13,9.112 -2.766,13.264 -1.634,4.145 -4.023,7.429 -7.203,8.499 -0.031,0.012 -0.002,0.04 -0.133,-0.088 -0.134,-0.131 -0.327,-0.428 -0.506,-0.831 -0.358,-0.805 -0.689,-2.016 -0.947,-3.25 -0.515,-2.451 -0.774,-4.966 -0.778,-5.001 0.001,-0.043 0.194,-10.839 1.136,-18.777 0.958,-8.041 1.52,-22.762 1.523,-22.855 l 0.004,-0.01 c 0.001,-0.008 0.054,-0.343 0.176,-0.768 0.123,-0.43 0.335,-0.929 0.516,-1.139 0.09,-0.105 0.145,-0.124 0.157,-0.126 z"
       id="path80-5" />
    <path
       style="fill:#1e88e5"
       inkscape:connector-curvature="0"
       d="m 100.325,292.685 c -0.148,0.013 -0.286,0.08 -0.3881,0.189 -0.1017,0.109 -0.1595,0.251 -0.1623,0.4 0,0 -0.1279,3.956 -2.2752,12.546 l -0.0032,0.019 -0.0032,0.016 c -1.4275,7.476 -1.5332,14.306 -0.9535,19.643 0.2899,2.668 0.7514,4.961 1.3091,6.787 0.5576,1.827 1.191,3.183 1.9447,4.016 l 0.0097,0.01 0.0129,0.012 c 0.5401,0.541 1.1861,0.832 1.8341,0.841 0.649,0.008 1.26,-0.242 1.819,-0.617 1.119,-0.751 2.112,-2.026 2.993,-3.396 1.763,-2.74 3.037,-5.903 3.037,-5.903 l 0.056,-0.135 -0.016,-0.148 c -0.001,-0.012 -0.005,-0.046 -0.009,-0.098 -0.017,-0.15 -0.089,-0.288 -0.202,-0.387 -0.114,-0.1 -0.26,-0.153 -0.411,-0.149 -0.151,0.003 -0.294,0.063 -0.403,0.168 -0.109,0.104 -0.174,0.246 -0.183,0.396 -0.042,0.104 -1.234,3.043 -2.883,5.605 -0.838,1.303 -1.796,2.474 -2.649,3.046 -0.427,0.286 -0.809,0.416 -1.133,0.412 -0.32,-0.005 -0.623,-0.125 -0.985,-0.481 -0.526,-0.586 -1.1537,-1.814 -1.6807,-3.54 -0.5293,-1.734 -0.9788,-3.965 -1.2619,-6.571 -0.5661,-5.212 -0.4695,-11.93 0.9346,-19.284 2.156,-8.636 2.304,-12.766 2.304,-12.766 0.004,-0.086 -0.01,-0.172 -0.042,-0.251 -0.031,-0.08 -0.08,-0.152 -0.141,-0.212 -0.062,-0.059 -0.136,-0.105 -0.217,-0.134 -0.08,-0.029 -0.166,-0.04 -0.252,-0.033 z"
       id="path82-1" />
    <path
       style="fill:#1e88e5"
       inkscape:connector-curvature="0"
       d="m 122.662,315.346 c -0.084,0.003 -0.167,0.024 -0.242,0.061 -0.075,0.037 -0.142,0.089 -0.196,0.153 -0.054,0.065 -0.094,0.14 -0.117,0.22 -0.023,0.081 -0.03,0.165 -0.018,0.249 2.069,16.855 -3.863,30.267 -11.656,48.993 -0.196,0.47 -0.158,0.813 -0.312,1.258 2.366,-11.72 6.243,-25.471 8.1,-33.91 0.022,-0.079 0.028,-0.161 0.017,-0.242 -0.011,-0.081 -0.038,-0.16 -0.081,-0.23 -0.042,-0.07 -0.098,-0.131 -0.164,-0.178 -0.067,-0.048 -0.142,-0.082 -0.222,-0.099 -0.08,-0.018 -0.163,-0.019 -0.243,-0.004 -0.081,0.016 -0.157,0.048 -0.225,0.094 -0.067,0.046 -0.125,0.105 -0.169,0.174 -0.044,0.069 -0.073,0.146 -0.086,0.227 -2.118,9.62 -7.327,26.856 -9.337,39.477 -0.001,0.007 0.001,0.007 0,0.013 0,0.002 -0.003,0.005 -0.003,0.006 -0.508,2.659 -0.709,4.369 -0.715,5.476 -0.003,0.555 0.035,0.96 0.145,1.3 0.11,0.339 0.359,0.687 0.743,0.777 0.384,0.09 0.676,-0.072 0.884,-0.217 0.208,-0.146 0.369,-0.318 0.513,-0.485 0.287,-0.334 0.491,-0.667 0.491,-0.667 0.056,-0.09 0.087,-0.193 0.091,-0.299 0.13,-4.281 -0.228,-7.415 1.684,-12.008 7.788,-18.714 13.849,-32.392 11.737,-49.601 -0.016,-0.151 -0.089,-0.291 -0.204,-0.391 -0.115,-0.1 -0.263,-0.152 -0.416,-0.147 z m -13.856,57.127 c -0.087,1.576 -0.099,3.128 -0.145,4.802 -0.054,0.083 -0.133,0.211 -0.296,0.4 -0.037,0.043 -0.066,0.063 -0.103,0.101 -0.031,-0.165 -0.069,-0.326 -0.066,-0.686 0.004,-0.847 0.236,-2.516 0.61,-4.617 z"
       id="path84-9" />
    <path
       style="fill:#1e88e5"
       inkscape:connector-curvature="0"
       d="m 129.865,241.184 c -0.09,0.002 -0.177,0.023 -0.257,0.062 -0.08,0.04 -0.151,0.096 -0.206,0.166 -0.055,0.07 -0.095,0.151 -0.115,0.238 -0.02,0.087 -0.021,0.177 -0.001,0.264 0.599,2.963 0.548,4.773 0.547,4.809 -0.023,0.089 -1.836,7.224 -3.839,14.107 -1.008,3.463 -2.059,6.843 -2.933,9.164 -0.407,1.08 -0.766,1.868 -1.048,2.357 -0.036,-0.114 -0.073,-0.172 -0.107,-0.306 -0.018,-0.077 -0.052,-0.15 -0.099,-0.214 -0.047,-0.065 -0.106,-0.119 -0.174,-0.16 -0.068,-0.042 -0.144,-0.069 -0.222,-0.081 -0.079,-0.012 -0.159,-0.008 -0.236,0.011 -0.078,0.02 -0.15,0.054 -0.214,0.102 -0.064,0.047 -0.118,0.107 -0.158,0.176 -0.041,0.068 -0.067,0.144 -0.078,0.223 -0.011,0.079 -0.007,0.159 0.014,0.236 0.112,0.445 0.239,0.826 0.402,1.145 0.081,0.158 0.209,0.337 0.444,0.438 0.236,0.101 0.52,0.054 0.693,-0.035 0.345,-0.177 0.492,-0.425 0.682,-0.733 0.38,-0.616 0.779,-1.543 1.228,-2.735 0.897,-2.383 1.952,-5.778 2.964,-9.254 2.024,-6.954 3.874,-14.234 3.874,-14.234 l 0.016,-0.063 v -0.069 c 0,0 0.048,-2.022 -0.579,-5.123 -0.026,-0.139 -0.101,-0.264 -0.21,-0.354 -0.109,-0.09 -0.247,-0.138 -0.388,-0.137 z"
       id="path86-5" />
    <path
       style="fill:#1e88e5"
       inkscape:connector-curvature="0"
       d="m 120.931,282.842 c -0.129,0.001 -0.253,0.044 -0.356,0.122 -0.102,0.077 -0.177,0.186 -0.214,0.309 0,0 -2.702,8.567 0.076,16.886 0.025,0.075 0.064,0.144 0.116,0.204 0.052,0.06 0.115,0.109 0.186,0.144 0.07,0.035 0.147,0.056 0.226,0.062 0.079,0.006 0.158,-0.004 0.233,-0.029 0.075,-0.025 0.145,-0.065 0.204,-0.117 0.06,-0.051 0.109,-0.115 0.144,-0.185 0.036,-0.071 0.057,-0.148 0.062,-0.227 0.006,-0.079 -0.004,-0.158 -0.029,-0.233 -2.624,-7.858 -0.069,-16.146 -0.069,-16.146 0.03,-0.091 0.037,-0.188 0.022,-0.283 -0.015,-0.094 -0.052,-0.184 -0.109,-0.261 -0.056,-0.077 -0.131,-0.14 -0.216,-0.183 -0.086,-0.043 -0.181,-0.064 -0.276,-0.063 z"
       id="path88-2" />
    <path
       style="fill:#1e88e5"
       inkscape:connector-curvature="0"
       d="m 98.0564,330.164 c -0.0838,0.006 -0.1655,0.029 -0.2397,0.069 -0.0742,0.039 -0.1393,0.094 -0.1912,0.16 -0.0519,0.066 -0.0893,0.142 -0.11,0.224 -0.0206,0.081 -0.0239,0.166 -0.0098,0.249 0,0 0.9746,6.24 1.4129,14.365 0.4384,8.125 0.3254,18.134 -1.7937,25.552 -0.0217,0.076 -0.0282,0.156 -0.0191,0.235 0.009,0.078 0.0334,0.154 0.0719,0.223 0.0384,0.069 0.09,0.13 0.152,0.179 0.062,0.05 0.133,0.086 0.209,0.108 0.0761,0.021 0.1557,0.028 0.2342,0.019 0.0786,-0.009 0.1546,-0.034 0.2237,-0.072 0.0691,-0.038 0.13,-0.09 0.1791,-0.152 0.0491,-0.062 0.0856,-0.133 0.1073,-0.209 2.194,-7.681 2.279,-17.761 1.838,-25.949 -0.442,-8.188 -1.4258,-14.485 -1.4258,-14.485 -0.0213,-0.151 -0.0991,-0.288 -0.2177,-0.384 -0.1186,-0.095 -0.2691,-0.143 -0.4211,-0.132 z"
       id="path90-7" />
    <path
       style="fill:#1e88e5"
       inkscape:connector-curvature="0"
       d="m 118.665,150.829 c -0.151,0.001 -0.296,0.059 -0.406,0.161 -2.51,2.316 -5.101,4.841 -6.715,7.666 -1.615,2.824 -2.22,6.022 -0.658,9.38 0.037,0.081 0.092,0.153 0.161,0.21 0.069,0.057 0.149,0.099 0.235,0.121 l 0.416,0.104 c 0.078,0.025 0.161,0.034 0.243,0.026 0.081,-0.008 0.161,-0.033 0.233,-0.073 0.071,-0.039 0.134,-0.094 0.185,-0.159 0.05,-0.065 0.086,-0.139 0.107,-0.219 0.02,-0.08 0.023,-0.163 0.01,-0.244 -0.013,-0.081 -0.042,-0.159 -0.086,-0.228 -0.045,-0.069 -0.103,-0.129 -0.171,-0.175 -0.068,-0.046 -0.145,-0.077 -0.225,-0.093 l -0.06,-0.016 c -1.252,-2.895 -0.795,-5.501 0.654,-8.037 1.458,-2.549 3.887,-4.964 6.322,-7.219 l 1.338,-0.003 c 0.04,1.458 0.183,3.386 0.881,6.394 0.004,0.022 0.01,0.043 0.016,0.063 2.342,6.714 0.49,10.266 -0.104,11.187 -0.043,0.067 -0.072,0.141 -0.086,0.219 -0.014,0.078 -0.012,0.158 0.004,0.235 0.017,0.077 0.049,0.151 0.094,0.216 0.045,0.065 0.103,0.12 0.169,0.163 0.067,0.043 0.141,0.072 0.219,0.086 0.078,0.014 0.158,0.013 0.235,-0.004 0.077,-0.017 0.15,-0.049 0.215,-0.094 0.065,-0.045 0.121,-0.103 0.164,-0.169 0.752,-1.169 2.659,-5.186 0.245,-12.172 -0.746,-3.216 -0.919,-5.364 -0.928,-6.728 -0.001,-0.159 -0.066,-0.312 -0.179,-0.424 -0.113,-0.112 -0.266,-0.175 -0.425,-0.174 z"
       id="path92-7" />
    <path
       style="fill:#1e88e5"
       inkscape:connector-curvature="0"
       d="m 111.157,364.54 c -0.118,0.004 -0.232,0.043 -0.329,0.111 -0.096,0.068 -0.17,0.163 -0.213,0.273 0,0 -1.271,3.045 -0.959,6.19 0.289,2.92 1.254,7.598 0.384,11.728 l -0.07,0.331 0.246,0.229 c 5.562,5.286 7.093,10.618 7.093,10.618 l 0.11,0.384 0.396,0.047 c 0,0 0.804,0.09 1.703,0.739 0.79,0.571 1.551,1.686 1.888,3.506 l -23.9066,0.101 c -0.0996,-0.131 -0.5311,-0.651 -0.9252,-2.027 -0.4376,-1.528 -0.6887,-3.818 0.1228,-6.857 1.4907,-5.585 -0.1239,-10.303 -0.1291,-10.318 0,0 -1.4801,-4.565 1.5923,-8.273 0.0505,-0.061 0.0884,-0.132 0.1117,-0.207 0.0232,-0.076 0.0314,-0.155 0.0239,-0.234 -0.0074,-0.079 -0.0303,-0.155 -0.0673,-0.225 -0.0371,-0.07 -0.0875,-0.132 -0.1485,-0.183 -0.0609,-0.05 -0.1312,-0.088 -0.2068,-0.111 -0.0756,-0.023 -0.1551,-0.031 -0.2338,-0.024 -0.0788,0.007 -0.1553,0.03 -0.2252,0.067 -0.0699,0.037 -0.1319,0.088 -0.1823,0.149 -3.5029,4.228 -1.8094,9.412 -1.8094,9.412 l 0.0032,0.006 v 0.004 c 0,0 1.5006,4.408 0.107,9.629 -0.8667,3.246 -0.6087,5.776 -0.1165,7.496 0.4923,1.719 1.2493,2.675 1.2493,2.675 l 0.1825,0.223 26.005,-0.104 -0.059,-0.655 c -0.241,-2.645 -1.429,-4.2 -2.571,-5.025 -0.946,-0.683 -1.583,-0.744 -1.876,-0.796 -0.122,-0.4 -1.734,-5.464 -7.115,-10.677 0.821,-4.38 -0.11,-9.046 -0.377,-11.748 -0.272,-2.741 0.874,-5.617 0.874,-5.617 0.04,-0.093 0.055,-0.194 0.045,-0.295 -0.01,-0.1 -0.045,-0.197 -0.102,-0.28 -0.057,-0.083 -0.134,-0.151 -0.224,-0.197 -0.09,-0.046 -0.19,-0.068 -0.291,-0.065 z"
       id="path94-1" />
    <path
       style="fill:#1e88e5;fill-opacity:0.07058818"
       inkscape:connector-curvature="0"
       d="m 53.3146,180.645 c 0,0 1.9004,-8.959 6.5151,-11.13 4.6149,-2.172 10.4513,-2.579 10.4513,-2.579 l 18.1878,26.331 c 0,0 2.5789,4.751 1.4943,6.38 -6.3577,12.928 -8.7881,17.947 -24.4314,20.902 -7.8725,2.851 -14.9304,18.595 -14.3876,25.925 -9.398,-35.366 2.0745,-43.452 2.1713,-65.829 z"
       id="path96-4" />
    <path
       style="fill:#1e88e5;fill-opacity:0.22745098"
       inkscape:connector-curvature="0"
       d="m 69.6023,219.6 c 0,0 1.3588,61.778 -7.6009,64.607 -2.7515,0.869 -2.3066,-10.722 -2.3066,-10.722 0,0 3.529,-1.357 -0.1451,-48.32 3.2575,-4.751 10.0441,-5.565 10.0441,-5.565 z"
       id="path98-6" />
    <path
       style="fill:#1e88e5;fill-opacity:0.07058818"
       inkscape:connector-curvature="0"
       d="m 77.0676,216.885 c 0,0 0.8148,14.115 4.2075,16.016 2.0721,1.16 2.9996,-4.911 4.3057,-8.173 0.8341,-2.082 2.5041,-1.768 2.5041,-1.768 0,0 -1.7505,70.035 -6.6739,70.34 -1.8521,-6.99 -4.2406,-16.189 -4.2406,-16.189 2.7445,-19.649 -6.1401,-15.25 -7.8396,-30.231 l 0.2732,-27.282 c 0,0 4.3432,-0.679 7.4648,-2.714 z"
       id="path100-5" />
    <path
       style="fill:#1e88e5;fill-opacity:0.07058818"
       inkscape:connector-curvature="0"
       d="m 70.1001,285.221 c 0,0 -0.9599,-6.143 -3.839,0.575 -2.8794,6.718 -8.8299,19.003 -7.1024,28.792 0.5319,8.484 3.515,20.137 10.4615,22.459 2.0938,0.634 3.1671,-9.79 3.1671,-9.79 0,0 -0.1935,-10.941 -1.1509,-19.003 -0.9599,-8.062 -1.5353,-23.034 -1.5353,-23.034 z"
       id="path102-3" />
    <path
       style="fill:#1e88e5;fill-opacity:0.22745098"
       inkscape:connector-curvature="0"
       d="m 77.1703,277.112 c 0,0 -0.7374,-5.537 -7.0702,8.109 0.4521,14.459 1.9464,25.725 1.9464,25.725 0.2417,6.712 1.0759,12.536 0.7422,16.312 0,0 5.0946,12.599 8.7593,8.934 2.5789,-2.851 5.0221,-15.202 2.1712,-30.132 -2.1712,-8.687 -2.3066,-12.759 -2.3066,-12.759 L 77.172,277.112"
       id="path104-1" />
    <path
       style="fill:#1e88e5;fill-opacity:0.22745098"
       inkscape:connector-curvature="0"
       d="m 59.1588,314.588 c 0.6386,13.236 5.096,18.451 5.096,18.451 2.0988,9.694 7.1405,26.41 9.176,39.202 2.046,10.697 -0.9612,5.813 -0.9612,5.813 -0.1295,-4.267 0.2307,-7.564 -1.7425,-12.305 -8.0752,-19.402 -14.2356,-33.286 -11.5683,-51.161 z"
       id="path106-8" />
    <path
       style="fill:#1e88e5;fill-opacity:0.07058818"
       inkscape:connector-curvature="0"
       d="m 129.113,180.645 c 0,0 -1.9,-8.959 -6.515,-11.13 -4.615,-2.172 -10.451,-2.579 -10.451,-2.579 l -18.1878,26.331 c 0,0 -2.5788,4.751 -1.4917,6.38 6.3576,12.928 8.7885,17.947 24.4315,20.902 7.872,2.851 14.93,18.595 14.387,25.925 9.398,-35.366 -2.074,-43.452 -2.171,-65.829 z"
       id="path108-4" />
    <path
       style="fill:#1e88e5;fill-opacity:0.22745098"
       inkscape:connector-curvature="0"
       d="m 112.826,219.599 c 0,0 -1.359,61.779 7.601,64.608 2.751,0.869 2.306,-10.723 2.306,-10.723 0,0 -3.529,-1.357 0.145,-48.32 -3.257,-4.75 -10.044,-5.565 -10.044,-5.565 z"
       id="path110-8" />
    <path
       style="fill:#1e88e5;fill-opacity:0.07058818"
       inkscape:connector-curvature="0"
       d="m 105.361,216.885 c 0,0 -0.815,14.115 -4.208,16.016 -2.072,1.16 -2.9993,-4.911 -4.3056,-8.173 -0.8342,-2.082 -2.5041,-1.768 -2.5041,-1.768 0,0 1.7505,70.035 6.6737,70.34 1.852,-6.99 4.241,-16.189 4.241,-16.189 -2.744,-19.649 6.14,-15.25 7.839,-30.231 l -0.27,-27.282 c 0,0 -4.344,-0.679 -7.465,-2.714 z"
       id="path112-1" />
    <path
       style="fill:#1e88e5;fill-opacity:0.07058818"
       inkscape:connector-curvature="0"
       d="m 112.328,285.221 c 0,0 0.96,-6.143 3.839,0.575 2.879,6.718 8.83,19.003 7.102,28.792 -0.532,8.484 -3.515,20.137 -10.461,22.459 -2.094,0.634 -3.167,-9.79 -3.167,-9.79 0,0 0.193,-10.941 1.151,-19.003 0.96,-8.062 1.535,-23.034 1.535,-23.034 z"
       id="path114-6" />
    <path
       style="fill:#1e88e5;fill-opacity:0.22745098"
       inkscape:connector-curvature="0"
       d="m 105.258,277.112 c 0,0 0.737,-5.537 7.07,8.108 -0.452,14.46 -1.946,25.726 -1.946,25.726 -0.242,6.711 -1.076,12.535 -0.743,16.312 0,0 -5.094,12.598 -8.759,8.933 -2.5788,-2.85 -5.022,-15.201 -2.1711,-30.132 2.1711,-8.686 2.3061,-12.758 2.3061,-12.758 l 4.241,-16.189"
       id="path116-9" />
    <path
       style="fill:#1e88e5;fill-opacity:0.22745098"
       inkscape:connector-curvature="0"
       d="m 123.172,314.588 c -0.639,13.236 -5.096,18.45 -5.096,18.45 -2.099,9.694 -7.141,26.41 -9.176,39.203 -2.046,10.697 0.961,5.812 0.961,5.812 0.13,-4.266 -0.231,-7.563 1.743,-12.304 8.075,-19.403 14.235,-33.286 11.568,-51.161 z"
       id="path118-8" />
    <path
       style="fill:#1e88e5;fill-opacity:0.07058818"
       inkscape:connector-curvature="0"
       d="M 67.6573,84.7494 C 83.882,78.3712 90.648,64.5015 90.648,64.5015 c 0,0 6.2507,13.4515 23.086,20.2484 0,0 -4.628,6.1199 -7.55,14.3633 C 97.1991,97.423 90.6708,88.3666 90.6708,88.3666 81.8441,98.9412 75.1083,99.1946 75.1083,99.1946 74.68,97.0407 72.0212,89.8781 67.6573,84.7494 Z"
       id="path120-8" />
    <g
       style="opacity:0.95"
       id="g166">
      <g
         style="opacity:0.95"
         id="g164">
        <g
           style="opacity:0.95"
           id="g136">
          <path
             style="opacity:0.95;fill:#f78a0a"
             inkscape:connector-curvature="0"
             d="m 69.7635,359.365 c -0.448,10e-4 -0.8839,0.145 -1.2432,0.413 -0.3593,0.267 -0.6229,0.644 -0.7518,1.073 H 0.00158691 v 1.199 H 67.7669 c 0.1288,0.429 0.3925,0.806 0.7522,1.073 0.3596,0.268 0.796,0.413 1.2444,0.413 0.2738,0 0.545,-0.054 0.7979,-0.159 0.253,-0.105 0.4829,-0.259 0.6765,-0.452 0.1936,-0.194 0.3471,-0.424 0.4519,-0.677 0.1047,-0.253 0.1586,-0.524 0.1585,-0.798 -10e-5,-0.553 -0.2197,-1.083 -0.6107,-1.474 -0.391,-0.391 -0.9212,-0.611 -1.4741,-0.611 z"
             id="path122-7" />
          <g
             style="opacity:0.95"
             id="g126">
            <path
               style="opacity:0.95;fill:#f78a0a"
               inkscape:connector-curvature="0"
               d="m 69.7625,297.658 c -0.4474,10e-4 -0.8828,0.145 -1.2419,0.412 -0.3591,0.267 -0.6228,0.642 -0.7522,1.07 H 0.00146484 v 1.202 H 67.7659 c 0.1289,0.43 0.3928,0.806 0.7524,1.074 0.3597,0.267 0.796,0.412 1.2442,0.412 0.5529,0 1.0832,-0.22 1.4741,-0.611 0.391,-0.391 0.6107,-0.921 0.6107,-1.474 0,-0.553 -0.2197,-1.083 -0.6107,-1.474 -0.3909,-0.391 -0.9212,-0.611 -1.4741,-0.611 z"
               id="path124" />
          </g>
          <g
             style="opacity:0.95"
             id="g130">
            <path
               style="opacity:0.95;fill:#f78a0a"
               inkscape:connector-curvature="0"
               d="m 69.7625,236.064 c -0.4475,0.001 -0.883,0.145 -1.2421,0.412 -0.3591,0.267 -0.6227,0.643 -0.752,1.071 H 0.00146484 v 1.203 H 67.7659 c 0.1289,0.429 0.3928,0.805 0.7524,1.073 0.3597,0.267 0.796,0.412 1.2442,0.412 0.5529,0 1.0832,-0.22 1.4741,-0.611 0.391,-0.391 0.6107,-0.921 0.6107,-1.474 10e-5,-0.274 -0.0537,-0.545 -0.1585,-0.798 -0.1047,-0.253 -0.2583,-0.483 -0.4519,-0.677 -0.1936,-0.193 -0.4234,-0.347 -0.6764,-0.452 -0.253,-0.105 -0.5242,-0.159 -0.798,-0.159 z"
               id="path128" />
          </g>
        </g>
        <g
           style="opacity:0.95"
           id="g162">
          <g
             style="opacity:0.95"
             id="g160">
            <path
               style="opacity:0.95;fill:#f78a0a"
               inkscape:connector-curvature="0"
               d="m 111.469,359.365 c -0.553,0 -1.083,0.219 -1.474,0.61 -0.391,0.391 -0.611,0.922 -0.611,1.475 0,0.273 0.054,0.545 0.159,0.798 0.105,0.253 0.258,0.483 0.452,0.676 0.193,0.194 0.423,0.348 0.676,0.452 0.253,0.105 0.524,0.159 0.798,0.159 0.449,0 0.885,-0.145 1.245,-0.412 0.359,-0.268 0.623,-0.644 0.752,-1.074 h 67.765 v -1.199 h -67.767 c -0.129,-0.429 -0.392,-0.805 -0.752,-1.073 -0.359,-0.267 -0.795,-0.412 -1.243,-0.412 z"
               id="path138" />
            <g
               style="opacity:0.95"
               id="g142">
              <path
                 style="opacity:0.95;fill:#f78a0a"
                 inkscape:connector-curvature="0"
                 d="m 111.47,297.658 c -0.553,0 -1.083,0.22 -1.474,0.611 -0.391,0.391 -0.611,0.921 -0.611,1.474 0,0.553 0.22,1.083 0.611,1.474 0.391,0.391 0.921,0.611 1.474,0.611 0.448,0 0.884,-0.145 1.244,-0.413 0.359,-0.267 0.623,-0.643 0.752,-1.073 h 67.765 v -1.202 h -67.767 c -0.129,-0.428 -0.393,-0.803 -0.752,-1.07 -0.359,-0.267 -0.795,-0.411 -1.242,-0.412 z"
                 id="path140" />
            </g>
            <g
               style="opacity:0.95"
               id="g146">
              <path
                 style="opacity:0.95;fill:#f78a0a"
                 inkscape:connector-curvature="0"
                 d="m 111.47,236.064 c -0.274,0 -0.545,0.054 -0.798,0.159 -0.253,0.105 -0.483,0.259 -0.676,0.452 -0.194,0.194 -0.347,0.424 -0.452,0.677 -0.105,0.253 -0.159,0.524 -0.159,0.798 0,0.553 0.22,1.083 0.611,1.474 0.391,0.391 0.921,0.611 1.474,0.611 0.448,0 0.884,-0.145 1.244,-0.412 0.359,-0.268 0.623,-0.644 0.752,-1.073 h 67.765 v -1.203 h -67.767 c -0.129,-0.428 -0.393,-0.804 -0.752,-1.071 -0.359,-0.267 -0.794,-0.411 -1.242,-0.412 z"
                 id="path144" />
            </g>
          </g>
        </g>
      </g>
    </g>
  </g>
  <g
     id="g1108"
     transform="translate(0.56020117,0.15585985)">
    <circle
       style="fill:#636262"
       id="circle194"
       r="10.0898"
       cy="177.0898"
       cx="10.2898" />
    <path
       style="fill:#ffffff"
       inkscape:connector-curvature="0"
       id="path196"
       d="M 11.5545,182.3633 H 9.9001792 v -7.9912 l -2.44043,0.834 v -1.4014 L 11.3426,172.376 h 0.2119 z" />
    <circle
       style="fill:#1e88e5"
       id="circle198"
       r="10.0898"
       cy="177.0898"
       cx="166.5898" />
    <path
       style="fill:#ffffff"
       inkscape:connector-curvature="0"
       id="path200"
       d="m 170.04878,182.3633 h -6.693 v -1.1416 l 3.316,-3.6162 c 0.478,-0.5332 0.818,-0.9776 1.018,-1.333 0.205,-0.3601 0.308,-0.7201 0.308,-1.0801 0,-0.474 -0.134,-0.8568 -0.403,-1.1485 -0.265,-0.2916 -0.622,-0.4375 -1.074,-0.4375 -0.537,0 -0.954,0.1641 -1.251,0.4922 -0.296,0.3282 -0.444,0.7771 -0.444,1.3467 h -1.661 c 0,-0.6061 0.137,-1.1507 0.41,-1.6338 0.278,-0.4876 0.672,-0.8659 1.183,-1.1347 0.515,-0.2689 1.107,-0.4034 1.777,-0.4034 0.966,0 1.727,0.2439 2.283,0.7315 0.561,0.4831 0.841,1.153 0.841,2.0097 0,0.4968 -0.141,1.0186 -0.424,1.5655 -0.278,0.5423 -0.736,1.1598 -1.374,1.8525 l -2.433,2.6045 h 4.621 z" />
    <circle
       style="fill:#636262"
       id="circle194-3"
       r="10.0898"
       cy="223.0898"
       cx="10.2898" />
    <path
       style="fill:#ffffff"
       inkscape:connector-curvature="0"
       id="path196-2"
       d="M 11.5545,228.3633 H 9.9001797 v -7.9912 l -2.44043,0.834 v -1.4014 L 11.3426,218.376 h 0.2119 z" />
    <circle
       style="fill:#1e88e5"
       id="circle198-0"
       r="10.0898"
       cy="223.0898"
       cx="166.58981" />
    <path
       style="fill:#ffffff"
       inkscape:connector-curvature="0"
       id="path200-1"
       d="m 170.04878,228.3633 h -6.693 v -1.1416 l 3.316,-3.6162 c 0.478,-0.5332 0.818,-0.9776 1.018,-1.333 0.205,-0.3601 0.308,-0.7201 0.308,-1.0801 0,-0.474 -0.134,-0.8568 -0.403,-1.1485 -0.265,-0.2916 -0.622,-0.4375 -1.074,-0.4375 -0.537,0 -0.954,0.1641 -1.251,0.4922 -0.296,0.3282 -0.444,0.7771 -0.444,1.3467 h -1.661 c 0,-0.6061 0.137,-1.1507 0.41,-1.6338 0.278,-0.4876 0.672,-0.8659 1.183,-1.1347 0.515,-0.2689 1.107,-0.4034 1.777,-0.4034 0.966,0 1.727,0.2439 2.283,0.7315 0.561,0.4831 0.841,1.153 0.841,2.0097 0,0.4968 -0.141,1.0186 -0.424,1.5655 -0.278,0.5423 -0.736,1.1598 -1.374,1.8525 l -2.433,2.6045 h 4.621 z" />
    <circle
       style="fill:#636262"
       id="circle194-4"
       r="10.0898"
       cy="269.08978"
       cx="10.2898" />
    <path
       style="fill:#ffffff"
       inkscape:connector-curvature="0"
       id="path196-26"
       d="M 11.5545,274.3633 H 9.9001797 v -7.9912 l -2.44043,0.834 v -1.4014 L 11.3426,264.376 h 0.2119 z" />
    <circle
       style="fill:#1e88e5"
       id="circle198-8"
       r="10.0898"
       cy="269.08978"
       cx="166.58981" />
    <path
       style="fill:#ffffff"
       inkscape:connector-curvature="0"
       id="path200-4"
       d="m 170.04878,274.3633 h -6.693 v -1.1416 l 3.316,-3.6162 c 0.478,-0.5332 0.818,-0.9776 1.018,-1.333 0.205,-0.3601 0.308,-0.7201 0.308,-1.0801 0,-0.474 -0.134,-0.8568 -0.403,-1.1485 -0.265,-0.2916 -0.622,-0.4375 -1.074,-0.4375 -0.537,0 -0.954,0.1641 -1.251,0.4922 -0.296,0.3282 -0.444,0.7771 -0.444,1.3467 h -1.661 c 0,-0.6061 0.137,-1.1507 0.41,-1.6338 0.278,-0.4876 0.672,-0.8659 1.183,-1.1347 0.515,-0.2689 1.107,-0.4034 1.777,-0.4034 0.966,0 1.727,0.2439 2.283,0.7315 0.561,0.4831 0.841,1.153 0.841,2.0097 0,0.4968 -0.141,1.0186 -0.424,1.5655 -0.278,0.5423 -0.736,1.1598 -1.374,1.8525 l -2.433,2.6045 h 4.621 z" />
  </g>
</svg>
