<?xml version="1.0" encoding="UTF-8" standalone="no"?>
<svg
   xmlns:dc="http://purl.org/dc/elements/1.1/"
   xmlns:cc="http://creativecommons.org/ns#"
   xmlns:rdf="http://www.w3.org/1999/02/22-rdf-syntax-ns#"
   xmlns:svg="http://www.w3.org/2000/svg"
   xmlns="http://www.w3.org/2000/svg"
   xmlns:sodipodi="http://sodipodi.sourceforge.net/DTD/sodipodi-0.dtd"
   xmlns:inkscape="http://www.inkscape.org/namespaces/inkscape"
   width="178"
   height="300"
   viewBox="0 0 178 300"
   fill="none"
   version="1.1"
   id="svg223"
   sodipodi:docname="icon-electrode-reminder-bicicleta.svg"
   inkscape:version="0.92.4 (5da689c313, 2019-01-14)">
  <metadata
     id="metadata227">
    <rdf:RDF>
      <cc:Work
         rdf:about="">
        <dc:format>image/svg+xml</dc:format>
        <dc:type
           rdf:resource="http://purl.org/dc/dcmitype/StillImage" />
        <dc:title></dc:title>
      </cc:Work>
    </rdf:RDF>
  </metadata>
  <sodipodi:namedview
     pagecolor="#ffffff"
     bordercolor="#666666"
     borderopacity="1"
     objecttolerance="10"
     gridtolerance="10"
     guidetolerance="10"
     inkscape:pageopacity="0"
     inkscape:pageshadow="2"
     inkscape:window-width="1920"
     inkscape:window-height="1001"
     id="namedview225"
     showgrid="false"
     inkscape:zoom="2"
     inkscape:cx="119.66283"
     inkscape:cy="133.19624"
     inkscape:window-x="-9"
     inkscape:window-y="-9"
     inkscape:window-maximized="1"
     inkscape:current-layer="svg223" />
  <g
     id="g1108"
     transform="translate(0.56020117)">
    <g
       id="g188"
       clip-path="url(#clip0)">
      <path
         id="path2"
         d="M 87.3169,0.0889547 C 83.4888,0.0381317 79.6519,1.14371 76.8457,3.48264 74.048,5.81457 72.3116,9.39931 72.7021,14.1307 l 0.8985,-0.0378 c -0.383,-4.50012 1.219,-7.74851 3.8206,-9.9169 2.6015,-2.1684 6.2383,-3.232193 9.8839,-3.183792 3.6456,0.048392 7.2858,1.209172 9.8933,3.410192 2.6076,2.20103 4.2096,5.41423 3.8296,9.7306 l -0.002,0.026 v 0.0283 c 0,0 0.192,5.379 -2.1744,13.537 -0.7109,2.1063 -2.0671,4.7636 -3.5918,6.9053 -0.7629,1.0715 -1.569,2.0142 -2.3419,2.6956 -0.7729,0.6814 -1.513,1.0848 -2.0918,1.1508 -1.4619,0.1667 -3.0523,0.3639 -4.455,0.3774 -1.4027,0.0134 -2.6021,-0.1803 -3.264,-0.6556 -1.5559,-1.1182 -5.5537,-4.615 -7.6316,-10.4311 -1.6236,-5.8342 -1.8718,-13.6124 -1.8726,-13.636 0,-10e-5 0,-0.0142 0,-0.0142 l -0.9009,0.0142 c 4e-4,0.005 -4e-4,0.0091 0,0.0141 v 0.0071 c 6e-4,0.0067 -5e-4,0.0122 0,0.0189 h 0.0025 c 0.0013,0.0434 0.2309,7.8507 1.9055,13.8554 l 0.0047,0.0165 0.0047,0.0142 c 2.1606,6.0619 6.2788,9.6648 7.9619,10.8744 0.9584,0.6884 2.3168,0.8396 3.7969,0.8254 1.4801,-0.0142 3.0947,-0.2186 4.5493,-0.3844 0.8794,-0.1003 1.7386,-0.6222 2.5871,-1.3702 0.8485,-0.7481 1.6873,-1.7373 2.4787,-2.8489 1.5827,-2.2232 2.969,-4.9282 3.7167,-7.1459 l 0.0025,-0.0094 0.0024,-0.0094 C 102.102,19.766 101.93,14.2892 101.927,14.2109 V 14.2038 C 102.327,9.62768 100.583,6.07616 97.781,3.71144 94.978,1.34542 91.1451,0.139812 87.317,0.0889892 Z"
         inkscape:connector-curvature="0"
         style="fill:#1e88e5" />
      <path
         id="path4"
         d="m 77.5982,32.7405 c -0.1191,0.002 -0.2324,0.051 -0.3155,0.1363 -0.083,0.0852 -0.129,0.1999 -0.1279,0.3189 v 8.6976 l -8.7354,5.6672 c -0.05,0.0321 -0.0932,0.0737 -0.127,0.1225 -0.0339,0.0488 -0.0578,0.1038 -0.0703,0.1619 -0.0126,0.0581 -0.0135,0.118 -0.0028,0.1765 0.0107,0.0584 0.0328,0.1141 0.0651,0.164 0.0323,0.0498 0.0742,0.0928 0.1231,0.1265 0.049,0.0336 0.1041,0.0572 0.1622,0.0695 0.0582,0.0123 0.1181,0.013 0.1765,0.002 0.0584,-0.011 0.114,-0.0333 0.1637,-0.0659 l 8.9406,-5.8016 c 0.0629,-0.0408 0.1146,-0.0967 0.1504,-0.1626 0.0358,-0.0659 0.0546,-0.1397 0.0548,-0.2147 v -8.9429 c 5e-4,-0.0601 -0.0109,-0.1198 -0.0338,-0.1754 -0.0228,-0.0556 -0.0565,-0.1061 -0.0991,-0.1485 -0.0427,-0.0424 -0.0933,-0.0759 -0.1491,-0.0984 -0.0557,-0.0226 -0.1154,-0.0337 -0.1755,-0.0329 z"
         inkscape:connector-curvature="0"
         style="fill:#1e88e5" />
      <path
         id="path6"
         d="m 96.3755,33.5047 c -0.0594,7e-4 -0.118,0.0131 -0.1725,0.0365 -0.0545,0.0233 -0.1039,0.0572 -0.1453,0.0998 -0.0414,0.0425 -0.0741,0.0927 -0.096,0.1478 -0.022,0.0552 -0.0328,0.1141 -0.032,0.1734 v 8.2213 c 4e-4,0.079 0.0215,0.1565 0.0612,0.2248 0.0397,0.0683 0.0967,0.125 0.1652,0.1643 l 9.9309,5.7568 c 0.052,0.0326 0.109,0.0545 0.169,0.0644 0.06,0.0098 0.122,0.0074 0.181,-0.0071 0.059,-0.0145 0.114,-0.0408 0.163,-0.0774 0.049,-0.0365 0.089,-0.0825 0.12,-0.1352 0.03,-0.0527 0.05,-0.111 0.057,-0.1714 0.007,-0.0604 0.002,-0.1217 -0.015,-0.1801 -0.017,-0.0584 -0.046,-0.1128 -0.084,-0.1599 -0.039,-0.047 -0.086,-0.0858 -0.14,-0.1139 l -9.705,-5.6247 v -7.9619 c 9e-4,-0.0603 -0.0104,-0.1202 -0.0331,-0.1761 -0.0226,-0.0559 -0.0563,-0.1067 -0.099,-0.1494 -0.0426,-0.0426 -0.0934,-0.0763 -0.1493,-0.099 -0.0559,-0.0227 -0.1158,-0.0339 -0.1761,-0.033 z"
         inkscape:connector-curvature="0"
         style="fill:#1e88e5" />
      <path
         id="path8"
         d="m 68.8061,47.4756 -0.1768,0.0141 c -10.5593,0.844 -17.2849,8.2031 -18.9047,13.596 -0.7753,2.5814 -1.0587,6.3962 -1.1627,9.5938 -0.104,3.1976 -0.0188,5.7686 -0.0188,5.7686 l 0.0118,0.3891 0.3868,0.0448 c 0,0 1.6264,0.1792 3.6861,-0.849 2.0597,-1.0282 4.5884,-3.2588 6.568,-7.943 2.3553,-5.5729 5.2283,-9.1582 7.5044,-11.3508 2.276,-2.1925 3.9196,-2.9739 3.9196,-2.9739 l 0.0684,-0.033 0.0542,-0.0518 c 0,0 0.6891,-0.684 0.7641,-1.8066 0.075,-1.1226 -0.4726,-2.6399 -2.5612,-4.2898 z m -0.2924,0.9575 c 1.7691,1.4589 2.1453,2.6156 2.0942,3.3795 -0.0528,0.7914 -0.4999,1.224 -0.4999,1.224 l 0.1226,-0.0849 c 0,0 -1.8009,0.8685 -4.1578,3.139 -2.357,2.2705 -5.3058,5.9627 -7.7095,11.6503 -1.913,4.5263 -4.2788,6.5569 -6.1388,7.4855 -1.4429,0.7202 -2.3496,0.7542 -2.7782,0.7452 -0.0105,-0.3571 -0.076,-2.3461 0.0189,-5.2639 0.103,-3.1661 0.4015,-6.962 1.1226,-9.3627 1.4746,-4.9094 7.8731,-12.0195 17.9259,-12.912 z"
         inkscape:connector-curvature="0"
         style="fill:#1e88e5" />
      <path
         id="path10"
         d="m 70.7306,52.8999 -0.1155,0.0495 c 0,0 -1.8913,0.8139 -4.5069,3.389 -2.6155,2.5751 -6.0024,6.9307 -9.141,14.0582 l -0.0849,0.1958 0.0967,0.191 c 3.5649,6.9859 10.6992,8.867 16.8364,8.9948 6.1372,0.1278 11.3814,-1.4669 11.3814,-1.4669 l 0.2783,-0.0849 0.0377,-0.2877 c 0,0 0.5996,-4.6628 0.4245,-9.6788 -0.0875,-2.5079 -0.3658,-5.1077 -1.0259,-7.2849 -0.6601,-2.1773 -1.7128,-3.9786 -3.4338,-4.7286 -6.1941,-2.6993 -10.6244,-3.33 -10.6244,-3.33 z m 0.1321,0.9386 c 0.1923,0.0281 4.2998,0.6398 10.2565,3.2357 1.352,0.5892 2.3068,2.1099 2.9291,4.1625 0.6223,2.0527 0.9022,4.5916 0.9882,7.0539 0.1663,4.7674 -0.3706,8.9477 -0.4057,9.2283 -0.4412,0.1296 -5.1007,1.477 -10.7966,1.3584 -5.9085,-0.1231 -12.5169,-1.89 -15.9236,-8.3345 3.0631,-6.8748 6.3309,-11.1004 8.8297,-13.5606 2.4181,-2.3807 3.9797,-3.0811 4.1224,-3.1437 z"
         inkscape:connector-curvature="0"
         style="fill:#1e88e5" />
      <path
         id="path12"
         d="m 74.5817,79.2048 -0.7004,0.5684 c -0.0469,-0.0578 0.0954,0.2439 0.1533,0.6933 0.0579,0.4495 0.0959,1.0742 0.1132,1.8419 0.0346,1.5354 -0.016,3.6414 -0.1557,6.1247 -0.2792,4.9667 -0.9085,11.4515 -1.8866,18.0059 -0.9823,6.582 -1.1686,9.672 -0.9127,11.695 0.2558,2.023 0.948,2.885 1.632,4.903 0.6564,1.938 0.5957,4.769 -0.0236,6.851 -0.3097,1.041 -0.7613,1.889 -1.2547,2.349 -0.4585,0.428 -0.8968,0.533 -1.4857,0.307 -1.1993,-3.355 -2.7429,-5.436 -4.0305,-6.625 -1.1566,-1.068 -1.8767,-1.289 -2.106,-1.375 -0.0265,-0.315 -0.4951,-5.976 0.4976,-9.351 0.8762,-2.978 2.0133,-6.208 1.573,-9.341 v -0.005 l -0.0024,-0.005 c -0.2396,-1.454 -1.0449,-2.47 -1.8206,-3.518 -0.7741,-1.046 -1.5388,-2.135 -1.8962,-3.8138 l -0.9244,-9.0184 -0.8962,0.092 0.9315,9.082 0.0047,0.0236 c 0.3949,1.8666 1.2689,3.1086 2.0542,4.1696 0.7841,1.059 1.4569,1.928 1.6555,3.125 0.3961,2.829 -0.6604,5.949 -1.5447,8.954 -1.1212,3.812 -0.5235,9.88 -0.5235,9.88 l 0.0283,0.297 0.2853,0.089 c 0,0 0.8569,0.26 2.0707,1.38 1.2137,1.121 2.7368,3.089 3.9054,6.495 l 0.0637,0.182 0.1769,0.082 c 0.9482,0.435 1.9127,0.192 2.5965,-0.446 0.6839,-0.637 1.1689,-1.615 1.507,-2.752 0.6762,-2.273 0.7558,-5.2 0.0119,-7.396 -0.7166,-2.115 -1.3553,-2.876 -1.5896,-4.728 -0.2343,-1.853 -0.0705,-4.89 0.908,-11.448 0.9826,-6.5843 1.6151,-13.0921 1.8961,-18.0906 0.1405,-2.4993 0.1935,-4.619 0.158,-6.1931 -0.0177,-0.787 -0.0579,-1.4364 -0.1226,-1.9385 -0.0647,-0.5022 -0.0897,-0.8301 -0.3467,-1.1462 z"
         inkscape:connector-curvature="0"
         style="fill:#1e88e5" />
      <path
         id="path14"
         d="m 57.3184,69.5688 -0.3537,0.8325 c 0,0 -2.3012,5.4309 -7.9831,5.5823 l -0.3443,0.0094 -0.0826,0.3349 c 0,0 -0.3956,1.6376 -1.3159,6.9737 -1.1903,6.9012 -1.5916,10.8027 -1.691,16.2491 l -0.0024,0.158 0.0944,0.1227 c 0.5898,0.7776 1.4765,2.0126 2.929,2.6346 1.4526,0.621 3.4338,0.553 5.9903,-1.064 l 0.0424,-0.028 0.0378,-0.038 c 1.497,-1.5236 1.8916,-2.8411 2.3442,-4.1176 0.4525,-1.2765 0.9645,-2.5507 2.797,-4.33 l 0.0047,-0.0024 0.0024,-0.0048 c 0.9166,-0.9267 1.4329,-2.4603 1.7806,-4.2474 0.3477,-1.7872 0.5039,-3.8353 0.5613,-5.7804 0.1147,-3.8901 -0.1722,-7.3699 -0.1722,-7.3699 l -0.0141,-0.1768 -0.1321,-0.1203 c -1.5083,-1.3712 -3.0267,-3.0778 -4.0399,-4.8346 z m 0.0967,1.7405 c 1.017,1.6002 2.2955,3.1252 3.646,4.3724 0.0093,0.1153 0.2762,3.3814 0.1651,7.1459 -0.0565,1.9151 -0.2122,3.9247 -0.5448,5.6341 -0.3325,1.7094 -0.8655,3.1105 -1.5353,3.7875 -1.9236,1.8705 -2.5512,3.362 -3.0139,4.6672 -0.4581,1.292 -0.7695,2.367 -2.1037,3.7426 -2.3641,1.48 -3.9408,1.476 -5.1035,0.979 -1.1176,-0.478 -1.8782,-1.459 -2.4668,-2.2335 0.1039,-5.3181 0.4961,-9.1456 1.6697,-15.9496 0.8853,-5.1331 1.2301,-6.5546 1.257,-6.6671 5.3681,-0.3839 7.6055,-4.5914 8.0302,-5.4785 z"
         inkscape:connector-curvature="0"
         style="fill:#1e88e5" />
      <path
         id="path16"
         d="m 45.9937,99.1027 c -0.0653,0.0016 -0.1296,0.0174 -0.1882,0.0463 -0.0586,0.0289 -0.1103,0.0703 -0.1514,0.1211 0,0 -0.4733,0.5698 -1.1037,1.8349 -0.6304,1.265 -1.4413,3.254 -2.1933,6.169 -1.504,5.832 -2.7682,15.379 -1.8584,30.312 0.0038,0.06 0.0191,0.117 0.0452,0.171 0.026,0.053 0.0623,0.101 0.1068,0.14 0.0445,0.039 0.0962,0.069 0.1523,0.088 0.0561,0.019 0.1154,0.027 0.1745,0.024 0.0592,-0.004 0.117,-0.019 0.1702,-0.046 0.0533,-0.026 0.1008,-0.062 0.14,-0.106 0.0392,-0.045 0.0693,-0.097 0.0885,-0.153 0.0192,-0.056 0.0272,-0.115 0.0234,-0.174 -0.9053,-14.86 0.3551,-24.312 1.8301,-30.032 0.7376,-2.859 1.5294,-4.785 2.1296,-5.99 0.6002,-1.204 0.9858,-1.6601 0.9858,-1.6601 0.0569,-0.0661 0.0934,-0.1472 0.1052,-0.2335 0.0117,-0.0864 -0.0018,-0.1743 -0.039,-0.2532 -0.0372,-0.0788 -0.0964,-0.1452 -0.1705,-0.1911 -0.0741,-0.0459 -0.1599,-0.0693 -0.2471,-0.0675 z"
         inkscape:connector-curvature="0"
         style="fill:#1e88e5" />
      <path
         id="path18"
         d="m 60.9007,89.0819 c -0.0957,9e-4 -0.1887,0.0322 -0.2654,0.0895 -0.0768,0.0572 -0.1333,0.1374 -0.1614,0.2289 0,0 -0.6383,2.0002 -1.2122,4.5257 -0.574,2.5255 -1.0993,5.5655 -0.8373,7.775 l -0.0024,-0.068 c -0.7922,25.362 -10.8154,40.054 -10.8154,40.054 -0.0335,0.049 -0.057,0.104 -0.0691,0.162 -0.0122,0.058 -0.0128,0.118 -0.0019,0.177 0.011,0.058 0.0333,0.113 0.0657,0.163 0.0324,0.05 0.0743,0.092 0.1232,0.126 0.0489,0.033 0.104,0.057 0.162,0.069 0.058,0.012 0.1178,0.013 0.1761,0.002 0.0582,-0.011 0.1137,-0.033 0.1634,-0.066 0.0496,-0.032 0.0924,-0.074 0.1258,-0.123 0,0 10.1718,-14.947 10.9711,-40.536 8e-4,-0.022 0,-0.044 -0.0024,-0.066 -0.2331,-1.9654 0.2559,-4.9833 0.8207,-7.4687 0.5649,-2.4853 1.191,-4.4526 1.191,-4.4526 0.0224,-0.0679 0.0282,-0.1403 0.0171,-0.211 -0.0112,-0.0707 -0.0389,-0.1378 -0.0811,-0.1956 -0.0422,-0.0578 -0.0975,-0.1048 -0.1614,-0.137 -0.0639,-0.0323 -0.1346,-0.0488 -0.2062,-0.0483 z"
         inkscape:connector-curvature="0"
         style="fill:#1e88e5" />
      <path
         id="path20"
         d="m 40.9325,137.101 c -0.1041,0.003 -0.2037,0.043 -0.282,0.112 -0.0782,0.068 -0.1302,0.162 -0.1472,0.265 0,0 -1.3856,7.7 -1.6886,10.893 -0.2868,3.024 -1.7478,6.655 -2.4503,8.665 -0.2675,0.765 0.105,1.583 0.625,2.469 0.5199,0.886 1.2603,1.841 2.0187,2.733 1.5169,1.785 3.1131,3.309 3.1131,3.309 l 0.0047,0.005 0.0024,0.002 c 0.7355,0.674 1.4182,1.02 2.0494,1.074 0.6312,0.053 1.1914,-0.231 1.5141,-0.677 0.6454,-0.893 0.5075,-2.304 -0.4528,-3.333 v -0.002 h -0.0025 c -0.8116,-0.856 -1.6213,-1.572 -2.0753,-2.377 -0.4541,-0.806 -0.6176,-1.69 -0.1061,-3.111 0.5362,-1.49 1.0107,-2.358 1.389,-2.726 0.1892,-0.184 0.3332,-0.247 0.4859,-0.267 0.1526,-0.019 0.3398,0.011 0.5896,0.121 0.3391,0.148 0.699,0.822 0.8843,1.518 0.1854,0.696 0.2335,1.337 0.2335,1.337 l 0.0024,0.01 v 0.007 c 0,0 0.066,0.703 0.434,1.349 0.184,0.323 0.4565,0.652 0.8678,0.835 0.4114,0.183 0.9342,0.185 1.4929,-0.04 0.7571,-0.305 1.219,-0.889 1.4079,-1.523 0.189,-0.634 0.1474,-1.307 0.0283,-1.925 -0.238,-1.235 -0.8089,-2.297 -0.8089,-2.297 l -0.0047,-0.005 -0.0024,-0.007 c 0,0 -0.7145,-1.248 -1.4528,-2.648 -0.3691,-0.701 -0.7439,-1.44 -1.0353,-2.073 -0.2914,-0.634 -0.4977,-1.196 -0.5283,-1.389 -0.0288,-0.183 0.0135,-0.673 0.1298,-1.229 0.1163,-0.556 0.293,-1.201 0.4763,-1.807 0.3667,-1.211 0.7571,-2.268 0.7571,-2.268 0.0245,-0.057 0.0373,-0.117 0.0376,-0.179 3e-4,-0.061 -0.0119,-0.122 -0.0359,-0.178 -0.024,-0.057 -0.0592,-0.108 -0.1036,-0.15 -0.0444,-0.042 -0.0969,-0.075 -0.1544,-0.097 -0.0575,-0.021 -0.1188,-0.03 -0.1801,-0.027 -0.0612,0.003 -0.1212,0.018 -0.1763,0.046 -0.055,0.027 -0.1039,0.065 -0.1438,0.111 -0.0398,0.047 -0.0697,0.101 -0.0878,0.16 0,0 -0.3999,1.081 -0.7759,2.323 -0.188,0.621 -0.3725,1.281 -0.4976,1.88 -0.1251,0.598 -0.207,1.112 -0.1368,1.556 0.0685,0.433 0.2962,0.967 0.599,1.625 0.3028,0.658 0.6829,1.407 1.0566,2.115 0.7438,1.412 1.4557,2.654 1.4621,2.665 0,0 0.5142,0.979 0.7193,2.043 0.1026,0.532 0.1211,1.075 -0.0047,1.497 -0.1257,0.422 -0.3543,0.734 -0.8796,0.946 -0.3913,0.158 -0.6172,0.13 -0.7924,0.052 -0.1753,-0.078 -0.3273,-0.241 -0.4505,-0.458 -0.2463,-0.432 -0.3207,-1 -0.3207,-1 -0.0011,-0.015 -0.0509,-0.707 -0.2594,-1.49 -0.2108,-0.792 -0.5446,-1.738 -1.3938,-2.111 -0.3444,-0.151 -0.7018,-0.237 -1.066,-0.191 -0.3642,0.046 -0.7087,0.231 -1.0023,0.517 -0.5873,0.571 -1.053,1.528 -1.6061,3.066 -0.5779,1.606 -0.3935,2.863 0.1675,3.858 0.561,0.995 1.4345,1.742 2.2074,2.556 0.6977,0.75 0.6962,1.745 0.3773,2.187 -0.1596,0.22 -0.3568,0.336 -0.7075,0.306 -0.3506,-0.03 -0.8728,-0.252 -1.514,-0.839 -0.007,-0.008 -1.5693,-1.501 -3.0447,-3.236 -0.7394,-0.87 -1.4534,-1.799 -1.9268,-2.606 -0.4734,-0.807 -0.6309,-1.488 -0.5518,-1.715 0.6839,-1.957 2.1901,-5.635 2.4975,-8.874 0.2912,-3.07 1.6791,-10.82 1.6791,-10.82 0.0132,-0.067 0.011,-0.136 -0.0063,-0.202 -0.0173,-0.066 -0.0492,-0.127 -0.0935,-0.179 -0.0442,-0.051 -0.0996,-0.092 -0.1619,-0.12 -0.0624,-0.027 -0.1301,-0.04 -0.1981,-0.037 z"
         inkscape:connector-curvature="0"
         style="fill:#1e88e5" />
      <path
         id="path22"
         d="m 103.618,137.471 c -5.0126,4.557 -8.3139,8.064 -10.7258,10.471 -2.4118,2.407 -3.9315,3.66 -5.2497,3.868 -0.6591,0.103 -1.3029,-0.021 -2.1013,-0.425 -0.7984,-0.404 -1.7336,-1.092 -2.8796,-2.073 -2.2918,-1.962 -5.4318,-5.075 -10.2305,-9.334 l -0.5991,0.674 c 4.7817,4.244 7.9047,7.341 10.2448,9.344 1.17,1.002 2.1442,1.734 3.0564,2.196 0.9122,0.461 1.7813,0.645 2.6485,0.509 1.7343,-0.273 3.317,-1.697 5.7473,-4.122 2.4303,-2.426 5.7093,-5.906 10.698,-10.441 z"
         inkscape:connector-curvature="0"
         style="fill:#1e88e5" />
      <path
         id="path24"
         d="m 63.4456,124.325 c -0.0779,0.007 -0.1529,0.033 -0.2175,0.077 -0.0647,0.044 -0.1168,0.104 -0.1513,0.174 -0.0344,0.07 -0.0501,0.148 -0.0454,0.226 0.0047,0.078 0.0296,0.154 0.0723,0.219 0,0 3.306,5.103 1.4739,11.686 -9.2415,33.204 -0.9905,63.084 -0.9905,63.084 0.023,0.083 0.0697,0.159 0.1344,0.217 l 5.1507,4.594 c 0.0634,0.056 0.1413,0.093 0.2249,0.107 0.0836,0.014 0.1694,0.005 0.2477,-0.028 0.0783,-0.032 0.1458,-0.086 0.1949,-0.155 0.049,-0.069 0.0776,-0.151 0.0825,-0.236 1.2239,-20.452 13.2081,-36.182 0.5518,-71.51 -1.0719,-3.214 -2.6806,-5.318 -4.0304,-6.613 -1.3514,-1.297 -2.4787,-1.804 -2.4787,-1.804 -0.0688,-0.031 -0.1442,-0.044 -0.2193,-0.038 z m 1.0731,1.757 c 0.3857,0.259 0.4323,0.191 0.9999,0.736 1.2587,1.208 2.7804,3.181 3.8041,6.257 7e-4,0.003 0.0015,0.006 0.0024,0.01 12.3831,34.565 1.0276,49.951 -0.4976,70.267 l -4.396,-3.92 c -0.094,-0.343 -8.0969,-29.741 1.0164,-62.484 1.521,-5.465 -0.0638,-9.164 -0.9292,-10.865 z"
         inkscape:connector-curvature="0"
         style="fill:#1e88e5" />
      <path
         id="path26"
         d="m 75.1854,156.956 c -0.0782,0 -0.155,0.021 -0.2228,0.06 -0.0677,0.039 -0.1241,0.095 -0.1636,0.163 -0.0395,0.068 -0.0607,0.144 -0.0616,0.223 -9e-4,0.078 0.0186,0.155 0.0565,0.223 0,0 2.2731,4.237 4.5281,9.483 2.255,5.247 4.4701,11.536 4.4031,15.422 -0.07,4.06 -0.1747,10.33 -0.4717,15.928 -0.1485,2.799 -0.346,5.429 -0.6085,7.523 -0.2624,2.095 -0.6376,3.693 -0.9575,4.226 -0.7022,1.172 -3.0854,2.466 -5.502,3.073 -1.2084,0.304 -2.4247,0.452 -3.4244,0.397 -0.9697,-0.054 -1.6767,-0.325 -2.0494,-0.71 -0.9401,-3.246 -1.0426,-5.309 -1.0896,-8.71 0.0021,-0.061 -0.0083,-0.122 -0.0305,-0.178 -0.0222,-0.057 -0.0557,-0.109 -0.0985,-0.153 -0.0429,-0.043 -0.0941,-0.078 -0.1506,-0.101 -0.0565,-0.023 -0.1171,-0.035 -0.1782,-0.034 -0.0611,0.001 -0.1213,0.015 -0.1771,0.04 -0.0558,0.025 -0.1059,0.061 -0.1473,0.105 -0.0414,0.045 -0.0733,0.098 -0.0937,0.156 -0.0204,0.057 -0.0289,0.118 -0.0249,0.179 0.0479,3.471 0.1434,5.671 1.1555,9.101 l 0.0307,0.097 0.066,0.076 c 0.617,0.692 1.6113,0.97 2.7381,1.033 1.1268,0.062 2.415,-0.101 3.6932,-0.423 2.5564,-0.642 5.0779,-1.85 6.0563,-3.483 0.5204,-0.869 0.8106,-2.446 1.0778,-4.578 0.2671,-2.131 0.464,-4.778 0.6131,-7.589 0.2983,-5.622 0.4041,-11.901 0.4741,-15.961 0.073,-4.234 -2.204,-10.505 -4.4762,-15.792 -2.2723,-5.286 -4.5611,-9.554 -4.5611,-9.554 -0.0383,-0.073 -0.0963,-0.135 -0.1674,-0.178 -0.0712,-0.043 -0.1528,-0.065 -0.2359,-0.064 z"
         inkscape:connector-curvature="0"
         style="fill:#1e88e5" />
      <path
         id="path28"
         d="m 86.1256,151.668 c -0.1195,0.003 -0.233,0.053 -0.3156,0.139 -0.0827,0.086 -0.1278,0.202 -0.1254,0.321 0,0 0.1229,17.957 -1.9598,28.789 -0.0151,0.059 -0.0179,0.121 -0.0082,0.182 0.0098,0.06 0.0318,0.119 0.0648,0.17 0.033,0.052 0.0762,0.097 0.127,0.131 0.0508,0.035 0.1082,0.059 0.1685,0.07 0.0604,0.012 0.1225,0.011 0.1825,-0.002 0.06,-0.014 0.1166,-0.039 0.1665,-0.075 0.0498,-0.036 0.0918,-0.082 0.1233,-0.134 0.0315,-0.053 0.0519,-0.112 0.0599,-0.173 2.1187,-11.018 1.9787,-28.965 1.9787,-28.965 3e-4,-0.06 -0.0116,-0.12 -0.0348,-0.176 -0.0233,-0.056 -0.0575,-0.106 -0.1006,-0.148 -0.0431,-0.042 -0.0942,-0.076 -0.1504,-0.098 -0.0561,-0.022 -0.1161,-0.032 -0.1764,-0.031 z"
         inkscape:connector-curvature="0"
         style="fill:#1e88e5" />
      <path
         id="path30"
         d="m 61.9573,209.481 c -0.1041,0.004 -0.2037,0.043 -0.282,0.112 -0.0782,0.069 -0.1302,0.163 -0.1472,0.265 0,0 -5.121,27.891 4.6837,55.349 0.0198,0.056 0.0505,0.107 0.0902,0.151 0.0397,0.044 0.0877,0.08 0.1412,0.106 0.0536,0.025 0.1116,0.04 0.1709,0.043 0.0592,0.003 0.1185,-0.006 0.1744,-0.025 0.0559,-0.02 0.1073,-0.051 0.1514,-0.091 0.0441,-0.039 0.0799,-0.087 0.1054,-0.141 0.0255,-0.053 0.0402,-0.112 0.0433,-0.171 0.0031,-0.059 -0.0056,-0.118 -0.0254,-0.174 -9.7061,-27.181 -4.6483,-54.886 -4.6483,-54.886 0.013,-0.067 0.0109,-0.136 -0.0062,-0.201 -0.0172,-0.066 -0.0489,-0.127 -0.0929,-0.179 -0.044,-0.051 -0.0991,-0.092 -0.1611,-0.12 -0.0621,-0.027 -0.1295,-0.04 -0.1974,-0.038 z"
         inkscape:connector-curvature="0"
         style="fill:#1e88e5" />
      <path
         id="path32"
         d="m 63.0351,124.714 c 0,0 -0.7585,5.593 -2.8607,18.924 C 57.9908,157.485 57.655,161.919 58.25,173 v 0.009 l 0.0024,0.012 c 1.3851,14.184 2.2057,29.45 3.2734,36.982 0.0844,0.595 0.1425,0.959 0.408,1.269 0.1328,0.154 0.4385,0.28 0.6698,0.207 0.2313,-0.073 0.3419,-0.218 0.441,-0.361 0.3966,-0.569 0.6612,-1.565 0.9316,-2.879 0.5406,-2.629 0.9107,-6.323 0.4905,-8.648 l -0.8891,0.16 c 0.372,2.059 0.0388,5.766 -0.4835,8.306 -0.207,1.007 -0.4401,1.584 -0.6273,2.019 -0.0241,-0.103 -0.0307,-0.068 -0.0495,-0.201 -1.0523,-7.422 -1.88,-22.718 -3.2663,-36.922 -0.5934,-11.05 -0.2663,-15.343 1.9149,-29.175 2.1031,-13.336 2.8631,-18.941 2.8631,-18.941 z"
         inkscape:connector-curvature="0"
         style="fill:#1e88e5" />
      <path
         id="path34"
         d="m 79.7983,252.938 c -0.1116,0.001 -0.2189,0.043 -0.3013,0.119 -0.0823,0.075 -0.1338,0.178 -0.1444,0.289 0,0 -0.6406,5.744 -0.9858,11.705 -0.1726,2.98 -0.2722,6.014 -0.1792,8.429 0.0464,1.207 0.1406,2.256 0.3042,3.085 0.1636,0.828 0.3392,1.46 0.8466,1.823 l -0.0849,-0.081 c 2.28,2.752 1.1816,6.139 1.1816,6.139 -0.0039,0.011 -1.1973,3.518 -0.0896,7.665 0.6023,2.255 0.4143,3.953 0.0896,5.087 -0.2913,1.017 -0.6105,1.398 -0.6863,1.497 l -17.7396,-0.077 c 0.25,-1.348 0.8131,-2.174 1.3985,-2.597 0.6662,-0.481 1.2617,-0.549 1.2617,-0.549 l 0.2972,-0.034 0.0849,-0.287 c 0,0 1.1352,-3.958 5.2638,-7.882 l 0.1816,-0.172 -0.0519,-0.248 c -0.6465,-3.07 0.0108,-6.555 0.2854,-8.693 0.2539,-1.977 -0.7002,-5.201 -1.6744,-8.042 -0.9743,-2.84 -2.0046,-5.238 -2.0046,-5.238 -0.0216,-0.057 -0.0544,-0.109 -0.0966,-0.153 -0.0422,-0.044 -0.0929,-0.079 -0.149,-0.103 -0.0561,-0.023 -0.1165,-0.036 -0.1774,-0.035 -0.061,0 -0.1213,0.012 -0.1773,0.036 -0.056,0.024 -0.1066,0.06 -0.1486,0.104 -0.042,0.044 -0.0746,0.096 -0.0959,0.153 -0.0213,0.057 -0.0307,0.118 -0.0278,0.179 0.0029,0.061 0.0181,0.121 0.0448,0.176 0,0 1.0172,2.37 1.9786,5.174 0.9615,2.803 1.8312,6.101 1.6344,7.634 -0.2597,2.021 -0.8971,5.489 -0.2854,8.738 -3.9926,3.871 -5.1909,7.63 -5.2804,7.924 -0.2195,0.039 -0.69,0.08 -1.3914,0.587 -0.8491,0.613 -1.7316,1.77 -1.9103,3.736 l -0.0448,0.488 19.3127,0.087 0.1368,-0.17 c 0,0 0.5635,-0.708 0.9291,-1.986 0.3657,-1.277 0.5566,-3.157 -0.0872,-5.568 -1.035,-3.875 0.0755,-7.145 0.0755,-7.145 v -0.003 l 0.0024,-0.005 c 0,0 1.2583,-3.851 -1.3443,-6.992 l -0.0377,-0.045 -0.0472,-0.035 c -0.0819,-0.059 -0.3404,-0.514 -0.4882,-1.262 -0.1478,-0.749 -0.2423,-1.766 -0.2877,-2.946 -0.0908,-2.36 0.0075,-5.376 0.1792,-8.341 0.3434,-5.93 0.9811,-11.658 0.9811,-11.658 0.008,-0.063 0.0023,-0.128 -0.0168,-0.189 -0.019,-0.062 -0.0509,-0.118 -0.0935,-0.166 -0.0427,-0.048 -0.0951,-0.087 -0.1537,-0.113 -0.0587,-0.026 -0.1222,-0.039 -0.1864,-0.039 z"
         inkscape:connector-curvature="0"
         style="fill:#1e88e5" />
      <path
         id="path36"
         d="m 81.0271,211.115 c -0.0665,0.004 -0.1314,0.023 -0.1899,0.055 -0.0586,0.032 -0.1093,0.076 -0.1485,0.13 -0.0393,0.054 -0.0661,0.116 -0.0785,0.181 -0.0124,0.066 -0.0102,0.133 0.0066,0.198 4.8034,19.43 -1.2523,41.597 -1.2523,41.597 -0.0158,0.057 -0.0202,0.117 -0.0129,0.176 0.0072,0.058 0.026,0.115 0.0552,0.167 0.0293,0.051 0.0684,0.097 0.1151,0.133 0.0468,0.037 0.1003,0.063 0.1574,0.079 0.0571,0.016 0.1168,0.02 0.1757,0.013 0.0588,-0.007 0.1157,-0.026 0.1672,-0.055 0.0516,-0.029 0.0969,-0.068 0.1334,-0.115 0.0364,-0.047 0.0633,-0.1 0.0791,-0.158 0,0 6.1433,-22.296 1.2594,-42.052 -0.024,-0.104 -0.084,-0.196 -0.1695,-0.26 -0.0855,-0.064 -0.1909,-0.095 -0.2975,-0.089 z"
         inkscape:connector-curvature="0"
         style="fill:#1e88e5" />
      <path
         id="path38"
         d="m 95.1938,252.939 c -0.063,0.001 -0.125,0.016 -0.1819,0.043 -0.057,0.027 -0.1076,0.066 -0.1488,0.113 -0.0411,0.048 -0.0717,0.104 -0.0899,0.164 -0.0182,0.061 -0.0235,0.124 -0.0157,0.187 0,0 0.6376,5.727 0.9811,11.657 0.1717,2.965 0.27,5.981 0.1792,8.342 -0.0454,1.18 -0.1399,2.197 -0.2877,2.945 -0.1478,0.749 -0.4039,1.204 -0.4858,1.262 l -0.0495,0.035 -0.0377,0.045 c -2.6026,3.141 -1.3443,6.993 -1.3443,6.993 l 0.0024,0.005 v 0.002 c 0,0 1.1105,3.271 0.0755,7.146 -0.6438,2.41 -0.4505,4.291 -0.0849,5.568 0.3657,1.277 0.9269,1.986 0.9269,1.986 l 0.1367,0.169 19.3126,-0.087 -0.045,-0.488 c -0.178,-1.966 -1.061,-3.122 -1.91,-3.736 -0.701,-0.506 -1.172,-0.548 -1.391,-0.587 -0.09,-0.294 -1.286,-4.054 -5.281,-7.926 0.611,-3.248 -0.023,-6.715 -0.283,-8.736 -0.197,-1.533 0.671,-4.83 1.632,-7.634 0.962,-2.803 1.981,-5.174 1.981,-5.174 0.024,-0.055 0.036,-0.113 0.037,-0.172 10e-4,-0.06 -0.01,-0.119 -0.032,-0.174 -0.022,-0.055 -0.055,-0.105 -0.096,-0.147 -0.042,-0.043 -0.091,-0.077 -0.146,-0.1 -0.054,-0.024 -0.113,-0.036 -0.172,-0.037 -0.06,0 -0.118,0.01 -0.173,0.032 -0.056,0.023 -0.106,0.055 -0.148,0.097 -0.043,0.041 -0.077,0.09 -0.1,0.145 0,0 -1.03,2.397 -2.005,5.238 -0.974,2.84 -1.928,6.064 -1.674,8.042 0.275,2.138 0.932,5.622 0.285,8.693 l -0.052,0.247 0.182,0.173 c 4.129,3.923 5.266,7.881 5.266,7.881 l 0.083,0.288 0.297,0.033 c 0,0 0.596,0.068 1.262,0.55 0.585,0.422 1.151,1.248 1.401,2.596 l -17.7424,0.078 c -0.0758,-0.099 -0.3949,-0.48 -0.6862,-1.498 -0.3247,-1.134 -0.5104,-2.831 0.092,-5.087 1.1076,-4.147 -0.0882,-7.653 -0.092,-7.664 0,0 -1.0985,-3.387 1.1815,-6.139 l -0.0849,0.08 c 0.5074,-0.362 0.6855,-0.995 0.849,-1.823 0.1636,-0.828 0.2554,-1.878 0.3019,-3.085 0.0928,-2.414 -0.006,-5.448 -0.1792,-8.428 -0.3453,-5.961 -0.9858,-11.705 -0.9858,-11.705 -0.0109,-0.114 -0.0644,-0.219 -0.1497,-0.295 -0.0853,-0.075 -0.1962,-0.116 -0.3102,-0.113 z"
         inkscape:connector-curvature="0"
         style="fill:#1e88e5" />
      <path
         id="path40"
         d="m 94.5735,211.667 c -0.0884,0.006 -0.1731,0.038 -0.2436,0.091 -0.0704,0.054 -0.1235,0.127 -0.1526,0.211 -2.4236,6.646 -2.2456,16.982 -1.4999,25.702 0.7457,8.719 2.0848,15.808 2.0848,15.808 0.011,0.058 0.0333,0.113 0.0657,0.163 0.0325,0.05 0.0744,0.092 0.1233,0.126 0.049,0.033 0.104,0.056 0.162,0.069 0.058,0.012 0.1178,0.012 0.1761,0.001 0.0582,-0.011 0.1137,-0.033 0.1633,-0.065 0.0496,-0.033 0.0923,-0.075 0.1257,-0.124 0.0334,-0.049 0.0568,-0.104 0.0689,-0.162 0.0121,-0.058 0.0127,-0.118 0.0017,-0.176 0,0 -1.3315,-7.049 -2.073,-15.718 -0.7414,-8.669 -0.866,-18.969 1.448,-25.315 0.027,-0.071 0.0357,-0.147 0.0255,-0.222 -0.0102,-0.074 -0.039,-0.146 -0.0839,-0.206 -0.0448,-0.061 -0.1042,-0.11 -0.1727,-0.142 -0.0685,-0.031 -0.1439,-0.046 -0.2193,-0.041 z"
         inkscape:connector-curvature="0"
         style="fill:#1e88e5" />
      <path
         id="path42"
         d="m 106.172,47.4756 -0.139,0.1085 c -2.089,1.6499 -2.639,3.1672 -2.564,4.2898 0.075,1.1226 0.767,1.8065 0.767,1.8065 l 0.054,0.0519 0.066,0.033 c 0,0 1.646,0.7814 3.922,2.9739 2.276,2.1926 5.149,5.7779 7.504,11.3508 1.98,4.6842 4.506,6.9148 6.566,7.943 2.06,1.0282 3.689,0.849 3.689,0.849 l 0.384,-0.0448 0.012,-0.3891 c 0,0 0.085,-2.571 -0.019,-5.7686 -0.104,-3.1976 -0.385,-7.0124 -1.16,-9.5938 -1.62,-5.3929 -8.345,-12.752 -18.905,-13.596 z m 0.29,0.9575 c 10.053,0.8925 16.452,8.0026 17.926,12.912 0.721,2.4007 1.022,6.1966 1.125,9.3627 0.095,2.9178 0.027,4.9068 0.017,5.2639 -0.43,0.0088 -1.337,-0.0255 -2.779,-0.7452 -1.86,-0.9286 -4.225,-2.9591 -6.138,-7.4855 -2.404,-5.6876 -5.353,-9.3798 -7.71,-11.6503 -2.357,-2.2705 -4.155,-3.139 -4.155,-3.139 l 0.12,0.0849 c 0,0 -0.445,-0.4325 -0.498,-1.224 -0.051,-0.7639 0.323,-1.9206 2.092,-3.3795 z"
         inkscape:connector-curvature="0"
         style="fill:#1e88e5" />
      <path
         id="path44"
         d="m 104.189,53.3433 -0.005,0.0024 c 0,0 -4.3657,0.6178 -10.5136,3.297 -1.5443,0.673 -2.5488,2.3397 -3.1909,4.4573 -0.642,2.1176 -0.9226,4.688 -1.0093,7.1741 -0.1736,4.9722 0.4221,9.608 0.4221,9.608 l 0.0024,0.0141 0.0121,0.0024 c 0,0 5.1897,1.5742 11.2472,1.4481 6.057,-0.1262 12.985,-1.9546 16.459,-8.7613 l 0.005,-0.0072 -0.003,-0.0094 c -3.118,-7.0821 -6.474,-11.3862 -9.049,-13.9214 -2.575,-2.5351 -4.372,-3.3017 -4.372,-3.3017 z m -0.005,0.0401 c 0.007,0.0029 1.789,0.7631 4.356,3.2899 2.57,2.5302 5.919,6.8312 9.035,13.9025 -3.467,6.784 -10.376,8.6071 -16.424,8.733 -6.0394,0.1258 -11.2029,-1.4402 -11.221,-1.4456 -0.0012,-0.0136 -0.5929,-4.6281 -0.4197,-9.5891 0.0867,-2.4842 0.3642,-5.0501 1.0046,-7.1624 0.6404,-2.1123 1.6435,-3.7676 3.172,-4.4337 6.139,-2.6753 10.4901,-3.2937 10.4971,-3.2946 z"
         inkscape:connector-curvature="0"
         style="fill:#1e88e5" />
      <path
         id="path46"
         d="m 100.394,79.2051 c -0.257,0.3161 -0.282,0.644 -0.347,1.1461 -0.0643,0.5022 -0.1021,1.1516 -0.1198,1.9386 -0.0355,1.5741 0.0175,3.6938 0.1578,6.1931 0.281,4.9985 0.911,11.5063 1.894,18.0911 0.978,6.557 1.145,9.595 0.91,11.447 -0.234,1.853 -0.875,2.614 -1.592,4.729 -0.744,2.196 -0.662,5.123 0.015,7.396 0.338,1.136 0.82,2.114 1.504,2.752 0.684,0.638 1.651,0.88 2.599,0.446 l 0.175,-0.083 0.063,-0.182 c 1.169,-3.405 2.692,-5.374 3.906,-6.494 1.213,-1.121 2.07,-1.38 2.07,-1.38 l 0.288,-0.09 0.026,-0.297 c 0,0 0.598,-6.068 -0.524,-9.879 -0.884,-3.006 -1.94,-6.126 -1.544,-8.955 0.198,-1.197 0.871,-2.065 1.655,-3.125 0.786,-1.061 1.66,-2.303 2.054,-4.1691 l 0.008,-0.0236 0.931,-9.0821 -0.898,-0.0919 -0.925,9.0184 c -0.357,1.6783 -1.119,2.7673 -1.894,3.8133 -0.775,1.048 -1.583,2.064 -1.823,3.519 v 0.005 l -0.002,0.004 c -0.44,3.133 0.697,6.364 1.573,9.342 0.993,3.374 0.524,9.036 0.498,9.351 -0.231,0.086 -0.948,0.308 -2.104,1.375 -1.288,1.189 -2.833,3.269 -4.033,6.624 -0.589,0.226 -1.025,0.121 -1.483,-0.306 -0.494,-0.46 -0.948,-1.308 -1.257,-2.349 -0.62,-2.082 -0.678,-4.914 -0.021,-6.851 0.683,-2.019 1.373,-2.88 1.629,-4.903 0.256,-2.023 0.072,-5.113 -0.91,-11.695 -0.978,-6.5549 -1.608,-13.0397 -1.887,-18.0064 -0.139,-2.4834 -0.192,-4.5893 -0.158,-6.1247 0.017,-0.7677 0.058,-1.3925 0.116,-1.8419 0.058,-0.4494 0.198,-0.7511 0.151,-0.6933 z"
         inkscape:connector-curvature="0"
         style="fill:#1e88e5" />
      <path
         id="path48"
         d="m 117.657,69.5688 -0.453,0.783 c -1.013,1.7569 -2.531,3.4635 -4.039,4.8347 l -0.133,0.1202 -0.014,0.1769 c 0,0 -0.284,3.4798 -0.169,7.3699 0.057,1.9451 0.213,3.9932 0.561,5.7804 0.348,1.7871 0.861,3.3207 1.778,4.2474 l 0.005,0.0048 0.002,0.0024 c 1.833,1.7793 2.347,3.0535 2.8,4.33 0.452,1.2764 0.844,2.594 2.342,4.1175 l 0.037,0.038 0.045,0.028 c 2.556,1.617 4.535,1.685 5.988,1.064 1.452,-0.621 2.339,-1.857 2.929,-2.6346 l 0.097,-0.1226 -0.005,-0.158 c -0.1,-5.4464 -0.498,-9.348 -1.689,-16.2491 -0.92,-5.3361 -1.318,-6.9737 -1.318,-6.9737 l -0.08,-0.3349 -0.347,-0.0094 c -5.682,-0.1514 -7.983,-5.5823 -7.983,-5.5823 z m -0.094,1.7429 c 0.427,0.8906 2.663,5.0937 8.03,5.4761 0.027,0.1125 0.372,1.534 1.257,6.6671 1.174,6.8051 1.564,10.6325 1.667,15.952 -0.588,0.7741 -1.347,1.7531 -2.464,2.2311 -1.163,0.497 -2.742,0.501 -5.106,-0.979 -1.334,-1.3756 -1.645,-2.4506 -2.104,-3.7426 -0.462,-1.3055 -1.089,-2.7961 -3.013,-4.6672 v -0.0024 c -0.67,-0.6775 -1.203,-2.0766 -1.536,-3.7852 -0.332,-1.7094 -0.488,-3.7189 -0.545,-5.6341 -0.111,-3.7644 0.156,-7.0305 0.166,-7.1458 1.35,-1.2469 2.631,-2.7704 3.648,-4.3701 z"
         inkscape:connector-curvature="0"
         style="fill:#1e88e5" />
      <path
         id="path50"
         d="m 134.031,137.1 c -0.067,0 -0.133,0.014 -0.194,0.042 -0.061,0.028 -0.115,0.069 -0.158,0.121 -0.043,0.051 -0.073,0.112 -0.09,0.177 -0.017,0.065 -0.019,0.132 -0.006,0.198 0,0 1.388,7.75 1.679,10.82 0.308,3.24 1.816,6.918 2.5,8.875 0.079,0.226 -0.081,0.907 -0.554,1.714 -0.473,0.807 -1.187,1.737 -1.927,2.606 -1.475,1.736 -3.035,3.229 -3.042,3.236 -0.641,0.588 -1.166,0.81 -1.516,0.84 -0.351,0.03 -0.548,-0.086 -0.708,-0.307 -0.319,-0.441 -0.318,-1.436 0.38,-2.186 l 0.002,-0.003 c 0.772,-0.813 1.645,-1.559 2.205,-2.554 0.561,-0.995 0.746,-2.252 0.168,-3.858 -0.553,-1.537 -1.022,-2.494 -1.609,-3.066 -0.293,-0.286 -0.638,-0.47 -1.002,-0.516 -0.364,-0.046 -0.722,0.039 -1.066,0.191 -0.849,0.373 -1.183,1.319 -1.394,2.11 -0.208,0.783 -0.258,1.476 -0.259,1.491 0,0 -0.075,0.567 -0.321,1 -0.123,0.216 -0.275,0.379 -0.45,0.457 -0.176,0.078 -0.399,0.106 -0.79,-0.052 -0.526,-0.211 -0.754,-0.523 -0.88,-0.945 -0.126,-0.422 -0.11,-0.966 -0.007,-1.498 0.205,-1.064 0.719,-2.042 0.719,-2.042 0.006,-0.011 0.718,-1.254 1.462,-2.665 0.374,-0.709 0.754,-1.457 1.057,-2.116 0.302,-0.658 0.53,-1.191 0.599,-1.624 0.07,-0.444 -0.012,-0.959 -0.137,-1.557 -0.125,-0.598 -0.307,-1.259 -0.495,-1.88 -0.376,-1.242 -0.776,-2.323 -0.776,-2.323 -0.021,-0.055 -0.052,-0.106 -0.093,-0.15 -0.04,-0.043 -0.088,-0.078 -0.142,-0.103 -0.054,-0.025 -0.112,-0.039 -0.172,-0.041 -0.059,-0.002 -0.118,0.007 -0.173,0.028 -0.056,0.02 -0.107,0.052 -0.151,0.092 -0.043,0.04 -0.078,0.089 -0.103,0.143 -0.025,0.054 -0.039,0.112 -0.041,0.171 -0.002,0.059 0.007,0.118 0.028,0.174 0,0 0.393,1.058 0.759,2.269 0.184,0.605 0.361,1.25 0.477,1.806 0.116,0.557 0.156,1.047 0.127,1.229 -0.03,0.193 -0.234,0.756 -0.526,1.389 -0.291,0.634 -0.666,1.373 -1.035,2.073 -0.738,1.401 -1.453,2.649 -1.453,2.649 l -0.005,0.007 -0.002,0.005 c 0,0 -0.571,1.061 -0.809,2.297 -0.119,0.617 -0.163,1.29 0.026,1.924 0.189,0.634 0.651,1.219 1.408,1.524 0.559,0.225 1.081,0.223 1.493,0.04 0.411,-0.183 0.686,-0.512 0.87,-0.835 0.368,-0.646 0.432,-1.349 0.432,-1.349 l 0.002,-0.007 v -0.01 c 0,0 0.048,-0.641 0.233,-1.337 0.186,-0.696 0.546,-1.37 0.885,-1.519 0.25,-0.11 0.437,-0.14 0.589,-0.12 0.153,0.019 0.297,0.082 0.486,0.266 0.379,0.368 0.853,1.236 1.389,2.726 0.512,1.422 0.348,2.306 -0.106,3.111 -0.454,0.806 -1.264,1.522 -2.075,2.377 l -0.003,0.003 c -0.96,1.029 -1.098,2.439 -0.452,3.332 0.322,0.447 0.883,0.731 1.514,0.677 0.631,-0.054 1.314,-0.399 2.049,-1.073 l 0.003,-0.002 0.004,-0.005 c 0,0 1.597,-1.525 3.113,-3.309 0.759,-0.892 1.499,-1.847 2.019,-2.733 0.52,-0.887 0.895,-1.704 0.627,-2.47 -0.702,-2.01 -2.165,-5.64 -2.452,-8.664 -0.303,-3.194 -1.689,-10.894 -1.689,-10.894 -0.017,-0.104 -0.071,-0.2 -0.152,-0.269 -0.08,-0.069 -0.183,-0.107 -0.289,-0.108 z"
         inkscape:connector-curvature="0"
         style="fill:#1e88e5" />
      <path
         id="path52"
         d="m 111.667,123.92 c -0.055,0.003 -0.108,0.017 -0.158,0.04 0,0 -1.125,0.508 -2.476,1.808 -1.352,1.301 -2.964,3.411 -4.035,6.639 -12.6503,35.41 -0.67,51.177 0.554,71.68 0.004,0.085 0.033,0.167 0.082,0.237 0.049,0.07 0.117,0.124 0.196,0.156 0.079,0.033 0.165,0.043 0.249,0.028 0.084,-0.014 0.162,-0.052 0.225,-0.109 l 5.148,-4.606 c 0.065,-0.058 0.112,-0.133 0.135,-0.217 0,0 8.25,-29.957 -0.991,-63.244 -1.832,-6.6 1.477,-11.717 1.477,-11.717 0.045,-0.07 0.07,-0.151 0.072,-0.234 0.002,-0.084 -0.019,-0.166 -0.061,-0.238 -0.042,-0.073 -0.103,-0.132 -0.177,-0.171 -0.074,-0.039 -0.157,-0.058 -0.24,-0.052 z m -1.007,1.759 c -0.864,1.702 -2.454,5.413 -0.931,10.896 9.113,32.828 1.107,62.299 1.014,62.642 l -4.396,3.929 c -1.526,-20.367 -12.881,-35.792 -0.498,-70.446 0.002,-0.003 0.003,-0.007 0.005,-0.01 1.024,-3.083 2.545,-5.062 3.804,-6.273 0.568,-0.547 0.616,-0.479 1.002,-0.738 z"
         inkscape:connector-curvature="0"
         style="fill:#1e88e5" />
      <path
         id="path54"
         d="m 89.0359,151.333 c -0.1194,0.001 -0.2336,0.049 -0.3176,0.134 -0.084,0.085 -0.1309,0.2 -0.1305,0.319 0,0 -0.1397,17.993 1.9787,29.039 0.008,0.061 0.0285,0.119 0.06,0.172 0.0315,0.053 0.0735,0.098 0.1233,0.134 0.0498,0.036 0.1065,0.062 0.1665,0.075 0.06,0.013 0.1221,0.014 0.1824,0.003 0.0604,-0.012 0.1177,-0.036 0.1685,-0.07 0.0508,-0.035 0.0941,-0.079 0.127,-0.131 0.033,-0.052 0.0551,-0.11 0.0648,-0.171 0.0097,-0.061 0.007,-0.123 -0.0081,-0.182 -2.0827,-10.86 -1.9598,-28.862 -1.9598,-28.862 0.0012,-0.06 -0.0098,-0.12 -0.0322,-0.176 -0.0223,-0.056 -0.0558,-0.107 -0.0982,-0.15 -0.0424,-0.043 -0.093,-0.077 -0.1488,-0.1 -0.0558,-0.023 -0.1156,-0.034 -0.176,-0.034 z"
         inkscape:connector-curvature="0"
         style="fill:#1e88e5" />
      <path
         id="path56"
         d="m 72.6739,19.26 c -0.4559,-0.069 -1.0543,-0.0705 -1.6178,0.191 -0.5635,0.2615 -1.0451,0.8468 -1.1792,1.7452 -0.1341,0.8983 0.0228,2.111 0.6014,3.8347 v 0.0047 l 0.0024,0.0047 c 0,0 0.2438,0.6537 0.9504,1.6532 0.7067,0.9996 1.8888,2.3819 3.8041,3.9432 0.0928,0.0757 0.212,0.1114 0.3312,0.0992 0.1192,-0.0122 0.2287,-0.0712 0.3043,-0.1641 0.0757,-0.0928 0.1114,-0.212 0.0992,-0.3312 -0.0121,-0.1192 -0.0711,-0.2287 -0.164,-0.3043 -1.8545,-1.5117 -2.9802,-2.8298 -3.639,-3.7616 -0.658,-0.9307 -0.8367,-1.4374 -0.8372,-1.4386 0,0 0,-0.0024 0,-0.0024 -0.5487,-1.6389 -0.6612,-2.7363 -0.5613,-3.4055 0.1002,-0.6712 0.3528,-0.9153 0.6674,-1.0613 0.6293,-0.292 1.691,0.0425 1.691,0.0425 0.0554,0.0209 0.1144,0.0307 0.1737,0.0288 0.0592,-0.0019 0.1175,-0.0155 0.1715,-0.0399 0.0539,-0.0244 0.1026,-0.0592 0.1431,-0.1024 0.0406,-0.0432 0.0722,-0.094 0.0931,-0.1495 0.0209,-0.0554 0.0307,-0.1144 0.0288,-0.1736 -0.0019,-0.0593 -0.0155,-0.1175 -0.0399,-0.1715 -0.0244,-0.054 -0.0592,-0.1027 -0.1025,-0.1432 -0.0432,-0.0405 -0.094,-0.0721 -0.1494,-0.093 0,0 -0.3153,-0.1362 -0.7712,-0.2052 z"
         inkscape:connector-curvature="0"
         style="fill:#1e88e5" />
      <path
         id="path58"
         d="m 101.625,19.26 c -0.456,0.0689 -0.771,0.2051 -0.771,0.2051 -0.058,0.0192 -0.111,0.0498 -0.156,0.0899 -0.045,0.0402 -0.082,0.089 -0.108,0.1437 -0.026,0.0547 -0.041,0.1141 -0.044,0.1746 -0.003,0.0606 0.007,0.121 0.028,0.1778 0.022,0.0567 0.054,0.1086 0.096,0.1525 0.041,0.0439 0.092,0.079 0.147,0.1031 0.056,0.0241 0.116,0.0368 0.176,0.0373 0.061,4e-4 0.121,-0.0113 0.177,-0.0346 0,0 1.062,-0.3344 1.691,-0.0424 0.314,0.146 0.569,0.3901 0.67,1.0612 0.1,0.6697 -0.013,1.7672 -0.562,3.4079 0,0.0012 -0.179,0.5079 -0.837,1.4386 -0.659,0.9318 -1.784,2.2499 -3.6389,3.7616 -0.046,0.0374 -0.0842,0.0836 -0.1123,0.1358 -0.0282,0.0523 -0.0458,0.1095 -0.0518,0.1685 -0.006,0.0591 -4e-4,0.1187 0.0167,0.1755 0.017,0.0569 0.045,0.1098 0.0825,0.1558 0.0375,0.046 0.0837,0.0841 0.1359,0.1123 0.0522,0.0281 0.1095,0.0457 0.1685,0.0517 0.059,0.0061 0.1186,4e-4 0.1755,-0.0166 0.0568,-0.0171 0.1097,-0.0451 0.1557,-0.0826 1.9152,-1.5612 3.0972,-2.9436 3.8042,-3.9432 0.706,-0.9995 0.95,-1.6532 0.95,-1.6532 v -0.0047 l 0.003,-0.0047 c 0.578,-1.7237 0.735,-2.9364 0.601,-3.8347 -0.134,-0.8984 -0.618,-1.4837 -1.181,-1.7452 -0.564,-0.2615 -1.16,-0.26 -1.616,-0.191 z"
         inkscape:connector-curvature="0"
         style="fill:#1e88e5" />
      <path
         id="path60"
         d="m 85.8097,81.2851 c -0.7909,-0.0758 -1.7517,0.1128 -2.7876,0.4056 -2.0718,0.5856 -4.4148,1.629 -5.6365,2.1792 l -0.2452,0.2806 c 0,0 -0.3636,1.2027 -0.5873,2.7263 -0.2236,1.5235 -0.3371,3.3766 0.2783,4.7922 l 0.7075,0.1603 c 0.3252,-0.2818 1.0163,-0.6397 1.849,-0.9622 0.8327,-0.3225 1.8128,-0.6256 2.764,-0.882 0.9512,-0.2564 1.8753,-0.4663 2.5942,-0.6037 0.3595,-0.0688 0.6677,-0.1193 0.8985,-0.1486 0.2309,-0.0293 0.4267,-0.0213 0.3703,-0.0307 0.2763,0.0461 0.5349,-0.1279 0.658,-0.2901 0.123,-0.1621 0.193,-0.3383 0.257,-0.5424 0.1282,-0.4081 0.2129,-0.9346 0.276,-1.5447 0.1253,-1.2117 0.153,-2.7386 0.099,-4.0635 V 82.759 c 0.0072,-0.4239 -0.1493,-0.8226 -0.4387,-1.0754 -0.2899,-0.2532 -0.6611,-0.3607 -1.0565,-0.3986 z m -0.0849,0.8985 c 0.282,0.027 0.4601,0.1032 0.5472,0.1793 0.087,0.076 0.134,0.1515 0.1297,0.3797 l 0.0024,0.0283 c 0.0537,1.2895 0.0251,2.8071 -0.0943,3.962 -0.0598,0.5775 -0.1469,1.0673 -0.2406,1.3655 -0.0386,0.1231 -0.0725,0.184 -0.0943,0.2217 -0.137,-0.0022 -0.2614,-0.0042 -0.4433,0.0189 -0.2593,0.0329 -0.5827,0.0868 -0.9552,0.158 -0.745,0.1424 -1.6844,0.3555 -2.6579,0.6179 -0.9734,0.2623 -1.979,0.5731 -2.8559,0.9127 -0.6197,0.2399 -1.0477,0.5173 -1.4929,0.7924 -0.3114,-1.0907 -0.3123,-2.5348 -0.125,-3.8112 0.1966,-1.3388 0.4695,-2.2337 0.5165,-2.3937 1.2477,-0.5602 3.4066,-1.5196 5.3063,-2.0565 0.9861,-0.2787 1.8935,-0.429 2.4574,-0.375 z"
         inkscape:connector-curvature="0"
         style="fill:#1e88e5" />
      <path
         id="path62"
         d="m 85.7581,90.7162 c -0.7914,-0.3378 -1.7473,-0.1869 -2.7758,0.1557 -2.0571,0.6851 -4.4832,2.2474 -6.2591,3.5776 l 0.2712,0.8113 -0.4363,-0.5684 c 0,0 -0.368,1.3662 -0.5943,3.0801 -0.2263,1.7138 -0.3388,3.7765 0.2854,5.3035 l 0.6108,0.239 c 2.0646,-0.983 4.1964,-1.422 5.8912,-1.597 1.6948,-0.175 3.0113,-0.074 3.2286,-0.035 0.1845,0.032 0.3935,-0.05 0.5023,-0.151 0.1088,-0.101 0.1624,-0.205 0.2075,-0.309 0.0904,-0.209 0.1399,-0.442 0.184,-0.727 0.0881,-0.5684 0.1321,-1.326 0.1533,-2.1764 0.0421,-1.69 -0.0149,-3.7276 -0.0708,-5.1601 0.0223,-0.6145 -0.0587,-1.126 -0.2617,-1.5447 -0.2032,-0.4187 -0.5406,-0.7297 -0.9363,-0.8986 z m -0.3538,0.8302 c 0.2146,0.0915 0.362,0.2215 0.4788,0.4622 0.1167,0.2407 0.1907,0.6061 0.1721,1.1202 v 0.033 c 0.0558,1.4235 0.1122,3.4717 0.0708,5.1342 -0.0208,0.8312 -0.0676,1.5696 -0.1439,2.061 -0.033,0.214 -0.0724,0.353 -0.1037,0.441 -0.5292,-0.072 -1.5806,-0.145 -3.2191,0.024 -1.624,0.167 -3.6387,0.615 -5.6483,1.483 -0.3563,-1.22 -0.3503,-2.9229 -0.1533,-4.4147 0.2054,-1.5561 0.5037,-2.6575 0.54,-2.7947 1.7198,-1.2761 4.0477,-2.7608 5.87,-3.3677 0.9316,-0.3103 1.7076,-0.3647 2.1367,-0.1816 z"
         inkscape:connector-curvature="0"
         style="fill:#1e88e5" />
      <path
         id="path64"
         d="m 82.3502,103.458 c -2.2204,0.199 -4.611,0.995 -5.8016,1.644 l 0.217,-0.054 -0.4458,0.38 c 0,0 -0.247,1.538 -0.3513,3.424 -0.1044,1.886 -0.0951,4.108 0.5259,5.627 l 0.5731,0.252 c 1.8043,-0.661 3.6922,-0.306 5.2379,0.255 0.7728,0.281 1.4555,0.609 1.9904,0.88 0.2675,0.135 0.4976,0.254 0.691,0.349 0.1934,0.094 0.322,0.169 0.526,0.205 0.2377,0.042 0.4526,-0.104 0.5471,-0.217 0.0944,-0.113 0.1418,-0.222 0.1887,-0.344 0.0938,-0.245 0.1627,-0.546 0.2287,-0.915 0.132,-0.738 0.2372,-1.731 0.3184,-2.819 0.1623,-2.175 0.2272,-4.706 0.1698,-6.169 v -0.005 c -0.0565,-1.072 -0.7103,-1.831 -1.5754,-2.188 -0.8651,-0.358 -1.9297,-0.404 -3.0399,-0.305 z m 0.0802,0.899 c 1.0286,-0.092 1.9773,-0.026 2.6154,0.238 0.6381,0.264 0.9783,0.635 1.0188,1.403 0.0543,1.396 -0.0084,3.921 -0.1674,6.059 -0.0799,1.07 -0.185,2.049 -0.3066,2.729 -0.0521,0.29 -0.1086,0.49 -0.158,0.641 -0.0279,-0.012 -0.0192,-0.006 -0.0495,-0.021 -0.1752,-0.086 -0.406,-0.206 -0.6793,-0.344 -0.5465,-0.277 -1.2635,-0.625 -2.0895,-0.925 -1.5064,-0.547 -3.4063,-0.837 -5.3134,-0.321 -0.4185,-1.25 -0.5268,-3.192 -0.4315,-4.914 0.0933,-1.687 0.278,-2.849 0.3113,-3.064 1.0636,-0.545 3.2682,-1.304 5.2497,-1.481 z"
         inkscape:connector-curvature="0"
         style="fill:#1e88e5" />
      <path
         id="path66"
         d="m 79.1898,116.161 c -1.0029,0.099 -1.8931,0.332 -2.5187,0.686 -0.0609,0.034 -0.113,0.082 -0.1523,0.139 -0.0393,0.058 -0.0647,0.124 -0.0741,0.193 -0.4007,2.954 -1.9152,17.499 4.3441,26.626 0.0142,0.02 0.0299,0.039 0.0472,0.057 0.9676,1.014 1.7729,1.575 2.4881,1.828 0.7151,0.253 1.3534,0.167 1.8112,-0.095 0.8,-0.457 1.0316,-1.215 1.0895,-1.424 0.0298,-0.038 0.0695,-0.078 0.0849,-0.109 0.0503,-0.098 0.068,-0.177 0.0896,-0.271 0.0433,-0.187 0.0759,-0.421 0.1062,-0.719 0.0606,-0.596 0.1088,-1.435 0.1485,-2.453 0.0796,-2.035 0.1237,-4.777 0.1439,-7.615 0.0405,-5.675 -0.013,-11.697 -0.0683,-13.162 0,-0.002 0,-0.003 0,-0.005 -0.054,-1.064 -0.6334,-1.907 -1.4386,-2.476 -0.8053,-0.569 -1.8328,-0.905 -2.9079,-1.085 -1.0751,-0.18 -2.1903,-0.215 -3.1932,-0.115 z m 0.0708,0.931 c 0.926,-0.097 1.9898,-0.091 2.9739,0.073 0.984,0.165 1.8932,0.478 2.5352,0.932 0.6421,0.454 1.0196,1.009 1.0589,1.785 0.0526,1.395 0.1088,7.452 0.0684,13.115 -0.0202,2.832 -0.0651,5.573 -0.1439,7.589 -0.0393,1.008 -0.087,1.836 -0.1438,2.394 -0.0284,0.279 -0.0611,0.495 -0.0873,0.608 -0.0024,0.01 0,0.004 -0.0024,0.012 -0.0517,0.055 -0.089,0.121 -0.1085,0.194 0,0 -0.2333,0.738 -0.724,1.019 -0.2453,0.14 -0.5459,0.208 -1.0613,0.026 -0.5085,-0.18 -1.2202,-0.653 -2.1107,-1.578 -5.8344,-8.548 -4.6111,-22.492 -4.2003,-25.678 0.4497,-0.213 1.1061,-0.403 1.9457,-0.491 z"
         inkscape:connector-curvature="0"
         style="fill:#1e88e5" />
      <path
         id="path68"
         d="m 88.8569,81.285 c -0.3955,0.0379 -0.7667,0.1454 -1.0566,0.3986 -0.2894,0.2527 -0.4461,0.6515 -0.4386,1.0754 0,8e-4 0,0.0016 0,0.0024 -0.054,1.3249 -0.0264,2.8518 0.099,4.0635 0.0631,0.6101 0.1477,1.1366 0.2759,1.5447 0.0641,0.2041 0.134,0.3803 0.2571,0.5424 0.123,0.1622 0.3817,0.3362 0.6579,0.2901 -0.0563,0.0094 0.1395,0.0013 0.3703,0.0307 0.2308,0.0293 0.5391,0.0798 0.8985,0.1486 0.719,0.1374 1.6431,0.3473 2.5942,0.6037 0.9512,0.2564 1.9313,0.5595 2.764,0.882 0.8328,0.3225 1.5239,0.6804 1.849,0.9622 l 0.7075,-0.1603 c 0.6155,-1.4156 0.5019,-3.2687 0.2783,-4.7922 -0.2237,-1.5236 -0.5872,-2.7263 -0.5872,-2.7263 l -0.2453,-0.2806 c -1.2216,-0.5502 -3.5647,-1.5936 -5.6365,-2.1792 -1.0359,-0.2928 -1.9967,-0.4814 -2.7876,-0.4056 z m 0.0848,0.8986 c 0.564,-0.054 1.4713,0.0962 2.4575,0.375 1.8987,0.5366 4.0582,1.4938 5.3063,2.0541 0.0466,0.1584 0.3197,1.056 0.5165,2.3961 0.1873,1.2763 0.1864,2.7205 -0.125,3.8111 -0.4452,-0.2751 -0.8732,-0.5525 -1.4929,-0.7924 -0.8769,-0.3396 -1.8825,-0.6503 -2.856,-0.9127 -0.9734,-0.2624 -1.9128,-0.4755 -2.6578,-0.6179 -0.3725,-0.0712 -0.6959,-0.1251 -0.9552,-0.158 -0.1819,-0.0231 -0.3063,-0.021 -0.4433,-0.0189 -0.0219,-0.0377 -0.0557,-0.0985 -0.0944,-0.2217 -0.0937,-0.2982 -0.1808,-0.788 -0.2405,-1.3655 -0.1194,-1.1549 -0.1481,-2.6725 -0.0943,-3.962 l 0.0024,-0.0283 c -0.0048,-0.2282 0.0426,-0.3037 0.1297,-0.3797 0.0871,-0.076 0.2652,-0.1522 0.5472,-0.1792 z"
         inkscape:connector-curvature="0"
         style="fill:#1e88e5" />
      <path
         id="path70"
         d="m 88.9089,90.7162 c -0.3957,0.1689 -0.7332,0.4799 -0.9363,0.8986 -0.2031,0.4187 -0.284,0.9302 -0.2618,1.5447 -0.0559,1.4325 -0.1129,3.4701 -0.0707,5.1601 0.0212,0.8504 0.0651,1.608 0.1533,2.1764 0.044,0.285 0.0936,0.518 0.1839,0.727 0.0452,0.104 0.0987,0.208 0.2076,0.309 0.1088,0.101 0.3177,0.183 0.5023,0.151 0.2173,-0.039 1.5338,-0.14 3.2286,0.035 1.6948,0.175 3.8266,0.614 5.8912,1.597 l 0.6108,-0.239 c 0.6242,-1.527 0.5116,-3.5897 0.2854,-5.3035 -0.2263,-1.7139 -0.5944,-3.0801 -0.5944,-3.0801 l -0.4362,0.5684 0.2712,-0.8113 c -1.7759,-1.3302 -4.202,-2.8925 -6.2591,-3.5776 -1.0286,-0.3426 -1.9844,-0.4935 -2.7758,-0.1557 z m 0.3537,0.8302 c 0.4291,-0.1832 1.2051,-0.1287 2.1367,0.1816 1.8223,0.6069 4.1502,2.0916 5.87,3.3677 0.0363,0.1372 0.3346,1.2386 0.54,2.7947 0.197,1.4918 0.203,3.1956 -0.1532,4.4146 -2.009,-0.867 -4.0249,-1.316 -5.6483,-1.483 -1.6385,-0.169 -2.69,-0.096 -3.2192,-0.024 -0.0314,-0.088 -0.0706,-0.227 -0.1037,-0.441 -0.0762,-0.4913 -0.1231,-1.2297 -0.1439,-2.0609 -0.0414,-1.6625 0.015,-3.7107 0.0708,-5.1342 v -0.033 c -0.0186,-0.5141 0.0554,-0.8795 0.1722,-1.1202 0.1167,-0.2407 0.2642,-0.3707 0.4787,-0.4622 z"
         inkscape:connector-curvature="0"
         style="fill:#1e88e5" />
      <path
         id="path72"
         d="m 92.3165,103.458 c -1.1101,-0.099 -2.1748,-0.053 -3.0399,0.305 -0.8651,0.357 -1.5189,1.116 -1.5754,2.188 v 0.005 c -0.0573,1.463 0.0073,3.994 0.1698,6.169 0.0812,1.088 0.1864,2.081 0.3184,2.819 0.066,0.368 0.135,0.67 0.2288,0.915 0.0468,0.122 0.0941,0.231 0.1886,0.344 0.0945,0.113 0.3095,0.259 0.5472,0.217 0.2039,-0.036 0.3325,-0.111 0.5259,-0.205 0.1934,-0.095 0.4235,-0.214 0.691,-0.349 0.5349,-0.271 1.2176,-0.599 1.9904,-0.88 1.5457,-0.561 3.4336,-0.916 5.238,-0.255 l 0.5731,-0.252 c 0.6209,-1.519 0.6302,-3.741 0.5259,-5.627 -0.1044,-1.886 -0.3514,-3.424 -0.3514,-3.424 l -0.4458,-0.38 0.217,0.054 c -1.1906,-0.649 -3.5812,-1.445 -5.8016,-1.644 z m -0.0801,0.899 c 1.9815,0.177 4.1861,0.936 5.2497,1.481 0.0332,0.215 0.218,1.377 0.3113,3.063 0.0953,1.723 -0.013,3.665 -0.4316,4.915 -1.9071,-0.516 -3.807,-0.226 -5.3134,0.321 -0.8259,0.3 -1.5406,0.648 -2.0871,0.924 -0.2733,0.139 -0.5064,0.259 -0.6816,0.345 -0.0303,0.015 -0.0216,0.008 -0.0495,0.021 -0.0495,-0.151 -0.106,-0.351 -0.158,-0.641 -0.1217,-0.68 -0.2268,-1.659 -0.3066,-2.729 -0.1595,-2.138 -0.2218,-4.663 -0.1675,-6.059 0.0405,-0.768 0.3808,-1.139 1.0189,-1.403 0.6381,-0.264 1.5868,-0.33 2.6154,-0.238 z"
         inkscape:connector-curvature="0"
         style="fill:#1e88e5" />
      <path
         id="path74"
         d="m 95.4767,116.161 c -1.003,-0.1 -2.1181,-0.065 -3.1932,0.115 -1.0751,0.18 -2.1026,0.516 -2.9079,1.085 -0.8052,0.569 -1.3846,1.412 -1.4386,2.476 0,0.002 0,0.003 0,0.005 -0.0553,1.465 -0.1088,7.487 -0.0683,13.162 0.0201,2.838 0.0643,5.58 0.1438,7.615 0.0397,1.018 0.0879,1.857 0.1486,2.453 0.0303,0.298 0.0629,0.532 0.1061,0.719 0.0216,0.094 0.0394,0.173 0.0896,0.271 0.0155,0.031 0.0551,0.071 0.0849,0.109 0.058,0.209 0.2896,0.967 1.0896,1.424 0.4577,0.262 1.0961,0.348 1.8112,0.095 0.7151,-0.253 1.5229,-0.814 2.4905,-1.828 0.0164,-0.018 0.0314,-0.037 0.0448,-0.057 6.2592,-9.127 4.7447,-23.672 4.3441,-26.626 -0.0095,-0.069 -0.0348,-0.135 -0.0741,-0.193 -0.0393,-0.057 -0.0915,-0.105 -0.1523,-0.139 -0.6256,-0.354 -1.5158,-0.587 -2.5188,-0.686 z m -0.0708,0.931 c 0.8397,0.088 1.4961,0.277 1.9457,0.491 0.4107,3.185 1.6355,17.124 -4.1955,25.673 -0.8937,0.93 -1.6057,1.402 -2.1155,1.582 -0.5153,0.183 -0.8159,0.114 -1.0613,-0.026 -0.4906,-0.28 -0.724,-1.019 -0.724,-1.019 -0.0191,-0.073 -0.0564,-0.14 -0.1084,-0.195 -0.0024,-0.008 -5e-4,-0.001 -0.0024,-0.01 -0.0262,-0.113 -0.0588,-0.329 -0.0873,-0.608 -0.0569,-0.559 -0.1045,-1.386 -0.1439,-2.394 -0.0787,-2.017 -0.1213,-4.757 -0.1415,-7.589 -0.0403,-5.663 0.0135,-11.72 0.0661,-13.115 0.0393,-0.777 0.4168,-1.332 1.0589,-1.786 0.642,-0.453 1.5512,-0.767 2.5352,-0.931 0.9841,-0.165 2.0479,-0.17 2.9739,-0.073 z"
         inkscape:connector-curvature="0"
         style="fill:#1e88e5" />
      <path
         id="path76"
         d="m 113.235,209.481 c -0.066,-0.001 -0.133,0.013 -0.193,0.041 -0.061,0.028 -0.115,0.069 -0.158,0.12 -0.042,0.052 -0.073,0.112 -0.09,0.176 -0.017,0.065 -0.019,0.133 -0.007,0.198 0,0 4.642,26.558 -4.844,54.896 -0.022,0.057 -0.033,0.118 -0.031,0.179 0.002,0.061 0.016,0.121 0.042,0.177 0.025,0.055 0.062,0.105 0.108,0.146 0.045,0.04 0.099,0.071 0.157,0.091 0.058,0.02 0.119,0.027 0.18,0.022 0.061,-0.005 0.12,-0.022 0.174,-0.051 0.054,-0.028 0.102,-0.067 0.141,-0.115 0.038,-0.048 0.066,-0.102 0.083,-0.161 9.568,-28.583 4.879,-55.339 4.879,-55.339 -0.017,-0.105 -0.07,-0.201 -0.151,-0.271 -0.08,-0.069 -0.183,-0.108 -0.29,-0.109 z"
         inkscape:connector-curvature="0"
         style="fill:#1e88e5" />
      <path
         id="path78"
         d="m 129.02,99.1026 c -0.086,8e-4 -0.17,0.0262 -0.242,0.0732 -0.072,0.047 -0.129,0.1135 -0.165,0.1918 -0.035,0.0783 -0.047,0.1651 -0.035,0.2502 0.012,0.0851 0.048,0.1649 0.104,0.23 0,0 0.388,0.4562 0.989,1.6602 0.6,1.205 1.389,3.131 2.127,5.99 1.475,5.72 2.738,15.172 1.832,30.032 -0.007,0.061 -0.003,0.123 0.015,0.182 0.017,0.059 0.046,0.114 0.085,0.162 0.04,0.047 0.088,0.086 0.143,0.114 0.055,0.028 0.115,0.044 0.176,0.048 0.062,0.004 0.124,-0.005 0.181,-0.025 0.058,-0.021 0.112,-0.054 0.156,-0.096 0.045,-0.042 0.081,-0.093 0.106,-0.15 0.024,-0.056 0.037,-0.117 0.037,-0.179 0.91,-14.934 -0.352,-24.48 -1.856,-30.312 -0.752,-2.915 -1.565,-4.904 -2.196,-6.169 -0.63,-1.2652 -1.101,-1.835 -1.101,-1.835 -0.043,-0.053 -0.097,-0.0956 -0.159,-0.1246 -0.062,-0.029 -0.129,-0.0436 -0.197,-0.0428 z"
         inkscape:connector-curvature="0"
         style="fill:#1e88e5" />
      <path
         id="path80"
         d="m 114.112,89.0819 c -0.07,0.0017 -0.139,0.0199 -0.201,0.053 -0.062,0.0332 -0.116,0.0804 -0.156,0.1379 -0.041,0.0576 -0.067,0.1238 -0.078,0.1934 -0.01,0.0697 -0.004,0.1408 0.018,0.2076 0,0 0.626,1.9673 1.191,4.4526 0.565,2.4853 1.054,5.5033 0.821,7.4686 -0.003,0.022 -0.004,0.044 -0.003,0.066 0.8,25.589 10.971,40.536 10.971,40.536 0.034,0.049 0.077,0.091 0.126,0.123 0.05,0.033 0.105,0.055 0.164,0.066 0.058,0.011 0.118,0.01 0.176,-0.002 0.058,-0.012 0.113,-0.036 0.162,-0.069 0.049,-0.034 0.091,-0.076 0.123,-0.126 0.032,-0.05 0.055,-0.105 0.066,-0.163 0.011,-0.059 0.01,-0.118 -0.002,-0.176 -0.012,-0.058 -0.036,-0.114 -0.069,-0.162 0,0 -10.024,-14.693 -10.816,-40.055 l -0.002,0.069 c 0.262,-2.2105 -0.264,-5.2505 -0.837,-7.776 -0.574,-2.5255 -1.21,-4.5257 -1.21,-4.5257 -0.029,-0.0942 -0.088,-0.1763 -0.168,-0.2338 -0.08,-0.0575 -0.177,-0.0872 -0.276,-0.0845 z"
         inkscape:connector-curvature="0"
         style="fill:#1e88e5" />
      <path
         id="path82"
         d="m 112.247,124.714 -0.893,0.123 c 0,0 0.76,5.604 2.863,18.94 2.179,13.822 2.506,18.123 1.915,29.154 -1.388,14.211 -2.216,29.517 -3.269,36.944 -0.021,0.145 -0.025,0.107 -0.052,0.214 -0.199,-0.442 -0.453,-1.084 -0.677,-2.143 -0.549,-2.594 -0.909,-6.356 -0.538,-8.41 l -0.886,-0.161 c -0.421,2.331 -0.025,6.075 0.542,8.757 0.284,1.341 0.567,2.368 0.967,2.95 0.1,0.146 0.207,0.287 0.429,0.368 0.223,0.082 0.542,-0.022 0.684,-0.177 0.284,-0.309 0.34,-0.674 0.425,-1.271 1.067,-7.531 1.888,-22.798 3.273,-36.981 v -0.012 l 0.002,-0.01 c 0.595,-11.081 0.26,-15.514 -1.924,-29.362 -2.102,-13.33 -2.861,-18.923 -2.861,-18.923 z"
         inkscape:connector-curvature="0"
         style="fill:#1e88e5" />
      <path
         id="path84"
         d="m 113.292,209.488 c -0.069,0.003 -0.136,0.021 -0.196,0.054 -0.061,0.033 -0.113,0.079 -0.153,0.135 l -2.578,3.615 c -0.022,0.032 -0.04,0.066 -0.054,0.102 0,0 -3.077,8.078 -5,18.562 -0.002,0.012 -0.003,0.024 -0.005,0.036 -1.114,10.785 -1.108,24.293 -2.047,30.493 0,0.004 -0.001,0.008 -0.002,0.012 -0.499,4.067 -1.59,7.291 -2.556,9.783 -0.9668,2.491 -1.8474,4.182 -1.8164,5.504 0.0024,0.115 0.048,0.224 0.1277,0.305 0.0797,0.082 0.1874,0.131 0.3015,0.136 l 1.0232,0.045 c 0.095,0.004 0.188,-0.022 0.266,-0.074 0.079,-0.052 0.139,-0.128 0.173,-0.216 0.331,-0.859 1.511,-4.039 2.679,-7.495 1.168,-3.456 2.323,-7.144 2.606,-9.134 l -0.023,0.09 c 0,0 3.051,-8.382 4.891,-15.978 0.829,-3.423 1.834,-8.148 2.625,-12.481 0.79,-4.332 1.372,-8.23 1.337,-10.157 -0.045,-2.913 -1.132,-12.933 -1.132,-12.933 -0.012,-0.114 -0.067,-0.219 -0.154,-0.294 -0.087,-0.075 -0.199,-0.114 -0.313,-0.11 z m -0.326,1.708 c 0.168,1.585 0.986,9.184 1.024,11.643 0,0.001 0,0.001 0,0.002 0.031,1.714 -0.536,5.667 -1.323,9.981 -0.787,4.314 -1.792,9.028 -2.615,12.428 -1.822,7.522 -4.861,15.882 -4.861,15.882 -0.011,0.029 -0.019,0.06 -0.024,0.092 -0.255,1.797 -1.402,5.53 -2.565,8.971 -1.117,3.301 -2.184,6.183 -2.557,7.16 l -0.1179,-0.005 c 0.0989,-0.906 0.7149,-2.422 1.6159,-4.743 0.978,-2.523 2.096,-5.832 2.608,-9.999 0.965,-6.389 0.945,-19.803 2.049,-30.503 1.899,-10.343 4.912,-18.272 4.939,-18.344 z"
         inkscape:connector-curvature="0"
         style="fill:#1e88e5" />
      <path
         id="path86"
         d="m 61.95,209.488 c -0.1076,0.005 -0.2097,0.049 -0.288,0.123 -0.0783,0.074 -0.1276,0.173 -0.1388,0.28 0,0 -1.0867,10.021 -1.132,12.934 -0.0351,1.927 0.5463,5.824 1.3371,10.157 0.7909,4.333 1.7959,9.058 2.6249,12.481 1.8396,7.595 4.8889,15.978 4.8889,15.978 l -0.0212,-0.092 c 0.283,1.99 1.4376,5.677 2.606,9.133 1.1684,3.457 2.3458,6.639 2.6767,7.498 0.0337,0.088 0.0945,0.164 0.1736,0.216 0.0792,0.052 0.1728,0.078 0.2674,0.074 l 1.0212,-0.045 c 0.1145,-0.005 0.2228,-0.053 0.303,-0.135 0.0802,-0.082 0.1261,-0.191 0.1286,-0.306 0.0309,-1.322 -0.8497,-3.013 -1.816,-5.504 -0.9662,-2.492 -2.0571,-5.717 -2.5564,-9.783 -8e-4,-0.004 -0.0016,-0.008 -0.0025,-0.012 -0.9385,-6.2 -0.9322,-19.708 -2.047,-30.494 -8e-4,-0.004 -0.0016,-0.008 -0.0024,-0.012 -1.6036,-12.419 -5.0304,-18.645 -5.0304,-18.645 -0.0086,-0.015 -0.0181,-0.029 -0.0283,-0.042 l -2.573,-3.611 c -0.0435,-0.063 -0.1023,-0.113 -0.1708,-0.147 -0.0685,-0.034 -0.1444,-0.05 -0.2207,-0.046 z m 0.3632,1.708 1.8443,2.587 c 0.0085,0.015 3.3362,6.032 4.9219,18.312 1.1056,10.707 1.0848,24.137 2.0517,30.525 0.5124,4.16 1.6309,7.467 2.6084,9.987 0.9001,2.321 1.5167,3.837 1.6155,4.743 l -0.1179,0.005 c -0.3728,-0.977 -1.4404,-3.859 -2.5565,-7.16 -1.1633,-3.441 -2.3125,-7.174 -2.5683,-8.971 -0.0038,-0.032 -0.0109,-0.062 -0.0212,-0.092 0,0 -3.0413,-8.36 -4.863,-15.882 -0.8235,-3.4 -1.8256,-8.114 -2.613,-12.428 -0.7874,-4.314 -1.3542,-8.266 -1.3231,-9.981 0,0 0,-0.001 0,-0.002 0.0383,-2.459 0.8534,-10.058 1.0212,-11.643 z"
         inkscape:connector-curvature="0"
         style="fill:#1e88e5" />
      <path
         id="path88"
         d="m 104.042,52.6592 -0.122,0.0165 c 0,0 -4.4304,0.6307 -10.6246,3.33 -1.7209,0.75 -2.7737,2.5513 -3.4338,4.7285 -0.6601,2.1773 -0.9383,4.7747 -1.0259,7.2827 -0.175,5.0159 0.4246,9.6787 0.4246,9.6787 l 0.0376,0.2901 0.2783,0.0849 c 0,0 5.2442,1.5947 11.3818,1.4669 6.137,-0.1279 13.271,-2.0113 16.836,-8.9972 l 0.097,-0.191 -0.085,-0.1958 c -3.139,-7.1275 -6.526,-11.4807 -9.141,-14.0558 -2.616,-2.5751 -4.507,-3.389 -4.507,-3.389 z m -0.129,0.9386 c 0.148,0.0652 1.707,0.7677 4.12,3.1437 2.499,2.4602 5.766,6.6834 8.83,13.5583 -3.407,6.4445 -10.015,8.2137 -15.924,8.3368 -5.698,0.1186 -10.3609,-1.2297 -10.7991,-1.3584 -0.0351,-0.2806 -0.5696,-4.4609 -0.4033,-9.2283 0.086,-2.4623 0.3659,-5.0013 0.9882,-7.0539 0.6223,-2.0526 1.5771,-3.5733 2.9291,-4.1625 5.9591,-2.5969 10.0701,-3.2081 10.2591,-3.2357 z"
         inkscape:connector-curvature="0"
         style="opacity:0.90249999;fill:#1e88e5" />
      <path
         id="path90"
         d="m 48.8002,101.775 c -0.073,0.003 -0.144,0.025 -0.2069,0.062 -0.0628,0.038 -0.1157,0.09 -0.1539,0.152 0,0 -7.0338,10.98 -6.3794,20.959 0.317,4.833 -0.0697,8.452 -0.533,10.858 -0.4632,2.405 -0.9905,3.568 -0.9905,3.568 -0.0266,0.054 -0.0419,0.114 -0.0451,0.174 -0.0033,0.06 0.0057,0.121 0.0264,0.178 0.0206,0.057 0.0525,0.109 0.0937,0.153 0.0412,0.045 0.0909,0.08 0.1462,0.105 0.0553,0.025 0.1149,0.038 0.1754,0.039 0.0606,0.001 0.1207,-0.01 0.1769,-0.032 0.0561,-0.023 0.1072,-0.057 0.15,-0.099 0.0429,-0.043 0.0768,-0.094 0.0996,-0.15 0,0 0.5745,-1.285 1.0518,-3.764 0.4774,-2.479 0.8715,-6.181 0.5495,-11.091 -0.6235,-9.509 6.2402,-20.414 6.2402,-20.414 0.0459,-0.07 0.0714,-0.151 0.0739,-0.235 0.0025,-0.083 -0.0181,-0.165 -0.0597,-0.238 -0.0415,-0.072 -0.1023,-0.131 -0.1756,-0.171 -0.0733,-0.04 -0.1562,-0.059 -0.2395,-0.054 z"
         inkscape:connector-curvature="0"
         style="fill:#1e88e5" />
      <path
         id="path92"
         d="m 54.281,100.565 c -0.1191,0.009 -0.2295,0.066 -0.3069,0.157 -0.0774,0.091 -0.1154,0.209 -0.1058,0.328 0,0 0.2363,3.581 0.375,7.814 0.1387,4.232 0.1705,9.141 -0.2076,11.669 -0.1836,1.227 -0.2214,2.087 -0.1674,2.712 0.054,0.625 0.1929,1.037 0.4669,1.311 0.2741,0.274 0.6634,0.303 0.8986,0.246 0.2351,-0.058 0.3985,-0.18 0.3985,-0.18 0.097,-0.07 0.162,-0.176 0.1808,-0.294 0.0188,-0.119 -0.0102,-0.24 -0.0805,-0.337 -0.0704,-0.097 -0.1764,-0.162 -0.2947,-0.18 -0.1183,-0.019 -0.2392,0.01 -0.3362,0.08 0,0 -0.0366,0.023 -0.0802,0.033 -0.0435,0.011 -0.0098,0.03 -0.0471,-0.007 -0.0375,-0.038 -0.1632,-0.237 -0.2076,-0.75 -0.0443,-0.513 -0.0144,-1.318 0.1628,-2.502 0.4038,-2.7 0.3538,-7.58 0.2146,-11.83 -0.1393,-4.249 -0.3774,-7.844 -0.3774,-7.844 -0.003,-0.06 -0.0181,-0.119 -0.0443,-0.173 -0.0263,-0.055 -0.0631,-0.103 -0.1084,-0.143 -0.0453,-0.04 -0.0981,-0.07 -0.1553,-0.089 -0.0573,-0.019 -0.1177,-0.026 -0.1778,-0.022 z"
         inkscape:connector-curvature="0"
         style="fill:#1e88e5" />
      <path
         id="path94"
         d="m 126.095,101.775 c -0.082,-0.002 -0.162,0.019 -0.233,0.061 -0.071,0.041 -0.129,0.1 -0.169,0.172 -0.039,0.072 -0.059,0.153 -0.055,0.235 0.003,0.082 0.028,0.161 0.073,0.23 0,0 6.864,10.905 6.24,20.414 -0.322,4.911 0.07,8.612 0.547,11.091 0.478,2.479 1.052,3.764 1.052,3.764 0.023,0.056 0.057,0.107 0.1,0.15 0.043,0.042 0.094,0.076 0.15,0.099 0.056,0.022 0.116,0.033 0.177,0.032 0.06,-0.001 0.12,-0.014 0.175,-0.039 0.055,-0.025 0.105,-0.06 0.146,-0.105 0.041,-0.044 0.073,-0.096 0.094,-0.153 0.02,-0.057 0.029,-0.117 0.026,-0.178 -0.003,-0.06 -0.018,-0.119 -0.045,-0.174 0,0 -0.525,-1.162 -0.988,-3.568 -0.463,-2.406 -0.852,-6.024 -0.535,-10.858 0.654,-9.979 -6.377,-20.959 -6.377,-20.959 -0.04,-0.064 -0.096,-0.118 -0.161,-0.155 -0.066,-0.038 -0.141,-0.058 -0.217,-0.059 z"
         inkscape:connector-curvature="0"
         style="fill:#1e88e5" />
      <path
         id="path96"
         d="m 120.572,100.565 c -0.112,0.005 -0.217,0.051 -0.297,0.13 -0.079,0.079 -0.126,0.185 -0.132,0.296 0,0 -0.236,3.595 -0.375,7.844 -0.139,4.25 -0.189,9.13 0.215,11.83 0.177,1.184 0.207,1.989 0.162,2.502 -0.044,0.513 -0.17,0.713 -0.207,0.75 -0.038,0.037 -0.004,0.018 -0.048,0.007 -0.043,-0.011 -0.082,-0.033 -0.082,-0.033 -0.048,-0.035 -0.103,-0.06 -0.16,-0.073 -0.058,-0.014 -0.118,-0.017 -0.176,-0.007 -0.059,0.009 -0.115,0.03 -0.166,0.061 -0.05,0.031 -0.094,0.072 -0.129,0.12 -0.035,0.048 -0.06,0.102 -0.074,0.16 -0.014,0.057 -0.016,0.117 -0.007,0.176 0.01,0.058 0.03,0.114 0.062,0.165 0.031,0.051 0.071,0.095 0.119,0.129 0,0 0.164,0.122 0.399,0.18 0.235,0.057 0.624,0.028 0.898,-0.246 0.274,-0.274 0.416,-0.686 0.47,-1.311 0.054,-0.625 0.013,-1.485 -0.17,-2.712 -0.378,-2.527 -0.344,-7.436 -0.205,-11.669 0.138,-4.233 0.375,-7.813 0.375,-7.813 0.005,-0.064 -0.004,-0.129 -0.026,-0.189 -0.021,-0.06 -0.056,-0.115 -0.1,-0.161 -0.045,-0.046 -0.099,-0.082 -0.158,-0.105 -0.06,-0.024 -0.124,-0.034 -0.188,-0.031 z"
         inkscape:connector-curvature="0"
         style="fill:#1e88e5" />
      <path
         id="path98"
         d="m 99.8749,156.956 c -0.0807,0.002 -0.1593,0.025 -0.2278,0.068 -0.0684,0.043 -0.1242,0.103 -0.1614,0.175 0,0 -2.2887,4.267 -4.561,9.553 -2.2723,5.287 -4.5492,11.558 -4.4762,15.792 0.0699,4.06 0.1734,10.339 0.4717,15.961 0.1491,2.811 0.346,5.458 0.6131,7.59 0.2672,2.131 0.5598,3.709 1.0802,4.577 0.9784,1.633 3.4974,2.841 6.0539,3.483 1.2782,0.322 2.5666,0.485 3.6936,0.423 1.126,-0.063 2.123,-0.341 2.74,-1.033 l 0.066,-0.076 0.028,-0.097 c 1.012,-3.43 1.11,-5.63 1.158,-9.1 0.001,-0.06 -0.009,-0.119 -0.031,-0.174 -0.022,-0.055 -0.055,-0.105 -0.096,-0.148 -0.041,-0.043 -0.09,-0.077 -0.145,-0.1 -0.054,-0.024 -0.113,-0.037 -0.172,-0.038 -0.06,0 -0.119,0.01 -0.174,0.032 -0.055,0.022 -0.105,0.055 -0.148,0.096 -0.042,0.041 -0.076,0.091 -0.1,0.145 -0.024,0.054 -0.036,0.113 -0.037,0.172 -0.047,3.402 -0.149,5.465 -1.09,8.712 -0.373,0.384 -1.081,0.654 -2.049,0.708 -1,0.055 -2.214,-0.093 -3.4219,-0.396 -2.4167,-0.608 -4.7999,-1.901 -5.5021,-3.073 -0.3199,-0.534 -0.695,-2.132 -0.9575,-4.227 -0.2625,-2.094 -0.46,-4.724 -0.6085,-7.523 -0.297,-5.598 -0.4017,-11.868 -0.4716,-15.928 -0.0671,-3.886 2.148,-10.175 4.403,-15.422 2.255,-5.246 4.5276,-9.483 4.5276,-9.483 0.039,-0.069 0.059,-0.147 0.057,-0.227 -0.001,-0.079 -0.024,-0.157 -0.065,-0.225 -0.041,-0.068 -0.1,-0.124 -0.169,-0.162 -0.07,-0.038 -0.1487,-0.057 -0.2282,-0.055 z"
         inkscape:connector-curvature="0"
         style="fill:#1e88e5" />
      <path
         id="path100"
         d="m 69.9904,133.088 c 12.6115,35.203 0.6553,50.719 -0.5782,71.331 l -5.1496,-4.593 c 0,0 -8.2138,-29.774 0.9903,-62.844 1.886,-6.776 -1.5306,-12.052 -1.5306,-12.052 0,0 4.1724,1.862 6.2681,8.158 z"
         inkscape:connector-curvature="0"
         style="opacity:0.95;fill:#1e88e5;fill-opacity:0.22745098" />
      <path
         id="path102"
         d="m 105.665,132.703 c -12.6115,35.293 -0.656,50.849 0.578,71.513 l 5.149,-4.605 c 0,0 8.214,-29.849 -0.99,-63.003 -1.886,-6.793 1.531,-12.082 1.531,-12.082 0,0 -4.173,1.866 -6.268,8.177 z"
         inkscape:connector-curvature="0"
         style="opacity:0.95;fill:#1e88e5;fill-opacity:0.22745098" />
      <path
         id="path104"
         d="m 113.55,210.094 -2.577,3.614 c 0,0 -3.063,8.043 -4.978,18.484 -1.111,10.747 -1.097,24.22 -2.05,30.515 -1.011,8.234 -4.4206,13.069 -4.3702,15.222 l 1.0222,0.044 c 0.651,-1.689 4.719,-12.744 5.258,-16.532 0,0 3.045,-8.37 4.876,-15.929 1.652,-6.823 4.016,-18.884 3.949,-22.525 -0.043,-2.814 -1.13,-12.893 -1.13,-12.893 z"
         inkscape:connector-curvature="0"
         style="opacity:0.95;fill:#1e88e5;fill-opacity:0.07058818" />
      <path
         id="path106"
         d="m 62.2118,210.094 2.5767,3.615 c 0,0 3.0635,8.042 4.9786,18.483 1.1108,10.747 1.0971,24.22 2.05,30.515 1.011,8.234 4.4202,13.069 4.3699,15.222 l -1.0219,0.044 c -0.6511,-1.689 -4.7195,-12.744 -5.2583,-16.532 0,0 -3.0451,-8.37 -4.8758,-15.929 -1.6524,-6.823 -4.0158,-18.884 -3.9496,-22.525 0.0438,-2.814 1.1304,-12.893 1.1304,-12.893 z"
         inkscape:connector-curvature="0"
         style="opacity:0.95;fill:#1e88e5;fill-opacity:0.07058818" />
      <path
         id="path108"
         d="m 49.2335,76.5891 c 0,0 -0.3343,-10.2365 1.1622,-15.2185 1.5522,-5.1678 8.1437,-12.4489 18.5089,-13.2773 4.032,3.1852 1.7602,5.4206 1.7602,5.4206 0,0 -6.8864,3.2959 -11.6454,14.5565 -3.8926,9.2105 -9.7859,8.5187 -9.7859,8.5187 z"
         inkscape:connector-curvature="0"
         style="opacity:0.95;fill:#1e88e5;fill-opacity:0.22745098" />
      <path
         id="path110"
         d="m 49.2338,76.5891 c 0,0 -0.3917,1.6144 -1.311,6.9444 -1.1884,6.8899 -1.5845,10.7524 -1.6835,16.1807 1.1883,1.5658 3.367,4.5928 8.3185,1.4618 2.8719,-2.9233 1.3865,-4.8023 5.1496,-8.4561 3.1726,-3.2074 2.0418,-17.0446 2.0418,-17.0446 -1.5343,-1.3947 -3.0812,-3.1276 -4.1284,-4.9434 0,0 -2.4214,5.6982 -8.387,5.8572 z"
         inkscape:connector-curvature="0"
         style="opacity:0.95;fill:#1e88e5;fill-opacity:0.07058818" />
      <path
         id="path112"
         d="m 126.223,76.5891 c 0,0 0.335,-10.2365 -1.162,-15.2185 -1.552,-5.1678 -8.144,-12.4489 -18.509,-13.2773 -4.032,3.1852 -1.76,5.4206 -1.76,5.4206 0,0 6.886,3.2959 11.645,14.5565 3.893,9.2105 9.786,8.5187 9.786,8.5187 z"
         inkscape:connector-curvature="0"
         style="opacity:0.95;fill:#1e88e5;fill-opacity:0.22745098" />
      <path
         id="path114"
         d="m 126.223,76.5891 c 0,0 0.392,1.6144 1.311,6.9444 1.189,6.8899 1.585,10.7524 1.684,16.1807 -1.188,1.5658 -3.367,4.5928 -8.319,1.4618 -2.871,-2.9233 -1.386,-4.8023 -5.149,-8.4561 -3.173,-3.2074 -2.042,-17.0446 -2.042,-17.0446 1.534,-1.3947 3.081,-3.1276 4.128,-4.9434 0,0 2.422,5.6982 8.387,5.8572 z"
         inkscape:connector-curvature="0"
         style="opacity:0.95;fill:#1e88e5;fill-opacity:0.07058818" />
      <path
         id="path116"
         d="m 46.239,99.7144 c 0,0 1.0448,2.2086 2.497,2.3706 1.4523,0.161 -6.602,5.825 -6.0844,19.805 0.369,9.968 -1.0102,16.418 -1.6528,14.804 -1.4041,-3.526 -0.726,-29.588 5.2402,-36.9796 z"
         inkscape:connector-curvature="0"
         style="fill:#1e88e5;fill-opacity:0.22745098" />
      <path
         id="path118"
         d="m 54.5578,101.176 c 0,0 1.3252,7.935 0.1593,20.75 -0.1182,1.299 -0.7603,2.988 0.8909,2.485 1.3644,-3.387 3.7163,-16.114 3.5052,-22.609 -0.2112,-6.4946 1.0797,-9.0764 1.0797,-9.0764 0,0 -1.2932,0.3448 -2.4044,2.2207 -1.1056,1.8666 -2.0263,5.2617 -3.2307,6.2297"
         inkscape:connector-curvature="0"
         style="fill:#1e88e5;fill-opacity:0.22745098" />
      <path
         id="path120"
         d="m 128.897,99.7144 c 0,0 -1.045,2.2086 -2.497,2.3706 -1.452,0.161 5.798,5.703 6.085,19.805 0.258,12.719 0.784,15.063 1.426,13.449 1.405,-3.526 0.952,-28.233 -5.014,-35.6246 z"
         inkscape:connector-curvature="0"
         style="fill:#1e88e5;fill-opacity:0.22745098" />
      <path
         id="path122"
         d="m 120.579,101.176 c 0,0 -1.326,7.935 -0.16,20.75 0.118,1.299 0.761,2.988 -0.891,2.485 -1.364,-3.387 -3.716,-16.114 -3.505,-22.609 0.211,-6.4946 -1.08,-9.0764 -1.08,-9.0764 0,0 1.294,0.3448 2.405,2.2207 1.105,1.8666 2.026,5.2617 3.231,6.2297"
         inkscape:connector-curvature="0"
         style="fill:#1e88e5;fill-opacity:0.22745098" />
      <g
         style="opacity:0.95"
         transform="translate(0,-72)"
         id="g186">
        <g
           style="opacity:0.95"
           id="g184">
          <g
             style="opacity:0.95"
             id="g144">
            <path
               style="opacity:0.95;fill:#f78a0a"
               inkscape:connector-curvature="0"
               id="path142"
               d="m 107.895,248.345 c -0.205,0 -0.408,0.04 -0.598,0.119 -0.189,0.078 -0.361,0.193 -0.507,0.339 -0.145,0.145 -0.26,0.317 -0.338,0.507 -0.079,0.189 -0.119,0.393 -0.119,0.598 0,0.414 0.165,0.812 0.458,1.105 0.293,0.293 0.69,0.457 1.104,0.457 0.336,0 0.663,-0.108 0.933,-0.309 0.269,-0.2 0.467,-0.482 0.563,-0.804 h 47.075 v -0.898 h -47.075 c -0.097,-0.322 -0.294,-0.604 -0.564,-0.805 -0.269,-0.2 -0.596,-0.309 -0.932,-0.309 z" />
          </g>
          <g
             style="opacity:0.95"
             id="g152" />
          <g
             style="opacity:0.95"
             id="g174">
            <path
               style="opacity:0.95;fill:#f78a0a"
               inkscape:connector-curvature="0"
               id="path172"
               d="m 68.6936,248.345 c -0.3359,0.001 -0.6628,0.109 -0.9322,0.31 -0.2694,0.2 -0.467,0.483 -0.5635,0.804 h -47.195 v 0.899 h 47.195 c 0.0966,0.321 0.2943,0.603 0.5637,0.804 0.2694,0.2 0.5962,0.309 0.932,0.309 0.2053,0 0.4085,-0.04 0.5981,-0.119 0.1896,-0.079 0.3618,-0.194 0.5069,-0.339 0.1451,-0.145 0.2602,-0.317 0.3387,-0.507 0.0785,-0.19 0.1189,-0.393 0.1188,-0.598 -1e-4,-0.414 -0.1647,-0.812 -0.4577,-1.105 -0.293,-0.293 -0.6904,-0.458 -1.1048,-0.458 z" />
          </g>
          <g
             style="opacity:0.95"
             id="g182" />
        </g>
      </g>
    </g>
    <circle
       style="fill:#636262"
       id="circle194"
       r="10.0898"
       cy="177.0898"
       cx="10.2898" />
    <path
       style="fill:#ffffff"
       inkscape:connector-curvature="0"
       id="path196"
       d="M 11.5545,182.3633 H 9.9001792 v -7.9912 l -2.44043,0.834 v -1.4014 L 11.3426,172.376 h 0.2119 z" />
    <circle
       style="fill:#1e88e5"
       id="circle198"
       r="10.0898"
       cy="177.0898"
       cx="166.5898" />
    <path
       style="fill:#ffffff"
       inkscape:connector-curvature="0"
       id="path200"
       d="m 170.04878,182.3633 h -6.693 v -1.1416 l 3.316,-3.6162 c 0.478,-0.5332 0.818,-0.9776 1.018,-1.333 0.205,-0.3601 0.308,-0.7201 0.308,-1.0801 0,-0.474 -0.134,-0.8568 -0.403,-1.1485 -0.265,-0.2916 -0.622,-0.4375 -1.074,-0.4375 -0.537,0 -0.954,0.1641 -1.251,0.4922 -0.296,0.3282 -0.444,0.7771 -0.444,1.3467 h -1.661 c 0,-0.6061 0.137,-1.1507 0.41,-1.6338 0.278,-0.4876 0.672,-0.8659 1.183,-1.1347 0.515,-0.2689 1.107,-0.4034 1.777,-0.4034 0.966,0 1.727,0.2439 2.283,0.7315 0.561,0.4831 0.841,1.153 0.841,2.0097 0,0.4968 -0.141,1.0186 -0.424,1.5655 -0.278,0.5423 -0.736,1.1598 -1.374,1.8525 l -2.433,2.6045 h 4.621 z" />
  </g>
  <defs
     id="defs221">
    <clipPath
       id="clip0">
      <rect
         width="136.586"
         height="300"
         fill="white"
         transform="translate(20)"
         id="rect218" />
    </clipPath>
  </defs>
</svg>
