<svg width="91" height="302" viewBox="0 0 91 302" fill="none" xmlns="http://www.w3.org/2000/svg">
<path d="M65.4594 61.1582C64.2003 56.5821 61.8909 51.7583 58.1931 46.5819C55.2979 42.5291 57.0017 40.0741 56.3308 34.3284C66.2553 24.7033 64.6087 15.1823 59.7123 7.36999C54.8936 -0.541779 37.7643 -1.43246 32.2185 6.85463C26.6091 18.7925 24.7029 38.9392 33.5028 40.2443L38.3115 40.4833C38.3115 40.4833 41.0515 49.5885 39.152 51.6175C29.066 61.6737 17.5712 70.1635 21.2152 82.1022" stroke="#1E88E5" stroke-width="1.147" stroke-linecap="round" stroke-linejoin="round"/>
<path d="M54.8632 122.863C55.3896 126.982 57.2201 130.816 59.5411 134.81C67.0533 144.958 65.9162 157.138 58.3685 166.19C58.3685 166.19 62.6215 198.533 55.7392 211.365C53.4007 216.597 60.4196 224.713 62.2124 230.95C69.236 250.508 48.9585 260.863 56.8973 286.281C60.6337 290.16 60.8818 296.112 57.6283 298.592C57.6283 298.592 53.8658 302.243 47.9523 300.473C41.9959 299.136 25.923 300.499 25.923 300.499C15.8061 302.71 13.6282 294.757 19.49 295.246C21.5585 295.418 30.4135 292.68 32.9002 291.851C36.6579 288.477 39.3897 288.1 40.9531 285.436C44.6041 259.318 38.8877 244.089 42.0792 227.234C38.2704 222.525 37.5077 216.174 38.2667 209.061C32.7139 197.641 25.6181 184.529 24.0247 171.365" stroke="#1E88E5" stroke-width="1.147" stroke-linecap="round" stroke-linejoin="round"/>
<path d="M46.9795 220.354C49.8242 210.207 32.557 155.893 32.557 155.893C31.7411 158.484 28.5369 165.18 28.5369 165.18C36.4978 159.558 31.1975 170.765 24.0247 171.365C24.0247 171.365 24.7465 180.203 28.602 189.141C31.7081 196.343 38.2668 209.061 38.2668 209.061C45.7896 214.351 46.9795 220.354 46.9795 220.354Z" fill="#42A5F5" fill-opacity="0.18" stroke="#1E88E5" stroke-width="1.147" stroke-miterlimit="4.00351" stroke-linecap="round" stroke-linejoin="round"/>
<path d="M58.369 166.19C58.369 166.19 51.3483 173.046 48.7864 187.993C47.7736 193.9 47.2922 195.584 48.014 206.65C48.014 206.65 49.0583 218.275 46.9794 220.354" stroke="#1E88E5" stroke-width="1.16427" stroke-linecap="round" stroke-linejoin="round"/>
<path d="M55.4496 211.968C55.4496 211.968 62.5656 203.456 58.3687 166.19C49.9234 176.685 49.9425 184.487 49.9425 184.487C54.0168 192.247 55.376 209.026 55.4496 211.968Z" fill="#42A5F5" fill-opacity="0.48" stroke="#1E88E5" stroke-width="1.147" stroke-miterlimit="4.00351" stroke-linecap="round" stroke-linejoin="round"/>
<path d="M55.2371 214.931C55.2371 214.931 53.725 221.393 54.6207 228.612C55.5164 235.83 59.107 252.645 58.2279 258.853C60.4035 253.259 62.4114 248.971 63.2664 244.828C64.8557 237.126 62.8258 230.66 60.6776 226.908C56.7466 220.043 55.2371 214.931 55.2371 214.931Z" fill="#42A5F5" fill-opacity="0.18" stroke="#1E88E5" stroke-width="1.147" stroke-miterlimit="4.00351" stroke-linecap="round" stroke-linejoin="round"/>
<path d="M41.2457 78.0857C41.2457 78.0857 39.7044 56.2378 53.6744 53.713C59.1388 52.7253 62.2187 56.1851 62.2187 56.1851C62.2187 56.1851 59.5152 52.2162 55.1826 50.6625C50.8795 49.1194 41.6308 49.9894 36.9045 55.8035C30.7479 63.7686 41.2457 78.0857 41.2457 78.0857V78.0857Z" stroke="#1E88E5" stroke-width="1.147" stroke-linecap="round" stroke-linejoin="round"/>
<path d="M35.0344 64.494C35.0344 64.494 29.9824 81.2268 22.2949 86.0412" stroke="#1E88E5" stroke-width="1.147" stroke-linecap="round" stroke-linejoin="round"/>
<path d="M23.1844 96.4688C23.1844 96.4688 24.8344 97.0208 25.8291 96.5158" stroke="#1E88E5" stroke-width="1.147" stroke-linecap="round" stroke-linejoin="round"/>
<path d="M22.8495 108.298C22.8495 108.298 24.6534 108.738 26.2084 108.181" stroke="#1E88E5" stroke-width="1.147" stroke-linecap="round" stroke-linejoin="round"/>
<path d="M23.1048 118.725C23.1048 118.725 24.9639 119.303 26.4089 118.645" stroke="#1E88E5" stroke-width="1.147" stroke-linecap="round" stroke-linejoin="round"/>
<path d="M62.2192 56.1852C62.2192 56.1852 71.2612 64.0808 64.6579 84.1514C58.0546 104.222 55.7323 109.42 56.454 113.718C57.1753 118.016 56.1369 126.644 32.6986 149.243C34.6762 154.973 28.4193 165.37 28.4193 165.37C28.4193 165.37 29.9242 163.932 30.9598 163.789C32.26 163.609 33.544 163.748 31.5183 166.472C29.015 170.236 25.9188 171.463 23.0525 171.288C20.1862 171.112 18.2156 170.936 17.8558 169.682C17.4962 168.429 16.0564 163.056 16.5921 161.444C17.1277 159.831 24.7591 148.719 23.5604 146.925C23.5604 146.925 22.8432 144.956 23.4683 143.522C25.2554 140.117 30.5337 135.274 32.1373 128.106C33.7407 120.939 36.7528 114.817 41.9386 107.466C41.9386 107.466 38.2799 93.671 41.2457 78.0863" stroke="#1E88E5" stroke-width="1.147" stroke-linecap="round" stroke-linejoin="round"/>
<path d="M22.2948 86.0417C22.2948 86.0417 24.7073 86.0639 25.8263 93.9965C25.8572 94.6367 25.8918 95.4956 25.9294 96.5306C26.3276 107.508 27.0513 138.308 27.0513 138.308" stroke="#1E88E5" stroke-width="1.147" stroke-linecap="round" stroke-linejoin="round"/>
<path d="M28.3678 79.7786C28.3678 79.7786 39.4262 95.6529 32.4576 109.666C28.8505 116.92 31.3431 130.567 31.3431 130.567" stroke="#1E88E5" stroke-width="1.147"/>
<path d="M21.2153 82.1022C22.7742 86.4523 22.7632 95.2691 23.1846 96.4689C21.8623 100.317 23.2214 106.04 22.8698 108.163C22.5106 110.306 22.5579 116.139 23.105 118.725C22.2808 119.599 23.5624 135.272 25.516 140.353" stroke="#1E88E5" stroke-width="1.147" stroke-linecap="round" stroke-linejoin="round"/>
<path d="M58.2678 166.164C58.2678 166.164 40.8893 143.025 47.8259 132.931C47.8259 132.931 51.9286 127.998 54.8632 122.862C54.8632 122.862 56.2322 129.993 59.5411 134.81C63.8309 141.055 69.1708 154.156 58.2678 166.164Z" fill="#42A5F5" fill-opacity="0.18" stroke="#1E88E5" stroke-width="1.147" stroke-miterlimit="4.00351" stroke-linecap="round" stroke-linejoin="round"/>
<path d="M53.8539 256.563C53.4825 263.702 51.7717 275.513 50.0824 260.268C47.8735 241.895 48.3695 230.325 49.5302 225.9C50.4282 223.215 52.5152 224.019 52.5078 227.314C52.4898 235.342 54.0397 253.763 53.8539 256.563Z" fill="#42A5F5" fill-opacity="0.48" stroke="#1E88E5" stroke-width="1.147" stroke-miterlimit="4.00351"/>
<path d="M42.135 275.73C42.135 275.73 42.5977 266.336 41.9 255.321C41.1637 243.696 40.2812 233.488 42.0791 227.234C42.6516 227.878 43.664 227.581 44.0469 228.405C49.6469 240.461 44.1038 267.724 42.135 275.73Z" fill="#42A5F5" fill-opacity="0.18" stroke="#1E88E5" stroke-width="1.147" stroke-miterlimit="4.00351" stroke-linecap="round" stroke-linejoin="round"/>
<path d="M46.9796 220.354C46.9796 220.354 45.4303 229.623 42.0794 227.234" stroke="#1E88E5" stroke-width="1.147" stroke-linecap="round" stroke-linejoin="round"/>
<circle cx="10.0898" cy="191.736" r="10.0898" fill="#636262"/>
<path d="M8.6875 191.265H9.69922C10.2096 191.26 10.613 191.128 10.9092 190.868C11.21 190.608 11.3604 190.232 11.3604 189.74C11.3604 189.266 11.235 188.899 10.9844 188.64C10.7383 188.375 10.36 188.243 9.84961 188.243C9.40299 188.243 9.03613 188.373 8.74902 188.633C8.46191 188.888 8.31836 189.223 8.31836 189.638H6.65723C6.65723 189.127 6.79167 188.662 7.06055 188.243C7.33398 187.824 7.71224 187.498 8.19531 187.266C8.68294 187.029 9.22754 186.91 9.8291 186.91C10.8226 186.91 11.6019 187.161 12.167 187.662C12.7367 188.159 13.0215 188.852 13.0215 189.74C13.0215 190.187 12.8779 190.608 12.5908 191.005C12.3083 191.397 11.9414 191.693 11.4902 191.894C12.0371 192.08 12.4518 192.374 12.7344 192.775C13.0215 193.176 13.165 193.655 13.165 194.211C13.165 195.104 12.8574 195.815 12.2422 196.344C11.6315 196.872 10.8271 197.137 9.8291 197.137C8.87207 197.137 8.08822 196.882 7.47754 196.371C6.86686 195.861 6.56152 195.182 6.56152 194.334H8.22266C8.22266 194.771 8.36849 195.127 8.66016 195.4C8.95638 195.674 9.35286 195.811 9.84961 195.811C10.3646 195.811 10.7702 195.674 11.0664 195.4C11.3626 195.127 11.5107 194.73 11.5107 194.211C11.5107 193.687 11.3558 193.284 11.0459 193.001C10.736 192.718 10.2757 192.577 9.66504 192.577H8.6875V191.265Z" fill="white"/>
<path d="M34.9473 191.315L20.6 191.315" stroke="#FF9A03" stroke-width="1.10036" stroke-linecap="square" stroke-linejoin="round"/>
<path d="M35.5734 190.054C34.8768 190.054 34.3121 190.619 34.3121 191.315C34.3121 192.012 34.8768 192.577 35.5734 192.577C36.2699 192.577 36.8346 192.012 36.8346 191.315C36.8346 190.619 36.2699 190.054 35.5734 190.054Z" fill="#FF9A03"/>
<circle cx="80.7183" cy="191.736" r="10.0898" fill="#636262"/>
<path d="M77.9293 192.074L78.4693 187.056H83.815V188.492H79.8502L79.5768 190.871C80.0371 190.606 80.5566 190.474 81.1354 190.474C82.0833 190.474 82.8193 190.777 83.3434 191.383C83.872 191.99 84.1363 192.805 84.1363 193.831C84.1363 194.842 83.8447 195.649 83.2613 196.251C82.678 196.848 81.8782 197.146 80.8619 197.146C79.9505 197.146 79.194 196.889 78.5924 196.374C77.9954 195.854 77.6718 195.171 77.6217 194.323H79.2281C79.2919 194.806 79.4651 195.177 79.7477 195.437C80.0302 195.692 80.3994 195.82 80.8551 195.82C81.3655 195.82 81.762 195.638 82.0445 195.273C82.3316 194.908 82.4752 194.412 82.4752 193.783C82.4752 193.177 82.318 192.698 82.0035 192.347C81.6891 191.992 81.2561 191.814 80.7047 191.814C80.4039 191.814 80.1487 191.855 79.9391 191.937C79.7294 192.015 79.5016 192.17 79.2555 192.402L77.9293 192.074Z" fill="white"/>
<path d="M56.5404 191.315H70.2081" stroke="#FF9A03" stroke-width="1.10036" stroke-linecap="square" stroke-linejoin="round"/>
<path d="M55.9143 192.577C56.6109 192.577 57.1755 192.012 57.1755 191.315C57.1755 190.619 56.6109 190.054 55.9143 190.054C55.2177 190.054 54.6531 190.619 54.6531 191.315C54.6531 192.012 55.2177 192.577 55.9143 192.577Z" fill="#FF9A03"/>
<circle cx="10.0898" cy="284.226" r="10.0898" fill="#1E88E5"/>
<path d="M12.4754 285.951H13.7128V287.284H12.4754V289.499H10.8143V287.284H6.51451L6.46666 286.273L10.7596 279.546H12.4754V285.951ZM8.20982 285.951H10.8143V281.795L10.6913 282.014L8.20982 285.951Z" fill="white"/>
<path d="M51.7102 257.74L51.7102 283.805L20.6 283.805" stroke="#FF9A03" stroke-width="1.10036" stroke-linecap="square" stroke-linejoin="round"/>
<path d="M50.449 257.74C50.449 258.436 51.0137 259.001 51.7102 259.001C52.4068 259.001 52.9714 258.436 52.9714 257.74C52.9714 257.043 52.4068 256.479 51.7102 256.479C51.0137 256.479 50.449 257.043 50.449 257.74Z" fill="#FF9A03"/>
<circle cx="80.7183" cy="237.981" r="10.0898" fill="#C4C4C4"/>
<path d="M82.6529 233.253V234.627H82.4479C81.5182 234.641 80.7753 234.896 80.2193 235.393C79.6634 235.89 79.333 236.594 79.2281 237.505C79.7613 236.945 80.4427 236.664 81.2721 236.664C82.1516 236.664 82.8443 236.974 83.3502 237.594C83.8606 238.214 84.1158 239.014 84.1158 239.994C84.1158 241.005 83.8173 241.826 83.2203 242.454C82.6279 243.079 81.8486 243.391 80.8824 243.391C79.8889 243.391 79.0823 243.024 78.4625 242.29C77.8473 241.557 77.5397 240.595 77.5397 239.406V238.838C77.5397 237.093 77.9635 235.726 78.8111 234.737C79.6634 233.748 80.887 233.253 82.482 233.253H82.6529ZM80.8688 238.004C80.5042 238.004 80.1692 238.107 79.8639 238.312C79.5631 238.517 79.3421 238.79 79.2008 239.132V239.638C79.2008 240.376 79.3557 240.964 79.6656 241.402C79.9755 241.835 80.3766 242.051 80.8688 242.051C81.3609 242.051 81.7506 241.867 82.0377 241.497C82.3248 241.128 82.4684 240.643 82.4684 240.041C82.4684 239.44 82.3225 238.95 82.0309 238.572C81.7392 238.193 81.3518 238.004 80.8688 238.004Z" fill="white"/>
<path d="M60.7445 238.401H70.2081" stroke="#FF9A03" stroke-width="1.10036" stroke-linecap="square" stroke-linejoin="round"/>
<path d="M60.1183 239.662C60.8148 239.662 61.3795 239.098 61.3795 238.401C61.3795 237.705 60.8148 237.14 60.1183 237.14C59.4217 237.14 58.8571 237.705 58.8571 238.401C58.8571 239.098 59.4217 239.662 60.1183 239.662Z" fill="#FF9A03"/>
<circle cx="80.7183" cy="145.491" r="10.0898" fill="#636262"/>
<path d="M81.983 150.764H80.3287V142.773L77.8883 143.607V142.206L81.7711 140.777H81.983V150.764Z" fill="white"/>
<path d="M56.5404 145.071H70.2081" stroke="#FF9A03" stroke-width="1.10036" stroke-linecap="square" stroke-linejoin="round"/>
<path d="M55.9143 146.332C56.6109 146.332 57.1755 145.767 57.1755 145.071C57.1755 144.374 56.6109 143.809 55.9143 143.809C55.2177 143.809 54.6531 144.374 54.6531 145.071C54.6531 145.767 55.2177 146.332 55.9143 146.332Z" fill="#FF9A03"/>
<circle cx="10.0898" cy="237.981" r="10.0898" fill="#1E88E5"/>
<path d="M13.5487 243.254H6.85631V242.113L10.1717 238.496C10.6503 237.963 10.9898 237.519 11.1903 237.163C11.3954 236.803 11.4979 236.443 11.4979 236.083C11.4979 235.609 11.3635 235.227 11.0946 234.935C10.8303 234.643 10.4725 234.497 10.0213 234.497C9.48359 234.497 9.06659 234.661 8.77037 234.99C8.47415 235.318 8.32603 235.767 8.32603 236.336H6.6649C6.6649 235.73 6.80162 235.186 7.07506 234.703C7.35305 234.215 7.74726 233.837 8.25767 233.568C8.77265 233.299 9.3651 233.164 10.035 233.164C11.0012 233.164 11.7622 233.408 12.3182 233.896C12.8788 234.379 13.159 235.049 13.159 235.906C13.159 236.402 13.0178 236.924 12.7352 237.471C12.4572 238.013 11.9992 238.631 11.3612 239.324L8.9276 241.928H13.5487V243.254Z" fill="white"/>
<path d="M42.5145 238.401L20.5999 238.401" stroke="#FF9A03" stroke-width="1.10036" stroke-linecap="square" stroke-linejoin="round"/>
<path d="M43.1409 237.14C42.4443 237.14 41.8797 237.705 41.8797 238.401C41.8797 239.098 42.4443 239.662 43.1409 239.662C43.8374 239.662 44.4021 239.098 44.4021 238.401C44.4021 237.705 43.8374 237.14 43.1409 237.14Z" fill="#FF9A03"/>
</svg>
