<svg width="124" height="300" viewBox="0 0 124 300" fill="none" xmlns="http://www.w3.org/2000/svg">
<g clip-path="url(#clip0)">
<path d="M66.2852 0.431301C60.6232 0.24597 54.8214 2.09883 51.9323 6.40464C51.9199 6.42338 51.9089 6.44301 51.8994 6.46339C49.0666 12.4731 47.1782 20.4935 47.0916 27.2361C47.0483 30.6074 47.4514 33.66 48.4545 36.0011C49.4577 38.3422 51.118 39.991 53.4762 40.3436C53.491 40.346 53.5059 40.3475 53.5208 40.3483L57.9715 40.5763C58.0486 40.8379 58.6011 42.6798 59.0101 45.0081C59.2286 46.2518 59.3854 47.5558 59.3743 48.6433C59.3635 49.7309 59.1486 50.5798 58.8268 50.9227C53.8184 55.903 48.4339 60.5126 44.7229 65.4143C41.0094 70.3195 38.9754 75.5916 40.8292 81.6918C40.8457 81.749 40.8734 81.8024 40.9106 81.8489C40.9479 81.8954 40.9941 81.934 41.0464 81.9625C41.0987 81.9909 41.1562 82.0087 41.2155 82.0148C41.2747 82.0208 41.3346 82.0151 41.3916 81.9978C41.4486 81.9805 41.5016 81.952 41.5476 81.9141C41.5935 81.8761 41.6314 81.8294 41.6591 81.7766C41.6868 81.7239 41.7037 81.6662 41.7089 81.6068C41.7141 81.5475 41.7074 81.4877 41.6893 81.4309C39.9295 75.6401 41.8156 70.744 45.4397 65.9571C49.0637 61.1702 54.4279 56.5657 59.4707 51.5501C59.4747 51.5463 59.4788 51.5423 59.4827 51.5383C60.1077 50.8723 60.2626 49.833 60.2746 48.6527C60.2866 47.4724 60.1203 46.1286 59.8963 44.853C59.4481 42.3016 58.7613 40.0146 58.7613 40.0146C58.7347 39.926 58.6814 39.8477 58.6086 39.7905C58.5358 39.7333 58.4472 39.7 58.3548 39.695L53.6057 39.453C51.587 39.149 50.2039 37.8034 49.2796 35.6462C48.3545 33.4871 47.9473 30.5392 47.9895 27.2478C48.0739 20.6774 49.943 12.7499 52.701 6.88397C55.3499 2.96285 60.8242 1.15106 66.2573 1.3289C71.7019 1.50711 77.0192 3.68808 79.2944 7.43383C79.296 7.43621 79.2976 7.43858 79.2992 7.44093C81.7004 11.2826 83.2816 15.5089 83.066 19.9281C82.8504 24.3472 80.8513 28.9893 75.9671 33.7147C75.9173 33.7628 75.8793 33.8218 75.8561 33.887C75.8329 33.9522 75.825 34.0219 75.8331 34.0907C76.1577 36.9005 75.8998 38.8975 75.9177 40.7737C75.9356 42.6499 76.2651 44.4121 77.753 46.5003C81.4031 51.6231 83.669 56.3814 84.9012 60.8814C84.9168 60.9383 84.9435 60.9917 84.9796 61.0383C85.0158 61.0849 85.0608 61.124 85.1121 61.1533C85.1634 61.1825 85.2199 61.2014 85.2785 61.2087C85.3371 61.2161 85.3965 61.2119 85.4535 61.1963C85.5104 61.1807 85.5637 61.1541 85.6104 61.1179C85.657 61.0817 85.696 61.0367 85.7253 60.9854C85.7545 60.9341 85.7734 60.8776 85.7808 60.819C85.7881 60.7605 85.7839 60.701 85.7683 60.6441C84.5045 56.0288 82.1844 51.1724 78.4838 45.9786C77.0941 44.0282 76.8348 42.5515 76.8177 40.7666C76.8012 39.0393 77.0175 36.9723 76.7284 34.2058C81.6237 29.4108 83.7387 24.5836 83.9637 19.9727C84.1909 15.3142 82.5256 10.91 80.0629 6.96861C77.5499 2.83131 71.9477 0.616636 66.2857 0.431306L66.2852 0.431301Z" fill="#1E88E5"/>
<path d="M74.6906 121.729C74.628 121.731 74.5666 121.747 74.5104 121.775C74.4543 121.803 74.4045 121.842 74.3645 121.891C74.3244 121.939 74.2949 121.995 74.2778 122.055C74.2607 122.116 74.2565 122.179 74.2653 122.241C74.7964 126.438 76.6479 130.311 78.965 134.31C78.9729 134.324 78.9815 134.339 78.9909 134.352C86.3429 144.309 85.2147 156.169 77.8019 165.037C77.7618 165.084 77.7321 165.14 77.7147 165.2C77.6973 165.26 77.6926 165.323 77.7008 165.384C77.7008 165.384 78.7471 173.414 78.9368 183.034C79.1266 192.654 78.4195 203.877 75.0784 210.088C75.0733 210.097 75.0686 210.107 75.0643 210.116C73.793 212.951 75.0509 216.395 76.7397 219.873C78.4285 223.351 80.6029 226.925 81.4629 229.93C81.4658 229.94 81.469 229.949 81.4726 229.958C84.9023 239.546 81.6597 246.813 78.46 254.996C75.2603 263.179 72.1338 272.246 76.1078 285.025C76.129 285.091 76.1652 285.151 76.2136 285.201C77.9952 287.055 78.9414 289.409 79.0546 291.569C79.1678 293.729 78.4561 295.666 76.9773 296.791C76.9633 296.802 76.95 296.813 76.9373 296.826C76.9373 296.826 73.4151 300.285 67.7424 298.579C67.7323 298.576 67.7221 298.574 67.7118 298.572C64.6314 297.876 59.1636 297.89 54.4092 298.057C49.6549 298.225 45.6443 298.56 45.6443 298.56C45.6245 298.562 45.6049 298.565 45.5856 298.57C40.6643 299.639 37.8123 298.196 36.8911 296.779C36.4305 296.071 36.4264 295.422 36.7665 294.951C37.1067 294.479 37.8827 294.102 39.2433 294.218C39.8826 294.272 40.8112 294.118 41.9809 293.872C43.1506 293.626 44.5303 293.276 45.9216 292.895C48.7042 292.132 51.5312 291.249 52.7808 290.834C52.839 290.814 52.8926 290.783 52.9383 290.742C54.7768 289.096 56.3539 288.186 57.7085 287.335C59.063 286.484 60.2168 285.675 61.05 284.259C61.0804 284.208 61.1004 284.151 61.1087 284.092C64.7878 258.005 59.1273 242.8 62.2977 226.168C62.31 226.104 62.3081 226.038 62.2923 225.975C62.2764 225.911 62.247 225.852 62.206 225.802C58.5252 221.239 57.7706 215.055 58.5285 208.034C58.5376 207.95 58.5229 207.866 58.4862 207.79C52.9649 196.4 45.9498 183.369 44.3941 170.382C44.3797 170.264 44.3189 170.156 44.225 170.083C44.1312 170.009 44.0119 169.976 43.8935 169.99C43.7751 170.004 43.6672 170.065 43.5937 170.159C43.5201 170.253 43.4868 170.372 43.5011 170.491C45.0817 183.684 52.1275 196.737 57.6285 208.077C56.8921 215.074 57.6467 221.403 61.3906 226.175C58.2429 243.001 63.8389 258.107 60.2298 283.86C59.507 285.053 58.5389 285.752 57.2313 286.574C55.9285 287.392 54.2991 288.357 52.4447 289.995C51.2029 290.407 48.4246 291.276 45.6841 292.028C44.3035 292.406 42.938 292.754 41.7975 292.993C40.6569 293.233 39.7111 293.355 39.3207 293.322C37.7636 293.191 36.6195 293.618 36.038 294.425C35.4565 295.231 35.53 296.334 36.139 297.27C37.3571 299.143 40.6217 300.566 45.7758 299.446L45.7171 299.456C45.7171 299.456 49.7098 299.122 54.4398 298.955C59.1697 298.789 64.6661 298.806 67.5144 299.449L67.4838 299.439C73.5511 301.263 77.4941 297.527 77.5342 297.489C79.2861 296.146 80.0768 293.901 79.9522 291.522C79.83 289.19 78.811 286.719 76.9608 284.729C73.0759 272.207 76.1087 263.478 79.2966 255.325C82.4857 247.169 85.853 239.555 82.3208 229.667C81.4009 226.466 79.2066 222.896 77.5483 219.48C75.8873 216.06 74.8212 212.856 75.8846 210.485L75.8705 210.513C79.3971 203.957 80.0279 192.691 79.8371 183.015C79.6495 173.507 78.6479 165.719 78.6128 165.448C86.1314 156.325 87.2526 144.027 79.7149 133.819L79.743 133.859C77.4482 129.898 75.6631 126.135 75.1561 122.128C75.1436 122.015 75.0885 121.911 75.0022 121.837C74.9158 121.763 74.8046 121.724 74.6908 121.729L74.6906 121.729Z" fill="#1E88E5"/>
<path d="M78.1449 164.872C78.0284 164.874 77.9172 164.921 77.8347 165.004C77.8347 165.004 76.0333 166.763 73.9387 170.368C71.844 173.974 69.431 179.449 68.1369 186.944C67.1229 192.816 66.634 194.592 67.3403 205.626C67.341 205.629 67.3418 205.632 67.3427 205.635C67.3427 205.635 67.5967 208.514 67.5941 211.642C67.5929 213.205 67.5259 214.831 67.3356 216.172C67.1453 217.513 66.7804 218.566 66.4239 218.921C66.3394 219.006 66.292 219.12 66.292 219.24C66.292 219.359 66.3394 219.474 66.4239 219.558C66.5083 219.643 66.6228 219.69 66.7423 219.69C66.8617 219.69 66.9762 219.643 67.0607 219.558C67.7404 218.88 68.0259 217.71 68.2262 216.299C68.4265 214.888 68.4904 213.232 68.4918 211.644C68.4942 208.467 68.2356 205.558 68.2356 205.558L68.238 205.567C67.5338 194.565 68.0057 192.988 69.0229 187.097C70.2976 179.715 72.6698 174.343 74.7166 170.82C76.7633 167.297 78.4622 165.648 78.4622 165.648C78.528 165.586 78.5733 165.505 78.5924 165.416C78.6114 165.328 78.6033 165.236 78.569 165.152C78.5347 165.068 78.4758 164.996 78.4002 164.947C78.3245 164.897 78.2356 164.871 78.145 164.873L78.1449 164.872Z" fill="#1E88E5"/>
<path d="M55.0317 63.5907C54.9358 63.5925 54.843 63.625 54.7669 63.6833C54.6908 63.7417 54.6354 63.8228 54.6087 63.9149C54.6087 63.9149 53.355 68.0513 51.1497 72.781C48.9445 77.5106 45.7599 82.8122 42.091 85.1036C42.0392 85.134 41.994 85.1746 41.9581 85.2228C41.9222 85.271 41.8963 85.3259 41.882 85.3843C41.8677 85.4427 41.8653 85.5033 41.8749 85.5627C41.8844 85.622 41.9058 85.6788 41.9377 85.7298C41.9696 85.7807 42.0114 85.8247 42.0607 85.8592C42.1099 85.8937 42.1655 85.918 42.2243 85.9306C42.2831 85.9432 42.3438 85.9439 42.4028 85.9326C42.4619 85.9213 42.518 85.8983 42.568 85.865C46.5591 83.3723 49.7279 77.9549 51.9628 73.1616C54.1977 68.3684 55.4688 64.1758 55.4688 64.1758C55.4903 64.1077 55.4954 64.0355 55.4835 63.9651C55.4716 63.8948 55.4431 63.8282 55.4004 63.771C55.3577 63.7139 55.302 63.6677 55.2379 63.6363C55.1737 63.6049 55.1031 63.5893 55.0317 63.5907V63.5907Z" fill="#1E88E5"/>
<path d="M43.214 95.415C43.1043 95.4089 42.9961 95.4433 42.9099 95.5116C42.8238 95.5799 42.7657 95.6774 42.7466 95.7856C42.7275 95.8939 42.7487 96.0054 42.8063 96.099C42.8638 96.1927 42.9537 96.262 43.0589 96.2938C43.0589 96.2938 43.5054 96.4428 44.0835 96.5241C44.6615 96.6055 45.3946 96.6432 46.0385 96.3173C46.0927 96.2916 46.1412 96.2552 46.1811 96.2105C46.221 96.1657 46.2516 96.1133 46.2709 96.0566C46.2903 95.9998 46.2981 95.9397 46.2939 95.8799C46.2897 95.82 46.2735 95.7616 46.2464 95.7081C46.2192 95.6546 46.1816 95.6071 46.1358 95.5684C46.09 95.5296 46.037 95.5004 45.9797 95.4825C45.9224 95.4646 45.8622 95.4584 45.8025 95.4641C45.7428 95.4699 45.6848 95.4875 45.632 95.516C45.285 95.6917 44.7011 95.7049 44.2103 95.6359C43.7196 95.5668 43.3456 95.4408 43.3456 95.4408C43.3033 95.4257 43.2589 95.417 43.214 95.415V95.415Z" fill="#1E88E5"/>
<path d="M46.2101 107.08C46.1548 107.079 46.0998 107.089 46.048 107.108C44.6737 107.598 42.9603 107.206 42.9603 107.206C42.9029 107.192 42.8433 107.19 42.7849 107.199C42.7264 107.208 42.6704 107.228 42.6199 107.259C42.5693 107.29 42.5254 107.33 42.4904 107.377C42.4555 107.425 42.4302 107.479 42.4162 107.537C42.4022 107.594 42.3996 107.654 42.4086 107.712C42.4176 107.77 42.438 107.827 42.4686 107.877C42.4993 107.928 42.5396 107.972 42.5873 108.006C42.6349 108.041 42.689 108.067 42.7464 108.081C42.7464 108.081 44.6251 108.569 46.3488 107.954C46.4486 107.919 46.5331 107.851 46.5874 107.76C46.6418 107.67 46.6625 107.563 46.6459 107.459C46.6294 107.354 46.5767 107.259 46.497 107.19C46.4173 107.12 46.3157 107.081 46.2101 107.08V107.08Z" fill="#1E88E5"/>
<path d="M46.3608 117.499C46.3053 117.503 46.2512 117.517 46.201 117.541C44.9842 118.093 43.2308 117.595 43.2308 117.595C43.1744 117.578 43.1152 117.571 43.0564 117.576C42.9975 117.581 42.9403 117.598 42.8879 117.625C42.8356 117.653 42.7891 117.69 42.7511 117.735C42.7132 117.78 42.6845 117.833 42.6668 117.889C42.649 117.945 42.6426 118.005 42.6477 118.063C42.6529 118.122 42.6696 118.179 42.6969 118.232C42.7241 118.284 42.7615 118.331 42.8067 118.369C42.8519 118.407 42.9042 118.435 42.9605 118.453C42.9605 118.453 44.9076 119.113 46.5699 118.359C46.6666 118.317 46.7453 118.241 46.7921 118.147C46.839 118.052 46.851 117.944 46.826 117.841C46.8011 117.739 46.7407 117.648 46.6557 117.585C46.5706 117.523 46.4662 117.492 46.3608 117.499V117.499Z" fill="#1E88E5"/>
<path d="M82.1258 55.3523C82.0325 55.3492 81.9407 55.3752 81.8629 55.4267C81.7851 55.4782 81.7253 55.5527 81.6917 55.6397C81.6581 55.7267 81.6525 55.8221 81.6755 55.9125C81.6985 56.0029 81.7491 56.0839 81.8203 56.1442C81.8203 56.1442 83.9658 58.0052 85.3592 62.376C86.7526 66.7468 87.358 73.6 84.0832 83.513C77.4869 103.48 75.112 108.66 75.861 113.154C76.2036 115.211 76.1525 118.281 73.0953 123.71C70.038 129.139 63.9625 136.881 52.299 148.099C52.2374 148.158 52.194 148.234 52.174 148.317C52.154 148.401 52.1582 148.488 52.1862 148.569C53.0924 151.205 52.088 155.161 50.788 158.422C49.4881 161.683 47.9447 164.24 47.9447 164.24C47.8864 164.333 47.8643 164.445 47.8826 164.553C47.9009 164.662 47.9584 164.76 48.0441 164.829C48.1298 164.897 48.2379 164.933 48.3477 164.927C48.4576 164.922 48.5616 164.876 48.6402 164.799C48.6402 164.799 48.9969 164.459 49.4768 164.101C49.9567 163.744 50.5791 163.394 50.9219 163.347C51.2279 163.305 51.5238 163.286 51.7279 163.31C51.932 163.333 51.9968 163.388 52.0052 163.401C52.0136 163.414 52.0604 163.511 51.9418 163.834C51.8231 164.156 51.5439 164.647 51.0536 165.305C51.0487 165.312 51.044 165.319 51.0395 165.326C48.6124 168.966 45.714 170.08 43.0077 169.91C41.5837 169.821 40.3943 169.727 39.5675 169.52C39.1541 169.417 38.8349 169.286 38.6228 169.137C38.4107 168.989 38.2999 168.84 38.2398 168.63C38.0647 168.016 37.6209 166.373 37.2905 164.698C37.1252 163.861 36.9881 163.015 36.9262 162.294C36.8644 161.574 36.8939 160.965 36.9849 160.692C37.0257 160.569 37.1997 160.213 37.4526 159.761C37.7054 159.31 38.041 158.741 38.4254 158.098C39.1942 156.81 40.1616 155.217 41.076 153.616C41.9905 152.016 42.8532 150.41 43.4212 149.065C43.7052 148.392 43.9152 147.787 44.0204 147.26C44.1257 146.733 44.1583 146.259 43.8888 145.855L43.9382 145.951C43.9382 145.951 43.3344 144.08 43.8395 142.906C44.6903 141.297 46.4399 139.241 48.1891 136.707C49.9438 134.165 51.6942 131.125 52.5152 127.477C54.106 120.407 57.0756 114.382 62.2271 107.099C62.2651 107.045 62.2908 106.984 62.3026 106.919C62.3144 106.855 62.3118 106.789 62.2952 106.725C62.2952 106.725 58.6991 93.0699 61.649 77.6714C61.6602 77.6134 61.6597 77.5537 61.6478 77.4959C61.6359 77.438 61.6127 77.3831 61.5795 77.3342C61.5463 77.2853 61.5038 77.2434 61.4545 77.211C61.4051 77.1785 61.3499 77.1561 61.2919 77.145C61.2339 77.1339 61.1742 77.1343 61.1164 77.1462C61.0585 77.1582 61.0036 77.1814 60.9547 77.2146C60.9058 77.2477 60.8639 77.2902 60.8315 77.3396C60.799 77.3889 60.7766 77.4442 60.7655 77.5022C57.8062 92.9496 61.311 106.435 61.3929 106.749C56.2769 114.011 53.245 120.14 51.6386 127.279C50.8543 130.765 49.1719 133.698 47.4488 136.195C45.7258 138.691 43.9645 140.729 43.0288 142.506C43.0237 142.516 43.019 142.525 43.0147 142.534C42.2798 144.215 43.0923 146.257 43.0923 146.257C43.1048 146.291 43.1213 146.323 43.1416 146.353C43.17 146.396 43.2244 146.658 43.1392 147.084C43.0541 147.51 42.8621 148.074 42.5917 148.715C42.0509 149.995 41.1999 151.586 40.2935 153.172C39.3871 154.759 38.4263 156.345 37.6546 157.637C37.2688 158.283 36.9289 158.855 36.6677 159.322C36.4064 159.789 36.2272 160.129 36.1343 160.408C35.9578 160.937 35.9646 161.599 36.0309 162.372C36.0972 163.145 36.2401 164.015 36.4092 164.872C36.7476 166.587 37.1937 168.242 37.375 168.876C37.4933 169.291 37.763 169.634 38.1082 169.875C38.4534 170.117 38.8706 170.273 39.3489 170.392C40.3056 170.631 41.5216 170.718 42.9512 170.808C45.9465 170.995 49.2105 169.676 51.775 165.843L51.7798 165.836C52.2956 165.143 52.6145 164.602 52.7832 164.144C52.9525 163.683 52.9778 163.249 52.7573 162.91C52.5368 162.571 52.1657 162.454 51.8291 162.417C51.4925 162.378 51.1413 162.409 50.7999 162.456C50.3179 162.523 49.9117 162.834 49.498 163.103C50.0222 162.174 50.6522 161.192 51.6247 158.753C52.9151 155.516 53.9808 151.609 53.0839 148.573C64.6488 137.428 70.7689 129.67 73.8778 124.149C77.0054 118.595 77.1196 115.229 76.7494 113.006C76.0716 108.939 78.3348 103.778 84.9363 83.7949C88.2603 73.7331 87.668 66.6623 86.2146 62.1034C84.7612 57.5445 82.4125 55.4674 82.4125 55.4674C82.3336 55.3963 82.232 55.3555 82.1258 55.3522L82.1258 55.3523Z" fill="#1E88E5"/>
<path d="M42.2882 85.0358C42.1718 85.0441 42.0633 85.0974 41.9856 85.1844C41.9078 85.2713 41.8669 85.3851 41.8714 85.5016C41.876 85.6182 41.9257 85.7284 42.0101 85.809C42.0944 85.8896 42.2068 85.9342 42.3234 85.9334C42.3234 85.9334 42.2973 85.9298 42.3307 85.9382C42.3639 85.9466 42.4257 85.9653 42.5139 86.0111C42.6904 86.1027 42.9735 86.3009 43.3082 86.7513C43.9765 87.6505 44.8392 89.5647 45.3855 93.4555C45.4151 94.0877 45.4508 94.9297 45.4865 95.9487C45.8693 106.868 46.551 137.539 46.551 137.539C46.5524 137.598 46.5654 137.656 46.5893 137.71C46.6132 137.764 46.6476 137.813 46.6903 137.854C46.7331 137.895 46.7835 137.927 46.8386 137.948C46.8937 137.969 46.9525 137.98 47.0116 137.978C47.0707 137.977 47.1289 137.964 47.183 137.94C47.2371 137.916 47.2859 137.882 47.3267 137.839C47.3675 137.796 47.3995 137.746 47.4208 137.691C47.4421 137.636 47.4524 137.577 47.451 137.518C47.451 137.518 46.7677 106.857 46.3842 95.9157C46.3481 94.8841 46.3132 94.0279 46.2831 93.3873C46.2829 93.374 46.2821 93.3606 46.2807 93.3474C45.7223 89.3535 44.8371 87.3021 44.0295 86.2155C43.6258 85.6723 43.2359 85.3721 42.9275 85.2121C42.7733 85.1321 42.6399 85.0885 42.5374 85.0641C42.4349 85.0398 42.333 85.036 42.333 85.036C42.3181 85.0352 42.3032 85.0352 42.2883 85.036L42.2882 85.0358Z" fill="#1E88E5"/>
<path d="M48.753 78.9988L48.0151 79.511C48.0151 79.511 58.8272 95.1632 52.0169 108.816C50.1483 112.562 49.8849 117.811 50.0525 122.145C50.22 126.478 50.842 129.906 50.842 129.906L51.7256 129.746C51.7256 129.746 51.1151 126.378 50.9501 122.112C50.7851 117.845 51.0891 112.689 52.8206 109.218C59.9208 94.9837 48.753 78.9988 48.753 78.9988V78.9988Z" fill="#1E88E5"/>
<path d="M41.2754 81.1044C41.2014 81.1013 41.1277 81.1167 41.061 81.149C40.9943 81.1813 40.9366 81.2297 40.8931 81.2897C40.8496 81.3497 40.8217 81.4195 40.8117 81.493C40.8017 81.5664 40.8101 81.6412 40.836 81.7106C41.5768 83.786 41.9667 87.0537 42.206 89.9281C42.3256 91.3653 42.409 92.7064 42.4903 93.7701C42.531 94.302 42.571 94.7635 42.6149 95.1377C42.6513 95.4498 42.6946 95.6634 42.7511 95.8685C42.1001 97.8645 42.1016 100.222 42.2271 102.359C42.3555 104.545 42.5818 106.534 42.4316 107.435C42.0523 109.68 42.0944 115.258 42.6454 117.997C42.614 118.083 42.5461 118.165 42.5256 118.26C42.4831 118.456 42.4552 118.686 42.4339 118.958C42.3914 119.503 42.3821 120.213 42.3986 121.054C42.4316 122.736 42.5726 124.934 42.8005 127.265C43.2562 131.927 44.0362 137.077 45.0493 139.722C45.0681 139.78 45.0985 139.833 45.1386 139.879C45.1787 139.925 45.2278 139.962 45.2827 139.988C45.3376 140.014 45.3973 140.029 45.4582 140.032C45.519 140.034 45.5798 140.024 45.6367 140.003C45.6936 139.981 45.7455 139.948 45.7892 139.906C45.833 139.863 45.8677 139.812 45.8912 139.756C45.9147 139.7 45.9266 139.64 45.9261 139.579C45.9255 139.518 45.9126 139.458 45.8882 139.402C44.9623 136.985 44.1455 131.802 43.6934 127.178C43.4674 124.866 43.3285 122.682 43.2963 121.036C43.2802 120.212 43.2903 119.521 43.3291 119.026C43.3484 118.779 43.3759 118.582 43.4043 118.451C43.4327 118.32 43.4968 118.255 43.4231 118.333C43.4726 118.281 43.5088 118.217 43.5284 118.147C43.548 118.078 43.5506 118.004 43.5359 117.934C43.0215 115.487 42.9804 109.581 43.3174 107.585C43.3174 107.584 43.3174 107.583 43.3174 107.582C43.5198 106.37 43.2486 104.454 43.1224 102.305C42.9961 100.155 43.0047 97.8196 43.6276 96.0141C43.6603 95.918 43.6594 95.8136 43.6252 95.718C43.6015 95.6502 43.5488 95.3857 43.5076 95.0342C43.4665 94.6827 43.4281 94.2287 43.3878 93.7019C43.3073 92.6482 43.2217 91.3011 43.1011 89.8528C42.86 86.9561 42.4877 83.6674 41.6818 81.4097C41.6528 81.3237 41.5985 81.2485 41.5259 81.194C41.4533 81.1395 41.3659 81.1082 41.2753 81.1043L41.2754 81.1044Z" fill="#1E88E5"/>
<path d="M52.6854 154.474C52.5927 154.477 52.5034 154.509 52.4296 154.565C52.3558 154.621 52.3011 154.699 52.2731 154.787C51.4924 157.256 48.2822 163.97 48.2822 163.97C48.2391 164.059 48.227 164.161 48.2477 164.258C48.2685 164.356 48.3209 164.443 48.3969 164.507C48.4729 164.572 48.568 164.609 48.6674 164.613C48.7669 164.618 48.8649 164.589 48.9462 164.532C49.9126 163.851 50.6706 163.433 51.2143 163.224C51.7581 163.016 52.0618 163.05 52.1233 163.081C52.1541 163.097 52.1554 163.096 52.1724 163.142C52.1894 163.187 52.2051 163.285 52.1892 163.428C52.1574 163.715 52.0006 164.163 51.721 164.665C50.6029 166.671 47.5953 169.521 44.2764 169.857C44.2168 169.862 44.1588 169.878 44.1057 169.906C44.0526 169.933 44.0056 169.971 43.9673 170.017C43.9291 170.063 43.9004 170.116 43.8829 170.173C43.8654 170.231 43.8595 170.291 43.8656 170.35C43.8716 170.41 43.8895 170.467 43.9181 170.52C43.9467 170.572 43.9855 170.619 44.0322 170.656C44.0789 170.693 44.1326 170.721 44.1901 170.737C44.2476 170.753 44.3078 170.758 44.3672 170.751C48.1221 170.371 51.2391 167.375 52.5063 165.102C52.8231 164.533 53.0285 164.01 53.082 163.528C53.1087 163.287 53.098 163.051 53.0136 162.826C52.9292 162.601 52.7543 162.393 52.5287 162.279C52.0773 162.051 51.5467 162.134 50.8923 162.385C50.5557 162.514 50.1755 162.701 49.7526 162.944C50.4583 161.456 51.7402 158.689 52.6536 156.303C53.2053 158.058 56.8356 169.644 60.4744 183.349C62.4357 190.736 64.3073 198.438 65.5092 204.91C66.4662 210.064 66.9411 214.4 66.7788 217.151C66.5463 216.594 66.2635 215.975 65.8487 215.248C64.5898 213.043 62.3786 210.175 58.5806 207.498C58.5324 207.464 58.4779 207.44 58.4203 207.427C58.3627 207.414 58.3031 207.412 58.245 207.422C58.1868 207.432 58.1312 207.454 58.0813 207.485C58.0314 207.517 57.9882 207.558 57.9542 207.606C57.9202 207.655 57.896 207.709 57.8831 207.767C57.8701 207.824 57.8687 207.884 57.8787 207.942C57.8888 208 57.9103 208.056 57.9418 208.106C57.9734 208.156 58.0145 208.199 58.0627 208.233C61.7482 210.831 63.8671 213.59 65.0678 215.694C66.2685 217.797 66.5413 219.206 66.5413 219.206C66.5608 219.306 66.6131 219.395 66.6898 219.461C66.7665 219.527 66.8631 219.565 66.9641 219.569C67.0651 219.573 67.1645 219.543 67.2462 219.483C67.328 219.424 67.3874 219.339 67.4148 219.242C68.1863 216.503 67.6018 211.257 66.3927 204.746C65.1836 198.235 63.3076 190.518 61.343 183.118C57.4138 168.319 53.1299 154.787 53.1299 154.787C53.1001 154.693 53.0405 154.612 52.9603 154.555C52.88 154.499 52.7834 154.47 52.6853 154.474L52.6854 154.474Z" fill="#1E88E5"/>
<path d="M77.9534 165.095C77.8881 165.098 77.8241 165.115 77.766 165.145C77.7079 165.175 77.6571 165.217 77.6171 165.269C73.4625 170.474 71.3773 175.021 70.3335 178.276C69.2897 181.531 69.2871 183.534 69.2871 183.534C69.2871 183.606 69.3046 183.677 69.3381 183.741C73.2806 191.272 74.6692 208.077 74.7366 210.912C74.7369 210.971 74.7491 211.03 74.7726 211.085C74.796 211.14 74.8301 211.19 74.873 211.232C74.9158 211.273 74.9665 211.306 75.0222 211.328C75.0778 211.35 75.1372 211.36 75.1969 211.359C75.2566 211.357 75.3154 211.344 75.3699 211.319C75.4244 211.295 75.4735 211.26 75.5143 211.216C75.5551 211.173 75.5868 211.121 75.6075 211.065C75.6282 211.009 75.6376 210.95 75.635 210.89C75.5634 207.88 74.2939 191.437 70.1924 183.46C70.1927 183.363 70.2056 181.619 71.1896 178.55C72.2015 175.395 74.2328 170.95 78.3196 165.829C78.3747 165.762 78.4092 165.681 78.4189 165.594C78.4287 165.508 78.4133 165.421 78.3745 165.343C78.3358 165.266 78.2755 165.201 78.2007 165.157C78.126 165.113 78.0401 165.091 77.9534 165.095L77.9534 165.095Z" fill="#1E88E5"/>
<path d="M74.9788 213.395C74.8753 213.393 74.7744 213.427 74.6932 213.492C74.6119 213.556 74.5554 213.646 74.5331 213.747C74.5331 213.747 72.9994 220.243 73.8939 227.525C74.3392 231.15 75.4483 237.125 76.3355 242.973C77.2226 248.82 77.8716 254.571 77.4502 257.52C77.4353 257.629 77.4607 257.74 77.5217 257.831C77.5826 257.923 77.6749 257.988 77.7812 258.016C77.8874 258.044 78.0002 258.032 78.0982 257.983C78.1962 257.933 78.2727 257.849 78.3132 257.747C78.4061 257.509 78.4989 257.273 78.5911 257.04C78.6324 256.939 78.6357 256.827 78.6004 256.724C78.565 256.621 78.4935 256.534 78.399 256.48C78.611 253.146 78.0229 248.104 77.2239 242.838C76.3338 236.97 75.2239 230.979 74.7861 227.416C73.9147 220.321 75.4078 213.953 75.4078 213.953C75.4243 213.887 75.4256 213.819 75.4118 213.753C75.398 213.686 75.3695 213.624 75.3282 213.57C75.287 213.517 75.2341 213.473 75.1736 213.443C75.1131 213.412 75.0465 213.396 74.9788 213.395Z" fill="#1E88E5"/>
<path d="M74.2103 122.606C74.1296 122.603 74.0499 122.623 73.9795 122.662C73.909 122.702 73.8504 122.759 73.8099 122.829C70.9645 127.568 67.3463 131.912 67.3463 131.912C67.3375 131.922 67.3292 131.933 67.3215 131.945C65.4966 134.593 65.2903 138.049 65.9487 141.688C66.607 145.327 68.1337 149.181 69.8718 152.714C73.3481 159.779 77.6876 165.569 77.6876 165.569C77.7273 165.622 77.7781 165.666 77.8365 165.697C77.8949 165.728 77.9594 165.745 78.0254 165.749C78.0914 165.752 78.1574 165.74 78.2185 165.715C78.2796 165.69 78.3344 165.652 78.379 165.603C78.3843 165.597 78.3893 165.592 78.3933 165.588C78.437 165.541 78.4702 165.486 78.4908 165.425C78.5114 165.365 78.5189 165.301 78.5127 165.237C78.5065 165.174 78.4869 165.112 78.455 165.057C78.4232 165.001 78.3799 164.953 78.328 164.916C78.3278 164.916 78.3276 164.915 78.3274 164.915C78.1979 164.742 74.0565 159.184 70.6782 152.317C68.9625 148.83 67.4675 145.036 66.8328 141.527C66.1984 138.021 66.4271 134.83 68.0594 132.458C68.0974 132.413 71.7024 128.086 74.5808 123.291C74.6224 123.224 74.6456 123.147 74.6479 123.068C74.6502 122.989 74.6316 122.911 74.594 122.841C74.5565 122.772 74.5012 122.713 74.4338 122.672C74.3664 122.631 74.2893 122.608 74.2103 122.606L74.2103 122.606Z" fill="#1E88E5"/>
<path d="M71.2788 222.827C70.8189 222.625 70.2646 222.713 69.843 223.041C69.4215 223.369 69.0922 223.896 68.8491 224.62L68.8444 224.634L68.8397 224.651C67.6377 229.211 67.1573 240.711 69.3378 259.036L69.3354 259.031C69.7529 262.841 70.1514 264.943 70.6067 265.989C70.7205 266.251 70.8352 266.454 71.0132 266.617C71.1913 266.78 71.5168 266.877 71.7652 266.781C72.0135 266.686 72.1469 266.51 72.2634 266.321C72.3799 266.132 72.4766 265.908 72.5688 265.649C73.3061 263.57 73.7999 258.904 73.9905 255.328C74.0426 254.557 73.9794 252.913 73.8636 250.673C73.7478 248.433 73.5749 245.628 73.3983 242.662C73.0452 236.73 72.6726 230.145 72.6863 226.178C72.6923 224.443 72.1985 223.231 71.2788 222.827L71.2788 222.827ZM70.9169 223.65C71.2571 223.799 71.7941 224.628 71.7887 226.173C71.7748 230.2 72.1499 236.782 72.5031 242.716C72.6797 245.683 72.8506 248.487 72.966 250.72C73.0815 252.953 73.1374 254.646 73.0953 255.269V255.272L73.0928 255.274C72.9048 258.805 72.3522 263.567 71.7205 265.348C71.6508 265.545 71.5828 265.684 71.5231 265.79C71.4894 265.736 71.4738 265.73 71.4315 265.632C71.0851 264.836 70.645 262.713 70.2307 258.933V258.93H70.2283C68.0575 240.687 68.5893 229.161 69.7066 224.9C69.9116 224.295 70.1766 223.921 70.3952 223.751C70.6151 223.58 70.7467 223.575 70.9168 223.65L70.9169 223.65Z" fill="#1E88E5"/>
<path d="M61.8329 225.631C61.7475 225.634 61.6648 225.662 61.5947 225.711C61.5246 225.76 61.4698 225.828 61.4369 225.907C61.404 225.986 61.3943 226.072 61.409 226.156C61.4236 226.241 61.462 226.319 61.5195 226.382C61.9142 226.827 62.4283 226.929 62.7779 227.032C63.1275 227.135 63.2868 227.186 63.4046 227.44C65.9959 233.036 66.14 242.236 65.3196 251.137C64.4991 260.038 62.7441 268.656 61.6744 273.188C61.6603 273.245 61.6578 273.305 61.667 273.364C61.6762 273.422 61.6969 273.478 61.7279 273.529C61.7589 273.579 61.7996 273.623 61.8476 273.658C61.8956 273.693 61.9501 273.718 62.0078 273.731C62.0655 273.745 62.1253 273.747 62.1838 273.737C62.2423 273.728 62.2984 273.707 62.3487 273.675C62.399 273.644 62.4426 273.603 62.477 273.555C62.5114 273.506 62.5359 273.452 62.5491 273.394C63.6269 268.828 65.3879 260.184 66.2142 251.219C67.0406 242.254 66.9615 232.983 64.2203 227.063C63.9581 226.497 63.4238 226.285 63.0322 226.17C62.6406 226.054 62.3662 225.982 62.1916 225.785C62.1473 225.734 62.0921 225.694 62.03 225.667C61.9679 225.64 61.9005 225.628 61.8329 225.631V225.631Z" fill="#1E88E5"/>
<path d="M61.855 226.083C61.8553 226.084 61.8555 226.084 61.8558 226.084" stroke="#1E88E5" stroke-width="2.82331" stroke-linecap="round" stroke-linejoin="round"/>
<path d="M66.7222 218.785C66.6186 218.79 66.5199 218.83 66.4428 218.9C66.3657 218.969 66.315 219.063 66.2992 219.166C66.2992 219.166 65.9109 221.443 65.1314 223.388C64.7416 224.361 64.2409 225.24 63.7308 225.679C63.4758 225.899 63.2372 226.008 62.993 226.025C62.7488 226.041 62.4706 225.97 62.1165 225.717C62.0684 225.683 62.0139 225.658 61.9564 225.645C61.8988 225.632 61.8392 225.63 61.7809 225.64C61.7226 225.65 61.6669 225.671 61.6168 225.702C61.5667 225.734 61.5233 225.775 61.4891 225.823C61.4548 225.871 61.4304 225.925 61.4172 225.983C61.404 226.04 61.4022 226.1 61.412 226.158C61.4218 226.217 61.443 226.272 61.4744 226.322C61.5058 226.373 61.5467 226.416 61.5948 226.45C62.074 226.793 62.5729 226.955 63.0517 226.922C63.5306 226.89 63.9589 226.671 64.3183 226.361C65.0371 225.741 65.5502 224.758 65.9656 223.722C66.7963 221.649 67.1851 219.314 67.1851 219.314C67.1971 219.247 67.194 219.179 67.176 219.114C67.1579 219.049 67.1255 218.989 67.081 218.938C67.0365 218.887 66.9812 218.847 66.9191 218.82C66.8569 218.794 66.7897 218.782 66.7222 218.785V218.785Z" fill="#1E88E5"/>
<path d="M71.1377 49.18C69.561 49.1331 67.8311 49.2818 66.0808 49.6617C62.5803 50.4217 59.004 52.1168 56.5639 55.111C56.5615 55.1141 56.5591 55.1173 56.5568 55.1204C54.9442 57.2015 54.4246 59.7003 54.543 62.2264C54.6614 64.7525 55.4076 67.3216 56.3406 69.6308C58.2066 74.2493 60.843 77.853 60.843 77.853C60.8937 77.9227 60.9635 77.9763 61.0439 78.0074C61.1244 78.0385 61.212 78.0459 61.2965 78.0285C61.381 78.0112 61.4587 77.9699 61.5204 77.9096C61.582 77.8493 61.625 77.7725 61.6443 77.6885C61.6443 77.6885 64.6045 64.931 78.2601 62.4802C81.1261 61.9658 82.2981 60.2138 82.6285 58.6499C82.9589 57.0861 82.5463 55.682 82.5463 55.682C82.5334 55.6369 82.5136 55.5941 82.4875 55.5552C82.4875 55.5552 79.7535 51.4924 75.2687 49.8779C74.1374 49.4706 72.7144 49.2269 71.1377 49.18L71.1377 49.18ZM71.1166 50.0847C72.6184 50.1304 73.9534 50.358 74.9633 50.7215C79.0382 52.1884 81.606 55.8788 81.6863 55.9946C81.7024 56.0537 82.0192 57.189 81.7497 58.4643C81.4733 59.7724 80.6762 61.1343 78.1004 61.5967C65.4593 63.8654 61.768 74.2504 61.078 76.5676C60.4512 75.6654 58.6948 73.0626 57.1725 69.2948C56.2643 67.0467 55.5521 64.5615 55.4407 62.1841C55.3294 59.8093 55.8107 57.5565 57.2642 55.6774C59.5368 52.891 62.9198 51.2681 66.2712 50.5406C67.9477 50.1766 69.6148 50.039 71.1166 50.0847H71.1166Z" fill="#1E88E5"/>
<path d="M66.5639 219.06C69.4085 208.961 52.2828 154.863 52.2828 154.863C51.4674 157.442 48.269 164.105 48.269 164.105C56.202 158.517 50.9112 169.668 43.769 170.257C43.769 170.257 44.4769 179.058 48.3046 187.962C51.3885 195.136 57.903 207.806 57.903 207.806C65.3864 213.082 66.5639 219.06 66.5639 219.06V219.06Z" fill="#1E88E5" fill-opacity="0.0705882"/>
<path d="M75.0072 210.722C75.0072 210.722 82.1024 202.255 77.9692 165.146C69.5481 175.585 69.5576 183.354 69.5576 183.354C73.6047 191.084 74.9376 207.792 75.0072 210.722V210.722Z" fill="#1E88E5" fill-opacity="0.227451"/>
<path d="M74.7917 213.671C74.7917 213.671 73.2784 220.103 74.1614 227.291C75.0444 234.479 78.5988 251.225 77.7161 257.405C79.8889 251.838 81.8932 247.57 82.7496 243.447C84.3413 235.781 82.3281 229.34 80.1939 225.602C76.2884 218.762 74.7917 213.671 74.7917 213.671V213.671Z" fill="#1E88E5" fill-opacity="0.0705882"/>
<path d="M77.869 165.121C77.869 165.121 60.5945 142.061 67.5131 132.02C67.5131 132.02 71.6038 127.114 74.5319 122.004C74.5319 122.004 75.8862 129.106 79.1748 133.905C83.4382 140.128 88.7389 153.179 77.869 165.121Z" fill="#1E88E5" fill-opacity="0.0705882"/>
<path d="M73.3644 255.12C72.9859 262.227 71.2682 273.984 69.6048 258.804C67.4279 240.509 67.9359 228.99 69.0969 224.585C69.9942 221.913 72.0711 222.716 72.0597 225.997C72.032 233.99 73.5527 252.332 73.3644 255.12Z" fill="#1E88E5" fill-opacity="0.227451"/>
<path d="M61.6731 274.189C61.6731 274.189 62.1452 264.835 61.464 253.868C60.7451 242.293 59.8789 232.129 61.6765 225.904C62.2457 226.546 63.254 226.252 63.6342 227.073C69.1951 239.082 63.6426 266.219 61.6731 274.189V274.189Z" fill="#1E88E5" fill-opacity="0.0705882"/>
<g opacity="0.95">
<g opacity="0.95">
<g opacity="0.95">
<path opacity="0.95" d="M74.9963 143.566C74.5834 143.566 74.1874 143.73 73.8955 144.022C73.6035 144.314 73.4395 144.71 73.4395 145.123C73.4395 145.536 73.6035 145.932 73.8955 146.224C74.1874 146.516 74.5834 146.68 74.9963 146.68C75.3096 146.68 75.6155 146.585 75.874 146.408C76.1326 146.231 76.3318 145.98 76.4455 145.688H103.903V144.793H76.5158C76.4404 144.446 76.2487 144.135 75.9723 143.912C75.6959 143.689 75.3515 143.567 74.9963 143.566V143.566Z" fill="#F78A0A"/>
</g>
<g opacity="0.95">
<path opacity="0.95" d="M74.9963 189.404C74.5834 189.404 74.1874 189.568 73.8955 189.86C73.6035 190.152 73.4395 190.548 73.4395 190.961C73.4395 191.374 73.6035 191.77 73.8955 192.062C74.1874 192.354 74.5834 192.518 74.9963 192.518C75.3081 192.518 75.6127 192.424 75.8705 192.248C76.1283 192.073 76.3276 191.824 76.4424 191.534H103.903V190.639H76.5177C76.4438 190.29 76.2525 189.977 75.9756 189.752C75.6986 189.528 75.3529 189.405 74.9963 189.404V189.404Z" fill="#F78A0A"/>
</g>
<g opacity="0.95">
<path opacity="0.95" d="M55.2271 189.446C54.8778 189.446 54.5387 189.564 54.2644 189.781C53.9902 189.997 53.7967 190.299 53.715 190.639H20.0034V191.534H53.7654C53.8745 191.835 54.0732 192.094 54.3347 192.277C54.5962 192.461 54.9077 192.559 55.2271 192.56C55.4316 192.56 55.6341 192.52 55.823 192.441C56.012 192.363 56.1837 192.248 56.3283 192.104C56.4729 191.959 56.5877 191.788 56.6659 191.599C56.7442 191.41 56.7845 191.207 56.7845 191.003C56.7845 190.798 56.7442 190.596 56.6659 190.407C56.5876 190.218 56.4729 190.046 56.3283 189.902C56.1837 189.757 56.012 189.643 55.823 189.564C55.6341 189.486 55.4316 189.446 55.2271 189.446V189.446Z" fill="#F78A0A"/>
</g>
<g opacity="0.95">
<path opacity="0.95" d="M80.089 235.639C79.8846 235.639 79.6821 235.679 79.4932 235.758C79.3042 235.836 79.1326 235.951 78.988 236.095C78.8435 236.24 78.7288 236.411 78.6506 236.6C78.5724 236.789 78.5322 236.992 78.5322 237.196C78.5323 237.609 78.6963 238.005 78.9883 238.297C79.2802 238.589 79.6762 238.753 80.089 238.753C80.4353 238.753 80.7716 238.637 81.0446 238.424C81.3177 238.211 81.512 237.913 81.5968 237.577H103.903V236.682H81.5576C81.4511 236.378 81.2526 236.114 80.9895 235.927C80.7264 235.74 80.4118 235.639 80.089 235.639V235.639Z" fill="#F78A0A"/>
</g>
<g opacity="0.95">
<path opacity="0.95" d="M63.5036 235.681C63.1887 235.682 62.8813 235.777 62.622 235.956C62.3627 236.135 62.1637 236.388 62.0513 236.682H20.0034V237.577H61.986C62.063 237.923 62.2552 238.231 62.5311 238.453C62.8069 238.674 63.1499 238.795 63.5036 238.795C63.7081 238.795 63.9106 238.755 64.0995 238.677C64.2884 238.599 64.4601 238.484 64.6046 238.339C64.7492 238.195 64.8639 238.023 64.9421 237.834C65.0203 237.645 65.0605 237.442 65.0604 237.238C65.0604 236.825 64.8964 236.429 64.6044 236.137C64.3125 235.845 63.9165 235.681 63.5036 235.681Z" fill="#F78A0A"/>
</g>
<g opacity="0.95">
<path opacity="0.95" d="M71.6659 256.384C71.4614 256.384 71.2589 256.424 71.0699 256.502C70.881 256.58 70.7093 256.695 70.5647 256.84C70.4201 256.984 70.3053 257.156 70.227 257.345C70.1488 257.534 70.1085 257.736 70.1084 257.941C70.1088 258.256 70.2047 258.563 70.3835 258.823C70.5623 259.082 70.8157 259.281 71.11 259.394L71.0242 282.666L20.0036 282.642L20.0029 283.647L71.5241 283.67C71.6574 283.67 71.7854 283.618 71.8799 283.524C71.9745 283.43 72.0279 283.302 72.0283 283.169L72.116 259.43C72.4358 259.333 72.7161 259.136 72.9154 258.868C73.1146 258.6 73.2224 258.275 73.2227 257.941C73.2227 257.528 73.0586 257.132 72.7667 256.84C72.4747 256.548 72.0788 256.384 71.6659 256.384V256.384Z" fill="#F78A0A"/>
</g>
</g>
</g>
</g>
<circle cx="10.0898" cy="191.335" r="10.0898" fill="#636262"/>
<path d="M8.6875 190.864H9.69922C10.2096 190.859 10.613 190.727 10.9092 190.467C11.21 190.207 11.3604 189.831 11.3604 189.339C11.3604 188.865 11.235 188.498 10.9844 188.239C10.7383 187.974 10.36 187.842 9.84961 187.842C9.40299 187.842 9.03613 187.972 8.74902 188.232C8.46191 188.487 8.31836 188.822 8.31836 189.237H6.65723C6.65723 188.726 6.79167 188.261 7.06055 187.842C7.33398 187.423 7.71224 187.097 8.19531 186.865C8.68294 186.628 9.22754 186.509 9.8291 186.509C10.8226 186.509 11.6019 186.76 12.167 187.261C12.7367 187.758 13.0215 188.45 13.0215 189.339C13.0215 189.786 12.8779 190.207 12.5908 190.604C12.3083 190.996 11.9414 191.292 11.4902 191.492C12.0371 191.679 12.4518 191.973 12.7344 192.374C13.0215 192.775 13.165 193.254 13.165 193.81C13.165 194.703 12.8574 195.414 12.2422 195.943C11.6315 196.471 10.8271 196.736 9.8291 196.736C8.87207 196.736 8.08822 196.48 7.47754 195.97C6.86686 195.46 6.56152 194.781 6.56152 193.933H8.22266C8.22266 194.37 8.36849 194.726 8.66016 194.999C8.95638 195.273 9.35286 195.409 9.84961 195.409C10.3646 195.409 10.7702 195.273 11.0664 194.999C11.3626 194.726 11.5107 194.329 11.5107 193.81C11.5107 193.286 11.3558 192.882 11.0459 192.6C10.736 192.317 10.2757 192.176 9.66504 192.176H8.6875V190.864Z" fill="white"/>
<circle cx="113.718" cy="191.335" r="10.0898" fill="#636262"/>
<path d="M110.929 191.673L111.469 186.655H116.815V188.091H112.85L112.577 190.469C113.037 190.205 113.556 190.073 114.135 190.073C115.083 190.073 115.819 190.376 116.343 190.982C116.872 191.588 117.136 192.404 117.136 193.429C117.136 194.441 116.845 195.248 116.261 195.849C115.678 196.446 114.878 196.745 113.862 196.745C112.95 196.745 112.194 196.487 111.592 195.972C110.995 195.453 110.672 194.769 110.622 193.922H112.228C112.292 194.405 112.465 194.776 112.748 195.036C113.03 195.291 113.399 195.419 113.855 195.419C114.365 195.419 114.762 195.236 115.044 194.872C115.332 194.507 115.475 194.01 115.475 193.382C115.475 192.775 115.318 192.297 115.003 191.946C114.689 191.591 114.256 191.413 113.705 191.413C113.404 191.413 113.149 191.454 112.939 191.536C112.729 191.613 112.501 191.768 112.255 192.001L110.929 191.673Z" fill="white"/>
<circle cx="10.0898" cy="283.824" r="10.0898" fill="#1E88E5"/>
<path d="M12.4756 285.55H13.7129V286.883H12.4756V289.098H10.8144V286.883H6.51463L6.46678 285.871L10.7597 279.145H12.4756V285.55ZM8.20994 285.55H10.8144V281.394L10.6914 281.613L8.20994 285.55Z" fill="white"/>
<circle cx="113.718" cy="237.58" r="10.0898" fill="#C4C4C4"/>
<path d="M115.653 232.852V234.226H115.448C114.518 234.24 113.775 234.495 113.219 234.992C112.663 235.488 112.333 236.193 112.228 237.104C112.761 236.543 113.443 236.263 114.272 236.263C115.152 236.263 115.844 236.573 116.35 237.193C116.86 237.813 117.116 238.612 117.116 239.592C117.116 240.604 116.817 241.424 116.22 242.053C115.628 242.678 114.848 242.99 113.882 242.99C112.889 242.99 112.082 242.623 111.462 241.889C110.847 241.155 110.54 240.194 110.54 239.004V238.437C110.54 236.692 110.963 235.324 111.811 234.335C112.663 233.347 113.887 232.852 115.482 232.852H115.653ZM113.869 237.603C113.504 237.603 113.169 237.706 112.864 237.911C112.563 238.116 112.342 238.389 112.201 238.731V239.237C112.201 239.975 112.356 240.563 112.666 241C112.975 241.433 113.376 241.65 113.869 241.65C114.361 241.65 114.75 241.465 115.038 241.096C115.325 240.727 115.468 240.242 115.468 239.64C115.468 239.039 115.322 238.549 115.031 238.17C114.739 237.792 114.352 237.603 113.869 237.603Z" fill="white"/>
<circle cx="113.718" cy="145.09" r="10.0898" fill="#636262"/>
<path d="M114.983 150.363H113.329V142.372L110.888 143.206V141.805L114.771 140.376H114.983V150.363Z" fill="white"/>
<circle cx="10.0898" cy="237.58" r="10.0898" fill="#1E88E5"/>
<path d="M13.5488 242.853H6.85643V241.711L10.1719 238.095C10.6504 237.562 10.9899 237.118 11.1904 236.762C11.3955 236.402 11.498 236.042 11.498 235.682C11.498 235.208 11.3636 234.825 11.0947 234.534C10.8304 234.242 10.4726 234.096 10.0215 234.096C9.48371 234.096 9.06672 234.26 8.77049 234.588C8.47427 234.917 8.32616 235.365 8.32616 235.935H6.66502C6.66502 235.329 6.80174 234.784 7.07518 234.301C7.35317 233.814 7.74738 233.435 8.2578 233.167C8.77277 232.898 9.36522 232.763 10.0351 232.763C11.0013 232.763 11.7624 233.007 12.3183 233.495C12.8789 233.978 13.1592 234.648 13.1592 235.504C13.1592 236.001 13.0179 236.523 12.7353 237.07C12.4573 237.612 11.9993 238.23 11.3613 238.922L8.92772 241.527H13.5488V242.853Z" fill="white"/>
<defs>
<clipPath id="clip0">
<rect width="83.8491" height="300" fill="white" transform="translate(20)"/>
</clipPath>
</defs>
</svg>
