<svg width="35" height="35" viewBox="0 0 35 35" fill="none" xmlns="http://www.w3.org/2000/svg">
<g clip-path="url(#clip0)">
<rect x="5" y="5.00098" width="25" height="25" rx="10" fill="white"/>
<path d="M22.7158 9.31268H12.2842C10.6192 9.31268 9.26453 10.6673 9.26453 12.3324V22.764C9.26453 24.429 10.6192 25.784 12.2842 25.784H22.7158C24.3808 25.784 25.7359 24.4294 25.7359 22.764V12.3324C25.7359 10.6673 24.3812 9.31268 22.7158 9.31268ZM17.5 22.9706C14.5104 22.9706 12.0779 20.5382 12.0779 17.5482C12.0779 14.5585 14.5104 12.1261 17.5 12.1261C20.49 12.1261 22.9225 14.5585 22.9225 17.5482C22.9225 20.5378 20.4897 22.9706 17.5 22.9706ZM23.0968 13.2472C22.389 13.2472 21.8135 12.6716 21.8135 11.9643C21.8135 11.2569 22.389 10.6814 23.0968 10.6814C23.8041 10.6814 24.3797 11.2569 24.3797 11.9643C24.3797 12.6716 23.8041 13.2472 23.0968 13.2472Z" fill="#F1F2F2"/>
<path d="M17.5 14.4174C15.7741 14.4174 14.3688 15.8219 14.3688 17.5478C14.3688 19.2744 15.7741 20.6794 17.5 20.6794C19.2266 20.6794 20.6308 19.2744 20.6308 17.5478C20.6308 15.8223 19.2263 14.4174 17.5 14.4174Z" fill="#F1F2F2"/>
<path d="M17.5 0.000976562C7.8354 0.000976562 0 7.83638 0 17.501C0 27.1656 7.8354 35.001 17.5 35.001C27.1646 35.001 35 27.1656 35 17.501C35 7.83638 27.1646 0.000976562 17.5 0.000976562ZM28.0267 22.764C28.0267 25.6928 25.6446 28.0749 22.7158 28.0749H12.2842C9.35577 28.0749 6.97325 25.6928 6.97325 22.764V12.3324C6.97325 9.40393 9.35577 7.02141 12.2842 7.02141H22.7158C25.6446 7.02141 28.0267 9.40393 28.0267 12.3324V22.764Z" fill="#F1F2F2"/>
</g>
<defs>
<clipPath id="clip0">
<rect width="35" height="35" fill="white" transform="translate(0 0.000976562)"/>
</clipPath>
</defs>
</svg>
