<svg width="35" height="35" viewBox="0 0 35 35" fill="none" xmlns="http://www.w3.org/2000/svg">
<path d="M17.5 35C27.165 35 35 27.165 35 17.5C35 7.83502 27.165 0 17.5 0C7.83502 0 0 7.83502 0 17.5C0 27.165 7.83502 35 17.5 35Z" fill="#F1F2F2"/>
<path d="M27.9561 18.9082V26.123H23.7731V19.3917C23.7731 17.7015 23.1691 16.5473 21.6546 16.5473C20.4988 16.5473 19.8122 17.3244 19.509 18.0768C19.3989 18.3457 19.3705 18.7191 19.3705 19.0963V26.1227H15.1872C15.1872 26.1227 15.2433 14.722 15.1872 13.5419H19.3708V15.3247C19.3624 15.3388 19.3505 15.3525 19.343 15.3659H19.3708V15.3247C19.9267 14.4694 20.9181 13.2465 23.1408 13.2465C25.8928 13.2465 27.9561 15.0446 27.9561 18.9082ZM10.8111 7.47754C9.38015 7.47754 8.44397 8.41683 8.44397 9.65092C8.44397 10.8588 9.35301 11.8252 10.7562 11.8252H10.7833C12.2423 11.8252 13.1495 10.8588 13.1495 9.65092C13.1217 8.41683 12.2423 7.47754 10.8111 7.47754ZM8.6926 26.123H12.8743V13.5419H8.6926V26.123Z" fill="white"/>
</svg>
