<svg width="35" height="35" viewBox="0 0 35 35" fill="none" xmlns="http://www.w3.org/2000/svg">
<g clip-path="url(#clip0)">
<path d="M17.5 35.001C27.165 35.001 35 27.166 35 17.501C35 7.83599 27.165 0.000976562 17.5 0.000976562C7.83502 0.000976562 0 7.83599 0 17.501C0 27.166 7.83502 35.001 17.5 35.001Z" fill="#F1F2F2"/>
<path d="M21.8995 18.186H18.7768V29.626H14.0457V18.186H11.7956V14.1656H14.0457V11.5639C14.0457 9.70338 14.9295 6.79004 18.819 6.79004L22.3234 6.8047V10.7072H19.7807C19.3636 10.7072 18.7772 10.9156 18.7772 11.8031V14.1693H22.3128L21.8995 18.186Z" fill="white"/>
</g>
<defs>
<clipPath id="clip0">
<rect width="35" height="35" fill="white" transform="translate(0 0.000976562)"/>
</clipPath>
</defs>
</svg>
