<?xml version="1.0" encoding="UTF-8" standalone="no"?>
<!-- Created with Inkscape (http://www.inkscape.org/) -->

<svg
   xmlns:dc="http://purl.org/dc/elements/1.1/"
   xmlns:cc="http://creativecommons.org/ns#"
   xmlns:rdf="http://www.w3.org/1999/02/22-rdf-syntax-ns#"
   xmlns:svg="http://www.w3.org/2000/svg"
   xmlns="http://www.w3.org/2000/svg"
   xmlns:sodipodi="http://sodipodi.sourceforge.net/DTD/sodipodi-0.dtd"
   xmlns:inkscape="http://www.inkscape.org/namespaces/inkscape"
   width="101.7197mm"
   height="81.79377mm"
   viewBox="0 0 101.7197 81.79377"
   version="1.1"
   id="svg3776"
   sodipodi:docname="icono_walfes.svg"
   inkscape:version="0.92.4 (5da689c313, 2019-01-14)">
  <defs
     id="defs3770" />
  <sodipodi:namedview
     id="base"
     pagecolor="#ffffff"
     bordercolor="#666666"
     borderopacity="1.0"
     inkscape:pageopacity="0.0"
     inkscape:pageshadow="2"
     inkscape:zoom="0.98994949"
     inkscape:cx="115.16063"
     inkscape:cy="152.58818"
     inkscape:document-units="mm"
     inkscape:current-layer="g3756"
     showgrid="false"
     inkscape:window-width="1366"
     inkscape:window-height="705"
     inkscape:window-x="-8"
     inkscape:window-y="-8"
     inkscape:window-maximized="1"
     fit-margin-top="0"
     fit-margin-left="0"
     fit-margin-right="0"
     fit-margin-bottom="0" />
  <metadata
     id="metadata3773">
    <rdf:RDF>
      <cc:Work
         rdf:about="">
        <dc:format>image/svg+xml</dc:format>
        <dc:type
           rdf:resource="http://purl.org/dc/dcmitype/StillImage" />
        <dc:title></dc:title>
      </cc:Work>
    </rdf:RDF>
  </metadata>
  <g
     inkscape:label="Capa 1"
     inkscape:groupmode="layer"
     id="layer1"
     transform="translate(0.386189,-215.28804)">
    <g
       transform="matrix(2.3751464,0,0,2.3751464,479.12517,-190.16703)"
       id="g3756">
      <g
         id="g4365">
        <path
           inkscape:connector-curvature="0"
           id="path3731"
           d="m -188.9668,170.70898 a 1.0107757,1.0107757 0 0 0 -0.85937,0.56836 c -1.89193,3.77404 -4.1462,8.33151 -7.50195,15.19532 -1.21857,0.0121 -2.4773,0.41253 -3.43165,1.42773 -1.18245,1.25786 -1.62433,3.41 -0.38867,5.71289 0.002,0.003 0.002,0.003 0.004,0.006 2.82225,5.46924 6.24023,11.02539 6.24023,11.02539 l 0.29688,0.48047 h 0.56445 c 0.96438,0 8.15065,0.0522 11.06445,-0.0137 0.80884,-0.0183 1.53394,-0.41529 1.9629,-0.96485 0.42895,-0.54955 0.60754,-1.20792 0.60351,-1.85156 -0.004,-0.64364 -0.1915,-1.29821 -0.625,-1.8418 -0.4335,-0.54358 -1.16024,-0.93376 -1.9668,-0.9414 l -2.91797,-0.0859 -2.08007,-8.1914 12.78711,-18.55079 a 1.0109427,1.0109427 0 1 0 -1.66407,-1.14843 l -13.30859,19.30664 2.68164,10.56054 4.47266,0.13086 h 0.0117 c 0.24367,0.002 0.30725,0.058 0.40429,0.17969 0.097,0.12169 0.18208,0.3533 0.1836,0.5957 0.002,0.24241 -0.08,0.47103 -0.17579,0.59375 -0.0958,0.12273 -0.16255,0.18182 -0.41406,0.1875 -2.66335,0.0602 -8.86148,0.0183 -10.43164,0.0137 -0.27915,-0.45543 -3.24731,-5.27728 -5.89844,-10.41602 l -0.004,-0.01 -0.004,-0.008 c -0.94646,-1.75183 -0.58775,-2.68058 0.0742,-3.38476 0.66197,-0.70419 1.88673,-1.00814 2.41797,-0.89454 l 0.77148,0.16407 0.34766,-0.70899 c 3.53966,-7.24378 5.78364,-11.77465 7.73242,-15.66211 a 1.0107757,1.0107757 0 0 0 -0.94922,-1.47461 z"
           style="color:#000000;font-style:normal;font-variant:normal;font-weight:normal;font-stretch:normal;font-size:medium;line-height:normal;font-family:sans-serif;font-variant-ligatures:normal;font-variant-position:normal;font-variant-caps:normal;font-variant-numeric:normal;font-variant-alternates:normal;font-feature-settings:normal;text-indent:0;text-align:start;text-decoration:none;text-decoration-line:none;text-decoration-style:solid;text-decoration-color:#000000;letter-spacing:normal;word-spacing:normal;text-transform:none;writing-mode:lr-tb;direction:ltr;text-orientation:mixed;dominant-baseline:auto;baseline-shift:baseline;text-anchor:start;white-space:normal;shape-padding:0;clip-rule:nonzero;display:inline;overflow:visible;visibility:visible;opacity:1;isolation:auto;mix-blend-mode:normal;color-interpolation:sRGB;color-interpolation-filters:linearRGB;solid-color:#000000;solid-opacity:1;vector-effect:none;fill:#1e88e5;fill-opacity:1;fill-rule:nonzero;stroke:none;stroke-width:2.02134919;stroke-linecap:round;stroke-linejoin:miter;stroke-miterlimit:4;stroke-dasharray:none;stroke-dashoffset:0;stroke-opacity:1;color-rendering:auto;image-rendering:auto;shape-rendering:auto;text-rendering:auto;enable-background:accumulate" />
        <path
           inkscape:connector-curvature="0"
           id="path3751"
           d="m -170.3125,171.08594 a 1.0107757,1.0107757 0 0 0 -0.93945,0.86914 l -3.80469,24.67578 9.36914,4.70703 3.76172,0.0371 c 0.36083,0.004 0.50428,0.10473 0.6289,0.24609 0.12463,0.14137 0.21087,0.36983 0.21485,0.61133 0.004,0.2415 -0.0782,0.46618 -0.17969,0.58789 -0.10143,0.12172 -0.18414,0.19301 -0.47266,0.1875 l -0.006,-0.002 h -0.004 c -2.37063,-0.0245 -22.54492,0.0977 -22.54492,0.0977 a 1.0107757,1.0107757 0 1 0 0.0117,2.02148 c 0,0 20.31709,-0.12004 22.5039,-0.0977 0.83749,0.016 1.60169,-0.35682 2.06446,-0.91211 0.46276,-0.55529 0.65953,-1.24203 0.64843,-1.91601 -0.0111,-0.67399 -0.23352,-1.36341 -0.7207,-1.91602 -0.48718,-0.5526 -1.25787,-0.9209 -2.12305,-0.92968 l -3.29492,-0.0332 -7.63672,-3.83593 3.58203,-23.22071 a 1.0107757,1.0107757 0 0 0 -1.05859,-1.17773 z"
           style="color:#000000;font-style:normal;font-variant:normal;font-weight:normal;font-stretch:normal;font-size:medium;line-height:normal;font-family:sans-serif;font-variant-ligatures:normal;font-variant-position:normal;font-variant-caps:normal;font-variant-numeric:normal;font-variant-alternates:normal;font-feature-settings:normal;text-indent:0;text-align:start;text-decoration:none;text-decoration-line:none;text-decoration-style:solid;text-decoration-color:#000000;letter-spacing:normal;word-spacing:normal;text-transform:none;writing-mode:lr-tb;direction:ltr;text-orientation:mixed;dominant-baseline:auto;baseline-shift:baseline;text-anchor:start;white-space:normal;shape-padding:0;clip-rule:nonzero;display:inline;overflow:visible;visibility:visible;opacity:1;isolation:auto;mix-blend-mode:normal;color-interpolation:sRGB;color-interpolation-filters:linearRGB;solid-color:#000000;solid-opacity:1;vector-effect:none;fill:#1e88e5;fill-opacity:1;fill-rule:nonzero;stroke:none;stroke-width:2.02134919;stroke-linecap:round;stroke-linejoin:miter;stroke-miterlimit:4;stroke-dasharray:none;stroke-dashoffset:0;stroke-opacity:1;color-rendering:auto;image-rendering:auto;shape-rendering:auto;text-rendering:auto;enable-background:accumulate" />
        <path
           inkscape:connector-curvature="0"
           id="path3037-1-6-6"
           d="m -182.60547,180.25391 -0.96094,13.84179 c -1.46392,0.95289 -2.29977,2.21992 -2.50586,3.42774 -0.23503,1.37752 0.0358,2.63244 0.0664,3.21875 l 2.01758,-0.10547 c -0.0472,-0.90373 -0.24456,-1.87813 -0.0918,-2.77344 0.15276,-0.89531 0.5157,-1.68215 1.94531,-2.39453 l 0.51758,-0.25781 1.02735,-14.81641 z"
           style="color:#000000;font-style:normal;font-variant:normal;font-weight:normal;font-stretch:normal;font-size:medium;line-height:normal;font-family:sans-serif;font-variant-ligatures:normal;font-variant-position:normal;font-variant-caps:normal;font-variant-numeric:normal;font-variant-alternates:normal;font-feature-settings:normal;text-indent:0;text-align:start;text-decoration:none;text-decoration-line:none;text-decoration-style:solid;text-decoration-color:#000000;letter-spacing:normal;word-spacing:normal;text-transform:none;writing-mode:lr-tb;direction:ltr;text-orientation:mixed;dominant-baseline:auto;baseline-shift:baseline;text-anchor:start;white-space:normal;shape-padding:0;clip-rule:nonzero;display:inline;overflow:visible;visibility:visible;opacity:1;isolation:auto;mix-blend-mode:normal;color-interpolation:sRGB;color-interpolation-filters:linearRGB;solid-color:#000000;solid-opacity:1;vector-effect:none;fill:#1e88e5;fill-opacity:1;fill-rule:nonzero;stroke:none;stroke-width:2.02134919;stroke-linecap:butt;stroke-linejoin:miter;stroke-miterlimit:4;stroke-dasharray:none;stroke-dashoffset:0;stroke-opacity:1;color-rendering:auto;image-rendering:auto;shape-rendering:auto;text-rendering:auto;enable-background:accumulate" />
      </g>
    </g>
  </g>
</svg>
