<svg width="46" height="40" viewBox="0 0 46 40" fill="none" xmlns="http://www.w3.org/2000/svg">
<g opacity="0.3">
<path opacity="0.3" d="M12.9253 13.4652L26.2555 3.07571e-05L30.282 4.02651L23.789 10.5848L45.3204 10.5369L45.3335 16.2498L23.8021 16.2977L23.8892 16.3849L15.8537 16.4023L12.9253 13.4652Z" fill="white"/>
<path opacity="0.3" d="M45.229 16.3543L23.6976 16.3979L23.7848 16.485L15.7492 16.5024L12.8208 13.5697L26.151 0.100189L30.1775 4.12668L23.6845 10.685L45.2159 10.6414L45.229 16.3543Z" fill="#FEFFFF"/>
<path opacity="0.3" d="M45.124 16.4546L23.5926 16.5025L23.6798 16.5897L15.6442 16.6071L12.7158 13.6701L26.046 0.200508L30.0725 4.22699L23.5795 10.7896L45.111 10.7417L45.124 16.4546Z" fill="#FEFEFF"/>
<path opacity="0.3" d="M45.0195 16.5548L23.4925 16.6027L23.5709 16.6899L15.5397 16.7073L12.6113 13.7746L25.9415 0.305084L29.968 4.33158L23.4751 10.8899L45.0065 10.8419L45.0195 16.5548Z" fill="#FDFEFE"/>
<path opacity="0.3" d="M44.915 16.6595L23.388 16.7074L23.4664 16.7902L15.4352 16.812L12.5068 13.8749L25.837 0.405415L29.8636 4.43189L23.3706 10.9945L44.902 10.9466L44.915 16.6595Z" fill="#FDFDFE"/>
<path opacity="0.3" d="M44.8105 16.7596L23.2835 16.8119L23.3619 16.8947L15.3307 16.9122L12.4023 13.9751L25.7325 0.509909L29.759 4.5364L23.2661 11.0947L44.7975 11.0467L44.8105 16.7596Z" fill="#FCFDFE"/>
<path opacity="0.3" d="M44.7061 16.8642L23.179 16.9121L23.2575 16.9949L15.2262 17.0123L12.2978 14.0796L25.628 0.610087L29.6546 4.63656L23.1616 11.1948L44.693 11.1513L44.7061 16.8642Z" fill="#FCFDFE"/>
<path opacity="0.3" d="M44.6016 16.9644L23.0789 17.0167L23.153 17.0951L15.1217 17.1169L12.1934 14.1798L25.5236 0.714649L29.5501 4.74114L23.0571 11.2994L44.5885 11.2515L44.6016 16.9644Z" fill="#FBFCFD"/>
<path opacity="0.3" d="M44.4966 17.0646L22.9739 17.1169L23.048 17.1997L15.0167 17.2171L12.0884 14.2844L25.4186 0.81486L29.4451 4.84134L22.9521 11.3996L44.4835 11.3517L44.4966 17.0646Z" fill="#FBFCFD"/>
<path opacity="0.3" d="M44.3921 17.1693L22.8694 17.2216L22.9435 17.3L14.9122 17.3218L11.9839 14.3847L25.3141 0.915169L29.3406 4.94166L22.8476 11.5043L44.379 11.4564L44.3921 17.1693Z" fill="#FAFBFD"/>
<path opacity="0.3" d="M44.2876 17.2694L22.7693 17.3217L22.839 17.4045L14.8077 17.4219L11.8794 14.4849L25.2096 1.01968L29.2361 5.04616L22.7431 11.6044L44.2745 11.5565L44.2876 17.2694Z" fill="#FAFBFD"/>
<path opacity="0.3" d="M44.1831 17.3741L22.6648 17.4263L22.7345 17.5048L14.7033 17.5222L11.7749 14.5895L25.1051 1.11997L29.1316 5.14646L22.6386 11.7047L44.17 11.6612L44.1831 17.3741Z" fill="#F9FAFC"/>
<path opacity="0.3" d="M44.0786 17.4743L22.5603 17.5266L22.63 17.605L14.5988 17.6268L11.6704 14.6898L25.0006 1.22457L29.0271 5.25105L22.5342 11.8093L44.0655 11.7614L44.0786 17.4743Z" fill="#F9FAFC"/>
<path opacity="0.3" d="M43.9741 17.5745L22.4558 17.6311L22.5255 17.7096L14.4943 17.727L11.5659 14.7943L24.8961 1.32474L28.9226 5.35123L22.4296 11.9095L43.961 11.8616L43.9741 17.5745Z" fill="#F8FAFC"/>
<path opacity="0.3" d="M43.8691 17.6792L22.3552 17.7314L22.4205 17.8099L14.3893 17.8317L11.4609 14.8946L24.7911 1.42507L28.8177 5.45154L22.3247 12.0142L43.8561 11.9663L43.8691 17.6792Z" fill="#F8F9FC"/>
<path opacity="0.3" d="M43.7646 17.7793L22.2507 17.836L22.316 17.91L14.2848 17.9318L11.3521 14.9948L24.6866 1.52957L28.7131 5.55606L22.2202 12.1143L43.7516 12.0664L43.7646 17.7793Z" fill="#F7F9FC"/>
<path opacity="0.3" d="M43.6602 17.8839L22.1462 17.9362L22.2072 18.0147L14.1803 18.0321L11.2476 15.0994L24.5821 1.62986L28.6087 5.65634L22.1157 12.2146L43.6471 12.1711L43.6602 17.8839Z" fill="#F7F8FB"/>
<path opacity="0.3" d="M43.5557 17.9841L22.0461 18.0407L22.1027 18.1148L14.0758 18.1366L11.1431 15.1995L24.4777 1.73434L28.5042 5.76083L22.0112 12.3191L43.5426 12.2712L43.5557 17.9841Z" fill="#F6F8FB"/>
<path opacity="0.3" d="M43.4507 18.0887L21.9411 18.141L21.9977 18.2151L13.9708 18.2369L11.0381 15.3042L24.3727 1.83464L28.3992 5.86111L21.9062 12.4194L43.4376 12.3715L43.4507 18.0887Z" fill="#F6F8FB"/>
<path opacity="0.3" d="M43.3462 18.1889L21.8366 18.2456L21.8932 18.3196L13.8664 18.3414L10.9336 15.4044L24.2682 1.93483L28.2947 5.96131L21.8017 12.5239L43.3331 12.476L43.3462 18.1889Z" fill="#F5F7FB"/>
<path opacity="0.3" d="M43.2417 18.2891L21.7321 18.3458L21.7887 18.4199L13.7619 18.4416L10.8291 15.5089L24.1637 2.03942L28.1902 6.06589L21.6972 12.6242L43.2286 12.5762L43.2417 18.2891Z" fill="#F5F7FA"/>
<path opacity="0.3" d="M43.1372 18.3937L21.6319 18.4504L21.6842 18.5244L13.6574 18.5419L10.7246 15.6092L24.0592 2.13964L28.0857 6.16611L21.5927 12.7244L43.1241 12.6808L43.1372 18.3937Z" fill="#F4F6FA"/>
<path opacity="0.3" d="M43.0327 18.494L21.5275 18.555L21.5798 18.6247L13.5529 18.6465L10.6202 15.7094L23.9547 2.24424L27.9812 6.27072L21.4883 12.829L43.0196 12.7811L43.0327 18.494Z" fill="#F4F6FA"/>
<path opacity="0.3" d="M42.9277 18.5985L21.4225 18.6551L21.4748 18.7249L13.4479 18.7466L10.5152 15.8139L23.8497 2.34441L27.8762 6.37089L21.3833 12.9292L42.9147 12.8856L42.9277 18.5985Z" fill="#F3F5FA"/>
<path opacity="0.3" d="M42.8232 18.6987L21.318 18.7597L21.3703 18.8295L13.3434 18.8513L10.4107 15.9142L23.7452 2.44466L27.7717 6.4755L21.2788 13.0338L42.8102 12.9858L42.8232 18.6987Z" fill="#F3F5F9"/>
<path opacity="0.3" d="M42.7188 18.799L21.2179 18.86L21.2658 18.9297L13.2389 18.9515L10.3062 16.0188L23.6407 2.54929L27.6673 6.57578L21.1743 13.1341L42.7057 13.0861L42.7188 18.799Z" fill="#F2F5F9"/>
<path opacity="0.3" d="M42.6143 18.9036L21.1134 18.9646L21.1613 19.0299L13.1344 19.0561L10.2017 16.119L23.5362 2.64949L27.5628 6.67597L21.0698 13.2386L42.6012 13.1907L42.6143 18.9036Z" fill="#F2F4F9"/>
<path opacity="0.3" d="M42.5098 19.0039L21.0089 19.0649L21.0568 19.1346L13.0299 19.1564L10.0972 16.2193L23.4318 2.75412L27.4583 6.78061L20.9653 13.3389L42.4967 13.291L42.5098 19.0039Z" fill="#F1F4F9"/>
<path opacity="0.3" d="M42.4053 19.1085L20.9087 19.1695L20.9479 19.2349L12.9254 19.2567L9.99269 16.3239L23.3273 2.8544L27.3538 6.88088L20.8564 13.4392L42.3922 13.3956L42.4053 19.1085Z" fill="#F1F3F9"/>
<path opacity="0.3" d="M42.3003 19.2086L20.8038 19.2696L20.843 19.335L12.8204 19.3611L9.88772 16.4241L23.2223 2.95888L27.2488 6.98538L20.7515 13.5437L42.2872 13.4957L42.3003 19.2086Z" fill="#F0F3F8"/>
<path opacity="0.3" d="M42.1958 19.3088L20.6993 19.3741L20.7385 19.4395L12.716 19.4613L9.78324 16.5286L23.1178 3.05906L27.1443 7.08554L20.647 13.6438L42.1827 13.5959L42.1958 19.3088Z" fill="#F0F3F8"/>
<path opacity="0.3" d="M42.0913 19.4135L20.5948 19.4745L20.634 19.5398L12.6115 19.566L9.67872 16.6289L23.0133 3.15938L27.0398 7.18586L20.5425 13.7485L42.0782 13.7006L42.0913 19.4135Z" fill="#EFF2F8"/>
<path opacity="0.3" d="M41.9868 19.5136L20.4947 19.579L20.5295 19.6443L12.507 19.6661L9.57426 16.7291L22.9088 3.2639L26.9353 7.29038L20.438 13.8487L41.9737 13.8007L41.9868 19.5136Z" fill="#EFF2F8"/>
<path opacity="0.3" d="M41.8823 19.6183L20.3901 19.6793L20.425 19.7446L12.4025 19.7664L9.46975 16.8337L22.8043 3.36419L26.8308 7.39066L20.3335 13.9489L41.8693 13.9054L41.8823 19.6183Z" fill="#EEF1F7"/>
<path opacity="0.3" d="M41.7773 19.7185L20.2852 19.7839L20.32 19.8449L12.2975 19.871L9.36475 16.934L22.6993 3.46879L26.7258 7.49527L20.2285 14.0535L41.7643 14.0056L41.7773 19.7185Z" fill="#EEF1F7"/>
<path opacity="0.3" d="M41.6729 19.8187L20.185 19.884L20.2155 19.9494L12.193 19.9712L9.26028 17.0385L22.5948 3.56895L26.6214 7.59543L20.124 14.1537L41.6598 14.1058L41.6729 19.8187Z" fill="#EDF1F7"/>
<path opacity="0.3" d="M41.5684 19.9232L20.0805 19.9886L20.111 20.0496L12.0885 20.0757L9.15577 17.1387L22.4903 3.66914L26.5169 7.69563L20.0195 14.2583L41.5553 14.2103L41.5684 19.9232Z" fill="#EDF0F7"/>
<path opacity="0.3" d="M41.4634 20.0235L19.9756 20.0889L20.0061 20.1499L11.9835 20.176L9.0508 17.2433L22.3854 3.77378L26.4075 7.80026L19.9145 14.3585L41.4503 14.3106L41.4634 20.0235Z" fill="#ECF0F6"/>
<path opacity="0.3" d="M41.3594 20.1281L19.8715 20.1935L19.902 20.2545L11.8795 20.2762L8.94679 17.3435L22.2814 3.874L26.3035 7.90049L19.8105 14.4588L41.3463 14.4152L41.3594 20.1281Z" fill="#ECEFF6"/>
<path opacity="0.3" d="M41.2549 20.2283L19.7714 20.298L19.7976 20.3547L11.775 20.3808L8.8423 17.4437L22.1769 3.97856L26.199 8.00503L19.7061 14.5633L41.2418 14.5154L41.2549 20.2283Z" fill="#EBEFF6"/>
<path opacity="0.3" d="M41.1504 20.3328L19.6669 20.3982L19.6887 20.4548L11.6706 20.481L8.73783 17.5482L22.0724 4.07871L26.0945 8.10519L19.6016 14.6635L41.1373 14.6199L41.1504 20.3328Z" fill="#EBEEF6"/>
<path opacity="0.3" d="M41.0454 20.4331L19.5619 20.5028L19.5837 20.5594L11.5655 20.5856L8.63282 17.6485L21.9674 4.17896L25.9895 8.20544L19.4966 14.7681L41.0323 14.7202L41.0454 20.4331Z" fill="#EAEEF6"/>
<path opacity="0.3" d="M40.9409 20.5333L19.4618 20.6031L19.4792 20.6597L11.4611 20.6858L8.52834 17.7531L21.8629 4.2836L25.8851 8.31008L19.3921 14.8684L40.9278 14.8204L40.9409 20.5333Z" fill="#E9EEF5"/>
<path opacity="0.3" d="M40.8359 20.638L19.3568 20.7077L19.3743 20.7644L11.3561 20.7905L8.42336 17.8535L21.7579 4.38393L25.7801 8.41041L19.2871 14.9687L40.8229 14.9251L40.8359 20.638Z" fill="#E9EDF5"/>
<path opacity="0.3" d="M40.7314 20.7382L19.2523 20.8079L19.2698 20.8645L11.2516 20.8907L8.31885 17.9536L21.6534 4.48843L25.6756 8.51492L19.1826 15.0732L40.7184 15.0253L40.7314 20.7382Z" fill="#E8EDF5"/>
<path opacity="0.3" d="M40.627 20.8428L19.1479 20.9125L19.1653 20.9648L11.1471 20.991L8.21438 18.0583L21.5489 4.58873L25.5711 8.61521L19.0781 15.1735L40.6139 15.1299L40.627 20.8428Z" fill="#E8ECF5"/>
<path opacity="0.3" d="M40.5225 20.9429L19.0477 21.0127L19.0608 21.0693L11.0426 21.0955L8.10989 18.1584L21.4445 4.68886L25.4666 8.71971L18.9736 15.278L40.5094 15.2301L40.5225 20.9429Z" fill="#E7ECF4"/>
<path opacity="0.3" d="M40.418 21.0432L18.9432 21.1173L18.9563 21.1696L10.9381 21.1957L8.00539 18.263L21.34 4.7935L25.3621 8.81998L18.8691 15.3783L40.4049 15.3303L40.418 21.0432Z" fill="#E7ECF4"/>
<path opacity="0.3" d="M40.3135 21.1478L18.8387 21.2175L18.8518 21.2698L10.8336 21.3003L7.90091 18.3632L21.2355 4.89368L25.2576 8.92017L18.7647 15.4828L40.3004 15.4349L40.3135 21.1478Z" fill="#E6EBF4"/>
<path opacity="0.3" d="M40.209 21.2479L18.7386 21.322L18.7473 21.3743L10.7291 21.4004L7.7964 18.4634L21.131 4.99821L25.1531 9.02469L18.6601 15.583L40.1959 15.535L40.209 21.2479Z" fill="#E6EBF4"/>
<path opacity="0.3" d="M40.104 21.3526L18.6336 21.4223L18.6423 21.4746L10.6242 21.5007L7.69143 18.568L21.026 5.09848L25.0481 9.12496L18.5552 15.6832L40.0909 15.6397L40.104 21.3526Z" fill="#E5EAF3"/>
<path opacity="0.3" d="M39.9995 21.4528L18.5291 21.5269L18.5378 21.5748L10.5197 21.6053L7.58694 18.6683L20.9215 5.20309L24.9437 9.22957L18.4507 15.7879L39.9864 15.7399L39.9995 21.4528Z" fill="#E5EAF3"/>
<path opacity="0.3" d="M39.895 21.5531L18.4246 21.6272L18.4333 21.6795L10.4152 21.7056L7.48243 18.7729L20.817 5.30338L24.8392 9.32986L18.3462 15.8881L39.8819 15.8402L39.895 21.5531Z" fill="#E4EAF3"/>
<path opacity="0.3" d="M39.7905 21.6577L18.3245 21.7317L18.3245 21.7797L10.3107 21.8102L7.37795 18.8731L20.7125 5.40358L24.7347 9.43006L18.2417 15.9927L39.7775 15.9448L39.7905 21.6577Z" fill="#E4E9F3"/>
<path opacity="0.3" d="M39.6855 21.7579L18.2195 21.832L18.2195 21.8843L10.2057 21.9104L7.27299 18.9733L20.6075 5.50817L24.6297 9.53465L18.1367 16.0929L39.6725 16.045L39.6855 21.7579Z" fill="#E3E9F3"/>
<path opacity="0.3" d="M39.5771 21.8624L18.1155 21.9365L18.1155 21.9844L10.0973 22.0106L7.16894 19.0778L20.5035 5.60832L24.5257 9.63479L18.0327 16.1931L39.5684 16.1495L39.5771 21.8624Z" fill="#E3E8F2"/>
<path opacity="0.3" d="M39.4722 21.9627L18.0105 22.0412L18.0105 22.0847L9.99234 22.1152L7.06397 19.1782L20.3985 5.71298L24.4207 9.73947L17.9277 16.2978L39.4635 16.2498L39.4722 21.9627Z" fill="#E2E8F2"/>
<path opacity="0.3" d="M39.3677 22.0672L17.9103 22.1413L17.906 22.1892L9.88783 22.2154L6.95945 19.2827L20.2897 5.81316L24.3162 9.83963L17.8232 16.3979L39.359 16.35L39.3677 22.0672Z" fill="#E2E7F2"/>
<path opacity="0.3" d="M39.2632 22.1674L17.8059 22.2459L17.8015 22.2894L9.78335 22.3199L6.85497 19.3829L20.1852 5.91335L24.2117 9.93984L17.7187 16.5025L39.2545 16.4545L39.2632 22.1674Z" fill="#E1E7F2"/>
<path opacity="0.3" d="M39.1587 22.2676L17.7014 22.3461L17.697 22.3897L9.67886 22.4202L6.75048 19.4875L20.0807 6.01792L24.1072 10.0444L17.6142 16.6027L39.15 16.5547L39.1587 22.2676Z" fill="#E1E7F1"/>
<path opacity="0.3" d="M39.0537 22.3723L17.6007 22.4507L17.592 22.4943L9.57386 22.5204L6.64548 19.5877L19.9757 6.11819L24.0022 10.1447L17.5092 16.703L39.045 16.6594L39.0537 22.3723Z" fill="#E0E6F1"/>
<path opacity="0.3" d="M38.9492 22.4725L17.4963 22.5509L17.4876 22.5945L9.46938 22.625L6.54101 19.6879L19.8712 6.22276L23.8977 10.2492L17.4048 16.8075L38.9405 16.7596L38.9492 22.4725Z" fill="#E0E6F1"/>
<path opacity="0.3" d="M38.8447 22.5771L17.3918 22.6556L17.383 22.6991L9.36487 22.7253L6.4365 19.7926L19.7667 6.32303L23.7932 10.3495L17.3002 16.9078L38.836 16.8642L38.8447 22.5771Z" fill="#DFE5F1"/>
<path opacity="0.3" d="M38.7402 22.6774L17.2873 22.7558L17.2785 22.7994L9.26038 22.8299L6.332 19.8928L19.6622 6.42329L23.6887 10.4498L17.1958 17.0124L38.7315 16.9645L38.7402 22.6774Z" fill="#DFE5F0"/>
<path opacity="0.3" d="M38.6357 22.7777L17.1871 22.8604L17.1741 22.8997L9.15588 22.9302L6.2275 19.9975L19.5577 6.52792L23.5842 10.5544L17.0913 17.1127L38.627 17.0648L38.6357 22.7777Z" fill="#DEE5F0"/>
<path opacity="0.3" d="M38.5313 22.8821L17.0827 22.9605L17.0652 23.0041L9.05141 23.0346L6.12304 20.0975L19.4532 6.62801L23.4798 10.6545L16.9868 17.2128L38.5182 17.1692L38.5313 22.8821Z" fill="#DEE4F0"/>
<path opacity="0.3" d="M38.4263 22.9824L16.9777 23.0652L16.9602 23.1044L8.94644 23.1349L6.01807 20.1978L19.3483 6.73265L23.3748 10.7591L16.8818 17.3174L38.4132 17.2695L38.4263 22.9824Z" fill="#DDE4F0"/>
<path opacity="0.3" d="M38.3218 23.0869L16.8775 23.1654L16.8557 23.2046L8.84191 23.2351L5.91354 20.3024L19.2438 6.83286L23.2703 10.8593L16.7773 17.4176L38.3087 17.374L38.3218 23.0869Z" fill="#DDE3EF"/>
<path opacity="0.3" d="M38.2173 23.1871L16.773 23.2699L16.7513 23.3092L8.73745 23.3397L5.80907 20.4026L19.1393 6.9374L23.1658 10.9639L16.6728 17.5222L38.2042 17.4742L38.2173 23.1871Z" fill="#DCE3EF"/>
<path opacity="0.3" d="M38.1128 23.2874L16.6686 23.3702L16.6468 23.4094L8.63296 23.4399L5.70458 20.5072L19.0348 7.03769L23.0613 11.0642L16.5683 17.6225L38.0997 17.5745L38.1128 23.2874Z" fill="#DCE2EF"/>
<path opacity="0.3" d="M38.0083 23.392L16.564 23.4748L16.5423 23.5096L8.52845 23.5445L5.60007 20.6074L18.9303 7.1379L22.9568 11.1644L16.4638 17.727L37.9952 17.6791L38.0083 23.392Z" fill="#DBE2EF"/>
<path opacity="0.3" d="M37.9038 23.4922L16.4639 23.575L16.4378 23.6142L8.42397 23.6447L5.4956 20.7076L18.8258 7.24247L22.8523 11.2689L16.3593 17.8272L37.8907 17.7793L37.9038 23.4922Z" fill="#DBE2EF"/>
<path opacity="0.3" d="M37.7988 23.5968L16.3589 23.6796L16.3328 23.7144L8.31899 23.7449L5.39062 20.8122L18.7208 7.34268L22.7473 11.3692L16.2544 17.9274L37.7858 17.8839L37.7988 23.5968Z" fill="#DAE1EE"/>
<path opacity="0.3" d="M37.6943 23.697L16.2544 23.7842L16.2283 23.819L8.21447 23.8495L5.28611 20.9125L18.6163 7.44731L22.6428 11.4738L16.1499 18.0321L37.6813 17.9841L37.6943 23.697Z" fill="#DAE1EE"/>
<path opacity="0.3" d="M37.5898 23.7973L16.1543 23.8845L16.1238 23.9193L8.11 23.9498L5.18162 21.0171L18.5118 7.54758L22.5384 11.5741L16.0454 18.1323L37.5768 18.0844L37.5898 23.7973Z" fill="#D9E0EE"/>
<path opacity="0.3" d="M37.4849 23.9018L16.0493 23.989L16.0188 24.0195L8.00502 24.0543L5.07664 21.1172L18.4068 7.64771L22.4334 11.6742L15.9404 18.2368L37.4718 18.1889L37.4849 23.9018Z" fill="#D9E0EE"/>
<path opacity="0.3" d="M37.3804 24.0021L15.9448 24.0892L15.9143 24.1241L7.90054 24.1546L4.97216 21.2175L18.3024 7.75234L22.3289 11.7788L15.8359 18.3371L37.3673 18.2892L37.3804 24.0021Z" fill="#D8E0ED"/>
<path opacity="0.3" d="M37.2759 24.1066L15.8404 24.1938L15.8099 24.2243L7.79605 24.2548L4.86768 21.3221L18.1979 7.85252L22.2244 11.879L15.7314 18.4373L37.2628 18.3937L37.2759 24.1066Z" fill="#D8DFED"/>
<path opacity="0.3" d="M37.1714 24.2068L15.7402 24.2939L15.701 24.3244L7.69154 24.3593L4.76316 21.4222L18.0934 7.95706L22.1199 11.9835L15.6269 18.5418L37.1583 18.4939L37.1714 24.2068Z" fill="#D7DFED"/>
<path opacity="0.3" d="M37.0669 24.3114L15.6357 24.3986L15.5965 24.4291L7.58706 24.4596L4.65868 21.5269L17.9889 8.05735L22.0154 12.0838L15.5224 18.6421L37.0538 18.5942L37.0669 24.3114Z" fill="#D7DEED"/>
<path opacity="0.3" d="M36.9624 24.4117L15.5312 24.4988L15.492 24.5293L7.48257 24.5642L4.55419 21.6271L17.8844 8.1576L21.9109 12.1841L15.4179 18.7467L36.9493 18.6988L36.9624 24.4117Z" fill="#D6DEEC"/>
<path opacity="0.3" d="M36.8574 24.512L15.4263 24.6035L15.387 24.6296L7.37758 24.6645L4.44485 21.7318L17.7794 8.26225L21.8059 12.2887L15.313 18.847L36.8443 18.7991L36.8574 24.512Z" fill="#D5DEEC"/>
<path opacity="0.3" d="M36.7529 24.6165L15.3261 24.7036L15.2825 24.7341L7.27308 24.7646L4.34034 21.8319L17.6749 8.36241L21.7014 12.3889L15.2085 18.9472L36.7399 18.9036L36.7529 24.6165Z" fill="#D5DDEC"/>
<path opacity="0.3" d="M36.6484 24.7167L15.2216 24.8083L15.1781 24.8344L7.1686 24.8693L4.23587 21.9322L17.5704 8.46701L21.597 12.4935L15.104 19.0518L36.6354 19.0038L36.6484 24.7167Z" fill="#D4DDEC"/>
<path opacity="0.3" d="M36.5439 24.8213L15.1171 24.9085L15.0736 24.939L7.0641 24.9695L4.13136 22.0368L17.4659 8.56724L21.4924 12.5937L14.9995 19.152L36.5309 19.1084L36.5439 24.8213Z" fill="#D4DCEC"/>
<path opacity="0.3" d="M36.4395 24.9216L15.017 25.0131L14.9691 25.0392L6.95963 25.0741L4.02689 22.137L17.3615 8.66748L21.388 12.694L14.895 19.2566L36.4264 19.2087L36.4395 24.9216Z" fill="#D3DCEB"/>
<path opacity="0.3" d="M36.335 25.0217L14.9125 25.1132L14.8646 25.1394L6.8551 25.1743L3.92237 22.2415L17.2569 8.77201L21.2835 12.7985L14.7905 19.3568L36.3219 19.3088L36.335 25.0217Z" fill="#D3DBEB"/>
<path opacity="0.3" d="M36.23 25.1263L14.8075 25.2178L14.7596 25.2439L6.75014 25.2788L3.81741 22.3417L17.152 8.87219L21.1785 12.8987L14.6855 19.4613L36.2169 19.4134L36.23 25.1263Z" fill="#D2DBEB"/>
<path opacity="0.3" d="M36.1255 25.2265L14.703 25.318L14.6551 25.3442L6.64565 25.379L3.71291 22.442L17.0475 8.97678L21.074 13.0033L14.581 19.5615L36.1124 19.5136L36.1255 25.2265Z" fill="#D2DBEB"/>
<path opacity="0.3" d="M36.021 25.3311L14.6029 25.4226L14.5506 25.4444L6.54115 25.4792L3.60842 22.5465L16.943 9.07701L20.9695 13.1035L14.4765 19.6618L36.0079 19.6182L36.021 25.3311Z" fill="#D1DAEA"/>
<path opacity="0.3" d="M35.9165 25.4313L14.4984 25.5272L14.4418 25.549L6.43667 25.5839L3.50393 22.6468L16.8385 9.18161L20.865 13.2081L14.372 19.7664L35.9034 19.7184L35.9165 25.4313Z" fill="#D1DAEA"/>
<path opacity="0.3" d="M35.812 25.5316L14.3939 25.6275L14.3373 25.6493L6.33217 25.6841L3.39944 22.7514L16.734 9.28191L20.7605 13.3084L14.2675 19.8667L35.7989 19.8187L35.812 25.5316Z" fill="#D0D9EA"/>
<path opacity="0.3" d="M35.7075 25.6361L14.2938 25.732L14.2328 25.7494L6.22766 25.7886L3.29493 22.8516L16.6295 9.38203L20.656 13.4085L14.163 19.9711L35.6944 19.9232L35.7075 25.6361Z" fill="#D0D9EA"/>
<path opacity="0.3" d="M35.6025 25.7364L14.1888 25.8323L14.1278 25.8541L6.12269 25.8889L3.18995 22.9518L16.5245 9.48666L20.551 13.5131L14.0581 20.0714L35.5895 20.0235L35.6025 25.7364Z" fill="#CFD9E9"/>
<path opacity="0.3" d="M35.498 25.8409L14.0843 25.9368L14.0233 25.9542L6.01822 25.9891L3.08548 23.0564L16.42 9.58683L20.4466 13.6133L13.9492 20.1716L35.485 20.128L35.498 25.8409Z" fill="#CFD8E9"/>
<path opacity="0.3" d="M35.3936 25.9412L13.9798 26.0371L13.9188 26.0589L5.91371 26.0937L2.98099 23.1567L16.3156 9.6915L20.3421 13.718L13.8447 20.2763L35.3805 20.2283L35.3936 25.9412Z" fill="#CED8E9"/>
<path opacity="0.3" d="M35.2891 26.0415L13.8797 26.1417L13.8143 26.1592L5.80921 26.194L2.87648 23.2613L16.211 9.79179L20.2376 13.8183L13.7402 20.3766L35.276 20.3286L35.2891 26.0415Z" fill="#CED7E9"/>
<path opacity="0.3" d="M35.1846 26.146L13.7752 26.2419L13.7098 26.2593L5.70473 26.2985L2.772 23.3615L16.1066 9.89191L20.1331 13.9184L13.6357 20.481L35.1715 20.4331L35.1846 26.146Z" fill="#CDD7E9"/>
<path opacity="0.3" d="M35.0796 26.2463L13.6702 26.3465L13.6048 26.3639L5.59972 26.3988L2.667 23.4617L16.0016 9.99655L20.0281 14.023L13.5307 20.5813L35.0665 20.5334L35.0796 26.2463Z" fill="#CDD7E8"/>
<path opacity="0.3" d="M34.9751 26.3508L13.5701 26.4467L13.5003 26.4641L5.49525 26.499L2.56252 23.5662L15.8971 10.0967L19.9236 14.1232L13.4263 20.6815L34.962 20.6379L34.9751 26.3508Z" fill="#CCD6E8"/>
<path opacity="0.3" d="M34.8706 26.4511L13.4656 26.5513L13.3959 26.5644L5.39076 26.6036L2.45802 23.6665L15.7926 10.2013L19.8191 14.2278L13.3218 20.7861L34.8575 20.7382L34.8706 26.4511Z" fill="#CCD6E8"/>
<path opacity="0.3" d="M34.7661 26.5556L13.3611 26.6515L13.2914 26.6689L5.28628 26.7038L2.35354 23.7711L15.6881 10.3016L19.7146 14.328L13.2173 20.8863L34.753 20.8384L34.7661 26.5556Z" fill="#CBD5E8"/>
<path opacity="0.3" d="M34.6611 26.6558L13.2561 26.756L13.182 26.7691L5.18128 26.8083L2.24856 23.8712L15.5831 10.4017L19.6096 14.4282L13.1123 20.9908L34.6481 20.9429L34.6611 26.6558Z" fill="#CBD5E7"/>
<path opacity="0.3" d="M34.5571 26.7561L13.1565 26.8563L13.078 26.8694L5.0773 26.9086L2.14457 23.9759L15.4791 10.5063L19.5013 14.5328L13.0083 21.0911L34.5441 21.0432L34.5571 26.7561Z" fill="#CAD4E7"/>
<path opacity="0.3" d="M34.4521 26.8607L13.0515 26.9609L12.973 26.974L4.9723 27.0088L2.03956 24.0761L15.3741 10.6066L19.3963 14.6331L12.9033 21.1914L34.4391 21.1478L34.4521 26.8607Z" fill="#CAD4E7"/>
<path opacity="0.3" d="M34.3477 26.961L12.947 27.0612L12.8686 27.0742L4.86782 27.1135L1.9351 24.1764L15.2697 10.7112L19.2918 14.7377L12.7988 21.296L34.3346 21.2481L34.3477 26.961Z" fill="#C9D4E7"/>
<path opacity="0.3" d="M34.2432 27.0656L12.8425 27.1658L12.7641 27.1789L4.76333 27.2137L1.83059 24.281L15.1652 10.8115L19.1873 14.838L12.6943 21.3963L34.2301 21.3527L34.2432 27.0656Z" fill="#C9D3E6"/>
<path opacity="0.3" d="M34.1382 27.1657L12.7419 27.2659L12.6591 27.279L4.65833 27.3182L1.72559 24.3811L15.0602 10.9116L19.0823 14.938L12.5893 21.5007L34.1251 21.4528L34.1382 27.1657Z" fill="#C8D3E6"/>
<path opacity="0.3" d="M34.0337 27.2659L12.6374 27.3705L12.5546 27.3792L4.55386 27.4185L1.62114 24.4857L14.9557 11.0162L18.9778 15.0427L12.4849 21.601L34.0206 21.553L34.0337 27.2659Z" fill="#C8D2E6"/>
<path opacity="0.3" d="M33.9292 27.3706L12.5329 27.4751L12.4501 27.4839L4.44936 27.5231L1.51662 24.586L14.8512 11.1165L18.8734 15.1429L12.3804 21.7056L33.9161 21.6577L33.9292 27.3706Z" fill="#C7D2E6"/>
<path opacity="0.3" d="M33.8247 27.4707L12.4328 27.5753L12.3456 27.584L4.34487 27.6232L1.41213 24.6862L14.7467 11.221L18.7688 15.2475L12.2759 21.8057L33.8116 21.7578L33.8247 27.4707Z" fill="#C7D2E6"/>
<path opacity="0.3" d="M33.7202 27.5752L12.3283 27.6798L12.2411 27.6842L4.24037 27.7234L1.30765 24.7907L14.6422 11.3211L18.6644 15.3476L12.1714 21.9059L33.7071 21.8623L33.7202 27.5752Z" fill="#C6D1E5"/>
<path opacity="0.3" d="M33.6157 27.6755L12.2238 27.7801L12.1366 27.7888L4.13589 27.8281L1.20316 24.891L14.5377 11.4258L18.5599 15.4523L12.0669 22.0106L33.6027 21.9627L33.6157 27.6755Z" fill="#C6D1E5"/>
<path opacity="0.3" d="M33.5112 27.7758L12.1193 27.8848L12.0321 27.8891L4.03139 27.9283L1.09866 24.9956L14.4332 11.5261L18.4554 15.5526L11.9624 22.1109L33.4982 22.0629L33.5112 27.7758Z" fill="#C5D0E5"/>
<path opacity="0.3" d="M33.4063 27.8804L12.0186 27.985L11.9271 27.9894L3.92639 28.033L0.993664 25.0959L14.3282 11.6264L18.3504 15.6528L11.8574 22.2155L33.3932 22.1675L33.4063 27.8804Z" fill="#C5D0E5"/>
<path opacity="0.3" d="M33.3018 27.9807L11.9142 28.0897L11.8183 28.094L3.82192 28.1332L0.889183 25.1962L14.2237 11.731L18.2459 15.7575L11.7529 22.3158L33.2887 22.2678L33.3018 27.9807Z" fill="#C4CFE4"/>
<path opacity="0.3" d="M33.1973 28.0852L11.8097 28.1898L11.7138 28.1942L3.71741 28.2334L0.784672 25.3007L14.1192 11.8312L18.1414 15.8576L11.6484 22.4159L33.1842 22.3723L33.1973 28.0852Z" fill="#C4CFE4"/>
<path opacity="0.3" d="M33.0928 28.1854L11.7095 28.2944L11.6093 28.2987L3.61291 28.3379L0.68018 25.4009L14.0148 11.9357L18.0369 15.9622L11.5439 22.5205L33.0797 22.4725L33.0928 28.1854Z" fill="#C3CFE4"/>
<path opacity="0.3" d="M32.9883 28.2856L11.6051 28.3945L11.5048 28.3989L3.50844 28.4381L0.575707 25.5054L13.9103 12.0359L17.9324 16.0623L11.4395 22.6206L32.9752 22.5727L32.9883 28.2856Z" fill="#C3CEE4"/>
<path opacity="0.3" d="M32.8833 28.3901L11.5001 28.499L11.3998 28.499L3.40346 28.5426L0.470726 25.6055L13.8053 12.136L17.8275 16.1625L11.3345 22.7251L32.8702 22.6772L32.8833 28.3901Z" fill="#C2CEE3"/>
<path opacity="0.3" d="M32.7788 28.4904L11.3956 28.5993L11.2953 28.6037L3.29896 28.6429L0.366234 25.7102L13.7008 12.2406L17.7229 16.2671L11.23 22.8254L32.7657 22.7775L32.7788 28.4904Z" fill="#C2CDE3"/>
<path opacity="0.3" d="M0.261681 25.8105L13.5963 12.3409L17.6184 16.3674L11.1254 22.9257L32.6612 22.8821L32.6699 28.595L3.19006 28.7432L0.261681 25.8105Z" fill="#C1CDE3"/>
</g>
<path d="M10.9379 28.9131L32.5957 28.8652L32.5826 23.1566L10.9249 23.2046L17.4571 16.6419L13.4131 12.6155L0.000115614 26.0806L13.4698 39.4935L17.4963 35.4453L10.9379 28.9131Z" fill="#B9CEF9"/>
</svg>
