<svg width="23" height="23" viewBox="0 0 23 23" fill="none" xmlns="http://www.w3.org/2000/svg">
<circle cx="11.5" cy="11.5" r="11.5" fill="#B9CEF9"/>
<g clip-path="url(#clip0)">
<path d="M11.2061 16.2808C10.6102 16.8767 9.64335 16.8767 9.04776 16.2808L5.70374 12.9368C5.10787 12.3412 5.10787 11.3744 5.70374 10.7788C6.29933 10.1829 7.26618 10.1829 7.86206 10.7788L9.85443 12.7709C10.0048 12.921 10.249 12.921 10.3997 12.7709L15.7945 7.3761C16.3901 6.78023 17.3569 6.78023 17.9528 7.3761C18.2389 7.66225 18.3997 8.05049 18.3997 8.45512C18.3997 8.85975 18.2389 9.24799 17.9528 9.53413L11.2061 16.2808Z" fill="white"/>
</g>
<defs>
<clipPath id="clip0">
<rect width="13.1429" height="13.1426" fill="white" transform="translate(5.25684 5.25732)"/>
</clipPath>
</defs>
</svg>
