<svg width="46" height="40" viewBox="0 0 46 40" fill="none" xmlns="http://www.w3.org/2000/svg">
<g opacity="0.3">
<path opacity="0.3" d="M33.0698 26.4792L19.7396 39.9444L15.7131 35.9179L22.2061 29.3596L0.674694 29.4075L0.661621 23.6946L22.193 23.6467L22.1059 23.5595L30.1415 23.5421L33.0698 26.4792Z" fill="white"/>
<path opacity="0.3" d="M0.766113 23.5902L22.2975 23.5466L22.2104 23.4595L30.246 23.442L33.1743 26.3747L19.8441 39.8443L15.8176 35.8178L22.3106 29.2595L0.779186 29.3031L0.766113 23.5902Z" fill="#FEFFFF"/>
<path opacity="0.3" d="M0.87085 23.4899L22.4023 23.442L22.3151 23.3548L30.3507 23.3374L33.2791 26.2745L19.9489 39.744L15.9224 35.7175L22.4153 29.1549L0.883922 29.2028L0.87085 23.4899Z" fill="#FEFEFF"/>
<path opacity="0.3" d="M0.975342 23.3896L22.5024 23.3416L22.4239 23.2545L30.4552 23.2371L33.3836 26.1698L20.0534 39.6393L16.0268 35.6128L22.5198 29.0545L0.988414 29.1025L0.975342 23.3896Z" fill="#FDFEFE"/>
<path opacity="0.3" d="M1.08008 23.285L22.6071 23.237L22.5287 23.1542L30.5599 23.1324L33.4883 26.0695L20.1581 39.539L16.1316 35.5126L22.6245 28.9499L1.09315 28.9979L1.08008 23.285Z" fill="#FDFDFE"/>
<path opacity="0.3" d="M1.18481 23.1849L22.7119 23.1326L22.6334 23.0498L30.6647 23.0323L33.593 25.9694L20.2628 39.4346L16.2363 35.4081L22.7293 28.8498L1.19789 28.8978L1.18481 23.1849Z" fill="#FCFDFE"/>
<path opacity="0.3" d="M1.28931 23.0803L22.8163 23.0324L22.7379 22.9496L30.7691 22.9321L33.6975 25.8648L20.3673 39.3344L16.3408 35.3079L22.8338 28.7496L1.30238 28.7932L1.28931 23.0803Z" fill="#FCFDFE"/>
<path opacity="0.3" d="M1.3938 22.9802L22.9165 22.9279L22.8424 22.8494L30.8736 22.8276L33.802 25.7647L20.4718 39.2299L16.4453 35.2034L22.9383 28.6451L1.40687 28.693L1.3938 22.9802Z" fill="#FBFCFD"/>
<path opacity="0.3" d="M1.49854 22.8798L23.0212 22.8275L22.9471 22.7447L30.9784 22.7273L33.9068 25.66L20.5766 39.1295L16.55 35.1031L23.043 28.5448L1.51161 28.5927L1.49854 22.8798Z" fill="#FBFCFD"/>
<path opacity="0.3" d="M1.60303 22.7752L23.1257 22.7229L23.0516 22.6445L31.0829 22.6227L34.0112 25.5597L20.681 39.0293L16.6545 35.0028L23.1475 28.4402L1.6161 28.4881L1.60303 22.7752Z" fill="#FAFBFD"/>
<path opacity="0.3" d="M1.70752 22.6751L23.2259 22.6228L23.1561 22.54L31.1874 22.5226L34.1158 25.4597L20.7856 38.9248L16.759 34.8984L23.252 28.3401L1.72061 28.388L1.70752 22.6751Z" fill="#FAFBFD"/>
<path opacity="0.3" d="M1.81201 22.5704L23.3303 22.5181L23.2606 22.4397L31.2919 22.4222L34.2202 25.3549L20.89 38.8245L16.8635 34.798L23.3565 28.2397L1.82508 28.2833L1.81201 22.5704Z" fill="#F9FAFC"/>
<path opacity="0.3" d="M1.9165 22.4701L23.4348 22.4179L23.3651 22.3394L31.3963 22.3176L34.3247 25.2547L20.9945 38.7199L16.968 34.6934L23.461 28.1351L1.92958 28.1831L1.9165 22.4701Z" fill="#F9FAFC"/>
<path opacity="0.3" d="M2.02124 22.3699L23.5396 22.3133L23.4699 22.2348L31.5011 22.2174L34.4295 25.1501L21.0993 38.6197L17.0727 34.5932L23.5657 28.0349L2.03431 28.0828L2.02124 22.3699Z" fill="#F8FAFC"/>
<path opacity="0.3" d="M2.12598 22.2653L23.6399 22.213L23.5746 22.1346L31.6058 22.1128L34.5342 25.0499L21.204 38.5194L17.1775 34.4929L23.6704 27.9303L2.13905 27.9782L2.12598 22.2653Z" fill="#F8F9FC"/>
<path opacity="0.3" d="M2.23047 22.1652L23.7444 22.1086L23.6791 22.0345L31.7103 22.0127L34.6431 24.9498L21.3085 38.4149L17.282 34.3885L23.775 27.8302L2.24354 27.8781L2.23047 22.1652Z" fill="#F7F9FC"/>
<path opacity="0.3" d="M2.33521 22.0605L23.8492 22.0082L23.7882 21.9298L31.8151 21.9124L34.7478 24.8451L21.4132 38.3146L17.3867 34.2881L23.8797 27.7298L2.34828 27.7734L2.33521 22.0605Z" fill="#F7F8FB"/>
<path opacity="0.3" d="M2.4397 21.9604L23.9493 21.9037L23.8926 21.8297L31.9195 21.8079L34.8523 24.7449L21.5177 38.2101L17.4912 34.1836L23.9842 27.6253L2.45277 27.6733L2.4397 21.9604Z" fill="#F6F8FB"/>
<path opacity="0.3" d="M2.54443 21.8557L24.054 21.8034L23.9974 21.7293L32.0243 21.7075L34.957 24.6402L21.6224 38.1098L17.5959 34.0833L24.0889 27.525L2.55751 27.5729L2.54443 21.8557Z" fill="#F6F8FB"/>
<path opacity="0.3" d="M2.64868 21.7555L24.1583 21.6989L24.1016 21.6248L32.1285 21.603L35.0612 24.5401L21.7267 38.0096L17.7002 33.9831L24.1931 27.4205L2.66175 27.4684L2.64868 21.7555Z" fill="#F5F7FB"/>
<path opacity="0.3" d="M2.75342 21.6553L24.263 21.5987L24.2064 21.5246L32.2333 21.5028L35.166 24.4355L21.8314 37.905L17.8049 33.8786L24.2979 27.3203L2.76649 27.3682L2.75342 21.6553Z" fill="#F5F7FA"/>
<path opacity="0.3" d="M2.85791 21.5507L24.3632 21.4941L24.3109 21.42L32.3378 21.4026L35.2705 24.3353L21.9359 37.8048L17.9094 33.7783L24.4024 27.2201L2.87098 27.2636L2.85791 21.5507Z" fill="#F4F6FA"/>
<path opacity="0.3" d="M2.96265 21.4505L24.4679 21.3895L24.4156 21.3198L32.4425 21.298L35.3752 24.235L22.0406 37.7002L18.0141 33.6737L24.5071 27.1155L2.97572 27.1634L2.96265 21.4505Z" fill="#F4F6FA"/>
<path opacity="0.3" d="M3.06738 21.3459L24.5726 21.2893L24.5203 21.2195L32.5472 21.1978L35.4799 24.1305L22.1454 37.6L18.1189 33.5735L24.6119 27.0152L3.08046 27.0588L3.06738 21.3459Z" fill="#F3F5FA"/>
<path opacity="0.3" d="M3.17188 21.2457L24.6771 21.1847L24.6248 21.1149L32.6517 21.0931L35.5844 24.0302L22.2499 37.4997L18.2234 33.4689L24.7163 26.9106L3.18495 26.9586L3.17188 21.2457Z" fill="#F3F5F9"/>
<path opacity="0.3" d="M3.27637 21.1454L24.7773 21.0844L24.7293 21.0147L32.7562 20.9929L35.6889 23.9256L22.3544 37.3952L18.3279 33.3687L24.8208 26.8104L3.28944 26.8583L3.27637 21.1454Z" fill="#F2F5F9"/>
<path opacity="0.3" d="M3.38086 21.0409L24.8818 20.9799L24.8338 20.9146L32.8607 20.8884L35.7934 23.8255L22.4589 37.295L18.4324 33.2685L24.9253 26.7059L3.39393 26.7538L3.38086 21.0409Z" fill="#F2F4F9"/>
<path opacity="0.3" d="M3.48535 20.9406L24.9862 20.8796L24.9383 20.8099L32.9652 20.7881L35.8979 23.7252L22.5634 37.1903L18.5369 33.1638L25.0298 26.6056L3.49842 26.6535L3.48535 20.9406Z" fill="#F1F4F9"/>
<path opacity="0.3" d="M3.58984 20.836L25.0864 20.775L25.0472 20.7097L33.0697 20.6879L36.0024 23.6206L22.6679 37.0901L18.6413 33.0636L25.1387 26.5053L3.60292 26.5489L3.58984 20.836Z" fill="#F1F3F9"/>
<path opacity="0.3" d="M3.69458 20.7358L25.1911 20.6748L25.1519 20.6094L33.1744 20.5833L36.1072 23.5203L22.7726 36.9855L18.7461 32.959L25.2434 26.4007L3.70765 26.4487L3.69458 20.7358Z" fill="#F0F3F8"/>
<path opacity="0.3" d="M3.79932 20.6357L25.2958 20.5703L25.2566 20.5049L33.2791 20.4832L36.2119 23.4159L22.8773 36.8854L18.8508 32.8589L25.3481 26.3006L3.81239 26.3486L3.79932 20.6357Z" fill="#F0F3F8"/>
<path opacity="0.3" d="M3.90405 20.5311L25.4006 20.4701L25.3614 20.4047L33.3839 20.3785L36.3166 23.3156L22.9821 36.7851L18.9556 32.7587L25.4529 26.196L3.91713 26.244L3.90405 20.5311Z" fill="#EFF2F8"/>
<path opacity="0.3" d="M4.0083 20.4308L25.5005 20.3655L25.4656 20.3001L33.4881 20.2783L36.4209 23.2154L23.0863 36.6806L19.0598 32.6541L25.5571 26.0958L4.02137 26.1437L4.0083 20.4308Z" fill="#EFF2F8"/>
<path opacity="0.3" d="M4.11304 20.3263L25.6052 20.2653L25.5703 20.1999L33.5929 20.1781L36.5256 23.1108L23.191 36.5803L19.1645 32.5539L25.6619 25.9956L4.12611 26.0392L4.11304 20.3263Z" fill="#EEF1F7"/>
<path opacity="0.3" d="M4.21753 20.226L25.7097 20.1606L25.6749 20.0996L33.6974 20.0735L36.6301 23.0106L23.2955 36.4757L19.269 32.4493L25.7664 25.891L4.2306 25.9389L4.21753 20.226Z" fill="#EEF1F7"/>
<path opacity="0.3" d="M4.32227 20.1258L25.8101 20.0604L25.7796 19.9951L33.8021 19.9733L36.7348 22.906L23.4003 36.3755L19.3738 32.349L25.8711 25.7907L4.33535 25.8387L4.32227 20.1258Z" fill="#EDF1F7"/>
<path opacity="0.3" d="M4.42651 20.0213L25.9143 19.9559L25.8838 19.8949L33.9064 19.8688L36.8391 22.8058L23.5045 36.2754L19.478 32.2489L25.9753 25.6863L4.43959 25.7342L4.42651 20.0213Z" fill="#EDF0F7"/>
<path opacity="0.3" d="M4.53149 19.9209L26.0193 19.8556L25.9888 19.7946L34.0113 19.7684L36.9441 22.7011L23.6095 36.1707L19.5874 32.1442L26.0803 25.5859L4.54457 25.6338L4.53149 19.9209Z" fill="#ECF0F6"/>
<path opacity="0.3" d="M4.63599 19.8164L26.1238 19.751L26.0933 19.69L34.1158 19.6682L37.0486 22.6009L23.714 36.0705L19.6919 32.044L26.1848 25.4857L4.64906 25.5293L4.63599 19.8164Z" fill="#ECEFF6"/>
<path opacity="0.3" d="M4.74048 19.7161L26.2239 19.6464L26.1978 19.5897L34.2203 19.5636L37.1531 22.5007L23.8185 35.9658L19.7963 31.9394L26.2893 25.3811L4.75355 25.429L4.74048 19.7161Z" fill="#EBEFF6"/>
<path opacity="0.3" d="M4.84497 19.6117L26.3284 19.5463L26.3066 19.4896L34.3248 19.4635L37.2575 22.3962L23.923 35.8658L19.9008 31.8393L26.3938 25.281L4.85804 25.3246L4.84497 19.6117Z" fill="#EBEEF6"/>
<path opacity="0.3" d="M4.94971 19.5114L26.4332 19.4417L26.4114 19.385L34.4296 19.3589L37.3623 22.296L24.0277 35.7655L20.0056 31.739L26.4985 25.1764L4.96278 25.2243L4.94971 19.5114Z" fill="#EAEEF6"/>
<path opacity="0.3" d="M5.0542 19.4111L26.5333 19.3413L26.5159 19.2847L34.534 19.2585L37.4668 22.1913L24.1322 35.6608L20.11 31.6343L26.603 25.076L5.06727 25.124L5.0542 19.4111Z" fill="#E9EEF5"/>
<path opacity="0.3" d="M5.15894 19.3065L26.638 19.2367L26.6206 19.1801L34.6388 19.1539L37.5715 22.091L24.2369 35.5605L20.2148 31.5341L26.7078 24.9758L5.17201 25.0193L5.15894 19.3065Z" fill="#E9EDF5"/>
<path opacity="0.3" d="M5.26343 19.2063L26.7425 19.1366L26.7251 19.08L34.7433 19.0538L37.676 21.9909L24.3414 35.4561L20.3193 31.4296L26.8123 24.8713L5.2765 24.9192L5.26343 19.2063Z" fill="#E8EDF5"/>
<path opacity="0.3" d="M5.36792 19.1017L26.847 19.0319L26.8296 18.9796L34.8478 18.9535L37.7805 21.8862L24.4459 35.3557L20.4238 31.3292L26.9167 24.771L5.38099 24.8145L5.36792 19.1017Z" fill="#E8ECF5"/>
<path opacity="0.3" d="M5.47266 19.0015L26.9474 18.9318L26.9343 18.8751L34.9525 18.849L37.8852 21.7861L24.5507 35.2556L20.5285 31.2248L27.0215 24.6665L5.48573 24.7144L5.47266 19.0015Z" fill="#E7ECF4"/>
<path opacity="0.3" d="M5.57715 18.9012L27.0519 18.8271L27.0388 18.7748L35.057 18.7487L37.9897 21.6814L24.6552 35.1509L20.633 31.1244L27.126 24.5661L5.59022 24.6141L5.57715 18.9012Z" fill="#E7ECF4"/>
<path opacity="0.3" d="M5.68188 18.7967L27.1566 18.727L27.1436 18.6747L35.1617 18.6442L38.0944 21.5812L24.7599 35.0508L20.7377 31.0243L27.2307 24.4616L5.69496 24.5096L5.68188 18.7967Z" fill="#E6EBF4"/>
<path opacity="0.3" d="M5.78638 18.6966L27.2568 18.6225L27.2481 18.5702L35.2662 18.5441L38.199 21.4811L24.8644 34.9463L20.8422 30.9198L27.3352 24.3615L5.79945 24.4095L5.78638 18.6966Z" fill="#E6EBF4"/>
<path opacity="0.3" d="M5.89111 18.5919L27.3615 18.5222L27.3528 18.4699L35.371 18.4437L38.3037 21.3764L24.9691 34.846L20.947 30.8195L27.4399 24.2612L5.90419 24.3048L5.89111 18.5919Z" fill="#E5EAF3"/>
<path opacity="0.3" d="M5.99561 18.4916L27.466 18.4175L27.4573 18.3696L35.4755 18.3391L38.4082 21.2762L25.0736 34.7414L21.0515 30.7149L27.5444 24.1566L6.00868 24.2045L5.99561 18.4916Z" fill="#E5EAF3"/>
<path opacity="0.3" d="M6.1001 18.3914L27.5705 18.3173L27.5618 18.265L35.5799 18.2389L38.5127 21.1716L25.1781 34.6411L21.156 30.6147L27.6489 24.0564L6.11317 24.1043L6.1001 18.3914Z" fill="#E4EAF3"/>
<path opacity="0.3" d="M6.20459 18.2868L27.6706 18.2127V18.1648L35.6844 18.1343L38.6172 21.0713L25.2826 34.5409L21.2605 30.5144L27.7534 23.9518L6.21766 23.9997L6.20459 18.2868Z" fill="#E4E9F3"/>
<path opacity="0.3" d="M6.30933 18.1866L27.7753 18.1125V18.0602L35.7892 18.0341L38.7219 20.9711L25.3873 34.4363L21.3652 30.4098L27.8581 23.8515L6.3224 23.8995L6.30933 18.1866Z" fill="#E3E9F3"/>
<path opacity="0.3" d="M6.41821 18.082L27.8799 18.0079V17.96L35.898 17.9338L38.8264 20.8665L25.4919 34.3361L21.4697 30.3096L27.9627 23.7513L6.42692 23.7949L6.41821 18.082Z" fill="#E3E8F2"/>
<path opacity="0.3" d="M6.52295 17.9817L27.9846 17.9033V17.8597L36.0028 17.8292L38.9311 20.7663L25.5966 34.2315L21.5744 30.205L28.0674 23.6467L6.53166 23.6946L6.52295 17.9817Z" fill="#E2E8F2"/>
<path opacity="0.3" d="M6.6272 17.8773L28.0845 17.8032L28.0889 17.7553L36.107 17.7291L39.0354 20.6618L25.7052 34.1314L21.6787 30.1049L28.1717 23.5466L6.63592 23.5945L6.6272 17.8773Z" fill="#E2E7F2"/>
<path opacity="0.3" d="M6.73193 17.777L28.1892 17.6986L28.1936 17.655L36.2118 17.6245L39.1401 20.5616L25.8099 34.0311L21.7834 30.0046L28.2764 23.442L6.74064 23.4899L6.73193 17.777Z" fill="#E1E7F2"/>
<path opacity="0.3" d="M6.83643 17.6768L28.2937 17.5984L28.2981 17.5548L36.3163 17.5243L39.2446 20.457L25.9144 33.9265L21.8879 29.9001L28.3809 23.3418L6.84514 23.3897L6.83643 17.6768Z" fill="#E1E7F1"/>
<path opacity="0.3" d="M6.94116 17.5721L28.3941 17.4937L28.4028 17.4501L36.421 17.424L39.3494 20.3567L26.0192 33.8262L21.9927 29.7997L28.4856 23.2414L6.94989 23.285L6.94116 17.5721Z" fill="#E0E6F1"/>
<path opacity="0.3" d="M7.0459 17.472L28.4988 17.3935L28.5076 17.35L36.5257 17.3195L39.4541 20.2565L26.1239 33.7217L22.0974 29.6952L28.5904 23.1369L7.05462 23.1849L7.0459 17.472Z" fill="#E0E6F1"/>
<path opacity="0.3" d="M7.15039 17.3674L28.6034 17.289L28.6121 17.2454L36.6302 17.2192L39.5586 20.152L26.2284 33.6215L22.2019 29.595L28.6949 23.0367L7.1591 23.0803L7.15039 17.3674Z" fill="#DFE5F1"/>
<path opacity="0.3" d="M7.25488 17.267L28.7079 17.1886L28.7166 17.145L36.7347 17.1145L39.6631 20.0516L26.3329 33.5211L22.3064 29.4946L28.7994 22.932L7.26359 22.9799L7.25488 17.267Z" fill="#DFE5F0"/>
<path opacity="0.3" d="M7.35938 17.1668L28.808 17.084L28.8211 17.0448L36.8392 17.0143L39.7676 19.947L26.4374 33.4165L22.4109 29.39L28.9039 22.8318L7.3681 22.8797L7.35938 17.1668Z" fill="#DEE5F0"/>
<path opacity="0.3" d="M7.46387 17.0624L28.9125 16.984L28.9299 16.9404L36.9437 16.9099L39.8721 19.847L26.5419 33.3165L22.5154 29.29L29.0083 22.7317L7.47694 22.7753L7.46387 17.0624Z" fill="#DEE4F0"/>
<path opacity="0.3" d="M7.5686 16.9621L29.0172 16.8793L29.0346 16.8401L37.0484 16.8096L39.9768 19.7466L26.6466 33.2118L22.6201 29.1853L29.1131 22.627L7.58168 22.675L7.5686 16.9621Z" fill="#DDE4F0"/>
<path opacity="0.3" d="M7.6731 16.8575L29.1174 16.7791L29.1391 16.7399L37.153 16.7094L40.0813 19.6421L26.7511 33.1116L22.7246 29.0851L29.2176 22.5268L7.68617 22.5704L7.6731 16.8575Z" fill="#DDE3EF"/>
<path opacity="0.3" d="M7.77783 16.7573L29.2221 16.6745L29.2439 16.6352L37.2577 16.6047L40.186 19.5418L26.8558 33.007L22.8293 28.9805L29.3223 22.4222L7.7909 22.4702L7.77783 16.7573Z" fill="#DCE3EF"/>
<path opacity="0.3" d="M7.88257 16.657L29.3268 16.5742L29.3486 16.535L37.3624 16.5045L40.2908 19.4372L26.9606 32.9068L22.9341 28.8803L29.427 22.322L7.89564 22.3699L7.88257 16.657Z" fill="#DCE2EF"/>
<path opacity="0.3" d="M7.98706 16.5525L29.4313 16.4697L29.4531 16.4349L37.4669 16.4L40.3953 19.3371L27.0651 32.8066L23.0386 28.7801L29.5315 22.2175L8.00013 22.2654L7.98706 16.5525Z" fill="#DBE2EF"/>
<path opacity="0.3" d="M8.09155 16.4522L29.5314 16.3694L29.5576 16.3302L37.5714 16.2997L40.4998 19.2367L27.1696 32.7019L23.143 28.6754L29.636 22.1172L8.10463 22.1651L8.09155 16.4522Z" fill="#DBE2EF"/>
<path opacity="0.3" d="M8.19604 16.3477L29.6359 16.2649L29.6621 16.2301L37.6759 16.1996L40.6043 19.1323L27.2741 32.6018L23.2475 28.5753L29.7405 22.0171L8.20912 22.0606L8.19604 16.3477Z" fill="#DAE1EE"/>
<path opacity="0.3" d="M8.30078 16.2475L29.7407 16.1603L29.7668 16.1255L37.7806 16.095L40.709 19.032L27.3788 32.4972L23.3523 28.4707L29.8453 21.9125L8.31385 21.9604L8.30078 16.2475Z" fill="#DAE1EE"/>
<path opacity="0.3" d="M8.40527 16.1471L29.8408 16.06L29.8713 16.0251L37.8851 15.9946L40.8135 18.9273L27.4833 32.3969L23.4568 28.3704L29.9497 21.8121L8.41835 21.86L8.40527 16.1471Z" fill="#D9E0EE"/>
<path opacity="0.3" d="M8.51001 16.0427L29.9455 15.9555L29.976 15.925L37.9899 15.8901L40.9182 18.8272L27.588 32.2968L23.5615 28.2703L30.0545 21.7076L8.52308 21.7556L8.51001 16.0427Z" fill="#D9E0EE"/>
<path opacity="0.3" d="M8.6145 15.9423L30.05 15.8552L30.0805 15.8203L38.0943 15.7898L41.0227 18.7269L27.6925 32.1921L23.666 28.1656L30.159 21.6073L8.62757 21.6552L8.6145 15.9423Z" fill="#D8E0ED"/>
<path opacity="0.3" d="M8.71924 15.8379L30.1548 15.7507L30.1853 15.7202L38.1991 15.6897L41.1274 18.6224L27.7972 32.0919L23.7707 28.0655L30.2637 21.5072L8.73231 21.5508L8.71924 15.8379Z" fill="#D8DFED"/>
<path opacity="0.3" d="M8.82373 15.7377L30.2549 15.6506L30.2941 15.6201L38.3036 15.5852L41.232 18.5223L27.9017 31.9875L23.8752 27.961L30.3682 21.4027L8.8368 21.4506L8.82373 15.7377Z" fill="#D7DFED"/>
<path opacity="0.3" d="M8.92847 15.633L30.3596 15.5459L30.3989 15.5154L38.4083 15.4849L41.3367 18.4176L28.0065 31.8871L23.98 27.8606L30.4729 21.3023L8.94154 21.3503L8.92847 15.633Z" fill="#D7DEED"/>
<path opacity="0.3" d="M9.03296 15.5328L30.4641 15.4456L30.5033 15.4151L38.5128 15.3802L41.4412 18.3173L28.111 31.7869L24.0844 27.7604L30.5774 21.1977L9.04603 21.2457L9.03296 15.5328Z" fill="#D6DEEC"/>
<path opacity="0.3" d="M9.13745 15.4326L30.5686 15.341L30.6078 15.3149L38.6173 15.28L41.55 18.2127L28.2155 31.6823L24.189 27.6558L30.6819 21.0975L9.15052 21.1454L9.13745 15.4326Z" fill="#D5DEEC"/>
<path opacity="0.3" d="M9.24194 15.328L30.6688 15.2408L30.7123 15.2103L38.7218 15.1798L41.6545 18.1125L28.32 31.5821L24.2934 27.5556L30.7864 20.9973L9.25502 21.0409L9.24194 15.328Z" fill="#D5DDEC"/>
<path opacity="0.3" d="M9.34644 15.2277L30.7732 15.1362L30.8168 15.1101L38.8263 15.0752L41.759 18.0123L28.4244 31.4774L24.3979 27.451L30.8909 20.8927L9.35951 20.9406L9.34644 15.2277Z" fill="#D4DDEC"/>
<path opacity="0.3" d="M9.45093 15.1231L30.8777 15.036L30.9213 15.0055L38.9308 14.975L41.8635 17.9077L28.5289 31.3772L24.5024 27.3507L30.9954 20.7925L9.464 20.836L9.45093 15.1231Z" fill="#D4DCEC"/>
<path opacity="0.3" d="M9.55591 15.0229L30.9784 14.9314L31.0263 14.9052L39.0357 14.8704L41.9685 17.8074L28.6339 31.277L24.6074 27.2505L31.1004 20.6878L9.56898 20.7358L9.55591 15.0229Z" fill="#D3DCEB"/>
<path opacity="0.3" d="M9.6604 14.9227L31.0829 14.8311L31.1308 14.805L39.1403 14.7701L42.073 17.7028L28.7384 31.1724L24.7119 27.1459L31.2049 20.5876L9.67349 20.6356L9.6604 14.9227Z" fill="#D3DBEB"/>
<path opacity="0.3" d="M9.76514 14.8182L31.1876 14.7267L31.2355 14.7005L39.245 14.6656L42.1777 17.6027L28.8431 31.0723L24.8166 27.0458L31.3096 20.4831L9.77821 20.5311L9.76514 14.8182Z" fill="#D2DBEB"/>
<path opacity="0.3" d="M9.86963 14.718L31.2921 14.6264L31.34 14.6003L39.3495 14.5654L42.2822 17.5025L28.9476 30.9677L24.9211 26.9412L31.4141 20.3829L9.8827 20.4308L9.86963 14.718Z" fill="#D2DBEB"/>
<path opacity="0.3" d="M9.97412 14.6134L31.3922 14.5219L31.4445 14.5001L39.454 14.4652L42.3867 17.3979L29.0521 30.8675L25.0256 26.841L31.5186 20.2827L9.98719 20.3263L9.97412 14.6134Z" fill="#D1DAEA"/>
<path opacity="0.3" d="M10.0786 14.5131L31.4967 14.4172L31.5534 14.3955L39.5585 14.3606L42.4912 17.2977L29.1566 30.7628L25.1301 26.7364L31.6231 20.1781L10.0917 20.226L10.0786 14.5131Z" fill="#D1DAEA"/>
<path opacity="0.3" d="M10.1831 14.4129L31.6012 14.317L31.6579 14.2952L39.6629 14.2604L42.5957 17.1931L29.2611 30.6626L25.2346 26.6361L31.7276 20.0778L10.1962 20.1258L10.1831 14.4129Z" fill="#D0D9EA"/>
<path opacity="0.3" d="M10.2876 14.3083L31.7013 14.2124L31.7624 14.195L39.7675 14.1558L42.7002 17.0928L29.3656 30.5624L25.3391 26.5359L31.8321 19.9732L10.3007 20.0212L10.2876 14.3083Z" fill="#D0D9EA"/>
<path opacity="0.3" d="M10.3923 14.2081L31.8061 14.1122L31.8671 14.0904L39.8722 14.0555L42.8049 16.9926L29.4704 30.4578L25.4438 26.4313L31.9368 19.873L10.4054 19.921L10.3923 14.2081Z" fill="#CFD9E9"/>
<path opacity="0.3" d="M10.4971 14.1035L31.9108 14.0076L31.9718 13.9902L39.9769 13.9553L42.9096 16.888L29.5751 30.3576L25.5486 26.3311L32.0459 19.7728L10.5101 19.8164L10.4971 14.1035Z" fill="#CFD8E9"/>
<path opacity="0.3" d="M10.6018 14.0032L32.0155 13.9074L32.0765 13.8856L40.0816 13.8507L43.0144 16.7878L29.6798 30.253L25.6533 26.2265L32.1506 19.6682L10.6149 19.7161L10.6018 14.0032Z" fill="#CED8E9"/>
<path opacity="0.3" d="M10.7061 13.903L32.1154 13.8028L32.1808 13.7854L40.1859 13.7505L43.1186 16.6832L29.7841 30.1527L25.7575 26.1262L32.2549 19.568L10.7191 19.6159L10.7061 13.903Z" fill="#CED7E9"/>
<path opacity="0.3" d="M10.8105 13.7984L32.2199 13.7025L32.2853 13.6851L40.2904 13.6459L43.2231 16.5829L29.8886 30.0525L25.862 26.026L32.3594 19.4634L10.8236 19.5113L10.8105 13.7984Z" fill="#CDD7E9"/>
<path opacity="0.3" d="M10.9153 13.6982L32.3247 13.5979L32.39 13.5805L40.3952 13.5457L43.3279 16.4827L29.9933 29.9479L25.9668 25.9214L32.4641 19.3631L10.9284 19.4111L10.9153 13.6982Z" fill="#CDD7E8"/>
<path opacity="0.3" d="M11.0198 13.5936L32.4248 13.4977L32.4945 13.4803L40.4996 13.4454L43.4324 16.3781L30.0978 29.8477L26.0713 25.8212L32.5686 19.2629L11.0328 19.3065L11.0198 13.5936Z" fill="#CCD6E8"/>
<path opacity="0.3" d="M11.1245 13.4933L32.5295 13.3931L32.5993 13.38L40.6044 13.3408L43.5371 16.2779L30.2025 29.7431L26.176 25.7166L32.6734 19.1583L11.1376 19.2062L11.1245 13.4933Z" fill="#CCD6E8"/>
<path opacity="0.3" d="M11.229 13.3889L32.634 13.293L32.7037 13.2756L40.7088 13.2407L43.6416 16.1734L30.307 29.643L26.2805 25.6165L32.7778 19.0582L11.2421 19.1061L11.229 13.3889Z" fill="#CBD5E8"/>
<path opacity="0.3" d="M11.3337 13.2886L32.7388 13.1884L32.8128 13.1753L40.8136 13.1361L43.7463 16.0732L30.4118 29.5427L26.3852 25.5162L32.8826 18.9536L11.3468 19.0015L11.3337 13.2886Z" fill="#CBD5E7"/>
<path opacity="0.3" d="M11.4382 13.1884L32.8389 13.0882L32.9173 13.0751L40.9181 13.0359L43.8508 15.9686L30.5162 29.4381L26.4941 25.4116L32.9871 18.8534L11.4513 18.9013L11.4382 13.1884Z" fill="#CAD4E7"/>
<path opacity="0.3" d="M11.543 13.0838L32.9436 12.9836L33.0221 12.9705L41.0228 12.9357L43.9556 15.8684L30.621 29.3379L26.5988 25.3114L33.0918 18.7532L11.556 18.7967L11.543 13.0838Z" fill="#CAD4E7"/>
<path opacity="0.3" d="M11.6475 12.9834L33.0481 12.8832L33.1266 12.8702L41.1273 12.8309L44.06 15.768L30.7255 29.2332L26.7033 25.2067L33.1963 18.6484L11.6605 18.6963L11.6475 12.9834Z" fill="#C9D4E7"/>
<path opacity="0.3" d="M11.7522 12.8789L33.1529 12.7786L33.2313 12.7656L41.232 12.7307L44.1648 15.6634L30.8302 29.133L26.808 25.1065L33.301 18.5482L11.7653 18.5918L11.7522 12.8789Z" fill="#C9D3E6"/>
<path opacity="0.3" d="M11.8567 12.7787L33.253 12.6785L33.3358 12.6654L41.3365 12.6262L44.2693 15.5633L30.9347 29.0328L26.9126 25.0063L33.4055 18.4437L11.8698 18.4916L11.8567 12.7787Z" fill="#C8D3E6"/>
<path opacity="0.3" d="M11.9614 12.6785L33.3577 12.5739L33.4405 12.5652L41.4413 12.526L44.374 15.4587L31.0394 28.9282L27.0173 24.9018L33.5102 18.3435L11.9745 18.3914L11.9614 12.6785Z" fill="#C8D2E6"/>
<path opacity="0.3" d="M12.0657 12.5739L33.462 12.4693L33.5448 12.4606L41.5455 12.4214L44.4782 15.3585L31.1437 28.828L27.1215 24.8015L33.6145 18.2389L12.0787 18.2868L12.0657 12.5739Z" fill="#C7D2E6"/>
<path opacity="0.3" d="M12.1704 12.4737L33.5624 12.3691L33.6495 12.3604L41.6502 12.3212L44.583 15.2582L31.2484 28.7234L27.2263 24.6969L33.7192 18.1386L12.1835 18.1866L12.1704 12.4737Z" fill="#C7D2E6"/>
<path opacity="0.3" d="M12.2749 12.3692L33.6669 12.2646L33.754 12.2603L41.7547 12.2211L44.6875 15.1538L31.3529 28.6233L27.3308 24.5968L33.8237 18.0386L12.288 18.0821L12.2749 12.3692Z" fill="#C6D1E5"/>
<path opacity="0.3" d="M12.3796 12.269L33.7716 12.1644L33.8587 12.1557L41.8595 12.1165L44.7922 15.0535L31.4576 28.5187L27.4355 24.4922L33.9284 17.9339L12.3927 17.9819L12.3796 12.269Z" fill="#C6D1E5"/>
<path opacity="0.3" d="M12.4841 12.1686L33.8761 12.0597L33.9632 12.0553L41.964 12.0161L44.8967 14.9488L31.5621 28.4184L27.54 24.3919L34.033 17.8336L12.4972 17.8815L12.4841 12.1686Z" fill="#C5D0E5"/>
<path opacity="0.3" d="M12.5889 12.064L33.9765 11.9594L34.068 11.9551L42.0687 11.9115L45.0015 14.8486L31.6669 28.3181L27.6447 24.2916L34.1377 17.729L12.6019 17.7769L12.5889 12.064Z" fill="#C5D0E5"/>
<path opacity="0.3" d="M12.6934 11.9638L34.0809 11.8549L34.1768 11.8505L42.1732 11.8113L45.1059 14.7483L31.7714 28.2135L27.7492 24.187L34.2422 17.6288L12.7064 17.6767L12.6934 11.9638Z" fill="#C4CFE4"/>
<path opacity="0.3" d="M12.7979 11.8592L34.1855 11.7546L34.2813 11.7503L42.2777 11.7111L45.2104 14.6438L31.8759 28.1133L27.8537 24.0868L34.3467 17.5285L12.8109 17.5721L12.7979 11.8592Z" fill="#C4CFE4"/>
<path opacity="0.3" d="M12.9023 11.7591L34.2856 11.6501L34.3858 11.6458L42.3822 11.6066L45.3149 14.5436L31.9804 28.0088L27.9582 23.9823L34.4512 17.424L12.9154 17.472L12.9023 11.7591Z" fill="#C3CFE4"/>
<path opacity="0.3" d="M13.0071 11.6589L34.3903 11.5499L34.4905 11.5456L42.4869 11.5063L45.4197 14.4391L32.0851 27.9086L28.0629 23.8821L34.5559 17.3238L13.0202 17.3718L13.0071 11.6589Z" fill="#C3CEE4"/>
<path opacity="0.3" d="M13.1118 11.5544L34.4951 11.4454H34.5953L42.5917 11.4019L45.5244 14.3389L32.1898 27.8085L28.1677 23.782L34.6606 17.2193L13.1249 17.2673L13.1118 11.5544Z" fill="#C2CEE3"/>
<path opacity="0.3" d="M13.2163 11.454L34.5995 11.3451L34.6998 11.3407L42.6962 11.3015L45.6289 14.2342L32.2943 27.7038L28.2722 23.6773L34.7651 17.119L13.2294 17.1669L13.2163 11.454Z" fill="#C2CDE3"/>
<path opacity="0.3" d="M45.7332 14.134L32.3986 27.6035L28.3765 23.5771L34.8694 17.0188L13.3337 17.0623L13.325 11.3495L42.8048 11.2013L45.7332 14.134Z" fill="#C1CDE3"/>
</g>
<path d="M35.0572 11.0313L13.3994 11.0793L13.4125 16.7878L35.0703 16.7399L28.5381 23.3025L32.582 27.329L45.995 13.8638L32.5254 0.450928L28.4988 4.49919L35.0572 11.0313Z" fill="#B9CEF9"/>
</svg>
